<svg width="44" height="44" viewBox="0 0 44 44" fill="none" xmlns="http://www.w3.org/2000/svg">
<path d="M0 22C0 9.84974 9.84974 0 22 0C34.1503 0 44 9.84974 44 22C44 34.1503 34.1503 44 22 44C9.84974 44 0 34.1503 0 22Z" fill="#3B2186"></path>
<path d="M17.6667 26C17.6667 26.3667 17.9667 26.6667 18.3333 26.6667H19V29C19 29.5533 19.4467 30 20 30C20.5533 30 21 29.5533 21 29V26.6667H22.3333V29C22.3333 29.5533 22.78 30 23.3333 30C23.8867 30 24.3333 29.5533 24.3333 29V26.6667H25C25.3667 26.6667 25.6667 26.3667 25.6667 26V19.3333H17.6667V26ZM16 19.3333C15.4467 19.3333 15 19.78 15 20.3333V25C15 25.5533 15.4467 26 16 26C16.5533 26 17 25.5533 17 25V20.3333C17 19.78 16.5533 19.3333 16 19.3333ZM27.3333 19.3333C26.78 19.3333 26.3333 19.78 26.3333 20.3333V25C26.3333 25.5533 26.78 26 27.3333 26C27.8867 26 28.3333 25.5533 28.3333 25V20.3333C28.3333 19.78 27.8867 19.3333 27.3333 19.3333ZM24.02 15.44L24.8867 14.5733C25.02 14.44 25.02 14.2333 24.8867 14.1C24.7533 13.9667 24.5467 13.9667 24.4133 14.1L23.4267 15.0867C22.8811 14.8104 22.2782 14.6665 21.6667 14.6667C21.0267 14.6667 20.4267 14.82 19.8933 15.0867L18.9 14.1C18.7667 13.9667 18.56 13.9667 18.4267 14.1C18.2933 14.2333 18.2933 14.44 18.4267 14.5733L19.3 15.4467C18.7937 15.8171 18.3819 16.3018 18.0981 16.8613C17.8143 17.4208 17.6665 18.0393 17.6667 18.6667H25.6667C25.6667 17.34 25.02 16.1667 24.02 15.44ZM20.3333 17.3333H19.6667V16.6667H20.3333V17.3333ZM23.6667 17.3333H23V16.6667H23.6667V17.3333Z" fill="white"></path>
</svg>
