<svg width="44" height="44" fill="none" xmlns="http://www.w3.org/2000/svg"><path d="M0 22C0 9.85 9.85 0 22 0s22 9.85 22 22-9.85 22-22 22S0 34.15 0 22Z" fill="#3B2186"/><path d="M17.667 26c0 .367.3.667.666.667H19V29c0 .553.447 1 1 1 .553 0 1-.447 1-1v-2.333h1.333V29c0 .553.447 1 1 1 .554 0 1-.447 1-1v-2.333H25c.367 0 .667-.3.667-.667v-6.667h-8V26ZM16 19.333c-.553 0-1 .447-1 1V25c0 .553.447 1 1 1 .553 0 1-.447 1-1v-4.667c0-.553-.447-1-1-1Zm11.333 0c-.553 0-1 .447-1 1V25c0 .553.447 1 1 1 .554 0 1-.447 1-1v-4.667c0-.553-.446-1-1-1ZM24.02 15.44l.867-.867a.33.33 0 0 0 0-.473.33.33 0 0 0-.474 0l-.986.987a3.893 3.893 0 0 0-1.76-.42c-.64 0-1.24.153-1.774.42L18.9 14.1a.33.33 0 0 0-.473 0 .33.33 0 0 0 0 .473l.873.874a3.988 3.988 0 0 0-1.633 3.22h8c0-1.327-.647-2.5-1.647-3.227Zm-3.687 1.893h-.666v-.666h.666v.666Zm3.334 0H23v-.666h.667v.666Z" fill="#fff"/></svg>