<svg width="91" height="24" viewBox="0 0 91 24" fill="none" xmlns="http://www.w3.org/2000/svg">
<path d="M3.66667 16C3.66667 16.3667 3.96667 16.6667 4.33333 16.6667H5V19C5 19.5533 5.44667 20 6 20C6.55333 20 7 19.5533 7 19V16.6667H8.33333V19C8.33333 19.5533 8.78 20 9.33333 20C9.88667 20 10.3333 19.5533 10.3333 19V16.6667H11C11.3667 16.6667 11.6667 16.3667 11.6667 16V9.33333H3.66667V16ZM2 9.33333C1.44667 9.33333 1 9.78 1 10.3333V15C1 15.5533 1.44667 16 2 16C2.55333 16 3 15.5533 3 15V10.3333C3 9.78 2.55333 9.33333 2 9.33333ZM13.3333 9.33333C12.78 9.33333 12.3333 9.78 12.3333 10.3333V15C12.3333 15.5533 12.78 16 13.3333 16C13.8867 16 14.3333 15.5533 14.3333 15V10.3333C14.3333 9.78 13.8867 9.33333 13.3333 9.33333ZM10.02 5.44L10.8867 4.57333C11.02 4.44 11.02 4.23333 10.8867 4.1C10.7533 3.96667 10.5467 3.96667 10.4133 4.1L9.42667 5.08667C8.88112 4.81039 8.27818 4.66651 7.66667 4.66667C7.02667 4.66667 6.42667 4.82 5.89333 5.08667L4.9 4.1C4.76667 3.96667 4.56 3.96667 4.42667 4.1C4.29333 4.23333 4.29333 4.44 4.42667 4.57333L5.3 5.44667C4.7937 5.81712 4.38193 6.30178 4.09813 6.86127C3.81433 7.42077 3.66651 8.03931 3.66667 8.66667H11.6667C11.6667 7.34 11.02 6.16667 10.02 5.44ZM6.33333 7.33333H5.66667V6.66667H6.33333V7.33333ZM9.66667 7.33333H9V6.66667H9.66667V7.33333Z" fill="white"></path>
<path d="M34.0603 15.728H29.5323L28.7323 18H26.3483L30.5083 6.832H33.0843L37.2283 18H34.8443L34.0603 15.728ZM33.4523 14.016L31.7883 9.248L30.1243 14.016H33.4523ZM43.7259 9.008C44.7499 9.008 45.5659 9.344 46.1739 10.016C46.7819 10.688 47.0859 11.632 47.0859 12.848V18H44.8459V13.104C44.8459 12.4 44.6645 11.856 44.3019 11.472C43.9392 11.0773 43.4432 10.88 42.8139 10.88C42.1739 10.88 41.6619 11.088 41.2779 11.504C40.8939 11.92 40.7019 12.5173 40.7019 13.296V18H38.4459V9.136H40.7019V10.912C40.9365 10.3147 41.3205 9.85067 41.8539 9.52C42.3979 9.17867 43.0219 9.008 43.7259 9.008ZM52.5429 9.024C53.2895 9.024 53.9242 9.2 54.4469 9.552C54.9802 9.904 55.3642 10.3787 55.5989 10.976V6.16H57.8389V18H55.5989V16.144C55.3642 16.7413 54.9802 17.2213 54.4469 17.584C53.9242 17.936 53.2895 18.112 52.5429 18.112C51.7962 18.112 51.1242 17.9307 50.5269 17.568C49.9295 17.2053 49.4602 16.6827 49.1189 16C48.7882 15.3067 48.6229 14.496 48.6229 13.568C48.6229 12.64 48.7882 11.8347 49.1189 11.152C49.4602 10.4587 49.9295 9.93067 50.5269 9.568C51.1242 9.20533 51.7962 9.024 52.5429 9.024ZM53.2469 10.992C52.5429 10.992 51.9775 11.2213 51.5509 11.68C51.1242 12.1387 50.9109 12.768 50.9109 13.568C50.9109 14.368 51.1242 14.9973 51.5509 15.456C51.9775 15.904 52.5429 16.128 53.2469 16.128C53.9295 16.128 54.4895 15.8987 54.9269 15.44C55.3749 14.9707 55.5989 14.3467 55.5989 13.568C55.5989 12.7787 55.3749 12.1547 54.9269 11.696C54.4895 11.2267 53.9295 10.992 53.2469 10.992ZM62.1394 10.832C62.47 10.2667 62.9074 9.824 63.4514 9.504C63.9954 9.17333 64.6034 9.008 65.2754 9.008V11.424H64.6194C62.966 11.424 62.1394 12.192 62.1394 13.728V18H59.8834V9.136H62.1394V10.832ZM70.62 9.024C71.484 9.024 72.2573 9.20533 72.94 9.568C73.6333 9.93067 74.1773 10.4587 74.572 11.152C74.9667 11.8347 75.164 12.64 75.164 13.568C75.164 14.496 74.9667 15.3013 74.572 15.984C74.1773 16.6667 73.6333 17.1947 72.94 17.568C72.2573 17.9307 71.484 18.112 70.62 18.112C69.756 18.112 68.9773 17.9307 68.284 17.568C67.6013 17.1947 67.0627 16.6667 66.668 15.984C66.2733 15.3013 66.076 14.496 66.076 13.568C66.076 12.64 66.2733 11.8347 66.668 11.152C67.0627 10.4587 67.6013 9.93067 68.284 9.568C68.9773 9.20533 69.756 9.024 70.62 9.024ZM70.62 10.976C69.9907 10.976 69.4573 11.2 69.02 11.648C68.5827 12.0853 68.364 12.7253 68.364 13.568C68.364 14.4107 68.5827 15.056 69.02 15.504C69.4573 15.9413 69.9907 16.16 70.62 16.16C71.2493 16.16 71.7827 15.9413 72.22 15.504C72.6573 15.056 72.876 14.4107 72.876 13.568C72.876 12.7253 72.6573 12.0853 72.22 11.648C71.7827 11.2 71.2493 10.976 70.62 10.976ZM76.5024 6.592C76.5024 6.22933 76.6304 5.936 76.8864 5.712C77.1424 5.47733 77.4784 5.36 77.8944 5.36C78.3104 5.36 78.6464 5.47733 78.9024 5.712C79.1584 5.936 79.2864 6.22933 79.2864 6.592C79.2864 6.944 79.1584 7.23733 78.9024 7.472C78.6464 7.696 78.3104 7.808 77.8944 7.808C77.4784 7.808 77.1424 7.696 76.8864 7.472C76.6304 7.23733 76.5024 6.944 76.5024 6.592ZM79.0144 9.136V18H76.7584V9.136H79.0144ZM84.5273 9.024C85.2739 9.024 85.9086 9.2 86.4313 9.552C86.9646 9.904 87.3486 10.3787 87.5833 10.976V6.16H89.8233V18H87.5833V16.144C87.3486 16.7413 86.9646 17.2213 86.4313 17.584C85.9086 17.936 85.2739 18.112 84.5273 18.112C83.7806 18.112 83.1086 17.9307 82.5113 17.568C81.9139 17.2053 81.4446 16.6827 81.1033 16C80.7726 15.3067 80.6073 14.496 80.6073 13.568C80.6073 12.64 80.7726 11.8347 81.1033 11.152C81.4446 10.4587 81.9139 9.93067 82.5113 9.568C83.1086 9.20533 83.7806 9.024 84.5273 9.024ZM85.2313 10.992C84.5273 10.992 83.9619 11.2213 83.5353 11.68C83.1086 12.1387 82.8953 12.768 82.8953 13.568C82.8953 14.368 83.1086 14.9973 83.5353 15.456C83.9619 15.904 84.5273 16.128 85.2313 16.128C85.9139 16.128 86.4739 15.8987 86.9113 15.44C87.3593 14.9707 87.5833 14.3467 87.5833 13.568C87.5833 12.7787 87.3593 12.1547 86.9113 11.696C86.4739 11.2267 85.9139 10.992 85.2313 10.992Z" fill="white"></path>
</svg>
