<svg width="91" height="24" fill="none" xmlns="http://www.w3.org/2000/svg"><path d="M3.667 16c0 .367.3.667.666.667H5V19c0 .553.447 1 1 1 .553 0 1-.447 1-1v-2.333h1.333V19c0 .553.447 1 1 1 .554 0 1-.447 1-1v-2.333H11c.367 0 .667-.3.667-.667V9.333h-8V16ZM2 9.333c-.553 0-1 .447-1 1V15c0 .553.447 1 1 1 .553 0 1-.447 1-1v-4.667c0-.553-.447-1-1-1Zm11.333 0c-.553 0-1 .447-1 1V15c0 .553.447 1 1 1 .554 0 1-.447 1-1v-4.667c0-.553-.446-1-1-1ZM10.02 5.44l.867-.867a.33.33 0 0 0 0-.473.33.33 0 0 0-.474 0l-.986.987a3.893 3.893 0 0 0-1.76-.42c-.64 0-1.24.153-1.774.42L4.9 4.1a.33.33 0 0 0-.473 0 .33.33 0 0 0 0 .473l.873.874a3.989 3.989 0 0 0-1.633 3.22h8c0-1.327-.647-2.5-1.647-3.227ZM6.333 7.333h-.666v-.666h.666v.666Zm3.334 0H9v-.666h.667v.666ZM34.06 15.728h-4.528l-.8 2.272h-2.384l4.16-11.168h2.576L37.228 18h-2.384l-.784-2.272Zm-.608-1.712-1.664-4.768-1.664 4.768h3.328Zm10.274-5.008c1.024 0 1.84.336 2.448 1.008.608.672.912 1.616.912 2.832V18h-2.24v-4.896c0-.704-.181-1.248-.544-1.632-.363-.395-.859-.592-1.488-.592-.64 0-1.152.208-1.536.624-.384.416-.576 1.013-.576 1.792V18h-2.256V9.136h2.256v1.776a2.794 2.794 0 0 1 1.152-1.392c.544-.341 1.168-.512 1.872-.512Zm8.817.016c.746 0 1.381.176 1.904.528.533.352.917.827 1.152 1.424V6.16h2.24V18h-2.24v-1.856a3.056 3.056 0 0 1-1.152 1.44c-.523.352-1.158.528-1.904.528a3.807 3.807 0 0 1-2.016-.544c-.598-.363-1.067-.885-1.408-1.568-.33-.693-.496-1.504-.496-2.432 0-.928.165-1.733.496-2.416.341-.693.81-1.221 1.408-1.584a3.807 3.807 0 0 1 2.016-.544Zm.704 1.968c-.704 0-1.27.23-1.696.688-.427.459-.64 1.088-.64 1.888 0 .8.213 1.43.64 1.888.426.448.992.672 1.696.672.682 0 1.242-.23 1.68-.688.448-.47.672-1.093.672-1.872 0-.79-.224-1.413-.672-1.872-.438-.47-.998-.704-1.68-.704Zm8.892-.16a3.643 3.643 0 0 1 1.312-1.328 3.443 3.443 0 0 1 1.824-.496v2.416h-.656c-1.653 0-2.48.768-2.48 2.304V18h-2.256V9.136h2.256v1.696Zm8.481-1.808c.864 0 1.637.181 2.32.544.693.363 1.237.89 1.632 1.584.395.683.592 1.488.592 2.416 0 .928-.197 1.733-.592 2.416a4.09 4.09 0 0 1-1.632 1.584c-.683.363-1.456.544-2.32.544-.864 0-1.643-.181-2.336-.544a4.118 4.118 0 0 1-1.616-1.584c-.395-.683-.592-1.488-.592-2.416 0-.928.197-1.733.592-2.416a3.981 3.981 0 0 1 1.616-1.584c.693-.363 1.472-.544 2.336-.544Zm0 1.952c-.63 0-1.163.224-1.6.672-.437.437-.656 1.077-.656 1.92s.219 1.488.656 1.936c.437.437.97.656 1.6.656.63 0 1.163-.219 1.6-.656.437-.448.656-1.093.656-1.936s-.219-1.483-.656-1.92a2.151 2.151 0 0 0-1.6-.672Zm5.882-4.384c0-.363.128-.656.384-.88.256-.235.592-.352 1.008-.352.416 0 .752.117 1.008.352.256.224.384.517.384.88 0 .352-.128.645-.384.88-.256.224-.592.336-1.008.336-.416 0-.752-.112-1.008-.336a1.144 1.144 0 0 1-.384-.88Zm2.512 2.544V18h-2.256V9.136h2.256Zm5.513-.112c.747 0 1.382.176 1.904.528.534.352.918.827 1.152 1.424V6.16h2.24V18h-2.24v-1.856a3.056 3.056 0 0 1-1.152 1.44c-.522.352-1.157.528-1.904.528a3.807 3.807 0 0 1-2.016-.544c-.597-.363-1.066-.885-1.408-1.568-.33-.693-.496-1.504-.496-2.432 0-.928.166-1.733.496-2.416.342-.693.81-1.221 1.408-1.584a3.807 3.807 0 0 1 2.016-.544Zm.704 1.968c-.704 0-1.27.23-1.696.688-.426.459-.64 1.088-.64 1.888 0 .8.214 1.43.64 1.888.427.448.992.672 1.696.672.683 0 1.243-.23 1.68-.688.448-.47.672-1.093.672-1.872 0-.79-.224-1.413-.672-1.872-.437-.47-.997-.704-1.68-.704Z" fill="#fff"/></svg>