<svg width="44" height="44" fill="none" xmlns="http://www.w3.org/2000/svg"><path d="M21.966 20.881a.367.367 0 0 1-.184-.684l16.035-9.258a.367.367 0 0 1 .39.62l-5.392 3.667 5.543-3.2a.367.367 0 0 1 .397.616L33.382 16.5l5.506-3.178a.367.367 0 0 1 .391.62l-2.399 1.652 2.328-1.343a.367.367 0 0 1 .393.617l-1.513 1.056 1.375-.793a.367.367 0 0 1 .4.613l-1.51 1.109 1.337-.77a.367.367 0 0 1 .426.59l-1.923 1.704 1.728-.997a.366.366 0 0 1 .482.531l-1.027 1.436.68-.392a.367.367 0 1 1 .366.635l-2.15 1.237a.366.366 0 0 1-.482-.53l1.027-1.436-3.406 1.966a.366.366 0 0 1-.426-.591l1.922-1.703-3.973 2.294a.367.367 0 0 1-.4-.613l1.515-1.11-2.99 1.723a.367.367 0 0 1-.392-.618l1.508-1.052-2.893 1.67a.367.367 0 0 1-.391-.62l2.4-1.654-3.937 2.274a.367.367 0 0 1-.398-.616l5.371-3.858-7.747 4.474a.367.367 0 0 1-.39-.62l5.39-3.667-7.433 4.291a.366.366 0 0 1-.181.05Z" fill="#3B2186"/><path d="M18.627 40.582a.367.367 0 0 1-.294-.587l.756-.982-2.162 1.247a.367.367 0 0 1-.413-.603l.044-.036-.695.401a.367.367 0 0 1-.425-.591l2.07-1.824-3.318 1.92a.366.366 0 0 1-.406-.61l1.967-1.5-2.811 1.618a.367.367 0 0 1-.41-.605l3.646-2.853-4.742 2.738a.367.367 0 0 1-.4-.614l3.886-2.852-4.744 2.738a.367.367 0 0 1-.396-.616l4.272-3.043-5.005 2.885a.367.367 0 0 1-.394-.617l4.774-3.343-5.434 3.138a.367.367 0 0 1-.386-.623l2.88-1.911-3.242 1.873a.367.367 0 0 1-.39-.62l5.777-3.972-6.326 3.655a.367.367 0 0 1-.385-.623l3.928-2.585-4.23 2.438A.367.367 0 0 1 5.235 33l4.396-2.886-4.666 2.692a.367.367 0 0 1-.388-.622l6.468-4.327-6.807 3.932a.367.367 0 0 1-.373-.631l4.59-2.782-4.67 2.695a.367.367 0 0 1-.378-.628l14.977-9.328L3.136 29.92a.366.366 0 1 1-.376-.63l12.409-7.662-12.535 7.236a.367.367 0 0 1-.375-.63l7.411-4.52-7.397 4.273a.367.367 0 0 1-.376-.63l11.517-7.102-11.525 6.653a.366.366 0 0 1-.376-.628l12.083-7.474-12.04 6.95a.367.367 0 0 1-.375-.629l6.88-4.202-6.723 3.881a.367.367 0 0 1-.376-.628l11.674-7.238-11.513 6.645a.367.367 0 0 1-.378-.628l13.492-8.456-13.25 7.65a.366.366 0 0 1-.376-.63l7-4.3-6.665 3.847a.367.367 0 0 1-.378-.629l10.163-6.331-9.759 5.634a.366.366 0 0 1-.374-.63l.4-.244a.367.367 0 0 1-.337-.648l11-6.96-10.392 6a.367.367 0 0 1-.378-.627l8.539-5.38-7.825 4.514a.367.367 0 0 1-.381-.626l9.708-6.253L2.2 13.933a.367.367 0 0 1-.382-.626L8.653 8.92l-5.71 3.296a.367.367 0 0 1-.377-.628l1.863-1.174-.75.434a.367.367 0 0 1-.392-.62L9.52 5.936l-4 2.304a.367.367 0 0 1-.4-.613L8.395 5.22a.367.367 0 0 1-.073-.667l4.62-2.668a.367.367 0 0 1 .401.613l-2.403 1.76 6.16-3.557a.367.367 0 0 1 .392.62l-6.228 4.29L20.232.44a.366.366 0 0 1 .378.627L18.751 2.24 21.78.494a.367.367 0 0 1 .382.626L15.32 5.512 23.628.715a.367.367 0 0 1 .381.625l-9.706 6.252 11.205-6.47a.366.366 0 1 1 .38.628L17.35 7.13l9.62-5.556a.367.367 0 1 1 .383.626L16.346 9.167l12.107-6.993a.366.366 0 0 1 .373.63l-.273.167.71-.41a.367.367 0 1 1 .377.629L19.47 9.527l10.963-6.328a.367.367 0 1 1 .376.63l-6.996 4.299 7.532-4.35a.367.367 0 0 1 .379.628L18.23 12.862 32.51 4.62a.367.367 0 0 1 .377.628l-11.672 7.236 12.247-7.071a.367.367 0 0 1 .374.63l-6.85 4.184 7.187-4.15a.367.367 0 0 1 .376.629l-12.09 7.48L35 6.943a.367.367 0 0 1 .377.63L23.86 14.674l11.89-6.864a.367.367 0 0 1 .375.63l-7.416 4.522 7.62-4.4a.367.367 0 0 1 .376.63l-12.42 7.668L36.99 9.527a.367.367 0 1 1 .378.63l-14.977 9.325 15.275-8.819a.367.367 0 0 1 .374.631L20.804 21.746l.021.03a.366.366 0 0 1-.107.499l-6.464 4.322 6.074-3.507a.367.367 0 0 1 .384.624l-4.4 2.887 4.013-2.317a.367.367 0 0 1 .384.624l-3.916 2.581 3.535-2.042a.367.367 0 0 1 .39.62L14.94 30.04l5.388-3.11a.366.366 0 0 1 .386.622l-2.882 1.913 2.493-1.441a.366.366 0 0 1 .394.617l-4.775 3.343 4.38-2.528a.366.366 0 0 1 .397.616l-4.274 3.045 3.878-2.238a.367.367 0 0 1 .4.613l-3.883 2.85 3.483-2.01a.366.366 0 0 1 .41.606l-3.648 2.855 3.24-1.869a.367.367 0 0 1 .406.609l-1.966 1.5 1.56-.9a.367.367 0 0 1 .426.592l-2.069 1.822 1.644-.95a.367.367 0 0 1 .413.604l-.25.2a.334.334 0 0 1 .294.125.367.367 0 0 1 .014.465l-.753.978.232-.134a.365.365 0 0 1 .514.126.366.366 0 0 1-.147.508l-1.838 1.062a.36.36 0 0 1-.18.051Z" fill="#3B2186"/><path d="M26.24 43.473a.367.367 0 0 1-.206-.67l6.307-4.295-8.152 4.707a.367.367 0 0 1-.381-.626l4.746-3.053-4.861 2.806a.367.367 0 0 1-.382-.625l4.914-3.14-4.547 2.628a.367.367 0 0 1-.382-.625l7.179-4.652-6.803 3.924a.367.367 0 0 1-.377-.628l2.505-1.572-2.127 1.229a.367.367 0 0 1-.385-.624l9.35-6.16-8.966 5.172a.366.366 0 0 1-.38-.626l5.76-3.677-5.38 3.106a.367.367 0 0 1-.377-.628l.94-.586-.563.325a.366.366 0 0 1-.378-.627l2.01-1.266-1.632.94a.366.366 0 0 1-.385-.624l5.433-3.579-5.048 2.914a.366.366 0 0 1-.386-.623l3.848-2.545-3.462 1.995a.367.367 0 0 1-.395-.616l4.84-3.437-4.446 2.567a.367.367 0 0 1-.4-.613l3.426-2.514-3.025 1.746a.367.367 0 0 1-.42-.596l2.893-2.446-2.473 1.427a.366.366 0 0 1-.416-.6l.782-.642-.366.21a.367.367 0 0 1-.5-.502l.733-1.253-.02.011a.367.367 0 0 1-.368-.634l1.217-.703a.367.367 0 0 1 .5.502L24.5 24.93l3.045-1.76a.367.367 0 0 1 .416.6l-.783.643 2.156-1.24a.366.366 0 0 1 .42.597l-2.894 2.447 5.272-3.044a.367.367 0 0 1 .4.614l-3.426 2.51 5.415-3.124a.367.367 0 0 1 .395.616l-4.84 3.438 7.02-4.054a.366.366 0 0 1 .386.623l-3.847 2.55 5.494-3.173a.367.367 0 0 1 .385.624l-5.426 3.575 7.272-4.199a.367.367 0 0 1 .38.627l-2.01 1.268 2.76-1.595a.367.367 0 0 1 .378.628l-.932.582 1.021-.587a.367.367 0 0 1 .381.626l-5.76 3.673 5.423-3.132a.367.367 0 0 1 .385.624l-9.353 6.165 8.702-5.024a.366.366 0 1 1 .379.628l-2.494 1.565 1.859-1.073a.367.367 0 0 1 .382.625l-7.187 4.657 6.307-3.64a.367.367 0 0 1 .381.626l-4.913 3.14 3.927-2.267a.366.366 0 0 1 .382.626l-4.738 3.048 3.52-2.033a.367.367 0 0 1 .39.62l-6.307 4.294 4.277-2.47a.366.366 0 0 1 .401.613l-3.382 2.493a.366.366 0 0 1 .275.673l-5.5 3.173a.367.367 0 0 1-.4-.612l3.283-2.42-7.155 4.13a.362.362 0 0 1-.182.049Z" fill="#F2CF7E"/><path d="M12.849 39.274c2.84 1.1 9.1 3.173 8.223-2.075.579-3.356-1.28-14.82.897-16.274 5.358-.005 10.726.004 16.086 0 6.313-.151.245-10.927-1.889-13.382-23.04-24.105-53.71 17.151-23.317 31.73ZM2.966 12.54c7.057-16.684 32.401-14.133 36.28 3.457.232.958 1.173 4.012-.396 4.145-22.853.28-18.612-4.163-18.855 18.7-.139 1.227-1.185 1.032-2.114.899C5.479 38.268-2.43 23.786 2.966 12.54Z" fill="#2A2A38"/><path d="M22.936 41.839c.617 3.226 5.178 1.011 7.255.567a20.43 20.43 0 0 0 13.602-17.498c-.171-3.248-8.389-1.14-10.853-1.708-2.773.599-9.178-1.634-10.004 1.903-.012 5.574-.028 11.163 0 16.736Zm1.304-17.78c4.461-.9 9.54-.038 14.204-.328 1.45.201 4.136-.75 4.285 1.441a19.767 19.767 0 0 1-10.34 15.754c-1.902.765-7.703 3.821-8.392.68.175-5.804-.4-11.845.243-17.547Z" fill="#2A2A38"/><path d="M29.577 36.2a2.053 2.053 0 0 1-1.18-1.876c-2.26-.813-.398 2.882 1.139 2.634.103.423-.242 1.251.196 1.43.997.14.9-.783.866-1.487 2.922-.477 2.836-4.833-.21-4.956a1.975 1.975 0 0 1-1.73-.983c-.806-1.265.372-3.313 1.899-2.63a2.053 2.053 0 0 1 1.179 1.877c2.258.814.402-2.879-1.133-2.634.376-2.19-1.42-1.96-1.072.058-2.918.48-2.828 4.834.215 4.955 2.653-.175 2.543 4.524-.17 3.612Z" fill="#2A2A38"/></svg>