<svg width="56" height="88" fill="none" xmlns="http://www.w3.org/2000/svg"><path d="M6.804 9.334h-4.34l-.826 2.282H.266L3.92 1.928h1.442l3.64 9.688H7.63l-.826-2.282ZM6.44 8.34 4.634 3.356 2.828 8.34H6.44Zm10.683-4.41v7.686H15.85V9.81c-.196.625-.546 1.106-1.05 1.442-.494.327-1.073.49-1.736.49-.886 0-1.605-.285-2.155-.854-.551-.579-.826-1.404-.826-2.478V3.93h1.273v4.354c0 .766.197 1.358.588 1.778.393.41.925.616 1.597.616.7 0 1.26-.224 1.68-.672.42-.457.63-1.12.63-1.988V3.93h1.274Zm5.71 6.566v1.12h-.952c-.784 0-1.372-.186-1.764-.56-.383-.373-.574-.998-.574-1.876V5.036h-1.148V3.93h1.148V2.012h1.288V3.93h1.988v1.106H20.83v4.172c0 .495.088.835.266 1.022.186.178.504.266.952.266h.784Zm5.04-6.664c.738 0 1.396.159 1.974.476A3.35 3.35 0 0 1 31.22 5.68c.336.598.504 1.298.504 2.1 0 .803-.168 1.503-.504 2.1a3.372 3.372 0 0 1-1.372 1.358c-.578.318-1.236.476-1.974.476-.737 0-1.4-.159-1.988-.476a3.49 3.49 0 0 1-1.372-1.358c-.336-.597-.504-1.297-.504-2.1 0-.802.168-1.502.504-2.1a3.465 3.465 0 0 1 1.372-1.372c.588-.317 1.25-.476 1.988-.476Zm0 1.12c-.457 0-.882.103-1.274.308-.382.206-.695.523-.938.952-.233.42-.35.943-.35 1.568 0 .616.117 1.139.35 1.568.243.42.556.733.938.938.392.206.817.308 1.274.308.458 0 .878-.102 1.26-.308a2.27 2.27 0 0 0 .938-.938c.243-.43.364-.952.364-1.568 0-.625-.121-1.148-.364-1.568a2.252 2.252 0 0 0-.938-.952 2.622 2.622 0 0 0-1.26-.308Zm14.96-1.148c.896 0 1.615.29 2.156.868.551.57.826 1.396.826 2.478v4.466h-1.274V7.262c0-.756-.186-1.334-.56-1.736-.364-.401-.868-.602-1.512-.602-.672 0-1.213.224-1.624.672-.401.439-.602 1.088-.602 1.946v4.074H38.97V7.262c0-.756-.186-1.334-.56-1.736-.373-.401-.877-.602-1.512-.602-.681 0-1.227.224-1.638.672-.401.439-.602 1.088-.602 1.946v4.074h-1.274V3.93h1.274v1.75c.187-.606.518-1.068.994-1.386a2.914 2.914 0 0 1 1.666-.49c.654 0 1.218.168 1.694.504.486.327.831.812 1.036 1.456.215-.625.574-1.106 1.078-1.442a2.951 2.951 0 0 1 1.708-.518Zm8.11.028c.747 0 1.377.187 1.89.56.523.374.887.873 1.093 1.498V3.93h1.273v7.686h-1.273v-1.96a2.905 2.905 0 0 1-1.093 1.498c-.513.373-1.143.56-1.89.56-.68 0-1.287-.159-1.82-.476a3.348 3.348 0 0 1-1.26-1.358c-.298-.597-.447-1.297-.447-2.1 0-.802.149-1.502.448-2.1.308-.597.728-1.054 1.26-1.372.532-.317 1.138-.476 1.82-.476Zm.364 1.134c-.784 0-1.413.252-1.89.756-.466.495-.7 1.18-.7 2.058 0 .878.234 1.568.7 2.072.477.495 1.106.742 1.89.742.505 0 .953-.117 1.344-.35.402-.233.714-.56.938-.98.224-.43.337-.924.337-1.484 0-.56-.113-1.054-.337-1.484a2.322 2.322 0 0 0-.938-.98 2.577 2.577 0 0 0-1.344-.35Zm9.588 5.53v1.12h-.952c-.784 0-1.372-.186-1.764-.56-.383-.373-.574-.998-.574-1.876V5.036h-1.148V3.93h1.148V2.012h1.288V3.93h1.988v1.106h-1.988v4.172c0 .495.089.835.266 1.022.187.178.504.266.952.266h.784Zm1.33-8.82c0-.233.08-.42.239-.56.158-.15.368-.224.63-.224.261 0 .471.075.63.224a.71.71 0 0 1 .238.56c0 .234-.08.425-.238.574-.159.14-.369.21-.63.21-.262 0-.472-.07-.63-.21a.754.754 0 0 1-.238-.574Zm1.499 2.254v7.686H62.45V3.93h1.274Zm5.45-.098c.98 0 1.792.262 2.436.784.644.523 1.04 1.223 1.19 2.1h-1.344c-.093-.55-.35-.98-.77-1.288-.41-.317-.924-.476-1.54-.476-.448 0-.859.103-1.232.308-.364.206-.658.523-.882.952-.224.42-.336.943-.336 1.568 0 .626.112 1.153.336 1.582.224.42.518.733.882.938.373.205.784.308 1.232.308.616 0 1.13-.159 1.54-.476.42-.317.677-.751.77-1.302H72.8c-.15.887-.546 1.591-1.19 2.114-.644.513-1.456.77-2.436.77-.737 0-1.39-.159-1.96-.476A3.421 3.421 0 0 1 65.87 9.88c-.317-.597-.476-1.297-.476-2.1 0-.802.159-1.502.476-2.1a3.399 3.399 0 0 1 1.344-1.372c.57-.317 1.223-.476 1.96-.476Zm8.443 0c.747 0 1.377.187 1.89.56.523.374.887.873 1.092 1.498V3.93h1.274v7.686H80.6v-1.96a2.905 2.905 0 0 1-1.092 1.498c-.513.373-1.143.56-1.89.56-.681 0-1.288-.159-1.82-.476a3.348 3.348 0 0 1-1.26-1.358c-.298-.597-.448-1.297-.448-2.1 0-.802.15-1.502.448-2.1.308-.597.728-1.054 1.26-1.372.532-.317 1.139-.476 1.82-.476Zm.364 1.134c-.784 0-1.414.252-1.89.756-.466.495-.7 1.18-.7 2.058 0 .878.234 1.568.7 2.072.476.495 1.106.742 1.89.742.504 0 .952-.117 1.344-.35.402-.233.714-.56.938-.98.224-.43.336-.924.336-1.484 0-.56-.112-1.054-.336-1.484a2.322 2.322 0 0 0-.938-.98 2.577 2.577 0 0 0-1.344-.35Zm7.194-3.71v10.36H83.9V1.256h1.274Zm3.322 0v10.36h-1.274V1.256h1.274Zm2.58 2.674 2.492 6.048 2.31-6.048h1.414L92.73 15.256h-1.442l1.596-3.766-3.234-7.56h1.428Zm13.993-.098c.747 0 1.377.187 1.89.56.523.374.887.873 1.092 1.498V3.93h1.274v7.812c0 .71-.149 1.34-.448 1.89a3.21 3.21 0 0 1-1.26 1.288c-.541.308-1.171.462-1.89.462-1.036 0-1.88-.252-2.534-.756-.653-.494-1.068-1.166-1.246-2.016h1.26c.15.514.43.915.84 1.204.42.299.957.448 1.61.448.691 0 1.26-.224 1.708-.672.458-.438.686-1.054.686-1.848V9.656a2.901 2.901 0 0 1-1.092 1.498c-.513.373-1.143.56-1.89.56-.681 0-1.288-.159-1.82-.476a3.348 3.348 0 0 1-1.26-1.358c-.298-.597-.448-1.297-.448-2.1 0-.802.15-1.502.448-2.1.308-.597.728-1.054 1.26-1.372.532-.317 1.139-.476 1.82-.476Zm.364 1.134c-.784 0-1.414.252-1.89.756-.466.495-.7 1.18-.7 2.058 0 .878.234 1.568.7 2.072.476.495 1.106.742 1.89.742.504 0 .952-.117 1.344-.35.402-.233.714-.56.938-.98.224-.43.336-.924.336-1.484 0-.56-.112-1.054-.336-1.484a2.317 2.317 0 0 0-.938-.98 2.577 2.577 0 0 0-1.344-.35Zm12.99 2.38c0 .27-.019.504-.056.7h-6.146c.028.878.275 1.536.742 1.974.476.439 1.055.658 1.736.658.616 0 1.129-.154 1.54-.462.42-.317.677-.737.77-1.26h1.358a3.18 3.18 0 0 1-.63 1.428c-.317.42-.733.747-1.246.98-.513.233-1.092.35-1.736.35-.737 0-1.391-.159-1.96-.476a3.425 3.425 0 0 1-1.344-1.358c-.317-.597-.476-1.297-.476-2.1 0-.802.159-1.502.476-2.1a3.403 3.403 0 0 1 1.344-1.372c.569-.317 1.223-.476 1.96-.476.747 0 1.395.159 1.946.476.56.318.985.742 1.274 1.274.299.532.448 1.12.448 1.764Zm-1.288.084c.028-.57-.065-1.045-.28-1.428a2.05 2.05 0 0 0-.882-.854 2.683 2.683 0 0 0-1.218-.28c-.7 0-1.288.22-1.764.658-.476.43-.733 1.064-.77 1.904h4.914Zm6.622 3.066v1.12h-.952c-.784 0-1.372-.186-1.764-.56-.382-.373-.574-.998-.574-1.876V5.036h-1.148V3.93h1.148V2.012h1.288V3.93h1.988v1.106h-1.988v4.172c0 .495.089.835.266 1.022.187.178.504.266.952.266h.784Zm8.682 0v1.12h-.952c-.784 0-1.372-.186-1.764-.56-.383-.373-.574-.998-.574-1.876V5.036h-1.148V3.93h1.148V2.012h1.288V3.93h1.988v1.106h-1.988v4.172c0 .495.089.835.266 1.022.187.178.504.266.952.266h.784Zm5.041-6.664c.737 0 1.395.159 1.974.476a3.352 3.352 0 0 1 1.372 1.372c.336.598.504 1.298.504 2.1 0 .803-.168 1.503-.504 2.1a3.374 3.374 0 0 1-1.372 1.358c-.579.318-1.237.476-1.974.476-.738 0-1.4-.159-1.988-.476a3.487 3.487 0 0 1-1.372-1.358c-.336-.597-.504-1.297-.504-2.1 0-.802.168-1.502.504-2.1a3.462 3.462 0 0 1 1.372-1.372c.588-.317 1.25-.476 1.988-.476Zm0 1.12c-.458 0-.882.103-1.274.308-.383.206-.696.523-.938.952-.234.42-.35.943-.35 1.568 0 .616.116 1.139.35 1.568.242.42.555.733.938.938.392.206.816.308 1.274.308.457 0 .877-.102 1.26-.308.392-.205.704-.518.938-.938.242-.43.364-.952.364-1.568 0-.625-.122-1.148-.364-1.568-.234-.43-.546-.746-.938-.952a2.624 2.624 0 0 0-1.26-.308Zm12.637 5.544v1.12h-.952c-.784 0-1.372-.186-1.764-.56-.383-.373-.574-.998-.574-1.876V5.036h-1.148V3.93h1.148V2.012h1.288V3.93h1.988v1.106h-1.988v4.172c0 .495.088.835.266 1.022.186.178.504.266.952.266h.784Zm5.6-6.692c.896 0 1.62.29 2.17.868.551.57.826 1.396.826 2.478v4.466h-1.274V7.262c0-.765-.196-1.353-.588-1.764-.392-.41-.924-.616-1.596-.616-.7 0-1.26.229-1.68.686-.42.448-.63 1.106-.63 1.974v4.074h-1.274V1.256h1.274V5.75c.196-.625.542-1.106 1.036-1.442.504-.336 1.083-.504 1.736-.504Zm12.02 3.542c0 .27-.018.504-.056.7h-6.146c.028.878.276 1.536.742 1.974.476.439 1.055.658 1.736.658.616 0 1.13-.154 1.54-.462.42-.317.677-.737.77-1.26h1.358a3.18 3.18 0 0 1-.63 1.428c-.317.42-.732.747-1.246.98-.513.233-1.092.35-1.736.35-.737 0-1.39-.159-1.96-.476a3.425 3.425 0 0 1-1.344-1.358c-.317-.597-.476-1.297-.476-2.1 0-.802.159-1.502.476-2.1a3.403 3.403 0 0 1 1.344-1.372c.57-.317 1.223-.476 1.96-.476.747 0 1.396.159 1.946.476.56.318.985.742 1.274 1.274.299.532.448 1.12.448 1.764Zm-1.288.084c.028-.57-.065-1.045-.28-1.428a2.04 2.04 0 0 0-.882-.854 2.683 2.683 0 0 0-1.218-.28c-.7 0-1.288.22-1.764.658-.476.43-.732 1.064-.77 1.904h4.914ZM4.508 27.832c.737 0 1.395.159 1.974.476a3.35 3.35 0 0 1 1.372 1.372c.336.598.504 1.297.504 2.1 0 .803-.168 1.503-.504 2.1a3.372 3.372 0 0 1-1.372 1.358c-.579.318-1.237.476-1.974.476-.737 0-1.4-.158-1.988-.476a3.489 3.489 0 0 1-1.372-1.358c-.336-.597-.504-1.297-.504-2.1 0-.803.168-1.503.504-2.1a3.464 3.464 0 0 1 1.372-1.372c.588-.317 1.25-.476 1.988-.476Zm0 1.12c-.457 0-.882.103-1.274.308-.383.205-.695.523-.938.952-.233.42-.35.943-.35 1.568 0 .616.117 1.139.35 1.568.243.42.555.733.938.938.392.206.817.308 1.274.308.457 0 .877-.102 1.26-.308a2.27 2.27 0 0 0 .938-.938c.243-.43.364-.952.364-1.568 0-.625-.121-1.148-.364-1.568a2.252 2.252 0 0 0-.938-.952 2.623 2.623 0 0 0-1.26-.308Zm9.556-1.148c.896 0 1.62.29 2.17.868.55.57.826 1.395.826 2.478v4.466h-1.274v-4.354c0-.765-.196-1.353-.588-1.764-.392-.41-.924-.616-1.596-.616-.7 0-1.26.229-1.68.686-.42.448-.63 1.106-.63 1.974v4.074h-1.274V27.93h1.274v1.82c.196-.625.541-1.106 1.036-1.442.504-.336 1.083-.504 1.736-.504Zm6.224-2.548v10.36h-1.274v-10.36h1.274Zm1.825.42c0-.233.079-.42.238-.56.158-.15.368-.224.63-.224.26 0 .47.075.63.224a.71.71 0 0 1 .238.56c0 .234-.08.425-.239.574-.158.14-.368.21-.63.21-.26 0-.47-.07-.63-.21a.753.753 0 0 1-.238-.574Zm1.497 2.254v7.686h-1.273V27.93h1.273Zm6.095-.126c.896 0 1.62.29 2.17.868.55.57.826 1.395.826 2.478v4.466h-1.274v-4.354c0-.765-.196-1.353-.588-1.764-.392-.41-.924-.616-1.596-.616-.7 0-1.26.229-1.68.686-.42.448-.63 1.106-.63 1.974v4.074h-1.274V27.93h1.274v1.82c.196-.625.541-1.106 1.036-1.442.504-.336 1.082-.504 1.736-.504Zm12.02 3.542c0 .27-.019.504-.056.7h-6.146c.028.877.275 1.535.742 1.974.476.439 1.054.658 1.736.658.616 0 1.13-.154 1.54-.462.42-.317.677-.737.77-1.26h1.358a3.187 3.187 0 0 1-.63 1.428c-.318.42-.733.747-1.246.98-.514.233-1.092.35-1.736.35-.738 0-1.39-.158-1.96-.476a3.421 3.421 0 0 1-1.344-1.358c-.318-.597-.476-1.297-.476-2.1 0-.803.158-1.503.476-2.1a3.399 3.399 0 0 1 1.344-1.372c.57-.317 1.222-.476 1.96-.476.746 0 1.395.159 1.946.476.56.317.984.742 1.274 1.274.298.532.448 1.12.448 1.764Zm-1.288.084c.028-.57-.066-1.045-.28-1.428a2.047 2.047 0 0 0-.882-.854 2.685 2.685 0 0 0-1.218-.28c-.7 0-1.288.22-1.764.658-.476.43-.733 1.064-.77 1.904h4.914Zm9.395 2.828 2.38-6.328h1.372l-3.01 7.686h-1.512l-3.01-7.686h1.372l2.408 6.328Zm12.072-2.912c0 .27-.018.504-.056.7h-6.145c.027.877.275 1.535.741 1.974.476.439 1.055.658 1.736.658.617 0 1.13-.154 1.54-.462.42-.317.677-.737.77-1.26h1.358a3.187 3.187 0 0 1-.63 1.428c-.317.42-.732.747-1.246.98-.513.233-1.092.35-1.736.35-.737 0-1.39-.158-1.96-.476a3.421 3.421 0 0 1-1.344-1.358c-.317-.597-.476-1.297-.476-2.1 0-.803.16-1.503.476-2.1a3.399 3.399 0 0 1 1.344-1.372c.57-.317 1.223-.476 1.96-.476.747 0 1.396.159 1.947.476.56.317.984.742 1.273 1.274.3.532.448 1.12.448 1.764Zm-1.288.084c.029-.57-.065-1.045-.28-1.428a2.047 2.047 0 0 0-.881-.854 2.685 2.685 0 0 0-1.218-.28c-.7 0-1.288.22-1.765.658-.476.43-.732 1.064-.77 1.904h4.915Zm4.229-1.946c.252-.532.62-.943 1.106-1.232.485-.299 1.064-.448 1.736-.448v1.386h-.392c-.719 0-1.307.187-1.764.56-.458.364-.686.97-.686 1.82v4.046H63.57V27.93h1.274v1.554Zm6.507-1.652c.868 0 1.563.229 2.086.686.532.448.854 1.055.966 1.82h-1.218a1.722 1.722 0 0 0-.574-1.12c-.317-.299-.747-.448-1.288-.448-.457 0-.817.112-1.078.336-.252.215-.378.509-.378.882 0 .28.084.509.252.686.177.168.392.299.644.392.261.084.616.178 1.064.28.57.13 1.026.266 1.372.406.355.13.653.345.896.644.252.299.378.7.378 1.204 0 .625-.238 1.134-.714 1.526-.467.392-1.092.588-1.876.588-.915 0-1.662-.22-2.24-.658-.579-.438-.92-1.05-1.022-1.834h1.232c.046.467.247.845.602 1.134.364.29.84.434 1.428.434.439 0 .78-.112 1.022-.336.252-.224.378-.518.378-.882 0-.299-.089-.537-.266-.714a1.745 1.745 0 0 0-.658-.406 9.644 9.644 0 0 0-1.078-.294c-.57-.13-1.027-.261-1.372-.392a2.18 2.18 0 0 1-.868-.616c-.234-.29-.35-.676-.35-1.162 0-.644.238-1.162.714-1.554.476-.401 1.124-.602 1.946-.602Zm4.6-2.156c0-.233.08-.42.238-.56.159-.15.369-.224.63-.224.262 0 .472.075.63.224a.71.71 0 0 1 .238.56c0 .234-.079.425-.238.574-.158.14-.368.21-.63.21-.261 0-.471-.07-.63-.21a.753.753 0 0 1-.238-.574Zm1.498 2.254v7.686h-1.274V27.93h1.274Zm5.535-.098c.737 0 1.395.159 1.974.476a3.35 3.35 0 0 1 1.372 1.372c.336.598.504 1.297.504 2.1 0 .803-.168 1.503-.504 2.1a3.372 3.372 0 0 1-1.372 1.358c-.58.318-1.237.476-1.974.476-.738 0-1.4-.158-1.988-.476a3.489 3.489 0 0 1-1.372-1.358c-.336-.597-.504-1.297-.504-2.1 0-.803.168-1.503.504-2.1a3.464 3.464 0 0 1 1.372-1.372c.588-.317 1.25-.476 1.988-.476Zm0 1.12c-.458 0-.882.103-1.274.308-.383.205-.696.523-.938.952-.234.42-.35.943-.35 1.568 0 .616.116 1.139.35 1.568.242.42.555.733.938.938.392.206.816.308 1.274.308.457 0 .877-.102 1.26-.308a2.27 2.27 0 0 0 .938-.938c.242-.43.364-.952.364-1.568 0-.625-.122-1.148-.364-1.568a2.253 2.253 0 0 0-.938-.952 2.623 2.623 0 0 0-1.26-.308Zm9.556-1.148c.896 0 1.619.29 2.17.868.55.57.826 1.395.826 2.478v4.466h-1.274v-4.354c0-.765-.196-1.353-.588-1.764-.392-.41-.924-.616-1.596-.616-.7 0-1.26.229-1.68.686-.42.448-.63 1.106-.63 1.974v4.074h-1.274V27.93h1.274v1.82c.196-.625.541-1.106 1.036-1.442.504-.336 1.082-.504 1.736-.504Zm11.895.028c.737 0 1.395.159 1.974.476a3.352 3.352 0 0 1 1.372 1.372c.336.598.504 1.297.504 2.1 0 .803-.168 1.503-.504 2.1a3.374 3.374 0 0 1-1.372 1.358c-.579.318-1.237.476-1.974.476-.738 0-1.4-.158-1.988-.476a3.487 3.487 0 0 1-1.372-1.358c-.336-.597-.504-1.297-.504-2.1 0-.803.168-1.503.504-2.1a3.462 3.462 0 0 1 1.372-1.372c.588-.317 1.25-.476 1.988-.476Zm0 1.12c-.458 0-.882.103-1.274.308-.383.205-.696.523-.938.952-.234.42-.35.943-.35 1.568 0 .616.116 1.139.35 1.568.242.42.555.733.938.938.392.206.816.308 1.274.308.457 0 .877-.102 1.26-.308.392-.205.704-.518.938-.938.242-.43.364-.952.364-1.568 0-.625-.122-1.148-.364-1.568-.234-.43-.546-.747-.938-.952a2.625 2.625 0 0 0-1.26-.308Zm8.912-2.842c-.682-.01-1.158.108-1.428.35-.262.243-.392.663-.392 1.26v.21h1.82v1.12h-1.82v6.566h-1.274V29.05h-1.106v-1.12h1.106v-.308c0-1.838 1.031-2.716 3.094-2.632v1.12Zm14.292 1.694c.896 0 1.615.29 2.156.868.551.57.826 1.395.826 2.478v4.466h-1.274v-4.354c0-.756-.187-1.335-.56-1.736-.364-.401-.868-.602-1.512-.602-.672 0-1.213.224-1.624.672-.401.439-.602 1.087-.602 1.946v4.074h-1.274v-4.354c0-.756-.187-1.335-.56-1.736-.373-.401-.877-.602-1.512-.602-.681 0-1.227.224-1.638.672-.401.439-.602 1.087-.602 1.946v4.074h-1.274V27.93h1.274v1.75c.187-.607.518-1.069.994-1.386a2.913 2.913 0 0 1 1.666-.49c.653 0 1.218.168 1.694.504.485.327.831.812 1.036 1.456.215-.625.574-1.106 1.078-1.442a2.95 2.95 0 0 1 1.708-.518Zm12.03 3.542c0 .27-.019.504-.056.7h-6.146c.028.877.275 1.535.742 1.974.476.439 1.055.658 1.736.658.616 0 1.129-.154 1.54-.462.42-.317.677-.737.77-1.26h1.358a3.18 3.18 0 0 1-.63 1.428c-.317.42-.733.747-1.246.98-.513.233-1.092.35-1.736.35-.737 0-1.391-.158-1.96-.476a3.425 3.425 0 0 1-1.344-1.358c-.317-.597-.476-1.297-.476-2.1 0-.803.159-1.503.476-2.1a3.403 3.403 0 0 1 1.344-1.372c.569-.317 1.223-.476 1.96-.476.747 0 1.395.159 1.946.476.56.317.985.742 1.274 1.274.299.532.448 1.12.448 1.764Zm-1.288.084c.028-.57-.065-1.045-.28-1.428a2.05 2.05 0 0 0-.882-.854 2.683 2.683 0 0 0-1.218-.28c-.7 0-1.288.22-1.764.658-.476.43-.733 1.064-.77 1.904h4.914Zm7-3.626c.896 0 1.62.29 2.17.868.551.57.826 1.395.826 2.478v4.466h-1.274v-4.354c0-.765-.196-1.353-.588-1.764-.392-.41-.924-.616-1.596-.616-.7 0-1.26.229-1.68.686-.42.448-.63 1.106-.63 1.974v4.074h-1.274V27.93h1.274v1.82c.196-.625.542-1.106 1.036-1.442.504-.336 1.083-.504 1.736-.504Zm11.783.126v7.686h-1.274V33.81c-.196.625-.546 1.106-1.05 1.442-.495.327-1.074.49-1.736.49-.887 0-1.606-.284-2.156-.854-.551-.578-.826-1.404-.826-2.478v-4.48h1.274v4.354c0 .766.196 1.358.588 1.778.392.41.924.616 1.596.616.7 0 1.26-.224 1.68-.672.42-.457.63-1.12.63-1.988V27.93h1.274Zm15.398 2.016v1.078h-10.29v-1.078h10.29ZM.798 49.676c0-.233.08-.42.238-.56.159-.15.369-.224.63-.224s.471.075.63.224a.71.71 0 0 1 .238.56c0 .233-.08.425-.238.574-.159.14-.369.21-.63.21s-.471-.07-.63-.21a.753.753 0 0 1-.238-.574Zm1.498 2.254v7.686H1.022V51.93h1.274Zm5.716 6.566v1.12H7.06c-.784 0-1.372-.187-1.764-.56-.382-.373-.574-.998-.574-1.876v-4.144H3.574V51.93h1.148v-1.918H6.01v1.918h1.988v1.106H6.01v4.172c0 .495.089.836.266 1.022.187.178.504.266.952.266h.784Zm15.57-6.566-2.212 7.686h-1.372l-2.114-6.258-2.128 6.258H14.37l-2.184-7.686h1.288l1.638 6.468 2.128-6.468h1.33l2.142 6.454 1.652-6.454h1.218Zm.964-2.254c0-.233.08-.42.238-.56.159-.15.369-.224.63-.224s.471.075.63.224a.71.71 0 0 1 .238.56c0 .233-.08.425-.238.574-.159.14-.369.21-.63.21s-.471-.07-.63-.21a.754.754 0 0 1-.238-.574Zm1.498 2.254v7.686H24.77V51.93h1.274Zm3.322-2.674v10.36h-1.274v-10.36h1.274Zm3.323 0v10.36h-1.274v-10.36h1.274Zm9.749 2.576c.681 0 1.288.159 1.82.476.532.318.947.775 1.246 1.372.308.598.462 1.297.462 2.1 0 .803-.154 1.503-.462 2.1a3.255 3.255 0 0 1-1.246 1.358c-.532.318-1.139.476-1.82.476-.747 0-1.382-.186-1.904-.56a2.932 2.932 0 0 1-1.064-1.498v1.96h-1.274v-10.36h1.274v4.634c.196-.616.55-1.11 1.064-1.484.523-.383 1.157-.574 1.904-.574Zm-.364 1.134c-.495 0-.943.117-1.344.35-.401.224-.714.55-.938.98-.224.43-.336.924-.336 1.484 0 .56.112 1.055.336 1.484.224.42.536.747.938.98.401.233.85.35 1.344.35.793 0 1.423-.247 1.89-.742.476-.504.714-1.194.714-2.072 0-.877-.238-1.563-.714-2.058-.467-.504-1.097-.756-1.89-.756Zm12.625 2.38c0 .27-.018.504-.056.7h-6.146c.028.877.276 1.535.742 1.974.476.439 1.055.658 1.736.658.616 0 1.13-.154 1.54-.462.42-.317.677-.737.77-1.26h1.358a3.187 3.187 0 0 1-.63 1.428c-.317.42-.732.747-1.246.98-.513.233-1.092.35-1.736.35-.737 0-1.39-.158-1.96-.476a3.421 3.421 0 0 1-1.344-1.358c-.317-.597-.476-1.297-.476-2.1 0-.803.16-1.502.476-2.1a3.399 3.399 0 0 1 1.344-1.372c.57-.317 1.223-.476 1.96-.476.747 0 1.396.159 1.946.476.56.318.985.742 1.274 1.274.3.532.448 1.12.448 1.764Zm-1.288.084c.028-.57-.065-1.045-.28-1.428a2.046 2.046 0 0 0-.882-.854 2.685 2.685 0 0 0-1.218-.28c-.7 0-1.288.22-1.764.658-.476.43-.732 1.064-.77 1.904h4.914Zm10.082 3.066v1.12h-.952c-.784 0-1.372-.187-1.764-.56-.383-.373-.574-.998-.574-1.876v-4.144h-1.148V51.93h1.148v-1.918h1.288v1.918h1.988v1.106H61.49v4.172c0 .495.088.836.266 1.022.186.178.504.266.952.266h.784Zm2.828-5.012c.252-.532.621-.943 1.106-1.232.486-.299 1.064-.448 1.736-.448v1.386h-.392c-.718 0-1.306.187-1.764.56-.457.364-.686.97-.686 1.82v4.046h-1.274V51.93h1.274v1.554Zm7.25-1.652c.746 0 1.376.187 1.89.56.522.373.886.873 1.091 1.498v-1.96h1.274v7.686h-1.274v-1.96a2.905 2.905 0 0 1-1.092 1.498c-.513.373-1.143.56-1.89.56-.68 0-1.288-.158-1.82-.476a3.348 3.348 0 0 1-1.26-1.358c-.298-.597-.448-1.297-.448-2.1 0-.803.15-1.502.448-2.1.308-.597.728-1.054 1.26-1.372.532-.317 1.14-.476 1.82-.476Zm.363 1.134c-.784 0-1.414.252-1.89.756-.466.495-.7 1.18-.7 2.058 0 .877.234 1.568.7 2.072.476.495 1.106.742 1.89.742.504 0 .952-.117 1.344-.35.402-.233.714-.56.938-.98.224-.43.336-.924.336-1.484 0-.56-.112-1.055-.336-1.484a2.321 2.321 0 0 0-.938-.98 2.577 2.577 0 0 0-1.344-.35Zm9.966-1.162c.896 0 1.62.29 2.17.868.55.57.826 1.396.826 2.478v4.466h-1.274v-4.354c0-.765-.196-1.353-.588-1.764-.392-.41-.924-.616-1.596-.616-.7 0-1.26.229-1.68.686-.42.448-.63 1.106-.63 1.974v4.074h-1.274V51.93h1.274v1.82c.196-.625.541-1.106 1.036-1.442.504-.336 1.083-.504 1.736-.504Zm7.358.028c.868 0 1.564.229 2.086.686.532.448.854 1.055.966 1.82h-1.218a1.722 1.722 0 0 0-.574-1.12c-.317-.299-.746-.448-1.288-.448-.457 0-.817.112-1.078.336-.252.215-.378.509-.378.882 0 .28.084.509.252.686.178.168.392.299.644.392.261.084.616.177 1.064.28.57.13 1.027.266 1.372.406.355.13.654.345.896.644.252.299.378.7.378 1.204 0 .625-.238 1.134-.714 1.526-.466.392-1.092.588-1.876.588-.915 0-1.661-.22-2.24-.658-.578-.438-.92-1.05-1.022-1.834h1.232c.047.467.247.845.602 1.134.364.29.84.434 1.428.434.439 0 .78-.112 1.022-.336.252-.224.378-.518.378-.882 0-.299-.088-.537-.266-.714a1.744 1.744 0 0 0-.658-.406 9.632 9.632 0 0 0-1.078-.294c-.57-.13-1.026-.261-1.372-.392a2.181 2.181 0 0 1-.868-.616c-.233-.29-.35-.676-.35-1.162 0-.644.238-1.162.714-1.554.476-.401 1.125-.602 1.946-.602Zm6.099-2.576v10.36h-1.275v-10.36h1.275Zm5.198 2.576c.746 0 1.376.187 1.89.56.522.373.886.873 1.092 1.498v-1.96h1.274v7.686h-1.274v-1.96a2.912 2.912 0 0 1-1.092 1.498c-.514.373-1.144.56-1.89.56-.682 0-1.288-.158-1.82-.476a3.349 3.349 0 0 1-1.26-1.358c-.299-.597-.448-1.297-.448-2.1 0-.803.15-1.502.448-2.1.308-.597.728-1.054 1.26-1.372.532-.317 1.138-.476 1.82-.476Zm.364 1.134c-.784 0-1.414.252-1.89.756-.467.495-.7 1.18-.7 2.058 0 .877.233 1.568.7 2.072.476.495 1.106.742 1.89.742.504 0 .952-.117 1.344-.35.401-.233.714-.56.938-.98.224-.43.336-.924.336-1.484 0-.56-.112-1.055-.336-1.484a2.324 2.324 0 0 0-.938-.98 2.577 2.577 0 0 0-1.344-.35Zm9.587 5.53v1.12h-.952c-.784 0-1.372-.187-1.764-.56-.382-.373-.574-.998-.574-1.876v-4.144h-1.148V51.93h1.148v-1.918h1.288v1.918h1.988v1.106h-1.988v4.172c0 .495.089.836.266 1.022.187.178.504.266.952.266h.784Zm8.625-3.15c0 .27-.019.504-.056.7h-6.146c.028.877.275 1.535.742 1.974.476.439 1.055.658 1.736.658.616 0 1.129-.154 1.54-.462.42-.317.677-.737.77-1.26h1.358a3.18 3.18 0 0 1-.63 1.428c-.317.42-.733.747-1.246.98-.513.233-1.092.35-1.736.35-.737 0-1.391-.158-1.96-.476a3.425 3.425 0 0 1-1.344-1.358c-.317-.597-.476-1.297-.476-2.1 0-.803.159-1.502.476-2.1a3.403 3.403 0 0 1 1.344-1.372c.569-.317 1.223-.476 1.96-.476.747 0 1.395.159 1.946.476.56.318.985.742 1.274 1.274.299.532.448 1.12.448 1.764Zm-1.288.084c.028-.57-.065-1.045-.28-1.428a2.05 2.05 0 0 0-.882-.854 2.683 2.683 0 0 0-1.218-.28c-.7 0-1.288.22-1.764.658-.476.43-.733 1.064-.77 1.904h4.914Zm6.104-3.598c.747 0 1.377.187 1.89.56.523.373.887.873 1.092 1.498v-4.634h1.274v10.36h-1.274v-1.96a2.901 2.901 0 0 1-1.092 1.498c-.513.373-1.143.56-1.89.56-.681 0-1.288-.158-1.82-.476a3.348 3.348 0 0 1-1.26-1.358c-.298-.597-.448-1.297-.448-2.1 0-.803.15-1.502.448-2.1.308-.597.728-1.054 1.26-1.372.532-.317 1.139-.476 1.82-.476Zm.364 1.134c-.784 0-1.414.252-1.89.756-.466.495-.7 1.18-.7 2.058 0 .877.234 1.568.7 2.072.476.495 1.106.742 1.89.742.504 0 .952-.117 1.344-.35.402-.233.714-.56.938-.98.224-.43.336-.924.336-1.484 0-.56-.112-1.055-.336-1.484a2.318 2.318 0 0 0-.938-.98 2.577 2.577 0 0 0-1.344-.35Zm9.155-3.29c0-.233.079-.42.238-.56.159-.15.369-.224.63-.224s.471.075.63.224c.159.14.238.327.238.56a.752.752 0 0 1-.238.574c-.159.14-.369.21-.63.21s-.471-.07-.63-.21a.752.752 0 0 1-.238-.574Zm1.498 2.254v7.686h-1.274V51.93h1.274Zm6.094-.126c.896 0 1.62.29 2.17.868.551.57.826 1.396.826 2.478v4.466h-1.274v-4.354c0-.765-.196-1.353-.588-1.764-.392-.41-.924-.616-1.596-.616-.7 0-1.26.229-1.68.686-.42.448-.63 1.106-.63 1.974v4.074h-1.274V51.93h1.274v1.82c.196-.625.542-1.106 1.036-1.442.504-.336 1.083-.504 1.736-.504Zm8.618 6.692v1.12h-.952c-.784 0-1.372-.187-1.764-.56-.382-.373-.574-.998-.574-1.876v-4.144h-1.148V51.93h1.148v-1.918h1.288v1.918h1.988v1.106h-1.988v4.172c0 .495.089.836.266 1.022.187.178.504.266.952.266h.784Zm5.041-6.664c.737 0 1.395.159 1.974.476a3.352 3.352 0 0 1 1.372 1.372c.336.598.504 1.297.504 2.1 0 .803-.168 1.503-.504 2.1a3.374 3.374 0 0 1-1.372 1.358c-.579.318-1.237.476-1.974.476-.737 0-1.4-.158-1.988-.476a3.487 3.487 0 0 1-1.372-1.358c-.336-.597-.504-1.297-.504-2.1 0-.803.168-1.502.504-2.1a3.462 3.462 0 0 1 1.372-1.372c.588-.317 1.251-.476 1.988-.476Zm0 1.12c-.457 0-.882.103-1.274.308-.383.206-.695.523-.938.952-.233.42-.35.943-.35 1.568 0 .616.117 1.139.35 1.568.243.42.555.733.938.938.392.206.817.308 1.274.308.457 0 .877-.102 1.26-.308.392-.205.705-.518.938-.938.243-.43.364-.952.364-1.568 0-.625-.121-1.148-.364-1.568a2.25 2.25 0 0 0-.938-.952 2.625 2.625 0 0 0-1.26-.308ZM1.554 75.93l2.492 6.048 2.31-6.048H7.77L3.206 87.256H1.764L3.36 83.49.126 75.93h1.428Zm10.87-.098c.737 0 1.395.159 1.974.476a3.35 3.35 0 0 1 1.372 1.372c.336.597.504 1.297.504 2.1 0 .803-.168 1.503-.504 2.1a3.372 3.372 0 0 1-1.372 1.358c-.579.317-1.237.476-1.974.476-.737 0-1.4-.159-1.988-.476a3.489 3.489 0 0 1-1.372-1.358c-.336-.597-.504-1.297-.504-2.1 0-.802.168-1.502.504-2.1a3.465 3.465 0 0 1 1.372-1.372c.588-.317 1.25-.476 1.988-.476Zm0 1.12c-.457 0-.882.103-1.274.308-.383.206-.695.523-.938.952-.233.42-.35.943-.35 1.568 0 .616.117 1.139.35 1.568.243.42.555.733.938.938.392.206.817.308 1.274.308.457 0 .877-.102 1.26-.308a2.27 2.27 0 0 0 .938-.938c.243-.43.364-.952.364-1.568 0-.625-.121-1.148-.364-1.568a2.252 2.252 0 0 0-.938-.952 2.623 2.623 0 0 0-1.26-.308Zm12.342-1.022v7.686h-1.274V81.81c-.196.626-.546 1.106-1.05 1.442-.495.327-1.073.49-1.736.49-.887 0-1.605-.285-2.156-.854-.55-.579-.826-1.404-.826-2.478v-4.48h1.274v4.354c0 .765.196 1.358.588 1.778.392.41.924.616 1.596.616.7 0 1.26-.224 1.68-.672.42-.457.63-1.12.63-1.988V75.93h1.274Zm3.315 1.554c.252-.532.62-.942 1.106-1.232.485-.298 1.064-.448 1.736-.448v1.386h-.392c-.718 0-1.306.187-1.764.56-.457.364-.686.97-.686 1.82v4.046h-1.274V75.93h1.274v1.554Zm11.604-1.68c.896 0 1.62.29 2.17.868.55.57.826 1.395.826 2.478v4.466h-1.274v-4.354c0-.765-.196-1.353-.588-1.764-.392-.41-.924-.616-1.596-.616-.7 0-1.26.229-1.68.686-.42.448-.63 1.106-.63 1.974v4.074H35.64V75.93h1.274v1.82c.196-.625.542-1.106 1.036-1.442.504-.336 1.083-.504 1.736-.504Zm8.1.028c.747 0 1.377.187 1.89.56.523.374.887.873 1.092 1.498v-1.96h1.274v7.686h-1.274v-1.96a2.906 2.906 0 0 1-1.092 1.498c-.513.374-1.143.56-1.89.56-.681 0-1.288-.159-1.82-.476a3.348 3.348 0 0 1-1.26-1.358c-.298-.597-.448-1.297-.448-2.1 0-.802.15-1.502.448-2.1.308-.597.728-1.055 1.26-1.372.532-.317 1.139-.476 1.82-.476Zm.364 1.134c-.784 0-1.414.252-1.89.756-.466.495-.7 1.18-.7 2.058 0 .877.234 1.568.7 2.072.476.495 1.106.742 1.89.742.504 0 .952-.116 1.344-.35.402-.233.714-.56.938-.98.224-.43.336-.924.336-1.484 0-.56-.112-1.055-.336-1.484a2.322 2.322 0 0 0-.938-.98 2.577 2.577 0 0 0-1.344-.35Zm9.588 5.53v1.12h-.952c-.784 0-1.372-.186-1.764-.56-.383-.373-.574-.998-.574-1.876v-4.144h-1.148V75.93h1.148v-1.918h1.288v1.918h1.988v1.106h-1.988v4.172c0 .495.089.835.266 1.022.187.177.504.266.952.266h.784Zm1.33-8.82c0-.233.08-.42.239-.56.158-.15.368-.224.63-.224.26 0 .47.075.63.224a.71.71 0 0 1 .237.56c0 .233-.079.425-.237.574-.16.14-.37.21-.63.21-.262 0-.472-.07-.63-.21a.754.754 0 0 1-.238-.574Zm1.498 2.254v7.686h-1.273V75.93h1.273Zm5.03 6.328 2.38-6.328h1.373l-3.01 7.686h-1.512l-3.01-7.686h1.372l2.408 6.328Zm12.073-2.912c0 .27-.019.504-.056.7h-6.146c.028.877.276 1.535.742 1.974.476.439 1.055.658 1.736.658.616 0 1.13-.154 1.54-.462.42-.317.677-.737.77-1.26h1.358a3.189 3.189 0 0 1-.63 1.428c-.317.42-.733.747-1.246.98-.513.233-1.092.35-1.736.35-.737 0-1.39-.159-1.96-.476a3.42 3.42 0 0 1-1.344-1.358c-.317-.597-.476-1.297-.476-2.1 0-.802.159-1.502.476-2.1a3.398 3.398 0 0 1 1.344-1.372c.57-.317 1.223-.476 1.96-.476.747 0 1.395.159 1.946.476.56.317.985.742 1.274 1.274.299.532.448 1.12.448 1.764Zm-1.288.084c.028-.57-.065-1.045-.28-1.428a2.047 2.047 0 0 0-.882-.854 2.685 2.685 0 0 0-1.218-.28c-.7 0-1.288.22-1.764.658-.476.43-.733 1.064-.77 1.904h4.914Zm7.688-6.174v10.36h-1.275v-10.36h1.274Zm5.198 2.576c.746 0 1.376.187 1.89.56.522.374.886.873 1.092 1.498v-1.96h1.274v7.686h-1.274v-1.96a2.906 2.906 0 0 1-1.092 1.498c-.514.374-1.144.56-1.89.56-.682 0-1.288-.159-1.82-.476a3.348 3.348 0 0 1-1.26-1.358c-.299-.597-.448-1.297-.448-2.1 0-.802.15-1.502.448-2.1.308-.597.728-1.055 1.26-1.372.532-.317 1.138-.476 1.82-.476Zm.364 1.134c-.784 0-1.414.252-1.89.756-.467.495-.7 1.18-.7 2.058 0 .877.233 1.568.7 2.072.476.495 1.106.742 1.89.742.504 0 .952-.116 1.344-.35.401-.233.714-.56.938-.98.224-.43.336-.924.336-1.484 0-.56-.112-1.055-.336-1.484a2.322 2.322 0 0 0-.938-.98 2.577 2.577 0 0 0-1.344-.35Zm9.965-1.162c.896 0 1.62.29 2.17.868.551.57.826 1.395.826 2.478v4.466h-1.274v-4.354c0-.765-.196-1.353-.588-1.764-.392-.41-.924-.616-1.596-.616-.7 0-1.26.229-1.68.686-.42.448-.63 1.106-.63 1.974v4.074H95.55V75.93h1.274v1.82c.196-.625.542-1.106 1.036-1.442.504-.336 1.083-.504 1.736-.504Zm8.1.028c.747 0 1.377.187 1.89.56.523.374.887.873 1.092 1.498v-1.96h1.274v7.812c0 .71-.149 1.34-.448 1.89a3.21 3.21 0 0 1-1.26 1.288c-.541.308-1.171.462-1.89.462-1.036 0-1.88-.252-2.534-.756-.653-.495-1.068-1.166-1.246-2.016h1.26c.15.514.43.915.84 1.204.42.299.957.448 1.61.448.691 0 1.26-.224 1.708-.672.458-.439.686-1.055.686-1.848v-2.086a2.901 2.901 0 0 1-1.092 1.498c-.513.374-1.143.56-1.89.56-.681 0-1.288-.159-1.82-.476a3.348 3.348 0 0 1-1.26-1.358c-.298-.597-.448-1.297-.448-2.1 0-.802.15-1.502.448-2.1.308-.597.728-1.055 1.26-1.372.532-.317 1.139-.476 1.82-.476Zm.364 1.134c-.784 0-1.414.252-1.89.756-.466.495-.7 1.18-.7 2.058 0 .877.234 1.568.7 2.072.476.495 1.106.742 1.89.742.504 0 .952-.116 1.344-.35.402-.233.714-.56.938-.98.224-.43.336-.924.336-1.484 0-.56-.112-1.055-.336-1.484a2.318 2.318 0 0 0-.938-.98 2.577 2.577 0 0 0-1.344-.35Zm12.752-1.036v7.686h-1.274V81.81c-.196.626-.546 1.106-1.05 1.442-.495.327-1.073.49-1.736.49-.887 0-1.605-.285-2.156-.854-.551-.579-.826-1.404-.826-2.478v-4.48h1.274v4.354c0 .765.196 1.358.588 1.778.392.41.924.616 1.596.616.7 0 1.26-.224 1.68-.672.42-.457.63-1.12.63-1.988V75.93h1.274Zm5.191-.098c.747 0 1.377.187 1.89.56.523.374.887.873 1.092 1.498v-1.96h1.274v7.686h-1.274v-1.96a2.901 2.901 0 0 1-1.092 1.498c-.513.374-1.143.56-1.89.56-.681 0-1.288-.159-1.82-.476a3.348 3.348 0 0 1-1.26-1.358c-.299-.597-.448-1.297-.448-2.1 0-.802.149-1.502.448-2.1.308-.597.728-1.055 1.26-1.372.532-.317 1.139-.476 1.82-.476Zm.364 1.134c-.784 0-1.414.252-1.89.756-.467.495-.7 1.18-.7 2.058 0 .877.233 1.568.7 2.072.476.495 1.106.742 1.89.742.504 0 .952-.116 1.344-.35.401-.233.714-.56.938-.98.224-.43.336-.924.336-1.484 0-.56-.112-1.055-.336-1.484a2.324 2.324 0 0 0-.938-.98 2.577 2.577 0 0 0-1.344-.35Zm9.07-1.134c.746 0 1.376.187 1.89.56.522.374.886.873 1.092 1.498v-1.96h1.274v7.812c0 .71-.15 1.34-.448 1.89-.299.55-.719.98-1.26 1.288-.542.308-1.172.462-1.89.462-1.036 0-1.881-.252-2.534-.756-.654-.495-1.069-1.166-1.246-2.016h1.26c.149.514.429.915.84 1.204.42.299.956.448 1.61.448.69 0 1.26-.224 1.708-.672.457-.439.686-1.055.686-1.848v-2.086a2.912 2.912 0 0 1-1.092 1.498c-.514.374-1.144.56-1.89.56-.682 0-1.288-.159-1.82-.476a3.348 3.348 0 0 1-1.26-1.358c-.299-.597-.448-1.297-.448-2.1 0-.802.149-1.502.448-2.1.308-.597.728-1.055 1.26-1.372.532-.317 1.138-.476 1.82-.476Zm.364 1.134c-.784 0-1.414.252-1.89.756-.467.495-.7 1.18-.7 2.058 0 .877.233 1.568.7 2.072.476.495 1.106.742 1.89.742.504 0 .952-.116 1.344-.35.401-.233.714-.56.938-.98.224-.43.336-.924.336-1.484 0-.56-.112-1.055-.336-1.484a2.324 2.324 0 0 0-.938-.98 2.577 2.577 0 0 0-1.344-.35Zm12.989 2.38c0 .27-.018.504-.056.7h-6.146c.028.877.276 1.535.742 1.974.476.439 1.055.658 1.736.658.616 0 1.13-.154 1.54-.462.42-.317.677-.737.77-1.26h1.358a3.18 3.18 0 0 1-.63 1.428c-.317.42-.732.747-1.246.98-.513.233-1.092.35-1.736.35-.737 0-1.39-.159-1.96-.476a3.425 3.425 0 0 1-1.344-1.358c-.317-.597-.476-1.297-.476-2.1 0-.802.159-1.502.476-2.1a3.403 3.403 0 0 1 1.344-1.372c.57-.317 1.223-.476 1.96-.476.747 0 1.396.159 1.946.476.56.317.985.742 1.274 1.274.299.532.448 1.12.448 1.764Zm-1.288.084c.028-.57-.065-1.045-.28-1.428a2.04 2.04 0 0 0-.882-.854 2.683 2.683 0 0 0-1.218-.28c-.7 0-1.288.22-1.764.658-.476.43-.732 1.064-.77 1.904h4.914Zm3.893 2.688v1.498h-1.54v-1.498h1.54Z" fill="#2A2A38"/></svg>