<svg width="658" height="527" viewBox="0 0 658 527" fill="none" xmlns="http://www.w3.org/2000/svg">
<path fill-rule="evenodd" clip-rule="evenodd" d="M12.2855 162.223C63.5933 -38.4255 269.495 -162.532 470.819 -113.745C679.475 -62.9928 804.4 149.022 748.456 355.059C703.943 521.182 555.864 632.049 392.188 637.063C391.005 591.067 419.844 549.432 463.701 535.151C491.644 526.184 516.687 515.212 537.941 503.716L531.642 518.974C528.041 527.832 531.313 538.533 539.82 542.531C548.952 546.943 559.669 542.692 563.622 533.437L591.023 467.84C602.235 458.074 610.391 448.716 615.367 440.226C623.13 426.835 620.361 417.006 615.067 410.185L627.954 379.501L630.095 378.847C652.367 371.799 670.478 355.531 679.474 333.874L704.076 256.721C705.718 251.513 702.531 245.993 696.909 244.977C692.494 244.04 688.303 246.847 686.679 251.077L659.761 322.207C658.259 325.979 654.146 327.579 650.374 326.077C646.601 324.575 645.002 320.462 646.504 316.69L674.919 245.471C676.605 241.011 674.564 235.797 669.936 233.821L669.249 233.637L668.562 233.452C663.934 231.476 658.721 233.517 656.744 238.145L626.328 308.582C624.826 312.355 620.714 313.954 616.941 312.452C613.169 310.95 611.569 306.838 613.071 303.065L644.739 233.454C647.068 228.43 644.63 222.865 639.482 220.994C635.022 219.308 630.206 221.702 628.123 225.81L591.074 297.171C582.14 318.599 583.165 343.187 594.096 363.798L595.27 365.832L576.023 412.002C572.25 410.5 568.384 411.183 564.786 416.359C562.016 420.283 561.627 426.318 561.818 432.018C512.885 474.409 443.982 489.591 398.547 495.099C392.724 495.749 387.794 491.236 387.602 485.536C387.394 480.814 390.684 476.784 395.132 475.765C468.421 459.793 534.497 393.753 558.994 302.328C591.534 180.887 538.134 61.2218 439.835 34.8827C341.536 8.54357 235.458 85.4765 202.918 206.918C178.482 298.114 202.853 388.634 258.109 439.05C261.452 442.156 262.286 447.291 259.744 451.277C256.728 456.117 250.263 457.332 245.546 453.857C208.157 425.666 155.177 376.842 134.883 314.183C137.134 310.365 138.82 305.905 138.366 302.1C137.671 295.528 134.373 293.171 130.065 292.753L137.062 242.81L160.992 229.575C160.992 229.575 173.832 174.32 167.417 121.274C165.041 101.727 156.888 83.5793 144.835 68.0704C141.402 63.4669 134.004 65.4139 132.989 71.0359L102.503 237.97L97.4629 274.194C91.0098 278.114 85.8821 285.335 86.0652 298.4C86.0563 305.766 87.5736 314.768 90.2815 324.826L79.3538 403.187C77.9822 412.888 84.4506 421.743 94.1521 423.115C103.854 424.486 112.709 418.018 114.08 408.317L117.286 385.354C130.263 407.495 147.41 431.491 168.82 455.156C199.829 489.742 204.903 540.465 180.529 580.104C42.7694 494.811 -29.9027 327.004 12.2855 162.223ZM367.701 413.159C367.701 413.159 372.086 285.892 504.805 304.755C504.802 304.749 504.797 304.795 504.79 304.888C504.783 304.974 504.774 305.1 504.763 305.265C504.113 314.506 494.893 445.583 367.701 413.159ZM314.771 398.977C314.771 398.977 374.607 286.568 250.237 236.544C250.299 236.314 183.678 362.131 314.771 398.977Z" fill="#220F58"></path>
</svg>
