<svg width="658" height="527" fill="none" xmlns="http://www.w3.org/2000/svg"><path fill-rule="evenodd" clip-rule="evenodd" d="M12.286 162.223C63.593-38.426 269.495-162.532 470.819-113.745 679.475-62.993 804.4 149.022 748.456 355.059c-44.513 166.123-192.592 276.99-356.268 282.004-1.183-45.996 27.656-87.631 71.513-101.912 27.943-8.967 52.986-19.939 74.24-31.435l-6.299 15.258c-3.601 8.858-.329 19.559 8.178 23.557 9.132 4.412 19.849.161 23.802-9.094l27.401-65.597c11.212-9.766 19.368-19.124 24.344-27.614 7.763-13.391 4.994-23.22-.3-30.041l12.887-30.684 2.141-.654c22.272-7.048 40.383-23.316 49.379-44.973l24.602-77.153c1.642-5.208-1.545-10.728-7.167-11.744-4.415-.937-8.606 1.87-10.23 6.1l-26.918 71.13c-1.502 3.772-5.615 5.372-9.387 3.87-3.773-1.502-5.372-5.615-3.87-9.387l28.415-71.219c1.686-4.46-.355-9.674-4.983-11.65l-.687-.184-.687-.185c-4.628-1.976-9.841.065-11.818 4.693l-30.416 70.437c-1.502 3.773-5.614 5.372-9.387 3.87-3.772-1.502-5.372-5.614-3.87-9.387l31.668-69.611c2.329-5.024-.109-10.589-5.257-12.46-4.46-1.686-9.276.708-11.359 4.816l-37.049 71.361c-8.934 21.428-7.909 46.016 3.022 66.627l1.174 2.034-19.247 46.17c-3.773-1.502-7.639-.819-11.237 4.357-2.77 3.924-3.159 9.959-2.968 15.659-48.933 42.391-117.836 57.573-163.271 63.081-5.823.65-10.753-3.863-10.945-9.563-.208-4.722 3.082-8.752 7.53-9.771 73.289-15.972 139.365-82.012 163.862-173.437 32.54-121.441-20.86-241.106-119.159-267.445-98.299-26.34-204.377 50.593-236.917 172.035-24.436 91.196-.065 181.716 55.191 232.132 3.343 3.106 4.177 8.241 1.635 12.227-3.016 4.84-9.481 6.055-14.198 2.58-37.389-28.191-90.369-77.015-110.663-139.674 2.251-3.818 3.937-8.278 3.483-12.083-.695-6.572-3.993-8.929-8.301-9.347l6.997-49.943 23.93-13.235s12.84-55.255 6.425-108.301c-2.376-19.547-10.529-37.695-22.582-53.204-3.433-4.603-10.831-2.656-11.846 2.966L102.503 237.97l-5.04 36.224c-6.453 3.92-11.58 11.141-11.398 24.206-.009 7.366 1.509 16.368 4.216 26.426l-10.927 78.361c-1.372 9.701 5.097 18.556 14.798 19.928 9.702 1.371 18.557-5.097 19.928-14.798l3.206-22.963c12.977 22.141 30.124 46.137 51.534 69.802 31.009 34.586 36.083 85.309 11.709 124.948-137.76-85.293-210.432-253.1-168.243-417.881ZM367.7 413.159s4.385-127.267 137.104-108.404a.584.584 0 0 0-.015.133l-.027.377c-.65 9.241-9.87 140.318-137.062 107.894Zm-52.93-14.182s59.836-112.409-64.534-162.433c.062-.23-66.559 125.587 64.534 162.433Z" fill="#220F58"/></svg>