<svg width="24" height="24" viewBox="0 0 24 24" fill="none" xmlns="http://www.w3.org/2000/svg">
<path d="M11.1476 16.8955C11.1476 16.8955 12.0528 12.9829 7.85595 12.4742C7.85595 12.4667 6.85349 16.8431 11.1476 16.8955Z" fill="#C7C0A6"/>
<path d="M12.8757 16.8955C12.8757 16.8955 11.9705 12.9829 16.1673 12.4742C16.1598 12.4667 17.1698 16.8431 12.8757 16.8955Z" fill="#C7C0A6"/>
<path d="M11.7161 0.00331995C5.18514 0.160422 -0.074022 5.62157 0.000788331 12.1525C0.0606366 17.5164 3.64405 22.035 8.53664 23.5087C8.95558 22.1023 8.38702 20.5986 7.16013 19.7981C6.31478 19.252 5.5966 18.661 5.02056 18.0925L5.11033 18.8181C5.14774 19.1248 4.93079 19.3942 4.62406 19.4316C4.31734 19.469 4.04803 19.252 4.01062 18.9453L3.7039 16.4691C3.53932 16.1848 3.41962 15.923 3.35977 15.6985C3.24756 15.302 3.34481 15.0402 3.50939 14.8681L3.36725 13.7235L2.93335 8.38955C2.91839 8.21001 3.12786 8.09031 3.27 8.20253C3.76375 8.57658 4.16024 9.06285 4.39215 9.63889C5.02056 11.2024 5.08041 12.9904 5.08041 12.9904L4.45948 13.5889L4.65399 15.1674C4.78865 15.1449 4.90834 15.1898 4.98315 15.3843C5.02804 15.4965 5.01308 15.6462 4.97567 15.7808C6.10531 17.5239 8.11771 18.5787 9.48674 19.1323C9.6588 19.1996 9.84583 19.1099 9.89819 18.9378C9.94308 18.7957 9.87575 18.646 9.74857 18.5787C7.65388 17.494 6.17264 14.9355 6.17264 11.958C6.17264 7.99306 8.77604 4.7837 11.9854 4.7837C15.1948 4.7837 17.7982 7.99306 17.7982 11.958C17.7982 14.9429 16.3244 17.494 14.2222 18.5787C14.0951 18.646 14.0277 18.7957 14.0726 18.9378C14.125 19.1099 14.312 19.2071 14.4841 19.1398C15.8232 18.6012 17.7982 17.5763 18.9428 15.8855C18.8904 15.7135 18.853 15.5265 18.9054 15.3843C18.9727 15.1973 19.0849 15.1449 19.2121 15.1599L19.4215 13.5964L19.3692 13.544C18.8679 13.0054 18.636 12.2647 18.7333 11.5391L19.2794 9.06285C19.3093 8.92071 19.4365 8.80849 19.5861 8.82345C19.7582 8.83842 19.8779 8.98804 19.848 9.1601L19.4515 11.5391C19.4365 11.6662 19.5188 11.7785 19.646 11.7934C19.7732 11.8084 19.8854 11.7261 19.9003 11.5989L20.2519 9.20499C20.2744 9.04789 20.4165 8.94315 20.5736 8.96559H20.5961H20.6185C20.7756 8.98804 20.8803 9.13018 20.8654 9.2798L20.5811 11.6812C20.5661 11.8084 20.6484 11.9206 20.7756 11.9356C20.9028 11.9505 21.015 11.8682 21.03 11.7411L21.2694 9.35461C21.2843 9.21247 21.3891 9.09277 21.5312 9.08529C21.7107 9.07033 21.8529 9.21247 21.8454 9.38453L21.7257 11.9356C21.6284 12.6687 21.2095 13.3121 20.5886 13.7086L20.5287 13.746L20.3866 14.7858C20.6035 14.9504 20.7681 15.2272 20.6409 15.6985C20.5587 15.9978 20.3866 16.3494 20.1248 16.7384L19.8255 18.9603C19.7806 19.2745 19.4889 19.4914 19.1747 19.4316C18.8829 19.3792 18.6959 19.0799 18.7333 18.7807L18.8006 18.2645C18.247 18.7882 17.5737 19.3268 16.7957 19.8281C15.5763 20.621 15.0377 22.1247 15.4491 23.5162C20.3941 22.0275 23.9999 17.4416 23.9999 12.0179C24.0224 5.28493 18.4864 -0.153782 11.7161 0.00331995Z" fill="#C7C0A6"/>
</svg>
