<svg width="24" height="24" fill="none" xmlns="http://www.w3.org/2000/svg"><path d="M11.148 16.895s.905-3.912-3.292-4.42c0-.008-1.003 4.368 3.292 4.42ZM12.876 16.895s-.905-3.912 3.291-4.42c-.007-.008 1.003 4.368-3.291 4.42Z" fill="#C7C0A6"/><path d="M11.716.003C5.186.16-.074 5.622.001 12.153c.06 5.363 3.643 9.882 8.536 11.356a3.306 3.306 0 0 0-1.377-3.71 13.457 13.457 0 0 1-2.14-1.706l.09.725a.55.55 0 0 1-.486.614.55.55 0 0 1-.613-.487l-.307-2.476a3.321 3.321 0 0 1-.344-.77c-.112-.397-.015-.659.15-.83l-.143-1.146-.434-5.333c-.015-.18.195-.3.337-.187.494.374.89.86 1.122 1.436.629 1.563.688 3.351.688 3.351l-.62.599.194 1.578c.135-.022.254.023.33.217.044.112.03.262-.008.397 1.13 1.743 3.142 2.798 4.51 3.351a.308.308 0 0 0 .412-.194.304.304 0 0 0-.15-.36c-2.094-1.084-3.575-3.643-3.575-6.62 0-3.965 2.603-7.174 5.812-7.174 3.21 0 5.813 3.21 5.813 7.174 0 2.985-1.474 5.536-3.576 6.62a.304.304 0 0 0-.15.36c.053.172.24.27.412.202 1.34-.539 3.314-1.564 4.459-3.255-.053-.171-.09-.358-.038-.5.068-.188.18-.24.307-.225l.21-1.564-.053-.052a2.47 2.47 0 0 1-.636-2.005l.546-2.476c.03-.142.157-.255.307-.24a.285.285 0 0 1 .262.337l-.396 2.38a.223.223 0 0 0 .194.253.223.223 0 0 0 .254-.194l.352-2.394a.28.28 0 0 1 .322-.24h.045a.289.289 0 0 1 .246.315l-.284 2.401a.223.223 0 0 0 .195.255.223.223 0 0 0 .254-.195l.24-2.386c.014-.143.12-.262.261-.27a.287.287 0 0 1 .314.3l-.12 2.55a2.493 2.493 0 0 1-1.136 1.774l-.06.037-.142 1.04c.216.164.381.441.254.912-.082.3-.254.651-.516 1.04l-.3 2.222a.553.553 0 0 1-.65.472c-.292-.053-.48-.352-.442-.651l.068-.516a13.84 13.84 0 0 1-2.005 1.563 3.284 3.284 0 0 0-1.347 3.688C20.394 22.028 24 17.442 24 12.018 24.023 5.285 18.487-.154 11.717.003Z" fill="#C7C0A6"/></svg>