<svg width="24" height="21" fill="none" xmlns="http://www.w3.org/2000/svg"><path d="M2 21H0v-2h2a1 1 0 0 0 1-1v-.394l-1.688-.879a1.989 1.989 0 0 1-1.076-1.808 1.993 1.993 0 0 1 1.137-1.771L3 12.37V11c0-.459.312-.859.758-.97l2.286-.571-2.751-2.752A.996.996 0 0 1 3 6V0h2v5.586l2.458 2.458a1.98 1.98 0 0 1 .514 1.949 1.978 1.978 0 0 1-1.443 1.406L5 11.781V13a.998.998 0 0 1-.568.901l-2.195 1.052 2.226 1.16A1 1 0 0 1 5 17v1c0 1.654-1.346 3-3 3ZM21 2h-8c-1.654 0-3 1.346-3 3v5.667L6 16h15c1.654 0 3-1.346 3-3V5c0-1.654-1.346-3-3-3Zm-1 10h-6v-2h6v2Zm0-4h-6V6h6v2Z" fill="#C7C0A6"/></svg>