<svg width="53" height="24" fill="none" xmlns="http://www.w3.org/2000/svg"><path d="M14.032 14.942a2.433 2.433 0 0 1-1.571-2.135c-.067-.95.4-1.795 1.246-2.259l.704-.385-.503-.627c-.845-1.052-2.054-1.68-3.234-1.68-.818 0-1.386.213-1.842.386-.321.122-.575.217-.854.217-.318 0-.631-.112-.995-.24-.477-.17-1.017-.363-1.71-.363-1.34 0-2.691.8-3.526 2.086-1.246 1.918-.904 5.207.813 7.82.68 1.036 1.635 2.226 2.986 2.238h.026c1.107 0 1.349-.59 2.423-.597 1.173.056 1.32.602 2.416.594 1.32-.012 2.273-1.192 3.03-2.345.446-.678.62-1.033.968-1.804l.294-.653-.67-.253ZM9.822 6.164c.437-.562.77-1.354.649-2.164-.715.05-1.55.504-2.038 1.096-.443.538-.81 1.335-.667 2.11.78.025 1.587-.44 2.056-1.042ZM27.088 6.592c0-.363.128-.656.384-.88.256-.235.592-.352 1.008-.352.416 0 .752.117 1.008.352.256.224.384.517.384.88 0 .352-.128.645-.384.88-.256.224-.592.336-1.008.336-.416 0-.752-.112-1.008-.336a1.144 1.144 0 0 1-.384-.88ZM29.6 9.136V18h-2.256V9.136H29.6Zm7.337-2.592c1.056 0 2.01.245 2.864.736a5.253 5.253 0 0 1 2.032 2.064c.502.875.752 1.867.752 2.976 0 1.11-.25 2.107-.752 2.992a5.253 5.253 0 0 1-2.032 2.064c-.853.49-1.808.736-2.864.736-1.056 0-2.016-.245-2.88-.736a5.398 5.398 0 0 1-2.032-2.064c-.49-.885-.736-1.883-.736-2.992 0-1.11.245-2.101.736-2.976a5.398 5.398 0 0 1 2.032-2.064c.864-.49 1.824-.736 2.88-.736Zm0 2.08c-.661 0-1.242.15-1.744.448-.501.299-.896.73-1.184 1.296-.277.555-.416 1.205-.416 1.952 0 .747.139 1.403.416 1.968.288.555.683.981 1.184 1.28.502.299 1.083.448 1.744.448.662 0 1.243-.15 1.744-.448.502-.299.89-.725 1.168-1.28.288-.565.432-1.221.432-1.968 0-.747-.144-1.397-.432-1.952a3.005 3.005 0 0 0-1.168-1.296c-.501-.299-1.082-.448-1.744-.448Zm15.105 6.288c0 .576-.144 1.11-.432 1.6-.288.48-.715.87-1.28 1.168-.566.288-1.253.432-2.064.432-.8 0-1.515-.133-2.144-.4a3.746 3.746 0 0 1-1.52-1.184c-.373-.512-.587-1.11-.64-1.792h2.4c.053.459.234.843.544 1.152.32.299.741.448 1.264.448.47 0 .826-.123 1.072-.368.256-.256.384-.581.384-.976 0-.352-.101-.64-.304-.864a2.17 2.17 0 0 0-.768-.56c-.31-.139-.736-.299-1.28-.48a13.492 13.492 0 0 1-1.728-.688 3.342 3.342 0 0 1-1.152-1.008c-.31-.437-.464-1.008-.464-1.712 0-.97.346-1.733 1.04-2.288.704-.565 1.632-.848 2.784-.848 1.195 0 2.144.288 2.848.864.715.576 1.12 1.344 1.216 2.304h-2.432a1.657 1.657 0 0 0-.512-.992c-.278-.267-.656-.4-1.136-.4-.416 0-.752.112-1.008.336-.256.213-.384.528-.384.944 0 .33.096.608.288.832.203.213.453.39.752.528.31.139.725.293 1.248.464.725.256 1.312.496 1.76.72.459.224.848.56 1.168 1.008.32.448.48 1.035.48 1.76Z" fill="#3B2186"/></svg>