<svg width="44" height="44" viewBox="0 0 44 44" fill="none" xmlns="http://www.w3.org/2000/svg">
<path d="M0 22C0 9.84974 9.84974 0 22 0C34.1503 0 44 9.84974 44 22C44 34.1503 34.1503 44 22 44C9.84974 44 0 34.1503 0 22Z" fill="#F2CF7E"/>
<path d="M28.0323 24.9416C27.1314 24.6009 26.5288 23.7828 26.4608 22.8073C26.3942 21.8566 26.8601 21.0123 27.7071 20.5484L28.4113 20.1626L27.9084 19.5364C27.0634 18.4841 25.8542 17.8552 24.6739 17.8552C23.8559 17.8552 23.2883 18.0693 22.8325 18.2417C22.5106 18.3636 22.2568 18.4592 21.9781 18.4592C21.6603 18.4592 21.3465 18.3474 20.9829 18.2181C20.5063 18.0485 19.9663 17.8559 19.2728 17.8559C17.933 17.8559 16.5817 18.6558 15.7468 19.9417C14.5005 21.8599 14.8426 25.1489 16.5601 27.7626C17.2408 28.7982 18.1949 29.9879 19.5462 30C19.5549 30 19.5637 30 19.5724 30C20.6786 30 20.921 29.4102 21.9949 29.4034C23.1678 29.4587 23.3159 30.0047 24.4113 29.9973C25.7316 29.9852 26.6837 28.8049 27.4404 27.6516C27.8875 26.9736 28.0605 26.6187 28.4086 25.8485L28.7035 25.1954L28.0323 24.9416Z" fill="white"/>
<path d="M23.8215 16.1639C24.2592 15.6024 24.5911 14.81 24.4706 14C23.7555 14.0491 22.9207 14.5036 22.4325 15.0961C21.9895 15.6341 21.6239 16.4312 21.766 17.2069C22.5456 17.2311 23.3529 16.7652 23.8215 16.1639Z" fill="white"/>
</svg>
