<svg width="44" height="44" fill="none" xmlns="http://www.w3.org/2000/svg"><path d="M0 22C0 9.85 9.85 0 22 0s22 9.85 22 22-9.85 22-22 22S0 34.15 0 22Z" fill="#F2CF7E"/><path d="M28.032 24.942a2.433 2.433 0 0 1-1.571-2.135c-.067-.95.4-1.795 1.246-2.259l.704-.385-.503-.627c-.845-1.052-2.054-1.68-3.234-1.68-.818 0-1.386.213-1.841.386-.322.122-.576.217-.855.217-.318 0-.632-.112-.995-.24-.477-.17-1.017-.363-1.71-.363-1.34 0-2.691.8-3.526 2.086-1.246 1.918-.904 5.207.813 7.82.68 1.036 1.635 2.226 2.986 2.238h.026c1.107 0 1.349-.59 2.423-.597 1.173.056 1.32.602 2.416.594 1.32-.012 2.273-1.192 3.03-2.345.447-.678.62-1.033.968-1.803l.294-.654-.67-.253ZM23.822 16.164c.437-.562.77-1.354.649-2.164-.715.05-1.55.504-2.038 1.096-.444.538-.81 1.335-.667 2.11.78.025 1.587-.44 2.056-1.042Z" fill="#fff"/></svg>