<svg width="183" height="52" fill="none" xmlns="http://www.w3.org/2000/svg"><path d="M24.65 37.36s2.002-8.652-7.279-9.776c0-.017-2.216 9.66 7.279 9.776ZM28.471 37.36s-2.002-8.652 7.279-9.776c-.017-.017 2.216 9.66-7.279 9.776Z" fill="#F2CF7E"/><path d="M25.907.007C11.466.355-.163 12.431.002 26.872c.132 11.861 8.056 21.853 18.875 25.111.926-3.11-.331-6.434-3.044-8.205a29.744 29.744 0 0 1-4.731-3.771l.198 1.604a1.215 1.215 0 0 1-1.075 1.357 1.215 1.215 0 0 1-1.357-1.075l-.678-5.476c-.364-.629-.628-1.208-.76-1.704-.249-.877-.034-1.456.33-1.836l-.314-2.531-.96-11.795c-.033-.397.43-.661.745-.413 1.092.827 1.968 1.902 2.481 3.176 1.39 3.457 1.522 7.41 1.522 7.41l-1.373 1.324.43 3.49c.298-.049.563.05.728.48.1.249.066.58-.017.877 2.498 3.855 6.948 6.187 9.975 7.411.38.15.794-.05.91-.43a.672.672 0 0 0-.33-.794c-4.632-2.399-7.908-8.056-7.908-14.64 0-8.767 5.757-15.864 12.854-15.864 7.096 0 12.853 7.097 12.853 15.864 0 6.6-3.259 12.241-7.907 14.64a.673.673 0 0 0-.331.794.69.69 0 0 0 .91.447c2.96-1.191 7.328-3.458 9.859-7.196-.116-.38-.199-.794-.083-1.109.15-.413.397-.529.678-.496l.464-3.457-.116-.116a5.46 5.46 0 0 1-1.406-4.433l1.207-5.476c.067-.314.348-.562.679-.53a.63.63 0 0 1 .579.745l-.877 5.26a.492.492 0 0 0 .43.563.492.492 0 0 0 .562-.43l.778-5.293a.621.621 0 0 1 .711-.53h.1c.347.05.578.364.545.695l-.628 5.31a.492.492 0 0 0 .43.562.492.492 0 0 0 .562-.43l.53-5.277c.033-.314.264-.579.579-.595a.634.634 0 0 1 .695.662l-.265 5.64a5.511 5.511 0 0 1-2.515 3.921l-.132.083-.314 2.3c.48.363.843.975.562 2.017-.182.662-.562 1.44-1.141 2.3l-.662 4.913a1.224 1.224 0 0 1-1.44 1.042c-.644-.116-1.058-.778-.975-1.44l.149-1.14a30.593 30.593 0 0 1-4.434 3.457c-2.696 1.753-3.887 5.078-2.977 8.155C45.096 48.708 53.07 38.568 53.07 26.574 53.12 11.686 40.878-.34 25.907.007Z" fill="#F2CF7E"/><path d="M64.798 25.979c0-5.476 4.45-9.909 9.926-9.909 2.828 0 5.36 1.191 7.18 3.06l-4.484 4.55a3.504 3.504 0 0 0-2.696-1.241 3.562 3.562 0 0 0-3.557 3.556 3.555 3.555 0 0 0 3.557 3.574 3.508 3.508 0 0 0 2.647-1.208l4.532 4.516c-1.82 1.87-4.367 3.06-7.18 3.06a9.951 9.951 0 0 1-9.925-9.958ZM104.169 16.384V35.64h-6.435v-7.097H90.01v7.097h-6.435V16.384h6.435v7.064h7.725v-7.064h6.435ZM106.237 25.979c0-5.476 4.45-9.909 9.925-9.909 5.476 0 9.926 4.433 9.926 9.909a9.912 9.912 0 0 1-9.926 9.925 9.912 9.912 0 0 1-9.925-9.925Zm13.482 0a3.562 3.562 0 0 0-3.557-3.557 3.551 3.551 0 0 0-3.556 3.557 3.555 3.555 0 0 0 3.556 3.573 3.555 3.555 0 0 0 3.557-3.573ZM128.304 16.384h6.435V35.64h-6.435V16.384ZM136.94 25.979c0-5.476 4.449-9.909 9.925-9.909 2.829 0 5.36 1.191 7.179 3.06l-4.483 4.533a3.503 3.503 0 0 0-2.696-1.24 3.562 3.562 0 0 0-3.557 3.556 3.555 3.555 0 0 0 3.557 3.573 3.508 3.508 0 0 0 2.647-1.207l4.532 4.516c-1.819 1.869-4.367 3.06-7.179 3.06-5.459 0-9.925-4.433-9.925-9.942ZM155.847 16.384h6.435V35.64h-6.435V16.384ZM171.612 21.446v2.002h10.571v5.095h-10.571v2.035h10.571v5.062h-17.006V16.384h17.006v5.062h-10.571Z" fill="#fff"/></svg>