<svg width="183" height="52" viewBox="0 0 183 52" fill="none" xmlns="http://www.w3.org/2000/svg">
<path d="M24.6499 37.3601C24.6499 37.3601 26.6515 28.7084 17.3712 27.5835C17.3712 27.567 15.1546 37.2443 24.6499 37.3601Z" fill="#F2CF7E"></path>
<path d="M28.4711 37.3601C28.4711 37.3601 26.4695 28.7084 35.7497 27.5835C35.7332 27.567 37.9664 37.2443 28.4711 37.3601Z" fill="#F2CF7E"></path>
<path d="M25.9071 0.00734121C11.4656 0.354731 -0.16368 12.4307 0.00174319 26.8721C0.134082 38.733 8.05788 48.7246 18.8766 51.9835C19.803 48.8735 18.5457 45.5485 15.8328 43.7784C13.9635 42.5709 12.3754 41.264 11.1017 40.0068L11.3002 41.6114C11.3829 42.2896 10.9032 42.8852 10.2249 42.9679C9.54669 43.0506 8.95116 42.5709 8.86845 41.8926L8.19021 36.4171C7.82628 35.7885 7.56161 35.2095 7.42927 34.7132C7.18113 33.8365 7.39618 33.2575 7.76011 32.877L7.44581 30.346L6.48635 18.5513C6.45327 18.1543 6.91645 17.8896 7.23076 18.1378C8.32255 18.9649 9.1993 20.0401 9.71211 21.3139C11.1017 24.7713 11.234 28.7249 11.234 28.7249L9.86099 30.0483L10.2911 33.5387C10.5889 33.4891 10.8535 33.5883 11.019 34.0184C11.1182 34.2666 11.0851 34.5974 11.0024 34.8952C13.5003 38.7496 17.9502 41.082 20.9775 42.3062C21.3579 42.4551 21.7715 42.2565 21.8873 41.8761C21.9866 41.5618 21.8377 41.2309 21.5564 41.082C16.9246 38.6834 13.6492 33.0259 13.6492 26.442C13.6492 17.6746 19.4059 10.5779 26.5026 10.5779C33.5993 10.5779 39.356 17.6746 39.356 26.442C39.356 33.0424 36.0972 38.6834 31.4488 41.082C31.1676 41.2309 31.0187 41.5618 31.1179 41.8761C31.2337 42.2565 31.6473 42.4716 32.0278 42.3227C34.9889 41.1317 39.356 38.8654 41.887 35.1268C41.7712 34.7463 41.6885 34.3328 41.8043 34.0184C41.9532 33.6049 42.2013 33.4891 42.4825 33.5222L42.9457 30.0648L42.8299 29.949C41.7216 28.758 41.2088 27.1203 41.4238 25.5157L42.6314 20.0401C42.6976 19.7258 42.9788 19.4777 43.3097 19.5108C43.6901 19.5439 43.9548 19.8747 43.8886 20.2552L43.0119 25.5157C42.9788 25.7969 43.1608 26.045 43.442 26.0781C43.7232 26.1112 43.9714 25.9292 44.0044 25.648L44.7819 20.3545C44.8316 20.0071 45.1459 19.7755 45.4933 19.8251H45.5429H45.5925C45.9399 19.8747 46.1715 20.189 46.1384 20.5199L45.5098 25.83C45.4767 26.1112 45.6587 26.3593 45.9399 26.3924C46.2211 26.4255 46.4693 26.2435 46.5023 25.9623L47.0317 20.6853C47.0648 20.371 47.2964 20.1063 47.6107 20.0898C48.0077 20.0567 48.322 20.371 48.3055 20.7515L48.0408 26.3924C47.8257 28.0136 46.8994 29.4362 45.5263 30.313L45.394 30.3957L45.0797 32.6951C45.5594 33.059 45.9234 33.6711 45.6421 34.7132C45.4602 35.3749 45.0797 36.1524 44.5007 37.0126L43.839 41.9257C43.7398 42.6205 43.0946 43.1002 42.3998 42.9679C41.7547 42.8521 41.3411 42.1904 41.4238 41.5287L41.5727 40.3873C40.3486 41.5452 38.8598 42.7363 37.1394 43.8446C34.443 45.5981 33.2519 48.9231 34.1617 52C45.0962 48.7081 53.0697 38.5676 53.0697 26.5744C53.1193 11.6863 40.8779 -0.340048 25.9071 0.00734121Z" fill="#F2CF7E"></path>
<path d="M64.7983 25.9789C64.7983 20.5034 69.2482 16.0701 74.7237 16.0701C77.5524 16.0701 80.0834 17.2611 81.9031 19.1304L77.4201 23.6796C76.7584 22.9021 75.799 22.4389 74.7237 22.4389C72.7717 22.4389 71.1671 24.0269 71.1671 25.9955C71.1671 27.9806 72.7552 29.5686 74.7237 29.5686C75.7659 29.5686 76.7253 29.1055 77.3705 28.361L81.9031 32.8771C80.0834 34.7464 77.5359 35.9375 74.7237 35.9375C69.2482 35.9209 64.7983 31.4876 64.7983 25.9789Z" fill="white"></path>
<path d="M104.169 16.3843V35.6396H97.7341V28.5429H90.0088V35.6396H83.5739V16.3843H90.0088V23.4479H97.7341V16.3843H104.169Z" fill="white"></path>
<path d="M106.237 25.9789C106.237 20.5034 110.687 16.0701 116.162 16.0701C121.638 16.0701 126.088 20.5034 126.088 25.9789C126.088 31.4876 121.638 35.9044 116.162 35.9044C110.687 35.9044 106.237 31.4876 106.237 25.9789ZM119.719 25.9789C119.719 24.0269 118.131 22.4223 116.162 22.4223C114.194 22.4223 112.606 24.0104 112.606 25.9789C112.606 27.964 114.194 29.5521 116.162 29.5521C118.131 29.5521 119.719 27.964 119.719 25.9789Z" fill="white"></path>
<path d="M128.304 16.3843H134.739V35.6396H128.304V16.3843Z" fill="white"></path>
<path d="M136.94 25.9789C136.94 20.5034 141.389 16.0701 146.865 16.0701C149.694 16.0701 152.225 17.2611 154.044 19.1304L149.561 23.663C148.9 22.8855 147.94 22.4223 146.865 22.4223C144.913 22.4223 143.308 24.0104 143.308 25.9789C143.308 27.964 144.896 29.5521 146.865 29.5521C147.907 29.5521 148.867 29.0889 149.512 28.3445L154.044 32.8606C152.225 34.7299 149.677 35.9209 146.865 35.9209C141.406 35.9209 136.94 31.4876 136.94 25.9789Z" fill="white"></path>
<path d="M155.847 16.3843H162.282V35.6396H155.847V16.3843Z" fill="white"></path>
<path d="M171.612 21.4462V23.4479H182.183V28.5429H171.612V30.5776H182.183V35.6396H165.177V16.3843H182.183V21.4462H171.612Z" fill="white"></path>
</svg>
