<svg width="121" height="32" fill="none" xmlns="http://www.w3.org/2000/svg"><path d="M15.17 22.99s1.23-5.323-4.48-6.016c0-.01-1.364 5.945 4.48 6.017ZM17.52 22.99S16.29 17.668 22 16.975c-.01-.01 1.364 5.945-4.48 6.017Z" fill="#3B2186"/><path d="M15.943.005C7.056.218-.101 7.65 0 16.537.083 23.836 4.96 29.984 11.616 31.99a4.498 4.498 0 0 0-1.873-5.05 18.316 18.316 0 0 1-2.911-2.32l.122.987a.748.748 0 0 1-.662.835.748.748 0 0 1-.834-.662l-.418-3.37c-.224-.386-.387-.743-.468-1.048-.153-.54-.02-.896.203-1.13l-.193-1.558-.59-7.258c-.02-.244.264-.407.458-.254.672.509 1.211 1.17 1.527 1.954.855 2.128.936 4.56.936 4.56l-.845.815.265 2.148c.183-.03.346.03.448.295.061.153.04.357-.01.54 1.537 2.372 4.275 3.807 6.138 4.56a.42.42 0 0 0 .56-.264.414.414 0 0 0-.204-.489c-2.85-1.476-4.865-4.957-4.865-9.009 0-5.395 3.542-9.763 7.91-9.763 4.367 0 7.91 4.368 7.91 9.763 0 4.062-2.006 7.533-4.867 9.01a.414.414 0 0 0-.204.488.424.424 0 0 0 .56.275c1.823-.733 4.51-2.128 6.068-4.429-.072-.234-.123-.488-.051-.682.091-.254.244-.325.417-.305l.285-2.128-.071-.07a3.36 3.36 0 0 1-.865-2.729l.743-3.37c.04-.193.213-.346.417-.325.234.02.397.224.356.458l-.54 3.237a.303.303 0 0 0 .265.346.303.303 0 0 0 .347-.265l.478-3.257a.382.382 0 0 1 .438-.326h.06c.215.03.357.224.337.428l-.387 3.267a.303.303 0 0 0 .265.346.303.303 0 0 0 .346-.264l.326-3.248c.02-.193.162-.356.356-.366a.39.39 0 0 1 .427.407l-.162 3.471a3.392 3.392 0 0 1-1.548 2.413l-.081.051-.194 1.415c.296.224.52.6.346 1.242-.111.407-.346.886-.702 1.415l-.407 3.023a.753.753 0 0 1-.886.642c-.397-.072-.651-.479-.6-.886l.091-.702a18.83 18.83 0 0 1-2.728 2.127A4.468 4.468 0 0 0 21.023 32c6.729-2.026 11.635-8.266 11.635-15.646.03-9.162-7.502-16.563-16.715-16.35Z" fill="#3B2186"/><path d="M40.658 15.983c0-3.732 3.033-6.753 6.765-6.753 1.928 0 3.653.812 4.893 2.086l-3.056 3.1a2.388 2.388 0 0 0-1.837-.846 2.427 2.427 0 0 0-2.424 2.424 2.423 2.423 0 0 0 2.424 2.436 2.39 2.39 0 0 0 1.804-.823l3.089 3.077a6.829 6.829 0 0 1-4.893 2.086 6.782 6.782 0 0 1-6.765-6.787ZM67.49 9.444v13.123h-4.385V17.73H57.84v4.837h-4.386V9.444h4.386v4.814h5.265V9.444h4.385ZM68.9 15.983c0-3.732 3.032-6.753 6.764-6.753s6.764 3.021 6.764 6.753a6.755 6.755 0 0 1-6.764 6.764 6.755 6.755 0 0 1-6.764-6.764Zm9.188 0a2.427 2.427 0 0 0-2.424-2.424 2.42 2.42 0 0 0-2.424 2.424 2.423 2.423 0 0 0 2.424 2.435 2.423 2.423 0 0 0 2.424-2.435ZM83.94 9.444h4.385v13.123h-4.386V9.444ZM89.824 15.983c0-3.732 3.033-6.753 6.765-6.753 1.927 0 3.652.812 4.892 2.086l-3.055 3.089a2.388 2.388 0 0 0-1.837-.846 2.427 2.427 0 0 0-2.424 2.424 2.423 2.423 0 0 0 2.424 2.435 2.39 2.39 0 0 0 1.803-.823l3.089 3.078a6.828 6.828 0 0 1-4.892 2.086 6.772 6.772 0 0 1-6.765-6.776ZM102.71 9.444h4.386v13.123h-4.386V9.444ZM113.454 12.894v1.364h7.204v3.472h-7.204v1.387h7.204v3.45h-11.589V9.444h11.589v3.45h-7.204Z" fill="#000"/></svg>