<svg width="121" height="32" viewBox="0 0 121 32" fill="none" xmlns="http://www.w3.org/2000/svg">
<path d="M15.1691 22.9907C15.1691 22.9907 16.4009 17.6666 10.69 16.9744C10.69 16.9642 9.32584 22.9195 15.1691 22.9907Z" fill="#3B2186"></path>
<path d="M17.5206 22.9907C17.5206 22.9907 16.2888 17.6666 21.9997 16.9744C21.9896 16.9642 23.3638 22.9195 17.5206 22.9907Z" fill="#3B2186"></path>
<path d="M15.9428 0.00451767C7.05576 0.218296 -0.100726 7.64963 0.00107273 16.5367C0.0825121 23.8357 4.95869 29.9844 11.6164 31.9898C12.1864 30.076 11.4128 28.0298 9.74325 26.9406C8.59292 26.1974 7.61565 25.3932 6.8318 24.6196L6.95396 25.607C7.00486 26.0244 6.70964 26.3909 6.29226 26.4418C5.87489 26.4927 5.50841 26.1974 5.45751 25.7801L5.04013 22.4105C4.81617 22.0237 4.6533 21.6674 4.57186 21.362C4.41916 20.8225 4.5515 20.4662 4.77545 20.232L4.58204 18.6745L3.9916 11.4162C3.97124 11.1719 4.25628 11.009 4.4497 11.1617C5.12157 11.6707 5.66111 12.3324 5.97668 13.1163C6.8318 15.2439 6.91324 17.6769 6.91324 17.6769L6.0683 18.4912L6.33298 20.6392C6.51622 20.6087 6.6791 20.6698 6.7809 20.9344C6.84198 21.0871 6.82162 21.2907 6.77072 21.474C8.30789 23.8459 11.0463 25.2813 12.9092 26.0346C13.1433 26.1262 13.3978 26.004 13.4691 25.7699C13.5302 25.5765 13.4386 25.3729 13.2655 25.2813C10.4151 23.8052 8.39951 20.3236 8.39951 16.272C8.39951 10.8767 11.9421 6.50949 16.3093 6.50949C20.6765 6.50949 24.2191 10.8767 24.2191 16.272C24.2191 20.3338 22.2137 23.8052 19.3531 25.2813C19.18 25.3729 19.0884 25.5765 19.1495 25.7699C19.2208 26.004 19.4753 26.1364 19.7094 26.0447C21.5316 25.3118 24.2191 23.9171 25.7766 21.6165C25.7054 21.3823 25.6545 21.1278 25.7257 20.9344C25.8173 20.6799 25.97 20.6087 26.1431 20.629L26.4281 18.5014L26.3569 18.4302C25.6748 17.6972 25.3592 16.6894 25.4916 15.702L26.2347 12.3324C26.2754 12.139 26.4485 11.9863 26.6521 12.0066C26.8862 12.027 27.0491 12.2306 27.0084 12.4647L26.4689 15.702C26.4485 15.875 26.5605 16.0277 26.7335 16.0481C26.9066 16.0684 27.0593 15.9564 27.0797 15.7834L27.5581 12.5258C27.5887 12.312 27.7821 12.1695 27.9958 12.2001H28.0264H28.0569C28.2707 12.2306 28.4132 12.424 28.3929 12.6276L28.006 15.8954C27.9857 16.0684 28.0976 16.2211 28.2707 16.2415C28.4438 16.2618 28.5965 16.1499 28.6168 15.9768L28.9426 12.7294C28.9629 12.536 29.1055 12.3731 29.2989 12.3629C29.5432 12.3426 29.7366 12.536 29.7264 12.7701L29.5636 16.2415C29.4312 17.2391 28.8611 18.1146 28.0162 18.6541L27.9348 18.705L27.7413 20.12C28.0366 20.344 28.2605 20.7207 28.0875 21.362C27.9755 21.7692 27.7413 22.2476 27.3851 22.777L26.9779 25.8004C26.9168 26.228 26.5198 26.5232 26.0922 26.4418C25.6952 26.3705 25.4407 25.9633 25.4916 25.5561L25.5832 24.8537C24.8299 25.5663 23.9137 26.2992 22.855 26.9813C21.1957 28.0604 20.4627 30.1065 21.0226 32C27.7515 29.9742 32.6582 23.7339 32.6582 16.3535C32.6888 7.19154 25.1557 -0.209261 15.9428 0.00451767Z" fill="#3B2186"></path>
<path d="M40.6584 15.9831C40.6584 12.2514 43.6911 9.22998 47.4228 9.22998C49.3507 9.22998 51.0756 10.0417 52.3157 11.3157L49.2605 14.416C48.8095 13.8861 48.1556 13.5705 47.4228 13.5705C46.0925 13.5705 44.9989 14.6528 44.9989 15.9944C44.9989 17.3472 46.0812 18.4295 47.4228 18.4295C48.1331 18.4295 48.787 18.1139 49.2267 17.6065L52.3157 20.6843C51.0756 21.9583 49.3394 22.77 47.4228 22.77C43.6911 22.7587 40.6584 19.7373 40.6584 15.9831Z" fill="black"></path>
<path d="M67.4904 9.44409V22.567H63.1048V17.7304H57.8399V22.567H53.4543V9.44409H57.8399V14.2581H63.1048V9.44409H67.4904Z" fill="black"></path>
<path d="M68.8997 15.9831C68.8997 12.2514 71.9324 9.22998 75.664 9.22998C79.3957 9.22998 82.4284 12.2514 82.4284 15.9831C82.4284 19.7373 79.3957 22.7475 75.664 22.7475C71.9324 22.7475 68.8997 19.7373 68.8997 15.9831ZM78.0879 15.9831C78.0879 14.6528 77.0056 13.5592 75.664 13.5592C74.3224 13.5592 73.2401 14.6415 73.2401 15.9831C73.2401 17.336 74.3224 18.4183 75.664 18.4183C77.0056 18.4183 78.0879 17.336 78.0879 15.9831Z" fill="black"></path>
<path d="M83.9392 9.44409H88.3248V22.567H83.9392V9.44409Z" fill="black"></path>
<path d="M89.8242 15.9831C89.8242 12.2514 92.8569 9.22998 96.5886 9.22998C98.5164 9.22998 100.241 10.0417 101.481 11.3157L98.4262 14.4047C97.9753 13.8749 97.3214 13.5592 96.5886 13.5592C95.2583 13.5592 94.1647 14.6415 94.1647 15.9831C94.1647 17.336 95.247 18.4183 96.5886 18.4183C97.2989 18.4183 97.9527 18.1026 98.3924 17.5953L101.481 20.673C100.241 21.947 98.5052 22.7587 96.5886 22.7587C92.8682 22.7587 89.8242 19.7373 89.8242 15.9831Z" fill="black"></path>
<path d="M102.71 9.44409H107.096V22.567H102.71V9.44409Z" fill="black"></path>
<path d="M113.454 12.8939V14.2581H120.658V17.7304H113.454V19.1171H120.658V22.567H109.069V9.44409H120.658V12.8939H113.454Z" fill="black"></path>
</svg>
