<svg width="1171" height="598" fill="none" xmlns="http://www.w3.org/2000/svg"><path d="m518.038 196.088-5.045 6.719-3.362 3.359-6.725 3.694-1.01 3.024s-2.691 2.689-2.353 4.369c.338 1.681.338 4.703.338 4.703s-4.708 4.368-6.727 5.711c-2.018 1.343-4.709 4.367-4.709 4.367s-1.681 2.017-2.69 2.688c-1.008.671-2.689 2.687-4.035 4.703-1.346 2.017-2.691 3.359-3.363 4.366-.673 1.008-2.691 3.36-3.7 7.056-1.008 3.697-3.699 8.063-3.699 8.063l-.674 1.679c.338 5.712.336 6.719 1.01 8.736.672 2.015 1.346 1.342.672 5.71-.672 4.366-.672 6.047-1.344 8.063-.673 2.014-2.691 5.709-3.362 7.392-.674 1.679 1.345 4.701 1.345 4.701s1.01 4.369.336 5.376c-.672 1.009.336 3.024.336 3.024s4.036 2.351 5.382 3.696c1.345 1.343 3.699 3.36 4.035 4.367.338 1.009 3.027 5.712 3.364 6.72.336 1.007 3.027 4.702 3.699 5.711.672 1.008 4.035 4.704 4.035 4.704s4.372 3.357 5.382 4.702c1.009 1.343 4.036 2.015 5.043 3.022 1.01 1.008 3.363.67 4.708 1.681 1.346 1.007 4.035-.673 5.381 0 1.345.672 5.046-.672 6.054-1.343 1.009-.672 3.362-3.023 5.044-2.017 1.681 1.006 2.69 0 4.036.336 1.343.336 3.362-1.342 4.706-1.342 1.346 0 4.708-1.345 5.717-1.345 1.01 0 4.373-2.018 5.719-2.018 1.343 0 3.026-1.34 4.706-.67 1.681.67 1.009-1.342 4.036-.336 3.027 1.006 4.035 0 5.044 1.006 1.01 1.009 2.356.003 3.365 1.347 1.008 1.341 2.689 2.349 3.025 3.694.335 1.345 2.353 2.689 2.353 2.689l2.019.335s2.692-2.015 3.363-.671c.672 1.344 3.7 1.009 3.7 1.009l3.025 3.359 1.01 1.343s2.019 5.376 1.681 7.391c-.336 2.015-.336 6.383-1.345 7.39-1.008 1.009-1.681 5.376-1.681 5.376s-1.346 1.344 1.681 4.032c3.027 2.689 5.046 5.039 6.054 6.381 1.01 1.344 3.701 5.042 4.034 7.392.338 2.351 1.01 3.694 2.356 6.718 1.345 3.024 3.026 3.36 3.362 6.722.338 3.358 1.009 3.359.672 5.709-.336 2.352-1.344 2.688-.336 4.367 1.009 1.681 2.352 4.705 2.019 5.712-.336 1.008-1.01 5.375-1.01 5.375l-.673 2.016-3.025 5.714-2.019 3.021c-.672 2.351-2.017 4.703-1.68 8.063.334 3.36-1.681 3.358 1.008 6.716 2.691 3.362 4.034 7.057 5.716 10.081 1.683 3.023 2.691 6.047 3.026 8.062.338 2.016 1.682 2.689 2.355 5.376.671 2.688 1.008 4.03 1.008 5.711 0 1.679-.337 6.047.338 7.055.671 1.007 1.008 4.033 1.345 5.376.336 1.345-1.01 1.681 1.008 4.033 2.019 2.351 3.363 3.694 4.708 5.375 1.345 1.681 1.008 1.007 2.018 3.36 1.009 2.351 2.354 3.697 2.691 5.71.336 2.015.671 7.054 1.681 9.407 1.009 2.352 2.353 4.704 2.353 4.704s3.701 2.351 5.046 2.015c1.343-.336 4.035-3.357 6.054-2.351 2.018 1.008 3.699 0 5.38 0s3.363-2.016 5.046-2.016c1.681 0 4.034-2.688 5.381-2.015 1.345.67 3.024-.675 4.707-2.354 1.682-1.678 2.691-3.021 5.716-5.709 3.027-2.688 2.691-2.69 4.708-4.369 2.019-1.68 4.037-5.376 6.39-6.048 2.353-.671 3.026-3.021 3.698-4.701.674-1.681 1.009-2.689 2.019-4.033 1.01-1.342.336.34 2.018-4.03 1.682-4.369 3.702-6.047 5.383-7.056 1.681-1.007 2.69-3.022 3.698-3.36 1.009-.337 2.691 1.008 2.019-2.016-.671-3.022 0-7.39-.671-8.397-.674-1.011-1.684 2.349-1.346-2.691.339-5.038 4.035-10.078 4.035-10.078s5.044-6.382 6.727-7.39c1.682-1.007 2.017-2.015 4.373-3.36 2.352-1.342 7.397-4.701 7.397-6.382s2.019-6.048 2.019-7.057c0-1.007 0-2.015-.671-7.727-.674-5.709.671-4.367-1.346-9.742-2.017-5.375-2.357-12.094-3.7-13.774-1.346-1.68-.674-6.049-.674-7.391 0-1.343 2.357-4.703 3.365-6.046 1.009-1.345 5.38-6.721 5.38-6.721s6.725-7.726 9.08-11.42c2.354-3.697 4.708-7.055 6.389-8.399 1.682-1.343 5.717-4.37 8.071-7.728 2.354-3.359 7.062-9.741 7.4-10.751.335-1.006 3.024-4.366 3.024-4.366s3.699-4.369 4.373-6.72c.671-2.352 4.033-15.454 3.36-14.782-.669.673-4.706 1.343-6.052 1.679-1.343.337 2.02 1.679-7.735 1.009-9.751-.673-14.795 1.007-14.795 1.007-3.028-.673-5.381 2.687-6.391-2.016-1.009-4.702-1.683-7.39-3.698-10.75-2.019-3.359-3.365-4.703-6.389-9.072-3.025-4.365-2.692-2.352-5.383-5.709-2.69-3.359-3.363-2.353-5.044-6.719-1.681-4.368-3.026-2.687-5.044-8.735-2.019-6.049-3.363-6.721-4.372-10.079-1.01-3.359-2.353-4.369-3.027-7.391-.672-3.024-8.406-18.477-9.416-19.486-1.01-1.006-2.691-6.384-2.354-5.375.337 1.008 5.045 4.367 5.045 4.367s2.69-1.009 3.7-1.009c1.008 0 5.044 3.698 5.044 5.039 0 1.345 7.065 7.729 8.744 12.432 1.681 4.703 3.703 8.063 4.036 9.406.333 1.344 3.699 6.72 5.045 8.736 1.344 2.017 5.715 6.047 6.388 8.063.672 2.017 7.064 8.735 7.064 13.102 0 4.367 3.024 10.078 3.362 11.421.337 1.344 6.388 3.026 6.388 3.026l8.073-2.017s12.105-7.728 13.451-7.728c1.343 0 12.108-5.039 12.108-5.039s4.37-4.03 7.396-6.381c3.027-2.352 6.39-6.718 7.064-8.736.671-2.017 2.017-2.351 4.706-5.376 2.691-3.024 6.391-6.047 4.037-8.063-2.354-2.015-3.7-1.344-7.062-4.703-3.363-3.359-3.027-2.687-5.382-7.056-2.355-4.366.336-9.406-4.709-4.366-5.043 5.039-3.026 6.383-8.071 7.393-5.043 1.006-7.063 4.366-9.416 1.006-2.353-3.36-4.706-1.343-6.054-6.384-1.345-5.039-2.355-5.376-2.69-7.389-.334-2.017.001-2.017-2.69-7.057-2.69-5.039-.673-12.766 1.008-8.399 1.682 4.367 4.372 5.039 8.745 8.063 4.37 3.022 6.39 5.376 10.424 5.712 4.036.334 7.399 0 8.071.67.673.673 1.345-.334 3.027.336 1.683.673 2.352-1.006 3.026 1.679.672 2.688 4.372 3.024 6.052 4.703 1.683 1.679 1.683 1.009 6.056 1.679 4.373.674 10.427.674 10.427.674l6.387-.338 7.399.67s5.383 3.024 6.727 3.024c1.344 0 1.68 3.698 5.044 5.713 3.363 2.016 4.035 2.35 6.052 4.703 2.022 2.352 1.683 3.359 4.372 5.71 2.692 2.354 7.065-.334 7.738-1.34.669-1.009 4.032-2.688 3.363 0-.674 2.687 3.36 1.678 2.352 8.063-1.009 6.381-1.683 4.701 0 9.07 1.681 4.367 9.079 17.805 9.417 21.837.338 4.031 2.353 2.688 2.689 6.385.338 3.694 2.353 5.037 2.353 7.725 0 2.689 2.357 3.359 2.691 5.377.34 2.016 4.037.334 5.046 0 1.01-.338 5.716-4.705 5.716-4.705s2.022-.67 1.683-4.031c-.338-3.357 0-2.687 0-7.726s-2.017-5.039-1.009-10.076c1.009-5.039 3.698-8.065 4.372-10.416.672-2.35 3.363-6.382 4.706-6.719 1.345-.336 8.745-4.03 10.427-6.384 1.681-2.351 4.372-5.039 7.063-7.725 2.689-2.687 7.397-6.047 8.407-5.039 1.009 1.007.673.671 2.355.671 1.681 0 4.708 1.345 7.061 1.681 2.355.336 7.064 6.046 8.073 9.07 1.008 3.024.336 2.351 4.035 6.72 3.699 4.366 7.063 1.678 7.063 7.054s0 5.039 1.682 7.055c1.681 2.017 3.698-3.695 5.715-3.022s2.353-.672 4.034 4.703c1.681 5.376 2.689 5.376 3.028 10.751.335 5.375-.337.336-.337 4.702 0 4.368-.338 4.704.337 8.734.671 4.035 3.023 5.378 2.69 6.05 0 0 2.017-5.711 1.343-9.744-.669-4.03 0-9.741 1.682-11.42 1.681-1.682 3.365-3.36 4.708 1.008 1.346 4.366 2.019 1.007 5.044 6.046 3.029 5.041 5.718 4.03 6.054 6.382.336 2.353 2.022 2.69 4.372 4.704 2.355 2.016 4.372-.335 7.063-2.351 2.692-2.017 10.088-9.408 10.427-12.432.334-3.022 3.361-2.352-2.02-10.076-5.382-7.727-5.382-10.416-11.098-15.119-5.714-4.703-9.078-5.039-4.705-11.087 4.371-6.047 6.39-10.077 9.079-8.397 2.691 1.679 7.396 1.342 7.396 8.063 0 6.718-1.345 14.109 3.363 6.047 4.708-8.063 7.067-12.766 5.717-11.42-1.344 1.343 3.03-2.688 3.03-2.688s.33-3.024 6.05-4.368c5.72-1.346 7.4-2.016 9.42-3.024 2.02-1.009 7.73-7.728 8.74-10.751 1.01-3.024 3.7-8.398 3.03-10.749-.67-2.354-4.04-13.774-4.71-13.439-.67.337-.34.337-4.71-4.366-4.37-4.703-7.4-8.063-8.07-10.079-.67-2.017-2.35-2.353-.34-5.039 2.02-2.687 3.03-2.351 3.37-4.704.33-2.35 3.02-4.367-2.02-2.686-5.04 1.679-1.35.673-5.72.337-4.37-.337-15.802 2.351-10.084-4.703 5.714-7.055 7.394-11.421 8.404-11.421 1.01 0 6.06-5.712 6.39-.338.34 5.375 2.35 4.03 2.69 7.39.34 3.36 7.06-3.694 7.06-3.694s2.36.672 4.04 2.351c1.68 1.679 1.68 7.055 1.68 7.055s-1.34-1.68 2.35 1.008c3.71 2.689 7.74 1.343 7.74 7.055 0 5.711 0 6.048 2.35 7.392 2.36 1.343 4.71.673 6.73-1.008 2.02-1.679 5.38-7.727 5.38-7.727s.34-2.352-5.04-5.712c-5.38-3.358-8.75-5.709-10.76-7.39-2.02-1.679-1.35-6.718.67-8.736 2.02-2.016 3.02-3.024 2.35-5.711-.67-2.689 1.01-4.704 6.05-4.368 5.05.337 6.06-.335 6.06-.335s1.01.67 1.01-1.345c0-2.014 6.39-11.422 4.7-11.422-1.68 0 .34-2.351-.67-6.047-1.01-3.697 3.36-9.406-.33-12.094-3.7-2.688-4.71-4.033-7.07-8.063-2.35-4.033-2.02-4.703-10.76-5.712-8.74-1.008-12.78 2.016-14.8-.67-2.01-2.688-3.02 4.03-4.37-4.033-1.34-8.063 2.02-13.44 2.02-13.44s5.38-3.358 6.73-5.71c1.34-2.352 6.72-3.36 11.1-1.68 4.37 1.68 10.76 1.344 16.14 2.355 5.38 1.006 5.04 4.365 7.73 0 2.69-4.37 0-6.384 2.02-8.736 2.02-2.353 4.37-6.048 6.05-3.697 1.68 2.353 5.05 4.703 7.74 1.679 2.69-3.023 3.7-3.359 3.7-3.359l1.34 1.345s3.03-1.682 3.03 1.34c0 3.026 3.03 6.386 1.35 8.737-1.69 2.353-4.04 2.016-4.04 7.727 0 5.713 0 4.704 3.7 9.409 3.7 4.702 6.05.67 6.72 5.711.68 5.038 1.35 4.032 5.05 7.391 3.7 3.358 3.02 3.358 5.72 5.375 2.69 2.016 4.03 4.032 4.03.673 0-3.36.34-5.039 0-8.063-.34-3.023 2.69-5.376.67-10.415-2.01-5.039-.33-4.704-4.37-8.4-4.03-3.693-6.73.674-8.07-4.702-1.34-5.375 6.39-7.727 8.41-8.399 2.02-.67 5.04-4.703 5.71-2.015.68 2.687-5.04 12.43 4.71 2.015 9.76-10.414 5.38-6.047 5.38-6.047s5.05-.671 6.06 0c1 .674 3.7-3.023 2.69-2.686-1.01.337-10.76-5.376-10.76-5.376l-7.07-4.03s2.36-1.681 4.04-1.344c1.68.336 2.02-3.36 3.7-3.697 1.68-.336 13.12 2.354 15.47 3.697 2.36 1.344 10.76 1.68 9.75 1.008-1.01-.673-6.39-4.703-6.72-6.048-.34-1.343-12.11-4.032-15.81-3.696-3.7.335-7.06 1.342-10.09.335-3.02-1.008-7.39-3.696-9.75-3.696-2.35 0-31.95-5.71-33.29-5.375-1.34.336-3.36 6.718-4.37 5.71-1.01-1.007-2.69-1.008-7.4-2.352-4.71-1.343-11.1-2.352-19.51-3.022-8.4-.672-14.12.672-16.47-2.016-2.36-2.687-7.4-1.68-13.12-2.017-5.72-.334-12.442 0-15.469 0-3.027 0-10.087-.334-11.769-.672-1.683-.337-3.7-2.688-5.717-3.022-2.02-.337-1.683-1.008-5.717-1.68-4.036-.672-3.7-5.038-5.044-1.344-1.345 3.697-.674 2.688-2.691 4.032-2.019 1.344-4.036 4.03-5.382 4.03-1.343 0-6.723.337-7.735-.335-1.01-.672-2.691-1.343-6.054-1.343-3.363 0-3.363.334-7.735-.337-4.372-.672-7.735-.338-11.77-2.351-4.036-2.017-4.036-3.36-7.399-3.024-3.36.337-3.36-.672-8.071-.672-4.707 0-10.423 2.688-13.451 3.024-3.024.336-9.751-.337-12.105-1.345-2.357-1.007-3.028-3.358-11.772-2.352-8.744 1.009-13.788 1.009-12.107-1.68 1.682-2.686 3.699-5.374 4.708-5.71 1.01-.336 3.362-2.015 1.679-2.686-1.679-.674-3.361-1.68-7.395-2.017-4.038-.336-3.703 1.343-9.754.672-6.053-.672 3.363-2.351-9.078-2.015-12.443.337-15.47 1.343-16.815 1.343-1.346 0-3.028-2.687-6.39 1.343-3.363 4.032-8.074 6.383-14.797 6.718-6.725.338-7.063-.671-13.45 1.68-6.39 2.35-10.427-.672-9.081 4.703 1.343 5.374 3.027 7.39 3.027 8.398s-3.027 7.727-6.725 3.696c-3.702-4.031-10.427-19.821-7.4-9.07 3.025 10.75 9.75 14.446 3.363 16.126-6.389 1.679-5.719-.672-6.728-1.345-1.007-.672 0-5.375-.336-8.063-.338-2.687-1.008-4.367-2.353-5.71-1.343-1.346-1.01-3.36-3.7-4.032-2.69-.672-.336-2.017-4.707-2.017-4.372 0-8.07-2.688-7.061 3.36 1.007 6.046 2.015 2.017 4.704 7.727 2.69 5.71 7.735 1.68 4.037 5.71-3.699 4.032-13.451 2.689-15.806 1.01-2.354-1.681-1.68.671-6.055-2.353-4.372-3.024-3.024-5.376-8.068-3.024-5.044 2.353-6.727 6.72-8.745 5.04-2.019-1.681-6.725 2.35-8.407.337-1.683-2.017-8.409-2.017-9.752 0-1.346 2.015-5.382 1.679-11.098 4.367-5.717 2.687-4.037.334-11.098 6.046-7.064 5.711-11.1 10.414-13.452 6.719-2.354-3.695-15.135-10.078-10.089-11.087 5.045-1.008 7.398-3.023 10.089-.672 2.691 2.35 7.064 1.68 7.734 0 .672-1.68 3.701-3.36-.336-5.375-4.036-2.016-4.372-.673-10.761-3.024-6.39-2.352 0-1.679-8.745-3.024-8.743-1.343-12.444-2.015-14.797-2.686-2.352-.672-5.717 0-9.078-.336-3.365-.336-5.717-1.008-8.745-.672-3.026.336-4.707-.336-8.744 2.688s-7.064 4.367-9.753 6.718-9.75 7.056-11.769 8.736c-2.018 1.68-9.081 7.054-9.753 9.07-.673 2.017.672 3.696-2.019 5.04-2.691 1.343-5.38 1.343-7.399 1.679-2.018.336 0-3.024-2.018.336-2.017 3.36-1.345 15.454.336 13.773 1.681-1.68.672-7.054 8.071-2.013 7.399 5.037 12.108 4.365 11.771 9.069-.337 4.703 5.044 4.367 5.716 5.376.672 1.006 4.035-1.345 4.035-1.345s7.399-4.703 7.399-7.054c0-2.352 4.708-7.727 4.708-7.727s-3.365-1.679-3.365-5.039c0-3.358 1.012-4.369 1.683-7.728.672-3.359-3.7.001 6.39-6.384 10.087-6.382 10.76-2.014 10.76-2.014s1.344 1.344-.337 3.359c-1.681 2.016-4.708 7.392-5.38 8.063-.674.673 3.027 6.047 4.706 6.047 1.682 0 5.045-1.344 7.064-1.008 2.018.337 5.38-1.007 6.389-.335 1.01.672 3.363 2.687 1.681 4.367-1.681 1.68-5.382 3.695-8.07 3.024-2.692-.67-6.728-5.376-4.373 1.344 2.354 6.719-.336 8.398-2.355 8.063-2.015-.336-6.389-3.695-5.716 1.344.674 5.038-4.371 8.398-5.381 8.398-1.01 0-3.025-.336-3.025-.336s-3.029-.337-4.708-.337c-1.682 0-5.045 1.679-6.054 3.024-1.01 1.343-2.355.337-4.036.337-1.68 0 0-2.017-3.363-2.688-3.361-.672-5.38-1.344-7.397 0-2.018 1.343-5.044 2.015-6.39 1.007-1.345-1.007.674-3.361-2.019-2.015-2.689 1.344-4.708 5.039-5.716 5.376-1.009.335 3.027 0-1.009.335-4.035.337-5.716 1.346-7.734 2.016-2.019.673.672 4.703-3.027 6.047-3.7 1.343-1.007-1.679-4.708 1.343-3.7 3.025-4.374 5.712-5.717 6.048-1.346.337-1.008 1.007-4.035 1.343-3.027.336-2.69.672-4.373 1.008-1.681.336.337 1.009-3.362.336-3.701-.672-6.39.673-5.718 2.016.672 1.343 13.115 5.039 3.699 4.703-9.415-.336-6.388 1.344-4.371 2.687 2.018 1.343 3.025 2.686 4.035 3.024 1.01.336 2.689 4.369 2.689 4.369s2.691-.338 1.01 2.015c-1.68 2.352.673 3.024-1.01 6.047-1.68 3.024-1.68 1.008-3.025 1.68-1.345.67-3.363 3.024-7.064 1.007-3.699-2.016-6.387-3.024-10.76-3.358-4.372-.337-1.347-1.008-4.372 1.342-3.027 2.353-3.7 5.04-3.362 8.063.336 3.022.672 7.055-.338 9.071-1.008 2.015-1.008 4.032-.337 7.056.674 3.022 2.692 4.369 2.692 4.369s4.708.67 5.717 1.007c1.008.336 3.027-.672 5.716 1.006 2.691 1.681 5.382 2.354 7.062.337 1.681-2.015 8.408-4.367 10.428-6.382 2.017-2.016 3.361-2.686 2.353-4.703-1.009-2.016 2.018-7.055 3.699-8.063 1.681-1.007 5.38-2.016 5.38-2.016l4.036-6.047s3.363-3.697 5.044-3.36c1.681.336 11.097 3.698 10.426-.67-.673-4.368.672-5.712 1.681-4.033 1.008 1.68 3.699 1.008 3.699 1.008s1.345-.67 2.353.337c1.009 1.006 2.353 5.376 4.372 6.382 2.018 1.009 3.699 2.017 5.045 2.687 1.345.673 2.691 0 5.382 2.352 2.689 2.353 5.38 3.698 5.715 4.704.339 1.007 2.692 3.359 2.692 3.359s2.354.672 1.681 2.017c-.672 1.343-4.034 5.376-5.716 6.046-1.683.672-6.053-.673-4.372.672 1.679 1.343 4.036 3.024 5.044 2.015 1.01-1.008 7.397-7.727 7.397-7.727s-.336.336 0-1.681c.338-2.013 0-4.366 1.683-3.358 1.681 1.009 2.691 2.352 3.363 1.009.672-1.345 1.345-.672-.338-1.679-1.682-1.009-5.716-6.72-7.735-7.056-2.018-.337-7.064-3.697-7.064-3.697s-1.007-1.007-3.361-3.694c-2.355-2.688-3.026-2.016-3.701-4.369-.671-2.351-2.691-5.375 1.01-4.703 3.701.672 6.052 3.023 9.416 5.039 3.363 2.017 2.692 2.687 5.717 4.703 3.026 2.017 3.365 4.033 5.717 3.697 2.353-.336 5.045 1.344 5.045 4.368s.671 6.382 1.344 7.055 2.689 2.016 3.363 3.36c.672 1.343 2.018 4.703 3.025 6.046 1.01 1.344 2.019 2.352 3.027 4.033 1.009 1.679 1.345-.337 2.353.336 1.01.672 2.355.334 2.355-1.009s.335-3.696.335-3.696 4.711-1.343 3.366-2.016c-1.346-.672-5.383-4.703-5.046-6.047.337-1.343 0-4.029 1.68-3.694 1.682.335 3.365 3.359 7.064.671 3.699-2.689 8.071-4.032 6.725 0-1.343 4.031.339 4.701 0 9.07-.335 4.369 1.347 3.024 3.702 5.376 2.353 2.352 4.034 2.69 5.715 3.36 1.682.673 4.372.337 7.064.673 2.691.336 4.372-1.009 6.726-.336 2.352.672 7.734-.337 8.744.336 1.01.672 5.045-1.343 5.38 1.008.336 2.352 1.682-.336.674 5.039-1.009 5.374-2.355 9.07-2.355 9.07-3.699 7.055-5.044 8.736-6.726 9.072-1.68.336-2.69 1.343-5.715 1.007-3.027-.337-6.726 0-11.098-1.007-4.372-1.009-12.444 1.007-15.806-1.009-3.363-2.015-8.071-.336-10.091-2.687-2.017-2.352-5.379-2.016-6.725-3.36-1.345-1.343-2.017-5.037-2.017.338 0 5.376-3.027 5.71-3.699 8.398-.674 2.687 1.007 1.344-2.693 1.008-3.699-.337-4.708 1.679-10.088-2.351-5.382-4.031-8.071-4.031-10.76-5.712-2.693-1.681-5.382 3.023-8.071-2.351-2.691-5.376-6.391-1.009-6.727-5.376-.336-4.369 0-4.03.336-6.718.34-2.688 4.036-5.039 2.355-6.047-1.682-1.007-.338-2.688-2.691-1.679-2.354 1.008-5.716 1.344-8.407 2.351-2.691 1.009 6.053 0-7.063 1.009-13.115 1.008-16.816 2.351-16.816 2.351s-1.008-.672-2.69.672c-1.681 1.343-4.036 3.359-6.389 2.352-2.353-1.009-3.7-.673-5.717-.336-2.018.336-3.361-1.679-5.716 0-2.355 1.678-5.044 2.351-6.054 1.678-1.011-.681-2.694-3.368-2.694-3.368Z" fill="#ECECEC"/><path d="M743.018 417.144c-1.008 3.697-4.708 9.07-4.708 9.07l-6.728 3.36s-2.35 2.017-3.698 2.353c-1.344.334-4.707 2.016-4.707 2.016s-3.026-.673-2.019 2.349c1.009 3.024 1.346 6.721 1.009 7.727-.335 1.009-.335 3.026-.335 5.714 0 2.687-1.009 6.045-2.691 6.717-1.681.673-3.363 1.344-3.027 3.697.338 2.352.338 9.406.338 9.406l4.373 6.72s1.345-1.008 4.035-1.008c2.688 0 5.381-2.349 5.381-2.349s3.028.668 2.689-3.024c-.336-3.697 1.348-8.063 1.008-9.072-.334-1.008 3.029-5.376 3.029-6.382 0-1.009 3.363-5.71 3.363-7.392 0-1.679 2.353-4.367 2.69-6.38.336-2.018.672-6.72 1.344-8.063.674-1.344 1.01-2.688 1.01-4.032v-4.031l-2.356-7.396ZM1006.33 462.499c-1 1.342-1.68 15.79-2.35 17.469-.67 1.679-2.02 10.415-1.34 12.429.67 2.018 1.68 9.408 1.01 11.76-.68 2.351.33 9.742-1.35 9.406-1.68-.337-2.351.337-2.351 1.343 0 1.009 2.351 3.023 2.351 3.023s4.04.001 5.72-.336c1.68-.336 5.04-2.016 7.73-2.016 2.69 0 4.38-2.017 6.73-2.017 2.35 0 7.4-1.678 8.74-1.007 1.35.67 3.37-4.032 5.72-3.023 2.35 1.008 7.4-2.352 9.75-2.352 2.35 0 3.37-3.697 6.06-3.023 2.69.672 7.73-1.343 10.09-.338 2.35 1.01 6.05-3.359 7.73 0 1.68 3.361 6.73 4.704 6.73 6.383 0 1.679-.34 5.377-.34 5.377l4.03-.338s6.39-4.031 7.4-4.031c1.01 0 3.37-3.359 3.37-1.678 0 1.678-2.02 5.376-2.69 7.054-.68 1.681.67 3.697.67 3.697s3.36 1.679 2.02 4.702c-1.35 3.024.33 2.354 0 4.703-.34 2.352 0 1.343 1.34 2.687 1.35 1.344 3.7 3.7 5.72 3.361 2.02-.337 2.69-2.351 4.37-1.343 1.68 1.007 5.04.335 6.05 1.68 1.01 1.342-6.39 4.702 6.39-1.007 12.78-5.714 14.12-7.057 15.8-9.074 1.69-2.015 3.71-4.03 5.05-5.374 1.35-1.344.34-1.008 4.37-4.032 4.04-3.022 4.04-1.679 7.74-7.391 3.7-5.709 6.39-7.726 7.06-8.735.67-1.009 2.02-1.343 2.36-5.378.33-4.029 3.02-7.725 3.02-9.068 0-1.342 1.01-3.357.67-5.711-.33-2.352 1.35-5.709-.67-9.069-2.02-3.361 1.01-4.702-2.02-6.049-3.02-1.344-5.04-.671-5.71-3.023-.68-2.352-3.37-2.016-4.38-8.399-1.01-6.382-5.04-7.057-5.04-7.057s-4.04-1.679-3.03-2.349c1.01-.673 1.35-5.378 1.01-6.721-.33-1.343-.33-4.367-1.34-6.381-1.01-2.018-1.68-4.703-2.69-7.057-1.01-2.35-2.69-3.024-3.37-5.71-.67-2.687-1.68-3.697-2.01-4.367-.34-.672-1.02-4.03-1.68-.338-.68 3.696-2.02 10.75-2.02 10.75s-2.7 5.713-3.7 7.393c-1.01 1.677-2.02 6.046-3.7 5.709-1.68-.336-2.7 1.682-4.04 1.343-1.34-.337-3.36.337-4.37-.67-1.01-1.009-3.7-3.696-5.04-4.033-1.35-.335-2.36-3.021-3.37-3.021-1.01 0-2.69-2.354-2.35-3.697.33-1.344.67-4.366 1.01-5.711.33-1.343 2.35-4.369 2.35-4.369s0-2.015-1.68-2.015-2.02 0-5.72-.337c-3.7-.337-4.7-.672-6.05-.672-1.34 0 1.35-.671-2.36.336-3.69 1.011-5.38 3.697-7.73 6.05-2.35 2.35-.33 1.677-2.35 2.35-2.02.674-1.68-1.68-3.03 2.017-1.35 3.696.68 4.702-.34 5.375-1.01.673-8.07-2.351-8.07-2.351s1.68-.337.34-2.017c-1.34-1.68-2.69-4.03-4.71-3.022-2.02 1.007-3.7 1.681-5.04 3.36-1.35 1.679-1.35 3.022-2.36 4.365-1.01 1.344-3.69 1.344-4.03 2.689-.34 1.344-.34 4.703-1.35 5.039-1 .337-1.34-1.341-2.35-1.678-1.01-.336-.67-3.024-1.34-1.343-.68 1.679-1.35 1.341-2.36 4.03-1.01 2.688-1.34 5.04-2.35 5.376-1.01.337 0 .671-3.03 2.352-3.02 1.679-3.7 1.679-8.07 3.696-4.37 2.016-3.36 2.016-6.39 2.351-3.02.337-3.7 1.344-5.71 1.68-2.02.336-3.37.67-5.39 2.687-2.01 2.016-3.69 2.687-5.04 3.024-1.34.337-2.7 1.682-2.7 1.682ZM1026.17 329.797c-1.34 2.018-5.71 8.063-7.39 8.4-1.68.334-3.37 2.017-4.71 1.679-1.35-.337-4.37 0-5.38 4.368-1.01 4.367-2.69 6.719-3.7 6.382-1.01-.336 1.68 6.382-4.04 3.697-5.712-2.688-3.695 2.352-4.369 3.697-.672 1.342 1.009 5.039 1.345 6.382.339 1.344 1.345 3.696 2.694 5.709 1.34 2.017 2.35 4.368 4.7 3.699 2.36-.675 9.76 0 9.76 0s2.69 1.008 4.37 1.008c1.68 0 2.02-.672 3.02-.672 1.01 0 3.03-3.361 2.69-3.696-.33-.339-1.34-1.345.68-3.361 2.02-2.017 4.37-2.687 4.71-5.039.33-2.351-.68-2.351.33-3.697 1.01-1.343 3.36-1.005 2.69-2.351-.67-1.343.67-1.007-.67-3.697-1.34-2.687-3.03-3.696-1.68-7.055 1.34-3.359 2.69-4.032 2.35-6.047-.33-2.018 1.68-2.688-.67-5.04-2.35-2.35-3.36-3.023-5.04-3.697l-1.69-.669ZM1092.09 363.393c1.35-.336 6.05-3.696 6.39 2.352.34 6.047.67 4.366 2.69 7.726 2.02 3.36 3.36 4.37 5.71 2.69 2.36-1.683 5.05-1.683 5.72-4.703.67-3.024.67-3.024 2.69-3.024s2.69-.336 3.71 1.01c1 1.34 1.67-.003 6.05 2.349 4.37 2.353 8.07 1.678 10.76 4.032 2.69 2.351 4.04 2.018 7.73 3.36 3.7 1.343 2.02-.672 5.38 3.024 3.37 3.694 2.02 4.701 3.7 6.382 1.68 1.679 3.03-1.345 2.36 2.686-.68 4.032-5.38 0 1.68 5.71 7.06 5.713 8.07 6.722 10.42 8.4 2.36 1.68 4.04 3.697 2.02 3.697s-8.4 0-9.08-1.009c-.67-1.008-3.7-1.681-5.72-4.032-2.01-2.349-6.38-4.031-7.39-6.046-1.01-2.018-2.36-2.688-4.04-2.688-1.68 0-3.36 2.015-5.71 4.367-2.36 2.351-1.35-1.342-4.38-.336-3.02 1.009-6.38-.337-8.07-1.68-1.68-1.344-1.34-3.359-4.03-2.351-2.69 1.007-4.37.336-3.36-1.679 1.01-2.018.33-4.705.33-4.705s1.01-3.36-1.34-4.03c-2.35-.67-2.35-3.022-4.71-3.697-2.36-.67-6.05-2.351-6.05-2.351s-.34 0-1.35-.336c-1.01-.337-1.01-.337-3.7-1.007-2.69-.673-4.71-.003-6.05-1.681-1.35-1.679-.67-4.031-.67-4.031s5.38.672 0-3.36l-5.38-4.03s.67-.337.33-1.009c-.34-.675 3.36 0 3.36 0ZM940.758 335.507s1.681 1.683 4.371 1.345c2.69-.337 4.705 5.375 6.391 7.39 1.679 2.016 2.691 3.024 6.388 5.376 3.698 2.351 3.362-2.016 8.408 5.039 5.044 7.054 2.689 2.688 5.044 7.054 2.353 4.372 3.699 6.721 5.044 7.732 1.343 1.007 2.354 3.692 2.692 4.701.335 1.008 2.688 4.03 2.688 5.039 0 1.008.674 3.696-1.343 6.047-2.019 2.352-3.701 2.688-3.701 2.688s-4.036-2.017-5.38-4.032c-1.347-2.015-3.026-3.695-5.382-7.725-2.353-4.033-5.044-8.4-6.389-10.415-1.344-2.018-3.363-4.035-4.372-6.048-1.008-2.018-3.699-8.063-5.044-8.736-1.344-.674-1.682-2.687-4.037-5.039-2.351-2.353-2.017-4.368-3.025-5.711-1.009-1.343-3.362-4.37-3.362-4.37l1.009-.335ZM286.668 597.553c-2.355-1.343-7.399-3.695-9.079-5.039-1.681-1.343-6.725-8.737-6.725-8.737l-3.701-7.056s-4.37-5.374-3.362-7.389c1.009-2.017 3.027-3.36 3.027-4.368 0-1.007 2.017-3.697.335-4.703-1.681-1.009-1.681-1.343-2.691-4.367-1.009-3.022-1.009-5.714-2.353-6.384-1.346-.67-2.355-5.039-3.7-5.375-1.344-.337-2.69-2.688-2.69-2.688l-2.019-27.212s-.674-12.429-1.345-15.119c-.674-2.686 1.009-8.397-.674-13.437-1.68-5.039.338-11.086-.672-13.102-1.008-2.017.672-7.726-.336-13.101-1.009-5.374 4.036-12.094 0-14.109-4.036-2.018-1.009-5.04-4.372-5.04-3.361 0-5.716-1.681-8.743-4.03-3.027-2.353-8.745-6.721-10.426-8.402-1.681-1.678-7.062-6.046-8.743-7.39-1.681-1.343-3.363-7.055-4.708-8.736-1.345-1.678-2.017-6.716-4.036-9.74-2.018-3.023-4.708-8.062-5.381-9.071-.673-1.007-8.071-9.742-8.071-9.742l.672-5.375s5.044-3.024 4.372-4.031c-.673-1.009.337-2.018-2.019-4.032-2.355-2.018-2.018-5.713 0-7.391 2.019-1.682 5.044-7.057 5.044-7.057l5.044-8.397s4.037-4.37 4.037-7.393c0-3.022 5.717-5.037 2.353-7.725-3.363-2.69-1.68-5.041-2.69-7.057-1.01-2.015-.337-3.359 2.69-5.375s8.408-9.406 8.408-9.406 4.035-1.009 5.044-1.009c1.008 0 2.69-10.753 5.718-3.697 3.027 7.055 4.035 3.359 3.027 8.398-1.01 5.039 1.344 4.033 2.689 2.69 1.345-1.346-.674 1.008 2.017-5.042 2.689-6.046 1.682-8.061 3.363-6.381 1.681 1.681 2.353 2.017 5.38 3.024 3.026 1.008 4.036.67 5.043 2.687 1.008 2.016.674-.672 6.39.337 5.716 1.009 13.788-2.016 12.779 1.342-1.008 3.36-3.027-.336 1.681 3.36 4.708 3.697 5.382 4.367 8.071 5.04 2.689.672 5.044.336 9.081 4.368 4.036 4.03 5.044 4.367 6.053 6.38 1.008 2.018 2.689.674 4.371 2.689 1.681 2.017 4.036 2.018 6.389 2.018 2.353 0 0-2.018 3.699.671 3.701 2.687 6.391 3.021 8.071 8.397 1.681 5.38 5.044 5.041 2.354 10.417-2.69 5.376-8.07 7.727-5.717 7.391 2.353-.337 6.727-2.353 8.071-2.016 1.345.334 2.017-1.008 4.036 0 2.018 1.007 2.355-1.343 2.018 1.007-.337 2.353-.337 0-.337 2.353 0 2.35-.673-2.353 3.363-1.344 4.035 1.008 1.681-2.018 6.389 2.351 4.709 4.369 4.709 3.026 6.388 5.376 1.683 2.35 3.364-1.341 4.374-.335 1.01 1.006 4.035.334 7.062 1.007 3.027.67 1.009-2.015 5.718 1.008 4.706 3.022 9.416 2.015 10.424 4.703 1.009 2.686 3.701 1.679 5.044 3.359 1.343 1.681 2.017-.673 3.363 1.681 1.345 2.349 5.382 1.678 4.708 4.029-.674 2.353 1.007 1.009.335 4.367-.671 3.363-3.027 8.737-5.043 10.079-2.018 1.345-2.017 3.024-3.363 4.703-1.344 1.683-1.008-1.679-2.691 3.024-1.68 4.705-1.344 5.377-2.689 9.742-1.345 4.366-.336 0-1.345 4.368-1.008 4.367-.336 7.055-1.344 12.096-1.009 5.037-.673 5.039-1.345 8.734-.672 3.696 1.681-1.678-1.346 6.047-3.026 7.728-3.362 7.389-4.37 10.751-1.01 3.361.336.671-3.364 2.688-3.699 2.018-1.68 1.343-6.054 2.688-4.37 1.343-9.752 2.69-11.432 3.024-1.681.334-8.408 2.351-6.389 6.381 2.018 4.033 2.018 4.704 0 9.745-2.019 5.037-5.044 6.719-5.044 9.069 0 2.35-1.346 4.701-1.681 6.382-.338 1.68 3.026-1.681-1.009 3.36-4.035 5.039-4.371 3.695-5.717 6.719-1.345 3.023 0 .67-1.345 3.023-1.345 2.35-4.708 3.358-4.708 3.358s.335 1.681-1.01 1.009c-1.346-.67-1.008.336-6.054-1.009-5.044-1.343-5.716-4.7-6.389-2.351-.672 2.351.336 3.697 3.363 6.048 3.026 2.352 8.072 3.023 6.725 5.376-1.344 2.353-1.344 2.353-2.353 3.696-1.01 1.345 1.345.336-1.01 1.345-2.353 1.007-3.699 5.376-4.708 5.376-1.008 0-1.682 1.679-3.027 1.008-1.344-.674-4.706-3.024-5.38-1.681-.672 1.342-2.018-1.681-1.682 3.022.337 4.704 1.01 7.392-.673 8.401-1.68 1.007-5.717 0-5.717 0l-.673-1.681-2.353.672s-1.009 4.031.672 4.703c1.681.671 1.345 1.342 3.026 3.358 1.682 2.017.674 5.712.674 5.712s0 1.009-1.681 2.688c-1.681 1.679-2.355 3.024-2.691 4.032-.338 1.007-2.355 5.376.672 5.039 3.026-.338 5.382-2.017 5.382 3.359 0 5.375 1.345 4.033-.336 7.728-1.682 3.695-3.027 4.031-3.363 7.389-.335 3.36.337 3.696 1.01 5.712.672 2.017 2.354 1.008.672 2.017-1.678 1.007-6.722.001-6.722.001ZM199.903 324.086l-2.353-3.358s-1.008-2.018-2.691-2.352c-1.682-.335-5.381-4.703-5.381-4.703s-1.681-1.344-1.681-3.695c0-2.352-1.346-6.046-.338-10.078 1.01-4.029 1.346-9.07 1.01-10.415-.338-1.343 1.681-1.679-.672-3.024-2.355-1.343-7.063-1.679-10.09-1.679-3.025 0-6.726 1.009-7.399 1.343-.672.336 3.7-10.077 4.372-11.757.673-1.679 3.7-9.071 3.7-10.077 0-1.009 1.008-1.345-1.009-2.687-2.017-1.345-5.38-2.017-7.399-1.009-2.017 1.009-1.681-1.343-3.361 2.687-1.681 4.033-3.364 8.4-5.382 9.071-2.017.674-6.053 2.689-6.053 2.689s-5.044-.336-6.726-.672c-1.681-.336-8.743-4.032-10.088-6.382-1.345-2.353-2.017-7.393-2.017-9.742 0-2.353 3.698-9.407 3.362-11.087-.337-1.679 3.7-8.399 3.363-9.408-.338-1.007.672-4.367 1.681-5.711 1.008-1.343 6.054-3.024 7.398-4.367 1.345-1.345 3.7-3.022 6.053-3.695 2.353-.674 4.373-1.344 6.054-1.344s6.052-3.695 6.725 0c.674 3.694 3.701 2.351 5.382 2.687 1.68.337 2.018 2.016 4.707-2.351 2.691-4.369 5.381-5.712 5.381-4.705 0 1.009 4.371-.334 5.044.674.672 1.007 2.018-.674 4.371 1.343 2.355 2.016 5.717 2.352 5.381 3.358-.337 1.008 1.344 1.008 1.344 2.017 0 1.007 1.346-2.353 1.346 3.694 0 6.048 1.681 9.743 1.681 9.743s2.353 5.041 3.362 4.032c1.008-1.008 3.025-3.694 3.025-3.694s3.364-2.017 1.011-9.072c-2.355-7.054-.673-9.071-1.345-11.423-.674-2.352-.674-3.697 3.362-6.72 4.035-3.022 13.787-9.742 16.142-11.085 2.353-1.343 7.733-5.039 7.733-5.039s2.017-1.007 2.355-3.695c.336-2.687 6.725-7.392 7.062-8.735.338-1.343 4.71-4.702 4.71-4.702s4.706-2.689 4.37-4.367c-.336-1.679 6.054-4.702 7.062-4.702 1.009 0 6.391 1.678 6.391-1.346 0-3.022 0-3.695 3.363-6.382 3.362-2.687 7.733-6.72 9.416-6.72 1.68 0 7.398-3.021 9.752-3.694 2.354-.673 9.753-4.033 3.027 0-6.727 4.03-2.355 1.679-3.7 5.039-1.343 3.358-2.355 7.727 4.036 2.687 6.39-5.039 6.052-6.048 8.407-6.383 2.355-.335.672 1.008 5.716-.673 5.046-1.679 5.382-2.35 5.382-2.35s2.355-2.017 1.009-3.023c-1.345-1.009 1.346-2.352-3.7-.337-5.044 2.016-4.708 2.352-8.071 1.343-3.362-1.007-8.407-.673-4.708-4.033 3.7-3.358 8.407-4.367 5.38-5.711-3.025-1.343-10.76.338-11.768.672-1.01.336-3.364-.336-5.382 0-2.017.336-1.345-2.685 0-3.358 1.346-.673 5.718-2.69 11.098-4.033 5.38-1.343 18.497-1.679 21.522-1.679 3.026 0 7.061.673 9.416-1.008 2.353-1.679 7.063-4.366 7.735-5.712.674-1.343 3.363-3.358 3.363-3.358s3.026-3.024 1.345-4.367c-1.681-1.344-3.363-4.368-4.708-3.696-1.345.672-.335 4.705-3.026.336-2.69-4.366-2.354-5.039-3.699-6.047-1.345-1.007-2.691-.337-1.681-5.039 1.009-4.703.673-6.72.673-6.72s1.008-4.03 0-4.365c-1.011-.337-1.681-1.343-3.362-.337-1.683 1.007-11.098 5.712-13.115 6.72-2.019 1.007-4.71-4.032-3.701-6.383 1.01-2.354.336-1.009-1.009-4.367-1.344-3.36-6.725-4.033-8.743-4.033-2.019 0-6.725-3.024-8.071-1.008-1.345 2.015-8.406 8.398-9.754 9.07-1.344.674-3.361-5.71-4.37 4.704-1.01 10.417 3.7 13.439-1.681 14.111-5.38.671-10.089 3.694-10.089 3.694s-4.37.337-4.37 3.024c0 2.689-1.681 9.07-3.701 9.742-2.017.673-7.063-.335-8.744-2.351s.336-9.406.336-9.406l3.027-3.024s-21.522-3.358-21.187-4.703c.337-1.344-6.389-3.694-7.061-5.71-.673-2.017-1.01-6.385-.336-8.064.672-1.679 9.752-9.742 14.459-11.421 4.708-1.68 12.779-5.375 15.134-6.048 2.355-.672 6.389-.336 7.735-2.015 1.345-1.68 1.681-4.703 1.681-4.703s-.673-4.705.672-4.033c1.345.673 3.699 1.68 4.036 2.688.337 1.008.337 3.36 2.69.67 2.355-2.686 5.382-3.695 8.072-5.037 2.69-1.345 6.724-1.008 9.081-2.35 2.353-1.344 6.388-2.69 6.725-6.049.336-3.358-1.009-2.35-2.691-2.688-1.681-.334.672.337-5.044 3.024-5.718 2.687-4.036.672-8.071 2.687-4.036 2.016-4.374 2.352-4.708.673-.338-1.68.672-4.367.672-4.367s.338-.338-2.017-1.008c-2.355-.672-2.355.336-2.691-2.687-.336-3.024 1.681-7.39-1.681-6.048-3.363 1.344-6.388-1.007-8.743 5.711-2.355 6.718-10.426 13.775-12.444 12.094-2.017-1.679-2.354-2.016-4.036-2.016-1.682 0-4.035-2.015-7.062-2.35-3.028-.337-12.109-.337-14.46 0-2.355.336-5.044-1.344-7.064.672-2.017 2.015-5.043 4.703-5.043 5.712 0 1.008-3.027-3.697-4.035-3.36-1.009.336-3.701-1.343-6.725-1.343-3.027 0-5.046-1.68-6.053-1.68-1.008 0 1.007-2.689 0-3.024-1.008-.335-22.87-1.008-22.87-1.008s-7.061-2.687-9.75-2.35c-2.691.335-10.088.67-15.808 1.678-5.718 1.008-14.125 4.368-16.814 4.704-2.691.337-8.744.337-9.752-1.344-1.01-1.679.336-1.343-1.01-1.679-1.345-.334-.335-1.007-3.362-3.358-3.027-2.352 1.346-4.367-4.708-4.367-6.052 0-9.752-.338-15.132 0-5.382.335-16.478 3.022-17.823 2.686-1.344-.336-12.106 1.68-13.789.673-1.68-1.009-10.09 3.694-11.769 3.359-1.68-.336-8.07.337-9.752 1.344-1.682 1.01-9.753 3.023-7.062 4.703 2.69 1.68 2.353 3.359 2.69 4.368.337 1.007-2.69 3.358-2.69 3.358s-.674 0-4.372-1.343c-3.7-1.345-7.735-2.015-9.417-1.008-1.681 1.008-4.708 3.026-4.036 4.37.674 1.342 5.38 4.366 6.054 3.357.673-1.007 2.355-3.022 4.372-2.686 2.019.337 5.046-1.344 2.355 2.016-2.691 3.359-5.046 5.04-6.727 5.377-1.68.334-5.716.67-9.415 1.007-3.701.337-3.365-1.343-6.727 2.017C2.838 82.55 1.491 80.535.82 84.23c-.672 3.694-1.345 3.694 0 4.703 1.345 1.008-2.69 1.344.336 2.351 3.026 1.01 6.725 2.017 6.389 3.023-.338 1.009 3.363-1.342 1.345 1.343-2.019 2.69-3.362 5.039.672 2.352 4.036-2.686 6.389-.673 9.752-2.352 3.363-1.679 6.726-2.015 8.743-3.358 2.019-1.345 3.027-3.359 6.054-4.369 3.027-1.007 1.009.337 1.345 2.016.336 1.68 0 2.016 2.019.67 2.017-1.343 2.017-.334 4.707-2.014 2.69-1.68 5.717-3.36 7.735-2.353 2.017 1.01 2.69 1.01 4.036 1.01 1.345 0-1.681-.338 1.345 0 3.027.334-1.345-1.01 8.743 1.343 10.09 2.35 12.78.671 13.451 4.367.674 3.696 2.019-.337 3.7 2.015 1.68 2.35 2.69.337 3.699 4.367 1.008 4.033 0 15.119-.672 16.462-.673 1.343-1.009 1.343-.673 4.367.336 3.023 4.372 17.471 3.027 18.477-1.344 1.006-4.371 1.343-4.371 1.343l-1.681 6.047s-2.69 5.039-5.044 7.727c-2.355 2.686-5.38 6.048-7.063 8.397-1.68 2.352-3.027 6.385-5.38 8.736-2.353 2.351-4.372 1.343-3.7 6.382.673 5.039 0 10.414.673 14.111.674 3.696 2.355 8.735 3.7 10.751 1.344 2.015 2.354 2.015 4.707 3.694 2.355 1.679 5.382 3.697 5.044 5.376-.336 1.68.336 12.096.336 12.096s2.019 3.359 2.353 7.054c.338 3.697 2.691 7.392 2.691 7.392l2.019 4.368s1.008.338 2.355 3.023c1.344 2.688 1.344 2.688 1.68 4.03.338 1.346.338 1.009.338 1.346 0 .334-.338-5.712-1.01-7.393-.672-1.679-.672-3.694-1.345-5.71-.672-2.017.337-4.369-1.68-7.392-2.017-3.022-2.017-3.359-3.026-6.383-1.009-3.023-2.355-6.383-1.009-7.056 1.345-.67 2.354-5.037 5.044 0 2.69 5.039 3.028 3.697 3.364 7.729.334 4.031 1.344 5.376 2.353 7.054 1.008 1.679 3.362 7.392 4.708 9.742 1.344 2.352 0-1.344 3.025 3.36 3.027 4.703 3.365 5.71 5.046 9.406 1.681 3.695 2.691 3.695 3.699 6.382 1.009 2.69.336 2.017-.337 5.039-.673 3.023.672 6.384.672 6.384s4.708 1.679 5.044 2.686c.336 1.008 5.044 2.687 5.718 4.032.672 1.345 5.044 3.022 5.044 3.022s3.699 2.353 5.042 3.024c1.347.672 5.384 1.345 5.384 1.345s2.689.673 3.697 1.008c1.009.335 4.036.335 4.036.335s2.691-2.015 3.699-1.343c1.009.67 3.364-1.345 4.372.334 1.009 1.681 3.027 1.681 4.036 3.026 1.008 1.343 2.017 1.343 3.699 3.022 1.682 1.68 3.363 1.344 5.044 2.687 1.681 1.343 3.026 1.343 5.044 1.343 2.017 0 2.017 0 3.363.338 1.343.336 2.017-1.009 3.362.673 1.345 1.679 2.353 2.686 3.362 4.366 1.008 1.679 3.363 1.679 3.699 4.367.336 2.687 1.009 2.354 1.009 4.703 0 2.352 1.344 3.36 2.354 4.033 1.007.67 4.707 4.028 4.707 4.028l5.044 1.009 4.035 3.024 4.376 1.339ZM307.685 11.985l20.178-2.52s7.061 0 10.593-2.519c3.531-2.52 0-2.52 10.593-4.534C359.642.395 356.617-.612 362.166.395c5.547 1.01 7.061 1.01 13.115 2.017 6.053 1.007 7.566-.503 13.114 1.007 5.549 1.512 8.071 1.008 12.611 1.008h14.124c7.062 0 13.62-4.032 16.142-1.512 2.522 2.52 4.036 1.512 12.612 2.52 8.574 1.007 12.106-1.01 15.637 0 3.532 1.007 9.586-.504 16.647 0 7.061.502 10.593-.504 13.115-.504 2.522 0 5.043-3.528 8.575-.504 3.532 3.024 8.071-1.008 8.574 3.024.505 4.031 7.063 1.007.505 4.031-6.557 3.024-5.549 2.52-10.089 6.551-4.539 4.031 3.027 7.558-6.558 11.087-9.585 3.527-11.098-2.017-13.62 4.031-2.522 6.047 0 7.559-.504 10.583-.505 3.022-1.513 3.527-4.54 6.046-3.026 2.52-3.026 0-10.088 1.512-7.063 1.512-12.107 3.024-15.132 3.024-3.027 0-9.585 2.52-11.603 3.527-2.019 1.009 3.532 2.52-7.063 5.543-10.593 3.024-13.117 2.521-16.142 6.551-3.027 4.033-2.019 4.538-4.036 7.057-2.018 2.52-8.071 12.6-11.098 10.08-3.025-2.52-4.54-2.017-7.062-4.536-2.522-2.52-4.036-6.047-5.549-8.063-1.514-2.017-2.019-7.056-2.522-10.08-.504-3.023-5.046-10.077 0-9.07 5.044 1.008 8.071.505 9.584-.503 1.514-1.009 3.027-4.536 3.027-4.536s-.503-5.543-2.018-8.567c-1.514-3.024-.504-5.544-3.026-8.566-2.522-3.024-2.522-2.52-6.054-5.544-3.53-3.024-2.522-4.536-8.071-5.039-5.549-.503-7.063-2.016-9.081-1.512-2.017.503-8.575-3.528-1.514-4.031 7.063-.505 13.621.503 13.621.503s9.079-4.031 6.054-4.534c-3.026-.505 4.539-5.04-2.522-3.529-7.063 1.512-15.133 3.529-17.151 4.032-2.017.503-7.063 1.007-12.107 2.519-5.042 1.512-11.098 1.009-14.123 4.536-3.027 3.527 0 4.031-3.027 3.527-3.026-.503 2.522-3.527-4.539 0-7.063 3.528-5.044 3.024-8.575 2.016-3.532-1.007-6.054-2.52-6.054-2.52s4.542-.504-2.017-1.007c-6.558-.503-6.558-.503-9.08-3.528-2.522-3.024-1.008-3.024.504-4.032 1.515-1.008 2.523-3.025 2.523-3.025Z" fill="#ECECEC"/><path d="M296.587 34.662c-2.522 2.52-8.576 6.048-7.061 7.56 1.514 1.512 2.522 7.055 5.549 5.543 3.026-1.512-.505-6.55 11.097-2.52 11.603 4.032 10.593-.502 13.115 5.544 2.522 6.047 4.539 10.581 3.026 12.094-1.512 1.512-2.017 3.024-7.063 4.536-5.044 1.513-7.062 3.529-3.53 6.047 3.53 2.52 10.089 5.039 13.115 6.552 3.027 1.51 12.106 2.017 7.566-3.022-4.541-5.04 1.008-6.553 1.008-6.553s8.576 6.553 5.551-1.007c-3.027-7.559-5.046-7.559-3.027-7.559 2.018 0 6.052 2.52 6.052 2.52l2.019-4.031-2.019-6.551-6.557-6.551s5.547-5.04-2.019-6.047c-7.566-1.007-7.062-1.007-11.098-3.528-4.035-2.52-4.539-3.527-12.106-2.015s-10.089 2.52-10.089 2.52l-3.529-3.532ZM184.099 40.71c3.027-3.024 11.098-10.078 14.125-8.063 3.026 2.015 7.565-1.512 11.097 1.512 3.53 3.024 7.566 6.55 10.593 7.558s6.557-2.52 9.584-1.007c3.026 1.512 13.619-7.559 11.602-.503-2.019 7.055 2.522 9.07-3.027 9.575-5.549.504-11.602 4.536-14.125 3.024-2.522-1.512-4.541-3.024-8.576-1.008-4.036 2.015-2.017 2.015-6.558 1.008-4.539-1.008-5.547 1.007-6.556-.505-1.01-1.51-4.036-1.007-3.532-5.543.504-4.535 2.017-4.032-1.01-4.032-3.026 0-5.548.505-7.566-1.007-2.017-1.512-6.051-1.01-6.051-1.01Z" fill="#ECECEC"/><circle cx="826" cy="118" r="20" fill="#6A53AA"/><path d="M825.377 123.243s.924-3.993-3.359-4.512c0-.008-1.023 4.459 3.359 4.512ZM827.141 123.243s-.924-3.993 3.359-4.512c-.007-.008 1.023 4.459-3.359 4.512Z" fill="#fff"/><path d="M825.957 106.003c-6.665.161-12.032 5.734-11.956 12.4.061 5.474 3.718 10.085 8.712 11.589a3.375 3.375 0 0 0-1.405-3.787 13.723 13.723 0 0 1-2.184-1.74l.092.74a.561.561 0 0 1-.497.626.56.56 0 0 1-.626-.496l-.313-2.527a3.367 3.367 0 0 1-.351-.787c-.114-.404-.015-.671.153-.847l-.145-1.168-.443-5.444c-.015-.183.198-.305.344-.191.503.382.908.878 1.145 1.466.641 1.596.702 3.421.702 3.421l-.634.61.199 1.611c.137-.022.26.023.336.222.046.114.03.267-.008.404 1.153 1.779 3.207 2.856 4.604 3.421a.314.314 0 0 0 .42-.199.31.31 0 0 0-.153-.366c-2.137-1.107-3.649-3.718-3.649-6.757 0-4.046 2.657-7.322 5.932-7.322 3.276 0 5.933 3.276 5.933 7.322 0 3.046-1.505 5.65-3.65 6.757a.31.31 0 0 0-.153.366.32.32 0 0 0 .42.207c1.367-.55 3.383-1.596 4.551-3.322-.054-.175-.092-.366-.038-.511.068-.191.183-.244.313-.229l.213-1.596-.053-.053a2.521 2.521 0 0 1-.649-2.047l.557-2.527c.031-.145.161-.259.313-.244a.291.291 0 0 1 .268.344l-.405 2.427a.228.228 0 0 0 .198.26.228.228 0 0 0 .26-.198l.359-2.444a.287.287 0 0 1 .328-.244h.046c.16.023.267.168.252.321l-.29 2.451a.226.226 0 0 0 .198.259.228.228 0 0 0 .26-.198l.244-2.436c.015-.145.122-.267.267-.275a.293.293 0 0 1 .321.306l-.122 2.603a2.545 2.545 0 0 1-1.161 1.81l-.061.038-.145 1.061c.222.168.39.45.26.931-.084.306-.26.665-.527 1.062l-.305 2.267a.565.565 0 0 1-.665.481c-.297-.053-.488-.359-.45-.664l.069-.527a14.072 14.072 0 0 1-2.047 1.596 3.352 3.352 0 0 0-1.374 3.764c5.047-1.519 8.727-6.2 8.727-11.735.023-6.871-5.627-12.422-12.537-12.262Z" fill="#fff"/><circle cx="1034" cy="142" r="20" fill="#6A53AA"/><path d="M1033.38 147.243s.92-3.993-3.36-4.512c0-.008-1.03 4.459 3.36 4.512ZM1035.14 147.243s-.92-3.993 3.36-4.512c-.01-.008 1.02 4.459-3.36 4.512Z" fill="#fff"/><path d="M1033.96 130.004c-6.67.16-12.04 5.733-11.96 12.399.06 5.474 3.72 10.086 8.71 11.59a3.37 3.37 0 0 0-1.4-3.787c-.87-.558-1.6-1.161-2.19-1.741l.1.741a.568.568 0 0 1-1.13.129l-.31-2.527a3.25 3.25 0 0 1-.35-.786c-.12-.405-.02-.672.15-.848l-.14-1.168-.45-5.444c-.01-.183.2-.305.35-.19.5.381.91.878 1.14 1.465.64 1.596.71 3.421.71 3.421l-.64.611.2 1.611c.14-.023.26.023.34.221.04.115.03.267-.01.405 1.15 1.779 3.2 2.855 4.6 3.42.18.069.37-.023.42-.198a.305.305 0 0 0-.15-.367c-2.14-1.107-3.65-3.718-3.65-6.757 0-4.046 2.66-7.322 5.93-7.322 3.28 0 5.93 3.276 5.93 7.322 0 3.047-1.5 5.65-3.64 6.757a.322.322 0 0 0-.16.367c.06.175.25.275.42.206 1.37-.55 3.38-1.596 4.55-3.321-.05-.176-.09-.367-.04-.512.07-.191.19-.244.32-.229l.21-1.596-.05-.053a2.524 2.524 0 0 1-.65-2.046l.56-2.527c.03-.146.16-.26.31-.245.17.015.3.168.27.344l-.41 2.428c-.01.13.07.244.2.259.13.016.24-.068.26-.198l.36-2.443a.287.287 0 0 1 .33-.245h.04a.29.29 0 0 1 .25.321l-.29 2.451c-.01.13.07.244.2.259.13.016.25-.068.26-.198l.25-2.436c.01-.145.12-.267.26-.275.19-.015.33.13.33.306l-.13 2.603c-.1.749-.52 1.405-1.16 1.81l-.06.038-.14 1.061c.22.168.39.451.26.932-.09.305-.26.664-.53 1.061l-.31 2.268a.559.559 0 0 1-.66.481c-.3-.054-.49-.359-.45-.665l.07-.526c-.57.534-1.25 1.084-2.05 1.595a3.356 3.356 0 0 0-1.37 3.764c5.04-1.519 8.72-6.199 8.72-11.735.03-6.871-5.62-12.422-12.53-12.261Z" fill="#fff"/><circle cx="891" cy="268" r="20" fill="#6A53AA"/><path d="M890.377 273.243s.924-3.993-3.359-4.512c0-.008-1.023 4.459 3.359 4.512ZM892.141 273.243s-.924-3.993 3.359-4.512c-.007-.008 1.023 4.459-3.359 4.512Z" fill="#fff"/><path d="M890.957 256.004c-6.665.16-12.032 5.733-11.956 12.399.061 5.474 3.718 10.086 8.712 11.59a3.375 3.375 0 0 0-1.405-3.787 13.781 13.781 0 0 1-2.184-1.741l.092.741a.562.562 0 0 1-.497.626.562.562 0 0 1-.626-.497l-.313-2.527a3.38 3.38 0 0 1-.351-.786c-.114-.405-.015-.672.153-.848l-.145-1.168-.443-5.444c-.015-.183.198-.305.344-.19.503.381.908.878 1.145 1.465.641 1.596.702 3.421.702 3.421l-.634.611.199 1.611c.137-.023.26.023.336.221.046.115.03.267-.008.405 1.153 1.779 3.207 2.855 4.604 3.42a.314.314 0 0 0 .42-.198.31.31 0 0 0-.153-.367c-2.137-1.107-3.649-3.718-3.649-6.757 0-4.046 2.657-7.322 5.932-7.322 3.276 0 5.933 3.276 5.933 7.322 0 3.047-1.505 5.65-3.65 6.757a.312.312 0 0 0-.153.367.319.319 0 0 0 .42.206c1.367-.55 3.383-1.596 4.551-3.321-.054-.176-.092-.367-.038-.512.068-.191.183-.244.313-.229l.213-1.596-.053-.053a2.52 2.52 0 0 1-.649-2.046l.557-2.527c.031-.146.161-.26.313-.245a.291.291 0 0 1 .268.344l-.405 2.428a.227.227 0 0 0 .198.259.226.226 0 0 0 .26-.198l.359-2.443a.287.287 0 0 1 .328-.245h.046c.16.023.267.168.252.321l-.29 2.451a.225.225 0 0 0 .198.259.226.226 0 0 0 .26-.198l.244-2.436c.015-.145.122-.267.267-.275a.293.293 0 0 1 .321.306l-.122 2.603a2.543 2.543 0 0 1-1.161 1.81l-.061.038-.145 1.061c.222.168.39.451.26.932-.084.305-.26.664-.527 1.061l-.305 2.268a.566.566 0 0 1-.665.481c-.297-.054-.488-.359-.45-.665l.069-.526a14.07 14.07 0 0 1-2.047 1.595 3.352 3.352 0 0 0-1.374 3.764c5.047-1.519 8.727-6.199 8.727-11.735.023-6.871-5.627-12.422-12.537-12.261Z" fill="#fff"/><circle cx="651" cy="284" r="20" fill="#6A53AA"/><path d="M650.377 289.243s.924-3.993-3.359-4.512c0-.008-1.023 4.459 3.359 4.512ZM652.141 289.243s-.924-3.993 3.359-4.512c-.007-.008 1.023 4.459-3.359 4.512Z" fill="#fff"/><path d="M650.957 272.004c-6.665.16-12.032 5.733-11.956 12.399.061 5.474 3.718 10.086 8.712 11.59a3.375 3.375 0 0 0-1.405-3.787 13.781 13.781 0 0 1-2.184-1.741l.092.741a.562.562 0 0 1-.497.626.562.562 0 0 1-.626-.497l-.313-2.527a3.38 3.38 0 0 1-.351-.786c-.114-.405-.015-.672.153-.848l-.145-1.168-.443-5.444c-.015-.183.198-.305.344-.19.503.381.908.878 1.145 1.465.641 1.596.702 3.421.702 3.421l-.634.611.199 1.611c.137-.023.26.023.336.221.046.115.03.267-.008.405 1.153 1.779 3.207 2.855 4.604 3.42a.314.314 0 0 0 .42-.198.31.31 0 0 0-.153-.367c-2.137-1.107-3.649-3.718-3.649-6.757 0-4.046 2.657-7.322 5.932-7.322 3.276 0 5.933 3.276 5.933 7.322 0 3.047-1.505 5.65-3.65 6.757a.312.312 0 0 0-.153.367.319.319 0 0 0 .42.206c1.367-.55 3.383-1.596 4.551-3.321-.054-.176-.092-.367-.038-.512.068-.191.183-.244.313-.229l.213-1.596-.053-.053a2.52 2.52 0 0 1-.649-2.046l.557-2.527c.031-.146.161-.26.313-.245a.291.291 0 0 1 .268.344l-.405 2.428a.227.227 0 0 0 .198.259.226.226 0 0 0 .26-.198l.359-2.443a.287.287 0 0 1 .328-.245h.046c.16.023.267.168.252.321l-.29 2.451a.225.225 0 0 0 .198.259.226.226 0 0 0 .26-.198l.244-2.436c.015-.145.122-.267.267-.275a.293.293 0 0 1 .321.306l-.122 2.603a2.543 2.543 0 0 1-1.161 1.81l-.061.038-.145 1.061c.222.168.39.451.26.932-.084.305-.26.664-.527 1.061l-.305 2.268a.566.566 0 0 1-.665.481c-.297-.054-.488-.359-.45-.665l.069-.526a14.07 14.07 0 0 1-2.047 1.595 3.352 3.352 0 0 0-1.374 3.764c5.047-1.519 8.727-6.199 8.727-11.735.023-6.871-5.627-12.422-12.537-12.261Z" fill="#fff"/><circle cx="655" cy="138" r="20" fill="#6A53AA"/><path d="M654.377 143.243s.924-3.993-3.359-4.512c0-.008-1.023 4.459 3.359 4.512ZM656.141 143.243s-.924-3.993 3.359-4.512c-.007-.008 1.023 4.459-3.359 4.512Z" fill="#fff"/><path d="M654.957 126.004c-6.665.16-12.032 5.733-11.956 12.399.061 5.474 3.718 10.086 8.712 11.59a3.375 3.375 0 0 0-1.405-3.787 13.781 13.781 0 0 1-2.184-1.741l.092.741a.562.562 0 0 1-.497.626.562.562 0 0 1-.626-.497l-.313-2.527a3.38 3.38 0 0 1-.351-.786c-.114-.405-.015-.672.153-.848l-.145-1.168-.443-5.444c-.015-.183.198-.305.344-.19.503.381.908.878 1.145 1.465.641 1.596.702 3.421.702 3.421l-.634.611.199 1.611c.137-.023.26.023.336.221.046.115.03.267-.008.405 1.153 1.779 3.207 2.855 4.604 3.42a.314.314 0 0 0 .42-.198.31.31 0 0 0-.153-.367c-2.137-1.107-3.649-3.718-3.649-6.757 0-4.046 2.657-7.322 5.932-7.322 3.276 0 5.933 3.276 5.933 7.322 0 3.047-1.505 5.65-3.65 6.757a.312.312 0 0 0-.153.367.319.319 0 0 0 .42.206c1.367-.55 3.383-1.596 4.551-3.321-.054-.176-.092-.367-.038-.512.068-.191.183-.244.313-.229l.213-1.596-.053-.053a2.52 2.52 0 0 1-.649-2.046l.557-2.527c.031-.146.161-.26.313-.245a.291.291 0 0 1 .268.344l-.405 2.428a.227.227 0 0 0 .198.259.226.226 0 0 0 .26-.198l.359-2.443a.287.287 0 0 1 .328-.245h.046c.16.023.267.168.252.321l-.29 2.451a.225.225 0 0 0 .198.259.226.226 0 0 0 .26-.198l.244-2.436c.015-.145.122-.267.267-.275a.293.293 0 0 1 .321.306l-.122 2.603a2.543 2.543 0 0 1-1.161 1.81l-.061.038-.145 1.061c.222.168.39.451.26.932-.084.305-.26.664-.527 1.061l-.305 2.268a.566.566 0 0 1-.665.481c-.297-.054-.488-.359-.45-.665l.069-.526a14.07 14.07 0 0 1-2.047 1.595 3.352 3.352 0 0 0-1.374 3.764c5.047-1.519 8.727-6.199 8.727-11.735.023-6.871-5.627-12.422-12.537-12.261Z" fill="#fff"/><circle cx="522" cy="276" r="20" fill="#6A53AA"/><path d="M521.377 281.243s.924-3.993-3.359-4.512c0-.008-1.023 4.459 3.359 4.512ZM523.141 281.243s-.924-3.993 3.359-4.512c-.007-.008 1.023 4.459-3.359 4.512Z" fill="#fff"/><path d="M521.957 264.004c-6.665.16-12.032 5.733-11.956 12.399.061 5.474 3.718 10.086 8.712 11.59a3.375 3.375 0 0 0-1.405-3.787 13.781 13.781 0 0 1-2.184-1.741l.092.741a.562.562 0 0 1-.497.626.562.562 0 0 1-.626-.497l-.313-2.527a3.38 3.38 0 0 1-.351-.786c-.114-.405-.015-.672.153-.848l-.145-1.168-.443-5.444c-.015-.183.198-.305.344-.19.503.381.908.878 1.145 1.465.641 1.596.702 3.421.702 3.421l-.634.611.199 1.611c.137-.023.26.023.336.221.046.115.03.267-.008.405 1.153 1.779 3.207 2.855 4.604 3.42a.314.314 0 0 0 .42-.198.31.31 0 0 0-.153-.367c-2.137-1.107-3.649-3.718-3.649-6.757 0-4.046 2.657-7.322 5.932-7.322 3.276 0 5.933 3.276 5.933 7.322 0 3.047-1.505 5.65-3.65 6.757a.312.312 0 0 0-.153.367.319.319 0 0 0 .42.206c1.367-.55 3.383-1.596 4.551-3.321-.054-.176-.092-.367-.038-.512.068-.191.183-.244.313-.229l.213-1.596-.053-.053a2.52 2.52 0 0 1-.649-2.046l.557-2.527c.031-.146.161-.26.313-.245a.291.291 0 0 1 .268.344l-.405 2.428a.227.227 0 0 0 .198.259.226.226 0 0 0 .26-.198l.359-2.443a.287.287 0 0 1 .328-.245h.046c.16.023.267.168.252.321l-.29 2.451a.225.225 0 0 0 .198.259.226.226 0 0 0 .26-.198l.244-2.436c.015-.145.122-.267.267-.275a.293.293 0 0 1 .321.306l-.122 2.603a2.543 2.543 0 0 1-1.161 1.81l-.061.038-.145 1.061c.222.168.39.451.26.932-.084.305-.26.664-.527 1.061l-.305 2.268a.566.566 0 0 1-.665.481c-.297-.054-.488-.359-.45-.665l.069-.526a14.07 14.07 0 0 1-2.047 1.595 3.352 3.352 0 0 0-1.374 3.764c5.047-1.519 8.727-6.199 8.727-11.735.023-6.871-5.627-12.422-12.537-12.261Z" fill="#fff"/><circle cx="143" cy="195" r="20" fill="#6952A9"/><path d="M142.377 200.243s.924-3.993-3.359-4.512c0-.008-1.023 4.459 3.359 4.512ZM144.141 200.243s-.924-3.993 3.359-4.512c-.007-.008 1.023 4.459-3.359 4.512Z" fill="#fff"/><path d="M142.957 183.004c-6.665.16-12.032 5.733-11.956 12.399.061 5.474 3.718 10.086 8.712 11.59a3.375 3.375 0 0 0-1.405-3.787 13.781 13.781 0 0 1-2.184-1.741l.092.741a.562.562 0 0 1-.497.626.562.562 0 0 1-.626-.497l-.313-2.527a3.38 3.38 0 0 1-.351-.786c-.114-.405-.015-.672.153-.848l-.145-1.168-.443-5.444c-.015-.183.198-.305.344-.19.503.381.908.878 1.145 1.465.641 1.596.702 3.421.702 3.421l-.634.611.199 1.611c.137-.023.26.023.336.221.046.115.03.267-.008.405 1.153 1.779 3.207 2.855 4.604 3.42a.314.314 0 0 0 .42-.198.31.31 0 0 0-.153-.367c-2.137-1.107-3.649-3.718-3.649-6.757 0-4.046 2.657-7.322 5.932-7.322 3.276 0 5.933 3.276 5.933 7.322 0 3.047-1.505 5.65-3.65 6.757a.312.312 0 0 0-.153.367.319.319 0 0 0 .42.206c1.367-.55 3.383-1.596 4.551-3.321-.054-.176-.092-.367-.038-.512.068-.191.183-.244.313-.229l.213-1.596-.053-.053a2.52 2.52 0 0 1-.649-2.046l.557-2.527c.031-.146.161-.26.313-.245a.291.291 0 0 1 .268.344l-.405 2.428a.227.227 0 0 0 .198.259.226.226 0 0 0 .26-.198l.359-2.443a.287.287 0 0 1 .328-.245h.046c.16.023.267.168.252.321l-.29 2.451a.225.225 0 0 0 .198.259.226.226 0 0 0 .26-.198l.244-2.436c.015-.145.122-.267.267-.275a.293.293 0 0 1 .321.306l-.122 2.603a2.543 2.543 0 0 1-1.161 1.81l-.061.038-.145 1.061c.222.168.39.451.26.932-.084.305-.26.664-.527 1.061l-.305 2.268a.566.566 0 0 1-.665.481c-.297-.054-.488-.359-.45-.665l.069-.526a14.07 14.07 0 0 1-2.047 1.595 3.352 3.352 0 0 0-1.374 3.764c5.047-1.519 8.727-6.199 8.727-11.735.023-6.871-5.627-12.422-12.537-12.261Z" fill="#fff"/><circle cx="112" cy="81" r="20" fill="#6952A9"/><path d="M111.377 86.243s.924-3.993-3.359-4.512c0-.007-1.023 4.459 3.359 4.512ZM113.141 86.243s-.924-3.993 3.359-4.512c-.007-.008 1.023 4.459-3.359 4.512Z" fill="#fff"/><path d="M111.957 69.004c-6.665.16-12.032 5.733-11.956 12.399.061 5.474 3.718 10.085 8.712 11.59a3.375 3.375 0 0 0-1.405-3.787 13.73 13.73 0 0 1-2.184-1.741l.092.74a.561.561 0 0 1-.497.627.561.561 0 0 1-.626-.497l-.313-2.527a3.382 3.382 0 0 1-.351-.786c-.114-.405-.015-.672.153-.848l-.145-1.168-.443-5.444c-.015-.183.198-.305.344-.19a3.49 3.49 0 0 1 1.145 1.465c.641 1.596.702 3.42.702 3.42l-.634.612.199 1.61c.137-.022.26.024.336.222.046.115.03.267-.008.405 1.153 1.779 3.207 2.855 4.604 3.42a.314.314 0 0 0 .42-.198.31.31 0 0 0-.153-.367c-2.137-1.107-3.649-3.718-3.649-6.757 0-4.046 2.657-7.322 5.932-7.322 3.276 0 5.933 3.276 5.933 7.322 0 3.047-1.505 5.65-3.65 6.757a.311.311 0 0 0-.153.367.319.319 0 0 0 .42.206c1.367-.55 3.383-1.596 4.551-3.321-.054-.176-.092-.367-.038-.512.068-.19.183-.244.313-.229l.213-1.596-.053-.053a2.52 2.52 0 0 1-.649-2.046l.557-2.528c.031-.144.161-.259.313-.244a.291.291 0 0 1 .268.344l-.405 2.428a.228.228 0 0 0 .198.26.227.227 0 0 0 .26-.2l.359-2.442a.287.287 0 0 1 .328-.245h.046c.16.023.267.168.252.321l-.29 2.45a.226.226 0 0 0 .198.26.228.228 0 0 0 .26-.198l.244-2.436c.015-.145.122-.267.267-.275a.293.293 0 0 1 .321.306l-.122 2.603a2.542 2.542 0 0 1-1.161 1.81l-.061.038-.145 1.061c.222.168.39.45.26.932-.084.305-.26.664-.527 1.061l-.305 2.268a.566.566 0 0 1-.665.48c-.297-.053-.488-.358-.45-.664l.069-.526a14.072 14.072 0 0 1-2.047 1.595A3.352 3.352 0 0 0 115.767 93c5.047-1.52 8.727-6.2 8.727-11.735.023-6.871-5.627-12.422-12.537-12.261Z" fill="#fff"/><circle cx="301" cy="146" r="20" fill="url('#paint0_radial_143_846')"/><path d="M300.377 151.243s.924-3.993-3.359-4.512c0-.008-1.023 4.459 3.359 4.512ZM302.141 151.243s-.924-3.993 3.359-4.512c-.007-.008 1.023 4.459-3.359 4.512Z" fill="#fff"/><path d="M300.957 134.004c-6.665.16-12.032 5.733-11.956 12.399.061 5.474 3.718 10.086 8.712 11.59a3.375 3.375 0 0 0-1.405-3.787 13.781 13.781 0 0 1-2.184-1.741l.092.741a.562.562 0 0 1-.497.626.562.562 0 0 1-.626-.497l-.313-2.527a3.38 3.38 0 0 1-.351-.786c-.114-.405-.015-.672.153-.848l-.145-1.168-.443-5.444c-.015-.183.198-.305.344-.19.503.381.908.878 1.145 1.465.641 1.596.702 3.421.702 3.421l-.634.611.199 1.611c.137-.023.26.023.336.221.046.115.03.267-.008.405 1.153 1.779 3.207 2.855 4.604 3.42a.314.314 0 0 0 .42-.198.31.31 0 0 0-.153-.367c-2.137-1.107-3.649-3.718-3.649-6.757 0-4.046 2.657-7.322 5.932-7.322 3.276 0 5.933 3.276 5.933 7.322 0 3.047-1.505 5.65-3.65 6.757a.312.312 0 0 0-.153.367.319.319 0 0 0 .42.206c1.367-.55 3.383-1.596 4.551-3.321-.054-.176-.092-.367-.038-.512.068-.191.183-.244.313-.229l.213-1.596-.053-.053a2.52 2.52 0 0 1-.649-2.046l.557-2.527c.031-.146.161-.26.313-.245a.291.291 0 0 1 .268.344l-.405 2.428a.227.227 0 0 0 .198.259.226.226 0 0 0 .26-.198l.359-2.443a.287.287 0 0 1 .328-.245h.046c.16.023.267.168.252.321l-.29 2.451a.225.225 0 0 0 .198.259.226.226 0 0 0 .26-.198l.244-2.436c.015-.145.122-.267.267-.275a.293.293 0 0 1 .321.306l-.122 2.603a2.543 2.543 0 0 1-1.161 1.81l-.061.038-.145 1.061c.222.168.39.451.26.932-.084.305-.26.664-.527 1.061l-.305 2.268a.566.566 0 0 1-.665.481c-.297-.054-.488-.359-.45-.665l.069-.526a14.07 14.07 0 0 1-2.047 1.595 3.352 3.352 0 0 0-1.374 3.764c5.047-1.519 8.727-6.199 8.727-11.735.023-6.871-5.627-12.422-12.537-12.261Z" fill="#fff"/><circle cx="277" cy="352" r="20" fill="#6A53AA"/><path d="M276.377 357.243s.924-3.993-3.359-4.512c0-.008-1.023 4.459 3.359 4.512ZM278.141 357.243s-.924-3.993 3.359-4.512c-.007-.008 1.023 4.459-3.359 4.512Z" fill="#fff"/><path d="M276.957 340.004c-6.665.16-12.032 5.733-11.956 12.399.061 5.474 3.718 10.086 8.712 11.59a3.375 3.375 0 0 0-1.405-3.787 13.781 13.781 0 0 1-2.184-1.741l.092.741a.562.562 0 0 1-.497.626.562.562 0 0 1-.626-.497l-.313-2.527a3.38 3.38 0 0 1-.351-.786c-.114-.405-.015-.672.153-.848l-.145-1.168-.443-5.444c-.015-.183.198-.305.344-.19.503.381.908.878 1.145 1.465.641 1.596.702 3.421.702 3.421l-.634.611.199 1.611c.137-.023.26.023.336.221.046.115.03.267-.008.405 1.153 1.779 3.207 2.855 4.604 3.42a.314.314 0 0 0 .42-.198.31.31 0 0 0-.153-.367c-2.137-1.107-3.649-3.718-3.649-6.757 0-4.046 2.657-7.322 5.932-7.322 3.276 0 5.933 3.276 5.933 7.322 0 3.047-1.505 5.65-3.65 6.757a.312.312 0 0 0-.153.367.319.319 0 0 0 .42.206c1.367-.55 3.383-1.596 4.551-3.321-.054-.176-.092-.367-.038-.512.068-.191.183-.244.313-.229l.213-1.596-.053-.053a2.52 2.52 0 0 1-.649-2.046l.557-2.527c.031-.146.161-.26.313-.245a.291.291 0 0 1 .268.344l-.405 2.428a.227.227 0 0 0 .198.259.226.226 0 0 0 .26-.198l.359-2.443a.287.287 0 0 1 .328-.245h.046c.16.023.267.168.252.321l-.29 2.451a.225.225 0 0 0 .198.259.226.226 0 0 0 .26-.198l.244-2.436c.015-.145.122-.267.267-.275a.293.293 0 0 1 .321.306l-.122 2.603a2.543 2.543 0 0 1-1.161 1.81l-.061.038-.145 1.061c.222.168.39.451.26.932-.084.305-.26.664-.527 1.061l-.305 2.268a.566.566 0 0 1-.665.481c-.297-.054-.488-.359-.45-.665l.069-.526a14.07 14.07 0 0 1-2.047 1.595 3.352 3.352 0 0 0-1.374 3.764c5.047-1.519 8.727-6.199 8.727-11.735.023-6.871-5.627-12.422-12.537-12.261Z" fill="#fff"/><circle cx="332" cy="417" r="20" fill="#6A53AA"/><path d="M331.377 422.243s.924-3.993-3.359-4.512c0-.008-1.023 4.459 3.359 4.512ZM333.141 422.243s-.924-3.993 3.359-4.512c-.007-.008 1.023 4.459-3.359 4.512Z" fill="#fff"/><path d="M331.957 405.004c-6.665.16-12.032 5.733-11.956 12.399.061 5.474 3.718 10.086 8.712 11.59a3.375 3.375 0 0 0-1.405-3.787 13.781 13.781 0 0 1-2.184-1.741l.092.741a.562.562 0 0 1-.497.626.562.562 0 0 1-.626-.497l-.313-2.527a3.38 3.38 0 0 1-.351-.786c-.114-.405-.015-.672.153-.848l-.145-1.168-.443-5.444c-.015-.183.198-.305.344-.19.503.381.908.878 1.145 1.465.641 1.596.702 3.421.702 3.421l-.634.611.199 1.611c.137-.023.26.023.336.221.046.115.03.267-.008.405 1.153 1.779 3.207 2.855 4.604 3.42a.314.314 0 0 0 .42-.198.31.31 0 0 0-.153-.367c-2.137-1.107-3.649-3.718-3.649-6.757 0-4.046 2.657-7.322 5.932-7.322 3.276 0 5.933 3.276 5.933 7.322 0 3.047-1.505 5.65-3.65 6.757a.312.312 0 0 0-.153.367.319.319 0 0 0 .42.206c1.367-.55 3.383-1.596 4.551-3.321-.054-.176-.092-.367-.038-.512.068-.191.183-.244.313-.229l.213-1.596-.053-.053a2.52 2.52 0 0 1-.649-2.046l.557-2.527c.031-.146.161-.26.313-.245a.291.291 0 0 1 .268.344l-.405 2.428a.227.227 0 0 0 .198.259.226.226 0 0 0 .26-.198l.359-2.443a.287.287 0 0 1 .328-.245h.046c.16.023.267.168.252.321l-.29 2.451a.225.225 0 0 0 .198.259.226.226 0 0 0 .26-.198l.244-2.436c.015-.145.122-.267.267-.275a.293.293 0 0 1 .321.306l-.122 2.603a2.543 2.543 0 0 1-1.161 1.81l-.061.038-.145 1.061c.222.168.39.451.26.932-.084.305-.26.664-.527 1.061l-.305 2.268a.566.566 0 0 1-.665.481c-.297-.054-.488-.359-.45-.665l.069-.526a14.07 14.07 0 0 1-2.047 1.595 3.352 3.352 0 0 0-1.374 3.764c5.047-1.519 8.727-6.199 8.727-11.735.023-6.871-5.627-12.422-12.537-12.261Z" fill="#fff"/><circle cx="257" cy="535" r="20" fill="#6A53AA"/><path d="M256.377 540.243s.924-3.993-3.359-4.512c0-.008-1.023 4.459 3.359 4.512ZM258.141 540.243s-.924-3.993 3.359-4.512c-.007-.008 1.023 4.459-3.359 4.512Z" fill="#fff"/><path d="M256.957 523.004c-6.665.16-12.032 5.733-11.956 12.399.061 5.474 3.718 10.086 8.712 11.59a3.375 3.375 0 0 0-1.405-3.787 13.781 13.781 0 0 1-2.184-1.741l.092.741a.562.562 0 0 1-.497.626.562.562 0 0 1-.626-.497l-.313-2.527a3.38 3.38 0 0 1-.351-.786c-.114-.405-.015-.672.153-.848l-.145-1.168-.443-5.444c-.015-.183.198-.305.344-.19.503.381.908.878 1.145 1.465.641 1.596.702 3.421.702 3.421l-.634.611.199 1.611c.137-.023.26.023.336.221.046.115.03.267-.008.405 1.153 1.779 3.207 2.855 4.604 3.42a.314.314 0 0 0 .42-.198.31.31 0 0 0-.153-.367c-2.137-1.107-3.649-3.718-3.649-6.757 0-4.046 2.657-7.322 5.932-7.322 3.276 0 5.933 3.276 5.933 7.322 0 3.047-1.505 5.65-3.65 6.757a.312.312 0 0 0-.153.367.319.319 0 0 0 .42.206c1.367-.55 3.383-1.596 4.551-3.321-.054-.176-.092-.367-.038-.512.068-.191.183-.244.313-.229l.213-1.596-.053-.053a2.52 2.52 0 0 1-.649-2.046l.557-2.527c.031-.146.161-.26.313-.245a.291.291 0 0 1 .268.344l-.405 2.428a.227.227 0 0 0 .198.259.226.226 0 0 0 .26-.198l.359-2.443a.287.287 0 0 1 .328-.245h.046c.16.023.267.168.252.321l-.29 2.451a.225.225 0 0 0 .198.259.226.226 0 0 0 .26-.198l.244-2.436c.015-.145.122-.267.267-.275a.293.293 0 0 1 .321.306l-.122 2.603a2.543 2.543 0 0 1-1.161 1.81l-.061.038-.145 1.061c.222.168.39.451.26.932-.084.305-.26.664-.527 1.061l-.305 2.268a.566.566 0 0 1-.665.481c-.297-.054-.488-.359-.45-.665l.069-.526a14.07 14.07 0 0 1-2.047 1.595 3.352 3.352 0 0 0-1.374 3.764c5.047-1.519 8.727-6.199 8.727-11.735.023-6.871-5.627-12.422-12.537-12.261Z" fill="#fff"/><defs><radialGradient id="paint0_radial_143_846" cx="0" cy="0" r="1" gradientUnits="userSpaceOnUse" gradientTransform="rotate(116.565 108.417 165.298) scale(22.3607)"><stop stop-color="#6B52A9"/><stop offset="1" stop-color="#6952A9"/></radialGradient></defs></svg>