<svg width="32" height="44" viewBox="0 0 32 44" fill="none" xmlns="http://www.w3.org/2000/svg">
<path d="M16.6689 43.6033C16.5915 43.6032 16.5161 43.5785 16.4536 43.5328C16.391 43.4872 16.3446 43.4229 16.3208 43.3493C16.297 43.2756 16.2972 43.1963 16.3212 43.1227C16.3453 43.0491 16.392 42.9851 16.4547 42.9397L20.5467 39.9865L14.4241 43.5234C14.3418 43.5711 14.2441 43.585 14.1517 43.562C14.0594 43.539 13.9796 43.481 13.9292 43.4002C13.8788 43.3195 13.8618 43.2223 13.8818 43.1292C13.9017 43.0362 13.9571 42.9545 14.0362 42.9015L16.1812 41.4635L12.7785 43.4281C12.6974 43.4739 12.6018 43.4871 12.5113 43.4649C12.4208 43.4428 12.342 43.3871 12.2912 43.309C12.2403 43.2309 12.221 43.1364 12.2373 43.0447C12.2536 42.9529 12.3042 42.8708 12.3789 42.815L17.7755 38.8667L10.3446 43.1538C10.2619 43.2 10.1646 43.2124 10.073 43.1885C9.98136 43.1645 9.90257 43.106 9.8531 43.0253C9.80363 42.9445 9.78731 42.8478 9.80757 42.7553C9.82784 42.6628 9.8831 42.5817 9.9618 42.529L10.1649 42.3963L9.18226 42.9639C9.0995 43.012 9.00121 43.0259 8.90837 43.0025C8.81554 42.9791 8.73553 42.9203 8.68545 42.8387C8.63537 42.7571 8.61918 42.6592 8.64035 42.5658C8.66151 42.4725 8.71836 42.3911 8.79873 42.3391L9.35826 41.9724L8.04926 42.7285C7.96685 42.7754 7.86948 42.7885 7.7776 42.7651C7.68571 42.7417 7.60645 42.6837 7.55644 42.6031C7.50644 42.5226 7.48959 42.4258 7.50941 42.3331C7.52924 42.2404 7.58422 42.1589 7.6628 42.1059L9.26366 41.0374L6.85979 42.4256C6.7777 42.4718 6.68099 42.4846 6.58971 42.4614C6.49842 42.4382 6.41957 42.3807 6.3695 42.3009C6.31943 42.2212 6.30198 42.1252 6.32076 42.0329C6.33955 41.9406 6.39313 41.8591 6.47039 41.8052L8.5846 40.3679L5.67766 42.0457C5.59674 42.0924 5.50104 42.1065 5.41011 42.085C5.31918 42.0635 5.23988 42.0082 5.1884 41.9302C5.13691 41.8522 5.11714 41.7576 5.13311 41.6655C5.14908 41.5734 5.19959 41.4909 5.27433 41.4349L9.26586 38.4436L4.16993 41.3857C4.08918 41.4327 3.99354 41.4471 3.90254 41.426C3.81154 41.4048 3.73205 41.3497 3.6803 41.2719C3.62854 41.1942 3.60842 41.0996 3.62405 41.0075C3.63968 40.9154 3.68988 40.8327 3.76439 40.7763L7.08126 38.2478L3.02006 40.5945C2.94056 40.6402 2.84681 40.6544 2.75731 40.6344C2.66781 40.6144 2.58906 40.5616 2.53658 40.4864C2.48411 40.4112 2.46172 40.319 2.47384 40.2281C2.48597 40.1372 2.53171 40.0542 2.60206 39.9953L5.54786 37.5519L2.29553 39.4292C2.21745 39.4733 2.12593 39.4873 2.03826 39.4685C1.95059 39.4496 1.87286 39.3994 1.81976 39.3271C1.76665 39.2549 1.74186 39.1657 1.75008 39.0764C1.75829 38.9871 1.79893 38.9039 1.86433 38.8425L2.80006 37.9823C2.71424 38.0222 2.61632 38.0274 2.52679 37.9967C2.43725 37.9661 2.36303 37.902 2.31966 37.8179C2.27628 37.7338 2.26709 37.6362 2.29403 37.5455C2.32097 37.4547 2.38194 37.3779 2.46419 37.3311L5.30586 35.6907C5.38395 35.646 5.47576 35.6315 5.5638 35.6501C5.65184 35.6687 5.72998 35.719 5.78333 35.7915C5.83668 35.8639 5.86152 35.9535 5.85313 36.0431C5.84473 36.1327 5.80368 36.2161 5.7378 36.2773L4.80793 37.1309L8.93293 34.7505C9.01243 34.7048 9.10618 34.6906 9.19568 34.7106C9.28518 34.7306 9.36393 34.7834 9.41641 34.8586C9.46888 34.9338 9.49127 35.026 9.47915 35.1169C9.46702 35.2078 9.42128 35.2908 9.35093 35.3497L6.40733 37.7917L11.6807 34.7469C11.7613 34.7013 11.8562 34.6878 11.9463 34.7093C12.0365 34.7308 12.1151 34.7856 12.1664 34.8627C12.2178 34.9398 12.2381 35.0334 12.2232 35.1249C12.2083 35.2163 12.1594 35.2987 12.0863 35.3555L8.76866 37.8855L14.2093 34.7447C14.2902 34.699 14.3854 34.6857 14.4756 34.7075C14.5659 34.7293 14.6446 34.7846 14.6957 34.8622C14.7468 34.9397 14.7666 35.0338 14.751 35.1254C14.7355 35.217 14.6857 35.2992 14.6119 35.3555L10.6189 38.3475L16.8661 34.7417C16.9482 34.6956 17.0449 34.6828 17.1362 34.706C17.2275 34.7292 17.3064 34.7866 17.3564 34.8664C17.4065 34.9462 17.4239 35.0422 17.4052 35.1345C17.3864 35.2268 17.3328 35.3083 17.2555 35.3621L15.1421 36.7987L18.709 34.7395C18.7915 34.6905 18.8899 34.6758 18.9831 34.6986C19.0764 34.7213 19.1569 34.7797 19.2076 34.8611C19.2583 34.9426 19.275 35.0407 19.2542 35.1344C19.2333 35.228 19.1766 35.3098 19.0962 35.3621L17.5012 36.4255L20.4257 34.7388C20.5086 34.6878 20.6083 34.6719 20.7029 34.6944C20.7975 34.717 20.8793 34.7762 20.9303 34.8591C20.9812 34.9419 20.9972 35.0416 20.9746 35.1362C20.9521 35.2309 20.8929 35.3126 20.81 35.3636L20.2431 35.7303L21.9694 34.7337C22.0521 34.6875 22.1494 34.6751 22.241 34.699C22.3326 34.723 22.4114 34.7815 22.4609 34.8622C22.5104 34.943 22.5267 35.0397 22.5064 35.1322C22.4862 35.2247 22.4309 35.3058 22.3522 35.3585L22.1586 35.4846L23.2652 34.8459C23.3462 34.8014 23.441 34.7891 23.5307 34.8115C23.6204 34.834 23.6983 34.8894 23.7488 34.9668C23.7993 35.0442 23.8187 35.1379 23.8032 35.229C23.7876 35.3201 23.7382 35.402 23.6649 35.4582L18.2661 39.4131L25.3061 35.3467C25.3884 35.299 25.4861 35.2852 25.5785 35.3082C25.6708 35.3311 25.7507 35.3891 25.801 35.4699C25.8514 35.5507 25.8684 35.6478 25.8484 35.7409C25.8285 35.834 25.7731 35.9156 25.694 35.9686L23.5424 37.4111L26.4581 35.7244C26.5395 35.6788 26.6351 35.6659 26.7256 35.6884C26.8161 35.7108 26.8947 35.7668 26.9453 35.8451C26.9959 35.9234 27.0148 36.018 26.9982 36.1098C26.9815 36.2015 26.9305 36.2835 26.8556 36.3389L22.7673 39.2921L27.8632 36.3499C27.9445 36.3037 28.0403 36.2903 28.1312 36.3124C28.222 36.3345 28.301 36.3904 28.3519 36.4688C28.4029 36.5472 28.422 36.6421 28.4053 36.7341C28.3886 36.8261 28.3374 36.9082 28.2621 36.9637L25.0413 39.3023L28.9214 37.062C29.0009 37.0171 29.0943 37.0034 29.1833 37.0237C29.2723 37.0439 29.3506 37.0967 29.4028 37.1716C29.455 37.2466 29.4773 37.3383 29.4655 37.4288C29.4536 37.5193 29.4084 37.6022 29.3387 37.6611L26.2491 40.2278L29.7134 38.2265C29.792 38.1812 29.8846 38.1665 29.9734 38.1855C30.0621 38.2044 30.1407 38.2556 30.1939 38.3292C30.247 38.4027 30.2711 38.4933 30.2613 38.5836C30.2515 38.6738 30.2086 38.7572 30.1409 38.8176L29.1011 39.7467L29.3387 39.6103C29.3804 39.5838 29.4271 39.566 29.4759 39.558C29.5247 39.5499 29.5746 39.5519 29.6226 39.5636C29.6706 39.5754 29.7158 39.5968 29.7554 39.6264C29.7949 39.6561 29.8281 39.6935 29.8528 39.7363C29.8776 39.7791 29.8934 39.8265 29.8994 39.8756C29.9053 39.9247 29.9013 39.9744 29.8875 40.0219C29.8738 40.0694 29.8505 40.1137 29.8192 40.1519C29.7879 40.1902 29.7492 40.2218 29.7053 40.2447L26.3753 42.1667C26.2967 42.2121 26.2041 42.2268 26.1153 42.2078C26.0266 42.1888 25.948 42.1376 25.8948 42.0641C25.8416 41.9906 25.8176 41.8999 25.8274 41.8097C25.8372 41.7195 25.88 41.6361 25.9477 41.5757L26.9861 40.6509L22.8736 43.0247C22.7941 43.0697 22.7007 43.0834 22.6117 43.0631C22.5227 43.0428 22.4444 42.9901 22.3922 42.9151C22.34 42.8402 22.3177 42.7485 22.3296 42.658C22.3414 42.5674 22.3866 42.4846 22.4563 42.4256L25.5466 39.8589L19.3257 43.4523C19.2445 43.4985 19.1486 43.5119 19.0578 43.4898C18.9669 43.4677 18.888 43.4118 18.837 43.3334C18.7861 43.255 18.767 43.1601 18.7837 43.0681C18.8004 42.9761 18.8516 42.894 18.9268 42.8385L22.1476 40.5006L16.8522 43.5579C16.7962 43.5891 16.7329 43.6048 16.6689 43.6033Z" fill="#BFDBF0"></path>
<path d="M16.2133 40.6641C16.137 40.6641 16.0627 40.6403 16.0006 40.5961C15.9385 40.5519 15.8918 40.4894 15.8668 40.4174C15.8419 40.3453 15.8401 40.2673 15.8615 40.1942C15.883 40.121 15.9267 40.0564 15.9867 40.0093L18.2857 38.2067L14.8793 40.1728C14.7978 40.2182 14.7021 40.2308 14.6116 40.2081C14.5211 40.1854 14.4427 40.129 14.3923 40.0505C14.3419 39.972 14.3234 39.8772 14.3404 39.7855C14.3575 39.6937 14.4088 39.612 14.4841 39.5568L18.4309 36.7577L13.8446 39.4057C13.7628 39.4514 13.6666 39.4641 13.5758 39.4411C13.4849 39.4181 13.4064 39.3612 13.3562 39.2821C13.3059 39.203 13.2879 39.1077 13.3058 39.0157C13.3237 38.9237 13.3761 38.8421 13.4523 38.7875L19.3057 34.7447L12.7461 38.5316C12.6638 38.5785 12.5667 38.5917 12.4749 38.5686C12.3832 38.5455 12.3039 38.4878 12.2537 38.4075C12.2035 38.3273 12.1862 38.2308 12.2056 38.1381C12.2249 38.0455 12.2793 37.9639 12.3574 37.9105L19.5683 33.0404L11.6615 37.6017C11.5787 37.6472 11.4816 37.6591 11.3904 37.6348C11.2992 37.6105 11.2208 37.5519 11.1717 37.4713C11.1225 37.3907 11.1064 37.2942 11.1266 37.202C11.1468 37.1098 11.2018 37.0289 11.2801 36.9762L15.6552 34.1734L10.9054 36.9153C10.8221 36.9656 10.7223 36.9808 10.6279 36.9574C10.5335 36.9341 10.4522 36.8743 10.402 36.791C10.3517 36.7078 10.3365 36.608 10.3598 36.5136C10.3832 36.4192 10.443 36.3379 10.5263 36.2876L13.4596 34.4411L10.2513 36.2927C10.1684 36.3365 10.0719 36.3468 9.98158 36.3216C9.8913 36.2963 9.81411 36.2375 9.76585 36.1572C9.7176 36.0768 9.70196 35.981 9.72213 35.8895C9.7423 35.798 9.79676 35.7176 9.87432 35.665L12.0061 34.3333L9.64846 35.6943C9.56551 35.7452 9.46575 35.761 9.37113 35.7383C9.27651 35.7156 9.19478 35.6563 9.14392 35.5733C9.09307 35.4904 9.07724 35.3906 9.09993 35.296C9.12263 35.2014 9.18197 35.1197 9.26493 35.0688L18.6648 28.9726L8.71272 34.7161C8.6298 34.7617 8.53245 34.7734 8.44104 34.7489C8.34963 34.7244 8.27125 34.6655 8.22228 34.5845C8.17331 34.5035 8.15755 34.4067 8.17829 34.3144C8.19904 34.2221 8.25469 34.1413 8.33359 34.0891L16.1209 29.1449L7.94859 33.8632C7.86534 33.9112 7.76657 33.9246 7.67354 33.9005C7.58051 33.8764 7.50065 33.8168 7.45115 33.7344C7.40165 33.652 7.38647 33.5535 7.40887 33.4601C7.43127 33.3666 7.48946 33.2857 7.57093 33.2347L14.0595 29.1655L7.28566 33.0734C7.20236 33.1203 7.10403 33.1329 7.01162 33.1083C6.91922 33.0838 6.84004 33.0242 6.79098 32.9421C6.74192 32.86 6.72685 32.7621 6.74898 32.6691C6.77111 32.576 6.82869 32.4954 6.90946 32.4442L11.517 29.5842L6.71586 32.3599C6.63256 32.4068 6.53423 32.4193 6.44182 32.3948C6.34941 32.3703 6.27024 32.3106 6.22118 32.2286C6.17212 32.1465 6.15705 32.0485 6.17918 31.9555C6.20131 31.8625 6.25889 31.7818 6.33966 31.7307L9.84866 29.5651L6.19666 31.6735C6.11379 31.7198 6.01618 31.7322 5.92438 31.708C5.83257 31.6838 5.75372 31.625 5.70441 31.5438C5.65511 31.4627 5.63919 31.3656 5.66002 31.273C5.68084 31.1804 5.73677 31.0994 5.81606 31.0472L16.5403 24.2331L5.45672 30.6321C5.37329 30.6821 5.27341 30.6969 5.17907 30.6733C5.08472 30.6496 5.00364 30.5894 4.95366 30.506C4.90367 30.4226 4.88888 30.3227 4.91254 30.2283C4.93619 30.134 4.99635 30.0529 5.07979 30.0029L10.7881 26.469L4.93972 29.8423C4.85665 29.8889 4.75872 29.9013 4.66666 29.8769C4.5746 29.8525 4.49563 29.7933 4.44647 29.7117C4.3973 29.6302 4.3818 29.5327 4.40324 29.4399C4.42467 29.3471 4.48137 29.2663 4.56132 29.2146L13.2682 23.7667L4.36626 28.9088C4.28323 28.9562 4.18496 28.9694 4.09239 28.9454C3.99981 28.9214 3.92027 28.8622 3.87072 28.7804C3.82117 28.6987 3.80553 28.6007 3.82714 28.5076C3.84875 28.4144 3.90589 28.3334 3.98639 28.2818L15.763 20.8018L3.72459 27.7538C3.64144 27.8043 3.54165 27.8196 3.44717 27.7965C3.35269 27.7734 3.27126 27.7137 3.22079 27.6306C3.17032 27.5474 3.15494 27.4477 3.17805 27.3532C3.20115 27.2587 3.26084 27.1773 3.34399 27.1268L15.3465 19.5067L3.13059 26.5555C3.04734 26.6 2.95014 26.6107 2.85922 26.5853C2.7683 26.56 2.69066 26.5005 2.64247 26.4193C2.59428 26.3382 2.57925 26.2415 2.60051 26.1496C2.62176 26.0576 2.67767 25.9774 2.75659 25.9256L3.00152 25.7789L2.82406 25.8816C2.74113 25.9272 2.64378 25.939 2.55237 25.9144C2.46096 25.8899 2.38258 25.831 2.33361 25.75C2.28464 25.669 2.26888 25.5723 2.28962 25.4799C2.31037 25.3876 2.36602 25.3068 2.44492 25.2546L13.8116 18.0679L2.34226 24.6892C2.25891 24.7353 2.1609 24.7471 2.06897 24.7222C1.97704 24.6973 1.89841 24.6376 1.84972 24.5558C1.80103 24.4739 1.7861 24.3763 1.80808 24.2837C1.83007 24.191 1.88725 24.1105 1.96752 24.0593L4.72412 22.3726L2.06286 23.9126C1.9796 23.9606 1.88084 23.974 1.7878 23.9499C1.69477 23.9258 1.61491 23.8662 1.56541 23.7838C1.51591 23.7014 1.50073 23.6029 1.52313 23.5095C1.54553 23.416 1.60372 23.3351 1.68519 23.2841L10.7426 17.6001L1.72259 22.8067C1.63956 22.8542 1.54129 22.8673 1.44872 22.8433C1.35615 22.8194 1.27661 22.7602 1.22705 22.6784C1.1775 22.5966 1.16187 22.4987 1.18347 22.4055C1.20508 22.3124 1.26223 22.2313 1.34272 22.1797L12.8627 14.8508L1.37426 21.4816C1.29106 21.5267 1.19365 21.5379 1.1024 21.5128C1.01114 21.4878 0.933101 21.4284 0.884607 21.3472C0.836113 21.2659 0.820917 21.169 0.842198 21.0768C0.863478 20.9846 0.919586 20.9042 0.998788 20.8524L4.35526 18.7859L1.19606 20.6067C1.11431 20.6435 1.02192 20.6491 0.936342 20.6224C0.850765 20.5957 0.777932 20.5386 0.731611 20.4618C0.68529 20.3851 0.668691 20.294 0.68495 20.2059C0.70121 20.1177 0.749202 20.0386 0.819855 19.9834L11.5038 13.1773L0.985588 19.2471C0.902339 19.2916 0.805137 19.3023 0.714216 19.2769C0.623295 19.2516 0.545659 19.1921 0.49747 19.1109C0.44928 19.0298 0.434249 18.9331 0.455506 18.8412C0.476763 18.7492 0.532669 18.669 0.611588 18.6172L0.852855 18.4705C0.768122 18.5054 0.673414 18.5072 0.587378 18.4757C0.501343 18.4442 0.430214 18.3817 0.387995 18.3004C0.345777 18.2191 0.335527 18.1249 0.359266 18.0364C0.383004 17.9479 0.439008 17.8715 0.516255 17.8223L10.5153 11.4181L0.819855 17.0134C0.737246 17.0604 0.63963 17.0734 0.547581 17.0498C0.455532 17.0262 0.37624 16.9678 0.326416 16.8869C0.276592 16.806 0.260128 16.7089 0.280494 16.6161C0.300859 16.5232 0.356464 16.442 0.435588 16.3893L11.3065 9.28993L0.846988 15.3267C0.764061 15.3723 0.666712 15.3841 0.575305 15.3596C0.483897 15.3351 0.40551 15.2761 0.35654 15.1952C0.30757 15.1142 0.29181 15.0174 0.312557 14.9251C0.333303 14.8327 0.388949 14.752 0.467855 14.6997L5.72072 11.3821L0.981922 14.1197C0.89937 14.1675 0.801412 14.1813 0.708852 14.1581C0.616292 14.1349 0.536424 14.0765 0.48621 13.9954C0.435997 13.9143 0.419395 13.8167 0.43993 13.7235C0.460465 13.6304 0.51652 13.5488 0.596188 13.4963L9.66753 7.48299L1.38085 12.268C1.29826 12.3128 1.20161 12.3242 1.11085 12.2999C1.02009 12.2755 0.942151 12.2172 0.893124 12.137C0.844098 12.0569 0.827726 11.9609 0.847389 11.869C0.867052 11.7771 0.921247 11.6963 0.998788 11.6432L5.43692 8.78319L1.85386 10.8534C1.7711 10.9015 1.6728 10.9154 1.57996 10.892C1.48713 10.8686 1.40712 10.8098 1.35704 10.7282C1.30696 10.6467 1.29077 10.5487 1.31194 10.4554C1.33311 10.362 1.38995 10.2806 1.47032 10.2286L4.97492 7.94719L2.53366 9.35666C2.4509 9.40479 2.3526 9.41864 2.25976 9.39525C2.16693 9.37187 2.08692 9.3131 2.03684 9.23151C1.98676 9.14992 1.97057 9.05198 1.99174 8.95862C2.01291 8.86525 2.06975 8.78387 2.15012 8.73186L3.35352 7.94866C3.27273 7.98951 3.17968 7.99903 3.09229 7.97538C3.00489 7.95173 2.92934 7.89658 2.88018 7.82056C2.83101 7.74454 2.81171 7.65301 2.82599 7.56361C2.84027 7.47421 2.88712 7.39325 2.95752 7.33633L6.49073 4.50053C6.4047 4.53697 6.30801 4.5392 6.2204 4.50676C6.13279 4.47432 6.06086 4.40967 6.01931 4.326C5.97775 4.24233 5.9697 4.14595 5.9968 4.05654C6.0239 3.96714 6.08411 3.89145 6.16512 3.84493L10.263 1.47919C10.3429 1.43477 10.4365 1.42178 10.5254 1.44278C10.6144 1.46378 10.6923 1.51724 10.7439 1.5927C10.7955 1.66815 10.817 1.76015 10.8043 1.85066C10.7916 1.94118 10.7455 2.02368 10.6751 2.08199L7.15512 4.90826L14.8302 0.475992C14.913 0.427866 15.0112 0.414016 15.1041 0.4374C15.1969 0.460785 15.2769 0.51955 15.327 0.601139C15.3771 0.682727 15.3933 0.780668 15.3721 0.874033C15.3509 0.967397 15.2941 1.04878 15.2137 1.10079L14.0323 1.87006L16.4787 0.457659C16.5615 0.409533 16.6598 0.395682 16.7526 0.419067C16.8455 0.442452 16.9255 0.501217 16.9755 0.582806C17.0256 0.664394 17.0418 0.762335 17.0206 0.855699C16.9995 0.949064 16.9426 1.03045 16.8623 1.08246L13.3533 3.36753L18.1199 0.615326C18.2025 0.57161 18.2985 0.561031 18.3886 0.585745C18.4787 0.610459 18.5559 0.668605 18.6045 0.748319C18.6532 0.828032 18.6696 0.923305 18.6504 1.0147C18.6312 1.10609 18.5779 1.18672 18.5013 1.24013L14.0551 4.10673L19.5859 0.912326C19.6684 0.864462 19.7664 0.850666 19.8589 0.873868C19.9515 0.89707 20.0314 0.955441 20.0816 1.03658C20.1318 1.11773 20.1484 1.21525 20.1279 1.30844C20.1073 1.40163 20.0513 1.48314 19.9716 1.53566L10.9047 7.54459L21.3767 1.49899C21.4596 1.45339 21.5569 1.44162 21.6483 1.46614C21.7398 1.49066 21.8181 1.54957 21.8671 1.63056C21.9161 1.71154 21.9318 1.80832 21.9111 1.90066C21.8903 1.993 21.8347 2.07374 21.7558 2.12599L16.5132 5.43919L22.4884 1.99253C22.5709 1.94707 22.6678 1.93514 22.7589 1.95919C22.85 1.98325 22.9283 2.04145 22.9777 2.12172C23.027 2.202 23.0435 2.29818 23.0239 2.39032C23.0042 2.48246 22.9498 2.56349 22.8719 2.61659L11.9966 9.72039L23.9433 2.82706C24.0261 2.78156 24.1231 2.76973 24.2144 2.79402C24.3056 2.81832 24.384 2.87687 24.4331 2.95749C24.4823 3.0381 24.4984 3.13457 24.4782 3.22679C24.458 3.31902 24.403 3.3999 24.3247 3.45259L14.3235 9.84946L25.0807 3.63886C25.1641 3.59278 25.2621 3.58093 25.354 3.60584C25.4459 3.63074 25.5246 3.69044 25.5733 3.77229C25.622 3.85414 25.6369 3.95173 25.6149 4.04439C25.5929 4.13706 25.5357 4.21754 25.4555 4.26879L25.3359 4.34213L25.6872 4.13973C25.7701 4.0934 25.8677 4.08103 25.9595 4.10521C26.0513 4.12939 26.1301 4.18823 26.1794 4.26936C26.2287 4.35049 26.2447 4.44758 26.2238 4.54021C26.203 4.63283 26.1471 4.71377 26.0678 4.76599L15.3809 11.5735L26.6596 5.06006C26.701 5.03541 26.7468 5.01914 26.7944 5.01219C26.8421 5.00524 26.8906 5.00775 26.9373 5.01956C26.984 5.03138 27.0279 5.05227 27.0665 5.08105C27.1051 5.10983 27.1376 5.14593 27.1623 5.18729C27.187 5.22865 27.2032 5.27447 27.2102 5.32212C27.2171 5.36976 27.2146 5.41831 27.2028 5.46499C27.191 5.51167 27.1701 5.55557 27.1413 5.59417C27.1125 5.63278 27.0764 5.66534 27.0351 5.68999L23.6581 7.77339L27.2419 5.70099C27.283 5.676 27.3287 5.65937 27.3763 5.65203C27.4239 5.6447 27.4725 5.64681 27.5193 5.65825C27.5661 5.66969 27.6101 5.69024 27.649 5.71871C27.6878 5.74718 27.7207 5.78302 27.7457 5.82419C27.7707 5.86536 27.7873 5.91105 27.7946 5.95865C27.802 6.00625 27.7998 6.05483 27.7884 6.10161C27.777 6.14839 27.7564 6.19246 27.728 6.2313C27.6995 6.27015 27.6636 6.303 27.6225 6.32799L16.1128 13.6496L28.0727 6.74673C28.1561 6.69655 28.2559 6.68153 28.3503 6.70498C28.4448 6.72843 28.526 6.78842 28.5762 6.87176C28.6263 6.9551 28.6414 7.05496 28.6179 7.14937C28.5945 7.24378 28.5345 7.32501 28.4511 7.37519L19.3842 13.0534L28.6975 7.67659C28.7809 7.63051 28.8789 7.61867 28.9708 7.64357C29.0627 7.66847 29.1414 7.72817 29.1901 7.81002C29.2388 7.89187 29.2537 7.98946 29.2317 8.08213C29.2097 8.1748 29.1525 8.25527 29.0723 8.30653L26.3186 9.99319L29.1148 8.37986C29.1977 8.33426 29.2951 8.32248 29.3865 8.347C29.4779 8.37152 29.5563 8.43044 29.6052 8.51142C29.6542 8.59241 29.67 8.68919 29.6492 8.78153C29.6285 8.87387 29.5728 8.95461 29.4939 9.00686L18.1273 16.1935L29.6905 9.52019C29.774 9.47259 29.8729 9.4597 29.9658 9.48431C30.0588 9.50891 30.1383 9.56904 30.1874 9.65174C30.2364 9.73444 30.251 9.83309 30.228 9.92644C30.205 10.0198 30.1463 10.1004 30.0645 10.1509L29.8159 10.3027L29.9845 10.2051C30.0677 10.1547 30.1675 10.1393 30.262 10.1624C30.3564 10.1855 30.4379 10.2452 30.4883 10.3283C30.5388 10.4115 30.5542 10.5113 30.5311 10.6057C30.508 10.7002 30.4483 10.7817 30.3651 10.8321L18.3597 18.4588L30.4509 11.4767C30.534 11.4293 30.6322 11.4161 30.7248 11.4401C30.8174 11.4641 30.8969 11.5233 30.9465 11.6051C30.996 11.6869 31.0117 11.7848 30.9901 11.8779C30.9684 11.9711 30.9113 12.0521 30.8308 12.1037L19.0593 19.5801L30.7993 12.8026C30.8825 12.7546 30.9813 12.7412 31.0743 12.7653C31.1674 12.7894 31.2472 12.849 31.2967 12.9314C31.3462 13.0137 31.3614 13.1123 31.339 13.2057C31.3166 13.2992 31.2584 13.3801 31.1769 13.4311L22.4627 18.8812L31.0141 13.9451C31.0972 13.9008 31.1941 13.8901 31.2848 13.9152C31.3756 13.9404 31.4531 13.9994 31.5015 14.0802C31.5498 14.161 31.5653 14.2573 31.5446 14.3491C31.5239 14.441 31.4687 14.5214 31.3903 14.5736L25.6872 18.1046L31.13 14.9601C31.213 14.9126 31.3113 14.8995 31.4039 14.9235C31.4964 14.9474 31.576 15.0066 31.6255 15.0884C31.6751 15.1702 31.6907 15.2681 31.6691 15.3613C31.6475 15.4544 31.5904 15.5354 31.5099 15.5871L20.7893 22.4019L31.1945 16.3945C31.2359 16.3698 31.2817 16.3535 31.3294 16.3466C31.377 16.3396 31.4256 16.3421 31.4722 16.354C31.5189 16.3658 31.5628 16.3867 31.6014 16.4155C31.64 16.4442 31.6726 16.4803 31.6972 16.5217C31.7219 16.5631 31.7382 16.6089 31.7451 16.6565C31.7521 16.7042 31.7495 16.7527 31.7377 16.7994C31.7259 16.8461 31.705 16.89 31.6762 16.9286C31.6475 16.9672 31.6114 16.9997 31.57 17.0244L28.05 19.1951L31.1557 17.4013C31.2391 17.3513 31.339 17.3366 31.4333 17.3602C31.5277 17.3839 31.6088 17.444 31.6587 17.5275C31.7087 17.6109 31.7235 17.7108 31.6999 17.8051C31.6762 17.8995 31.616 17.9805 31.5326 18.0305L26.9324 20.8847L31.0486 18.5079C31.1319 18.4578 31.2318 18.4427 31.3262 18.4662C31.373 18.4778 31.417 18.4985 31.4557 18.5271C31.4945 18.5557 31.5272 18.5917 31.552 18.633C31.5769 18.6742 31.5934 18.72 31.6005 18.7676C31.6077 18.8152 31.6054 18.8638 31.5938 18.9106C31.5822 18.9573 31.5615 19.0013 31.5329 19.0401C31.5042 19.0788 31.4683 19.1115 31.427 19.1364L24.9355 23.2071L30.8543 19.7905C30.9372 19.7449 31.0345 19.7332 31.126 19.7577C31.2174 19.7822 31.2957 19.8411 31.3447 19.9221C31.3937 20.0031 31.4094 20.0999 31.3887 20.1922C31.368 20.2845 31.3123 20.3653 31.2334 20.4175L23.4461 25.3631L30.5411 21.2667C30.5822 21.2415 30.6278 21.2247 30.6754 21.2171C30.723 21.2096 30.7716 21.2115 30.8185 21.2227C30.8653 21.234 30.9095 21.2543 30.9485 21.2826C30.9875 21.3109 31.0205 21.3467 31.0457 21.3877C31.0709 21.4288 31.0877 21.4744 31.0952 21.522C31.1028 21.5696 31.1009 21.6182 31.0897 21.6651C31.0784 21.7119 31.0581 21.7561 31.0298 21.7951C31.0015 21.8341 30.9657 21.8671 30.9247 21.8923L21.5277 27.9877L30.0065 23.0913C30.0897 23.0455 30.1873 23.0337 30.2789 23.0584C30.3706 23.0832 30.4491 23.1425 30.4979 23.2238C30.5467 23.3052 30.562 23.4024 30.5407 23.4949C30.5194 23.5873 30.463 23.6679 30.3835 23.7197L28.2465 25.0551L29.5665 24.2947C29.6495 24.2491 29.7468 24.2373 29.8382 24.2618C29.9296 24.2863 30.008 24.3452 30.057 24.4262C30.106 24.5072 30.1217 24.604 30.101 24.6963C30.0802 24.7887 30.0246 24.8694 29.9457 24.9217L27.0123 26.7704L29.0026 25.6213C29.0855 25.5749 29.1831 25.5626 29.2749 25.5867C29.3667 25.6109 29.4455 25.6698 29.4948 25.7509C29.5441 25.832 29.5601 25.9291 29.5392 26.0217C29.5184 26.1144 29.4625 26.1953 29.3832 26.2475L25.0111 29.0496L28.2135 27.2009C28.2956 27.1547 28.3923 27.1419 28.4836 27.1651C28.5749 27.1883 28.6538 27.2458 28.7038 27.3255C28.7539 27.4053 28.7714 27.5013 28.7526 27.5936C28.7338 27.6859 28.6802 27.7674 28.6029 27.8213L21.3899 32.6921L26.796 29.571C26.8779 29.5247 26.9745 29.5117 27.0657 29.5347C27.1569 29.5576 27.2358 29.6147 27.2861 29.6942C27.3364 29.7737 27.3543 29.8695 27.3359 29.9618C27.3176 30.054 27.2645 30.1357 27.1876 30.1899L21.3334 34.2328L24.8805 32.1853C24.962 32.1399 25.0578 32.1273 25.1483 32.15C25.2387 32.1728 25.3172 32.2291 25.3675 32.3076C25.4179 32.3862 25.4365 32.4809 25.4194 32.5727C25.4024 32.6644 25.351 32.7462 25.2758 32.8013L21.3312 35.5983L22.3784 34.994C22.4587 34.9478 22.5535 34.9336 22.6438 34.9545C22.7341 34.9753 22.8131 35.0295 22.865 35.1062C22.917 35.183 22.9379 35.2765 22.9237 35.3681C22.9095 35.4596 22.8611 35.5424 22.7883 35.5997L18.6743 38.8301C18.6823 38.8409 18.6897 38.8521 18.6963 38.8638C18.7449 38.948 18.7581 39.0481 18.733 39.142C18.7078 39.236 18.6463 39.316 18.5621 39.3647L16.3966 40.6113C16.3413 40.6451 16.278 40.6633 16.2133 40.6641Z" fill="#3B2186"></path>
<path d="M17.3844 26.0114C17.3061 26.0115 17.2299 25.9866 17.1668 25.9402C17.1037 25.8938 17.0571 25.8285 17.0338 25.7538C17.0106 25.679 17.0118 25.5988 17.0374 25.5248C17.063 25.4508 17.1117 25.387 17.1762 25.3426L17.6037 25.0493L16.0219 25.9601C15.9418 26.0057 15.8474 26.0196 15.7576 25.9988C15.6678 25.978 15.5891 25.9241 15.5372 25.8479C15.4853 25.7717 15.464 25.6787 15.4776 25.5875C15.4912 25.4963 15.5386 25.4136 15.6105 25.3558L19.0645 22.6109L13.2624 25.9601C13.1823 26.0064 13.0878 26.0207 12.9976 26.0002C12.9075 25.9798 12.8284 25.926 12.7761 25.8497C12.7239 25.7734 12.7025 25.6802 12.7161 25.5887C12.7297 25.4973 12.7773 25.4143 12.8495 25.3565L16.3365 22.5699L10.4698 25.9579C10.3883 26.0033 10.2926 26.0159 10.2021 25.9932C10.1116 25.9704 10.0332 25.9141 9.98281 25.8356C9.93243 25.757 9.91387 25.6623 9.93092 25.5705C9.94796 25.4788 9.99933 25.397 10.0746 25.3419L11.8052 24.1179L8.77583 25.8662C8.69439 25.9122 8.59843 25.9254 8.50761 25.903C8.41679 25.8806 8.33796 25.8243 8.28726 25.7457C8.23657 25.6671 8.21784 25.572 8.23491 25.4801C8.25198 25.3881 8.30356 25.3061 8.37909 25.2509L10.1296 24.0043L7.68096 25.4181C7.60044 25.4634 7.50578 25.4767 7.41592 25.4552C7.32605 25.4337 7.24761 25.3791 7.19627 25.3023C7.14493 25.2255 7.12449 25.1321 7.13903 25.0409C7.15357 24.9496 7.20202 24.8673 7.27469 24.8102L9.74676 22.9087L6.77163 24.6261C6.69304 24.6715 6.60041 24.6861 6.51167 24.6672C6.42292 24.6482 6.34436 24.597 6.29117 24.5235C6.23798 24.45 6.21396 24.3593 6.22373 24.2691C6.23351 24.1789 6.27639 24.0955 6.34409 24.0351L8.71349 21.9267L6.11529 23.4227C6.03724 23.4662 5.94599 23.4797 5.85868 23.4607C5.77137 23.4417 5.69402 23.3914 5.64116 23.3194C5.58829 23.2473 5.56356 23.1585 5.5716 23.0695C5.57964 22.9805 5.6199 22.8975 5.68482 22.8361L6.77676 21.8424L5.93856 22.3257C5.86727 22.367 5.78415 22.3831 5.7026 22.3714C5.62104 22.3597 5.54581 22.3208 5.48902 22.2611C5.43214 22.2013 5.39713 22.1239 5.38968 22.0417C5.38223 21.9594 5.40276 21.8771 5.44796 21.8079L6.05296 20.8839C5.97588 20.9016 5.89518 20.8943 5.82254 20.863C5.74989 20.8318 5.68908 20.7782 5.64889 20.7101C5.60044 20.6261 5.58728 20.5262 5.6123 20.4325C5.63732 20.3387 5.69847 20.2587 5.78236 20.21L6.99896 19.5082C7.07033 19.467 7.15351 19.451 7.23509 19.4628C7.31666 19.4746 7.39186 19.5136 7.44856 19.5735C7.50526 19.6333 7.54014 19.7105 7.54758 19.7926C7.55502 19.8747 7.53458 19.9569 7.48956 20.0259L6.90289 20.9228L9.35663 19.5067C9.43468 19.4632 9.52593 19.4497 9.61324 19.4688C9.70055 19.4878 9.7779 19.538 9.83076 19.6101C9.88362 19.6821 9.90836 19.771 9.90032 19.86C9.89228 19.949 9.85201 20.032 9.78709 20.0934L8.69516 21.0871L11.4356 19.5067C11.5136 19.4654 11.6038 19.4536 11.6898 19.4734C11.7758 19.4932 11.8517 19.5434 11.9037 19.6147C11.9557 19.686 11.9802 19.7737 11.9727 19.8616C11.9653 19.9496 11.9264 20.0318 11.8632 20.0934L9.49083 22.2098L14.1842 19.5031C14.2647 19.4577 14.3593 19.4445 14.4492 19.466C14.5391 19.4874 14.6175 19.5421 14.6689 19.6189C14.7202 19.6957 14.7406 19.7891 14.7261 19.8803C14.7116 19.9715 14.6631 20.0539 14.5904 20.111L12.1132 22.014L16.4619 19.5067C16.5434 19.4602 16.6397 19.4467 16.7309 19.4691C16.8221 19.4915 16.9012 19.548 16.952 19.6269C17.0028 19.7059 17.0213 19.8014 17.0038 19.8936C16.9863 19.9858 16.9341 20.0678 16.8579 20.1227L15.106 21.3694L18.3326 19.5075C18.4141 19.4621 18.5099 19.4494 18.6004 19.4722C18.6908 19.4949 18.7693 19.5513 18.8196 19.6298C18.87 19.7083 18.8886 19.8031 18.8715 19.8948C18.8545 19.9865 18.8031 20.0683 18.7279 20.1235L16.9928 21.3474L20.1858 19.5067C20.2658 19.4604 20.3604 19.4461 20.4505 19.4666C20.5407 19.487 20.6198 19.5408 20.672 19.6171C20.7242 19.6934 20.7456 19.7866 20.732 19.8781C20.7184 19.9695 20.6708 20.0524 20.5986 20.1103L17.1131 22.8969L22.9798 19.5097C23.0599 19.464 23.1542 19.4502 23.2441 19.4709C23.3339 19.4917 23.4126 19.5456 23.4645 19.6218C23.5164 19.698 23.5377 19.791 23.5241 19.8822C23.5105 19.9734 23.463 20.0561 23.3912 20.1139L19.9364 22.8595L25.3631 19.726C25.445 19.6797 25.5416 19.6667 25.6328 19.6897C25.724 19.7126 25.8029 19.7697 25.8532 19.8492C25.9035 19.9287 25.9214 20.0245 25.903 20.1168C25.8847 20.209 25.8316 20.2907 25.7547 20.3449L25.3279 20.6383L25.9028 20.3068C25.9828 20.2622 26.0766 20.2491 26.1657 20.2701C26.2549 20.2911 26.3329 20.3448 26.3845 20.4205C26.4361 20.4961 26.4575 20.5884 26.4445 20.679C26.4315 20.7697 26.385 20.8522 26.3142 20.9103L23.8466 22.8749L26.0612 21.5967C26.1394 21.5484 26.2328 21.5312 26.323 21.5484C26.4133 21.5657 26.4937 21.6162 26.5485 21.69C26.6033 21.7637 26.6284 21.8554 26.6188 21.9468C26.6092 22.0381 26.5657 22.1226 26.4968 22.1834L24.8102 23.7967L25.6975 23.2834C25.7813 23.2396 25.8788 23.2298 25.9696 23.2561C26.0605 23.2825 26.1376 23.3429 26.1849 23.4248C26.2322 23.5067 26.2461 23.6037 26.2236 23.6955C26.2011 23.7874 26.144 23.867 26.0642 23.9177L22.5119 25.9601C22.4341 26.0184 22.3363 26.0435 22.24 26.0297C22.1438 26.016 22.0569 25.9645 21.9986 25.8867C21.9402 25.8089 21.9152 25.7111 21.9289 25.6149C21.9427 25.5186 21.9941 25.4317 22.0719 25.3734L23.7637 23.7601L19.9658 25.9601C19.8858 26.0047 19.792 26.0178 19.7029 25.9968C19.6137 25.9757 19.5357 25.9221 19.4841 25.8464C19.4325 25.7707 19.4111 25.6785 19.4241 25.5878C19.4371 25.4972 19.4836 25.4147 19.5544 25.3565L22.025 23.3875L17.5678 25.9601C17.5122 25.993 17.449 26.0107 17.3844 26.0114Z" fill="#D3B571"></path>
<path d="M15.129 20.1448C15.0558 20.1446 14.9843 20.1226 14.9237 20.0814C14.8631 20.0403 14.8162 19.982 14.7891 19.914C14.762 19.846 14.7558 19.7714 14.7714 19.6999C14.787 19.6284 14.8237 19.5631 14.8767 19.5126L15.6878 18.7382L13.3367 20.0934C13.2594 20.138 13.1685 20.1529 13.081 20.1352C12.9936 20.1176 12.9155 20.0686 12.8615 19.9976C12.8076 19.9265 12.7814 19.8382 12.7878 19.7492C12.7943 19.6602 12.833 19.5766 12.8967 19.5141L13.7657 18.6664L11.2929 20.0934C11.2165 20.1371 11.1269 20.1517 11.0405 20.1348C10.9541 20.1178 10.8767 20.0704 10.8225 20.001C10.7682 19.9317 10.7407 19.8452 10.7449 19.7573C10.7492 19.6694 10.7849 19.5859 10.8456 19.5222L11.8268 18.5036L9.07239 20.0934C8.99804 20.1365 8.91093 20.1521 8.82627 20.1375C8.7416 20.1229 8.66475 20.079 8.60913 20.0135C8.55351 19.948 8.52266 19.8651 8.52195 19.7792C8.52124 19.6933 8.55072 19.6098 8.60525 19.5434L9.69792 18.2139L6.72132 19.9321C6.64256 19.9777 6.54964 19.9925 6.46062 19.9734C6.37161 19.9543 6.29287 19.9028 6.23972 19.8289C6.18657 19.755 6.16282 19.664 6.17309 19.5735C6.18335 19.4831 6.2269 19.3997 6.29525 19.3396L6.64725 19.0286L6.11559 19.3352C6.04556 19.3756 5.96411 19.3918 5.88393 19.3812C5.80374 19.3706 5.72932 19.3337 5.67226 19.2764C5.61519 19.2191 5.57867 19.1445 5.5684 19.0643C5.55813 18.984 5.57467 18.9027 5.61545 18.8328L6.16252 17.9L6.14932 17.9074C6.06552 17.9512 5.96803 17.961 5.8772 17.9346C5.78637 17.9083 5.70924 17.8478 5.66191 17.766C5.61458 17.6841 5.60072 17.5871 5.62322 17.4952C5.64572 17.4034 5.70284 17.3238 5.78265 17.273L6.99779 16.572C7.06725 16.5315 7.14817 16.5154 7.22782 16.526C7.30748 16.5366 7.38134 16.5734 7.43779 16.6306C7.49482 16.688 7.53128 16.7626 7.5415 16.8429C7.55171 16.9231 7.5351 17.0045 7.49425 17.0743L6.94719 18.0071L9.43979 16.5734C9.51844 16.5286 9.6109 16.5145 9.69935 16.5337C9.78781 16.553 9.86602 16.6043 9.91891 16.6778C9.97181 16.7512 9.99565 16.8417 9.98586 16.9317C9.97606 17.0217 9.93332 17.1049 9.86585 17.1652L9.51385 17.4762L11.0788 16.5734C11.1531 16.5304 11.2402 16.5148 11.3249 16.5294C11.4096 16.544 11.4864 16.5879 11.542 16.6533C11.5977 16.7188 11.6285 16.8018 11.6292 16.8877C11.6299 16.9736 11.6005 17.057 11.5459 17.1234L10.4533 18.453L13.71 16.5734C13.7864 16.5298 13.876 16.5151 13.9624 16.5321C14.0488 16.549 14.1262 16.5965 14.1804 16.6658C14.2347 16.7351 14.2622 16.8216 14.258 16.9096C14.2538 16.9975 14.218 17.0809 14.1573 17.1447L13.1761 18.1633L15.9305 16.5734C16.0078 16.5288 16.0987 16.514 16.1862 16.5316C16.2737 16.5493 16.3517 16.5982 16.4057 16.6693C16.4597 16.7403 16.4859 16.8287 16.4794 16.9177C16.4729 17.0067 16.4342 17.0903 16.3705 17.1528L15.5008 18.0005L17.9743 16.5734C18.0519 16.5292 18.143 16.5148 18.2305 16.533C18.3179 16.5511 18.3958 16.6006 18.4493 16.6721C18.5029 16.7436 18.5285 16.8322 18.5214 16.9212C18.5143 17.0102 18.4749 17.0936 18.4107 17.1557L17.5996 17.9301L19.9507 16.5734C20.0259 16.5303 20.1141 16.5152 20.1994 16.5309C20.2847 16.5466 20.3617 16.592 20.4167 16.6592C20.4717 16.7263 20.5011 16.8107 20.4997 16.8975C20.4982 16.9842 20.4661 17.0677 20.409 17.133L19.3427 18.3415L22.4059 16.5734C22.4796 16.5309 22.5659 16.5153 22.6499 16.5295C22.7339 16.5436 22.8104 16.5865 22.8662 16.6509C22.9219 16.7153 22.9536 16.7971 22.9556 16.8822C22.9577 16.9674 22.93 17.0506 22.8774 17.1176L21.7818 18.5109L25.029 16.6372C25.1032 16.595 25.1899 16.58 25.274 16.5949C25.3582 16.6097 25.4345 16.6535 25.4898 16.7186C25.5451 16.7837 25.5759 16.8661 25.5769 16.9515C25.5779 17.037 25.5491 17.1201 25.4954 17.1865L24.4541 18.4603L25.9904 17.5737C26.0656 17.5305 26.1536 17.5154 26.2389 17.531C26.3242 17.5466 26.4012 17.5919 26.4563 17.6589C26.5113 17.7259 26.5408 17.8103 26.5396 17.897C26.5383 17.9837 26.5064 18.0671 26.4495 18.1325L26.1517 18.4735C26.216 18.4731 26.2791 18.49 26.3347 18.5222C26.3902 18.5544 26.4362 18.6009 26.4678 18.6568C26.5162 18.7409 26.5294 18.8407 26.5044 18.9345C26.4794 19.0282 26.4182 19.1082 26.3343 19.157L24.7056 20.0934C24.6305 20.1362 24.5427 20.151 24.4577 20.1353C24.3727 20.1196 24.296 20.0744 24.2411 20.0077C24.1862 19.9409 24.1566 19.8569 24.1576 19.7705C24.1586 19.6841 24.1901 19.6008 24.2465 19.5354L24.4438 19.3095L23.0842 20.0934C23.0099 20.1361 22.9231 20.1514 22.8387 20.1367C22.7543 20.122 22.6777 20.0783 22.6222 20.013C22.5667 19.9478 22.5358 19.8652 22.5349 19.7795C22.5339 19.6939 22.563 19.6106 22.6171 19.5442L23.6584 18.2704L20.4999 20.0934C20.4261 20.136 20.3398 20.1515 20.2558 20.1374C20.1719 20.1232 20.0954 20.0803 20.0396 20.0159C19.9838 19.9516 19.9522 19.8698 19.9502 19.7846C19.9481 19.6995 19.9758 19.6163 20.0284 19.5493L21.124 18.156L17.7683 20.0934C17.693 20.1366 17.6049 20.1516 17.5195 20.1359C17.4342 20.1202 17.3572 20.0748 17.3022 20.0077C17.2472 19.9406 17.2178 19.8561 17.2193 19.7694C17.2207 19.6826 17.2528 19.5992 17.3099 19.5339L18.3762 18.3254L15.3123 20.0934C15.2569 20.1267 15.1936 20.1444 15.129 20.1448Z" fill="#925C4C"></path>
<path d="M18.1025 17.2151C18.0218 17.2151 17.9433 17.1885 17.8793 17.1393C17.8153 17.0902 17.7692 17.0213 17.7483 16.9433C17.7274 16.8654 17.7329 16.7827 17.7637 16.7081C17.7946 16.6336 17.8493 16.5713 17.9192 16.5309L22.93 13.6401C23.0048 13.5973 23.0922 13.5821 23.1771 13.5973C23.2619 13.6125 23.3387 13.6571 23.3939 13.7233C23.4491 13.7894 23.4793 13.8729 23.479 13.9591C23.4788 14.0453 23.4483 14.1286 23.3928 14.1945L22.3067 15.4683L25.46 13.6504C25.5369 13.606 25.6273 13.5911 25.7144 13.6084C25.8015 13.6256 25.8794 13.6739 25.9336 13.7442C25.9878 13.8145 26.0146 13.9021 26.0091 13.9907C26.0036 14.0794 25.9662 14.163 25.9037 14.2261L24.9826 15.1545L26.0635 14.5304C26.1401 14.4862 26.23 14.4711 26.3168 14.488C26.4035 14.5048 26.4813 14.5524 26.5357 14.622C26.5902 14.6917 26.6176 14.7786 26.6131 14.8669C26.6085 14.9551 26.5722 15.0388 26.5109 15.1024L26.2549 15.3678C26.335 15.3696 26.4122 15.3975 26.4749 15.4472C26.5376 15.497 26.5823 15.5659 26.6022 15.6434C26.6221 15.721 26.616 15.8029 26.585 15.8767C26.5539 15.9505 26.4996 16.0121 26.4302 16.052L24.5067 17.1601C24.4302 17.2043 24.3404 17.2194 24.2537 17.2026C24.167 17.1859 24.0893 17.1384 24.0348 17.0689C23.9803 16.9994 23.9527 16.9126 23.9571 16.8244C23.9614 16.7362 23.9975 16.6526 24.0586 16.5888L24.1818 16.4612L22.9667 17.1601C22.8898 17.2019 22.8006 17.2148 22.7151 17.1965C22.6296 17.1783 22.5534 17.1301 22.5003 17.0606C22.4472 16.9911 22.4207 16.905 22.4255 16.8176C22.4303 16.7303 22.4662 16.6476 22.5267 16.5844L23.4485 15.656L20.84 17.1601C20.7653 17.203 20.6778 17.2181 20.593 17.2029C20.5081 17.1877 20.4314 17.1431 20.3762 17.077C20.3209 17.0108 20.2908 16.9273 20.291 16.8411C20.2912 16.755 20.3218 16.6716 20.3773 16.6057L21.4604 15.3305L18.2844 17.1638C18.2293 17.1965 18.1666 17.2142 18.1025 17.2151Z" fill="#F9D990"></path>
<path d="M12.9282 21.6004C12.8539 21.6004 12.7813 21.5778 12.7201 21.5357C12.659 21.4935 12.612 21.4338 12.5856 21.3644C12.5591 21.295 12.5543 21.2191 12.5719 21.147C12.5895 21.0748 12.6285 21.0096 12.684 20.9602L13.3227 20.3889L12.1912 21.0416C12.1105 21.0882 12.0152 21.1023 11.9244 21.0811C11.8337 21.06 11.7545 21.0051 11.7028 20.9276C11.6511 20.8502 11.6308 20.7559 11.646 20.664C11.6613 20.5721 11.7109 20.4895 11.7849 20.4329L16.1365 17.1065L11.2393 19.9335C11.1588 19.9804 11.0635 19.9949 10.9727 19.9741C10.8819 19.9532 10.8025 19.8986 10.7505 19.8214C10.6985 19.7441 10.6778 19.6499 10.6928 19.5579C10.7077 19.466 10.7571 19.3832 10.8308 19.3263L13.9013 16.94L10.4026 18.9596C10.3217 19.007 10.2258 19.0217 10.1345 19.0006C10.0431 18.9794 9.96338 18.9241 9.91156 18.846C9.85974 18.7679 9.8398 18.673 9.85583 18.5806C9.87186 18.4883 9.92265 18.4056 9.99776 18.3495L11.4806 17.2282L9.76676 18.2175C9.68946 18.2621 9.59855 18.2769 9.51107 18.2593C9.4236 18.2416 9.34556 18.1927 9.29158 18.1216C9.23761 18.0506 9.2114 17.9623 9.21788 17.8733C9.22436 17.7843 9.26307 17.7007 9.32676 17.6382L11.2789 15.7315L8.65943 17.2444C8.58517 17.2866 8.49849 17.3016 8.41437 17.2867C8.33024 17.2719 8.25394 17.2281 8.19865 17.163C8.14335 17.0979 8.11253 17.0155 8.1115 16.9301C8.11048 16.8446 8.13931 16.7615 8.19303 16.6951L9.35316 15.2776L6.27903 17.0522C6.202 17.095 6.11214 17.1087 6.02588 17.0906C5.93962 17.0726 5.86275 17.0241 5.80932 16.954C5.75589 16.884 5.72949 16.797 5.73495 16.709C5.7404 16.6211 5.77735 16.538 5.83903 16.4751L6.64056 15.675L5.94023 16.0798C5.87204 16.1198 5.79276 16.1366 5.71421 16.1279C5.63566 16.1191 5.56204 16.0852 5.50433 16.0312C5.44661 15.9772 5.4079 15.906 5.39394 15.8282C5.37999 15.7504 5.39155 15.6702 5.42689 15.5995L5.81483 14.8134C5.74664 14.8198 5.67807 14.8059 5.61778 14.7734C5.55749 14.7409 5.50816 14.6913 5.47603 14.6308C5.45198 14.589 5.4364 14.543 5.43017 14.4952C5.42394 14.4474 5.42718 14.3989 5.43971 14.3524C5.45224 14.3059 5.47382 14.2623 5.5032 14.2241C5.53258 14.1859 5.5692 14.1539 5.61096 14.1299L6.46676 13.64C6.53495 13.6001 6.61423 13.5832 6.69278 13.592C6.77133 13.6007 6.84495 13.6347 6.90266 13.6887C6.96037 13.7427 6.99909 13.8139 7.01305 13.8917C7.027 13.9695 7.01544 14.0497 6.98009 14.1204L6.6237 14.842L8.70636 13.6408C8.78339 13.598 8.87325 13.5843 8.95951 13.6024C9.04576 13.6204 9.12264 13.6689 9.17607 13.739C9.2295 13.809 9.2559 13.896 9.25044 13.984C9.24499 14.0719 9.20804 14.155 9.14636 14.2179L8.34483 15.0172L10.7267 13.64C10.801 13.5978 10.8876 13.5828 10.9718 13.5977C11.0559 13.6125 11.1322 13.6563 11.1875 13.7214C11.2428 13.7865 11.2736 13.8689 11.2746 13.9543C11.2756 14.0398 11.2468 14.1229 11.1931 14.1893L10.033 15.6061L13.44 13.64C13.5173 13.5955 13.6082 13.5806 13.6957 13.5982C13.7832 13.6159 13.8612 13.6648 13.9152 13.7359C13.9692 13.807 13.9954 13.8953 13.9889 13.9843C13.9824 14.0733 13.9437 14.1569 13.88 14.2194L11.9286 16.126L16.2333 13.6422C16.314 13.5963 16.4092 13.5827 16.4995 13.6042C16.5899 13.6257 16.6687 13.6806 16.7201 13.758C16.7715 13.8354 16.7916 13.9294 16.7764 14.021C16.7612 14.1126 16.7117 14.195 16.6381 14.2516L15.159 15.37L18.1524 13.64C18.2328 13.5953 18.327 13.5823 18.4164 13.6037C18.5058 13.6252 18.5839 13.6794 18.6352 13.7557C18.6866 13.832 18.7073 13.9249 18.6934 14.0158C18.6795 14.1067 18.6319 14.189 18.5602 14.2465L15.4868 16.6342L20.678 13.64C20.7587 13.5934 20.854 13.5793 20.9447 13.6005C21.0354 13.6216 21.1147 13.6765 21.1664 13.754C21.2181 13.8314 21.2384 13.9257 21.2232 14.0176C21.2079 14.1095 21.1583 14.1921 21.0843 14.2487L16.2582 17.9381C16.3275 17.9478 16.3925 17.9771 16.4457 18.0225C16.4989 18.0679 16.5379 18.1276 16.5583 18.1945C16.5786 18.2615 16.5794 18.3328 16.5606 18.4001C16.5417 18.4675 16.504 18.528 16.4518 18.5746L14.7168 20.1249C14.7309 20.1418 14.7434 20.16 14.7542 20.1792C14.8025 20.2633 14.8156 20.3632 14.7904 20.457C14.7653 20.5507 14.704 20.6307 14.62 20.6793L13.1115 21.5512C13.0558 21.5836 12.9926 21.6006 12.9282 21.6004Z" fill="#F9D990"></path>
<path d="M8.75597 14.2781C8.67767 14.2779 8.60146 14.2528 8.53851 14.2062C8.47556 14.1596 8.42918 14.0941 8.40614 14.0193C8.38311 13.9444 8.38464 13.8642 8.41051 13.7903C8.43638 13.7164 8.48523 13.6527 8.54991 13.6085L11.1122 11.8625L7.07884 14.1923C6.99757 14.2385 6.90172 14.2519 6.81088 14.2298C6.72003 14.2077 6.64106 14.1518 6.59011 14.0734C6.53916 13.995 6.52008 13.9001 6.53677 13.8081C6.55347 13.7161 6.60467 13.634 6.67991 13.5785L11.0337 10.409L6.03677 13.2939C5.95568 13.3404 5.85991 13.3541 5.76903 13.3323C5.67815 13.3105 5.59902 13.2549 5.54781 13.1767C5.4966 13.0985 5.47717 13.0037 5.49349 12.9117C5.50982 12.8197 5.56066 12.7374 5.63564 12.6816L9.00017 10.1971L6.00671 11.9241C5.92509 11.9699 5.82903 11.9828 5.73821 11.9601C5.64739 11.9374 5.56869 11.8809 5.51824 11.802C5.4678 11.7231 5.44942 11.628 5.46689 11.536C5.48435 11.444 5.53633 11.3622 5.61217 11.3073L6.18637 10.9018C6.11421 10.9227 6.03744 10.9212 5.96611 10.8977C5.89479 10.8741 5.83225 10.8295 5.78671 10.7698C5.73278 10.6975 5.70737 10.6079 5.71535 10.5181C5.72334 10.4283 5.76414 10.3445 5.82997 10.2829L7.56651 8.64608C7.48258 8.65651 7.39762 8.6376 7.32603 8.59256C7.25444 8.54752 7.20063 8.47912 7.1737 8.39895C7.14678 8.31877 7.14839 8.23175 7.17828 8.15263C7.20817 8.07351 7.26449 8.00716 7.33771 7.96481L9.83984 6.52014C9.91797 6.47339 10.0107 6.45738 10.1 6.47522C10.1893 6.49306 10.2687 6.54348 10.3229 6.61667C10.377 6.68985 10.402 6.78057 10.393 6.87117C10.3839 6.96177 10.3415 7.04576 10.274 7.10681L8.62397 8.65928L12.6998 6.30674C12.7813 6.26233 12.8766 6.25045 12.9664 6.27349C13.0563 6.29653 13.1341 6.35278 13.1841 6.43091C13.2342 6.50904 13.2527 6.60323 13.2361 6.6945C13.2194 6.78577 13.1688 6.86733 13.0944 6.92274L12.6111 7.26448L14.2736 6.30674C14.3546 6.26132 14.4499 6.24836 14.5401 6.27049C14.6304 6.29262 14.7089 6.34818 14.7597 6.42594C14.8106 6.5037 14.83 6.59787 14.8141 6.68941C14.7982 6.78095 14.7481 6.86304 14.674 6.91908L11.3065 9.40214L16.6745 6.30674C16.7558 6.26052 16.8516 6.24708 16.9425 6.26918C17.0333 6.29128 17.1123 6.34725 17.1632 6.42564C17.2142 6.50403 17.2333 6.59892 17.2166 6.69092C17.1999 6.78291 17.1487 6.86505 17.0734 6.92054L12.7196 10.0893L19.272 6.30674C19.3539 6.26224 19.4497 6.25061 19.5399 6.27422C19.6301 6.29784 19.7079 6.35491 19.7575 6.43385C19.8071 6.51278 19.8247 6.60764 19.8069 6.69914C19.789 6.79064 19.737 6.87191 19.6614 6.92641L17.0947 8.67394L21.0782 6.37494C21.1603 6.32726 21.2578 6.31333 21.35 6.33607C21.4422 6.35882 21.5221 6.41647 21.5726 6.49688C21.6232 6.5773 21.6406 6.6742 21.6211 6.76718C21.6017 6.86015 21.5469 6.94195 21.4683 6.99534L18.9515 8.71134L22.3879 6.73134C22.4693 6.6833 22.5662 6.66856 22.6582 6.6902C22.7502 6.71184 22.8303 6.76818 22.8818 6.84748C22.9333 6.92677 22.9521 7.02289 22.9344 7.11575C22.9167 7.20862 22.8639 7.29107 22.7868 7.34588L19.0322 10.068L23.6302 7.41334C23.7119 7.36871 23.8076 7.35685 23.8977 7.38017C23.9879 7.4035 24.0658 7.46026 24.1157 7.53894C24.1655 7.61762 24.1835 7.71231 24.1661 7.8038C24.1487 7.89529 24.0971 7.97671 24.0218 8.03154L22.4532 9.11468L24.3525 8.01908C24.4326 7.97422 24.5266 7.96103 24.6159 7.98209C24.7052 8.00316 24.7834 8.05696 24.835 8.13287C24.8866 8.20878 24.9078 8.30127 24.8945 8.39208C24.8812 8.48289 24.8344 8.56541 24.7632 8.62334L21.6296 11.1108L25.1768 9.06334C25.2566 9.01669 25.3512 9.00195 25.4415 9.02207C25.5318 9.04219 25.6111 9.09569 25.6636 9.17184C25.7161 9.24799 25.7379 9.34117 25.7246 9.4327C25.7113 9.52424 25.6639 9.60736 25.5918 9.66541L23.5664 11.3169L25.6886 10.0922C25.7658 10.0488 25.856 10.0348 25.9426 10.0527C26.0293 10.0706 26.1065 10.1193 26.1601 10.1897C26.2137 10.2601 26.24 10.3475 26.2343 10.4358C26.2285 10.5241 26.191 10.6073 26.1286 10.6701L24.6092 12.1734L26.0025 11.3667C26.0806 11.32 26.1734 11.304 26.2626 11.3218C26.3519 11.3397 26.4314 11.3901 26.4855 11.4633C26.5397 11.5365 26.5647 11.6272 26.5557 11.7178C26.5466 11.8084 26.5042 11.8924 26.4366 11.9534L26.2298 12.1477C26.2943 12.1528 26.3569 12.1718 26.4132 12.2034C26.4696 12.2351 26.5184 12.2787 26.5562 12.3311C26.6049 12.4152 26.6181 12.5152 26.5931 12.6091C26.5681 12.7031 26.5068 12.7832 26.4227 12.8319L24.0027 14.2253C23.9246 14.2728 23.8315 14.2894 23.7418 14.2718C23.652 14.2543 23.5721 14.2038 23.5176 14.1303C23.4632 14.0569 23.4381 13.9657 23.4474 13.8747C23.4567 13.7838 23.4997 13.6996 23.5678 13.6386L23.6324 13.5785L22.5155 14.2231C22.4384 14.2664 22.3482 14.2805 22.2615 14.2626C22.1749 14.2446 22.0977 14.196 22.0441 14.1256C21.9905 14.0552 21.9641 13.9678 21.9699 13.8795C21.9757 13.7912 22.0132 13.708 22.0755 13.6452L23.5957 12.1397L19.9884 14.2267C19.9087 14.2723 19.8147 14.2863 19.7252 14.2659C19.6356 14.2455 19.557 14.1922 19.5048 14.1166C19.4527 14.0411 19.4308 13.9486 19.4434 13.8577C19.4561 13.7667 19.5025 13.6838 19.5734 13.6254L21.5988 11.9732L17.6953 14.2267C17.6152 14.2724 17.5208 14.2862 17.431 14.2655C17.3412 14.2447 17.2625 14.1908 17.2106 14.1146C17.1587 14.0384 17.1374 13.9454 17.151 13.8542C17.1646 13.763 17.212 13.6803 17.2839 13.6225L20.4167 11.1357L15.0612 14.2267C14.9794 14.2714 14.8838 14.2832 14.7936 14.2599C14.7034 14.2366 14.6255 14.1798 14.5757 14.1011C14.5258 14.0225 14.5078 13.9278 14.5253 13.8363C14.5427 13.7448 14.5943 13.6634 14.6696 13.6085L16.2382 12.5225L13.2865 14.2267C13.2051 14.2748 13.1083 14.2895 13.0162 14.2679C12.9242 14.2463 12.8441 14.1899 12.7926 14.1106C12.7411 14.0313 12.7223 13.9352 12.74 13.8423C12.7577 13.7495 12.8105 13.667 12.8876 13.6122L16.6437 10.8901L10.8606 14.2267C10.7787 14.2723 10.6823 14.2848 10.5915 14.2615C10.5006 14.2382 10.4221 14.181 10.3721 14.1017C10.3222 14.0223 10.3045 13.9268 10.3228 13.8348C10.3411 13.7428 10.394 13.6613 10.4705 13.6071L12.9873 11.8911L8.93931 14.2267C8.88378 14.2597 8.82054 14.2774 8.75597 14.2781Z" fill="#D3B571"></path>
<path d="M25.4253 19.1973C24.7998 19.8001 18.3926 19.5507 15.7196 19.5507L17.4664 17.5157C18.3237 16.7179 24.4067 17.3097 25.0931 17.251C25.274 17.3279 25.4327 17.449 25.5546 17.6031C25.6764 17.7573 25.7577 17.9397 25.7907 18.1334C25.8238 18.3271 25.8077 18.5261 25.7438 18.712C25.68 18.8979 25.5705 19.0647 25.4253 19.1973ZM25.7832 8.99952C25.1737 8.1147 24.3534 7.39569 23.3963 6.90749C22.4392 6.41928 21.3756 6.17727 20.3015 6.20332C17.4202 6.18352 14.5302 6.15052 11.6482 6.20332C10.4442 6.21498 9.26636 6.55531 8.24174 7.18756C7.21711 7.81981 6.38467 8.71995 5.8343 9.79078C5.2205 11.0235 4.86117 12.9243 5.79617 13.8241C5.58074 13.9925 5.41231 14.2136 5.30712 14.466C5.20192 14.7183 5.16351 14.9936 5.19557 15.2651C5.19557 16.0799 5.18237 16.8843 5.93917 17.1439C5.74482 17.3242 5.59442 17.5467 5.49955 17.7942C5.40468 18.0418 5.36787 18.3078 5.39196 18.5718C5.41604 18.8358 5.50037 19.0907 5.63847 19.317C5.77656 19.5433 5.96473 19.7349 6.1885 19.8771C5.7653 20.0816 5.43911 20.4439 5.2799 20.8861C5.04272 21.8586 5.15162 22.8833 5.5879 23.7843C7.0201 26.6384 10.9882 25.9153 13.6142 25.9153C16.527 25.9153 19.4516 25.9887 22.3644 25.9153C24.4632 25.8596 26.5349 24.5073 26.771 22.2912C26.8649 21.4112 26.8927 20.3713 26.0648 19.8316C26.0266 19.8067 25.9856 19.7949 25.9467 19.7744C26.2547 19.5794 26.4856 19.2837 26.6001 18.9377C26.7249 18.6009 26.7365 18.2326 26.6333 17.8886C26.5301 17.5445 26.3177 17.2435 26.0281 17.031C26.2781 16.9185 26.4868 16.7309 26.6253 16.4944C26.7638 16.2578 26.8252 15.984 26.8011 15.711C26.8011 14.9403 26.8803 14.0647 26.2063 13.7207C27.2711 12.6068 26.639 10.2946 25.7832 8.99952ZM6.5163 10.7669C6.8855 9.5567 7.66637 8.51381 8.72364 7.81885C10.0011 6.99165 11.3842 6.99678 12.8303 6.99678H17.6336C18.9697 6.88857 20.314 6.94745 21.6354 7.17205C22.9787 7.53575 24.135 8.39326 24.8731 9.57298C25.3754 10.3672 26.5965 13.3951 24.8423 13.533C19.6657 13.533 7.39264 13.5535 7.25844 13.533C5.92597 13.3335 6.2369 11.6747 6.5163 10.7669ZM6.98124 17.2415C7.31415 17.1889 7.65478 17.2162 7.97507 17.3211C8.29535 17.4261 8.58611 17.6056 8.82337 17.845C9.30224 18.3649 9.75984 18.9061 10.2167 19.4488C9.76277 19.4488 7.6999 19.4539 7.28777 19.4488C6.24644 19.4371 5.45737 17.5003 6.97977 17.2415H6.98124ZM25.1679 20.2665C25.9174 20.7967 25.8279 22.036 25.6372 22.8141C25.4905 23.4621 25.1359 24.0445 24.6276 24.4724C24.1192 24.9002 23.4849 25.1502 22.8212 25.1842C20.5692 25.2766 9.84857 25.2744 9.0485 25.1175C8.41012 24.992 7.82004 24.6891 7.34595 24.2436C6.87186 23.798 6.53298 23.2278 6.36817 22.5985C5.84383 20.5151 6.62924 20.1785 7.1147 20.1469C8.3335 20.0699 9.58457 20.1616 10.8107 20.1506C10.884 20.2305 10.9522 20.3127 11.0241 20.3919C11.7156 21.1626 12.4299 21.8197 13.6047 21.464C14.2952 21.1648 14.8854 20.6739 15.3053 20.0494C17.5728 20.0494 24.5989 20.1227 24.8284 20.1037C24.9485 20.141 25.0624 20.1958 25.1665 20.2665H25.1679ZM25.1188 14.2957C25.7597 14.369 25.7311 14.8611 25.7311 15.4477C25.7311 15.6868 25.8081 16.3835 25.6526 16.5045C25.5412 16.5903 24.9971 16.5045 24.8599 16.5045H21.7542C20.2648 16.5045 17.9871 16.1019 16.7375 17.1307C16.682 17.1576 16.6322 17.195 16.5908 17.2407C16.1611 17.7409 14.3102 20.0971 13.7125 20.5935C12.8582 21.3034 12.2392 20.2269 11.7508 19.6607L9.91017 17.5165C9.70631 17.2258 9.4403 16.9842 9.13143 16.8091C8.82257 16.6341 8.4786 16.53 8.1245 16.5045C7.72997 16.4832 7.3281 16.5397 6.93504 16.5045C6.35424 16.4517 6.27504 16.1671 6.27504 15.6193C6.27504 15.458 6.15404 14.4108 6.28457 14.2993C6.31097 14.2671 25.077 14.2913 25.118 14.2957H25.1188Z" fill="#2A2A38"></path>
<path d="M19.8325 0.841856C16.1064 -0.00475234 12.2012 0.483127 8.79789 2.22045C5.39453 3.95778 2.70879 6.83436 1.20881 10.3488C-1.87119 17.8633 1.48454 26.5555 6.25047 32.5615C6.90021 33.3799 7.59614 34.1587 8.3126 34.9199C6.58949 35.2159 4.92682 35.7934 3.39121 36.6293C2.52367 37.1426 1.43687 37.9823 1.54101 39.1175C1.63634 40.1537 2.66667 40.8577 3.49681 41.3175C4.97626 42.0676 6.56013 42.591 8.19527 42.8699C12.7581 43.7587 17.441 43.8446 22.0333 43.1237C23.8879 42.8766 25.7043 42.3984 27.4401 41.7003C28.5336 41.3294 29.4925 40.6423 30.1953 39.7261C32.0403 36.7407 25.8026 35.2565 23.5953 34.8201C27.9073 30.2507 31.1537 24.6334 31.8438 18.3333C32.594 10.4764 27.6777 2.69792 19.8325 0.841856ZM27.6741 36.9263C28.4741 37.3663 29.5925 38.1355 29.4033 39.1996C29.2368 40.1397 28.1683 40.7227 27.391 41.0923C26.0006 41.7117 24.5352 42.1468 23.0321 42.3867C19.0545 43.0926 14.9916 43.1782 10.9878 42.6404C9.33862 42.448 7.71296 42.0903 6.13534 41.5727C5.01703 41.2657 3.98838 40.6957 3.13527 39.9102C0.698407 37.2856 6.86427 35.7764 8.76434 35.3943C9.98179 36.6495 11.2785 37.8253 12.6466 38.9143C13.5266 39.6117 14.5159 40.5761 15.6855 40.6347C17.0444 40.7029 18.0762 39.7496 19.0728 38.9591C20.46 37.8583 21.7778 36.6729 23.0189 35.4097C24.6395 35.6722 26.2098 36.1837 27.6741 36.9263ZM30.7797 18.4595C29.9804 25.7569 25.7197 32.0833 20.3899 36.9255C19.5138 37.7214 18.6057 38.4792 17.6655 39.1989C17.0576 39.6638 16.4636 40.205 15.6371 39.9014C15.1428 39.6663 14.6849 39.3613 14.2775 38.9957C12.2344 37.4448 10.3437 35.7029 8.63087 33.7935C3.87741 28.4834 0.256207 21.197 1.28214 13.8857C1.8047 10.1943 3.69043 6.83227 6.56799 4.46179C9.44555 2.09131 13.1064 0.884134 16.8295 1.07799C25.5731 1.64779 31.5842 10.0342 30.7797 18.4595Z" fill="#2A2A38"></path>
<path d="M16.5348 9.70208C16.5348 9.40642 16.2953 9.16675 15.9998 9.16675C15.7044 9.16675 15.4648 9.40642 15.4648 9.70208V10.0981C15.4648 10.3937 15.7044 10.6334 15.9998 10.6334C16.2953 10.6334 16.5348 10.3937 16.5348 10.0981V9.70208Z" fill="#2A2A38"></path>
<path d="M20.2152 9.30362C20.0061 9.09456 19.6673 9.09445 19.4584 9.30336C19.2494 9.51228 19.2496 9.85112 19.4586 10.0602L19.9476 10.5492C20.1567 10.7582 20.4955 10.7583 20.7044 10.5494C20.9133 10.3405 20.9132 10.0017 20.7042 9.79261L20.2152 9.30362Z" fill="#2A2A38"></path>
<path d="M11.5531 9.79337C11.3441 10.0024 11.344 10.3413 11.5529 10.5502C11.7618 10.7591 12.1006 10.759 12.3097 10.5499L12.7987 10.0609C13.0077 9.85188 13.0079 9.51304 12.7989 9.30413C12.59 9.09521 12.2512 9.09533 12.0421 9.30439L11.5531 9.79337Z" fill="#2A2A38"></path>
</svg>
