<svg width="32" height="44" fill="none" xmlns="http://www.w3.org/2000/svg"><path d="M16.669 43.603a.366.366 0 0 1-.214-.663l4.092-2.953-6.123 3.536a.367.367 0 0 1-.388-.622l2.145-1.438-3.403 1.965a.366.366 0 0 1-.4-.613l5.398-3.948-7.431 4.287a.367.367 0 0 1-.383-.625l.203-.133-.983.568a.367.367 0 0 1-.383-.625l.56-.367-1.31.756a.366.366 0 0 1-.386-.622l1.6-1.069-2.403 1.389a.367.367 0 0 1-.39-.62l2.115-1.438-2.907 1.678a.367.367 0 0 1-.404-.611l3.992-2.991-5.096 2.942a.367.367 0 0 1-.406-.61l3.317-2.528-4.06 2.346a.367.367 0 0 1-.419-.599l2.946-2.443-3.252 1.877a.367.367 0 0 1-.432-.587l.936-.86a.366.366 0 0 1-.336-.65l2.842-1.641a.367.367 0 0 1 .432.586l-.93.854 4.125-2.38a.367.367 0 0 1 .418.599l-2.944 2.442 5.274-3.045a.367.367 0 0 1 .405.608l-3.317 2.53 5.44-3.14a.366.366 0 0 1 .403.61l-3.993 2.992 6.247-3.605a.367.367 0 0 1 .39.62L15.142 36.8l3.567-2.06a.366.366 0 0 1 .387.623l-1.595 1.063 2.925-1.686a.367.367 0 0 1 .384.625l-.567.366 1.726-.996a.367.367 0 0 1 .383.624l-.193.127 1.106-.64a.367.367 0 0 1 .4.613l-5.399 3.955 7.04-4.066a.367.367 0 0 1 .388.622l-2.152 1.442 2.916-1.687a.366.366 0 0 1 .398.615l-4.089 2.953 5.096-2.942a.367.367 0 0 1 .4.614l-3.222 2.338 3.88-2.24a.367.367 0 0 1 .418.6l-3.09 2.566 3.464-2.002a.367.367 0 0 1 .428.592l-1.04.929.238-.137a.366.366 0 1 1 .366.635l-3.33 1.922a.366.366 0 0 1-.427-.591l1.038-.925-4.112 2.374a.366.366 0 0 1-.418-.6l3.09-2.566-6.22 3.593a.367.367 0 0 1-.4-.613l3.222-2.338-5.296 3.057a.36.36 0 0 1-.183.045Z" fill="#BFDBF0"/><path d="M16.213 40.664a.367.367 0 0 1-.226-.655l2.299-1.802-3.407 1.966a.367.367 0 0 1-.395-.616l3.947-2.8-4.586 2.649a.367.367 0 0 1-.393-.618l5.854-4.043-6.56 3.787a.367.367 0 0 1-.389-.621l7.211-4.87-7.907 4.56a.367.367 0 0 1-.38-.625l4.374-2.803-4.75 2.742a.366.366 0 1 1-.379-.627l2.934-1.847-3.209 1.852a.366.366 0 0 1-.377-.628l2.132-1.332-2.358 1.361a.367.367 0 1 1-.383-.625l9.4-6.096-9.952 5.743a.367.367 0 0 1-.38-.627l7.788-4.944-8.172 4.718a.367.367 0 0 1-.378-.628l6.489-4.07-6.774 3.908a.366.366 0 0 1-.377-.629l4.608-2.86-4.801 2.776a.367.367 0 0 1-.376-.63l3.509-2.165-3.652 2.108a.367.367 0 0 1-.38-.626l10.723-6.814-11.083 6.4a.367.367 0 1 1-.377-.63l5.708-3.534-5.848 3.373a.366.366 0 0 1-.379-.627l8.707-5.448-8.902 5.142a.367.367 0 0 1-.38-.627l11.777-7.48-12.038 6.952a.367.367 0 0 1-.381-.627l12.003-7.62L3.13 26.555a.366.366 0 0 1-.374-.63l.245-.146-.178.103a.366.366 0 0 1-.38-.627l11.368-7.187-11.47 6.621a.367.367 0 0 1-.374-.63l2.756-1.686-2.661 1.54a.367.367 0 0 1-.378-.629l9.058-5.684-9.02 5.207a.366.366 0 0 1-.38-.627l11.52-7.33-11.489 6.632a.366.366 0 0 1-.375-.63l3.356-2.066-3.159 1.82a.367.367 0 0 1-.376-.623l10.684-6.806-10.518 6.07a.366.366 0 0 1-.374-.63l.24-.146a.366.366 0 0 1-.336-.649l10-6.404L.82 17.013a.366.366 0 0 1-.384-.624l10.87-7.1L.848 15.328a.367.367 0 0 1-.38-.627l5.254-3.318L.98 14.12a.367.367 0 0 1-.385-.624l9.072-6.013-8.287 4.785a.367.367 0 0 1-.382-.625l4.438-2.86-3.583 2.07a.367.367 0 0 1-.384-.624l3.505-2.282-2.441 1.41a.367.367 0 0 1-.384-.625l1.204-.783a.367.367 0 0 1-.396-.613L6.49 4.501a.367.367 0 0 1-.326-.656l4.098-2.366a.367.367 0 0 1 .412.603l-3.52 2.826L14.83.476a.367.367 0 0 1 .384.625l-1.182.77L16.48.457a.367.367 0 0 1 .383.624l-3.509 2.286L18.12.615a.367.367 0 0 1 .381.625l-4.446 2.867 5.53-3.195a.366.366 0 0 1 .387.624l-9.067 6.009 10.472-6.046a.366.366 0 0 1 .379.627l-5.243 3.313 5.975-3.446a.367.367 0 0 1 .384.624L11.997 9.72l11.946-6.893a.367.367 0 0 1 .382.626L14.323 9.849l10.758-6.21a.367.367 0 0 1 .375.63l-.12.073.351-.202a.367.367 0 0 1 .38.626l-10.686 6.807L26.66 5.06a.367.367 0 0 1 .375.63l-3.377 2.083 3.584-2.072a.366.366 0 1 1 .38.627l-11.51 7.322 11.96-6.903a.367.367 0 0 1 .38.628l-9.068 5.678 9.314-5.376a.367.367 0 0 1 .374.63L26.32 9.993l2.796-1.613a.367.367 0 0 1 .379.627l-11.367 7.187L29.691 9.52a.366.366 0 0 1 .373.63l-.248.153.169-.098a.367.367 0 0 1 .38.627L18.36 18.46l12.09-6.982a.367.367 0 0 1 .38.627L19.06 19.58l11.74-6.777a.366.366 0 0 1 .377.628l-8.714 5.45 8.551-4.936a.367.367 0 0 1 .376.629l-5.703 3.53 5.443-3.144a.366.366 0 0 1 .38.627l-10.72 6.815 10.405-6.008a.365.365 0 0 1 .55.263.366.366 0 0 1-.175.367l-3.52 2.171 3.106-1.794a.367.367 0 0 1 .377.63l-4.6 2.854 4.116-2.377a.367.367 0 0 1 .378.628l-6.491 4.071 5.918-3.416a.367.367 0 0 1 .38.627l-7.788 4.945 7.095-4.096a.368.368 0 0 1 .384.625l-9.397 6.096 8.479-4.897a.367.367 0 0 1 .377.629l-2.137 1.335 1.32-.76a.367.367 0 0 1 .379.627l-2.934 1.848 1.99-1.149a.367.367 0 0 1 .381.627l-4.372 2.802 3.203-1.85a.367.367 0 0 1 .389.621l-7.213 4.871 5.406-3.121a.366.366 0 0 1 .392.619l-5.855 4.043 3.548-2.048a.367.367 0 0 1 .395.616l-3.945 2.797 1.047-.604a.366.366 0 0 1 .41.606l-4.114 3.23a.367.367 0 0 1-.112.535l-2.165 1.246a.36.36 0 0 1-.184.053Z" fill="#3B2186"/><path d="M17.384 26.011a.366.366 0 0 1-.208-.668l.428-.294-1.582.911a.367.367 0 0 1-.411-.604l3.453-2.745-5.802 3.35a.367.367 0 0 1-.412-.604l3.487-2.787-5.867 3.388a.367.367 0 0 1-.395-.616l1.73-1.224-3.03 1.748a.367.367 0 0 1-.396-.615l1.75-1.247-2.448 1.414a.367.367 0 0 1-.406-.608l2.472-1.901-2.975 1.717a.367.367 0 0 1-.428-.59l2.37-2.11-2.599 1.497a.367.367 0 0 1-.43-.587l1.092-.994-.838.484a.367.367 0 0 1-.491-.518l.605-.924a.372.372 0 0 1-.404-.174.367.367 0 0 1 .133-.5L7 19.508a.367.367 0 0 1 .49.518l-.586.897 2.454-1.416a.366.366 0 0 1 .43.586l-1.092.994 2.74-1.58a.367.367 0 0 1 .428.586L9.491 22.21l4.693-2.707a.366.366 0 0 1 .406.608l-2.477 1.903 4.349-2.507a.366.366 0 0 1 .396.616l-1.752 1.246 3.227-1.861a.366.366 0 0 1 .395.616l-1.735 1.223 3.193-1.84a.366.366 0 0 1 .413.603l-3.486 2.787 5.867-3.387a.367.367 0 0 1 .411.604l-3.455 2.745 5.427-3.133a.366.366 0 0 1 .392.619l-.427.293.575-.331a.367.367 0 0 1 .411.603l-2.467 1.965 2.214-1.278a.367.367 0 0 1 .436.587l-1.687 1.613.888-.514a.367.367 0 0 1 .366.635l-3.552 2.042a.367.367 0 0 1-.44-.587l1.692-1.613-3.798 2.2a.367.367 0 0 1-.412-.604l2.471-1.969-4.457 2.573a.368.368 0 0 1-.184.051Z" fill="#D3B571"/><path d="M15.129 20.145a.367.367 0 0 1-.252-.632l.81-.775-2.35 1.355a.366.366 0 0 1-.44-.579l.869-.848-2.473 1.427a.367.367 0 0 1-.447-.57l.98-1.02-2.754 1.59a.367.367 0 0 1-.467-.55l1.093-1.33-2.977 1.72a.367.367 0 0 1-.426-.593l.352-.311-.531.306a.367.367 0 0 1-.5-.502l.547-.933-.014.007a.367.367 0 0 1-.366-.634l1.215-.701a.362.362 0 0 1 .44.059.367.367 0 0 1 .056.443l-.547.933 2.493-1.434a.367.367 0 0 1 .426.592l-.352.311 1.565-.903a.367.367 0 0 1 .467.55l-1.093 1.33 3.257-1.88a.367.367 0 0 1 .447.572l-.98 1.018 2.754-1.59a.367.367 0 0 1 .44.58L15.5 18l2.473-1.428a.367.367 0 0 1 .437.583l-.811.774 2.35-1.357a.367.367 0 0 1 .459.56l-1.066 1.209 3.063-1.769a.366.366 0 0 1 .471.545l-1.095 1.393 3.247-1.874a.366.366 0 0 1 .466.55l-1.04 1.273 1.535-.886a.366.366 0 0 1 .46.558l-.298.341a.36.36 0 0 1 .316.184.367.367 0 0 1-.134.5l-1.628.936a.366.366 0 0 1-.46-.558l.198-.226-1.36.784a.366.366 0 0 1-.467-.549l1.041-1.274-3.158 1.823a.367.367 0 0 1-.472-.544l1.096-1.393-3.356 1.937a.367.367 0 0 1-.458-.56l1.066-1.208-3.064 1.768a.36.36 0 0 1-.183.052Z" fill="#925C4C"/><path d="M18.102 17.215a.366.366 0 0 1-.183-.684l5.011-2.89a.367.367 0 0 1 .463.553l-1.086 1.274 3.153-1.818a.366.366 0 0 1 .444.576l-.921.928 1.08-.624a.367.367 0 0 1 .448.572l-.256.266a.367.367 0 0 1 .175.684l-1.923 1.108a.366.366 0 0 1-.448-.571l.123-.128-1.215.7a.366.366 0 0 1-.44-.577l.921-.928-2.608 1.504a.366.366 0 0 1-.463-.554l1.083-1.276-3.176 1.834a.366.366 0 0 1-.181.051Z" fill="#F9D990"/><path d="M12.928 21.6a.367.367 0 0 1-.244-.64l.639-.571-1.132.653a.367.367 0 0 1-.406-.61l4.352-3.325-4.898 2.826a.367.367 0 0 1-.408-.607l3.07-2.386-3.498 2.02a.367.367 0 0 1-.405-.61l1.483-1.122-1.714.99a.367.367 0 0 1-.44-.58l1.952-1.907-2.62 1.513a.367.367 0 0 1-.466-.549l1.16-1.417-3.074 1.774a.366.366 0 0 1-.44-.577l.802-.8-.7.405a.367.367 0 0 1-.514-.48l.388-.787a.347.347 0 0 1-.339-.182.367.367 0 0 1 .135-.501l.856-.49a.367.367 0 0 1 .513.48l-.356.722 2.082-1.201a.366.366 0 0 1 .44.577l-.801.8 2.382-1.378a.367.367 0 0 1 .466.55l-1.16 1.416 3.407-1.966a.367.367 0 0 1 .44.58l-1.951 1.906 4.304-2.484a.367.367 0 0 1 .405.61L15.16 15.37l2.993-1.73a.367.367 0 0 1 .408.606l-3.073 2.388 5.191-2.994a.366.366 0 0 1 .406.609l-4.826 3.69a.367.367 0 0 1 .194.636l-1.735 1.55a.367.367 0 0 1-.097.554l-1.508.872a.362.362 0 0 1-.184.05Z" fill="#F9D990"/><path d="M8.756 14.278a.367.367 0 0 1-.206-.67l2.562-1.745-4.033 2.33a.367.367 0 0 1-.4-.614l4.355-3.17-4.997 2.885a.366.366 0 0 1-.401-.612L9 10.197l-2.993 1.727a.367.367 0 0 1-.395-.617l.574-.405a.373.373 0 0 1-.4-.132.367.367 0 0 1 .044-.487l1.737-1.637a.367.367 0 0 1-.23-.681L9.84 6.52a.367.367 0 0 1 .434.587l-1.65 1.552L12.7 6.307a.367.367 0 0 1 .394.616l-.483.341 1.663-.957a.366.366 0 0 1 .4.612l-3.367 2.483 5.367-3.095a.367.367 0 0 1 .4.614l-4.354 3.168 6.552-3.782a.367.367 0 0 1 .39.62l-2.567 1.747 3.983-2.3a.367.367 0 0 1 .39.621l-2.517 1.716 3.437-1.98a.367.367 0 0 1 .399.615l-3.755 2.722 4.598-2.655a.367.367 0 0 1 .392.619l-1.569 1.083 1.9-1.096a.367.367 0 0 1 .41.604l-3.133 2.488 3.547-2.048a.367.367 0 0 1 .415.602l-2.026 1.652 2.123-1.225a.367.367 0 0 1 .44.578l-1.52 1.503 1.393-.806a.367.367 0 0 1 .435.586l-.207.195a.447.447 0 0 1 .326.183.367.367 0 0 1-.133.5l-2.42 1.394a.366.366 0 0 1-.435-.586l.064-.06-1.117.644a.367.367 0 0 1-.44-.578l1.52-1.505-3.607 2.087a.366.366 0 0 1-.415-.602l2.026-1.652-3.904 2.254a.367.367 0 0 1-.411-.604l3.133-2.487-5.356 3.09a.367.367 0 0 1-.391-.618l1.568-1.085-2.951 1.704a.367.367 0 0 1-.4-.615l3.757-2.722-5.783 3.337a.366.366 0 0 1-.39-.62l2.516-1.716-4.048 2.336a.367.367 0 0 1-.183.051Z" fill="#D3B571"/><path d="M25.425 19.197c-.625.603-7.032.354-9.705.354l1.746-2.035c.858-.798 6.94-.206 7.627-.265a1.174 1.174 0 0 1 .332 1.946ZM25.783 9a6.466 6.466 0 0 0-5.482-2.797c-2.88-.02-5.77-.052-8.653 0a6.609 6.609 0 0 0-5.814 3.588c-.613 1.232-.973 3.133-.038 4.033a1.592 1.592 0 0 0-.6 1.441c0 .815-.014 1.62.743 1.879a1.733 1.733 0 0 0 .25 2.733c-.424.205-.75.567-.91 1.01a4.308 4.308 0 0 0 .309 2.897c1.432 2.854 5.4 2.131 8.026 2.131 2.913 0 5.838.074 8.75 0 2.1-.055 4.17-1.408 4.407-3.624.094-.88.122-1.92-.706-2.46-.038-.024-.08-.036-.118-.057.308-.195.539-.49.653-.836a1.653 1.653 0 0 0-.572-1.907 1.32 1.32 0 0 0 .773-1.32c0-.77.08-1.646-.595-1.99 1.065-1.114.433-3.426-.423-4.721ZM6.516 10.767a5.42 5.42 0 0 1 2.208-2.948c1.277-.827 2.66-.822 4.106-.822h4.804c1.336-.108 2.68-.05 4.001.175a5.521 5.521 0 0 1 3.238 2.401c.502.794 1.723 3.822-.03 3.96-5.177 0-17.45.02-17.585 0-1.332-.2-1.021-1.858-.742-2.766Zm.465 6.474a2.127 2.127 0 0 1 1.842.604c.48.52.937 1.061 1.394 1.604-.454 0-2.517.005-2.93 0-1.04-.012-1.83-1.949-.307-2.208h.001Zm18.187 3.026c.75.53.66 1.769.47 2.547a3.047 3.047 0 0 1-2.817 2.37c-2.252.093-12.972.09-13.773-.067a3.461 3.461 0 0 1-2.68-2.518c-.524-2.084.261-2.42.747-2.452 1.219-.077 2.47.015 3.696.004.073.08.141.162.213.24.692.772 1.406 1.429 2.58 1.073.691-.3 1.281-.79 1.701-1.415 2.268 0 9.294.074 9.523.055.12.037.234.092.338.163h.002Zm-.05-5.971c.642.073.613.565.613 1.152 0 .239.077.936-.078 1.056-.112.086-.656 0-.793 0h-3.106c-1.49 0-3.767-.402-5.017.627a.481.481 0 0 0-.146.11c-.43.5-2.28 2.856-2.879 3.352-.854.71-1.473-.366-1.961-.932l-1.84-2.145a2.392 2.392 0 0 0-1.787-1.011c-.394-.022-.796.035-1.189 0-.58-.053-.66-.338-.66-.886 0-.161-.121-1.208.01-1.32.026-.032 18.792-.008 18.833-.003Z" fill="#2A2A38"/><path d="M19.832.842A16.318 16.318 0 0 0 1.21 10.349c-3.08 7.514.276 16.206 5.041 22.213.65.818 1.346 1.597 2.063 2.358a15.937 15.937 0 0 0-4.922 1.71c-.867.513-1.954 1.352-1.85 2.487.095 1.037 1.126 1.74 1.956 2.2a16.54 16.54 0 0 0 4.698 1.553c4.563.889 9.246.975 13.838.254A22.43 22.43 0 0 0 27.44 41.7a5.835 5.835 0 0 0 2.755-1.974c1.845-2.985-4.392-4.47-6.6-4.906 4.312-4.57 7.559-10.187 8.249-16.487.75-7.857-4.166-15.635-12.012-17.491Zm7.842 36.084c.8.44 1.919 1.21 1.73 2.274-.167.94-1.236 1.523-2.013 1.892a17.483 17.483 0 0 1-4.359 1.295c-3.977.706-8.04.791-12.044.253a24.775 24.775 0 0 1-4.853-1.067 7.27 7.27 0 0 1-3-1.663c-2.437-2.624 3.73-4.134 5.63-4.516a40.851 40.851 0 0 0 3.882 3.52c.88.698 1.869 1.662 3.038 1.72 1.36.069 2.391-.884 3.388-1.675a43.026 43.026 0 0 0 3.946-3.55c1.62.263 3.19.775 4.655 1.517ZM30.78 18.46c-.8 7.298-5.06 13.624-10.39 18.466a42.167 42.167 0 0 1-2.724 2.274c-.608.465-1.202 1.006-2.029.702a5.703 5.703 0 0 1-1.36-.905 40.402 40.402 0 0 1-5.646-5.203C3.877 28.484.256 21.198 1.282 13.887A14.92 14.92 0 0 1 16.83 1.078c8.744.57 14.755 8.956 13.95 17.381Z" fill="#2A2A38"/><path d="M16.535 9.702a.535.535 0 1 0-1.07 0v.396a.535.535 0 1 0 1.07 0v-.396ZM20.215 9.304a.535.535 0 1 0-.756.756l.489.49a.535.535 0 1 0 .756-.757l-.489-.49ZM11.553 9.793a.535.535 0 1 0 .757.757l.489-.49a.535.535 0 1 0-.757-.756l-.489.49Z" fill="#2A2A38"/></svg>