<svg width="64" height="64" fill="none" xmlns="http://www.w3.org/2000/svg"><path d="M35.2 39.968a.534.534 0 0 1-.387-.9l.661-.699-1.026.591a.533.533 0 0 1-.657-.825l1.762-1.89-1.117.64a.534.534 0 0 1-.67-.81l2.149-2.495-1.479.853a.533.533 0 0 1-.62-.86l.413-.365a.541.541 0 0 1-.49-.214.533.533 0 0 1 .07-.708l.626-.576a.534.534 0 0 1-.623-.854l.504-.453a.533.533 0 0 1-.534-.885l1.525-1.571-.88.507a.533.533 0 0 1-.627-.853l.64-.588-.012.007a.533.533 0 0 1-.619-.862l.37-.32a.572.572 0 0 1-.435-.203.533.533 0 0 1 .029-.695l1.747-1.86-1.083.623a.533.533 0 0 1-.64-.839l1.295-1.288-.652.376a.533.533 0 0 1-.647-.835l1.44-1.464-.793.458a.534.534 0 0 1-.633-.848l.476-.451a.533.533 0 0 1-.576-.785l.426-.747a.534.534 0 0 1-.179-.987l1.239-.714a.533.533 0 0 1 .79.39.533.533 0 0 1-.065.334l-.31.54 1.959-1.13a.533.533 0 0 1 .633.853l-.392.372.288-.166a.533.533 0 0 1 .646.836l-1.44 1.463.794-.459a.533.533 0 0 1 .64.84l-1.297 1.29.655-.377a.533.533 0 0 1 .655.825l-1.736 1.853 1.08-.624a.533.533 0 0 1 .62.862l-.37.32a.669.669 0 0 1 .447.213.533.533 0 0 1-.069.709l-.64.587.013-.006a.534.534 0 0 1 .648.833l-1.515 1.571.879-.508a.533.533 0 0 1 .624.854l-.502.452a.534.534 0 0 1 .505.907l-.626.575a.534.534 0 0 1 .618.86l-.413.366a.534.534 0 0 1 .465.878l-2.152 2.497 1.48-.853a.534.534 0 0 1 .658.826l-1.761 1.89 1.104-.64a.533.533 0 0 1 .654.828l-.66.697a.533.533 0 0 1 .534.924l-3.172 1.832a.522.522 0 0 1-.262.075ZM28.413 39.968a.533.533 0 0 1-.477-.774l.616-1.218-2.487 1.435a.534.534 0 0 1-.64-.841l1.042-1.024-.567.327a.534.534 0 0 1-.67-.813l2.087-2.393-1.418.819a.534.534 0 0 1-.665-.815l2.003-2.244-1.338.773a.533.533 0 0 1-.628-.856l.61-.556a.534.534 0 0 1-.64-.833l1.828-1.982-1.174.674a.533.533 0 0 1-.64-.847l1.01-.966-.375.213a.533.533 0 0 1-.619-.862l.388-.341a.533.533 0 0 1-.386-.934l.365-.31a.444.444 0 0 1-.426-.207.533.533 0 0 1 .042-.7l1.413-1.428-.763.44a.533.533 0 0 1-.652-.831l1.625-1.698-.973.56a.533.533 0 0 1-.67-.81l2.01-2.334-1.34.773a.533.533 0 0 1-.753-.68l.64-1.413a.548.548 0 0 1-.557-.259.533.533 0 0 1 .195-.727l1.239-.715a.534.534 0 0 1 .753.68l-.615 1.364 2.623-1.519a.533.533 0 0 1 .671.81l-2.013 2.336 1.481-.854a.534.534 0 0 1 .652.831l-1.623 1.696.971-.56a.533.533 0 0 1 .645.837l-1.408 1.421.763-.44a.534.534 0 0 1 .618.864l-.359.313a.482.482 0 0 1 .44.222.533.533 0 0 1-.08.712l-.388.341a.57.57 0 0 1 .462.213.533.533 0 0 1-.058.706l-1.01.967.375-.213a.534.534 0 0 1 .658.823l-1.826 1.98 1.168-.674a.533.533 0 0 1 .627.853l-.61.558a.532.532 0 0 1 .648.825l-2.004 2.252 1.339-.772a.533.533 0 0 1 .669.813l-2.088 2.39 1.419-.821a.533.533 0 0 1 .64.841l-1.044 1.028.404-.234a.533.533 0 0 1 .747.703l-.633 1.251a.534.534 0 0 1 .398.98l-1.396.805a.533.533 0 0 1-.271.069ZM18.036 39.957a.533.533 0 0 1-.402-.883l1.167-1.342-1.436.83a.534.534 0 0 1-.62-.86l.435-.389a.535.535 0 0 1-.48-.881l2.018-2.274-1.353.78a.534.534 0 0 1-.646-.835l1.452-1.477-.806.464a.533.533 0 0 1-.66-.82l1.903-2.096-1.243.718a.533.533 0 0 1-.64-.84l1.25-1.234-.609.35a.533.533 0 0 1-.664-.817l1.992-2.235-1.329.764a.533.533 0 0 1-.647-.834l1.475-1.505-.828.477a.533.533 0 0 1-.67-.81l2.15-2.497-1.48.853a.533.533 0 0 1-.633-.853l.939-.893-.306.176a.533.533 0 0 1-.625-.853l.516-.467a.534.534 0 0 1-.65-.714l.705-1.707a.538.538 0 0 1-.618-.244.533.533 0 0 1 .196-.727l1.238-.715a.533.533 0 0 1 .76.665l-.697 1.69 2.798-1.616a.533.533 0 0 1 .625.854l-.493.446a.534.534 0 0 1 .548.889l-.938.893.305-.176a.534.534 0 0 1 .67.808l-2.15 2.498 1.48-.853a.534.534 0 0 1 .647.835l-1.473 1.503.826-.476a.533.533 0 0 1 .664.816l-1.994 2.24 1.33-.767a.534.534 0 0 1 .64.84l-1.248 1.236.608-.35a.533.533 0 0 1 .661.82l-1.903 2.096 1.242-.717a.533.533 0 0 1 .646.835l-1.452 1.477.806-.465a.533.533 0 0 1 .665.816l-2.02 2.276 1.355-.781a.533.533 0 0 1 .62.86l-.434.387a.534.534 0 0 1 .482.876l-1.173 1.342.5-.287a.534.534 0 0 1 .533.923l-3.265 1.886a.533.533 0 0 1-.262.071ZM9.707 48.501a.533.533 0 0 1-.383-.905l.372-.381-.817.47a.533.533 0 0 1-.625-.853l.484-.438a.534.534 0 0 1-.573-.854l2.075-2.374-1.408.812a.534.534 0 0 1-.618-.862l.36-.32a.49.49 0 0 1-.427-.205.533.533 0 0 1 .035-.699l1.58-1.638-.929.533a.534.534 0 0 1-.628-.853l.652-.597-.025.023a.534.534 0 0 1-.657-.826l1.778-1.91-1.121.648a.534.534 0 0 1-.67-.81l2.16-2.513-1.494.86a.533.533 0 0 1-.635-.847l1.013-.971-.378.213a.534.534 0 0 1-.622-.86l.446-.396a.533.533 0 0 1-.444-.926l.4-.353a.556.556 0 0 1-.463-.199.534.534 0 0 1 .025-.694l1.827-1.98-1.174.672a.534.534 0 0 1-.625-.853l.545-.495a.533.533 0 0 1-.552-.886l.932-.886-.3.172a.533.533 0 0 1-.64-.836L9.6 23.246l-.772.446a.533.533 0 0 1-.655-.827l1.717-1.82-1.058.608a.533.533 0 0 1-.658-.823l1.758-1.906-1.1.634a.533.533 0 0 1-.758-.668l.689-1.631a.534.534 0 0 1-.408-.976l1.239-.715a.533.533 0 0 1 .758.669l-.677 1.6 2.757-1.594a.533.533 0 0 1 .658.824l-1.759 1.92 1.174-.675a.534.534 0 0 1 .654.826l-1.713 1.82 1.059-.611a.533.533 0 0 1 .64.836l-1.412 1.43.77-.444a.533.533 0 0 1 .633.853l-.934.888.302-.174a.533.533 0 0 1 .625.854l-.545.495a.533.533 0 0 1 .578.86l-1.827 1.981 1.174-.674a.533.533 0 0 1 .62.862l-.4.353a.533.533 0 0 1 .402.93l-.447.398a.533.533 0 0 1 .46.91l-1.014.97.379-.213a.533.533 0 0 1 .67.81l-2.166 2.501 1.494-.853a.533.533 0 0 1 .657.825l-1.78 1.912 1.123-.647a.533.533 0 0 1 .628.853l-.652.597.024-.013a.533.533 0 0 1 .65.832l-1.578 1.639.928-.533a.533.533 0 0 1 .617.863l-.358.312a.534.534 0 0 1 .408.885l-2.08 2.364 1.407-.812a.534.534 0 0 1 .625.854l-.505.458a.533.533 0 0 1 .533.885l-.464.476a.533.533 0 0 1 .349.99l-3.067 1.767a.522.522 0 0 1-.265.074ZM52.144 48.487a.534.534 0 0 1-.392-.895l.9-.973-1.153.665a.533.533 0 0 1-.651-.83l1.6-1.675-.955.551a.533.533 0 0 1-.663-.818l1.97-2.182-1.297.746a.534.534 0 0 1-.647-.835l1.447-1.47-.8.46a.533.533 0 0 1-.67-.81l2.127-2.454-1.457.842a.534.534 0 0 1-.66-.823l1.86-2.04-1.204.695a.534.534 0 0 1-.662-.82l1.91-2.105-1.248.721a.533.533 0 0 1-.64-.837l1.363-1.369-.72.414a.533.533 0 0 1-.653-.827l1.678-1.771-1.024.59a.533.533 0 0 1-.656-.826l1.74-1.855-1.088.63a.533.533 0 0 1-.64-.845l1.048-1.01-.413.237a.533.533 0 0 1-.659-.82l1.86-2.027-1.2.693a.533.533 0 0 1-.626-.854l.526-.474a.525.525 0 0 1-.578-.168.533.533 0 0 1 .008-.69l2.093-2.396-1.424.822a.534.534 0 0 1-.662-.82l1.591-1.762-.929.534a.533.533 0 0 1-.74-.707l.523-1.01a.533.533 0 0 1-.26-.994l1.239-.714a.533.533 0 0 1 .74.706l-.456.884 2.287-1.327a.533.533 0 0 1 .663.818l-1.593 1.762 1.272-.732a.533.533 0 0 1 .669.813L53.746 20.9l1.423-.822a.533.533 0 0 1 .625.853l-.527.476a.54.54 0 0 1 .584.173.533.533 0 0 1-.023.694l-1.858 2.027 1.199-.692a.533.533 0 0 1 .64.845l-1.052 1.013.416-.24a.533.533 0 0 1 .656.826l-1.75 1.864 1.086-.626a.533.533 0 0 1 .654.827l-1.68 1.773 1.026-.59a.533.533 0 0 1 .64.837l-1.364 1.368.72-.415a.533.533 0 0 1 .66.82l-1.908 2.106 1.248-.721a.533.533 0 0 1 .66.821l-1.865 2.037 1.204-.696a.534.534 0 0 1 .67.81l-2.127 2.454 1.457-.842a.533.533 0 0 1 .647.836l-1.44 1.475.801-.462a.533.533 0 0 1 .663.818l-1.964 2.184 1.297-.747a.533.533 0 0 1 .65.83l-1.6 1.673.954-.55a.533.533 0 0 1 .658.825l-.901.974.243-.14a.534.534 0 0 1 .533.922l-3.29 1.898a.523.523 0 0 1-.267.072ZM45.607 39.968a.534.534 0 0 1-.492-.74l.689-1.657-2.783 1.607a.533.533 0 0 1-.64-.839l1.268-1.266-.68.393a.533.533 0 0 1-.64-.839l1.332-1.331-.69.397a.533.533 0 0 1-.627-.856l.61-.556a.534.534 0 0 1-.614-.861l.853-.808-.224.13a.534.534 0 0 1-.64-.84l1.298-1.297-.662.382a.533.533 0 0 1-.659-.824l1.843-2.003-1.184.684a.533.533 0 0 1-.652-.83l1.612-1.682-.96.553a.533.533 0 0 1-.63-.853l.779-.726-.149.085a.534.534 0 0 1-.665-.816l2.019-2.274-1.354.78a.533.533 0 0 1-.63-.853l.7-.647-.07.04a.533.533 0 0 1-.666-.813l1.901-2.152-1.235.713a.533.533 0 0 1-.753-.681l.64-1.418a.545.545 0 0 1-.558-.258.533.533 0 0 1 .196-.727l1.238-.715a.534.534 0 0 1 .753.68l-.617 1.37 2.635-1.522a.533.533 0 0 1 .667.814l-1.9 2.15 1.37-.79a.533.533 0 0 1 .629.853l-.703.649.074-.042a.532.532 0 0 1 .665.816l-2.018 2.279 1.352-.781a.533.533 0 0 1 .63.853l-.779.728.149-.087a.534.534 0 0 1 .651.831l-1.614 1.677.96-.555a.533.533 0 0 1 .66.824l-1.843 2.002 1.184-.683a.533.533 0 0 1 .64.84l-1.3 1.298.662-.38a.534.534 0 0 1 .631.852l-.853.807.225-.13a.533.533 0 0 1 .627.853l-.61.558a.533.533 0 0 1 .626.848l-1.334 1.333.69-.398a.533.533 0 0 1 .64.84l-1.266 1.264.624-.36a.533.533 0 0 1 .76.667l-.7 1.681a.533.533 0 0 1 .416.973l-1.237.715a.534.534 0 0 1-.267.071ZM20.007 48.501a.534.534 0 0 1-.456-.81l.213-.355-1.753 1.013a.533.533 0 0 1-.668-.813l1.173-1.347-1.157.668a.534.534 0 0 1-.747-.698l.565-1.147a.541.541 0 0 1-.492-.265.533.533 0 0 1 .195-.728l1.238-.714a.533.533 0 0 1 .747.696l-.518 1.053 2.42-1.396a.534.534 0 0 1 .669.811l-1.17 1.349.772-.445a.534.534 0 0 1 .722.738l-.379.625a.534.534 0 0 1 .134.978l-1.238.715a.524.524 0 0 1-.27.072ZM28.213 48.501a.533.533 0 0 1-.457-.806l.57-.96-2.215 1.28a.533.533 0 0 1-.652-.832l.888-.924-.448.258a.533.533 0 0 1-.73-.723l.445-.79a.533.533 0 0 1-.192-.988l1.238-.715a.534.534 0 0 1 .73.722l-.336.593 2.013-1.161a.533.533 0 0 1 .65.83l-.887.927.736-.427a.527.527 0 0 1 .646.088.533.533 0 0 1 .078.647l-.594.995a.533.533 0 0 1 .391.981l-1.607.93a.533.533 0 0 1-.267.075ZM36.139 48.501a.533.533 0 0 1-.42-.865l.502-.632-1.625.937a.533.533 0 0 1-.628-.853l.295-.274a.534.534 0 0 1-.572-.768l.533-1.034a.533.533 0 0 1-.266-.994l1.239-.715a.534.534 0 0 1 .741.706l-.47.914 2.309-1.333a.534.534 0 0 1 .628.854l-.218.202a.533.533 0 0 1 .602.832l-.54.682a.533.533 0 0 1 .389.981l-2.233 1.286a.522.522 0 0 1-.266.074ZM45.608 48.501a.533.533 0 0 1-.468-.791l.367-.664-2.082 1.202a.534.534 0 0 1-.64-.838l.716-.719-.533.307a.533.533 0 0 1-.747-.688l.608-1.3a.533.533 0 0 1-.335-.99l1.238-.716a.534.534 0 0 1 .747.688l-.58 1.235 2.55-1.472a.533.533 0 0 1 .64.838l-.716.718.257-.147a.534.534 0 0 1 .733.72l-.463.838a.533.533 0 0 1 .207.991l-1.237.715a.523.523 0 0 1-.262.073Z" fill="#F2CF7E"/><path d="M6.644 10.101a.533.533 0 0 1-.267-.995l4.919-2.84a.533.533 0 0 1 .707.762l-.672.99a.533.533 0 0 1 .332.989l-1.766 1.02a.534.534 0 0 1-.707-.76l.619-.91-2.898 1.67a.533.533 0 0 1-.267.074Z" fill="#BFDBF0"/><path d="M3.23 16.5a.533.533 0 0 1-.427-.854l.457-.598-1.3.747a.534.534 0 0 1-.674-.805l1.637-1.936-1.558.9a.533.533 0 0 1-.578-.896l1.42-1.018-.842.485a.533.533 0 0 1-.595-.881L3.373 9.6l-2.008 1.163a.534.534 0 0 1-.618-.866l1.418-1.22-.804.463a.533.533 0 0 1-.719-.746l.944-1.51a.533.533 0 0 1-.454-.96l1.772-1.017a.533.533 0 0 1 .718.746l-.935 1.494 3.885-2.24a.533.533 0 0 1 .614.865L5.768 6.99l3.608-2.084a.533.533 0 0 1 .596.88l-2.6 2.038L11 5.73a.533.533 0 0 1 .579.895L5.76 10.8a.533.533 0 0 1-.054.61l-1.632 1.935.96-.555a.534.534 0 0 1 .69.787l-.64.843a.533.533 0 0 1 .182.988l-1.77 1.019a.523.523 0 0 1-.266.072ZM60.288 16.432a.534.534 0 0 1-.406-.879l.602-.706-1.15.663a.534.534 0 0 1-.652-.828l1.28-1.338-.991.572a.534.534 0 0 1-.632-.854l.84-.788-.214.12a.533.533 0 0 1-.631-.854l.877-.825-.274.156a.533.533 0 0 1-.654-.827l1.356-1.425-2.443 1.408a.533.533 0 0 1-.65-.832l1.406-1.452-3.828 2.209a.534.534 0 0 1-.64-.842l1.212-1.193-1.843 1.066a.533.533 0 0 1-.731-.724l.82-1.448-.073.041a.533.533 0 0 1-.533-.922l1.767-1.023a.533.533 0 0 1 .73.722l-.82 1.448 3.768-2.17a.534.534 0 0 1 .64.841L57.21 6.94l3.504-2.027a.533.533 0 0 1 .65.833l-1.406 1.457 2.336-1.345a.533.533 0 0 1 .654.829l-1.364 1.431 1.052-.605a.533.533 0 0 1 .631.853l-.876.825.245-.14a.533.533 0 0 1 .631.853l-.84.79.214-.121a.534.534 0 0 1 .653.83l-1.277 1.328.619-.358a.533.533 0 0 1 .673.807l-.64.746a.527.527 0 0 1 .607.246.534.534 0 0 1-.194.728l-2.526 1.46a.527.527 0 0 1-.267.072ZM3.77 59.168a.533.533 0 0 1-.364-.924L4.5 57.222l-2.383 1.376a.533.533 0 0 1-.64-.841l.994-.983-1.066.615a.533.533 0 0 1-.648-.834l1.454-1.494-.846.489a.534.534 0 0 1-.665-.816l2.01-2.254-1.345.776a.534.534 0 0 1-.676-.805l1.586-1.891-.91.524a.533.533 0 0 1-.681-.795l.574-.717a.534.534 0 0 1-.126-.975l1.771-1.024a.534.534 0 0 1 .682.795l-.294.368 1.058-.61a.533.533 0 0 1 .676.804L3.44 50.824l1.595-.92a.534.534 0 0 1 .665.816l-2.008 2.258 1.343-.775a.533.533 0 0 1 .647.835L4.225 54.53l1.301-.746a.534.534 0 0 1 .64.84l-.994.983L8 53.974a.533.533 0 0 1 .631.854l-1.093 1.02 2.798-1.619a.533.533 0 0 1 .693.782l-1.395 1.856 1.781-1.028a.534.534 0 1 1 .534.922l-4.045 2.333a.533.533 0 0 1-.692-.782l1.394-1.852-4.569 2.634a.521.521 0 0 1-.266.075ZM55.565 59.168a.533.533 0 0 1-.32-.96l.764-.584-2.208 1.28a.533.533 0 0 1-.582-.892l1.319-.96-1.694.977a.533.533 0 0 1-.729-.727l.809-1.41-.05.028a.533.533 0 0 1-.533-.923l1.766-1.02a.534.534 0 0 1 .728.727l-.814 1.403 8.614-4.973a.533.533 0 0 1 .581.893l-1.318.96.737-.427a.533.533 0 0 1 .59.885l-.767.587.177-.107a.534.534 0 0 1 .64.845l-1.267 1.228.63-.364a.534.534 0 0 1 .678.8l-.543.664a.533.533 0 0 1 .093.965l-1.765 1.019a.533.533 0 0 1-.678-.8l.213-.26-1.842 1.066a.534.534 0 0 1-.64-.845l1.269-1.229-3.592 2.08a.525.525 0 0 1-.266.074Z" fill="#BFDBF0"/><path d="M58.63 54.23a.533.533 0 0 1-.35-.935l.409-.358a.532.532 0 0 1-.354-.923l.46-.427a.533.533 0 0 1-.533-.825l.804-1.174a.534.534 0 0 1-.327-.99l1.768-1.02a.534.534 0 0 1 .706.761l-.747 1.09 1.75-1.01a.534.534 0 0 1 .63.853l-.359.334.137-.078a.533.533 0 0 1 .616.864l-.357.31a.524.524 0 0 1 .48.268.533.533 0 0 1-.194.728l-4.267 2.466a.523.523 0 0 1-.273.066Z" fill="#BFDBF0"/><path d="M39.172 17.571c.427-1.92-1.662-2.067-3.044-1.872-1.403-.1-3.159.58-2.767 2.286V37.85c-.438 2.102 1.848 2.124 3.353 1.92 1.046-.048 2.336-.389 2.453-1.609.01-6.857.012-13.72.005-20.589Zm-4.12 21.16c-.384-7.192-.053-14.605-.146-21.85 0 .04.111-.771-.023-.533a.117.117 0 0 0 .017-.048c1.085-.05 2.89-.286 2.727 1.302.147 7.108-.15 14.685.042 21.574-.79.03-2.192.25-2.617-.444ZM30.649 30.446c-.314-4.759.64-9.894-.386-14.472-.706-.774-2.166-.549-3.102-.533-1.109.021-2.203.44-2.347 1.689-.005 6.926-.005 13.856 0 20.79a1.927 1.927 0 0 0 .606 1.759c7.327 2.493 4.818-4.82 5.229-9.233Zm-4.267 7.893c.041-7.075-.065-14.244 0-21.3.15-.715 1.481-.62 2.096-.478.614.143.6.533.607 1.033.053 5.944-.025 11.892 0 17.837 0 .23.259 3.414-.213 3.481-.757-.003-2.245.348-2.49-.576v.003ZM22.105 17.571c.427-1.92-1.66-2.075-3.046-1.88-.947 0-2.379.148-2.716 1.23-.145 4.762 0 9.576-.05 14.356.246 2.646-.512 5.633.335 8.106.657.666 2.134.414 3.018.392 1.05-.042 2.339-.393 2.46-1.616.006-6.857.006-13.72 0-20.588Zm-4.12 21.16c-.384-7.19-.052-14.606-.146-21.85 0 .037.116-.768-.021-.533a.113.113 0 0 0 .017-.045c1.08-.046 2.89-.293 2.725 1.294.148 7.103-.151 14.69.044 21.566-.787.035-2.195.255-2.619-.431ZM13.577 18.372c.37-2.163-.782-3.138-2.888-2.86-2.027-.24-3.366 1.036-2.932 3.1.004 9.466.004 18.933 0 28.401.188 1.805 2.179 1.501 3.545 1.479 2.468-.03 2.359-2.134 2.275-3.977V18.372ZM9.31 46.746c0-9.879-.01-19.82 0-29.717.03-.72.182-.533.805-.533.717 0 1.638-.182 1.909.672-.237 9.99.446 20.49-.2 30.355-.92.035-2.266.256-2.514-.783v.006ZM50.428 45.614c-.518 2.773 1.363 2.986 3.648 2.735 2.388-.224 2.213-1.992 2.163-3.835-.005-9.212-.005-18.426 0-27.642-.22-1.539-2.017-1.234-3.166-1.22a2.335 2.335 0 0 0-2.645 3.024v26.938Zm1.544-.17V16.91c0-.64.06-.561.674-.561.69 0 1.678-.242 1.994.587-.029 10.146.343 20.633-.09 30.72-1.813.297-2.949-.247-2.578-2.216v.003ZM47.706 17.483c.375-1.974-1.846-2.095-3.248-1.92-1.537-.107-2.905.841-2.56 2.513v19.861c-.392 2.206 2.168 2.124 3.67 1.96 1.776.017 2.386-1.509 2.14-3.057l-.002-19.357Zm-4.229 20.994c-.096-7.17-.023-14.4-.038-21.587-.107-.809 1.423-.437 1.941-.456.7.114.767.62.781 1.197.087 5.95-.04 11.907 0 17.86 0 .23.238 3.462-.182 3.549-.807.037-2.205.26-2.502-.563ZM19.97 43.347c-1.343-.041-3.543-.14-3.675 1.66-.085 1.694-.238 3.733 2.116 3.38 1.362.04 3.59.135 3.695-1.7.08-1.69.215-3.716-2.136-3.34Zm.591 1.763c-.085.816.203 1.76-.175 2.504h-1.933c.16.006-.046-.021.01 0-1.049-.544-.672-2.54-.44-3.494.64 0 1.28-.012 1.92 0a.92.92 0 0 1 .618.99ZM28.505 43.347c-1.343-.041-3.544-.14-3.676 1.66-.084 1.694-.238 3.733 2.116 3.38 1.362.04 3.59.135 3.696-1.7.085-1.69.215-3.716-2.136-3.34Zm.59 1.763c-.085.816.203 1.76-.174 2.504h-1.934c.159.006-.047-.021.01 0-1.048-.544-.673-2.54-.44-3.494.64 0 1.28-.012 1.92 0a.92.92 0 0 1 .619.99ZM37.04 43.347c-1.344-.041-3.543-.14-3.677 1.66-.084 1.694-.237 3.733 2.117 3.38 1.362.04 3.589.135 3.696-1.7.084-1.69.214-3.716-2.137-3.34Zm.59 1.763c-.085.816.203 1.76-.174 2.504H35.52c.16.006-.046-.021.01 0-1.048-.544-.672-2.54-.44-3.494.64 0 1.28-.012 1.92 0a.92.92 0 0 1 .62.99ZM45.574 43.347c-1.342-.041-3.543-.14-3.676 1.66-.085 1.694-.238 3.733 2.116 3.38 1.362.04 3.59.135 3.696-1.7.084-1.69.214-3.716-2.136-3.34Zm.59 1.763c-.085.816.203 1.76-.173 2.504h-1.938c.16.006-.045-.021.011 0-1.048-.544-.673-2.54-.44-3.494.64 0 1.28-.012 1.92 0a.919.919 0 0 1 .62.99ZM.835 15.518c1.336 1.62 4.33.916 5.101-.926.498-1.452-.167-3.144.334-4.573 1.488-.097 3.032.227 4.459-.296a2.488 2.488 0 0 0-1.258-4.8C6.4 5.237.015 3.426.293 8.325c.262 2.342-.628 5.077.542 7.193ZM2.01 6.53c1.6-1.773 5.031-.355 7.28-.785 1.744 0 2.375 3.011.604 3.441-1.6.173-3.683-.533-4.96.723-1.226 1.421.99 5.876-1.941 5.563-1.979-.818-1.1-6.987-.987-8.942h.004ZM62.207 15.899c2.555-1.366 1.164-4.847 1.5-7.194 0-1.106.157-2.293-.771-3.11-2.208-1.28-5.112-.314-7.574-.597-2.83-.495-5.647 3.134-2.422 4.747 1.375.217 2.77.28 4.16.189 2.407.954-1.787 8.06 5.107 5.965Zm-5.973-6.633c-2.334.657-4.527-2.027-2.297-3.599 2.364.173 4.995-.402 7.269.264 1.803 1.536.633 4.373.952 6.468.027 1.067.222 2.658-.865 3.267-4.333-.652 1.156-7.532-5.056-6.4h-.003ZM4.237 58.987c2.71-.284 7.736 1.173 8.27-2.667-.153-2.908-3.605-2.169-5.608-2.25-2.416-.98 1.802-8.056-5.103-5.962C-.766 49.466.63 52.954.293 55.295c-.46 2.732 1.319 4.118 3.944 3.692ZM2.12 48.924c.874-1.589 2.644.392 2.44 1.616-.117 2.88-.445 4.717 3.199 4.183 2.34-.659 4.524 2.045 2.302 3.62-1.533.036-3.093-.022-4.642 0-2.23.389-3.947-.599-3.581-3.037.18-2.086-.403-4.397.282-6.382ZM63.28 48.612c-1.21-1.79-4.198-1.337-5.12.5-.666 1.493.07 3.261-.42 4.765-2.299-.019-6.051-.472-6.253 2.728.242 3.513 4.463 2.414 6.873 2.584 2.363.344 5.76-.297 5.353-3.379-.225-2.35.533-5.008-.433-7.198Zm-1.247 8.686c-1.163 1.786-4.395.46-6.293.847-1.662.391-3.47-1.067-2.375-2.74 1.5-1.342 4.13.421 5.628-1.121 1.24-1.556-.391-4.054 1.006-5.526 3.333-1.57 2.029 6.802 2.034 8.54Z" fill="#000"/></svg>