<svg width="64" height="64" viewBox="0 0 64 64" fill="none" xmlns="http://www.w3.org/2000/svg">
<path d="M35.2 39.968C35.0957 39.968 34.9937 39.9375 34.9066 39.8802C34.8195 39.8228 34.7511 39.7412 34.7099 39.6454C34.6687 39.5496 34.6565 39.4438 34.6748 39.3411C34.6931 39.2385 34.7411 39.1434 34.8128 39.0677L35.4741 38.3691L34.448 38.96C34.3375 39.0234 34.2079 39.0451 34.0827 39.0212C33.9575 38.9973 33.8451 38.9293 33.7657 38.8297C33.6862 38.73 33.6451 38.6052 33.6498 38.4779C33.6544 38.3506 33.7045 38.2291 33.7909 38.1355L35.5531 36.2443L34.4363 36.8843C34.3272 36.9472 34.1994 36.9694 34.0755 36.9472C33.9516 36.9249 33.8395 36.8595 33.7592 36.7626C33.6789 36.6656 33.6354 36.5434 33.6365 36.4175C33.6377 36.2916 33.6833 36.1702 33.7653 36.0747L35.9147 33.5797L34.4363 34.4331C34.322 34.4972 34.1882 34.517 34.0603 34.4887C33.9323 34.4604 33.8193 34.3861 33.7427 34.2798C33.6661 34.1735 33.6313 34.0428 33.6449 33.9125C33.6585 33.7822 33.7196 33.6615 33.8165 33.5733L34.2293 33.2075C34.1362 33.2173 34.0422 33.2029 33.9564 33.1655C33.8705 33.1281 33.7959 33.069 33.7397 32.9941C33.6621 32.8883 33.6262 32.7574 33.639 32.6268C33.6518 32.4961 33.7123 32.3747 33.8091 32.2859L34.4352 31.7099C34.3218 31.7707 34.1901 31.7885 34.0646 31.76C33.9391 31.7314 33.8282 31.6584 33.7523 31.5544C33.6764 31.4504 33.6406 31.3225 33.6517 31.1942C33.6627 31.066 33.7197 30.946 33.8123 30.8565L34.3157 30.4032C34.2023 30.4374 34.0806 30.4328 33.9701 30.3901C33.8595 30.3475 33.7663 30.2692 33.7052 30.1677C33.644 30.0662 33.6184 29.9472 33.6324 29.8296C33.6464 29.7119 33.6992 29.6022 33.7824 29.5179L35.3067 27.9467L34.4277 28.4544C34.3142 28.5185 34.1811 28.5389 34.0535 28.5115C33.926 28.4841 33.8129 28.411 33.7357 28.3059C33.6585 28.2008 33.6224 28.071 33.6344 27.9412C33.6463 27.8113 33.7054 27.6903 33.8005 27.6011L34.4405 27.0133L34.4277 27.0197C34.3132 27.0851 34.1785 27.1058 34.0497 27.0777C33.9208 27.0496 33.8069 26.9747 33.73 26.8676C33.6531 26.7605 33.6186 26.6286 33.6332 26.4976C33.6478 26.3665 33.7105 26.2455 33.8091 26.1579L34.1781 25.8379C34.0954 25.8375 34.0138 25.8192 33.9388 25.7842C33.8639 25.7492 33.7974 25.6984 33.744 25.6352C33.6647 25.535 33.624 25.4098 33.6293 25.2821C33.6346 25.1545 33.6855 25.033 33.7728 24.9397L35.52 23.0795L34.4373 23.7035C34.3253 23.7657 34.1946 23.7856 34.0691 23.7593C33.9437 23.7331 33.8318 23.6626 33.7541 23.5606C33.6764 23.4587 33.638 23.3322 33.6459 23.2043C33.6539 23.0763 33.7076 22.9556 33.7973 22.864L35.0923 21.5765L34.4395 21.952C34.3278 22.0156 34.197 22.0368 34.071 22.0116C33.945 21.9865 33.8323 21.9167 33.7537 21.815C33.675 21.7134 33.6357 21.5869 33.6429 21.4586C33.6502 21.3303 33.7035 21.2089 33.7931 21.1168L35.2331 19.6533L34.4395 20.1109C34.3265 20.1745 34.1942 20.1948 34.0674 20.168C33.9406 20.1411 33.8278 20.069 33.7503 19.9651C33.6728 19.8612 33.6358 19.7326 33.6462 19.6033C33.6566 19.4741 33.7138 19.3531 33.8069 19.2629L34.2827 18.8117C34.182 18.8334 34.0773 18.8256 33.981 18.789C33.8848 18.7525 33.8011 18.6889 33.7402 18.6059C33.6793 18.5229 33.6438 18.424 33.6378 18.3212C33.6318 18.2185 33.6558 18.1162 33.7067 18.0267L34.1333 17.28C34.0253 17.2617 33.9256 17.2105 33.8476 17.1335C33.7697 17.0565 33.7174 16.9573 33.6978 16.8495C33.6782 16.7417 33.6923 16.6305 33.7382 16.531C33.7841 16.4315 33.8595 16.3485 33.9541 16.2933L35.1925 15.5787C35.2938 15.5208 35.4111 15.4978 35.5267 15.513C35.6423 15.5282 35.7497 15.5809 35.8325 15.6629C35.9148 15.7456 35.9676 15.853 35.9831 15.9686C35.9985 16.0842 35.9756 16.2016 35.9179 16.3029L35.6085 16.8427L37.5669 15.7131C37.6806 15.644 37.8159 15.6198 37.9465 15.6454C38.077 15.6709 38.1933 15.7443 38.2725 15.8512C38.3517 15.958 38.3881 16.0906 38.3746 16.2229C38.3611 16.3553 38.2986 16.4778 38.1995 16.5664L37.808 16.9376L38.096 16.7723C38.2076 16.7087 38.3385 16.6875 38.4645 16.7127C38.5905 16.7378 38.7032 16.8076 38.7818 16.9092C38.8604 17.0108 38.8998 17.1374 38.8925 17.2657C38.8853 17.394 38.832 17.5154 38.7424 17.6075L37.3024 19.0709L38.096 18.6123C38.2082 18.5492 38.3394 18.5288 38.4654 18.5549C38.5914 18.5809 38.7038 18.6517 38.7817 18.754C38.8597 18.8564 38.898 18.9836 38.8896 19.112C38.8812 19.2404 38.8266 19.3615 38.736 19.4528L37.4389 20.7424L38.0939 20.3648C38.2045 20.3021 38.3339 20.2811 38.4587 20.3054C38.5835 20.3297 38.6955 20.3978 38.7745 20.4974C38.8535 20.597 38.8944 20.7216 38.8897 20.8487C38.8849 20.9757 38.835 21.0969 38.7488 21.1904L37.0133 23.0432L38.0939 22.4192C38.2084 22.3538 38.3431 22.3332 38.4719 22.3613C38.6008 22.3894 38.7147 22.4642 38.7916 22.5714C38.8685 22.6785 38.903 22.8103 38.8884 22.9414C38.8738 23.0725 38.8111 23.1935 38.7125 23.2811L38.3424 23.6011C38.5136 23.6121 38.6739 23.6885 38.7904 23.8144C38.8681 23.9203 38.9039 24.0511 38.8911 24.1818C38.8783 24.3125 38.8178 24.4339 38.7211 24.5227L38.0811 25.1104L38.0939 25.104C38.2053 25.0405 38.3359 25.0192 38.4617 25.0441C38.5875 25.0691 38.7001 25.1385 38.7789 25.2397C38.8577 25.3409 38.8974 25.4671 38.8907 25.5952C38.884 25.7233 38.8313 25.8446 38.7424 25.9371L37.2267 27.5083L38.1056 27.0005C38.2191 26.9389 38.351 26.9205 38.477 26.9488C38.603 26.9771 38.7145 27.0501 38.7907 27.1544C38.8669 27.2586 38.9027 27.387 38.8915 27.5156C38.8803 27.6442 38.8227 27.7644 38.7296 27.8539L38.2283 28.3061C38.3437 28.2737 38.4668 28.2812 38.5775 28.3273C38.6882 28.3734 38.7802 28.4555 38.8385 28.5603C38.8968 28.6651 38.9181 28.7865 38.8989 28.9049C38.8798 29.0233 38.8212 29.1318 38.7328 29.2128L38.1067 29.7877C38.221 29.7235 38.3551 29.7037 38.4832 29.732C38.6112 29.7604 38.7244 29.8349 38.8009 29.9415C38.8775 30.048 38.9121 30.179 38.8982 30.3094C38.8842 30.4399 38.8227 30.5606 38.7253 30.6485L38.3125 31.0144C38.419 31.0024 38.5267 31.0228 38.6215 31.0728C38.7162 31.1229 38.7937 31.2004 38.8438 31.2952C38.8939 31.3899 38.9143 31.4976 38.9023 31.6041C38.8903 31.7106 38.8464 31.811 38.7765 31.8923L36.6251 34.3893L38.1056 33.536C38.2163 33.4719 38.3463 33.4497 38.472 33.4734C38.5977 33.4971 38.7106 33.5653 38.7903 33.6654C38.8699 33.7654 38.911 33.8908 38.9059 34.0186C38.9008 34.1464 38.85 34.2682 38.7627 34.3616L37.0016 36.2517L38.1056 35.6117C38.2165 35.5483 38.3464 35.5268 38.4718 35.5511C38.5972 35.5754 38.7097 35.6439 38.7889 35.7441C38.8681 35.8443 38.9086 35.9696 38.9032 36.0972C38.8978 36.2249 38.8468 36.3463 38.7595 36.4395L38.1003 37.1371C38.2227 37.0675 38.3677 37.0491 38.5036 37.086C38.6395 37.1229 38.7553 37.2121 38.8257 37.334C38.8962 37.456 38.9155 37.6009 38.8795 37.737C38.8435 37.8732 38.7551 37.9896 38.6336 38.0608L35.4624 39.8933C35.3831 39.941 35.2925 39.9668 35.2 39.968Z" fill="#F2CF7E"></path>
<path d="M28.4128 39.968C28.3216 39.9682 28.2318 39.9449 28.1521 39.9005C28.0724 39.8561 28.0054 39.792 27.9576 39.7143C27.9097 39.6366 27.8826 39.5479 27.8789 39.4568C27.8751 39.3656 27.8948 39.275 27.936 39.1936L28.5525 37.9765L26.0651 39.4112C25.9528 39.4751 25.821 39.4961 25.6944 39.4702C25.5678 39.4444 25.4549 39.3734 25.3767 39.2705C25.2984 39.1677 25.2602 39.0399 25.2691 38.911C25.278 38.782 25.3334 38.6607 25.4251 38.5696L26.4672 37.5456L25.8997 37.8731C25.7903 37.9365 25.662 37.9591 25.5375 37.9367C25.413 37.9142 25.3005 37.8483 25.2202 37.7506C25.1398 37.653 25.0968 37.5299 25.0988 37.4035C25.1007 37.277 25.1476 37.1554 25.2309 37.0603L27.3173 34.6667L25.8987 35.4859C25.7891 35.5479 25.6611 35.5692 25.5373 35.546C25.4136 35.5227 25.302 35.4565 25.2224 35.3589C25.1429 35.2613 25.1004 35.1387 25.1025 35.0128C25.1047 34.8869 25.1513 34.7658 25.2341 34.6709L27.2373 32.4267L25.8987 33.2C25.7849 33.2657 25.651 33.2871 25.5225 33.2601C25.3939 33.2331 25.2799 33.1597 25.2021 33.0539C25.1242 32.9479 25.0881 32.8168 25.1009 32.6859C25.1137 32.555 25.1745 32.4334 25.2715 32.3445L25.8816 31.7877C25.7704 31.8457 25.6423 31.8627 25.5199 31.8357C25.3974 31.8086 25.2884 31.7393 25.212 31.6398C25.1356 31.5403 25.0966 31.4171 25.1021 31.2918C25.1075 31.1665 25.1569 31.0471 25.2416 30.9547L27.0688 28.9728L25.8955 29.6469C25.7825 29.716 25.6479 29.7407 25.5178 29.716C25.3877 29.6914 25.2714 29.6192 25.1916 29.5136C25.1117 29.4079 25.0741 29.2763 25.0859 29.1444C25.0977 29.0126 25.1581 28.8898 25.2555 28.8L26.2645 27.8336L25.8901 28.0469C25.7756 28.1123 25.6409 28.133 25.5121 28.1049C25.3832 28.0768 25.2693 28.0019 25.1924 27.8948C25.1155 27.7876 25.081 27.6558 25.0956 27.5247C25.1102 27.3937 25.1729 27.2727 25.2715 27.1851L25.6587 26.8437C25.5475 26.851 25.4368 26.8232 25.3422 26.7643C25.2476 26.7054 25.1738 26.6184 25.1312 26.5154C25.0886 26.4124 25.0793 26.2987 25.1047 26.1902C25.13 26.0817 25.1887 25.9838 25.2725 25.9104L25.6384 25.6C25.555 25.6094 25.4706 25.5949 25.3951 25.5583C25.3196 25.5217 25.256 25.4644 25.2117 25.3931C25.1328 25.2909 25.0936 25.1635 25.1015 25.0346C25.1093 24.9058 25.1637 24.7841 25.2544 24.6923L26.6667 23.2651L25.904 23.7045C25.7928 23.7688 25.6621 23.7907 25.536 23.7663C25.4099 23.742 25.2969 23.6729 25.2176 23.5718C25.1383 23.4708 25.0982 23.3445 25.1046 23.2162C25.1109 23.088 25.1634 22.9663 25.2523 22.8736L26.8768 21.1755L25.904 21.7365C25.7949 21.7994 25.6671 21.8217 25.5432 21.7994C25.4193 21.7771 25.3073 21.7118 25.2269 21.6148C25.1466 21.5179 25.1032 21.3956 25.1043 21.2698C25.1054 21.1439 25.151 21.0224 25.2331 20.9269L27.2448 18.592L25.904 19.3653C25.8064 19.4215 25.6936 19.4453 25.5816 19.4334C25.4697 19.4215 25.3644 19.3744 25.2808 19.299C25.1972 19.2236 25.1396 19.1237 25.1163 19.0135C25.093 18.9034 25.1051 18.7887 25.1509 18.6859L25.7909 17.2715C25.683 17.2889 25.5722 17.2736 25.473 17.2276C25.3738 17.1816 25.2906 17.107 25.2341 17.0133C25.1637 16.8909 25.1448 16.7456 25.1814 16.6092C25.218 16.4729 25.3071 16.3566 25.4293 16.2859L26.6677 15.5712C26.7653 15.5151 26.8782 15.4912 26.9901 15.5031C27.1021 15.5151 27.2074 15.5621 27.291 15.6375C27.3745 15.7129 27.4321 15.8129 27.4554 15.923C27.4788 16.0331 27.4666 16.1478 27.4208 16.2507L26.8064 17.6149L29.4293 16.096C29.5384 16.0331 29.6662 16.0108 29.7901 16.0331C29.914 16.0554 30.0261 16.1208 30.1064 16.2177C30.1867 16.3146 30.2302 16.4369 30.2291 16.5628C30.2279 16.6887 30.1823 16.8101 30.1003 16.9056L28.0875 19.2416L29.568 18.3883C29.6792 18.324 29.8099 18.3021 29.936 18.3264C30.0621 18.3508 30.1751 18.4199 30.2544 18.5209C30.3337 18.622 30.3738 18.7483 30.3674 18.8765C30.3611 19.0048 30.3086 19.1265 30.2197 19.2192L28.5973 20.9152L29.568 20.3552C29.6797 20.2915 29.8107 20.2704 29.9368 20.2957C30.0629 20.321 30.1756 20.391 30.2542 20.4928C30.3328 20.5946 30.3719 20.7214 30.3644 20.8498C30.3569 20.9782 30.3032 21.0995 30.2133 21.1915L28.8053 22.6133L29.568 22.1739C29.6826 22.1083 29.8176 22.0876 29.9466 22.1157C30.0757 22.1439 30.1897 22.219 30.2665 22.3264C30.3434 22.4338 30.3777 22.5659 30.3627 22.6972C30.3478 22.8284 30.2847 22.9494 30.1856 23.0368L29.8272 23.3504C29.9138 23.3444 30.0004 23.3618 30.0779 23.4009C30.1554 23.4399 30.221 23.4991 30.2677 23.5723C30.3449 23.6798 30.3793 23.8121 30.3643 23.9436C30.3494 24.0751 30.286 24.1963 30.1867 24.2837L29.7995 24.6251C29.8877 24.6224 29.9754 24.6403 30.0555 24.6773C30.1357 24.7143 30.2061 24.7695 30.2613 24.8384C30.3394 24.9428 30.3765 25.0721 30.3657 25.2021C30.3549 25.332 30.2969 25.4534 30.2027 25.5435L29.1936 26.5109L29.568 26.2976C29.6784 26.2342 29.8079 26.2125 29.933 26.2362C30.0581 26.26 30.1706 26.3277 30.2501 26.4272C30.3295 26.5267 30.3708 26.6513 30.3664 26.7786C30.3621 26.9058 30.3123 27.0273 30.2261 27.1211L28.4 29.1008L29.568 28.4267C29.6816 28.3625 29.8147 28.3422 29.9422 28.3696C30.0697 28.3969 30.1828 28.4701 30.26 28.5752C30.3373 28.6803 30.3733 28.81 30.3614 28.9399C30.3494 29.0698 30.2903 29.1908 30.1952 29.28L29.5851 29.8379C29.6955 29.7798 29.8228 29.7623 29.9448 29.7885C30.0668 29.8146 30.1758 29.8827 30.2528 29.9808C30.3298 30.079 30.37 30.2011 30.3663 30.3258C30.3626 30.4506 30.3152 30.57 30.2325 30.6635L28.2293 32.9152L29.568 32.1429C29.6774 32.0794 29.8058 32.0569 29.9302 32.0793C30.0547 32.1017 30.1672 32.1677 30.2475 32.2653C30.3279 32.363 30.3709 32.486 30.369 32.6125C30.367 32.739 30.3202 32.8606 30.2368 32.9557L28.1493 35.3451L29.568 34.5248C29.6803 34.4608 29.812 34.4399 29.9386 34.4657C30.0652 34.4916 30.1782 34.5626 30.2564 34.6654C30.3346 34.7683 30.3728 34.8961 30.3639 35.025C30.355 35.1539 30.2996 35.2752 30.208 35.3664L29.1637 36.3936L29.568 36.16C29.6676 36.1007 29.7837 36.0755 29.8989 36.0882C30.014 36.1008 30.122 36.1506 30.2063 36.23C30.2907 36.3094 30.3469 36.4141 30.3664 36.5283C30.386 36.6425 30.3678 36.76 30.3147 36.8629L29.6821 38.1141C29.8071 38.0821 29.9394 38.0965 30.0546 38.1545C30.1698 38.2126 30.26 38.3105 30.3086 38.43C30.3572 38.5495 30.3608 38.6826 30.3187 38.8045C30.2767 38.9265 30.1919 39.0291 30.08 39.0933L28.6837 39.8987C28.6012 39.9455 28.5077 39.9694 28.4128 39.968Z" fill="#F2CF7E"></path>
<path d="M18.0363 39.9573C17.9341 39.9572 17.834 39.9278 17.748 39.8724C17.662 39.817 17.5937 39.7381 17.5514 39.645C17.509 39.5519 17.4943 39.4486 17.5089 39.3474C17.5236 39.2462 17.5671 39.1513 17.6342 39.0741L18.8011 37.7323L17.3654 38.5611C17.2513 38.625 17.1176 38.6447 16.9899 38.6166C16.8621 38.5884 16.7492 38.5142 16.6726 38.4082C16.5959 38.3022 16.5609 38.1717 16.5742 38.0416C16.5875 37.9114 16.6481 37.7907 16.7446 37.7024L17.1798 37.3131C17.0714 37.3297 16.9605 37.3125 16.8621 37.2639C16.7638 37.2152 16.6829 37.1374 16.6304 37.0411C16.578 36.9447 16.5565 36.8346 16.5689 36.7256C16.5813 36.6166 16.627 36.5141 16.6998 36.432L18.7179 34.1579L17.3654 34.9387C17.2538 35.0023 17.1229 35.0234 16.9969 34.9983C16.8709 34.9731 16.7582 34.9033 16.6796 34.8017C16.601 34.7001 16.5616 34.5735 16.5689 34.4452C16.5761 34.3169 16.6294 34.1956 16.719 34.1035L18.1707 32.6261L17.3654 33.0901C17.2554 33.1528 17.1267 33.1743 17.0023 33.1508C16.8779 33.1273 16.7659 33.0603 16.6864 32.9618C16.6069 32.8632 16.565 32.7397 16.5682 32.6131C16.5714 32.4865 16.6196 32.3652 16.7041 32.2709L18.6081 30.1739L17.3654 30.8917C17.2532 30.9548 17.122 30.9752 16.996 30.9491C16.87 30.9231 16.7576 30.8523 16.6797 30.75C16.6017 30.6476 16.5634 30.5204 16.5718 30.392C16.5802 30.2636 16.6348 30.1425 16.7254 30.0512L17.9745 28.8181L17.3665 29.168C17.2567 29.2314 17.1279 29.2536 17.0032 29.2306C16.8785 29.2077 16.766 29.141 16.686 29.0426C16.606 28.9443 16.5637 28.8206 16.5666 28.6939C16.5695 28.5671 16.6175 28.4455 16.7019 28.3509L18.6945 26.1163L17.3654 26.88C17.2539 26.9436 17.1232 26.9648 16.9973 26.9397C16.8714 26.9147 16.7587 26.8451 16.68 26.7437C16.6013 26.6423 16.5618 26.5159 16.5687 26.3877C16.5757 26.2595 16.6287 26.1381 16.7179 26.0459L18.1931 24.5408L17.3654 25.0176C17.2563 25.0805 17.1285 25.1028 17.0046 25.0805C16.8807 25.0582 16.7687 24.9928 16.6883 24.8959C16.608 24.7989 16.5646 24.6767 16.5657 24.5508C16.5668 24.4249 16.6124 24.3035 16.6945 24.208L18.8449 21.7109L17.3654 22.5643C17.2518 22.6346 17.1159 22.6596 16.9846 22.6345C16.8533 22.6094 16.7363 22.5359 16.6566 22.4286C16.577 22.3213 16.5405 22.188 16.5544 22.0551C16.5683 21.9222 16.6316 21.7994 16.7318 21.7109L17.6705 20.8181L17.3654 20.9941C17.2519 21.0566 17.1196 21.0756 16.9931 21.0476C16.8666 21.0196 16.7546 20.9465 16.6781 20.842C16.6015 20.7375 16.5656 20.6087 16.5771 20.4797C16.5885 20.3506 16.6466 20.2302 16.7403 20.1408L17.2555 19.6736C17.1588 19.7033 17.0557 19.7049 16.9581 19.6783C16.8605 19.6516 16.7725 19.5977 16.7044 19.5228C16.6363 19.448 16.5909 19.3554 16.5734 19.2557C16.556 19.1561 16.5673 19.0535 16.6059 18.96L17.311 17.2533C17.1956 17.2875 17.072 17.282 16.9601 17.2377C16.8481 17.1934 16.7543 17.1129 16.6934 17.0091C16.623 16.8867 16.604 16.7414 16.6406 16.605C16.6772 16.4686 16.7664 16.3523 16.8886 16.2816L18.127 15.5669C18.2234 15.5115 18.3347 15.4875 18.4454 15.4985C18.556 15.5094 18.6605 15.5546 18.7442 15.6278C18.8279 15.7011 18.8866 15.7986 18.9121 15.9068C18.9376 16.0151 18.9286 16.1286 18.8865 16.2315L18.1899 17.9211L20.9878 16.3061C21.1013 16.2437 21.2337 16.2247 21.3601 16.2527C21.4866 16.2807 21.5986 16.3537 21.6751 16.4582C21.7517 16.5628 21.7876 16.6916 21.7761 16.8206C21.7647 16.9496 21.7066 17.0701 21.6129 17.1595L21.1201 17.6064C21.2353 17.5648 21.3613 17.5641 21.4769 17.6044C21.5926 17.6448 21.6908 17.7237 21.7552 17.8279C21.8195 17.9322 21.846 18.0554 21.8301 18.1768C21.8143 18.2983 21.7572 18.4106 21.6683 18.4949L20.7297 19.3877L21.0347 19.2117C21.1437 19.1495 21.2711 19.1276 21.3946 19.15C21.518 19.1724 21.6297 19.2376 21.7098 19.3342C21.7899 19.4308 21.8334 19.5525 21.8327 19.678C21.8319 19.8035 21.787 19.9247 21.7057 20.0203L19.5542 22.5184L21.0347 21.6651C21.1464 21.6007 21.2776 21.5789 21.4041 21.6037C21.5305 21.6286 21.6437 21.6984 21.7227 21.8003C21.8017 21.9022 21.8411 22.0292 21.8336 22.1579C21.8262 22.2866 21.7724 22.4082 21.6822 22.5003L20.2091 24.0032L21.0347 23.5275C21.1444 23.4647 21.2728 23.443 21.397 23.4661C21.5213 23.4892 21.6333 23.5557 21.713 23.6537C21.7928 23.7516 21.8352 23.8748 21.8327 24.0011C21.8302 24.1274 21.7829 24.2487 21.6993 24.3435L19.7046 26.5835L21.0347 25.8155C21.1469 25.7524 21.2781 25.732 21.4041 25.758C21.5302 25.7841 21.6425 25.8548 21.7205 25.9572C21.7985 26.0596 21.8368 26.1868 21.8284 26.3152C21.8199 26.4436 21.7654 26.5646 21.6747 26.656L20.4267 27.8923L21.0347 27.5424C21.1449 27.479 21.274 27.457 21.3989 27.4804C21.5238 27.5038 21.6362 27.571 21.716 27.6699C21.7957 27.7688 21.8375 27.8929 21.8339 28.0199C21.8302 28.147 21.7814 28.2685 21.6961 28.3627L19.7931 30.4576L21.0347 29.7408C21.1464 29.6772 21.2772 29.656 21.4032 29.6812C21.5292 29.7063 21.6419 29.7761 21.7205 29.8778C21.7992 29.9794 21.8385 30.1059 21.8313 30.2342C21.824 30.3625 21.7707 30.4839 21.6811 30.576L20.2294 32.0533L21.0347 31.5883C21.1444 31.5248 21.2731 31.5025 21.3978 31.5254C21.5224 31.5482 21.6349 31.6147 21.715 31.7129C21.795 31.8111 21.8376 31.9346 21.8349 32.0613C21.8322 32.1879 21.7845 32.3095 21.7003 32.4043L19.6801 34.6805L21.0347 33.8987C21.149 33.8336 21.2833 33.8131 21.4118 33.841C21.5403 33.869 21.6539 33.9434 21.7309 34.05C21.8079 34.1566 21.8427 34.2879 21.8288 34.4186C21.8149 34.5494 21.7532 34.6704 21.6555 34.7584L21.2214 35.1456C21.3292 35.1294 21.4394 35.1467 21.5371 35.195C21.6348 35.2434 21.7154 35.3205 21.7679 35.416C21.8204 35.5116 21.8424 35.6209 21.8309 35.7293C21.8194 35.8377 21.775 35.94 21.7035 36.0224L20.5302 37.3643L21.0294 37.0773C21.1513 37.0136 21.2931 36.9994 21.4252 37.0377C21.5573 37.076 21.6695 37.1639 21.7384 37.283C21.8072 37.4021 21.8274 37.5432 21.7946 37.6768C21.7619 37.8104 21.6788 37.9262 21.5627 38L18.2977 39.8859C18.2182 39.9318 18.1281 39.9564 18.0363 39.9573Z" fill="#F2CF7E"></path>
<path d="M9.70666 48.5013C9.60167 48.5015 9.49896 48.4707 9.4114 48.4128C9.32383 48.3549 9.25531 48.2724 9.21442 48.1757C9.17354 48.079 9.1621 47.9724 9.18154 47.8692C9.20098 47.766 9.25045 47.6709 9.32373 47.5957L9.696 47.2149L8.87893 47.6853C8.76543 47.7478 8.63308 47.7668 8.50659 47.7388C8.38011 47.7108 8.26814 47.6377 8.19158 47.5332C8.11503 47.4287 8.07913 47.2999 8.09059 47.1709C8.10206 47.0418 8.16009 46.9214 8.25386 46.832L8.73813 46.3936C8.62749 46.4303 8.50787 46.4297 8.39757 46.392C8.28728 46.3542 8.19239 46.2814 8.12742 46.1846C8.06246 46.0878 8.03099 45.9724 8.03783 45.8561C8.04468 45.7397 8.08946 45.6288 8.16533 45.5403L10.24 43.1659L8.832 43.9776C8.7175 44.042 8.58325 44.0619 8.45499 44.0335C8.32673 44.005 8.21348 43.9302 8.13696 43.8234C8.06043 43.7166 8.02602 43.5854 8.04031 43.4548C8.0546 43.3242 8.11659 43.2034 8.2144 43.1157L8.57386 42.7957C8.49123 42.8004 8.40875 42.7841 8.33414 42.7483C8.25952 42.7125 8.19521 42.6583 8.1472 42.5909C8.06789 42.4898 8.02778 42.3634 8.03425 42.235C8.04071 42.1066 8.09332 41.9849 8.1824 41.8923L9.76106 40.2539L8.83306 40.7872C8.71948 40.8522 8.58594 40.8732 8.45788 40.8462C8.32981 40.8192 8.21616 40.746 8.13856 40.6406C8.06096 40.5352 8.02483 40.4049 8.03704 40.2746C8.04925 40.1443 8.10896 40.023 8.2048 39.9339L8.85653 39.3365L8.832 39.36C8.72132 39.4241 8.59129 39.4463 8.46561 39.4226C8.33992 39.3989 8.22695 39.3307 8.1473 39.2306C8.06765 39.1306 8.02662 39.0052 8.03169 38.8774C8.03676 38.7496 8.0876 38.6278 8.17493 38.5344L9.95306 36.624L8.832 37.2715C8.72293 37.3344 8.59513 37.3566 8.47122 37.3344C8.34731 37.3121 8.23527 37.2467 8.15494 37.1497C8.0746 37.0528 8.03115 36.9306 8.03227 36.8047C8.03339 36.6788 8.07901 36.5574 8.16106 36.4619L10.3211 33.9488L8.82773 34.8085C8.71485 34.8729 8.58236 34.8938 8.45514 34.8674C8.32792 34.841 8.21472 34.769 8.1368 34.665C8.05888 34.561 8.0216 34.4322 8.03196 34.3027C8.04232 34.1731 8.09961 34.0519 8.19306 33.9616L9.2064 32.9909L8.82773 33.2043C8.71342 33.2703 8.5787 33.2915 8.44961 33.264C8.32052 33.2364 8.20625 33.1619 8.12889 33.055C8.05153 32.948 8.01658 32.8162 8.03079 32.685C8.04501 32.5537 8.10739 32.4324 8.20586 32.3445L8.65173 31.9477C8.53721 31.9677 8.41932 31.9496 8.31599 31.8964C8.21266 31.8432 8.12956 31.7576 8.07932 31.6528C8.02908 31.548 8.01447 31.4296 8.03769 31.3157C8.06092 31.2018 8.12072 31.0986 8.208 31.0219L8.608 30.6688C8.52066 30.6745 8.43321 30.6595 8.35276 30.625C8.27232 30.5906 8.20115 30.5376 8.14506 30.4704C8.0655 30.3708 8.02423 30.246 8.02873 30.1186C8.03323 29.9913 8.0832 29.8697 8.1696 29.776L9.9968 27.7952L8.82346 28.4683C8.70996 28.5307 8.57761 28.5497 8.45113 28.5217C8.32464 28.4937 8.21267 28.4206 8.13612 28.3161C8.05956 28.2116 8.02367 28.0828 8.03513 27.9538C8.04659 27.8248 8.10462 27.7043 8.1984 27.6149L8.74346 27.12C8.62836 27.1624 8.50216 27.1639 8.38611 27.1241C8.27006 27.0844 8.17126 27.0058 8.10637 26.9017C8.04148 26.7976 8.01445 26.6743 8.02986 26.5526C8.04526 26.4309 8.10215 26.3182 8.19093 26.2336L9.1232 25.3483L8.82346 25.52C8.71184 25.58 8.5825 25.5983 8.45861 25.5716C8.33472 25.545 8.22437 25.475 8.14735 25.3744C8.07033 25.2737 8.03167 25.149 8.03828 25.0224C8.0449 24.8959 8.09637 24.7758 8.18346 24.6837L9.6 23.2459L8.82773 23.6917C8.71697 23.7551 8.58714 23.7767 8.46183 23.7525C8.33651 23.7284 8.22401 23.6601 8.14476 23.56C8.06551 23.46 8.02476 23.3349 8.0299 23.2073C8.03504 23.0798 8.08574 22.9584 8.1728 22.8651L9.89013 21.0453L8.832 21.6533C8.72155 21.7167 8.59208 21.7385 8.46699 21.7147C8.3419 21.6909 8.22944 21.6232 8.14994 21.5237C8.07044 21.4242 8.02916 21.2996 8.03354 21.1724C8.03793 21.0451 8.0877 20.9236 8.17386 20.8299L9.93173 18.9237L8.832 19.5584C8.73526 19.6143 8.62341 19.6384 8.51222 19.6273C8.40104 19.6163 8.29615 19.5706 8.21234 19.4967C8.12854 19.4228 8.07007 19.3244 8.04517 19.2155C8.02027 19.1065 8.03022 18.9926 8.0736 18.8896L8.76266 17.2587C8.63774 17.2926 8.50473 17.2799 8.38844 17.2231C8.27215 17.1662 8.18053 17.0689 8.13065 16.9495C8.08078 16.83 8.07606 16.6965 8.11737 16.5738C8.15869 16.4511 8.24322 16.3476 8.3552 16.2827L9.5936 15.568C9.69033 15.5121 9.80219 15.4879 9.91337 15.499C10.0246 15.5101 10.1294 15.5558 10.2132 15.6297C10.2971 15.7036 10.3555 15.802 10.3804 15.9109C10.4053 16.0198 10.3954 16.1338 10.352 16.2368L9.67466 17.8368L12.432 16.2432C12.5424 16.1798 12.6719 16.158 12.797 16.1818C12.9221 16.2056 13.0346 16.2733 13.1141 16.3728C13.1935 16.4723 13.2348 16.5969 13.2304 16.7242C13.2261 16.8514 13.1763 16.9729 13.0901 17.0667L11.3312 18.9867L12.5045 18.3115C12.6153 18.2481 12.7451 18.2265 12.8704 18.2506C12.9957 18.2748 13.1082 18.3431 13.1875 18.4431C13.2667 18.5432 13.3075 18.6683 13.3024 18.7958C13.2972 18.9233 13.2465 19.0448 13.1595 19.1381L11.4464 20.9579L12.5045 20.3467C12.6161 20.2866 12.7455 20.2683 12.8694 20.295C12.9933 20.3217 13.1036 20.3916 13.1806 20.4923C13.2577 20.5929 13.2963 20.7177 13.2897 20.8442C13.2831 20.9708 13.2316 21.0909 13.1445 21.1829L11.7333 22.6133L12.5035 22.1685C12.6171 22.0994 12.7525 22.0753 12.883 22.1008C13.0135 22.1264 13.1298 22.1998 13.209 22.3066C13.2882 22.4135 13.3247 22.5461 13.3111 22.6784C13.2976 22.8107 13.2352 22.9332 13.136 23.0219L12.2016 23.9104L12.5035 23.7365C12.617 23.6741 12.7493 23.6551 12.8758 23.6831C13.0023 23.7111 13.1143 23.7841 13.1908 23.8886C13.2674 23.9931 13.3033 24.1219 13.2918 24.251C13.2803 24.38 13.2223 24.5005 13.1285 24.5899L12.5835 25.0848C12.6957 25.0432 12.8187 25.0406 12.9326 25.0774C13.0465 25.1142 13.1447 25.1882 13.2115 25.2876C13.2782 25.3869 13.3096 25.5059 13.3005 25.6252C13.2915 25.7446 13.2425 25.8574 13.1616 25.9456L11.3355 27.9264L12.5088 27.2523C12.6234 27.1858 12.7585 27.1644 12.888 27.1922C13.0175 27.2199 13.132 27.2948 13.2093 27.4023C13.2866 27.5098 13.3212 27.6422 13.3062 27.7738C13.2913 27.9054 13.228 28.0267 13.1285 28.1141L12.7285 28.4672C12.8401 28.4573 12.952 28.4829 13.0483 28.5402C13.1446 28.5976 13.2204 28.6838 13.2649 28.7866C13.3094 28.8894 13.3204 29.0037 13.2963 29.1131C13.2722 29.2226 13.2142 29.3216 13.1307 29.3963L12.6837 29.7952C12.7961 29.776 12.9117 29.7933 13.0136 29.8447C13.1154 29.896 13.1981 29.9786 13.2495 30.0804C13.3009 30.1822 13.3184 30.2978 13.2993 30.4102C13.2802 30.5226 13.2256 30.626 13.1435 30.7051L12.1301 31.6757L12.5088 31.4624C12.6179 31.3995 12.7457 31.3772 12.8696 31.3995C12.9935 31.4218 13.1055 31.4872 13.1859 31.5841C13.2662 31.681 13.3096 31.8033 13.3085 31.9292C13.3074 32.0551 13.2618 32.1765 13.1797 32.272L11.0133 34.7733L12.5067 33.92C12.6172 33.8566 12.7468 33.8349 12.872 33.8588C12.9971 33.8827 13.1096 33.9506 13.189 34.0503C13.2684 34.15 13.3095 34.2748 13.3049 34.4021C13.3003 34.5294 13.2502 34.6509 13.1637 34.7445L11.3835 36.6571L12.5067 36.0096C12.6202 35.9446 12.7538 35.9236 12.8818 35.9506C13.0099 35.9776 13.1236 36.0508 13.2012 36.1562C13.2788 36.2616 13.3149 36.3919 13.3027 36.5222C13.2905 36.6525 13.2308 36.7738 13.1349 36.8629L12.4832 37.4603L12.5067 37.4475C12.618 37.3832 12.7488 37.3613 12.875 37.3858C13.0012 37.4103 13.1143 37.4795 13.1934 37.5808C13.2726 37.682 13.3126 37.8085 13.306 37.9369C13.2993 38.0653 13.2465 38.1869 13.1573 38.2795L11.5787 39.9179L12.5067 39.3845C12.6213 39.3189 12.7562 39.2982 12.8853 39.3264C13.0143 39.3546 13.1283 39.4297 13.2052 39.5371C13.2821 39.6445 13.3164 39.7766 13.3014 39.9078C13.2864 40.0391 13.2233 40.1601 13.1243 40.2475L12.7659 40.56C12.8691 40.5585 12.9705 40.5869 13.0579 40.6419C13.1453 40.6969 13.2148 40.7761 13.258 40.8698C13.3013 40.9635 13.3164 41.0678 13.3016 41.17C13.2867 41.2721 13.2425 41.3678 13.1744 41.4453L11.0933 43.8091L12.5013 42.9973C12.6148 42.9349 12.7472 42.9159 12.8737 42.9439C13.0002 42.9719 13.1121 43.0449 13.1887 43.1494C13.2652 43.254 13.3011 43.3827 13.2897 43.5118C13.2782 43.6408 13.2202 43.7613 13.1264 43.8507L12.6208 44.3093C12.7341 44.2756 12.8553 44.2804 12.9656 44.3231C13.0758 44.3657 13.1687 44.4438 13.2297 44.545C13.2908 44.6462 13.3165 44.7648 13.3028 44.8822C13.2891 44.9996 13.2368 45.1091 13.1541 45.1936L12.6901 45.6704C12.7964 45.6541 12.9051 45.6704 13.002 45.717C13.0989 45.7637 13.1795 45.8385 13.2331 45.9317C13.3035 46.054 13.3227 46.1992 13.2863 46.3356C13.2499 46.4719 13.161 46.5883 13.0389 46.6592L9.97226 48.4267C9.89201 48.4749 9.80029 48.5007 9.70666 48.5013Z" fill="#F2CF7E"></path>
<path d="M52.1439 48.4875C52.0401 48.4875 51.9386 48.4573 51.8517 48.4005C51.7648 48.3437 51.6964 48.2628 51.6548 48.1676C51.6132 48.0725 51.6003 47.9673 51.6177 47.865C51.635 47.7626 51.6819 47.6676 51.7525 47.5915L52.6517 46.6187L51.4986 47.2843C51.3875 47.347 51.2577 47.3678 51.1326 47.343C51.0075 47.3181 50.8954 47.2493 50.8167 47.1489C50.738 47.0485 50.6979 46.9233 50.7036 46.7959C50.7093 46.6684 50.7605 46.5473 50.8479 46.4544L52.4479 44.7787L51.4933 45.3301C51.3834 45.3935 51.2545 45.4156 51.1297 45.3925C51.0049 45.3694 50.8925 45.3026 50.8126 45.2041C50.7327 45.1055 50.6905 44.9817 50.6936 44.8548C50.6968 44.728 50.7451 44.6064 50.8298 44.512L52.7999 42.3296L51.5029 43.0763C51.3912 43.1399 51.2604 43.161 51.1344 43.1359C51.0084 43.1107 50.8957 43.0409 50.8171 42.9393C50.7384 42.8377 50.6991 42.7111 50.7064 42.5828C50.7136 42.4545 50.7669 42.3332 50.8565 42.2411L52.3029 40.7701L51.5029 41.2309C51.3937 41.2938 51.2658 41.316 51.1419 41.2935C51.0179 41.2711 50.9059 41.2056 50.8256 41.1085C50.7454 41.0113 50.7021 40.889 50.7035 40.763C50.7048 40.637 50.7507 40.5156 50.833 40.4203L52.9599 37.9669L51.5029 38.8085C51.3925 38.8726 51.2628 38.895 51.1374 38.8717C51.0119 38.8483 50.899 38.7808 50.8191 38.6812C50.7392 38.5817 50.6976 38.4569 50.702 38.3293C50.7063 38.2018 50.7562 38.08 50.8426 37.9861L52.7029 35.9467L51.4986 36.6411C51.3886 36.7037 51.2599 36.7252 51.1355 36.7017C51.0111 36.6782 50.8991 36.6112 50.8196 36.5127C50.7401 36.4142 50.6982 36.2906 50.7014 36.164C50.7046 36.0375 50.7528 35.9162 50.8373 35.8219L52.7466 33.7163L51.4986 34.4373C51.3868 34.4981 51.2571 34.5169 51.1327 34.4903C51.0083 34.4638 50.8975 34.3937 50.8202 34.2926C50.743 34.1915 50.7044 34.0662 50.7114 33.9392C50.7185 33.8122 50.7707 33.6919 50.8586 33.6L52.2218 32.2315L51.5029 32.6453C51.392 32.7087 51.2621 32.7303 51.1367 32.706C51.0113 32.6817 50.8988 32.6132 50.8196 32.513C50.7404 32.4127 50.6998 32.2874 50.7052 32.1598C50.7106 32.0322 50.7617 31.9108 50.849 31.8176L52.5269 30.0469L51.5029 30.6379C51.3921 30.702 51.2619 30.7242 51.1362 30.7003C51.0104 30.6764 50.8974 30.6081 50.8179 30.5078C50.7383 30.4076 50.6974 30.282 50.7028 30.1541C50.7081 30.0262 50.7592 29.9045 50.8469 29.8112L52.5866 27.9563L51.4986 28.5867C51.3858 28.6546 51.2518 28.6784 51.1225 28.6534C50.9932 28.6285 50.8777 28.5566 50.7982 28.4515C50.7187 28.3465 50.681 28.2158 50.6921 28.0846C50.7033 27.9534 50.7626 27.8309 50.8586 27.7408L51.9071 26.7317L51.4943 26.9685C51.3841 27.0312 51.2552 27.0525 51.1307 27.0288C51.0061 27.005 50.8942 26.9376 50.8148 26.8387C50.7354 26.7398 50.6939 26.6159 50.6976 26.4892C50.7014 26.3625 50.7501 26.2412 50.8351 26.1472L52.6954 24.1205L51.4943 24.8139C51.3808 24.8763 51.2485 24.8953 51.122 24.8673C50.9955 24.8393 50.8836 24.7663 50.807 24.6617C50.7304 24.5572 50.6945 24.4284 50.706 24.2994C50.7175 24.1704 50.7755 24.0499 50.8693 23.9605L51.3951 23.4859C51.2932 23.5206 51.1831 23.5232 51.0797 23.4932C50.9763 23.4633 50.8846 23.4022 50.817 23.3184C50.7364 23.221 50.693 23.0982 50.6946 22.9718C50.6962 22.8454 50.7426 22.7236 50.8255 22.6283L52.9183 20.2315L51.4943 21.0539C51.3843 21.1172 51.2553 21.1393 51.1305 21.1161C51.0057 21.0928 50.8932 21.0258 50.8134 20.9271C50.7335 20.8283 50.6916 20.7044 50.695 20.5774C50.6984 20.4505 50.7469 20.329 50.8319 20.2347L52.4234 18.4725L51.4943 19.0059C51.3945 19.0635 51.2786 19.0873 51.1641 19.0735C51.0496 19.0598 50.9426 19.0093 50.8592 18.9297C50.7758 18.85 50.7205 18.7454 50.7015 18.6317C50.6826 18.5179 50.701 18.4011 50.7541 18.2987L51.2767 17.2896C51.1603 17.2876 51.0477 17.2475 50.9562 17.1755C50.8647 17.1035 50.7992 17.0036 50.7699 16.8909C50.7405 16.7782 50.7488 16.659 50.7935 16.5515C50.8382 16.444 50.9169 16.3541 51.0175 16.2955L52.2559 15.5808C52.3557 15.5234 52.4714 15.4998 52.5857 15.5136C52.7 15.5274 52.8067 15.5777 52.89 15.6572C52.9733 15.7366 53.0286 15.8409 53.0478 15.9544C53.0669 16.0679 53.0488 16.1846 52.9962 16.2869L52.5397 17.1712L54.8266 15.8443C54.9365 15.7809 55.0654 15.7587 55.1902 15.7818C55.315 15.805 55.4274 15.8718 55.5073 15.9703C55.5872 16.0689 55.6294 16.1927 55.6262 16.3195C55.6231 16.4464 55.5748 16.5679 55.4901 16.6624L53.8975 18.4245L55.169 17.6917C55.2784 17.6282 55.4068 17.6057 55.5313 17.6281C55.6557 17.6505 55.7682 17.7165 55.8486 17.8141C55.9289 17.9118 55.972 18.0348 55.97 18.1613C55.968 18.2878 55.9212 18.4094 55.8378 18.5045L53.7461 20.9003L55.169 20.0779C55.2825 20.0154 55.4149 19.9964 55.5414 20.0244C55.6678 20.0524 55.7798 20.1255 55.8564 20.23C55.9329 20.3345 55.9688 20.4633 55.9574 20.5923C55.9459 20.7214 55.8879 20.8418 55.7941 20.9312L55.2671 21.4069C55.3705 21.3737 55.4815 21.3724 55.5856 21.4033C55.6896 21.4341 55.782 21.4956 55.8506 21.5797C55.9305 21.6791 55.9721 21.8037 55.968 21.9311C55.9639 22.0585 55.9143 22.1802 55.8282 22.2741L53.9701 24.3008L55.169 23.6085C55.2818 23.5406 55.4158 23.5168 55.5451 23.5418C55.6744 23.5667 55.79 23.6386 55.8694 23.7436C55.9489 23.8487 55.9867 23.9794 55.9755 24.1106C55.9644 24.2418 55.9051 24.3643 55.809 24.4544L54.7573 25.4667L55.1733 25.2267C55.2841 25.1625 55.4142 25.1404 55.54 25.1642C55.6657 25.1881 55.7787 25.2564 55.8583 25.3567C55.9379 25.457 55.9787 25.5825 55.9734 25.7104C55.9681 25.8383 55.9169 25.96 55.8293 26.0533L54.0799 27.9168L55.1647 27.2907C55.2756 27.2272 55.4056 27.2057 55.531 27.23C55.6564 27.2543 55.7689 27.3228 55.848 27.423C55.9272 27.5232 55.9678 27.6486 55.9624 27.7762C55.957 27.9038 55.906 28.0252 55.8186 28.1184L54.1386 29.8912L55.1647 29.3003C55.2765 29.2395 55.4063 29.2207 55.5307 29.2473C55.6551 29.2738 55.7659 29.3439 55.8431 29.445C55.9204 29.5461 55.959 29.6714 55.9519 29.7984C55.9449 29.9254 55.8927 30.0457 55.8048 30.1376L54.4415 31.5061L55.1605 31.0912C55.2706 31.0278 55.3997 31.0058 55.5246 31.0292C55.6495 31.0526 55.762 31.1198 55.8417 31.2187C55.9215 31.3176 55.9633 31.4417 55.9596 31.5687C55.956 31.6958 55.9071 31.8173 55.8218 31.9115L53.9125 34.0171L55.1605 33.296C55.2707 33.2326 55.4 33.2107 55.5249 33.2342C55.6499 33.2577 55.7623 33.3251 55.842 33.4242C55.9216 33.5233 55.9633 33.6476 55.9594 33.7747C55.9555 33.9018 55.9063 34.0233 55.8208 34.1173L53.9562 36.1536L55.1605 35.4581C55.2697 35.3953 55.3975 35.3731 55.5215 35.3955C55.6455 35.4179 55.7575 35.4835 55.8377 35.5806C55.918 35.6777 55.9613 35.8001 55.9599 35.926C55.9586 36.052 55.9127 36.1734 55.8303 36.2688L53.7034 38.7221L55.1605 37.8805C55.2721 37.8169 55.403 37.7957 55.529 37.8209C55.655 37.8461 55.7677 37.9159 55.8463 38.0175C55.9249 38.1191 55.9643 38.2457 55.957 38.374C55.9498 38.5023 55.8965 38.6236 55.8069 38.7157L54.3679 40.1909L55.168 39.7291C55.2779 39.6657 55.4068 39.6435 55.5315 39.6666C55.6563 39.6897 55.7687 39.7566 55.8487 39.8551C55.9286 39.9537 55.9707 40.0775 55.9676 40.2043C55.9644 40.3312 55.9161 40.4527 55.8314 40.5472L53.8666 42.7307L55.1637 41.984C55.2749 41.9205 55.4052 41.8992 55.5308 41.9238C55.6565 41.9485 55.7691 42.0175 55.848 42.1184C55.9269 42.2192 55.967 42.345 55.9608 42.4729C55.9546 42.6008 55.9026 42.7222 55.8144 42.8149L54.2143 44.4875L55.168 43.9371C55.2785 43.8729 55.4084 43.8507 55.534 43.8743C55.6596 43.8979 55.7726 43.9658 55.8523 44.0657C55.9321 44.1656 55.9733 44.2908 55.9685 44.4185C55.9636 44.5462 55.9131 44.668 55.8261 44.7616L54.9247 45.7355L55.168 45.5957C55.2898 45.532 55.4316 45.5178 55.5638 45.5561C55.6959 45.5944 55.8081 45.6823 55.8769 45.8014C55.9457 45.9205 55.9659 46.0616 55.9332 46.1952C55.9005 46.3288 55.8174 46.4446 55.7013 46.5184L52.4106 48.416C52.3298 48.4633 52.2376 48.488 52.1439 48.4875Z" fill="#F2CF7E"></path>
<path d="M45.6074 39.968C45.5195 39.9681 45.4328 39.9465 45.3553 39.9051C45.2777 39.8636 45.2116 39.8037 45.1628 39.7305C45.1141 39.6573 45.0841 39.5732 45.0757 39.4857C45.0673 39.3982 45.0806 39.3099 45.1146 39.2288L45.8037 37.5712L43.0207 39.1776C42.9088 39.2391 42.7786 39.2584 42.6537 39.232C42.5287 39.2056 42.4174 39.1353 42.34 39.0338C42.2625 38.9323 42.224 38.8064 42.2315 38.6789C42.239 38.5515 42.2919 38.4309 42.3807 38.3392L43.649 37.0731L42.9685 37.4656C42.8566 37.5271 42.7263 37.5464 42.6014 37.52C42.4765 37.4936 42.3652 37.4233 42.2877 37.3218C42.2102 37.2203 42.1717 37.0944 42.1792 36.9669C42.1867 36.8395 42.2396 36.7189 42.3285 36.6272L43.6607 35.296L42.9717 35.6928C42.8579 35.7585 42.724 35.7799 42.5955 35.7529C42.4669 35.7259 42.3529 35.6525 42.2751 35.5467C42.1972 35.4407 42.1611 35.3096 42.1739 35.1787C42.1867 35.0478 42.2474 34.9262 42.3445 34.8373L42.9546 34.2805C42.8404 34.3413 42.7079 34.3585 42.5819 34.3289C42.4559 34.2993 42.345 34.2249 42.2698 34.1196C42.1947 34.0143 42.1603 33.8852 42.1733 33.7564C42.1862 33.6277 42.2455 33.508 42.3402 33.4197L43.1935 32.6123L42.9685 32.7424C42.8564 32.8047 42.7257 32.8245 42.6002 32.7983C42.4748 32.772 42.363 32.7015 42.2852 32.5996C42.2075 32.4976 42.1691 32.3711 42.1771 32.2432C42.185 32.1153 42.2387 31.9945 42.3285 31.9029L43.6266 30.6048L42.9653 30.9867C42.8548 31.0508 42.725 31.0731 42.5995 31.0496C42.4739 31.0261 42.361 30.9584 42.2812 30.8587C42.2014 30.759 42.16 30.634 42.1645 30.5063C42.1691 30.3787 42.2193 30.2569 42.3061 30.1632L44.1493 28.16L42.9653 28.8437C42.8542 28.9072 42.724 28.9286 42.5984 28.904C42.4729 28.8795 42.3603 28.8106 42.2813 28.71C42.2023 28.6094 42.1621 28.4837 42.168 28.3559C42.1739 28.2282 42.2255 28.1067 42.3135 28.0139L43.9253 26.3317L42.9653 26.8853C42.8516 26.9523 42.7172 26.9748 42.588 26.9484C42.4588 26.9221 42.3439 26.8488 42.2655 26.7428C42.1871 26.6367 42.1508 26.5053 42.1637 26.3741C42.1765 26.2428 42.2375 26.1209 42.3349 26.032L43.1135 25.3056L42.9653 25.3909C42.8556 25.4543 42.7269 25.4766 42.6022 25.4538C42.4776 25.431 42.3651 25.3645 42.285 25.2663C42.2049 25.1681 42.1624 25.0446 42.1651 24.9179C42.1678 24.7912 42.2155 24.6696 42.2997 24.5749L44.3189 22.3008L42.9653 23.0816C42.8516 23.1476 42.7177 23.1693 42.5891 23.1426C42.4604 23.1159 42.3462 23.0427 42.2682 22.9369C42.1902 22.8312 42.154 22.7004 42.1665 22.5696C42.179 22.4389 42.2393 22.3173 42.3359 22.2283L43.0357 21.5808L42.9653 21.6213C42.8558 21.6841 42.7276 21.706 42.6035 21.6832C42.4794 21.6603 42.3674 21.5942 42.2874 21.4966C42.2074 21.399 42.1647 21.2762 42.1667 21.15C42.1688 21.0238 42.2155 20.9024 42.2986 20.8075L44.2005 18.656L42.9653 19.3685C42.8676 19.4249 42.7545 19.4489 42.6424 19.437C42.5302 19.4251 42.4247 19.3779 42.3411 19.3023C42.2574 19.2267 42.1998 19.1265 42.1767 19.0161C42.1535 18.9057 42.166 18.7909 42.2122 18.688L42.8522 17.2704C42.744 17.2886 42.6329 17.2737 42.5333 17.2277C42.4337 17.1816 42.3504 17.1065 42.2943 17.0123C42.2239 16.8899 42.205 16.7445 42.2416 16.6082C42.2781 16.4718 42.3673 16.3555 42.4895 16.2848L43.7279 15.5701C43.8255 15.514 43.9384 15.4902 44.0503 15.5021C44.1623 15.514 44.2676 15.561 44.3512 15.6364C44.4347 15.7119 44.4923 15.8118 44.5156 15.9219C44.539 16.0321 44.5268 16.1468 44.481 16.2496L43.8645 17.6192L46.4991 16.0981C46.6086 16.0354 46.7368 16.0134 46.8609 16.0363C46.985 16.0591 47.097 16.1252 47.177 16.2228C47.257 16.3205 47.2997 16.4433 47.2977 16.5695C47.2956 16.6957 47.2489 16.817 47.1658 16.912L45.2661 19.0624L46.6357 18.272C46.7493 18.206 46.8832 18.1843 47.0119 18.211C47.1405 18.2377 47.2548 18.3109 47.3327 18.4166C47.4107 18.5224 47.4469 18.6532 47.4344 18.7839C47.4219 18.9147 47.3616 19.0363 47.265 19.1253L46.5621 19.7739L46.6357 19.7323C46.7454 19.6688 46.8741 19.6465 46.9987 19.6694C47.1233 19.6922 47.2358 19.7587 47.3159 19.8569C47.396 19.9551 47.4385 20.0786 47.4358 20.2053C47.4331 20.3319 47.3854 20.4535 47.3013 20.5483L45.2831 22.8267L46.6346 22.0459C46.7482 21.9789 46.8826 21.9564 47.0119 21.9827C47.1411 22.0091 47.256 22.0824 47.3344 22.1884C47.4127 22.2945 47.449 22.4259 47.4362 22.5571C47.4234 22.6884 47.3624 22.8103 47.265 22.8992L46.4863 23.6267L46.6346 23.5403C46.7458 23.476 46.8765 23.4541 47.0026 23.4784C47.1287 23.5028 47.2417 23.5719 47.321 23.6729C47.4003 23.774 47.4404 23.9003 47.434 24.0285C47.4277 24.1568 47.3752 24.2785 47.2863 24.3712L45.6725 26.048L46.6325 25.4933C46.7429 25.4292 46.8727 25.4069 46.9982 25.4304C47.1238 25.4538 47.2367 25.5216 47.3165 25.6213C47.3963 25.721 47.4377 25.846 47.4332 25.9737C47.4286 26.1013 47.3784 26.223 47.2917 26.3168L45.4495 28.3189L46.6325 27.6363C46.7445 27.574 46.8752 27.5542 47.0007 27.5804C47.1261 27.6066 47.238 27.6772 47.3157 27.7791C47.3934 27.881 47.4318 28.0075 47.4238 28.1355C47.4159 28.2634 47.3622 28.3842 47.2725 28.4757L45.9733 29.7739L46.6346 29.3931C46.7482 29.3251 46.8831 29.3018 47.013 29.3277C47.1428 29.3537 47.2584 29.427 47.3372 29.5335C47.416 29.6399 47.4523 29.7719 47.4392 29.9036C47.426 30.0354 47.3643 30.1576 47.2661 30.2464L46.4127 31.0528L46.6378 30.9227C46.7513 30.8585 46.8845 30.8382 47.012 30.8656C47.1395 30.8929 47.2526 30.9661 47.3298 31.0712C47.4071 31.1763 47.4431 31.306 47.4312 31.4359C47.4192 31.5658 47.3601 31.6868 47.265 31.776L46.6549 32.3339C46.7676 32.2748 46.8978 32.258 47.0219 32.2866C47.146 32.3151 47.2557 32.3871 47.3313 32.4895C47.407 32.5919 47.4434 32.718 47.4342 32.845C47.425 32.972 47.3706 33.0915 47.281 33.1819L45.9466 34.5152L46.6378 34.1173C46.7498 34.0551 46.8805 34.0352 47.006 34.0615C47.1315 34.0877 47.2433 34.1582 47.321 34.2602C47.3987 34.3621 47.4371 34.4886 47.4292 34.6165C47.4212 34.7444 47.3675 34.8652 47.2778 34.9568L46.0106 36.2208L46.6346 35.8613C46.7312 35.8054 46.8428 35.7813 46.9539 35.7922C47.0649 35.8031 47.1697 35.8485 47.2536 35.9221C47.3374 35.9957 47.3961 36.0938 47.4213 36.2025C47.4465 36.3111 47.437 36.425 47.3941 36.528L46.6943 38.2091C46.8192 38.173 46.953 38.1839 47.0705 38.2396C47.1879 38.2952 47.281 38.3919 47.3323 38.5114C47.3835 38.6308 47.3893 38.7649 47.3486 38.8884C47.308 39.0119 47.2236 39.1162 47.1114 39.1819L45.8741 39.8965C45.793 39.9433 45.701 39.968 45.6074 39.968Z" fill="#F2CF7E"></path>
<path d="M20.0074 48.5014C19.9128 48.5014 19.8199 48.4763 19.7382 48.4286C19.6565 48.3809 19.589 48.3124 19.5425 48.23C19.496 48.1476 19.4723 48.0543 19.4738 47.9597C19.4753 47.8652 19.5019 47.7727 19.5509 47.6917L19.7642 47.3365L18.0106 48.3488C17.9012 48.4116 17.7731 48.4336 17.6491 48.4109C17.525 48.3882 17.413 48.3223 17.3329 48.2248C17.2529 48.1274 17.21 48.0047 17.2118 47.8786C17.2136 47.7525 17.26 47.6311 17.3429 47.536L18.5162 46.1888L17.3589 46.8566C17.2598 46.9144 17.1447 46.9388 17.0306 46.926C16.9166 46.9132 16.8097 46.864 16.7259 46.7857C16.642 46.7073 16.5857 46.604 16.5652 46.4911C16.5447 46.3782 16.5612 46.2617 16.6122 46.1589L17.1765 45.0123C17.0781 45.017 16.9803 44.9947 16.8936 44.9479C16.807 44.9011 16.7347 44.8315 16.6847 44.7467C16.6143 44.6243 16.5954 44.479 16.632 44.3426C16.6686 44.2062 16.7577 44.0899 16.8799 44.0192L18.1183 43.3046C18.2173 43.247 18.3322 43.2228 18.4461 43.2356C18.5599 43.2484 18.6665 43.2975 18.7503 43.3756C18.834 43.4537 18.8904 43.5567 18.9111 43.6694C18.9317 43.782 18.9156 43.8983 18.865 44.0011L18.3466 45.0539L20.7679 43.6576C20.8772 43.5955 21.0049 43.5739 21.1285 43.5967C21.2521 43.6195 21.3637 43.6853 21.4435 43.7824C21.5234 43.8794 21.5664 44.0016 21.565 44.1273C21.5635 44.253 21.5177 44.3741 21.4357 44.4693L20.2666 45.8176L21.0378 45.3728C21.1403 45.314 21.2594 45.2909 21.3765 45.3071C21.4935 45.3233 21.6019 45.3779 21.6846 45.4624C21.7672 45.5469 21.8194 45.6564 21.8331 45.7738C21.8467 45.8912 21.821 46.0098 21.7599 46.111L21.3813 46.736C21.4838 46.7625 21.576 46.8189 21.6464 46.898C21.7167 46.9772 21.7619 47.0754 21.7762 47.1803C21.7905 47.2852 21.7733 47.392 21.7267 47.4871C21.6801 47.5821 21.6063 47.6612 21.5146 47.7141L20.2773 48.4288C20.1956 48.477 20.1023 48.5021 20.0074 48.5014Z" fill="#F2CF7E"></path>
<path d="M28.2134 48.5013C28.1192 48.5012 28.0267 48.4762 27.9453 48.4287C27.8639 48.3813 27.7966 48.3131 27.7501 48.2312C27.7036 48.1493 27.6796 48.0565 27.6806 47.9623C27.6816 47.8681 27.7076 47.7758 27.7558 47.6949L28.3265 46.7349L26.111 48.0149C25.9997 48.08 25.8685 48.1025 25.7418 48.0783C25.6152 48.0541 25.5016 47.9849 25.422 47.8833C25.3425 47.7818 25.3025 47.6549 25.3093 47.5262C25.3162 47.3974 25.3694 47.2754 25.4593 47.1829L26.3467 46.2592L25.8987 46.5173C25.7975 46.5754 25.6801 46.5986 25.5644 46.5835C25.4487 46.5684 25.3412 46.5158 25.2582 46.4337C25.1753 46.3516 25.1216 46.2446 25.1053 46.1291C25.089 46.0136 25.1111 45.8959 25.1681 45.7941L25.6139 45.0048C25.5044 44.989 25.4024 44.9394 25.3223 44.8631C25.2421 44.7867 25.1878 44.6873 25.1666 44.5786C25.1455 44.4699 25.1588 44.3574 25.2045 44.2566C25.2503 44.1558 25.3263 44.0717 25.4219 44.016L26.6603 43.3013C26.7613 43.2432 26.8786 43.2198 26.9942 43.2346C27.1097 43.2495 27.2173 43.3017 27.3003 43.3835C27.3832 43.4656 27.4369 43.5727 27.4531 43.6883C27.4693 43.8039 27.4471 43.9217 27.3899 44.0235L27.0539 44.6165L29.0667 43.4549C29.1779 43.3914 29.3082 43.3701 29.4339 43.3948C29.5595 43.4194 29.6721 43.4885 29.751 43.5893C29.83 43.6901 29.87 43.8159 29.8638 43.9438C29.8577 44.0717 29.8057 44.1931 29.7174 44.2859L28.8299 45.2117L29.5659 44.7851C29.6678 44.7249 29.787 44.7009 29.9043 44.7167C30.0215 44.7326 30.1301 44.7875 30.2123 44.8725C30.2951 44.9566 30.3477 45.0658 30.3618 45.183C30.3758 45.3001 30.3507 45.4187 30.2902 45.52L29.6961 46.5152C29.8211 46.4844 29.953 46.4998 30.0675 46.5587C30.182 46.6176 30.2713 46.7158 30.319 46.8354C30.3667 46.955 30.3696 47.0878 30.327 47.2093C30.2845 47.3308 30.1994 47.4328 30.0875 47.4965L28.4801 48.4267C28.3993 48.4746 28.3073 48.5004 28.2134 48.5013Z" fill="#F2CF7E"></path>
<path d="M36.1386 48.5013C36.0382 48.5016 35.9397 48.4736 35.8545 48.4204C35.7693 48.3672 35.7009 48.291 35.6571 48.2006C35.6133 48.1102 35.5959 48.0093 35.6069 47.9095C35.6179 47.8096 35.6569 47.7149 35.7194 47.6363L36.2207 47.0037L34.5962 47.9413C34.4826 48.0064 34.3491 48.0274 34.221 48.0003C34.0929 47.9733 33.9793 47.9001 33.9017 47.7947C33.8241 47.6893 33.788 47.5591 33.8002 47.4288C33.8124 47.2984 33.8721 47.1772 33.9679 47.088L34.2634 46.8139C34.1653 46.8323 34.064 46.8228 33.971 46.7865C33.878 46.7502 33.7971 46.6886 33.7374 46.6086C33.6777 46.5286 33.6417 46.4334 33.6334 46.3339C33.6252 46.2344 33.645 46.1346 33.6906 46.0459L34.2239 45.0123C34.107 45.0116 33.9934 44.9726 33.9009 44.9011C33.8083 44.8296 33.7418 44.7296 33.7116 44.6166C33.6814 44.5036 33.6892 44.3838 33.7338 44.2757C33.7784 44.1675 33.8573 44.077 33.9583 44.0181L35.1967 43.3035C35.2964 43.2457 35.4121 43.2218 35.5265 43.2352C35.6409 43.2487 35.7479 43.2988 35.8314 43.3781C35.9149 43.4576 35.9704 43.5619 35.9897 43.6756C36.0089 43.7892 35.9908 43.906 35.9381 44.0085L35.4687 44.9227L37.777 43.5904C37.8906 43.5254 38.0241 43.5044 38.1522 43.5314C38.2802 43.5584 38.3939 43.6316 38.4715 43.737C38.5491 43.8424 38.5852 43.9727 38.573 44.103C38.5608 44.2333 38.5011 44.3546 38.4053 44.4437L38.1866 44.6464C38.2958 44.606 38.4152 44.6024 38.5266 44.6362C38.6381 44.6701 38.7354 44.7394 38.8037 44.8337C38.872 44.928 38.9075 45.0421 38.9049 45.1585C38.9023 45.2749 38.8617 45.3873 38.7893 45.4784L38.2485 46.16C38.3732 46.1302 38.5045 46.1464 38.6183 46.2055C38.7321 46.2647 38.8208 46.3628 38.8681 46.4821C38.9154 46.6013 38.9182 46.7336 38.8759 46.8546C38.8336 46.9757 38.749 47.0775 38.6378 47.1413L36.4053 48.4267C36.3247 48.4751 36.2326 48.5009 36.1386 48.5013Z" fill="#F2CF7E"></path>
<path d="M45.6075 48.5013C45.5147 48.5014 45.4234 48.4773 45.3428 48.4313C45.2622 48.3853 45.1949 48.3191 45.1477 48.2391C45.1005 48.1592 45.075 48.0683 45.0737 47.9755C45.0724 47.8827 45.0954 47.7911 45.1403 47.7099L45.5072 47.0464L43.4251 48.2475C43.3133 48.3082 43.1836 48.327 43.0592 48.3005C42.9348 48.2739 42.824 48.2038 42.7467 48.1027C42.6695 48.0017 42.6309 47.8763 42.6379 47.7493C42.645 47.6223 42.6972 47.502 42.7851 47.4101L43.5008 46.6912L42.9675 46.9984C42.8693 47.054 42.7559 47.0769 42.6438 47.064C42.5317 47.051 42.4266 47.0029 42.3436 46.9264C42.2606 46.8499 42.204 46.7491 42.1819 46.6384C42.1599 46.5277 42.1735 46.4129 42.2208 46.3104L42.8288 45.0091C42.7069 45.0243 42.5835 44.997 42.4794 44.9317C42.3753 44.8664 42.2969 44.7672 42.2575 44.6508C42.2181 44.5344 42.2201 44.408 42.2632 44.2929C42.3063 44.1778 42.3878 44.0811 42.4939 44.0192L43.7323 43.3045C43.8305 43.2492 43.9436 43.2264 44.0555 43.2393C44.1674 43.2523 44.2724 43.3004 44.3553 43.3766C44.4382 43.4529 44.4948 43.5535 44.517 43.664C44.5393 43.7744 44.5259 43.8891 44.479 43.9915L43.8987 45.2267L46.4491 43.7547C46.561 43.6932 46.6913 43.6739 46.8162 43.7003C46.9411 43.7267 47.0524 43.797 47.1299 43.8985C47.2074 44 47.2458 44.1259 47.2384 44.2533C47.2309 44.3808 47.1779 44.5013 47.0891 44.5931L46.3734 45.3109L46.6304 45.1637C46.7314 45.1057 46.8485 45.0823 46.964 45.0971C47.0795 45.1119 47.187 45.1641 47.2701 45.2457C47.3531 45.3273 47.4072 45.4338 47.424 45.549C47.4408 45.6642 47.4195 45.7818 47.3632 45.8837L46.9003 46.7221C47.0116 46.735 47.1161 46.7825 47.1988 46.8581C47.2816 46.9336 47.3384 47.0333 47.3613 47.1429C47.3842 47.2526 47.372 47.3667 47.3264 47.4691C47.2808 47.5714 47.2041 47.6568 47.1072 47.7131L45.8699 48.4277C45.7905 48.475 45.6999 48.5004 45.6075 48.5013Z" fill="#F2CF7E"></path>
<path d="M6.64415 10.1013C6.52675 10.1013 6.41263 10.0626 6.31949 9.99112C6.22635 9.91965 6.1594 9.81945 6.12901 9.70605C6.09863 9.59265 6.10651 9.47239 6.15143 9.36392C6.19636 9.25546 6.27581 9.16485 6.37748 9.10614L11.2959 6.26667C11.4004 6.20661 11.5223 6.18375 11.6415 6.20183C11.7607 6.21991 11.8703 6.27786 11.9524 6.36623C12.0344 6.45459 12.0841 6.56816 12.0933 6.6884C12.1025 6.80863 12.0707 6.92844 12.0031 7.02827L11.3311 8.01707C11.4527 8.00281 11.5755 8.03083 11.6789 8.09643C11.7823 8.16203 11.86 8.2612 11.8989 8.37731C11.9378 8.49341 11.9356 8.61936 11.8926 8.73402C11.8496 8.84867 11.7685 8.94504 11.6628 9.00694L9.89748 10.0267C9.79302 10.0863 9.67146 10.1089 9.55255 10.0908C9.43363 10.0726 9.32434 10.0148 9.24243 9.92672C9.16051 9.83863 9.11079 9.72543 9.10132 9.60551C9.09185 9.48559 9.1232 9.366 9.19028 9.26614L9.80895 8.35627L6.91082 10.0267C6.83005 10.0746 6.73806 10.1004 6.64415 10.1013Z" fill="#BFDBF0"></path>
<path d="M3.22992 16.4992C3.13087 16.4992 3.03378 16.4716 2.94952 16.4195C2.86527 16.3675 2.79718 16.293 2.75289 16.2044C2.70859 16.1158 2.68984 16.0166 2.69874 15.918C2.70763 15.8193 2.74382 15.7251 2.80325 15.6459L3.25978 15.0485L1.96058 15.7952C1.85194 15.8576 1.7248 15.8797 1.60146 15.8578C1.47812 15.8358 1.36645 15.7711 1.28603 15.675C1.20562 15.579 1.16159 15.4577 1.16166 15.3324C1.16174 15.2071 1.20592 15.0858 1.28645 14.9899L2.92271 13.0539L1.36538 13.9531C1.24686 14.0218 1.10643 14.0423 0.973219 14.0102C0.840007 13.9782 0.724227 13.8962 0.649883 13.7811C0.57554 13.666 0.548335 13.5267 0.57391 13.3921C0.599484 13.2575 0.675876 13.1379 0.787248 13.0581L2.20698 12.0395L1.36538 12.5248C1.24864 12.5908 1.11134 12.6103 0.980819 12.5796C0.8503 12.5489 0.736144 12.4701 0.661085 12.359C0.586026 12.2479 0.555572 12.1126 0.57579 11.98C0.596007 11.8475 0.665412 11.7274 0.770181 11.6437L3.37285 9.6L1.36538 10.7627C1.25028 10.834 1.11234 10.8589 0.979558 10.8323C0.846773 10.8057 0.729084 10.7296 0.650369 10.6194C0.571655 10.5092 0.53781 10.3731 0.555702 10.2389C0.573595 10.1047 0.641884 9.98226 0.746714 9.89653L2.16538 8.67733L1.36111 9.14026C1.25785 9.20051 1.13735 9.22432 1.01893 9.20786C0.90052 9.19141 0.791069 9.13565 0.708148 9.04953C0.625228 8.96341 0.573646 8.85192 0.561683 8.73297C0.54972 8.61402 0.57807 8.4945 0.642181 8.39359L1.58618 6.8832C1.4613 6.92873 1.32391 6.92599 1.20095 6.87551C1.07798 6.82503 0.978297 6.73045 0.921429 6.6103C0.86456 6.49016 0.854606 6.35311 0.893517 6.22601C0.932428 6.0989 1.0174 5.99091 1.13178 5.9232L2.90351 4.90666C3.00677 4.84641 3.12728 4.82261 3.2457 4.83906C3.36411 4.85552 3.47356 4.91128 3.55648 4.9974C3.6394 5.08352 3.69098 5.195 3.70295 5.31395C3.71491 5.4329 3.68656 5.55242 3.62245 5.65333L2.68698 7.14666L6.57178 4.90666C6.68665 4.84167 6.82155 4.82157 6.95038 4.85027C7.0792 4.87897 7.19282 4.95441 7.26924 5.06202C7.34567 5.16963 7.37948 5.30175 7.36414 5.43284C7.3488 5.56393 7.28539 5.68468 7.18618 5.77173L5.76752 6.99093L9.37605 4.90666C9.49283 4.83941 9.63075 4.81886 9.76206 4.84915C9.89338 4.87944 10.0084 4.95831 10.0839 5.06992C10.1594 5.18153 10.1899 5.31759 10.1692 5.45076C10.1485 5.58392 10.0782 5.70431 9.97232 5.78773L7.37285 7.82506L10.9995 5.73013C11.118 5.66141 11.2585 5.64094 11.3917 5.67296C11.5249 5.70498 11.6407 5.78704 11.715 5.90212C11.7894 6.0172 11.8166 6.15648 11.791 6.29108C11.7654 6.42567 11.689 6.54527 11.5777 6.62506L5.76005 10.8C5.81453 10.8948 5.83854 11.0041 5.82881 11.1131C5.81907 11.222 5.77608 11.3254 5.70565 11.4091L4.07365 13.3451L5.03365 12.7904C5.14047 12.7287 5.26537 12.706 5.38708 12.726C5.50879 12.7461 5.61978 12.8077 5.70116 12.9004C5.78254 12.9931 5.82927 13.1111 5.83339 13.2344C5.83752 13.3577 5.79878 13.4786 5.72378 13.5765L5.08378 14.4203C5.19234 14.4379 5.29281 14.4886 5.37142 14.5655C5.45004 14.6424 5.50295 14.7417 5.52293 14.8499C5.5429 14.958 5.52895 15.0697 5.48299 15.1696C5.43702 15.2695 5.3613 15.3528 5.26618 15.408L3.49658 16.4267C3.41581 16.4743 3.3237 16.4994 3.22992 16.4992Z" fill="#BFDBF0"></path>
<path d="M60.288 16.432C60.1862 16.432 60.0864 16.4029 60.0006 16.3481C59.9148 16.2932 59.8465 16.2149 59.8037 16.1225C59.761 16.0301 59.7456 15.9273 59.7594 15.8264C59.7732 15.7255 59.8156 15.6306 59.8816 15.5531L60.4843 14.8469L59.3344 15.5104C59.2234 15.5738 59.0934 15.5953 58.9679 15.5709C58.8424 15.5465 58.7299 15.4778 58.6508 15.3774C58.5717 15.2769 58.5313 15.1515 58.537 15.0238C58.5426 14.8961 58.594 14.7746 58.6816 14.6816L59.9616 13.344L58.9707 13.9157C58.857 13.9837 58.7222 14.007 58.5923 13.9811C58.4624 13.9551 58.3469 13.8818 58.2681 13.7753C58.1893 13.6689 58.153 13.5369 58.1661 13.4051C58.1793 13.2734 58.241 13.1512 58.3392 13.0624L59.1787 12.2741L58.9654 12.3936C58.8517 12.4616 58.7168 12.4849 58.587 12.4589C58.4571 12.433 58.3415 12.3597 58.2628 12.2532C58.184 12.1467 58.1476 12.0148 58.1608 11.883C58.1739 11.7512 58.2356 11.6291 58.3339 11.5403L59.2107 10.7147L58.9365 10.8715C58.8257 10.9349 58.6957 10.9564 58.5703 10.9321C58.4449 10.9078 58.3324 10.8393 58.2533 10.7391C58.1741 10.6389 58.1335 10.5136 58.1389 10.386C58.1443 10.2583 58.1953 10.1369 58.2827 10.0437L59.6395 8.61867L57.1957 10.0267C57.0844 10.0902 56.954 10.1115 56.8283 10.0867C56.7025 10.0619 56.5899 9.99265 56.5111 9.89164C56.4322 9.79063 56.3924 9.66461 56.3988 9.53662C56.4052 9.40864 56.4575 9.28725 56.5462 9.19467L57.952 7.74293L54.1238 9.952C54.0114 10.0159 53.8797 10.0369 53.7531 10.0111C53.6265 9.98519 53.5136 9.91422 53.4353 9.81135C53.3571 9.70848 53.3189 9.58071 53.3278 9.45178C53.3367 9.32285 53.3921 9.20154 53.4838 9.1104L54.6955 7.9168L52.8534 8.98347C52.752 9.04229 52.6342 9.06611 52.518 9.05125C52.4017 9.0364 52.2937 8.98369 52.2104 8.90128C52.1271 8.81886 52.0733 8.71132 52.0573 8.59527C52.0412 8.47922 52.0638 8.36112 52.1216 8.2592L52.9419 6.81067L52.8693 6.85227C52.7475 6.91603 52.6057 6.93023 52.4735 6.8919C52.3414 6.85358 52.2292 6.76569 52.1604 6.64659C52.0916 6.5275 52.0714 6.38641 52.1041 6.2528C52.1368 6.1192 52.2199 6.0034 52.336 5.9296L54.1035 4.90667C54.2045 4.84857 54.3217 4.82514 54.4373 4.83997C54.5529 4.8548 54.6604 4.90708 54.7435 4.9888C54.8264 5.07097 54.8801 5.17808 54.8963 5.29369C54.9124 5.40929 54.8902 5.52702 54.8331 5.6288L54.0139 7.07734L57.7813 4.90667C57.8937 4.84273 58.0254 4.82174 58.152 4.84761C58.2786 4.87348 58.3915 4.94445 58.4698 5.04732C58.548 5.15019 58.5862 5.27796 58.5773 5.40689C58.5684 5.53582 58.513 5.65713 58.4214 5.74827L57.2086 6.93973L60.7126 4.91307C60.824 4.84876 60.9549 4.8269 61.0812 4.85152C61.2075 4.87614 61.3206 4.94558 61.3997 5.04704C61.4788 5.1485 61.5186 5.27514 61.5117 5.40361C61.5048 5.53209 61.4517 5.65374 61.3622 5.74614L59.9574 7.2032L62.2934 5.85814C62.4044 5.79395 62.5348 5.7719 62.6607 5.79603C62.7866 5.82015 62.8996 5.88883 62.979 5.9895C63.0585 6.09016 63.099 6.21606 63.0931 6.34415C63.0873 6.47223 63.0355 6.59392 62.9472 6.68694L61.583 8.1184L62.6347 7.51254C62.7483 7.44453 62.8832 7.42124 63.0131 7.44719C63.1429 7.47314 63.2585 7.54648 63.3373 7.65293C63.416 7.75939 63.4524 7.89134 63.4393 8.02312C63.4261 8.1549 63.3644 8.27707 63.2662 8.36587L62.3904 9.19147L62.6347 9.05067C62.7483 8.98266 62.8832 8.95937 63.0131 8.98532C63.1429 9.01127 63.2585 9.08461 63.3373 9.19106C63.416 9.29752 63.4524 9.42947 63.4393 9.56125C63.4261 9.69303 63.3644 9.81521 63.2662 9.904L62.4267 10.6933L62.64 10.5728C62.7511 10.5086 62.8817 10.4866 63.0077 10.5108C63.1337 10.5351 63.2467 10.604 63.3261 10.7048C63.4054 10.8057 63.4457 10.9318 63.4396 11.0599C63.4335 11.1881 63.3814 11.3098 63.2928 11.4027L62.016 12.7307L62.6347 12.3733C62.7434 12.311 62.8707 12.2889 62.994 12.3111C63.1174 12.3332 63.2291 12.398 63.3094 12.4943C63.3897 12.5905 63.4336 12.712 63.4333 12.8373C63.433 12.9627 63.3885 13.0839 63.3078 13.1797L62.6678 13.9264C62.7818 13.8929 62.9038 13.8988 63.0139 13.9434C63.1241 13.9879 63.216 14.0684 63.2747 14.1717C63.3455 14.2941 63.3648 14.4396 63.3284 14.5762C63.292 14.7128 63.2029 14.8294 63.0806 14.9003L60.5547 16.3605C60.4737 16.4076 60.3817 16.4323 60.288 16.432Z" fill="#BFDBF0"></path>
<path d="M3.77062 59.168C3.66339 59.1683 3.55855 59.1363 3.46981 59.0761C3.38106 59.0159 3.31252 58.9303 3.27313 58.8306C3.23374 58.7308 3.22533 58.6215 3.249 58.517C3.27267 58.4124 3.32732 58.3173 3.40582 58.2443L4.50022 57.2224L2.11729 58.5984C2.00498 58.6624 1.87327 58.6833 1.74665 58.6575C1.62003 58.6316 1.50711 58.5606 1.42889 58.4578C1.35066 58.3549 1.31244 58.2271 1.32135 58.0982C1.33025 57.9693 1.38566 57.8479 1.47729 57.7568L2.47142 56.7744L1.40475 57.3888C1.29323 57.4524 1.16251 57.4736 1.03661 57.4486C0.9107 57.4235 0.79805 57.3539 0.719335 57.2525C0.640621 57.1511 0.601124 57.0247 0.608096 56.8965C0.615067 56.7683 0.668039 56.6469 0.757287 56.5547L2.21115 55.0613L1.36529 55.5499C1.25558 55.6133 1.12689 55.6356 1.00224 55.6128C0.877603 55.5899 0.765164 55.5234 0.685069 55.4253C0.604975 55.3271 0.562459 55.2036 0.565138 55.0769C0.567816 54.9502 0.615514 54.8286 0.699687 54.7339L2.70929 52.48L1.36529 53.2555C1.25673 53.3186 1.1294 53.3413 1.00571 53.3198C0.882016 53.2982 0.769898 53.2337 0.689093 53.1376C0.608288 53.0415 0.563978 52.92 0.563965 52.7944C0.563952 52.6689 0.608236 52.5473 0.68902 52.4512L2.27515 50.56L1.36529 51.0837C1.25769 51.1448 1.1322 51.1666 1.01031 51.1453C0.888422 51.1241 0.777722 51.0611 0.697169 50.9672C0.616616 50.8732 0.571222 50.7542 0.568763 50.6305C0.566303 50.5068 0.606931 50.3861 0.683687 50.2891L1.25755 49.5723C1.12253 49.535 1.00758 49.4461 0.937553 49.3248C0.867081 49.2025 0.847942 49.0573 0.88433 48.921C0.920717 48.7846 1.00966 48.6682 1.13169 48.5973L2.90342 47.5733C3.01102 47.5123 3.13651 47.4905 3.2584 47.5118C3.38029 47.533 3.49099 47.596 3.57154 47.6899C3.65209 47.7838 3.69748 47.9028 3.69994 48.0265C3.7024 48.1503 3.66178 48.271 3.58502 48.368L3.29062 48.736L4.34875 48.1259C4.45731 48.0628 4.58464 48.04 4.70833 48.0616C4.83202 48.0831 4.94414 48.1477 5.02495 48.2437C5.10575 48.3398 5.15006 48.4614 5.15008 48.5869C5.15009 48.7125 5.1058 48.834 5.02502 48.9301L3.43995 50.8235L5.03462 49.904C5.14432 49.8406 5.27302 49.8183 5.39766 49.8411C5.5223 49.864 5.63474 49.9304 5.71484 50.0286C5.79493 50.1268 5.83745 50.2503 5.83477 50.377C5.83209 50.5037 5.78439 50.6253 5.70022 50.72L3.69169 52.9781L5.03462 52.2027C5.14628 52.1383 5.27748 52.1165 5.40395 52.1414C5.53043 52.1662 5.64362 52.236 5.72259 52.3379C5.80156 52.4398 5.84097 52.5668 5.83352 52.6955C5.82608 52.8242 5.77228 52.9458 5.68209 53.0379L4.22502 54.5312L5.52635 53.7845C5.63853 53.7215 5.76973 53.7011 5.89576 53.7271C6.02179 53.7532 6.13414 53.8239 6.21211 53.9263C6.29007 54.0287 6.32838 54.1558 6.31997 54.2843C6.31156 54.4127 6.257 54.5337 6.16635 54.6251L5.17222 55.6085L7.99995 53.9733C8.11359 53.9053 8.24847 53.882 8.37833 53.908C8.5082 53.9339 8.62376 54.0073 8.70254 54.1137C8.78131 54.2202 8.81767 54.3521 8.80452 54.4839C8.79138 54.6157 8.72967 54.7379 8.63142 54.8267L7.53809 55.8475L10.336 54.2283C10.4424 54.1668 10.5667 54.144 10.688 54.1637C10.8093 54.1834 10.9201 54.2444 11.0016 54.3363C11.0832 54.4283 11.1305 54.5455 11.1355 54.6683C11.1405 54.7911 11.103 54.9118 11.0293 55.0101L9.63409 56.8661L11.4154 55.8379C11.4761 55.7993 11.544 55.7734 11.615 55.7617C11.686 55.75 11.7586 55.7528 11.8284 55.7699C11.8983 55.7871 11.964 55.8181 12.0215 55.8613C12.0791 55.9044 12.1273 55.9588 12.1633 56.0211C12.1993 56.0833 12.2223 56.1522 12.231 56.2237C12.2397 56.2951 12.2338 56.3675 12.2138 56.4366C12.1937 56.5056 12.1599 56.57 12.1144 56.6256C12.0688 56.6813 12.0125 56.7272 11.9488 56.7605L7.90395 59.0933C7.79755 59.1542 7.67342 59.1765 7.55247 59.1566C7.43152 59.1367 7.32113 59.0757 7.23987 58.9839C7.15861 58.8921 7.11144 58.7752 7.10631 58.6527C7.10118 58.5302 7.13839 58.4097 7.21169 58.3115L8.60582 56.4587L4.03729 59.0933C3.95673 59.1418 3.86461 59.1676 3.77062 59.168Z" fill="#BFDBF0"></path>
<path d="M55.5649 59.168C55.4529 59.168 55.3438 59.1328 55.253 59.0673C55.1622 59.0019 55.0943 58.9095 55.0589 58.8033C55.0235 58.6971 55.0224 58.5825 55.0558 58.4756C55.0892 58.3688 55.1553 58.2752 55.2449 58.208L56.0086 57.6245L53.8006 58.9045C53.6823 58.9735 53.5421 58.9944 53.4088 58.9628C53.2756 58.9312 53.1596 58.8496 53.0849 58.7349C53.0102 58.6201 52.9825 58.4811 53.0075 58.3464C53.0325 58.2118 53.1083 58.092 53.2193 58.0117L54.5377 57.0517L52.8438 58.0288C52.7423 58.0869 52.6246 58.1099 52.5087 58.0945C52.3928 58.0791 52.2852 58.0261 52.2024 57.9435C52.1196 57.861 52.0663 57.7535 52.0505 57.6377C52.0348 57.5219 52.0575 57.4041 52.1153 57.3024L52.9238 55.8923L52.8747 55.92C52.7528 55.9838 52.611 55.998 52.4789 55.9596C52.3468 55.9213 52.2346 55.8334 52.1658 55.7143C52.0969 55.5952 52.0768 55.4542 52.1095 55.3205C52.1422 55.1869 52.2253 55.0711 52.3414 54.9973L54.1067 53.9776C54.2082 53.9196 54.3259 53.8965 54.4418 53.9119C54.5577 53.9273 54.6653 53.9803 54.7481 54.0629C54.8309 54.1454 54.8843 54.2529 54.9 54.3687C54.9158 54.4846 54.893 54.6024 54.8353 54.704L54.0214 56.1067L62.6347 51.1339C62.753 51.0649 62.8933 51.044 63.0265 51.0756C63.1597 51.1072 63.2757 51.1888 63.3504 51.3035C63.4251 51.4183 63.4529 51.5574 63.4278 51.692C63.4028 51.8266 63.327 51.9464 63.2161 52.0267L61.8977 52.9867L62.6347 52.56C62.752 52.4937 62.89 52.4741 63.0211 52.5054C63.1522 52.5366 63.2665 52.6163 63.3412 52.7285C63.4159 52.8406 63.4454 52.9768 63.4238 53.1098C63.4022 53.2428 63.331 53.3627 63.2246 53.4453L62.4577 54.032L62.6347 53.9253C62.7474 53.8585 62.8808 53.8355 63.0094 53.8607C63.138 53.8859 63.2528 53.9576 63.3319 54.062C63.411 54.1665 63.4489 54.2964 63.4384 54.427C63.4278 54.5576 63.3696 54.6797 63.2747 54.7701L62.0075 55.9979L62.6379 55.6341C62.7461 55.5721 62.8725 55.55 62.9953 55.5715C63.118 55.593 63.2294 55.6568 63.31 55.7519C63.3906 55.8469 63.4354 55.9672 63.4366 56.0919C63.4377 56.2165 63.3952 56.3376 63.3163 56.4341L62.7734 57.0976C62.8699 57.1311 62.9548 57.1915 63.0179 57.2718C63.0811 57.3521 63.1199 57.4488 63.1296 57.5505C63.1394 57.6522 63.1198 57.7545 63.0731 57.8453C63.0264 57.9362 62.9546 58.0117 62.8662 58.0629L61.1009 59.0816C60.9927 59.1436 60.8663 59.1658 60.7436 59.1443C60.6208 59.1228 60.5094 59.0589 60.4288 58.9639C60.3482 58.8688 60.3034 58.7485 60.3023 58.6239C60.3011 58.4993 60.3436 58.3781 60.4225 58.2816L60.6358 58.0213L58.7937 59.088C58.681 59.1548 58.5476 59.1778 58.419 59.1526C58.2905 59.1274 58.1757 59.0558 58.0965 58.9513C58.0174 58.8469 57.9795 58.717 57.99 58.5864C58.0006 58.4558 58.0588 58.3336 58.1537 58.2432L59.423 57.0144L55.8315 59.0933C55.7509 59.1416 55.6588 59.1674 55.5649 59.168Z" fill="#BFDBF0"></path>
<path d="M58.6293 54.2304C58.5207 54.2303 58.4148 54.1971 58.3256 54.1352C58.2364 54.0733 58.1683 53.9856 58.1302 53.8839C58.0922 53.7822 58.0861 53.6713 58.1128 53.5661C58.1394 53.4609 58.1976 53.3663 58.2794 53.2949L58.689 52.9365C58.5829 52.9345 58.4799 52.9009 58.393 52.8399C58.3061 52.779 58.2394 52.6935 58.2014 52.5944C58.1634 52.4953 58.1558 52.3872 58.1795 52.2838C58.2033 52.1804 58.2574 52.0864 58.3349 52.0139L58.7957 51.5872C58.6924 51.6054 58.586 51.5928 58.4898 51.5508C58.3937 51.5089 58.312 51.4395 58.2551 51.3514C58.1982 51.2633 58.1685 51.1603 58.1698 51.0554C58.1711 50.9505 58.2033 50.8483 58.2624 50.7616L59.0656 49.5883C58.9441 49.6015 58.8218 49.5726 58.7191 49.5065C58.6164 49.4404 58.5395 49.341 58.5012 49.2249C58.463 49.1089 58.4658 48.9832 58.5091 48.869C58.5524 48.7548 58.6336 48.6589 58.7392 48.5973L60.5066 47.5776C60.6112 47.5181 60.7328 47.4956 60.8517 47.5139C60.9706 47.5322 61.0798 47.5902 61.1616 47.6784C61.2434 47.7667 61.293 47.88 61.3023 47.9999C61.3116 48.1199 61.28 48.2394 61.2128 48.3392L60.4661 49.4283L62.2165 48.4181C62.3301 48.3512 62.4645 48.3287 62.5938 48.355C62.723 48.3813 62.8379 48.4546 62.9163 48.5607C62.9946 48.6668 63.0309 48.7981 63.0181 48.9294C63.0053 49.0607 62.9443 49.1825 62.8469 49.2715L62.4874 49.6064L62.624 49.5285C62.7386 49.4639 62.873 49.444 63.0015 49.4725C63.1299 49.5011 63.2433 49.5761 63.3198 49.6831C63.3963 49.7902 63.4305 49.9217 63.4158 50.0525C63.4012 50.1832 63.3388 50.304 63.2405 50.3915L62.8832 50.7029C62.98 50.6986 63.0762 50.7212 63.1609 50.7683C63.2457 50.8154 63.3157 50.8851 63.3632 50.9696C63.434 51.092 63.4533 51.2374 63.4169 51.3741C63.3805 51.5107 63.2913 51.6272 63.169 51.6981L58.9024 54.1643C58.8191 54.2108 58.7247 54.2337 58.6293 54.2304Z" fill="#BFDBF0"></path>
<path d="M39.1722 17.5712C39.5989 15.6512 37.5103 15.504 36.1279 15.6992C34.7253 15.5989 32.9695 16.2784 33.361 17.9851V37.8485C32.9226 39.9509 35.2085 39.9733 36.7135 39.7685C37.7599 39.7205 39.0495 39.3803 39.1669 38.16C39.1768 31.3028 39.1786 24.4398 39.1722 17.5712ZM35.0517 38.7317C34.6677 31.5392 34.9994 24.1259 34.9055 16.8811C34.9055 16.9216 35.0175 16.1099 34.8831 16.3477C34.8922 16.3332 34.8981 16.3168 34.9002 16.2997C35.985 16.2507 37.7909 16.0139 37.6266 17.6021C37.7738 24.7104 37.4762 32.2869 37.6693 39.1765C36.8799 39.2053 35.4773 39.4251 35.0517 38.7317V38.7317Z" fill="black"></path>
<path d="M30.6486 30.4459C30.335 25.6875 31.2886 20.5525 30.2635 15.9744C29.5574 15.2 28.0971 15.4251 27.1606 15.4411C26.0523 15.4624 24.9579 15.8805 24.8139 17.1296C24.8089 24.0558 24.8089 30.9859 24.8139 37.92C24.7582 38.2405 24.7845 38.5699 24.8904 38.8774C24.9964 39.185 25.1785 39.4607 25.4198 39.6789C32.7467 42.1717 30.2379 34.8587 30.6486 30.4459V30.4459ZM26.3819 38.3392C26.4235 31.264 26.3168 24.0949 26.3819 17.0389C26.5323 16.3243 27.8635 16.4181 28.4779 16.5611C29.0923 16.704 29.0774 17.0944 29.0848 17.5936C29.1382 23.5381 29.0603 29.4859 29.0848 35.4315C29.0848 35.6619 29.344 38.8448 28.8715 38.912C28.1152 38.9088 26.6272 39.2597 26.3819 38.336V38.3392Z" fill="black"></path>
<path d="M22.1055 17.5712C22.5322 15.6512 20.4447 15.4965 19.0591 15.6917C18.1119 15.6917 16.6805 15.8389 16.3434 16.9216C16.1983 21.6832 16.3434 26.497 16.2933 31.2768C16.5386 33.9232 15.7813 36.9098 16.6282 39.3834C17.2853 40.049 18.7615 39.7973 19.6458 39.7749C20.6965 39.7333 21.985 39.3824 22.1055 38.1589C22.1119 31.3024 22.1119 24.4398 22.1055 17.5712V17.5712ZM17.985 38.7317C17.601 31.5402 17.9327 24.1248 17.8389 16.881C17.8389 16.9184 17.9551 16.113 17.8175 16.3477C17.8263 16.3342 17.8322 16.3189 17.8346 16.3029C18.9151 16.257 20.7242 16.0096 20.5599 17.5968C20.7082 24.6997 20.4085 32.2869 20.6037 39.1626C19.8175 39.1978 18.4085 39.4176 17.985 38.7317V38.7317Z" fill="black"></path>
<path d="M13.5766 18.3723C13.9478 16.2091 12.7947 15.2341 10.6891 15.5115C8.66245 15.2715 7.32272 16.5483 7.75685 18.6123C7.76112 28.0779 7.76112 37.5449 7.75685 47.0133C7.94458 48.8181 9.93605 48.5141 11.3024 48.4917C13.7696 48.4619 13.6608 46.3584 13.5766 44.5152V18.3723ZM9.30991 46.7456C9.30991 36.8672 9.30031 26.9269 9.30991 17.0293C9.34085 16.3093 9.49231 16.496 10.1152 16.496C10.832 16.496 11.7526 16.3136 12.0235 17.168C11.7867 27.1584 12.4704 37.6576 11.824 47.5232C10.9035 47.5584 9.55845 47.7792 9.30991 46.7403V46.7456Z" fill="black"></path>
<path d="M50.4277 45.6139C49.9104 48.3872 51.7909 48.6005 54.0757 48.3488C56.464 48.1248 56.289 46.3573 56.2389 44.5141C56.2339 35.3024 56.2339 26.0885 56.2389 16.8725C56.0181 15.3333 54.2218 15.6384 53.073 15.6512C52.6743 15.577 52.2632 15.6079 51.88 15.7409C51.4969 15.8739 51.155 16.1044 50.888 16.4097C50.6211 16.7149 50.4382 17.0845 50.3575 17.4819C50.2768 17.8794 50.301 18.291 50.4277 18.6763V45.6139ZM51.9722 45.4432C51.9722 35.9314 51.9722 26.4203 51.9722 16.9099C51.9722 16.2699 52.032 16.3488 52.6464 16.3488C53.3365 16.3488 54.3242 16.1067 54.64 16.9365C54.6112 27.0816 54.9834 37.5691 54.5504 47.6565C52.737 47.9531 51.601 47.4091 51.9722 45.44V45.4432Z" fill="black"></path>
<path d="M47.7057 17.4827C48.0811 15.5093 45.8603 15.3877 44.4577 15.5627C42.9206 15.456 41.5532 16.4043 41.8977 18.0757V37.9371C41.5062 40.1429 44.0662 40.0608 45.5681 39.8976C47.3441 39.9136 47.9542 38.3883 47.7089 36.8395L47.7057 17.4827ZM43.4774 38.4768C43.3814 31.3077 43.4539 24.0768 43.439 16.8896C43.3323 16.0811 44.8619 16.4533 45.3803 16.4341C46.0801 16.5483 46.1473 17.0549 46.1611 17.6309C46.2475 23.5819 46.1206 29.5381 46.1611 35.4901C46.1611 35.7216 46.399 38.9525 45.9787 39.04C45.1723 39.0773 43.7739 39.2992 43.4774 38.4768V38.4768Z" fill="black"></path>
<path d="M19.9702 43.3472C18.6273 43.3056 16.4268 43.2075 16.2945 45.0069C16.2102 46.7008 16.0566 48.7403 18.4108 48.3861C19.7729 48.4267 22.0001 48.5216 22.1057 46.6869C22.1868 44.9963 22.3212 42.9707 19.9702 43.3472V43.3472ZM20.5612 45.1104C20.4758 45.9264 20.7638 46.8693 20.3862 47.6139H18.4534C18.6124 47.6203 18.4065 47.5925 18.463 47.6139C17.4145 47.0699 17.791 45.0731 18.0236 44.1195C18.6636 44.1195 19.3036 44.1077 19.9436 44.1195C20.1453 44.1876 20.3172 44.3236 20.4299 44.5043C20.5425 44.685 20.5889 44.8993 20.5612 45.1104V45.1104Z" fill="black"></path>
<path d="M28.5047 43.3472C27.1617 43.3056 24.9612 43.2075 24.8289 45.0069C24.7447 46.7008 24.5911 48.7403 26.9452 48.3861C28.3073 48.4267 30.5345 48.5216 30.6412 46.6869C30.7255 44.9963 30.8556 42.9707 28.5047 43.3472V43.3472ZM29.0956 45.1104C29.0103 45.9264 29.2983 46.8693 28.9207 47.6139H26.9868C27.1457 47.6203 26.9399 47.5925 26.9964 47.6139C25.9489 47.0699 26.3244 45.0731 26.5569 44.1195C27.1969 44.1195 27.8369 44.1077 28.4769 44.1195C28.6789 44.1874 28.851 44.3233 28.9639 44.5041C29.0767 44.6848 29.1233 44.8991 29.0956 45.1104V45.1104Z" fill="black"></path>
<path d="M37.0391 43.3472C35.6961 43.3056 33.4967 43.2075 33.3633 45.0069C33.2791 46.7008 33.1255 48.7403 35.4796 48.3861C36.8417 48.4267 39.0689 48.5216 39.1756 46.6869C39.2599 44.9963 39.39 42.9707 37.0391 43.3472V43.3472ZM37.63 45.1104C37.5447 45.9264 37.8327 46.8693 37.4561 47.6139H35.5201C35.6791 47.6203 35.4743 47.5925 35.5297 47.6139C34.4823 47.0699 34.8577 45.0731 35.0903 44.1195C35.7303 44.1195 36.3703 44.1077 37.0103 44.1195C37.2124 44.1872 37.3848 44.323 37.4978 44.5038C37.6109 44.6846 37.6576 44.899 37.63 45.1104V45.1104Z" fill="black"></path>
<path d="M45.5735 43.3472C44.2316 43.3056 42.0311 43.2075 41.8978 45.0069C41.8135 46.7008 41.6599 48.7403 44.014 48.3861C45.3762 48.4267 47.6044 48.5216 47.71 46.6869C47.7943 44.9963 47.9244 42.9707 45.5735 43.3472V43.3472ZM46.1644 45.1104C46.0791 45.9264 46.3671 46.8693 45.9906 47.6139H44.0535C44.2124 47.6203 44.0076 47.5925 44.0642 47.6139C43.0156 47.0699 43.3911 45.0731 43.6236 44.1195C44.2636 44.1195 44.9036 44.1077 45.5436 44.1195C45.746 44.187 45.9186 44.3227 46.0318 44.5035C46.1451 44.6843 46.192 44.8988 46.1644 45.1104V45.1104Z" fill="black"></path>
<path d="M0.835162 15.5179C2.17063 17.1371 5.16583 16.4341 5.93596 14.592C6.4341 13.1403 5.7685 11.4485 6.26983 10.0192C7.75783 9.92212 9.30236 10.2464 10.7285 9.72266C11.3236 9.51992 11.8199 9.09936 12.1175 8.54556C12.4151 7.99176 12.492 7.3458 12.3326 6.73763C12.1733 6.12945 11.7896 5.60417 11.2586 5.26745C10.7277 4.93072 10.089 4.80753 9.4709 4.92265C6.39996 5.23732 0.0148953 3.42612 0.293295 8.32532C0.554629 10.6667 -0.334971 13.4016 0.835162 15.5179V15.5179ZM2.0085 6.53119C3.6085 4.75839 7.03996 6.17599 9.28956 5.74612C11.0325 5.74612 11.664 8.75732 9.8933 9.18719C8.2933 9.35999 6.2101 8.65386 4.9333 9.91039C3.70663 11.3312 5.9221 15.7856 2.99196 15.4731C1.0133 14.6549 1.89116 8.48639 2.0053 6.53119H2.0085Z" fill="black"></path>
<path d="M62.2071 15.8987C64.7618 14.5333 63.3708 11.0517 63.7068 8.70506C63.7068 7.59893 63.8636 6.41173 62.9356 5.59466C60.7276 4.31466 57.8242 5.28106 55.3623 4.99839C52.5314 4.50346 49.7154 8.13226 52.9399 9.74506C54.3153 9.96226 55.7105 10.0256 57.0999 9.93386C59.5074 10.8875 55.3132 17.9947 62.2071 15.8987V15.8987ZM56.2338 9.26613C53.8999 9.92319 51.7068 7.23946 53.9372 5.66719C56.301 5.83999 58.9324 5.26506 61.2055 5.93066C63.0092 7.46666 61.8391 10.304 62.158 12.3989C62.1847 13.4656 62.3799 15.0571 61.293 15.6661C56.9602 15.0144 62.4492 8.13439 56.237 9.26613H56.2338Z" fill="black"></path>
<path d="M4.23685 58.9867C6.94618 58.7029 11.9734 60.16 12.5067 56.32C12.3542 53.4122 8.90245 54.1515 6.89925 54.0704C4.48325 53.0901 8.70085 46.0138 1.79632 48.1077C-0.765816 49.4656 0.630451 52.9536 0.293384 55.2949C-0.166349 58.0267 1.61178 59.4133 4.23685 58.9867V58.9867ZM2.12058 48.9237C2.99525 47.3354 4.76485 49.3162 4.56005 50.5397C4.44378 53.4197 4.11632 55.2565 7.76005 54.7232C10.1003 54.064 12.2838 56.768 10.0619 58.3434C8.52912 58.3786 6.96858 58.321 5.41978 58.3434C3.18938 58.7317 1.47312 57.744 1.83898 55.3056C2.01925 53.2202 1.43578 50.9088 2.12058 48.9237V48.9237Z" fill="black"></path>
<path d="M63.2801 48.6123C62.0705 46.8224 59.0817 47.2747 58.1601 49.1115C57.4935 50.6048 58.2305 52.3733 57.7409 53.8773C55.4412 53.8581 51.6887 53.4048 51.4871 56.6048C51.7292 60.1184 55.95 59.0187 58.3596 59.1893C60.7233 59.5328 64.1196 58.8917 63.7132 55.8101C63.4881 53.4592 64.2455 50.8021 63.2801 48.6123V48.6123ZM62.0332 57.2981C60.8705 59.0837 57.6385 57.7579 55.7399 58.1451C54.078 58.5365 52.27 57.0784 53.3655 55.4059C54.8652 54.0629 57.4945 55.8261 58.9932 54.2837C60.2327 52.7275 58.6017 50.2304 59.9991 48.7584C63.3324 47.1883 62.0278 55.5605 62.0332 57.2981Z" fill="black"></path>
</svg>
