<svg width="56" height="65" fill="none" xmlns="http://www.w3.org/2000/svg"><path d="M53.887 63.605a.533.533 0 0 1-.414-.871l.78-.96-1.358.782a.533.533 0 0 1-.663-.817l1.632-1.813-2.507 1.447a.533.533 0 0 1-.582-.891l4.106-3.026-4.918 2.84a.534.534 0 0 1-.573-.899l3.184-2.228-3.811 2.2a.533.533 0 0 1-.577-.896l5.596-4.012-6.508 3.755a.534.534 0 0 1-.572-.899l5.792-4.053-6.652 3.84a.533.533 0 0 1-.56-.907l2.366-1.554-3.237 1.867a.534.534 0 0 1-.573-.898l8.767-6.142-12.192 7.04a.534.534 0 0 1-.566-.903l10.387-7.03-13.741 7.933a.533.533 0 0 1-.561-.906l12.465-8.277-15.905 9.183a.533.533 0 0 1-.556-.91l12.35-7.96-15.363 8.87a.533.533 0 0 1-.556-.91l16.55-10.704-19.913 11.496a.533.533 0 0 1-.552-.912l15.94-10.086-17.06 9.85a.534.534 0 0 1-.549-.915l13.78-8.607-13.843 7.99a.534.534 0 0 1-.55-.913l15.712-9.854-15.183 8.765a.534.534 0 0 1-.545-.916l6.86-4.213-6.315 3.645a.534.534 0 0 1-.549-.914l12.243-7.637-11.694 6.751a.533.533 0 0 1-.547-.914l9.066-5.64-8.52 4.918a.533.533 0 0 1-.546-.914l4.683-2.9-4.136 2.387a.533.533 0 0 1-.556-.909l12.837-8.308-12.281 7.09a.533.533 0 0 1-.556-.909l9.626-6.232-9.067 5.235a.534.534 0 0 1-.553-.912l3.47-2.203-2.92 1.682a.534.534 0 0 1-.561-.905l7.29-4.842-6.73 3.884a.534.534 0 0 1-.558-.907l2.767-1.813-2.208 1.28a.533.533 0 0 1-.585-.89l2.454-1.82-1.87 1.068a.527.527 0 0 1-.653-.094.534.534 0 0 1-.059-.66l.473-.719a.526.526 0 0 1-.488-.265.534.534 0 0 1 .194-.729l1.635-.945a.533.533 0 0 1 .712.754l-.401.612 7.896-4.556a.533.533 0 0 1 .584.89l-2.447 1.817 10.54-6.08a.533.533 0 0 1 .559.907l-2.774 1.822 5.158-2.983a.533.533 0 0 1 .562.905l-7.282 4.838 9.949-5.743a.533.533 0 0 1 .552.91l-3.461 2.2 5.389-3.11a.534.534 0 0 1 .555.909l-9.622 6.23 12.373-7.14a.534.534 0 0 1 .556.91l-12.85 8.309 15.972-9.218a.533.533 0 0 1 .547.914l-4.672 2.894 6.596-3.808a.534.534 0 0 1 .548.914l-9.067 5.64 10.691-6.173a.534.534 0 0 1 .55.914l-12.244 7.636 12.886-7.438a.533.533 0 0 1 .545.915l-6.856 4.215 6.759-3.903a.532.532 0 0 1 .704.774.532.532 0 0 1-.154.14l-15.717 9.856 15.199-8.774a.533.533 0 0 1 .548.914l-13.76 8.596 13.212-7.629a.533.533 0 0 1 .551.913l-15.943 10.09 15.392-8.886a.534.534 0 0 1 .556.908L46.64 45.051l15.994-9.235a.533.533 0 0 1 .554.91l-12.348 7.96 11.794-6.808a.534.534 0 0 1 .56.906L50.73 47.062l11.906-6.872a.533.533 0 0 1 .565.902l-10.383 7.027 9.813-5.667a.533.533 0 0 1 .573.898l-8.768 6.14 8.195-4.73a.533.533 0 0 1 .56.906l-2.37 1.564 1.814-1.047a.533.533 0 0 1 .571.898l-5.786 4.045 5.215-3.01a.533.533 0 0 1 .577.895l-5.6 4.018 5.024-2.9a.533.533 0 0 1 .573.898l-3.184 2.23 2.61-1.508a.533.533 0 0 1 .584.89l-6.4 4.716a.533.533 0 0 1 .082.788l-1.633 1.814.97-.56a.534.534 0 0 1 .68.799l-.78.96.1-.058a.533.533 0 0 1 .533.923l-2.614 1.51a.533.533 0 0 1-.269.074Z" fill="#BFDBF0"/><path d="M19.714 33.124a.533.533 0 0 1-.266-.995L41.3 19.51a.534.534 0 0 1 .566.904l-6.164 4.165 5.598-3.232a.533.533 0 0 1 .566.902l-3.574 2.422 3.013-1.738a.533.533 0 0 1 .582.892l-4.693 3.442 4.108-2.37a.534.534 0 0 1 .599.877l-3.56 2.857 2.96-1.707a.533.533 0 0 1 .614.868l-1.681 1.436 1.066-.616a.533.533 0 0 1 .682.796l-1.095 1.363a.534.534 0 0 1 .325.99l-2.185 1.26a.533.533 0 0 1-.682-.796l1.018-1.266-3.613 2.083a.534.534 0 0 1-.615-.866l1.683-1.438-3.994 2.304a.533.533 0 0 1-.6-.877l3.562-2.856-6.472 3.733a.533.533 0 0 1-.582-.892l4.693-3.444-7.515 4.337a.533.533 0 0 1-.565-.902l3.573-2.42-5.76 3.323a.533.533 0 0 1-.565-.902l6.16-4.16-8.776 5.066a.533.533 0 0 1-.264.075Z" fill="#F2CF7E"/><path d="M8.206 40.312a.533.533 0 0 1-.283-.985l8.149-5.103-8.294 4.792a.533.533 0 0 1-.547-.915l2.627-1.62-2.1 1.208a.534.534 0 0 1-.545-.916l1.014-.623-.474.273a.533.533 0 0 1-.555-.91l14.242-9.108-13.7 7.91a.533.533 0 0 1-.545-.916l1.538-.946-1.026.592a.534.534 0 0 1-.546-.915l1.895-1.168-3.608 2.08a.533.533 0 0 1-.548-.913l8.647-5.38L3.18 32.735a.533.533 0 0 1-.548-.914l12.202-7.613L1.92 31.665a.534.534 0 0 1-.547-.915L9.8 25.556 1.412 30.4a.533.533 0 0 1-.547-.915l12.267-7.616-11.767 6.79a.533.533 0 0 1-.548-.913l13.616-8.497-13.068 7.543a.533.533 0 0 1-.552-.91l17.427-11.08-16.875 9.736a.533.533 0 1 1-.546-.916l5.196-3.205-4.65 2.683a.534.534 0 0 1-.551-.91l11.167-7.079-10.616 6.13a.533.533 0 0 1-.548-.914l4.587-2.864-4.039 2.329a.533.533 0 0 1-.554-.91l9.066-5.848-8.512 4.914a.535.535 0 0 1-.567-.905l11.39-7.765-10.823 6.247a.533.533 0 0 1-.57-.9l8.592-5.947-8.022 4.631a.533.533 0 0 1-.58-.891L7.877 7.26l-6.512 3.76a.534.534 0 0 1-.597-.88l5.47-4.338-4.873 2.814a.533.533 0 0 1-.596-.88l2.347-1.852-1.75 1.012a.533.533 0 0 1-.612-.87l1.034-.874-.427.243a.533.533 0 0 1-.668-.813l.928-1.056a.533.533 0 0 1-.168-.99l2.186-1.258a.533.533 0 0 1 .667.813l-.669.765 2.77-1.6a.533.533 0 0 1 .61.868L5.983 3l3.023-1.744a.533.533 0 0 1 .595.878L7.253 3.987l4.732-2.73a.533.533 0 0 1 .599.878L7.116 6.468l9.032-5.212a.533.533 0 0 1 .58.893L9.636 7.301l10.476-6.045a.533.533 0 0 1 .57.9l-8.59 5.946 11.861-6.846a.533.533 0 0 1 .568.902L13.133 9.924 28.15 1.256a.533.533 0 0 1 .554.909L19.64 8.014l11.703-6.758a.533.533 0 0 1 .548.913l-4.583 2.86 6.544-3.773a.533.533 0 0 1 .552.911L23.237 9.241l13.836-7.985a.533.533 0 0 1 .547.915l-5.186 3.2 6.788-3.92a.533.533 0 0 1 .552.911L22.34 13.456 40.837 2.772a.533.533 0 0 1 .55.914l-13.605 8.49 13.516-7.804a.533.533 0 0 1 .547.915L29.57 12.911l11.734-6.772a.533.533 0 0 1 .546.916l-8.437 5.2L41.307 7.7a.533.533 0 0 1 .548.913l-12.202 7.61L41.3 9.504a.533.533 0 0 1 .548.915l-8.634 5.365 8.087-4.67a.533.533 0 0 1 .545.915l-1.902 1.174 1.357-.784a.533.533 0 0 1 .545.916l-1.535.946.99-.572a.533.533 0 0 1 .554.91l-14.24 9.107 13.686-7.903a.534.534 0 0 1 .545.915l-1.028.632.483-.278a.534.534 0 0 1 .547.916l-2.628 1.62 2.081-1.198a.534.534 0 0 1 .55.914L15.37 35.923a.533.533 0 0 1-.266.49L8.473 40.24a.533.533 0 0 1-.267.072Z" fill="#F2CF7E"/><path d="M54.614 24.57H42.371c-1.28-5.64 3.798-24.474-4.8-23.321H10.514C7.168 1.249.377.147.294 5.203c-.08 8.06.01 16.124 0 24.182-.061 3.468 3.633 4.054 6.4 3.673-1.437 16.572 8.499-.154 14.924 0 .214 26.488-4.615 23.945 22.763 23.615 5.606 3.847 14.284 14.333 12.939 0 10.29 1.26 5.303-12.374 6.4-18.502-.173-8.361 2.52-15.223-9.106-13.6Zm-34.91 7.612c-3.86 1.405-6.827 5.237-10.304 7.413-2.697-.14.036-6.65-1.631-7.413-2.513.25-6.056.17-5.929-3.212C1.813-9.022-2.925 4.488 35.716 2.116c2.264 0 4.943-.168 5.112 2.974-.37 8.581.722 17.493-.382 25.928-4.235 2.928-15.16.284-20.742 1.164Zm11.323 4.655c-.167.36-.585.785-.898.721-2.14-.328-1.549-2.89-1.623-4.449h2.722c-.093 1.228.239 2.56-.2 3.728Zm-.715.72h-.026.029-.003ZM62.15 52.89c-.138 3.151-3.307 2.614-5.547 2.614-.31 0-.854.266-.854.633 1.192 11.645-2.8 4.636-8.32 1.067a5.5 5.5 0 0 0-5.36-1.696c-25.961.98-17.552-.059-18.88-22.435l3.776.027c-1.563 7.07 7.135 6.818 5.812.019 1.619-.005 3.237-.025 4.855-.06-.645 7.534 2.146 6.796 1.545-.168 3.467-.621 3.352-4.347 3.2-7.159C70.72 25.095 60.252 24.32 62.15 52.89Z" fill="#000"/><path d="M17.166 12.965c-1.993.985-.38 4.907-.875 6.942.081.677 1.447.347 1.55-.181-.44-1.816.954-6.013-.675-6.761ZM12.028 12.556c.474 1.58-1.347 10.833 1.544 8.12-.473-1.58 1.348-10.832-1.544-8.12ZM34.215 17.988c1.206-.22.525-1.772.692-2.645-.32-.36-1.024-.086-1.377.137-.25.657-.627 3.056.685 2.508ZM8.457 15.263c-1.211.213-.534 1.754-.697 2.627a1.158 1.158 0 0 0 1.546-.414c-.154-.8.542-2.71-.85-2.213ZM25.52 20.338c1.97-1.043.37-4.942.861-6.992-.058-.764-1.478-.481-1.56.142.46 1.969-.999 5.842.698 6.85ZM30.639 20.676c-.452-1.521 1.313-11.027-1.545-8.12.453 1.522-1.313 11.028 1.545 8.12ZM22.106 23.876c-.64-2.133 1.625-17.445-1.545-14.52.641 2.13-1.625 17.446 1.545 14.52ZM7.377 11.771c1.85-.275.138-2.886 1.289-3.901a1.04 1.04 0 0 1 .554-.348c.042 0 .287-.02.095-.016 8.022-.067-1.4-2.751-2.424.8-.116.918-.825 3.412.486 3.465ZM30.86 7.562c.681.009 1.865-.024 2.278.025a1.74 1.74 0 0 1 1.094.875c.676.94-.612 3.252.894 3.367 1.813-.616.99-4.806-.924-5.206-.744-.46-5.993-.11-3.342.94ZM12.03 25.766c-3.2.433-4.154-.797-3.789-3.91-2.315-1.849-2.078 4.455.06 4.628.64.344 5.566.4 3.73-.718ZM35.262 21.358c-1.975.359.226 3.606-1.754 4.225l.094-.036c-8.64.235 1.13 3.2 2.21-.624.076-.976.807-3.413-.55-3.565ZM55.901 28.83c-4.603-.731-4.892 9.92-.494 9.72 4.105.328 4.327-9.553.494-9.72Zm-.376 8.519c-2.066.107-2.043-6.987-.364-7.317 2.332-.809 2.378 7.704.364 7.317ZM49.836 31.23c-.161-2.724-4.047-2.566-5.353-.841-.915 1.72-.289 3.869-.453 5.76.231 2.818 4.449 2.615 5.56.518.52-1.723.198-3.652.246-5.437Zm-3.392-1.504h-.008s-.002-.006.008-.005v.005Zm-.035 0c-.03 0-.038-.009 0 0Zm1.886 2.64c-.24 1.706.692 4.084-.872 5.276-2.648.098-2.545-7.215-.78-7.893a2.216 2.216 0 0 1 1.651 2.612v.005ZM41.294 43.91c-.295-2.72-4.2-2.7-5.431-.719-.593 2.52-1.484 8.248 2.529 8 3.848-.214 2.832-4.614 2.902-7.28Zm-1.536 1.258c-.286 1.56.827 4.425-1.067 5.112a1.763 1.763 0 0 1-1.64-1.638c.291-1.835-.866-4.743.894-5.927 1.329-.248 1.985 1.361 1.813 2.453ZM32.747 43.796c-.461-2.63-4.352-2.752-5.482-.548-.464 2.61-1.431 7.988 2.527 8.038 3.942-.15 2.928-4.79 2.955-7.49Zm-2.758 6.409c-2.148.082-2.117-7.022-.444-7.44 2.339-.693 2.404 7.637.442 7.44h.003ZM46.161 42.423c.459 1.537-1.324 10.97 1.545 8.12-.459-1.537 1.323-10.971-1.545-8.12ZM54.69 42.3c.448 1.483-1.305 11.225 1.552 8.366-.447-1.483 1.307-11.223-1.552-8.367Z" fill="#000"/></svg>