<svg width="99" height="141" fill="none" xmlns="http://www.w3.org/2000/svg"><path opacity=".2" d="M0 115.321c41.51-29.632 62.266-53.194 62.266-70.685 0-10.704-4.634-16.056-13.902-16.056-5.222 0-9.073 1.827-11.553 5.482-2.35 3.655-3.655 9.334-3.916 17.035H.195C.98 34.257 6.07 21.596 15.47 13.111 24.867 4.626 36.745.384 51.105.384c15.012 0 26.303 3.785 33.874 11.356 7.702 7.571 11.552 17.427 11.552 29.567 0 13.445-5.156 26.63-15.468 39.552-10.312 12.793-22.648 23.627-37.007 32.504h54.63v27.021H0v-25.063Z" fill="url('#paint0_linear_131_676')"/><defs><linearGradient id="paint0_linear_131_676" x1="49.343" y1=".384" x2="49.343" y2="140.384" gradientUnits="userSpaceOnUse"><stop stop-color="#B3A985"/><stop offset="1" stop-color="#B2A985" stop-opacity="0"/></linearGradient></defs></svg>