<svg width="96" height="141" fill="none" xmlns="http://www.w3.org/2000/svg"><path opacity=".2" d="M49.047.384c9.27 0 17.226 1.628 23.866 4.886 6.64 3.132 11.65 7.517 15.033 13.154 3.508 5.512 5.262 11.776 5.262 18.792 0 8.644-2.255 15.597-6.765 20.86-4.385 5.26-9.897 8.58-16.537 9.959v.94c17.163 5.512 25.745 16.223 25.745 32.134 0 7.642-1.754 14.469-5.262 20.483-3.508 5.888-8.644 10.523-15.41 13.906-6.639 3.257-14.657 4.886-24.053 4.886-15.284 0-27.436-3.759-36.456-11.275C5.575 121.592.752 110.129 0 94.719h31.383c.25 5.889 1.879 10.524 4.886 13.906 3.006 3.383 7.391 5.074 13.154 5.074 4.635 0 8.268-1.378 10.9-4.134 2.755-2.756 4.133-6.327 4.133-10.711 0-10.9-7.892-16.35-23.678-16.35h-6.013v-26.12h5.826c14.156.25 21.234-4.824 21.234-15.222 0-4.51-1.252-7.955-3.758-10.335-2.38-2.506-5.638-3.759-9.772-3.759-4.51 0-8.08 1.566-10.711 4.698-2.631 3.007-4.134 7.079-4.51 12.215H1.69C2.318 29.95 6.702 19.176 14.846 11.66 22.989 4.142 34.389.384 49.047.384Z" fill="url('#paint0_linear_131_688')"/><defs><linearGradient id="paint0_linear_131_688" x1="47.825" y1=".384" x2="47.825" y2="140.384" gradientUnits="userSpaceOnUse"><stop stop-color="#B3A985"/><stop offset="1" stop-color="#B2A985" stop-opacity="0"/></linearGradient></defs></svg>