<svg width="212" height="150" fill="none" xmlns="http://www.w3.org/2000/svg"><path d="M205.527 0H6.473C2.898 0 0 2.858 0 6.383v137.234C0 147.142 2.898 150 6.473 150h199.054c3.575 0 6.473-2.858 6.473-6.383V6.383C212 2.858 209.102 0 205.527 0Z" fill="#fff"/><path d="M35.221 52.77a.25.25 0 0 1-.233-.165.24.24 0 0 1 .086-.272l2.026-1.507-.345.194a.25.25 0 0 1-.312-.054.241.241 0 0 1 0-.312l.937-1.11-.12.068a.25.25 0 0 1-.36-.144.239.239 0 0 1 .003-.145l.113-.326a.242.242 0 0 1 .01-.415l.246-.141a.25.25 0 0 1 .279.023.243.243 0 0 1 .077.265l-.049.139.754-.43a.25.25 0 0 1 .312.054.241.241 0 0 1 0 .312l-.94 1.11 2.603-1.48a.25.25 0 0 1 .328.076.24.24 0 0 1-.056.328l-2.026 1.508 3.37-1.919a.249.249 0 0 1 .328.08.24.24 0 0 1-.062.328l-1.418 1.003 2.139-1.216a.25.25 0 0 1 .33.08.24.24 0 0 1-.065.33l-.79.548.548-.312a.25.25 0 0 1 .328.08.241.241 0 0 1-.062.328l-.208.146.046-.025a.25.25 0 0 1 .323.07.241.241 0 0 1-.039.324l-.972.827.986-.562a.25.25 0 0 1 .307.048.241.241 0 0 1 .017.305l-.68.933 1.004-.572a.25.25 0 0 1 .35.118c.019.043.024.09.016.136l-.114.617.636-.362a.248.248 0 0 1 .35.113l.163.373h.004a.244.244 0 0 1 .19-.031.246.246 0 0 1 .187.207.241.241 0 0 1-.13.245l-.243.138a.247.247 0 0 1-.2.02.248.248 0 0 1-.15-.134l-.163-.372-.857.486a.246.246 0 0 1-.35-.118.239.239 0 0 1-.014-.136l.113-.62-1.537.876a.25.25 0 0 1-.305-.047.242.242 0 0 1-.018-.305l.68-.933-2.262 1.287a.25.25 0 0 1-.325-.07.24.24 0 0 1 .04-.324l.973-.827-2.149 1.222a.25.25 0 0 1-.328-.08.24.24 0 0 1 .061-.328l.207-.145-.976.554a.25.25 0 0 1-.332-.079.24.24 0 0 1 .067-.33l.79-.545-1.681.956a.25.25 0 0 1-.329-.08.24.24 0 0 1 .062-.328l1.42-1.004-2.482 1.414a.246.246 0 0 1-.127.037Z" fill="#BFDBF0"/><path d="M48.195 49.352a.249.249 0 0 1-.235-.17.24.24 0 0 1 .095-.273l.063-.043-.797.453a.249.249 0 0 1-.327-.081.24.24 0 0 1 .06-.327l.596-.419-1.452.827a.25.25 0 0 1-.326-.073.24.24 0 0 1 .048-.327l1.765-1.4-3.161 1.799a.25.25 0 0 1-.323-.074.242.242 0 0 1 .043-.324l1.86-1.507-3.348 1.905a.25.25 0 0 1-.324-.074.24.24 0 0 1 .046-.325l1.79-1.428-3.211 1.827a.25.25 0 0 1-.327-.082.24.24 0 0 1 .062-.327l.253-.175-1.026.584a.25.25 0 0 1-.324-.074.241.241 0 0 1 .044-.324l1.833-1.478-3.296 1.876a.25.25 0 0 1-.33-.078.24.24 0 0 1 .06-.329l1.054-.76-2.054 1.167a.25.25 0 0 1-.33-.075.24.24 0 0 1 .057-.33l1.404-1.051-2.559 1.458a.25.25 0 0 1-.324-.07.24.24 0 0 1 .04-.325l1.976-1.668-3.625 2.061a.25.25 0 0 1-.327-.078.24.24 0 0 1 .057-.327l1.225-.902-2.296 1.307a.25.25 0 0 1-.326-.076.24.24 0 0 1 .05-.326l1.622-1.252-2.906 1.654a.25.25 0 0 1-.33-.079.24.24 0 0 1 .062-.329l.854-.609-1.786 1.017a.25.25 0 0 1-.331-.078.24.24 0 0 1 .063-.33l.716-.506-1.606.914a.25.25 0 0 1-.326-.082.24.24 0 0 1 .06-.326l.423-.292-1.224.696a.25.25 0 0 1-.33-.077.24.24 0 0 1 .058-.329l1.241-.915-1.666.948a.25.25 0 0 1-.326-.074.24.24 0 0 1 .05-.327l1.2-.938-1.125.64a.25.25 0 0 1-.319-.066.24.24 0 0 1 .026-.32l.944-.885-.655.373a.25.25 0 0 1-.293-.035.243.243 0 0 1-.05-.287l.375-.713a.26.26 0 0 1-.219-.121.24.24 0 0 1 .091-.333l.585-.33a.25.25 0 0 1 .293.035.242.242 0 0 1 .05.287l-.346.662 1.729-.984a.25.25 0 0 1 .327.062.241.241 0 0 1-.034.327l-.946.88 2.234-1.27a.249.249 0 0 1 .326.075.241.241 0 0 1-.05.326l-1.197.937 2.352-1.34a.25.25 0 0 1 .327.079.24.24 0 0 1-.056.327l-1.242.915 2.317-1.318a.25.25 0 0 1 .33.08.24.24 0 0 1-.064.329l-.423.291 1.237-.7a.25.25 0 0 1 .329.08.24.24 0 0 1-.062.328l-.717.507 1.608-.915a.25.25 0 0 1 .33.078.24.24 0 0 1-.062.33l-.852.607 1.785-1.016a.25.25 0 0 1 .325.076.241.241 0 0 1-.05.326l-1.622 1.252 2.91-1.653a.25.25 0 0 1 .327.078.24.24 0 0 1-.056.327l-1.228.898 2.295-1.307a.249.249 0 0 1 .323.071.24.24 0 0 1-.04.324l-1.975 1.669 3.625-2.064a.25.25 0 0 1 .33.076.24.24 0 0 1-.057.328l-1.404 1.053 2.56-1.46a.25.25 0 0 1 .327.08.24.24 0 0 1-.059.327l-1.053.767 2.056-1.17a.25.25 0 0 1 .324.073.24.24 0 0 1-.045.325l-1.831 1.477 3.297-1.877a.25.25 0 0 1 .33.081.24.24 0 0 1-.065.329l-.252.173 1.025-.583a.25.25 0 0 1 .326.073.241.241 0 0 1-.047.326l-1.79 1.428 3.21-1.828a.25.25 0 0 1 .323.074.24.24 0 0 1-.043.324l-1.86 1.508 3.35-1.907a.249.249 0 0 1 .325.075.24.24 0 0 1-.047.325l-1.765 1.399 3.161-1.8a.25.25 0 0 1 .33.08.24.24 0 0 1-.064.329l-.595.418 1.452-.827a.25.25 0 0 1 .336.078.24.24 0 0 1-.072.333l-.062.042.333-.19a.25.25 0 0 1 .324.069.24.24 0 0 1-.037.324L52.1 47.681l1.663-.945a.25.25 0 0 1 .326.063.24.24 0 0 1-.034.326l-.795.742.505-.287a.25.25 0 0 1 .31.053.24.24 0 0 1 .006.31l-.3.372a.245.245 0 0 1 .226.12.24.24 0 0 1-.09.333l-.97.55a.25.25 0 0 1-.31-.052.242.242 0 0 1-.007-.31l.255-.315-1.19.677a.25.25 0 0 1-.327-.063.241.241 0 0 1 .034-.326l.798-.745-1.99 1.134a.25.25 0 0 1-.322-.07.24.24 0 0 1 .036-.322l1.733-1.508-3.34 1.9a.25.25 0 0 1-.123.034Z" fill="#E1EFFF"/><path d="M26.4 46.449a.249.249 0 0 1-.238-.179.24.24 0 0 1 .11-.273l.19-.111-.041.022a.25.25 0 0 1-.338-.084.24.24 0 0 1 .086-.333l12.864-7.814-12.612 7.18a.25.25 0 0 1-.338-.086.24.24 0 0 1 .087-.333l7.372-4.403-7.121 4.054a.25.25 0 0 1-.33-.088.241.241 0 0 1 .076-.33l13.104-8.012-12.85 7.315a.25.25 0 0 1-.332-.09.24.24 0 0 1 .082-.33l.394-.233-.145.083a.25.25 0 0 1-.338-.085.24.24 0 0 1 .086-.333l8.757-5.312-8.504 4.842a.25.25 0 0 1-.33-.088.241.241 0 0 1 .076-.33l8.937-5.466-8.683 4.944a.25.25 0 0 1-.338-.085.24.24 0 0 1 .086-.334l4.197-2.529-3.946 2.246a.25.25 0 0 1-.33-.088.24.24 0 0 1 .076-.33l6.757-4.144-6.502 3.7a.25.25 0 0 1-.334-.084.24.24 0 0 1 .08-.332l6.26-3.867-6.006 3.421a.25.25 0 0 1-.339-.083.24.24 0 0 1 .085-.334l4.39-2.701-4.136 2.354a.25.25 0 0 1-.333-.085.24.24 0 0 1 .078-.33l5.21-3.264-4.955 2.82a.25.25 0 0 1-.332-.086.24.24 0 0 1 .078-.33l2.839-1.761-2.585 1.472a.25.25 0 0 1-.332-.085.24.24 0 0 1 .075-.33l4.01-2.552-3.753 2.137a.25.25 0 0 1-.331-.084.24.24 0 0 1 .071-.33l4.288-2.816-4.028 2.295a.25.25 0 0 1-.333-.083.24.24 0 0 1 .074-.33l2.603-1.699-2.344 1.335a.25.25 0 0 1-.34-.079.24.24 0 0 1 .08-.335l1.642-1.077-1.38.788a.25.25 0 0 1-.33-.08.24.24 0 0 1 .061-.328l2.663-1.91-2.393 1.362a.25.25 0 0 1-.331-.078.24.24 0 0 1 .063-.33l1.188-.843-.923.526a.25.25 0 0 1-.327-.072.241.241 0 0 1 .048-.328l1.282-1.03-1.003.571a.25.25 0 0 1-.322-.066.24.24 0 0 1 .031-.323l.669-.61-.378.215a.25.25 0 0 1-.307-.047.241.241 0 0 1-.016-.306l.333-.45a.243.243 0 0 1-.218-.338.244.244 0 0 1 .104-.116l.817-.465a.249.249 0 0 1 .306.048.241.241 0 0 1 .017.305l-.278.376 1.282-.729a.25.25 0 0 1 .322.067.241.241 0 0 1-.031.322l-.666.608 1.754-.997a.25.25 0 0 1 .325.073.24.24 0 0 1-.046.326l-1.282 1.03 2.51-1.429a.25.25 0 0 1 .331.078.24.24 0 0 1-.063.33l-1.19.842 2.2-1.25a.25.25 0 0 1 .329.079.24.24 0 0 1-.06.328l-2.665 1.908 4.07-2.315a.25.25 0 0 1 .332.083.24.24 0 0 1-.071.33l-1.643 1.076 2.618-1.489a.25.25 0 0 1 .334.082.24.24 0 0 1-.074.331l-2.603 1.697 3.708-2.11a.25.25 0 0 1 .331.083.24.24 0 0 1-.071.33l-4.288 2.813 5.67-3.226a.25.25 0 0 1 .332.085.24.24 0 0 1-.075.33l-4.01 2.551L40 27.531a.25.25 0 0 1 .332.087.24.24 0 0 1-.078.33l-2.84 1.76 3.827-2.177a.25.25 0 0 1 .333.085.24.24 0 0 1-.078.33l-5.21 3.262 6.462-3.677a.25.25 0 0 1 .33.088.24.24 0 0 1-.077.329l-4.39 2.7 5.475-3.117a.248.248 0 0 1 .372.172.24.24 0 0 1-.117.245l-6.258 3.863 7.522-4.28a.25.25 0 0 1 .33.088.24.24 0 0 1-.077.329l-6.753 4.142 8.011-4.559a.25.25 0 0 1 .338.085.24.24 0 0 1-.086.333l-4.198 2.53 5.18-2.948a.25.25 0 0 1 .338.084.24.24 0 0 1-.085.333l-8.939 5.467 10.338-5.884a.25.25 0 0 1 .331.088.24.24 0 0 1-.08.33l-8.759 5.311 10.067-5.729a.25.25 0 0 1 .33.09.24.24 0 0 1-.08.329l-.38.225 1.132-.644a.25.25 0 0 1 .338.084.24.24 0 0 1-.085.333L39.714 35.96l13.93-7.93a.25.25 0 0 1 .332.088.24.24 0 0 1-.082.33l-7.383 4.41 7.253-4.13a.25.25 0 0 1 .339.085.24.24 0 0 1-.086.334l-12.863 7.812 12.611-7.179a.25.25 0 0 1 .331.09.24.24 0 0 1-.08.33l-.233.137a.25.25 0 0 1 .322.104.24.24 0 0 1-.087.323L45.46 35.91l8.306-4.729a.25.25 0 0 1 .332.087.24.24 0 0 1-.08.33L42.64 38.578l11.127-6.335a.25.25 0 0 1 .333.09.24.24 0 0 1-.082.33l-1.805 1.074 1.555-.885a.25.25 0 0 1 .332.09.24.24 0 0 1-.081.329l-1.245.742.994-.566a.25.25 0 0 1 .335.087.24.24 0 0 1-.083.331l-4.35 2.626 4.098-2.334a.25.25 0 0 1 .333.087.24.24 0 0 1-.08.33l-5.15 3.136 4.9-2.79a.25.25 0 0 1 .338.084.241.241 0 0 1-.085.333L49.23 38.27l4.542-2.586a.25.25 0 0 1 .335.085.24.24 0 0 1-.08.331l-4.568 2.812 4.313-2.456a.25.25 0 0 1 .338.085.24.24 0 0 1-.086.334l-.23.138a.25.25 0 0 1 .32.107.24.24 0 0 1-.088.322l-2.112 1.297 1.858-1.059a.25.25 0 0 1 .339.084.243.243 0 0 1-.013.27.245.245 0 0 1-.072.064l-1.315.809 1.062-.605a.25.25 0 0 1 .336.083.24.24 0 0 1-.08.332l-3.236 2.047 2.98-1.697a.25.25 0 0 1 .335.082.24.24 0 0 1-.076.332l-3.077 1.974 2.82-1.605a.25.25 0 0 1 .332.081.24.24 0 0 1-.07.33l-3.632 2.438 3.37-1.919a.25.25 0 0 1 .333.08.24.24 0 0 1-.069.33l-2.726 1.866 2.463-1.402a.25.25 0 0 1 .33.078.24.24 0 0 1-.063.33l-2.096 1.485 1.83-1.041a.25.25 0 0 1 .323.072.24.24 0 0 1-.042.325l-2.033 1.675 1.753-.997a.25.25 0 0 1 .322.062.24.24 0 0 1-.026.323L52.988 45l.789-.449a.249.249 0 0 1 .3.043.242.242 0 0 1 .031.298l-.382.592.052-.03a.252.252 0 0 1 .28.01.243.243 0 0 1 .089.263.243.243 0 0 1-.123.148l-.923.525a.249.249 0 0 1-.301-.042.242.242 0 0 1-.03-.298l.382-.593-1.641.935a.25.25 0 0 1-.323-.063.24.24 0 0 1 .027-.323l1.085-1.035-2.498 1.422a.25.25 0 0 1-.325-.072.24.24 0 0 1 .043-.325l2.033-1.676-3.642 2.074a.25.25 0 0 1-.33-.079.24.24 0 0 1 .063-.33l2.093-1.483-3.325 1.892a.25.25 0 0 1-.332-.08.24.24 0 0 1 .069-.33l2.729-1.867-4.001 2.279a.25.25 0 0 1-.33-.083.24.24 0 0 1 .068-.328l3.63-2.436-5.004 2.848a.25.25 0 0 1-.33-.086.24.24 0 0 1 .072-.328l3.077-1.976-4.198 2.39a.25.25 0 0 1-.33-.086.24.24 0 0 1 .073-.329l3.242-2.049-4.33 2.464a.249.249 0 0 1-.33-.088.24.24 0 0 1 .076-.328l1.306-.804-2.146 1.221a.25.25 0 0 1-.33-.087.24.24 0 0 1 .077-.33l2.117-1.3-3.02 1.719a.25.25 0 0 1-.329-.09.24.24 0 0 1 .077-.327l.184-.112-.93.53a.25.25 0 0 1-.335-.086.24.24 0 0 1 .08-.331l4.575-2.816-5.678 3.233a.25.25 0 0 1-.333-.087.24.24 0 0 1 .08-.33l4.792-2.93-5.881 3.348a.25.25 0 0 1-.339-.084.24.24 0 0 1 .086-.334l5.15-3.134-6.24 3.552a.25.25 0 0 1-.338-.085.24.24 0 0 1 .086-.333l4.347-2.623-5.344 3.042a.25.25 0 0 1-.332-.089.24.24 0 0 1 .081-.33l1.244-.741-2.04 1.16a.25.25 0 0 1-.332-.088.24.24 0 0 1 .082-.33l1.808-1.076-2.628 1.495a.25.25 0 0 1-.338-.083.24.24 0 0 1 .085-.334l11.38-6.978-12.993 7.396a.25.25 0 0 1-.338-.085.24.24 0 0 1 .086-.333l8.559-5.148-9.779 5.567a.245.245 0 0 1-.123.033Z" fill="#CAB5CF"/><path d="M32.543 44.489a.248.248 0 0 1-.237-.176.24.24 0 0 1 .107-.274l7.044-4.331-8.34 4.747a.25.25 0 0 1-.332-.089.24.24 0 0 1 .08-.329l4.894-2.957-5.93 3.375a.25.25 0 0 1-.331-.087.24.24 0 0 1 .077-.33l11.064-6.857-12.216 6.957a.25.25 0 0 1-.331-.089.24.24 0 0 1 .08-.33l7.268-4.39-7.046 4.011a.25.25 0 0 1-.33-.09.24.24 0 0 1 .08-.328l2.98-1.783-2.73 1.554a.25.25 0 0 1-.33-.09.24.24 0 0 1 .08-.328l1.831-1.096-1.58.9a.25.25 0 0 1-.339-.085.24.24 0 0 1 .086-.333l3.171-1.91-2.919 1.662a.25.25 0 0 1-.338-.083.24.24 0 0 1 .084-.334l7.011-4.328-6.757 3.848a.249.249 0 0 1-.37-.173.24.24 0 0 1 .117-.245l4.317-2.646-4.064 2.314a.25.25 0 0 1-.334-.085.24.24 0 0 1 .08-.332l3.934-2.422-3.68 2.095a.25.25 0 0 1-.33-.088.24.24 0 0 1 .077-.329l1.761-1.078-1.508.858a.25.25 0 0 1-.335-.083.24.24 0 0 1 .079-.332l4.655-2.95-4.399 2.506a.25.25 0 0 1-.34-.08.24.24 0 0 1 .082-.335l4.426-2.855-4.168 2.373a.25.25 0 0 1-.34-.078.241.241 0 0 1 .079-.335l4.214-2.797-3.953 2.25a.25.25 0 0 1-.33-.08.24.24 0 0 1 .064-.329l3.899-2.718-3.633 2.069a.251.251 0 0 1-.274-.009.246.246 0 0 1-.1-.157.243.243 0 0 1 .113-.247l1.27-.845-1.009.574a.25.25 0 0 1-.327-.077.24.24 0 0 1 .055-.327l2.255-1.687-1.983 1.129a.25.25 0 0 1-.33-.078.24.24 0 0 1 .061-.33l.505-.361-.236.134a.25.25 0 0 1-.327-.073.24.24 0 0 1 .05-.327l.546-.431-.269.153a.249.249 0 0 1-.318-.064.241.241 0 0 1 .022-.32l.439-.427-.142.08a.25.25 0 0 1-.297-.038.242.242 0 0 1-.04-.293l.198-.34a.248.248 0 0 1-.2-.198.245.245 0 0 1 .119-.253l.574-.323a.25.25 0 0 1 .297.039.242.242 0 0 1 .04.293l-.14.24 1.004-.572a.25.25 0 0 1 .317.065.24.24 0 0 1-.021.318l-.439.428 1.425-.811a.25.25 0 0 1 .325.074.24.24 0 0 1-.048.326l-.546.431 1.46-.831a.25.25 0 0 1 .33.079.24.24 0 0 1-.061.328l-.506.363 1.353-.77a.25.25 0 0 1 .329.076.24.24 0 0 1-.056.328l-2.257 1.687 3.673-2.091a.25.25 0 0 1 .332.082.24.24 0 0 1-.07.33l-1.271.845 2.21-1.257a.25.25 0 0 1 .329.081.24.24 0 0 1-.063.328l-3.897 2.718 5.491-3.127a.25.25 0 0 1 .329.084.24.24 0 0 1-.068.328l-4.214 2.798 5.639-3.21a.25.25 0 0 1 .332.084.24.24 0 0 1-.074.33l-4.426 2.855 5.743-3.269a.25.25 0 0 1 .339.081.24.24 0 0 1-.082.334l-4.655 2.949 5.908-3.364a.25.25 0 0 1 .333.087.24.24 0 0 1-.08.33l-1.763 1.079 2.629-1.496a.25.25 0 0 1 .334.085.24.24 0 0 1-.08.332l-3.934 2.422 4.986-2.839a.25.25 0 0 1 .333.087.24.24 0 0 1-.08.33l-4.32 2.647 5.382-3.064a.25.25 0 0 1 .335.085.24.24 0 0 1-.08.332L40.04 34.22l8.338-4.745a.25.25 0 0 1 .338.085.24.24 0 0 1-.086.333l-3.17 1.907 4.087-2.325a.25.25 0 0 1 .338.086.24.24 0 0 1-.087.333l-1.827 1.093 2.655-1.512a.25.25 0 0 1 .338.085.24.24 0 0 1-.087.334l-2.987 1.786 3.707-2.11a.25.25 0 0 1 .331.088.24.24 0 0 1-.08.33l-7.262 4.385 7.204-4.101a.25.25 0 0 1 .335.085.24.24 0 0 1-.08.331l-11.069 6.86 10.815-6.157a.25.25 0 0 1 .33.089.24.24 0 0 1-.078.329l-4.892 2.956 4.64-2.642a.25.25 0 0 1 .338.084.241.241 0 0 1-.085.334l-7.044 4.33 6.79-3.865a.25.25 0 0 1 .332.086.24.24 0 0 1-.075.329l-8.552 5.41 8.295-4.723a.25.25 0 0 1 .333.084.24.24 0 0 1-.076.33l-7.197 4.578 6.94-3.95a.25.25 0 0 1 .332.085.24.24 0 0 1-.075.33l-4.943 3.116 4.686-2.667a.25.25 0 0 1 .336.08.24.24 0 0 1-.078.334l-5.454 3.551 5.197-2.958a.25.25 0 0 1 .33.086.24.24 0 0 1-.075.33l-2.16 1.365 1.904-1.084a.25.25 0 0 1 .34.08.24.24 0 0 1-.082.334l-1.941 1.243 1.684-.959a.25.25 0 0 1 .33.085.24.24 0 0 1-.072.329l-1.739 1.132 1.48-.843a.25.25 0 0 1 .327.078.24.24 0 0 1-.057.327l-3.325 2.45 3.058-1.74a.25.25 0 0 1 .328.077.24.24 0 0 1-.057.328l-1.95 1.459 1.677-.956a.25.25 0 0 1 .325.075.241.241 0 0 1-.046.325l-1.182.943.902-.511a.25.25 0 0 1 .325.072.24.24 0 0 1-.044.325l-.255.207a.25.25 0 0 1 .281.059.242.242 0 0 1 .034.282l-.377.69.034-.018a.25.25 0 0 1 .327.094.24.24 0 0 1-.08.327l-.786.447a.25.25 0 0 1-.295-.037.242.242 0 0 1-.045-.29l.377-.69-1.787 1.012a.25.25 0 0 1-.324-.073.24.24 0 0 1 .044-.325l.247-.2-1.052.598a.25.25 0 0 1-.324-.075.24.24 0 0 1 .046-.325l1.184-.943-2.36 1.343a.25.25 0 0 1-.328-.077.24.24 0 0 1 .055-.328l1.95-1.458-3.273 1.863a.25.25 0 0 1-.326-.08.24.24 0 0 1 .055-.325l3.326-2.45-5.015 2.855a.25.25 0 0 1-.329-.085.24.24 0 0 1 .07-.328l1.74-1.133-2.715 1.546a.25.25 0 0 1-.33-.086.24.24 0 0 1 .072-.328l1.941-1.243-2.91 1.657a.25.25 0 0 1-.329-.087.24.24 0 0 1 .073-.328l2.157-1.362-3.126 1.777a.25.25 0 0 1-.326-.087.241.241 0 0 1 .068-.326l5.455-3.55-6.966 3.963a.25.25 0 0 1-.327-.088.241.241 0 0 1 .071-.327l4.943-3.118-6.205 3.533a.25.25 0 0 1-.328-.087.24.24 0 0 1 .07-.328l7.199-4.577-8.771 4.992a.25.25 0 0 1-.33-.087.24.24 0 0 1 .074-.328l8.553-5.409-10.232 5.824a.25.25 0 0 1-.124.034Z" fill="#3B2186"/><path d="M36.446 54.215a.248.248 0 0 1-.232-.16.24.24 0 0 1 .076-.27l.03-.025-.743.422a.25.25 0 0 1-.316-.07.24.24 0 0 1 .028-.319l.409-.362-1.326.75a.249.249 0 0 1-.305-.048.241.241 0 0 1-.018-.304l.73-.993-1.452.827a.25.25 0 0 1-.315-.059.242.242 0 0 1 .01-.316l.388-.414a.247.247 0 0 1-.166-.206.24.24 0 0 1 .121-.235l1.011-.576a.25.25 0 0 1 .317.059.24.24 0 0 1-.012.317l-.197.21 1.051-.596a.25.25 0 0 1 .306.048.241.241 0 0 1 .017.305l-.73.992 2.365-1.345a.25.25 0 0 1 .316.07.24.24 0 0 1-.028.32l-.409.361 1.325-.751a.25.25 0 0 1 .324.073.242.242 0 0 1-.045.325l-.03.024.743-.422a.25.25 0 0 1 .316.07.24.24 0 0 1-.028.32l-.42.374 1.345-.764a.25.25 0 0 1 .325.073.241.241 0 0 1-.045.325l-.04.033.757-.431a.25.25 0 0 1 .315.066.24.24 0 0 1-.02.316l-.613.605 1.736-.987a.25.25 0 0 1 .314.072.24.24 0 0 1-.027.317l-.382.336 1.279-.73a.25.25 0 0 1 .326.071.24.24 0 0 1-.044.327l-.144.118.888-.507a.25.25 0 0 1 .315.057.24.24 0 0 1-.007.315l-.706.784 1.3-.74a.25.25 0 0 1 .308.05.241.241 0 0 1 .012.307l-.407.536.462-.262a.246.246 0 0 1 .19-.032.25.25 0 0 1 .155.115.24.24 0 0 1-.099.337l-1.518.863a.25.25 0 0 1-.307-.05.241.241 0 0 1-.013-.306l.409-.533-1.563.89a.248.248 0 0 1-.313-.058.24.24 0 0 1 .005-.314l.706-.785-2.03 1.156a.25.25 0 0 1-.325-.071.241.241 0 0 1 .043-.325l.148-.12-.91.516a.248.248 0 0 1-.314-.072.241.241 0 0 1 .026-.317l.383-.336-1.28.73a.25.25 0 0 1-.318-.063.24.24 0 0 1 .021-.32l.616-.605-1.737.983a.25.25 0 0 1-.323-.073.241.241 0 0 1 .044-.325l.04-.032-.758.43a.249.249 0 0 1-.316-.07.24.24 0 0 1 .028-.319l.421-.375-1.346.764a.243.243 0 0 1-.123.034ZM31.906 44.501a.249.249 0 0 1-.235-.17.24.24 0 0 1 .094-.272l3.411-2.344-4.81 2.74a.25.25 0 0 1-.33-.084.24.24 0 0 1 .07-.329l3.449-2.265-3.188 1.813a.25.25 0 0 1-.331-.083.24.24 0 0 1 .07-.33l4.065-2.71-3.804 2.167a.25.25 0 0 1-.33-.083.24.24 0 0 1 .07-.33l3.588-2.364-3.328 1.896a.25.25 0 0 1-.34-.075.24.24 0 0 1 .076-.335l4.893-3.341-4.63 2.636a.248.248 0 0 1-.372-.17.24.24 0 0 1 .115-.245l1.692-1.08-1.434.817a.25.25 0 0 1-.333-.08.24.24 0 0 1 .07-.331l4.535-3.061-4.272 2.432a.25.25 0 0 1-.331-.083.24.24 0 0 1 .07-.33l4.118-2.747-3.857 2.194a.25.25 0 0 1-.332-.084.24.24 0 0 1 .073-.33l2.354-1.516-2.095 1.193a.25.25 0 0 1-.339-.082.24.24 0 0 1 .083-.334l.236-.146a.25.25 0 0 1-.32-.1.24.24 0 0 1 .076-.32l4.709-3.196-4.445 2.529a.25.25 0 0 1-.334-.08.24.24 0 0 1 .07-.331l4.775-3.247-4.511 2.568a.25.25 0 0 1-.334-.08.24.24 0 0 1 .07-.33l4.8-3.268-4.538 2.582a.25.25 0 0 1-.332-.08.24.24 0 0 1 .07-.331l4.166-2.805-3.902 2.222a.249.249 0 0 1-.334-.08.24.24 0 0 1 .07-.331l3.89-2.647-3.626 2.065a.25.25 0 0 1-.33-.079.24.24 0 0 1 .062-.329l3.67-2.618-3.403 1.936a.25.25 0 0 1-.334-.074.24.24 0 0 1 .063-.332l2.447-1.793-2.175 1.24a.25.25 0 0 1-.325-.07.24.24 0 0 1 .042-.326L32 27.34l-1.634.93a.25.25 0 0 1-.315-.065.241.241 0 0 1 .019-.317l.978-.97-.68.389a.25.25 0 0 1-.307-.048.242.242 0 0 1-.016-.306l.33-.447a.248.248 0 0 1-.229-.185.24.24 0 0 1 .117-.269l.814-.466a.25.25 0 0 1 .306.048.242.242 0 0 1 .017.305l-.275.372 1.276-.725a.25.25 0 0 1 .319.062.24.24 0 0 1-.02.32l-.978.972 2.375-1.354a.25.25 0 0 1 .325.07.24.24 0 0 1-.041.326l-1.918 1.607 3.523-2.003a.25.25 0 0 1 .328.078.24.24 0 0 1-.058.327l-2.446 1.793 3.862-2.198a.25.25 0 0 1 .33.078.24.24 0 0 1-.062.33L34.27 28.61l4.784-2.723a.25.25 0 0 1 .334.079.24.24 0 0 1-.07.332l-3.89 2.647 4.25-2.42a.25.25 0 0 1 .33.082.24.24 0 0 1-.069.33l-4.166 2.804 4.172-2.374a.25.25 0 0 1 .334.079.24.24 0 0 1-.07.332l-4.802 3.267 4.548-2.589a.25.25 0 0 1 .33.082.24.24 0 0 1-.067.33l-4.775 3.246 4.513-2.568a.25.25 0 0 1 .33.081.24.24 0 0 1-.068.33l-4.707 3.194 4.446-2.529a.25.25 0 0 1 .333.086.24.24 0 0 1-.078.33l-.236.146a.25.25 0 0 1 .32.103.24.24 0 0 1-.081.321l-2.355 1.518 2.098-1.195a.249.249 0 0 1 .34.078.24.24 0 0 1-.079.335l-4.115 2.746 3.855-2.195a.25.25 0 0 1 .332.081.24.24 0 0 1-.07.33l-4.534 3.06 4.272-2.43a.25.25 0 0 1 .34.08.24.24 0 0 1-.082.334l-1.695 1.08 1.438-.817a.25.25 0 0 1 .332.08.24.24 0 0 1-.068.33l-4.893 3.34 4.63-2.636a.25.25 0 0 1 .335.08.24.24 0 0 1-.075.333l-3.588 2.364 3.328-1.896a.25.25 0 0 1 .332.082.241.241 0 0 1-.07.33l-4.066 2.71 3.806-2.168a.25.25 0 0 1 .34.079.24.24 0 0 1-.08.335l-3.448 2.265 3.189-1.816a.25.25 0 0 1 .328.082.24.24 0 0 1-.065.328l-3.412 2.344 3.15-1.792a.25.25 0 0 1 .328.076.24.24 0 0 1-.057.329l-2.994 2.211 2.724-1.55a.25.25 0 0 1 .331.08.24.24 0 0 1-.065.329l-.806.563.542-.308a.249.249 0 0 1 .325.075.241.241 0 0 1-.047.325l-1.192.946.915-.52a.25.25 0 0 1 .325.07.24.24 0 0 1-.041.325l-.459.389.176-.098a.25.25 0 0 1 .311.056.24.24 0 0 1 0 .312l-.292.337a.25.25 0 0 1 .324.107.24.24 0 0 1-.096.323l-1.225.697a.25.25 0 0 1-.313-.055.242.242 0 0 1 .003-.313l.29-.334-1.239.704a.25.25 0 0 1-.323-.07.24.24 0 0 1 .04-.325l.457-.386-1.376.783a.249.249 0 0 1-.326-.073.24.24 0 0 1 .048-.327l1.193-.946-2.367 1.348a.25.25 0 0 1-.33-.08.24.24 0 0 1 .064-.329l.807-.564-1.712.973a.249.249 0 0 1-.33-.077.24.24 0 0 1 .058-.328l2.994-2.21-4.601 2.616a.242.242 0 0 1-.123.032Z" fill="#E1EFFF"/><path d="M40.916 44.503a.25.25 0 0 1-.237-.174.24.24 0 0 1 .103-.274l.313-.197-.864.49a.25.25 0 0 1-.331-.081.24.24 0 0 1 .068-.33l4.711-3.197-4.448 2.532a.25.25 0 0 1-.331-.085.24.24 0 0 1 .075-.33l.603-.38-.345.197a.25.25 0 0 1-.327-.083.24.24 0 0 1 .063-.327l4.834-3.293-4.57 2.602a.25.25 0 0 1-.334-.083.24.24 0 0 1 .074-.33l3.077-2.006-2.82 1.605a.25.25 0 0 1-.334-.08.24.24 0 0 1 .073-.332l4.184-2.798-3.922 2.232a.25.25 0 0 1-.336-.081.24.24 0 0 1 .075-.332l3.453-2.27-3.192 1.819a.252.252 0 0 1-.274-.01.243.243 0 0 1-.057-.338.244.244 0 0 1 .07-.065l3.734-2.47-3.473 1.978a.25.25 0 0 1-.34-.079.24.24 0 0 1 .08-.334l2.953-1.922-2.693 1.532a.25.25 0 0 1-.339-.082.24.24 0 0 1 .083-.334l.221-.139a.25.25 0 0 1-.308-.114.24.24 0 0 1 .081-.314l4.115-2.746-3.853 2.196a.253.253 0 0 1-.186.03.246.246 0 0 1-.154-.108.24.24 0 0 1 .078-.335l3.88-2.573-3.618 2.06a.247.247 0 0 1-.274-.011.244.244 0 0 1-.094-.254.243.243 0 0 1 .11-.15l1.123-.712-.865.493a.25.25 0 0 1-.333-.08.24.24 0 0 1 .07-.331l4.399-2.958-4.136 2.355a.249.249 0 0 1-.337-.081.24.24 0 0 1 .078-.333l2.688-1.742-2.43 1.383a.25.25 0 0 1-.338-.08.24.24 0 0 1 .08-.335l2.072-1.335-1.813 1.031a.25.25 0 0 1-.329-.081.24.24 0 0 1 .065-.328l3.315-2.269-3.051 1.737a.25.25 0 0 1-.331-.076.24.24 0 0 1 .06-.33l2.904-2.119-2.633 1.5a.25.25 0 0 1-.327-.075.24.24 0 0 1 .05-.327l2.008-1.565-1.731.986a.25.25 0 0 1-.317-.07.24.24 0 0 1 .028-.319l1.257-1.118-.952.54a.25.25 0 0 1-.318-.061.241.241 0 0 1 .016-.319l.567-.583a.247.247 0 0 1-.195-.2.245.245 0 0 1 .12-.25l1.172-.668a.25.25 0 0 1 .318.06.24.24 0 0 1-.016.319l-.417.43 1.474-.838a.25.25 0 0 1 .317.07.241.241 0 0 1-.028.319l-1.258 1.118 2.655-1.508a.25.25 0 0 1 .326.075.24.24 0 0 1-.05.327l-2.008 1.563 3.453-1.966a.25.25 0 0 1 .33.076.24.24 0 0 1-.06.33l-2.903 2.118 4.435-2.523a.25.25 0 0 1 .328.082.242.242 0 0 1-.065.328l-3.314 2.265 4.329-2.464a.25.25 0 0 1 .339.08.24.24 0 0 1-.08.334l-2.072 1.337 2.148-1.222a.25.25 0 0 1 .337.08.24.24 0 0 1-.078.334l-2.686 1.74 2.456-1.398a.25.25 0 0 1 .33.083.24.24 0 0 1-.068.329l-4.398 2.956 4.137-2.356a.25.25 0 0 1 .33.087.24.24 0 0 1-.073.328l-1.123.714.867-.493a.25.25 0 0 1 .333.081.24.24 0 0 1-.073.331l-3.879 2.572 3.62-2.06a.25.25 0 0 1 .33.082.24.24 0 0 1-.07.33L45.97 32.81l3.852-2.194a.25.25 0 0 1 .333.086.24.24 0 0 1-.078.33l-.22.139a.25.25 0 0 1 .309.115.24.24 0 0 1-.084.315l-2.956 1.925 2.697-1.536a.25.25 0 0 1 .34.078.24.24 0 0 1-.079.335l-3.733 2.467 3.473-1.977a.25.25 0 0 1 .335.081.24.24 0 0 1-.075.332l-3.453 2.27 3.194-1.82a.25.25 0 0 1 .334.08.24.24 0 0 1-.073.332l-4.185 2.797 3.924-2.233a.25.25 0 0 1 .334.082.24.24 0 0 1-.074.331l-3.077 2.007 2.818-1.605a.25.25 0 0 1 .34.075.24.24 0 0 1-.076.336l-4.834 3.293 4.571-2.602a.249.249 0 0 1 .335.083.24.24 0 0 1-.078.332l-.612.388.355-.203a.25.25 0 0 1 .331.082.24.24 0 0 1-.068.33l-4.711 3.195 4.45-2.533a.25.25 0 0 1 .339.08.24.24 0 0 1-.083.335l-.312.198.056-.032a.25.25 0 0 1 .33.078.24.24 0 0 1-.062.33l-3.337 2.382 3.07-1.748a.25.25 0 0 1 .33.076.24.24 0 0 1-.057.329l-2.357 1.765 2.085-1.187a.25.25 0 0 1 .327.073.24.24 0 0 1-.05.327l-1.413 1.119 1.135-.647a.25.25 0 0 1 .326.07.241.241 0 0 1-.045.328l-.533.437.252-.146a.25.25 0 0 1 .295.032.242.242 0 0 1 .05.289l-.418.81.076-.043a.25.25 0 0 1 .336.09.24.24 0 0 1-.089.331l-.797.454a.25.25 0 0 1-.296-.032.242.242 0 0 1-.05-.288l.419-.811-1.993 1.134a.25.25 0 0 1-.325-.071.24.24 0 0 1 .043-.326l.533-.437-1.472.838a.25.25 0 0 1-.325-.074.24.24 0 0 1 .047-.326l1.415-1.118-2.673 1.52a.25.25 0 0 1-.327-.076.24.24 0 0 1 .055-.327l2.355-1.764-3.813 2.17a.25.25 0 0 1-.33-.078.24.24 0 0 1 .062-.329l3.339-2.383-4.908 2.794a.247.247 0 0 1-.123.034Z" fill="#E1EFFF"/><path d="M35.143 42.056a.249.249 0 0 1-.218-.129.241.241 0 0 1 .013-.25l.4-.588-.868.494a.25.25 0 0 1-.326-.063.24.24 0 0 1 .034-.327l.246-.23-.112.064a.25.25 0 0 1-.318-.07.24.24 0 0 1 .029-.319l.246-.218a.249.249 0 0 1-.292-.106.24.24 0 0 1 .046-.304l.295-.266h-.003a.25.25 0 0 1-.319-.068.24.24 0 0 1 .03-.32l.257-.231a.25.25 0 0 1-.297-.09.241.241 0 0 1 .029-.306l.712-.723-.412.234a.25.25 0 0 1-.317-.06.242.242 0 0 1 .015-.318l.781-.815-.48.273a.249.249 0 0 1-.316-.07.242.242 0 0 1 .029-.32l.235-.209a.25.25 0 0 1-.28-.105.24.24 0 0 1 .03-.294l.802-.842-.5.283a.25.25 0 0 1-.312-.056.241.241 0 0 1 .003-.313l.546-.62-.236.135a.25.25 0 0 1-.359-.136.24.24 0 0 1-.002-.143l.125-.423a.246.246 0 0 1-.134-.211.24.24 0 0 1 .123-.217l.25-.142a.25.25 0 0 1 .276.02.243.243 0 0 1 .084.258l-.079.27.98-.558a.25.25 0 0 1 .313.056.241.241 0 0 1-.004.314l-.546.62.67-.381a.25.25 0 0 1 .317.059.24.24 0 0 1-.014.318l-.802.842.499-.284a.25.25 0 0 1 .316.07.242.242 0 0 1-.028.32l-.236.21a.25.25 0 0 1 .28.105.24.24 0 0 1-.03.294l-.782.816.48-.273a.248.248 0 0 1 .319.06.241.241 0 0 1-.02.32l-.713.723.411-.233a.25.25 0 0 1 .319.068.24.24 0 0 1-.03.32l-.257.23a.25.25 0 0 1 .301.097.24.24 0 0 1-.042.309l-.296.266h.004a.25.25 0 0 1 .317.07.24.24 0 0 1-.028.32l-.247.218a.25.25 0 0 1 .289.106.24.24 0 0 1-.042.301l-.257.239a.25.25 0 0 1 .28.076.241.241 0 0 1 .013.286l-.407.599a.25.25 0 0 1 .296.135.24.24 0 0 1-.099.307l-.857.493a.243.243 0 0 1-.123.033Z" fill="#F2CF7E"/><path d="M35.631 34.226a.249.249 0 0 1-.23-.156.24.24 0 0 1 .066-.268l.067-.06-.775.442a.249.249 0 0 1-.32-.068.24.24 0 0 1 .03-.321l1.313-1.189-1.977 1.125a.249.249 0 0 1-.323-.072.241.241 0 0 1 .042-.324l1.578-1.303-1.874 1.066a.25.25 0 0 1-.325-.07.24.24 0 0 1 .042-.325l1.933-1.62-1.996 1.136a.25.25 0 0 1-.33-.078.24.24 0 0 1 .06-.329l.462-.334-.237.135a.25.25 0 0 1-.325-.07.24.24 0 0 1 .04-.325l1.622-1.374-1.125.64a.25.25 0 0 1-.325-.072.24.24 0 0 1 .045-.326l.629-.512a.25.25 0 0 1-.306-.09.24.24 0 0 1 .04-.313l.663-.6a.238.238 0 0 1-.08-.249.242.242 0 0 1 .114-.148l1.116-.635a.25.25 0 0 1 .32.068.241.241 0 0 1-.03.321l-.114.103.56-.318a.249.249 0 0 1 .327.07.24.24 0 0 1-.047.328l-.624.508.866-.492a.25.25 0 0 1 .324.07.24.24 0 0 1-.04.325l-1.619 1.373 1.863-1.06a.25.25 0 0 1 .334.075.24.24 0 0 1-.065.331l-.463.335.45-.256a.25.25 0 0 1 .325.07.241.241 0 0 1-.042.326l-1.934 1.62 1.98-1.127a.25.25 0 0 1 .326.072.24.24 0 0 1-.044.326l-1.578 1.302 1.459-.83a.25.25 0 0 1 .32.067.241.241 0 0 1-.03.321l-1.314 1.188.892-.507a.25.25 0 0 1 .316.07.24.24 0 0 1-.027.319l-.553.486a.245.245 0 0 1 .114.21.24.24 0 0 1-.124.206l-1.32.755a.246.246 0 0 1-.122.032Z" fill="#F2CF7E"/><path d="M25.922 39.606v8.191c-.02.253-.002.508.054.755.102.26.285.48.523.627.238.149.519.217.8.195.681.014 1.365 0 2.047 0h7.416c-.01.438-.13.867-.351 1.247-.221.38-.535.7-.914.928a1.338 1.338 0 0 1-.557.24 2.61 2.61 0 0 0-1.253.303c-.91.552-1.318 2.104.094 2.14 2.11.053 4.228 0 6.338 0h6.188a.45.45 0 0 0 .161 0 .416.416 0 0 0 .193-.05c.641-.19.85-.756.547-1.407a1.766 1.766 0 0 0-.685-.73 1.8 1.8 0 0 0-.977-.247h-.052a3.739 3.739 0 0 1-.519-.214c-.54-.272-.981-.7-1.267-1.227a2.802 2.802 0 0 1-.28-.981h8.745c.802 0 1.753 0 2.04-.945a7.172 7.172 0 0 0 .05-1.956V31.8c0-.965.005-1.932 0-2.898a1.384 1.384 0 0 0-.324-1.044c-.498-.515-1.332-.383-1.985-.383h-1.636c.006-.271.017-.546-.004-.814-.076-1.002-.99-1.049-1.778-1.049h-6.322c-.4.006-.795.098-1.155.27-.36.173-.676.422-.928.729a2.244 2.244 0 0 0-.803-.768 2.283 2.283 0 0 0-1.077-.294h-5.732c-.704 0-1.597-.132-2.18.336-.493.397-.47.903-.47 1.456v.134h-1.687c-.715 0-1.512-.09-2.005.551-.41.533-.255 1.45-.255 2.075v9.505Zm20.545 13.31c.045.08.336.785.072.828H34.315a1.99 1.99 0 0 1-.552 0c-.182-.066-.212-.243-.205-.43.018-.273.138-.529.337-.719.198-.19.461-.3.737-.31.127-.01.257 0 .383 0h9.57c.273 0 .55-.017.822 0 .203.005.401.057.58.15.202.115.367.282.48.482Zm-2.917-1.62c.202.193.429.36.674.498-.225 0-.45.003-.674.003h-7.807a3.347 3.347 0 0 0 1.43-1.372 2.84 2.84 0 0 0 .298-1.048h5.239c.024.72.324 1.406.84 1.917v.002Zm9.99-3.116c-.048.538-.37.68-.81.694-.752.023-1.509 0-2.26 0H28.354c-.662 0-1.619.188-1.708-.752-.052-.55-.003-1.127 0-1.679h26.894v1.278c0 .15.016.307 0 .458Zm-1.994-4.147c-.071.061-.475 0-.564 0h-.668v-14.16c.313-.044.63-.035.94.026.324.093.31.275.316.526.018.708 0 1.42 0 2.128v10.213c0 .172.119 1.144-.024 1.266v.001Zm-22.556 0c-.33-.06-.368-.228-.374-.492-.019-.688 0-1.379 0-2.068v-10.24c0-.205-.123-1.205.053-1.334.123-.091.65 0 .811 0h.389V44.05a3.818 3.818 0 0 1-.879-.019v.001Zm12.927-18.085h5.537c.77 0 2.007-.24 2.14.82.021.323.023.647.006.97V44.03h-9.147V27.904c.042-.954.283-1.906 1.464-1.956Zm-11.328.859c.022-.863.63-.796 1.27-.796h6.13c.474.018.921.217 1.247.557.326.339.504.79.497 1.258.009.28 0 .561 0 .842v15.361h-9.144V28.224c0-.472-.015-.945 0-1.417Zm-3.946 1.869c.085-.906 1.036-.7 1.704-.7h1.522v1.447c-.799-.041-1.87-.072-1.973.793a15.128 15.128 0 0 0 0 1.75v10.766c0 .428-.146 1.265.232 1.581.37.307 1.088.175 1.53.175h14.75c2.23 0 4.46.005 6.691 0 .62 0 1.163-.225 1.189-.903.027-.717 0-1.441 0-2.16V30.79c0-.589.078-1.283-.735-1.346-.408-.032-.827-.011-1.24-.003v-1.464h1.573c.663 0 1.567-.162 1.653.76.057.609 0 1.25 0 1.861V45.97H26.645V29.214c0-.175-.017-.362 0-.538h-.002Z" fill="#2A2A38"/><path d="M33.815 33.994v6.722c-.031.29.045.581.214.82.17.24.42.41.708.482a1.443 1.443 0 0 0 1.171-.212 1.411 1.411 0 0 0 .599-1.016c.04-1.119 0-2.244 0-3.362V33.93c.44-.244.809-.597 1.069-1.025.26-.427.402-.914.413-1.413a5.07 5.07 0 0 0-1.41-3.407 1.924 1.924 0 0 0-1.449-.617 2.24 2.24 0 0 0-1.463.771 5.076 5.076 0 0 0-1.332 3.397c.016.486.161.96.421 1.374.26.413.625.753 1.059.984Zm1.75 7.47c-.456.438-.997-.2-1.031-.646-.006-.082 0-.168 0-.25v-6.326c.108.026.217.044.327.056.312.023.624-.004.927-.08v6.155c0 .36.063.817-.223 1.091Zm-1.588-12.663c.219-.372.565-.656.976-.8a1.224 1.224 0 0 1 1.025.446 4.723 4.723 0 0 1 1.288 3.098c-.02 1.105-.783 2.209-1.984 2.241a2.298 2.298 0 0 1-1.517-.624 2.237 2.237 0 0 1-.698-1.467 4.567 4.567 0 0 1 .91-2.894ZM41.928 28.417h.493a.72.72 0 0 0 .28-.055.4.4 0 0 0 .113-.065.26.26 0 0 0 .078-.075.117.117 0 0 0 0-.15.285.285 0 0 0-.194-.065h-.493a.72.72 0 0 0-.28.055.398.398 0 0 0-.113.064.26.26 0 0 0-.078.076.117.117 0 0 0 0 .15.285.285 0 0 0 .194.065ZM44.298 28.35h3.453a.978.978 0 0 0 .505-.133c.106-.068.106-.144-.039-.144h-3.452a.982.982 0 0 0-.506.134c-.105.068-.106.144.04.144ZM42.707 29.987h-.493a.82.82 0 0 0-.394.116.29.29 0 0 0-.081.064c-.026.035-.05.083-.007.119l.046.024c.046.014.094.02.142.017h.493a.818.818 0 0 0 .394-.116.289.289 0 0 0 .08-.064c.027-.035.05-.083.007-.119l-.045-.024a.424.424 0 0 0-.142-.017ZM44.498 30.407h3.453c.15 0 .376-.115.394-.279.02-.183-.192-.222-.328-.222h-3.452c-.151 0-.377.116-.395.28-.02.182.192.221.328.221ZM41.856 32.327a.463.463 0 0 0 .173.016h.493a.436.436 0 0 0 .144-.034.406.406 0 0 0 .126-.061.262.262 0 0 0 .084-.084.165.165 0 0 0-.04-.256l-.068-.031a.45.45 0 0 0-.173-.016h-.493a.439.439 0 0 0-.144.034.41.41 0 0 0-.21.145.166.166 0 0 0 .04.256l.068.031ZM48.117 31.88h-3.452a.54.54 0 0 0-.47.202c-.078.143.067.243.203.243h3.453a.54.54 0 0 0 .469-.201c.078-.145-.067-.243-.203-.243ZM42.358 33.902h-.06c-.089 0-.177.012-.262.035a.84.84 0 0 0-.244.097l-.05.036a.076.076 0 0 0-.033.069c.019.043.086.048.125.048h.493c.089 0 .177-.012.262-.035a.836.836 0 0 0 .244-.097l.05-.037a.074.074 0 0 0 .033-.068c-.019-.043-.087-.048-.126-.048h-.431ZM48.132 33.876h-3.453a.65.65 0 0 0-.474.18c-.09.133.078.164.182.164h3.452a.65.65 0 0 0 .475-.181c.089-.132-.08-.163-.182-.163ZM42.039 36.267h.493a.38.38 0 0 0 .143-.033.361.361 0 0 0 .125-.066.26.26 0 0 0 .082-.093.19.19 0 0 0 .04-.105.212.212 0 0 0-.09-.19.422.422 0 0 0-.246-.062h-.494a.384.384 0 0 0-.143.033.363.363 0 0 0-.125.066.259.259 0 0 0-.082.094.19.19 0 0 0-.04.104.21.21 0 0 0 .09.19c.074.045.16.067.247.062ZM48.132 35.828h-3.453a.668.668 0 0 0-.475.178c-.093.13.081.152.179.152h3.452a.668.668 0 0 0 .475-.178c.094-.13-.08-.152-.178-.152ZM42.356 38.126h.06a.766.766 0 0 0 .28-.056.444.444 0 0 0 .114-.062.273.273 0 0 0 .08-.07c.026-.041.046-.097 0-.135a.287.287 0 0 0-.191-.054h-.493a.761.761 0 0 0-.28.057.44.44 0 0 0-.113.061.273.273 0 0 0-.08.07c-.027.041-.047.097 0 .135.055.04.122.059.19.054h.433ZM44.399 38.16h3.452a.536.536 0 0 0 .47-.201c.077-.143-.067-.243-.204-.243h-3.453a.535.535 0 0 0-.469.202c-.077.142.067.243.204.243ZM42.764 39.644a.434.434 0 0 0-.174-.02h-.494a.4.4 0 0 0-.143.033.373.373 0 0 0-.125.064.297.297 0 0 0-.125.189.194.194 0 0 0 .087.178l.07.035a.445.445 0 0 0 .174.02h.494a.405.405 0 0 0 .143-.033.372.372 0 0 0 .125-.063.297.297 0 0 0 .125-.19.192.192 0 0 0-.087-.178l-.07-.035ZM44.498 40.133h3.452c.148 0 .377-.115.394-.279.02-.182-.192-.22-.327-.22h-3.452c-.148 0-.377.115-.395.279-.02.182.192.22.328.22ZM42.707 41.653h-.493a.797.797 0 0 0-.394.116.287.287 0 0 0-.08.066c-.027.038-.05.088-.006.124a.296.296 0 0 0 .189.046h.493a.8.8 0 0 0 .393-.117.285.285 0 0 0 .081-.066c.026-.037.05-.087.005-.124a.299.299 0 0 0-.188-.045ZM44.503 42.1h3.453a.403.403 0 0 0 .39-.295c.018-.187-.185-.247-.334-.247H44.56a.403.403 0 0 0-.392.294c-.017.187.187.247.335.247ZM77.644 36.041v7.842h-1.937v-4.904l-1.722 4.904h-1.677l-1.733-4.915v4.915h-1.937v-7.842h2.367l2.164 5.463 2.119-5.462h2.356Zm7.341 4.558c0 .156-.018.328-.056.514h-4.384c.023.469.143.808.362 1.016.22.201.499.302.839.302.287 0 .525-.07.713-.212a.984.984 0 0 0 .374-.548h2.05c-.082.44-.263.834-.543 1.184-.28.343-.635.615-1.065.816-.43.193-.91.29-1.439.29-.619 0-1.17-.126-1.654-.38a2.82 2.82 0 0 1-1.121-1.117c-.272-.484-.408-1.05-.408-1.697 0-.656.132-1.222.397-1.698.271-.484.65-.853 1.132-1.106.484-.26 1.035-.391 1.654-.391.627 0 1.178.127 1.654.38s.842.61 1.099 1.072c.264.454.396.98.396 1.575Zm-1.96-.29c.009-.41-.105-.715-.34-.916a1.207 1.207 0 0 0-.849-.313c-.354 0-.649.104-.883.313-.234.208-.367.513-.397.916h2.47Zm6.98-2.726c.725 0 1.3.238 1.722.715.43.477.646 1.132.646 1.966v3.619h-1.937v-3.396c0-.417-.113-.74-.34-.971-.218-.239-.513-.358-.883-.358-.393 0-.706.123-.94.369-.227.245-.34.595-.34 1.05v3.306h-1.938V37.65h1.937v1.14a2.08 2.08 0 0 1 .805-.883c.362-.216.785-.324 1.268-.324Zm9.933.067v6.233h-1.949v-1.128a2.072 2.072 0 0 1-.815.871c-.355.216-.77.324-1.246.324-.725 0-1.303-.238-1.733-.715-.424-.476-.635-1.132-.635-1.966V37.65h1.926v3.385c0 .424.11.755.328.994.227.23.529.346.907.346.392 0 .702-.123.929-.369.226-.245.34-.595.34-1.05V37.65h1.948Zm7.262-1.742c1.02 0 1.861.264 2.526.793.672.528 1.106 1.243 1.303 2.144h-2.05a1.857 1.857 0 0 0-.703-.86c-.31-.208-.679-.313-1.11-.313-.566 0-1.023.205-1.371.615-.348.41-.521.957-.521 1.642 0 .685.173 1.232.521 1.642.348.402.805.603 1.371.603.431 0 .8-.104 1.11-.313.317-.208.551-.491.703-.849h2.05c-.197.894-.631 1.609-1.303 2.145-.665.529-1.506.793-2.526.793-.778 0-1.461-.168-2.05-.503a3.542 3.542 0 0 1-1.371-1.43c-.317-.61-.476-1.306-.476-2.088s.159-1.479.476-2.09a3.468 3.468 0 0 1 1.371-1.418c.589-.342 1.272-.514 2.05-.514Zm11.201 1.742v6.233h-1.948v-1.128a2.068 2.068 0 0 1-.816.871c-.354.216-.77.324-1.246.324-.725 0-1.303-.238-1.733-.715-.422-.476-.634-1.132-.634-1.966V37.65h1.925v3.385c0 .424.11.755.329.994.226.23.529.346.906.346.393 0 .702-.123.929-.369.227-.245.34-.595.34-1.05V37.65h1.948Zm3.635-.078c.801 0 1.439.197 1.915.592.483.395.785.916.906 1.564h-1.813a.948.948 0 0 0-.362-.592c-.181-.15-.411-.224-.691-.224-.219 0-.385.049-.499.145-.113.09-.17.22-.17.391 0 .194.102.34.306.436.212.097.541.194.986.29.484.112.88.228 1.189.347.31.111.578.298.805.558.226.26.339.61.339 1.05 0 .358-.097.674-.294.95-.196.275-.479.491-.85.648-.37.156-.807.234-1.314.234-.853 0-1.536-.186-2.05-.558-.513-.373-.827-.905-.94-1.598h1.869c.03.268.144.473.34.615.203.141.464.212.781.212.219 0 .385-.048.499-.145a.523.523 0 0 0 .17-.402c0-.216-.106-.369-.318-.458-.204-.097-.539-.198-1.008-.302a8.194 8.194 0 0 1-1.155-.313 1.933 1.933 0 0 1-.782-.536c-.218-.253-.328-.596-.328-1.028 0-.558.215-1.009.645-1.351.431-.35 1.039-.525 1.824-.525Zm7.564 4.669v1.642h-.872c-.741 0-1.318-.179-1.733-.536-.408-.365-.612-.965-.612-1.799v-2.29h-.85V37.65h.85v-1.53h1.937v1.53h1.269v1.608h-1.269v2.324c0 .246.049.417.147.514.106.097.279.145.521.145h.612Zm4.046-4.67c.626 0 1.185.131 1.676.392.499.253.887.622 1.167 1.106.287.484.431 1.05.431 1.697 0 .648-.144 1.214-.431 1.698a2.84 2.84 0 0 1-1.167 1.117c-.491.254-1.05.38-1.676.38-.627 0-1.19-.126-1.688-.38a2.91 2.91 0 0 1-1.178-1.117c-.28-.484-.419-1.05-.419-1.697 0-.648.139-1.214.419-1.698.286-.484.68-.853 1.178-1.106.498-.26 1.061-.391 1.688-.391Zm0 1.654a1.25 1.25 0 0 0-.94.402c-.25.26-.374.64-.374 1.14 0 .498.124.878.374 1.139.256.26.569.39.94.39.37 0 .68-.13.929-.39s.374-.64.374-1.14c0-.498-.125-.878-.374-1.139a1.217 1.217 0 0 0-.929-.402Zm12.468-1.642c.778 0 1.39.238 1.835.715.446.469.669 1.124.669 1.966v3.619h-1.926v-3.396c0-.394-.109-.7-.329-.916-.211-.223-.502-.335-.872-.335-.385 0-.691.12-.917.358-.22.23-.329.558-.329.983v3.306h-1.937v-3.396c0-.394-.106-.7-.317-.916-.211-.223-.503-.335-.873-.335-.385 0-.691.116-.917.347-.227.23-.34.562-.34.994v3.306h-1.937V37.65h1.937v1.061c.166-.35.419-.625.759-.826.347-.201.752-.302 1.212-.302.483 0 .91.112 1.28.335.37.216.65.529.839.938.219-.387.517-.696.894-.927.386-.23.809-.346 1.269-.346Zm9.795 3.016c0 .156-.019.328-.057.514h-4.384c.023.469.144.808.363 1.016.218.201.498.302.838.302.287 0 .525-.07.714-.212a.998.998 0 0 0 .374-.548h2.05c-.083.44-.264.834-.544 1.184a2.98 2.98 0 0 1-1.064.816c-.431.193-.911.29-1.439.29-.62 0-1.171-.126-1.654-.38a2.82 2.82 0 0 1-1.122-1.117c-.271-.484-.407-1.05-.407-1.697 0-.656.132-1.222.396-1.698a2.726 2.726 0 0 1 1.133-1.106c.483-.26 1.034-.391 1.654-.391.626 0 1.178.127 1.654.38s.841.61 1.099 1.072c.263.454.396.98.396 1.575Zm-1.96-.29c.008-.41-.106-.715-.34-.916a1.204 1.204 0 0 0-.849-.313c-.355 0-.65.104-.884.313-.234.208-.366.513-.396.916h2.469Zm4.907-1.486c.241-.38.551-.681.929-.905a2.44 2.44 0 0 1 1.246-.335v2.044h-.555c-.514 0-.914.108-1.201.324-.28.216-.419.58-.419 1.095v2.837h-1.937V37.65h1.937v1.173Zm5.286-1.251c.8 0 1.438.197 1.914.592.483.395.785.916.906 1.564h-1.812a.958.958 0 0 0-.363-.592c-.181-.15-.412-.224-.691-.224-.219 0-.385.049-.498.145-.114.09-.17.22-.17.391 0 .194.102.34.306.436.211.097.539.194.985.29.483.112.88.228 1.19.347.309.111.577.298.804.558.227.26.34.61.34 1.05 0 .358-.099.674-.295.95-.196.275-.479.491-.849.648-.371.156-.809.234-1.314.234-.854 0-1.538-.186-2.051-.558-.514-.373-.827-.905-.94-1.598h1.869c.03.268.143.473.34.615.204.141.464.212.782.212.218 0 .385-.048.498-.145a.523.523 0 0 0 .17-.402c0-.216-.106-.369-.317-.458-.204-.097-.541-.198-1.008-.302a8.175 8.175 0 0 1-1.156-.313 1.926 1.926 0 0 1-.782-.536c-.219-.253-.328-.596-.328-1.028 0-.558.215-1.009.646-1.351.43-.35 1.038-.525 1.824-.525ZM34.774 72.855v7.73h-1.03v-5.764l-2.606 5.764h-.725l-2.617-5.775v5.775h-1.03v-7.73h1.11l2.9 6.39 2.9-6.39h1.098Zm1.364 4.647c0-.626.128-1.173.385-1.642a2.774 2.774 0 0 1 1.053-1.106c.453-.26.956-.39 1.507-.39.544 0 1.016.115 1.416.346.4.23.698.52.895.87v-1.116h1.042v6.121h-1.042v-1.14c-.204.358-.51.656-.918.894-.4.23-.868.347-1.404.347-.552 0-1.05-.135-1.496-.403a2.835 2.835 0 0 1-1.053-1.128c-.257-.484-.386-1.035-.386-1.653Zm5.256.011c0-.462-.095-.864-.283-1.206a1.936 1.936 0 0 0-.77-.782 2.044 2.044 0 0 0-1.054-.28c-.385 0-.737.09-1.054.269-.317.178-.57.44-.759.782-.188.342-.283.744-.283 1.206 0 .47.094.879.283 1.229.189.342.442.607.76.793.316.179.668.268 1.053.268.385 0 .736-.09 1.053-.268.325-.186.582-.45.77-.793.19-.35.284-.756.284-1.218Zm3.815-2.055c.181-.35.438-.622.77-.816.34-.193.752-.29 1.235-.29v1.05h-.272c-1.155 0-1.733.618-1.733 1.854v3.329h-1.03v-6.121h1.03v.994Zm3.727-1.988a.683.683 0 0 1-.498-.201.664.664 0 0 1-.204-.492c0-.194.068-.357.204-.492a.683.683 0 0 1 .498-.2c.19 0 .348.067.476.2a.664.664 0 0 1 .204.492.664.664 0 0 1-.204.492.632.632 0 0 1-.475.2Zm.499.994v6.121h-1.03v-6.121h1.03Zm1.372 3.038c0-.626.128-1.173.385-1.642a2.774 2.774 0 0 1 1.053-1.106c.454-.26.956-.39 1.507-.39.544 0 1.016.115 1.416.346.4.23.699.52.895.87v-1.116h1.042v6.121h-1.042v-1.14c-.204.358-.51.656-.918.894-.4.23-.868.347-1.404.347-.552 0-1.05-.135-1.496-.403a2.835 2.835 0 0 1-1.053-1.128c-.257-.484-.385-1.035-.385-1.653Zm5.256.011c0-.462-.094-.864-.283-1.206a1.936 1.936 0 0 0-.77-.782 2.044 2.044 0 0 0-1.054-.28c-.385 0-.736.09-1.054.269-.317.178-.57.44-.759.782-.188.342-.283.744-.283 1.206 0 .47.095.879.283 1.229.19.342.442.607.76.793.317.179.668.268 1.053.268.385 0 .736-.09 1.053-.268.325-.186.582-.45.77-.793.19-.35.284-.756.284-1.218Zm14.074-3.05L68.2 80.586h-1.065l-1.495-4.859-1.496 4.859H63.08l-1.949-6.121h1.054l1.427 5.138 1.54-5.138h1.054l1.507 5.15 1.405-5.15h1.02Zm2.054.995c.181-.35.438-.622.77-.816.34-.193.752-.29 1.235-.29v1.05h-.272c-1.155 0-1.733.618-1.733 1.854v3.329h-1.03v-6.121h1.03v.994Zm5.903 5.228c-.582 0-1.11-.13-1.586-.391a2.863 2.863 0 0 1-1.11-1.106c-.265-.484-.397-1.043-.397-1.676 0-.625.136-1.176.408-1.653.28-.484.657-.853 1.133-1.106a3.268 3.268 0 0 1 1.597-.39c.589 0 1.121.13 1.597.39.476.253.85.618 1.122 1.095.279.476.419 1.031.419 1.664s-.143 1.192-.43 1.676c-.28.476-.661.845-1.145 1.106-.483.26-1.02.39-1.608.39Zm0-.894a2.2 2.2 0 0 0 1.042-.257c.324-.171.585-.428.781-.77.204-.343.306-.76.306-1.252 0-.491-.098-.908-.294-1.25a1.878 1.878 0 0 0-.77-.76 2.136 2.136 0 0 0-1.032-.257c-.377 0-.724.085-1.042.257-.31.163-.559.417-.747.76-.19.342-.284.759-.284 1.25 0 .5.091.92.272 1.262.19.343.438.6.748.771.31.164.65.246 1.02.246Zm5.796-4.49v3.607c0 .298.064.51.192.637.129.12.351.179.669.179h.759v.86h-.93c-.573 0-1.004-.13-1.29-.391-.288-.26-.431-.689-.431-1.285v-3.608h-.805v-.837h.805v-1.542h1.03v1.542h1.62v.838h-1.62Zm8.533 1.988c0 .193-.011.398-.034.614h-4.962c.037.603.245 1.076.623 1.419.386.335.85.502 1.394.502.445 0 .815-.1 1.11-.301.302-.209.513-.484.634-.827h1.11a2.66 2.66 0 0 1-.996 1.441c-.499.365-1.119.547-1.858.547a3.2 3.2 0 0 1-1.586-.39 2.8 2.8 0 0 1-1.088-1.106c-.264-.484-.396-1.043-.396-1.676s.128-1.188.385-1.664a2.652 2.652 0 0 1 1.076-1.095c.468-.26 1.004-.39 1.609-.39.589 0 1.11.126 1.563.379.453.253.8.603 1.042 1.05.25.44.374.938.374 1.497Zm-1.065-.212c0-.388-.087-.72-.26-.995a1.634 1.634 0 0 0-.714-.636 2.152 2.152 0 0 0-.986-.224c-.52 0-.967.164-1.336.492-.363.328-.57.782-.623 1.363h3.92Zm5.06.424c0-.626.128-1.173.386-1.642a2.771 2.771 0 0 1 1.053-1.106c.454-.26.955-.39 1.507-.39.544 0 1.016.115 1.416.346.4.23.698.52.895.87v-1.116h1.042v6.121h-1.042v-1.14c-.204.358-.51.656-.918.894-.4.23-.869.347-1.404.347-.552 0-1.05-.135-1.496-.403a2.832 2.832 0 0 1-1.053-1.128c-.258-.484-.385-1.035-.385-1.653Zm5.257.011c0-.462-.095-.864-.283-1.206a1.943 1.943 0 0 0-.771-.782 2.042 2.042 0 0 0-1.053-.28c-.385 0-.736.09-1.054.269-.317.178-.57.44-.759.782-.189.342-.283.744-.283 1.206 0 .47.094.879.283 1.229.189.342.442.607.76.793.317.179.668.268 1.053.268.385 0 .736-.09 1.053-.268a2.02 2.02 0 0 0 .771-.793c.188-.35.283-.756.283-1.218Zm6.835-2.055a1.97 1.97 0 0 1 .77-.816c.34-.193.752-.29 1.235-.29v1.05h-.272c-1.155 0-1.733.618-1.733 1.854v3.329h-1.031v-6.121h1.031v.994Zm8.859 1.832c0 .193-.011.398-.034.614h-4.961c.037.603.245 1.076.623 1.419.385.335.849.502 1.393.502.445 0 .816-.1 1.11-.301.302-.209.513-.484.635-.827h1.11a2.665 2.665 0 0 1-.997 1.441c-.499.365-1.118.547-1.858.547-.589 0-1.118-.13-1.586-.39a2.796 2.796 0 0 1-1.087-1.106c-.265-.484-.397-1.043-.397-1.676s.128-1.188.385-1.664a2.656 2.656 0 0 1 1.076-1.095c.468-.26 1.005-.39 1.609-.39.589 0 1.11.126 1.563.379.454.253.801.603 1.043 1.05.249.44.373.938.373 1.497Zm-1.064-.212c0-.388-.088-.72-.261-.995a1.635 1.635 0 0 0-.714-.636 2.15 2.15 0 0 0-.985-.224c-.521 0-.967.164-1.337.492-.362.328-.57.782-.623 1.363h3.92Zm4.736 2.569 1.925-5.183h1.099l-2.435 6.121h-1.201l-2.436-6.121h1.11l1.938 5.183Zm4.571-6.177a.682.682 0 0 1-.498-.201.664.664 0 0 1-.204-.492c0-.194.068-.357.204-.492a.683.683 0 0 1 .498-.2c.189 0 .347.067.476.2a.664.664 0 0 1 .204.492.664.664 0 0 1-.204.492.634.634 0 0 1-.476.2Zm.499.994v6.121h-1.031v-6.121h1.031Zm7.421 2.826c0 .193-.012.398-.034.614h-4.962c.038.603.246 1.076.623 1.419.385.335.85.502 1.393.502.446 0 .816-.1 1.11-.301.303-.209.514-.484.635-.827h1.11a2.654 2.654 0 0 1-.997 1.441c-.498.365-1.117.547-1.858.547-.589 0-1.117-.13-1.586-.39-.46-.261-.823-.63-1.087-1.106-.264-.484-.397-1.043-.397-1.676s.129-1.188.385-1.664a2.664 2.664 0 0 1 1.077-1.095c.468-.26 1.005-.39 1.608-.39.589 0 1.11.126 1.564.379.453.253.801.603 1.042 1.05.249.44.374.938.374 1.497Zm-1.065-.212c0-.388-.087-.72-.261-.995a1.627 1.627 0 0 0-.713-.636 2.157 2.157 0 0 0-.986-.224 1.95 1.95 0 0 0-1.337.492c-.362.328-.569.782-.623 1.363h3.92Zm10.695-2.614-1.937 6.121h-1.065l-1.495-4.859-1.495 4.859h-1.065l-1.949-6.121h1.054l1.427 5.138 1.541-5.138h1.053l1.507 5.15 1.405-5.15h1.019Zm6.751 6.222c-.582 0-1.11-.13-1.586-.391a2.865 2.865 0 0 1-1.11-1.106c-.265-.484-.397-1.043-.397-1.676 0-.625.136-1.176.408-1.653a2.815 2.815 0 0 1 1.133-1.106 3.268 3.268 0 0 1 1.597-.39c.589 0 1.122.13 1.598.39.475.253.849.618 1.121 1.095.279.476.419 1.031.419 1.664s-.144 1.192-.43 1.676c-.28.476-.661.845-1.144 1.106-.484.26-1.02.39-1.609.39Zm0-.894c.37 0 .717-.086 1.042-.257.325-.171.585-.428.782-.77.204-.343.306-.76.306-1.252 0-.491-.099-.908-.295-1.25a1.876 1.876 0 0 0-.77-.76 2.136 2.136 0 0 0-1.031-.257c-.378 0-.725.085-1.042.257-.31.163-.559.417-.748.76-.189.342-.283.759-.283 1.25 0 .5.091.92.272 1.262.188.343.438.6.748.771a2.14 2.14 0 0 0 1.019.246Zm7.563-5.44c.755 0 1.367.227 1.835.681.468.447.703 1.095.703 1.944v3.608h-1.02v-3.463c0-.61-.155-1.076-.464-1.396-.31-.328-.733-.492-1.269-.492-.544 0-.978.168-1.303.503-.317.335-.476.823-.476 1.463v3.385h-1.03v-6.121h1.03v.871a2.05 2.05 0 0 1 .827-.726 2.65 2.65 0 0 1 1.167-.257ZM26.516 93.735c.038-.744.302-1.318.793-1.72.498-.409 1.152-.614 1.96-.614.551 0 1.023.097 1.416.29.393.186.687.443.884.771.203.32.305.685.305 1.095 0 .469-.124.867-.373 1.195-.242.32-.533.536-.873.648v.045c.438.134.778.372 1.02.715.249.342.374.781.374 1.318 0 .446-.106.845-.318 1.195-.204.35-.51.625-.917.826-.4.194-.884.29-1.45.29-.854 0-1.548-.211-2.085-.636-.536-.424-.819-1.05-.85-1.877h1.541c.016.365.14.66.374.883.242.216.57.324.986.324.385 0 .68-.105.883-.313.212-.216.318-.491.318-.826 0-.447-.144-.767-.43-.961-.288-.194-.733-.29-1.338-.29h-.328v-1.285h.328c1.073 0 1.61-.354 1.61-1.061 0-.32-.1-.57-.296-.749-.188-.178-.464-.268-.826-.268-.355 0-.631.097-.827.29a1.133 1.133 0 0 0-.329.716h-1.552Zm9.232 2.883c0-.626.124-1.18.373-1.665a2.782 2.782 0 0 1 1.043-1.117c.438-.26.925-.39 1.461-.39.408 0 .797.088 1.167.267.37.172.664.402.883.693v-2.938h1.61v8.266h-1.61v-.916a2.133 2.133 0 0 1-.826.737c-.355.186-.767.28-1.235.28a2.724 2.724 0 0 1-1.45-.403 2.86 2.86 0 0 1-1.043-1.128c-.249-.491-.373-1.054-.373-1.686Zm4.939.022c0-.38-.076-.704-.227-.972a1.539 1.539 0 0 0-.611-.626 1.618 1.618 0 0 0-.827-.223c-.295 0-.567.071-.816.212-.25.141-.453.35-.612.626-.15.268-.226.588-.226.96 0 .373.075.7.226.983.159.276.363.488.612.637.257.15.528.224.816.224.294 0 .57-.072.827-.213.256-.149.46-.357.611-.625.151-.276.227-.603.227-.983Zm3.95-3.832c-.28 0-.513-.085-.702-.257a.889.889 0 0 1-.272-.659c0-.26.09-.476.272-.647a.982.982 0 0 1 .702-.269c.28 0 .51.09.691.269a.837.837 0 0 1 .284.647c0 .261-.095.48-.284.66a.965.965 0 0 1-.69.256Zm.782.738v6.188h-1.586v-6.188h1.586Zm3.969 6.288a3.41 3.41 0 0 1-1.383-.268 2.53 2.53 0 0 1-.974-.748 1.888 1.888 0 0 1-.385-1.039h1.597a.86.86 0 0 0 .351.592c.212.157.472.235.782.235.302 0 .536-.06.703-.179.173-.119.26-.272.26-.458 0-.201-.106-.35-.317-.447-.204-.104-.532-.216-.986-.335a8.822 8.822 0 0 1-1.155-.346 2.05 2.05 0 0 1-.77-.547c-.212-.246-.318-.577-.318-.995 0-.342.099-.655.295-.938.204-.283.49-.507.86-.67.378-.164.82-.246 1.326-.246.748 0 1.344.186 1.79.559.446.364.691.86.736 1.485h-1.518a.782.782 0 0 0-.317-.58c-.181-.15-.427-.224-.736-.224-.287 0-.51.052-.668.156a.5.5 0 0 0-.227.436c0 .208.106.369.317.48.212.105.54.213.986.324.453.112.827.228 1.121.347.295.118.548.305.76.558.218.246.331.574.34.983 0 .358-.103.677-.307.96-.196.284-.483.507-.86.67-.37.157-.805.236-1.303.236Zm7.305-6.378c.476 0 .899.105 1.27.313.37.201.656.503.86.905.212.395.317.871.317 1.43v3.63h-1.586v-3.418c0-.492-.124-.867-.373-1.128-.25-.268-.59-.403-1.02-.403-.438 0-.785.135-1.042.403-.25.26-.374.636-.374 1.128v3.418h-1.586v-8.266h1.586v2.848a2.02 2.02 0 0 1 .816-.625c.34-.157.717-.235 1.132-.235Zm9.79 3.05c0 .223-.016.424-.046.603H61.85c.038.447.197.797.476 1.05.28.253.623.38 1.03.38.59 0 1.009-.25 1.258-.749h1.71a2.845 2.845 0 0 1-1.041 1.475c-.514.38-1.144.57-1.892.57-.604 0-1.148-.13-1.632-.391a2.896 2.896 0 0 1-1.121-1.129c-.264-.484-.397-1.043-.397-1.675 0-.64.133-1.203.397-1.687a2.747 2.747 0 0 1 1.11-1.117c.476-.26 1.023-.39 1.643-.39.596 0 1.129.126 1.597.379.476.253.842.614 1.099 1.083.264.462.396.995.396 1.598Zm-1.643-.447c-.008-.402-.155-.722-.442-.96-.287-.246-.638-.37-1.053-.37-.393 0-.725.12-.997.358-.265.23-.427.555-.487.972h2.979Zm5.202 3.776a3.41 3.41 0 0 1-1.382-.269 2.528 2.528 0 0 1-.975-.748 1.888 1.888 0 0 1-.385-1.039h1.597c.03.239.148.436.352.592.211.157.472.235.781.235.302 0 .537-.06.703-.179.173-.119.26-.272.26-.458 0-.201-.105-.35-.317-.447-.204-.104-.532-.216-.986-.335a8.824 8.824 0 0 1-1.155-.346 2.05 2.05 0 0 1-.77-.547c-.212-.246-.317-.577-.317-.995 0-.342.098-.655.294-.938.204-.283.49-.507.861-.67.378-.164.82-.246 1.325-.246.748 0 1.345.186 1.79.559.446.364.691.86.737 1.485h-1.518a.782.782 0 0 0-.318-.58c-.18-.15-.426-.224-.736-.224-.287 0-.51.052-.668.156a.5.5 0 0 0-.227.436c0 .208.106.369.317.48.212.105.54.213.986.324.453.112.827.228 1.121.347.295.118.548.305.76.558.218.246.332.574.34.983 0 .358-.103.677-.307.96-.196.284-.483.507-.86.67-.37.157-.805.236-1.303.236Zm9.192-5.385h-1.302v5.284H76.9V94.45h-.805v-.837h.805v-.436c0-.685.177-1.184.532-1.497.363-.32.94-.48 1.733-.48v.849c-.453 0-.774.09-.963.268-.18.172-.272.458-.272.86v.436h1.303v.837Zm2.233.157a1.97 1.97 0 0 1 .77-.816c.34-.194.752-.29 1.235-.29v1.05H83.2c-1.155 0-1.733.618-1.733 1.854v3.329h-1.03v-6.121h1.03v.994Zm5.903 5.228c-.582 0-1.11-.13-1.586-.391a2.864 2.864 0 0 1-1.11-1.106c-.265-.485-.397-1.043-.397-1.676 0-.625.136-1.177.408-1.653.28-.484.657-.853 1.133-1.106a3.267 3.267 0 0 1 1.597-.39c.59 0 1.122.13 1.597.39.476.253.85.618 1.122 1.095.28.476.42 1.031.42 1.664s-.145 1.191-.431 1.676c-.28.476-.662.845-1.145 1.106-.483.26-1.02.39-1.608.39Zm0-.894a2.2 2.2 0 0 0 1.042-.257c.325-.172.585-.428.782-.77.204-.343.305-.76.305-1.252 0-.491-.098-.909-.294-1.25a1.88 1.88 0 0 0-.77-.76 2.133 2.133 0 0 0-1.031-.257c-.378 0-.725.085-1.042.257-.31.163-.56.417-.748.76-.19.341-.283.759-.283 1.25 0 .499.09.92.272 1.262.188.343.437.6.747.771.31.164.65.246 1.02.246Zm12.004-5.44c.483 0 .913.1 1.291.302.378.193.676.487.895.882.219.395.329.875.329 1.441v3.608h-1.02V96.27c0-.61-.155-1.076-.464-1.396-.302-.328-.714-.492-1.235-.492-.537 0-.963.172-1.28.514-.317.335-.476.823-.476 1.463v3.374h-1.02V96.27c0-.61-.154-1.076-.464-1.396-.302-.328-.714-.492-1.235-.492-.536 0-.963.172-1.28.514-.317.335-.476.823-.476 1.463v3.374h-1.03v-6.121h1.03v.882a2.04 2.04 0 0 1 .816-.737c.347-.172.729-.257 1.144-.257.521 0 .982.116 1.382.346.4.23.698.57.895 1.017.174-.432.46-.767.861-1.006a2.56 2.56 0 0 1 1.337-.357Zm8.483.95v3.607c0 .298.064.51.193.637.128.119.351.179.668.179h.759v.86h-.929c-.574 0-1.004-.13-1.291-.391-.288-.26-.431-.689-.431-1.285V94.45h-.804v-.837h.804V92.07h1.031v1.542h1.62v.837h-1.62Zm5.951-.95c.467 0 .89.1 1.268.302.377.193.672.487.884.882.218.395.328.875.328 1.441v3.608h-1.019V96.27c0-.61-.156-1.076-.465-1.396-.31-.328-.733-.492-1.268-.492-.544 0-.979.168-1.303.503-.317.335-.476.823-.476 1.463v3.385h-1.031v-8.266h1.031v3.016c.204-.313.483-.555.838-.726a2.802 2.802 0 0 1 1.213-.257Zm9.828 2.938c0 .194-.011.398-.034.614h-4.961c.037.603.245 1.076.623 1.419.385.335.849.502 1.393.502.445 0 .816-.1 1.11-.301.302-.209.513-.484.635-.827h1.11a2.666 2.666 0 0 1-.997 1.441c-.499.365-1.118.547-1.858.547-.589 0-1.118-.13-1.586-.39a2.797 2.797 0 0 1-1.087-1.106c-.265-.485-.397-1.043-.397-1.676s.128-1.188.385-1.664a2.656 2.656 0 0 1 1.076-1.095c.468-.26 1.005-.39 1.609-.39.589 0 1.11.126 1.563.379.453.253.801.603 1.043 1.05.249.44.373.938.373 1.497Zm-1.064-.212c0-.388-.088-.72-.261-.995a1.632 1.632 0 0 0-.714-.636 2.147 2.147 0 0 0-.985-.224c-.521 0-.967.164-1.337.492-.362.328-.57.782-.623 1.362h3.92Zm-94.776 17.529a1.97 1.97 0 0 1 .77-.816c.34-.194.752-.29 1.235-.29v1.05h-.272c-1.155 0-1.733.618-1.733 1.854v3.329h-1.03v-6.121h1.03v.994Zm8.86 1.832c0 .194-.012.398-.035.614H31.66c.037.603.245 1.076.623 1.419.385.335.85.502 1.393.502.446 0 .816-.1 1.11-.301.302-.209.514-.485.635-.827h1.11a2.662 2.662 0 0 1-.997 1.441c-.498.365-1.118.547-1.858.547-.589 0-1.118-.13-1.586-.391a2.802 2.802 0 0 1-1.087-1.105c-.265-.485-.397-1.043-.397-1.676s.128-1.188.385-1.664a2.655 2.655 0 0 1 1.077-1.095c.468-.261 1.004-.391 1.608-.391.59 0 1.11.127 1.563.38.454.253.8.603 1.043 1.05.249.439.374.938.374 1.497Zm-1.065-.213c0-.387-.087-.718-.26-.994a1.628 1.628 0 0 0-.715-.636 2.14 2.14 0 0 0-.985-.224c-.521 0-.967.164-1.337.492-.362.328-.57.782-.623 1.362h3.92Zm4.623 3.608c-.476 0-.903-.078-1.28-.234a2.222 2.222 0 0 1-.895-.67 1.799 1.799 0 0 1-.363-.995h1.065c.03.306.174.555.43.749.265.194.608.29 1.032.29.392 0 .702-.085.928-.257.227-.171.34-.387.34-.647a.627.627 0 0 0-.362-.593c-.242-.134-.616-.264-1.122-.39a9.317 9.317 0 0 1-1.133-.358 2.156 2.156 0 0 1-.747-.547c-.204-.246-.306-.566-.306-.961 0-.313.094-.599.283-.86.189-.261.457-.465.804-.614a2.86 2.86 0 0 1 1.19-.235c.687 0 1.242.172 1.665.514.423.342.65.811.68 1.407h-1.031a1.036 1.036 0 0 0-.397-.77c-.234-.194-.55-.291-.951-.291-.37 0-.665.078-.884.235a.721.721 0 0 0-.328.614c0 .201.064.369.192.503.136.127.302.23.499.313.204.074.483.16.838.256.446.119.808.239 1.088.358.279.112.517.283.713.514.204.23.31.532.318.905 0 .335-.095.636-.284.904a1.916 1.916 0 0 1-.804.637c-.34.149-.733.223-1.178.223Zm4.978-5.384v3.608c0 .298.064.51.193.637.128.119.35.179.668.179h.76v.86h-.93c-.574 0-1.004-.13-1.291-.391-.287-.261-.43-.689-.43-1.285v-3.608h-.805v-.837h.804v-1.542h1.031v1.542h1.62v.837h-1.62Zm2.484 2.201c0-.626.128-1.173.385-1.642a2.782 2.782 0 0 1 1.054-1.106 2.964 2.964 0 0 1 1.506-.391c.544 0 1.016.116 1.416.346.4.231.699.521.895.872v-1.117h1.042v6.121h-1.042v-1.139c-.204.357-.51.655-.917.893-.4.231-.869.346-1.405.346-.551 0-1.05-.134-1.495-.402a2.835 2.835 0 0 1-1.054-1.128c-.257-.484-.385-1.035-.385-1.653Zm5.256.011c0-.462-.094-.864-.283-1.206a1.93 1.93 0 0 0-.77-.782 2.045 2.045 0 0 0-1.054-.279c-.385 0-.736.089-1.053.268a1.95 1.95 0 0 0-.76.782c-.188.342-.282.744-.282 1.206 0 .469.094.878.283 1.229.189.342.442.607.759.793.317.178.668.268 1.053.268.385 0 .737-.09 1.054-.268.325-.186.581-.451.77-.793.189-.351.283-.756.283-1.218Zm8.29-3.049v6.121h-1.03v-.905a2.02 2.02 0 0 1-.828.737 2.567 2.567 0 0 1-1.155.257c-.484 0-.918-.096-1.303-.29a2.238 2.238 0 0 1-.918-.894c-.219-.395-.328-.875-.328-1.441v-3.585h1.02v3.451c0 .603.154 1.069.464 1.396.31.32.732.481 1.269.481.55 0 .985-.168 1.302-.503.318-.335.476-.822.476-1.463v-3.362h1.031Zm2.771.994a1.97 1.97 0 0 1 .77-.816c.34-.194.752-.29 1.236-.29v1.05h-.272c-1.156 0-1.734.618-1.734 1.854v3.329h-1.03v-6.121h1.03v.994Zm2.81 2.044c0-.626.129-1.173.386-1.642a2.783 2.783 0 0 1 1.053-1.106 2.964 2.964 0 0 1 1.507-.391c.544 0 1.016.116 1.416.346.4.231.698.521.895.872v-1.117h1.042v6.121H72.06v-1.139c-.204.357-.51.655-.918.893-.4.231-.868.346-1.405.346-.55 0-1.05-.134-1.495-.402a2.836 2.836 0 0 1-1.053-1.128c-.257-.484-.386-1.035-.386-1.653Zm5.257.011c0-.462-.095-.864-.284-1.206a1.928 1.928 0 0 0-.77-.782 2.045 2.045 0 0 0-1.053-.279c-.386 0-.737.089-1.054.268a1.95 1.95 0 0 0-.759.782c-.189.342-.283.744-.283 1.206 0 .469.094.878.283 1.229.189.342.442.607.76.793.316.178.667.268 1.053.268.385 0 .736-.09 1.053-.268.325-.186.582-.451.77-.793.19-.351.284-.756.284-1.218Zm5.809-3.161c.755 0 1.367.227 1.835.681.468.447.702 1.095.702 1.944v3.608h-1.02v-3.463c0-.61-.154-1.076-.464-1.396-.31-.328-.732-.492-1.269-.492-.543 0-.978.168-1.302.503-.317.335-.476.823-.476 1.463v3.385h-1.031v-6.121h1.03v.871c.205-.313.48-.555.828-.726a2.639 2.639 0 0 1 1.167-.257Zm5.478.949v3.608c0 .298.064.51.193.637.129.119.351.179.668.179h.76v.86h-.93c-.573 0-1.004-.13-1.29-.391-.288-.261-.431-.689-.431-1.285v-3.608h-.805v-.837h.805v-1.542h1.03v1.542h1.62v.837h-1.62Zm3.198 5.351a.683.683 0 0 1-.498-.201.664.664 0 0 1-.204-.492c0-.194.068-.357.204-.491a.683.683 0 0 1 .498-.201c.189 0 .347.067.476.201a.662.662 0 0 1 .204.491.664.664 0 0 1-.204.492.634.634 0 0 1-.476.201Z" fill="#2A2A38"/></svg>