<svg width="44" height="44" fill="none" xmlns="http://www.w3.org/2000/svg"><path d="M22.22 33.356a.366.366 0 0 1-.201-.674l9.794-6.392-11.875 6.857a.366.366 0 0 1-.382-.625l11.011-7.105-11.146 6.436a.367.367 0 0 1-.376-.63l4.045-2.507-4 2.31a.366.366 0 0 1-.376-.63l4.481-2.778-4.442 2.567a.367.367 0 0 1-.38-.627l10.428-6.64-10.525 6.072a.366.366 0 0 1-.378-.628l7.755-4.855-7.773 4.49a.367.367 0 1 1-.375-.631l.091-.055a.367.367 0 0 1-.366-.635l1.125-.688-1.039.599a.367.367 0 0 1-.376-.627l8.49-5.31-8.523 4.918a.367.367 0 0 1-.38-.627l12.111-7.703L16.4 24.303a.367.367 0 0 1-.376-.63l8.168-5.082-8.186 4.729a.366.366 0 1 1-.377-.63l7.951-4.943-7.96 4.595a.366.366 0 0 1-.378-.628l7.8-4.869-7.82 4.513a.367.367 0 0 1-.38-.627l8.498-5.371-8.544 4.933a.367.367 0 0 1-.377-.629l4.601-2.87-4.57 2.64a.366.366 0 0 1-.378-.628l4.115-2.585-4.078 2.354a.367.367 0 0 1-.383-.624l7.773-5.078-7.86 4.536a.367.367 0 0 1-.39-.62l8.175-5.55-8.326 4.81a.367.367 0 0 1-.386-.624l4.867-3.22-4.892 2.822a.367.367 0 0 1-.39-.62l4.38-2.955-4.401 2.542a.366.366 0 0 1-.383-.625l.22-.146-.118.067a.366.366 0 0 1-.4-.614l4.148-3.021-4.225 2.445a.367.367 0 0 1-.405-.61l3.058-2.308-2.966 1.712a.367.367 0 0 1-.406-.609l1.618-1.236-1.214.7a.367.367 0 0 1-.455-.564l1.64-1.801-1.188.683a.367.367 0 0 1-.5-.503l.479-.815a.367.367 0 0 1-.121-.68l.868-.496a.367.367 0 0 1 .5.503l-.39.666 2.024-1.169a.367.367 0 0 1 .455.564l-1.64 1.801 4.099-2.365a.367.367 0 0 1 .406.609L15.76 7.418l3.197-1.845a.367.367 0 0 1 .404.61l-3.057 2.308 5.055-2.918a.367.367 0 0 1 .4.614l-4.146 3.02 6.293-3.638a.367.367 0 0 1 .383.624l-.232.151 1.344-.775a.367.367 0 0 1 .388.62l-4.375 2.952 6.189-3.573a.367.367 0 0 1 .386.623l-4.862 3.218 6.653-3.842a.367.367 0 0 1 .39.62l-8.177 5.554 10.694-6.174a.367.367 0 0 1 .384.625L25.3 11.268l9.874-5.701a.367.367 0 0 1 .378.627L31.445 8.77l5.55-3.204a.367.367 0 0 1 .379.628l-4.61 2.879 6.075-3.507a.367.367 0 0 1 .379.627l-8.491 5.367L41.11 5.565a.367.367 0 0 1 .377.628l-7.802 4.87 8.971-5.18a.367.367 0 1 1 .377.63l-7.957 4.947 7.984-4.61a.367.367 0 0 1 .376.63l-8.155 5.074 7.78-4.487a.367.367 0 0 1 .38.627l-12.117 7.703L43.058 9.62a.367.367 0 0 1 .377.629l-8.484 5.306 8.11-4.68a.367.367 0 0 1 .374.63l-1.123.686.75-.432a.368.368 0 0 1 .373.63l-.31.19a.367.367 0 0 1 .314.66l-7.755 4.853 7.377-4.26a.366.366 0 0 1 .38.628l-10.435 6.644L43.06 15.3a.367.367 0 0 1 .376.63l-4.482 2.779 4.106-2.371a.367.367 0 0 1 .376.63l-4.033 2.5 3.66-2.112a.366.366 0 0 1 .382.625l-11.017 7.106 10.634-6.138a.367.367 0 0 1 .383.624l-9.796 6.394 9.411-5.434a.366.366 0 0 1 .38.627l-3.794 2.399 3.414-1.971a.367.367 0 0 1 .387.622l-7.243 4.84 6.856-3.96a.367.367 0 0 1 .387.622l-5.15 3.447 4.766-2.75a.366.366 0 0 1 .384.624l-1.736 1.138 1.35-.779a.367.367 0 0 1 .389.62l-2.531 1.723 2.138-1.235a.367.367 0 0 1 .407.608l-3.638 2.803 3.231-1.865a.367.367 0 0 1 .4.614l-.74.54.34-.197a.367.367 0 0 1 .431.586l-1.528 1.408 1.1-.636a.367.367 0 0 1 .464.555l-.687.812a.36.36 0 0 1 .293.183.366.366 0 0 1-.134.5l-1.498.868a.366.366 0 0 1-.464-.555l.572-.677-2.163 1.247a.367.367 0 0 1-.431-.587l1.53-1.406-3.456 1.994a.367.367 0 0 1-.398-.613l.743-.541-2.003 1.156a.367.367 0 0 1-.408-.608l3.638-2.803-5.911 3.415a.367.367 0 0 1-.39-.62l2.526-1.72-4.057 2.341a.366.366 0 0 1-.384-.623l1.74-1.14-3.057 1.764a.366.366 0 0 1-.388-.622l5.152-3.447-7.057 4.074a.367.367 0 0 1-.387-.623l7.241-4.835-9.46 5.46a.367.367 0 0 1-.38-.627l3.8-2.402-5.242 3.026a.361.361 0 0 1-.185.05Z" fill="#E1EFFF"/><path d="M11.888 6.967a.366.366 0 0 1-.23-.654l3.534-2.83-3.987 2.3a.367.367 0 0 1-.411-.604l2.065-1.644-1.654.954a.367.367 0 0 1-.432-.587l1.284-1.185-.849.49a.366.366 0 0 1-.455-.564l.594-.653a.367.367 0 0 1-.081-.67l1.502-.865a.367.367 0 0 1 .454.563l-.344.38L14.54.44a.367.367 0 0 1 .432.587L13.69 2.209 16.758.44a.367.367 0 0 1 .411.605l-2.063 1.642L18.997.44a.367.367 0 0 1 .413.603l-3.534 2.83L21.826.44a.367.367 0 0 1 .403.611l-2.723 2.013L24.058.44a.367.367 0 0 1 .389.62l-.293.198 1.42-.818a.367.367 0 0 1 .394.617L24.34 2.2 27.394.44a.367.367 0 0 1 .413.603L24.294 3.85l5.91-3.41a.367.367 0 0 1 .393.618l-1.14.79L31.9.44a.367.367 0 0 1 .413.603l-3.548 2.85L34.752.44a.367.367 0 0 1 .394.617l-1.54 1.08L36.547.44a.367.367 0 0 1 .41.605l-3.43 2.713L39.276.44a.367.367 0 0 1 .395.616l-1.764 1.247 3.205-1.85a.367.367 0 0 1 .395.617l-1.76 1.246L42.214.892a.367.367 0 0 1 .404.61l-2.364 1.785 2.636-1.522a.367.367 0 0 1 .422.595L41.054 4.3l2.01-1.16a.367.367 0 0 1 .428.591l-.812.717.39-.224a.366.366 0 0 1 .523.452l-.425 1.078a.367.367 0 0 1 .277.672l-.813.47a.367.367 0 0 1-.524-.452l.418-1.06-2.621 1.514a.366.366 0 0 1-.427-.591l.811-.72-2.273 1.311a.367.367 0 0 1-.423-.594l2.256-1.938-4.389 2.535a.367.367 0 0 1-.403-.61l2.365-1.786-4.152 2.397a.367.367 0 0 1-.396-.617l1.76-1.246-3.226 1.863a.367.367 0 0 1-.396-.617l1.764-1.246-3.236 1.866a.367.367 0 0 1-.41-.605l3.43-2.714-5.751 3.32a.367.367 0 0 1-.394-.617L27.95 5.21l-2.944 1.698a.367.367 0 0 1-.412-.603l3.546-2.853-5.986 3.458a.367.367 0 0 1-.392-.619l1.144-.791-2.446 1.41a.367.367 0 0 1-.412-.603L23.56 3.5l-5.915 3.414a.366.366 0 0 1-.394-.617l1.63-1.147-3.06 1.765a.366.366 0 0 1-.389-.62l.293-.199-1.42.82a.367.367 0 0 1-.403-.611l2.719-2.013-4.547 2.626a.36.36 0 0 1-.186.05ZM3.007 43.611a.366.366 0 0 1-.203-.672l6.927-4.594L1.664 43a.367.367 0 0 1-.38-.627L4.59 40.28l-3.457 1.995a.366.366 0 0 1-.383-.625l7.714-5.041-7.524 4.343a.366.366 0 0 1-.38-.627l4.528-2.878-4.148 2.394a.367.367 0 0 1-.386-.623l9.08-6.013-8.694 5.018a.367.367 0 0 1-.379-.627l2.6-1.635-2.221 1.281a.367.367 0 0 1-.382-.625l6.073-3.904L.94 36a.367.367 0 0 1-.382-.626l5.946-3.813-5.564 3.208a.367.367 0 0 1-.379-.627l2.951-1.859L.94 33.766a.367.367 0 0 1-.384-.624l8.465-5.569L.94 32.242a.367.367 0 0 1-.382-.626l7.06-4.575-6.678 3.855a.367.367 0 0 1-.382-.625l6.917-4.474L.94 29.566a.366.366 0 0 1-.385-.623l8.608-5.67L.94 28.021a.367.367 0 0 1-.386-.624l9.054-5.994-8.668 5.004a.367.367 0 0 1-.387-.623l9.495-6.327-9.108 5.26a.366.366 0 0 1-.382-.625l6.132-3.95-5.75 3.32a.366.366 0 0 1-.384-.624l7.319-4.807-6.935 4.004a.367.367 0 0 1-.389-.622l7.26-4.906L.94 20.472a.366.366 0 0 1-.391-.62l5.539-3.797-5.148 2.97a.367.367 0 0 1-.391-.618L3.97 16.06.94 17.807a.366.366 0 0 1-.397-.615l2.947-2.112-2.55 1.473a.366.366 0 0 1-.404-.61L2.72 14.29.939 15.316a.367.367 0 0 1-.43-.586l1.865-1.705-1.435.828a.367.367 0 0 1-.473-.541l.812-1.052a.366.366 0 0 1-.28-.671l1.504-.868a.366.366 0 0 1 .473.542l-.792 1.026 2.744-1.582a.367.367 0 0 1 .43.586l-1.865 1.705 3.97-2.291a.367.367 0 0 1 .405.61L5.68 12.97l3.927-2.263a.367.367 0 0 1 .397.615l-2.951 2.109 4.722-2.726a.367.367 0 0 1 .391.62L8.747 13.67l5.134-2.965a.367.367 0 0 1 .39.619l-5.538 3.8 7.658-4.418a.367.367 0 0 1 .389.62l-7.26 4.907 9.028-5.212a.367.367 0 0 1 .384.624l-7.313 4.803 7.769-4.486a.367.367 0 0 1 .382.625l-6.13 3.952 5.958-3.44a.367.367 0 0 1 .387.622l-9.498 6.327 9.108-5.26a.367.367 0 0 1 .386.623l-9.054 5.995 8.668-5.004a.366.366 0 0 1 .385.624l-8.609 5.669 8.224-4.747a.367.367 0 0 1 .382.625l-6.918 4.478 6.536-3.773a.366.366 0 0 1 .382.625l-7.06 4.575 6.678-3.855a.367.367 0 0 1 .384.624l-8.466 5.566 8.082-4.667a.367.367 0 0 1 .378.627l-2.95 1.86 2.572-1.486a.367.367 0 0 1 .381.627l-5.945 3.813 5.564-3.212a.367.367 0 0 1 .381.626l-6.073 3.903 5.692-3.286a.367.367 0 0 1 .378.628l-2.599 1.634 2.22-1.276a.367.367 0 0 1 .386.624l-9.079 6.013 8.694-5.018a.367.367 0 0 1 .38.627l-4.528 2.878 4.148-2.396a.366.366 0 0 1 .383.625l-7.717 5.044 7.334-4.234a.366.366 0 0 1 .379.627l-3.3 2.092 2.92-1.687a.367.367 0 0 1 .386.624l-6.927 4.597 6.545-3.778a.367.367 0 0 1 .393.618l-6.86 4.786 6.464-3.731a.367.367 0 0 1 .394.616l-4.755 3.354 4.36-2.52a.367.367 0 0 1 .397.616l-3.016 2.153 2.62-1.511a.367.367 0 0 1 .404.61l-2.341 1.776 1.937-1.118a.367.367 0 0 1 .432.586l-1.946 1.79 1.514-.874a.367.367 0 0 1 .455.563l-.726.803.027-.015a.367.367 0 0 1 .366.634l-2.044 1.181a.366.366 0 0 1-.455-.562l.726-.803-2.369 1.365a.366.366 0 0 1-.432-.587l1.944-1.788-4.116 2.375a.366.366 0 0 1-.404-.61l2.342-1.776-4.135 2.386a.366.366 0 0 1-.396-.615l3.014-2.153-4.795 2.768a.366.366 0 0 1-.395-.616l4.757-3.355-6.88 3.971a.366.366 0 0 1-.393-.617l6.854-4.782-9.353 5.399a.367.367 0 0 1-.18.051Z" fill="#3B2186"/><path d="M10.934 15.011a.367.367 0 0 1-.25-.635l.648-.607-2.065 1.191a.367.367 0 0 1-.435-.587l1.57-1.474-3.037 1.752a.366.366 0 0 1-.429-.586l1.118-1.012-1.226.709a.367.367 0 0 1-.457-.562l.633-.698-.198.111a.366.366 0 0 1-.536-.418l.184-.638a.366.366 0 0 1-.015-.643l.367-.212a.367.367 0 0 1 .536.418l-.117.404 1.434-.828a.367.367 0 0 1 .456.563l-.634.7 2.2-1.27a.366.366 0 0 1 .43.588l-1.12 1.01 2.787-1.607a.367.367 0 0 1 .435.587l-1.574 1.478 2.09-1.205a.366.366 0 0 1 .433.587l-.649.607.215-.124a.367.367 0 0 1 .465.551l-.367.44a.367.367 0 0 1 .056.66l-1.213.701a.367.367 0 0 1-.465-.551l.12-.147-1.207.696a.359.359 0 0 1-.183.051Z" fill="#E1EFFF"/><path d="M7.209 29.678a.366.366 0 0 1-.217-.66l4.144-3.029-6.21 3.582a.367.367 0 0 1-.397-.615l5.896-4.224-6.516 3.76a.367.367 0 0 1-.385-.622l2.274-1.5-1.926 1.109a.367.367 0 0 1-.39-.621l2.5-1.697-2.11 1.218a.367.367 0 0 1-.388-.622l.406-.273-.018.01a.366.366 0 0 1-.398-.614l1.53-1.1-1.132.652a.366.366 0 0 1-.418-.598l1.878-1.57-1.46.842a.367.367 0 0 1-.421-.597l.41-.348a.366.366 0 0 1-.472-.536l.52-.733a.389.389 0 0 1-.328-.183.367.367 0 0 1 .133-.5l1.215-.702a.367.367 0 0 1 .483.528l-.46.65 2.045-1.178a.367.367 0 0 1 .42.596l-.406.345 1.632-.941a.366.366 0 0 1 .418.598l-1.874 1.568 3.751-2.166a.366.366 0 0 1 .398.614l-1.53 1.1 2.975-1.716a.367.367 0 0 1 .387.621l-.405.272 1.55-.891a.367.367 0 0 1 .389.62l-2.499 1.697 3.705-2.14a.367.367 0 0 1 .386.623l-2.265 1.497 2.503-1.444a.367.367 0 0 1 .396.615l-5.897 4.224 5.63-3.25a.367.367 0 0 1 .4.613l-4.146 3.031 3.746-2.162a.366.366 0 0 1 .406.608l-2.816 2.163 2.41-1.393a.367.367 0 0 1 .426.593l-1.98 1.738 1.553-.897a.366.366 0 0 1 .44.579l-.739.724.299-.171a.367.367 0 0 1 .366.634l-2.8 1.618a.366.366 0 0 1-.44-.579l.74-.725-2.26 1.304a.367.367 0 0 1-.426-.593l1.98-1.736-4.033 2.329a.367.367 0 0 1-.407-.608l2.818-2.164-4.806 2.772a.361.361 0 0 1-.183.05Z" fill="#F2CF7E"/><path d="M33.446 28.945a.366.366 0 0 1-.215-.664l.806-.587-2.08 1.2a.367.367 0 0 1-.409-.608l2.302-1.782-4.14 2.39a.366.366 0 0 1-.41-.607l2.37-1.848-4.253 2.454a.366.366 0 0 1-.403-.61l1.845-1.38-3.226 1.862a.366.366 0 0 1-.395-.617l.367-.258-.865.5a.367.367 0 0 1-.402-.612l1.027-.76-1.373.793a.366.366 0 0 1-.44-.58l2.016-1.971-2.358 1.36a.366.366 0 0 1-.445-.573l.89-.91-.7.403a.366.366 0 0 1-.467-.549l.366-.451a.366.366 0 0 1-.073-.667l1.217-.702a.367.367 0 0 1 .467.549l-.155.191 1.283-.738a.367.367 0 0 1 .446.574l-.886.906 2.567-1.481a.367.367 0 0 1 .44.58l-2.016 1.97 4.42-2.549a.367.367 0 0 1 .402.612l-1.026.76 2.376-1.372a.367.367 0 0 1 .395.617l-.367.258 1.517-.875a.367.367 0 0 1 .402.611l-1.846 1.38 3.447-1.99a.367.367 0 0 1 .41.606l-2.37 1.848 4.253-2.455a.367.367 0 0 1 .409.608l-2.3 1.78 3.423-1.976a.367.367 0 0 1 .4.614l-.812.587.815-.47a.367.367 0 0 1 .444.575l-1.98 2 1.213-.7a.366.366 0 1 1 .367.634l-3.584 2.068a.367.367 0 0 1-.444-.575l1.98-1.998-4.458 2.573a.36.36 0 0 1-.184.052Z" fill="#D3B571"/><path d="M26.077 23.811a.366.366 0 0 1-.238-.646l.301-.255-1.475.85a.366.366 0 0 1-.465-.552l1.086-1.281-2.092 1.207a.367.367 0 0 1-.508-.486l.592-1.144-.13.073a.367.367 0 0 1-.366-.634l1.215-.701a.362.362 0 0 1 .44.052.367.367 0 0 1 .074.434l-.593 1.142 2.82-1.63a.367.367 0 0 1 .464.554l-1.086 1.285 3.186-1.839a.368.368 0 0 1 .42.597l-.3.255 1.476-.852a.367.367 0 0 1 .472.543l-1.096 1.404 3.373-1.947a.363.363 0 0 1 .476.096.367.367 0 0 1-.038.485l-.85.823 2.436-1.404a.367.367 0 0 1 .462.555l-1.08 1.278 3.174-1.833a.367.367 0 0 1 .447.572l-.973 1.003 2.002-1.155a.366.366 0 0 1 .466.55l-.75.917.71-.41a.366.366 0 0 1 .366.636l-2.448 1.407a.366.366 0 0 1-.467-.55l.75-.917-2.541 1.467a.367.367 0 0 1-.448-.572l.973-1.002-2.727 1.574a.367.367 0 0 1-.463-.554l1.083-1.28-3.175 1.834a.366.366 0 0 1-.44-.58l.85-.825-2.431 1.405a.367.367 0 0 1-.473-.543l1.096-1.404-3.373 1.947a.366.366 0 0 1-.184.051Z" fill="#925C4C"/><path d="M35.102 20.882a.367.367 0 0 1-.183-.684l4.845-2.797a.367.367 0 0 1 .418.598l-.079.067.025-.015a.367.367 0 0 1 .497.506l-.556.928.059-.033a.366.366 0 0 1 .367.635l-1.285.74a.366.366 0 0 1-.498-.506l.557-.93-2.486 1.436a.367.367 0 0 1-.418-.599l.077-.065-1.156.667a.366.366 0 0 1-.184.052Z" fill="#F9D990"/><path d="M30.06 25.278a.366.366 0 0 1-.248-.637l.356-.325-.873.504a.366.366 0 0 1-.385-.623l.563-.374-.697.402a.367.367 0 0 1-.395-.617l2.328-1.642-2.59 1.494a.367.367 0 0 1-.409-.605l2.944-2.305-3.366 1.944a.367.367 0 0 1-.42-.6l2.207-1.845-2.601 1.5a.366.366 0 0 1-.413-.603l.765-.615-1.075.62a.366.366 0 0 1-.44-.578l1.025-1.013-2.54 1.467a.367.367 0 0 1-.452-.566l1.026-1.106-1.43.825a.366.366 0 0 1-.519-.464l.457-1.046a.367.367 0 0 1-.265-.675l.854-.488a.367.367 0 0 1 .52.464l-.447 1.019 2.567-1.483a.367.367 0 0 1 .452.566l-1.026 1.106 2.898-1.672a.367.367 0 0 1 .44.578l-1.022 1.01 2.756-1.588a.367.367 0 0 1 .414.603l-.764.613 2.107-1.216a.367.367 0 0 1 .419.598l-2.206 1.847 4.236-2.445a.367.367 0 0 1 .408.606l-2.944 2.303 5.04-2.91a.367.367 0 0 1 .395.617l-2.324 1.641 3.91-2.257a.366.366 0 0 1 .386.622l-6.42 4.262a.366.366 0 0 1-.1.389L31.6 24.005l.008.014a.367.367 0 0 1-.134.5l-1.23.707a.359.359 0 0 1-.183.051Z" fill="#F9D990"/><path d="M29.345 17.945a.366.366 0 0 1-.211-.667l1.913-1.346-3.4 1.961a.367.367 0 0 1-.398-.615l3.091-2.221-4.913 2.836a.367.367 0 0 1-.4-.614l3.367-2.446-4.84 2.796a.366.366 0 0 1-.394-.618l2.177-1.527-2.34 1.35a.367.367 0 0 1-.4-.612l2.286-1.697-1.938 1.118a.367.367 0 0 1-.411-.604l1.556-1.24-.921.533a.367.367 0 0 1-.431-.587l1.1-1.011a.367.367 0 0 1-.06-.663l2.152-1.246a.367.367 0 0 1 .431.586l-.664.61 2.288-1.32a.367.367 0 0 1 .412.604l-1.557 1.243 3.192-1.841a.367.367 0 0 1 .402.611l-2.286 1.697 4-2.308a.366.366 0 0 1 .393.616l-2.175 1.527 3.714-2.143a.366.366 0 0 1 .4.613l-3.368 2.447 5.226-3.017a.367.367 0 0 1 .398.615l-3.094 2.223 4.131-2.384a.367.367 0 0 1 .395.617l-1.913 1.345 2.378-1.372a.367.367 0 0 1 .403.61l-2.454 1.848 2.799-1.613a.367.367 0 0 1 .4.613l-.871.639.875-.505a.366.366 0 0 1 .424.594l-1.603 1.397 1.482-.855a.366.366 0 0 1 .426.592l-.367.323a.367.367 0 0 1 .452.555l-.417.53a.366.366 0 0 1 .102.675l-1.215.7a.367.367 0 0 1-.472-.543l.254-.323-1.504.862a.367.367 0 0 1-.426-.591l.362-.32-1.58.911a.367.367 0 0 1-.425-.593l1.604-1.398-3.446 1.991a.367.367 0 0 1-.4-.613l.87-.638-2.171 1.251a.366.366 0 0 1-.403-.61l2.454-1.847-4.258 2.457a.365.365 0 0 1-.183.052Z" fill="#D3B571"/><path d="M7.68 36.278a.366.366 0 0 1-.235-.649l.162-.134-.87.501a.366.366 0 0 1-.453-.564l.83-.906-1.002.577a.366.366 0 0 1-.472-.543l.375-.478a.366.366 0 0 1-.1-.674l1.214-.701a.367.367 0 0 1 .472.543l-.211.27 1.41-.813a.367.367 0 0 1 .454.564l-.827.902 2.546-1.466a.367.367 0 0 1 .418.599l-.162.135 1.272-.734a.366.366 0 0 1 .435.587l-.783.733 1.755-1.013a.366.366 0 0 1 .44.58l-.552.538.613-.354a.367.367 0 0 1 .476.54l-.398.526a.366.366 0 0 1 .132.68l-1.214.701a.367.367 0 0 1-.475-.538l.279-.367-1.576.907a.367.367 0 0 1-.44-.58l.553-.539-1.939 1.119a.367.367 0 0 1-.434-.587l.783-.733-2.293 1.32a.361.361 0 0 1-.183.051Z" fill="#F9D990"/><path d="M2.957 43.55c1.584.019 3.168 0 4.752 0h6.664c1.207.088 2.418.068 3.621-.06a2.724 2.724 0 0 0 2.335-2.493c0-.014-.009-.022-.01-.034-.001-.013.012-.023.012-.036v-7.64h19.334c1.168 0 2.352.065 3.3-.778.88-.783.833-1.803.833-2.86V3.21A2.534 2.534 0 0 0 41.27.446c-2.397-.099-4.82 0-7.218 0h-13.09c-2.506 0-5.025-.069-7.532 0a3.143 3.143 0 0 0-2.5 1.183 3.18 3.18 0 0 0-.461 1.994v7.092h-5.68c-1.366 0-2.876-.164-3.912.936-.768.815-.675 1.827-.675 2.848 0 1.498-.119 19.205 0 26.553.026 1.614 1.231 2.48 2.755 2.498Zm39.779-12.833a2.11 2.11 0 0 1-.617 1.64 1.769 1.769 0 0 1-1.348.355h-20.44v-12.43c0-2.397.118-4.828 0-7.224a2.467 2.467 0 0 0-2.52-2.342c-.328-.014-.66 0-.986 0H11.53V7.01h31.205v20.809c0 .966.017 1.934 0 2.9ZM7.95 14.244c-.84-.17-.82-.76-.82-1.504v-1.456h6.271c0 .493.56 2.13.052 2.64-.768.768-5.094.402-5.503.32Zm4.08-12.738c.617-.68 1.712-.486 2.54-.486H40.28c1.31 0 2.396.608 2.457 2.095.029.742 0 1.491 0 2.232v.845H11.53V3.607a2.847 2.847 0 0 1 .5-2.101ZM1.265 13.185a1.775 1.775 0 0 1 1.467-1.901 9.766 9.766 0 0 1 1.026 0H6.07v1.571a1.802 1.802 0 0 0 .797 1.812c.479.195 1 .267 1.514.207h3.74c1.173-.04 2.34-.646 2.346-1.936v-1.653h.769c1.325 0 3.158-.33 3.84 1.149.224.765.29 1.567.196 2.358v26.36c-.122 2.122-1.968 1.833-3.48 1.833H4.282c-.366 0-.748.02-1.118 0a2.042 2.042 0 0 1-1.9-2.084c-.097-2.394-.09-25.082 0-27.716Z" fill="#2A2A38"/><path d="M3.136 27.556a1.798 1.798 0 0 0 .855 1.822c.437.183.913.255 1.386.21h9.803c1.1-.063 2.16-.67 2.217-1.867.025-.528 0-1.064 0-1.592 0-1.628.025-3.257 0-4.885a1.657 1.657 0 0 0-1.577-1.687c-.355-.03-.72-.009-1.075-.009H9.504c-1.36 0-2.725-.035-4.086 0a2.353 2.353 0 0 0-2.126 1.158 3.992 3.992 0 0 0-.156 1.66v5.19Zm1.1-6.707c.156-.68.577-.795 1.144-.795h6.905c.983-.064 1.97-.062 2.954.006.944.134 1.1 1.027 1.1 1.802v5.284c0 .575.13 1.884-.717 1.933H5.815a1.468 1.468 0 0 1-1.33-.489 2.393 2.393 0 0 1-.288-1.552V22.18a6.16 6.16 0 0 1 .036-1.33h.003ZM39.942 17.425a1.766 1.766 0 0 0 .922-1.65 4.675 4.675 0 0 0-2.51-4.515 6.716 6.716 0 0 0-3.08-.48h-7.798a.4.4 0 0 0-.043.007.642.642 0 0 0-.073-.006 5.543 5.543 0 0 0-4.051 1.795 5.248 5.248 0 0 0-1.109 3.7 1.471 1.471 0 0 0 .72 1.27c-.33.26-.552.635-.621 1.05-.371 1.36.067 1.84.778 2.064a1.706 1.706 0 0 0-.88 1.44 1.56 1.56 0 0 0 .885 1.414 2.018 2.018 0 0 0-.83 2.153 4.083 4.083 0 0 0 4.033 3.314c.742.018 7.474.016 10.096 0a4.524 4.524 0 0 0 3.62-1.644c.89-1.125 1.294-3.227.01-3.98.06-.038.118-.079.174-.123a1.687 1.687 0 0 0 .551-1.967 1.58 1.58 0 0 0-.488-.602 1.62 1.62 0 0 0 .233-.207 2.022 2.022 0 0 0-.539-3.032ZM23.264 15.26c.01-.647.158-1.285.434-1.87a3.666 3.666 0 0 1 3.184-2.17c2 0 7.76-.022 8.637 0a4.31 4.31 0 0 1 3.981 2.713c.268.684.65 2.653-.085 3.273-1.704-.488-4.756-.12-6.44-.12-2.884 0-5.53-.01-8.409.172-.101.007-.192.01-.285.016-.537-.134-1.069-.224-1.017-2.014Zm-.099 3.268c.684-1.43 14.54-.649 15.331-.718.168.03.334.072.496.128.624.233.943.172.91 1.163-.046 1.303-.794 1.094-1.849 1.094-1.51 0-3.534-.472-4.442.777-2.156 3.327-3.363 3.96-4.383 3.06-.188-.163-2.265-3.142-3.305-3.63-.956-.45-3.69.08-2.758-1.874Zm.494 4.308a1.349 1.349 0 0 1-.375-1.164c.052-.305.26-.752.593-.844.672.03 1.33.206 1.927.514a6.94 6.94 0 0 1 1.49 1.738h-2.61c-.185 0-.37.014-.553.042a1.12 1.12 0 0 1-.472-.286Zm16.015 3.08a3.134 3.134 0 0 1-3.144 2.303c-2.053.018-8.247 0-9.29 0a4.05 4.05 0 0 1-2.596-.627 3.342 3.342 0 0 1-1.373-2.697c.05-1.023.811-1.04 1.57-1.04h3.016c.69.88 1.473 1.584 2.56 1.368.774-.24 1.45-.72 1.936-1.368 1.805 0 6.066-.04 6.374 0 1.06.138 1.19 1.174.946 2.057v.004Zm.11-3.996a1.204 1.204 0 0 1-.51 1.197c-.036-.005-.067-.015-.105-.02-1.155-.125-5.308-.012-6.193-.012.513-.679.973-1.37 1.364-1.837 1.247-.916 3.367-.014 4.914-.208.286.21.476.526.53.876v.004ZM13.171 36.262h.016a.47.47 0 0 0 .102 0c2.43-.392 2.245-3.362-.16-3.589a31.197 31.197 0 0 0-5.827 0c-2.456.255-2.346 3.373.065 3.593 1.902.169 3.893-.004 5.804-.004ZM6.6 34.027c.205-.712 1.246-.669 1.752-.697.74-.041 3.593-.061 4.253 0 1.118.105 2.914 1.884.513 2.273H9.957c-.897.002-3.921.377-3.357-1.576ZM35.735 4.001h4.4a.798.798 0 0 0 .698-.304c.121-.214-.104-.367-.302-.367h-4.4a.797.797 0 0 0-.698.304c-.121.217.104.367.302.367ZM14.878 40.048h-8.8c-.209 0-.597.074-.704.283-.106.21.09.288.281.288h8.8c.209 0 .597-.074.704-.283.106-.21-.09-.288-.281-.288ZM15.407 3.667c0 .271-.323.498-.726.498h-.748c-.403 0-.726-.227-.726-.498 0-.272.323-.498.726-.498h.748c.403 0 .726.226.726.498ZM19.074 3.667c0 .271-.323.498-.726.498H17.6c-.404 0-.726-.227-.726-.498 0-.272.322-.498.726-.498h.748c.403 0 .726.226.726.498ZM22.74 3.667c0 .271-.322.498-.725.498h-.748c-.404 0-.726-.227-.726-.498 0-.272.322-.498.726-.498h.748c.403 0 .726.226.726.498Z" fill="#2A2A38"/><path d="M31.562 13.579a.488.488 0 0 1 .497.475v.491a.499.499 0 0 1-.995 0v-.49a.489.489 0 0 1 .498-.476ZM16.874 13.523a.49.49 0 0 1 .498.476v.49a.499.499 0 0 1-.996 0V14a.489.489 0 0 1 .498-.476ZM3.666 13.523a.49.49 0 0 1 .498.476v.49a.499.499 0 0 1-.996 0V14a.49.49 0 0 1 .498-.476ZM6.6 25.307a.489.489 0 0 1 .498.476v.49a.499.499 0 0 1-.996 0v-.49a.49.49 0 0 1 .498-.476ZM9.533 25.307a.489.489 0 0 1 .498.476v.49a.499.499 0 0 1-.996 0v-.49a.49.49 0 0 1 .498-.476ZM8.102 22.733a.489.489 0 0 1-.475.498H6.538a.499.499 0 0 1 0-.996h1.089a.488.488 0 0 1 .475.498ZM12.466 25.307a.489.489 0 0 1 .498.476v.49a.499.499 0 0 1-.995 0v-.49a.49.49 0 0 1 .497-.476ZM28.144 13.734a.489.489 0 0 1 .015.688l-.347.347a.497.497 0 0 1-.703-.704l.347-.346a.488.488 0 0 1 .688.015ZM35.053 13.734a.489.489 0 0 0-.015.688l.347.347a.498.498 0 0 0 .704-.704l-.347-.346a.488.488 0 0 0-.689.015Z" fill="#2A2A38"/></svg>