<svg width="44" height="44" viewBox="0 0 44 44" fill="none" xmlns="http://www.w3.org/2000/svg">
<path d="M22.2199 33.3564C22.1408 33.3566 22.0637 33.3312 22.0003 33.284C21.9368 33.2368 21.8903 33.1703 21.8677 33.0945C21.8451 33.0187 21.8476 32.9376 21.8748 32.8633C21.9021 32.7891 21.9527 32.7256 22.019 32.6824L31.8134 26.29L19.9378 33.1466C19.8552 33.1915 19.7585 33.2029 19.6678 33.1785C19.577 33.1541 19.4991 33.0959 19.45 33.0157C19.401 32.9355 19.3846 32.8396 19.4043 32.7477C19.424 32.6558 19.4782 32.5749 19.5557 32.5218L30.5674 25.4173L19.4208 31.853C19.3375 31.9 19.2391 31.9125 19.1467 31.888C19.0543 31.8635 18.9751 31.8038 18.9261 31.7218C18.877 31.6397 18.8619 31.5417 18.8841 31.4487C18.9062 31.3557 18.9638 31.275 19.0446 31.2238L23.0904 28.7158L19.09 31.0258C19.0067 31.0728 18.9084 31.0853 18.816 31.0608C18.7236 31.0363 18.6444 30.9766 18.5953 30.8946C18.5463 30.8125 18.5312 30.7145 18.5533 30.6215C18.5755 30.5285 18.6331 30.4478 18.7138 30.3966L23.1952 27.618L18.7527 30.1847C18.6699 30.2296 18.573 30.2409 18.4821 30.2163C18.3913 30.1916 18.3133 30.133 18.2645 30.0525C18.2157 29.972 18.1997 29.8758 18.2198 29.7838C18.24 29.6918 18.2948 29.6111 18.3728 29.5584L28.8008 22.9174L18.276 28.9901C18.1929 29.0367 18.095 29.0491 18.003 29.0247C17.9109 29.0003 17.8319 28.9411 17.7828 28.8595C17.7336 28.778 17.7181 28.6805 17.7395 28.5877C17.761 28.4949 17.8177 28.4141 17.8976 28.3624L25.6534 23.507L17.88 27.9964C17.7964 28.0461 17.6964 28.0606 17.6022 28.0366C17.5079 28.0126 17.427 27.9521 17.3773 27.8685C17.3276 27.7848 17.3132 27.6849 17.3372 27.5906C17.3612 27.4964 17.4217 27.4155 17.5053 27.3658L17.5962 27.3108C17.5121 27.3586 17.4124 27.3713 17.3189 27.3459C17.2255 27.3205 17.1459 27.2592 17.0975 27.1754C17.049 27.0915 17.0358 26.9919 17.0605 26.8983C17.0853 26.8047 17.146 26.7247 17.2296 26.6757L18.3552 25.9878L17.3161 26.587C17.2335 26.6284 17.1383 26.637 17.0495 26.6112C16.9608 26.5854 16.8851 26.527 16.8375 26.4478C16.79 26.3685 16.7741 26.2742 16.7931 26.1838C16.8121 26.0934 16.8645 26.0134 16.9399 25.96L25.4297 20.6506L16.9069 25.5676C16.824 25.614 16.7264 25.6263 16.6346 25.6022C16.5428 25.578 16.464 25.5191 16.4146 25.438C16.3653 25.3569 16.3494 25.2598 16.3702 25.1672C16.3911 25.0745 16.447 24.9936 16.5263 24.9414L28.638 17.2377L16.4002 24.3026C16.3169 24.3496 16.2185 24.3621 16.1261 24.3376C16.0337 24.3131 15.9545 24.2534 15.9055 24.1714C15.8564 24.0893 15.8413 23.9913 15.8635 23.8983C15.8856 23.8053 15.9432 23.7246 16.024 23.6734L24.1918 18.5914L16.0056 23.32C15.9222 23.37 15.8223 23.3848 15.728 23.3611C15.6336 23.3374 15.5525 23.2773 15.5026 23.1938C15.4526 23.1104 15.4378 23.0105 15.4614 22.9162C15.4851 22.8218 15.5453 22.7408 15.6287 22.6908L23.5802 17.7466L15.6199 22.3424C15.5366 22.3905 15.4379 22.4039 15.3448 22.3798C15.2518 22.3557 15.1719 22.296 15.1224 22.2137C15.0729 22.1313 15.0578 22.0328 15.0802 21.9393C15.1026 21.8459 15.1608 21.765 15.2422 21.714L23.042 16.8454L15.2224 21.3576C15.1394 21.405 15.0411 21.4182 14.9486 21.3942C14.856 21.3702 14.7764 21.311 14.7269 21.2292C14.6773 21.1474 14.6617 21.0495 14.6833 20.9564C14.7049 20.8632 14.7621 20.7822 14.8426 20.7306L23.3404 15.3596L14.7964 20.2928C14.7131 20.3408 14.6143 20.3542 14.5213 20.3301C14.4283 20.306 14.3484 20.2464 14.2989 20.164C14.2494 20.0816 14.2342 19.9831 14.2566 19.8897C14.279 19.7962 14.3372 19.7153 14.4187 19.6643L19.0204 16.7933L14.4502 19.4333C14.3671 19.4799 14.2692 19.4923 14.1772 19.4679C14.0851 19.4435 14.0061 19.3843 13.957 19.3027C13.9078 19.2212 13.8923 19.1237 13.9137 19.0309C13.9352 18.9381 13.9919 18.8573 14.0718 18.8056L18.1866 16.2213L14.1092 18.5746C14.0267 18.62 13.9298 18.632 13.8387 18.6079C13.7476 18.5839 13.6693 18.5257 13.62 18.4454C13.5706 18.3651 13.5541 18.2689 13.5738 18.1768C13.5935 18.0846 13.6479 18.0036 13.7257 17.9505L21.499 12.8729L13.6399 17.4086C13.5577 17.4563 13.4603 17.4702 13.368 17.4475C13.2758 17.4247 13.196 17.3671 13.1454 17.2866C13.0949 17.2062 13.0775 17.1093 13.0969 17.0163C13.1164 16.9234 13.1712 16.8416 13.2498 16.7882L21.4235 11.2398L13.098 16.0482C13.0154 16.0961 12.9174 16.1099 12.8249 16.0867C12.7323 16.0635 12.6525 16.0051 12.6022 15.924C12.552 15.8428 12.5354 15.7453 12.556 15.6521C12.5765 15.5589 12.6326 15.4774 12.7122 15.4249L17.5786 12.2048L12.6866 15.0267C12.6045 15.0717 12.5084 15.0836 12.4179 15.06C12.3273 15.0364 12.2492 14.9791 12.1996 14.8999C12.1499 14.8206 12.1324 14.7253 12.1507 14.6336C12.169 14.5418 12.2216 14.4605 12.2979 14.4063L16.6766 11.4517L12.2759 13.9942C12.1932 14.0404 12.0959 14.0528 12.0043 14.0288C11.9127 14.0049 11.8339 13.9464 11.7844 13.8656C11.7349 13.7849 11.7186 13.6881 11.7389 13.5956C11.7591 13.5031 11.8144 13.4221 11.8931 13.3694L12.1131 13.2227L11.995 13.2902C11.9137 13.3376 11.8173 13.352 11.7257 13.3302C11.6341 13.3085 11.5544 13.2524 11.503 13.1735C11.4516 13.0947 11.4326 12.999 11.4498 12.9065C11.467 12.8139 11.5191 12.7315 11.5954 12.6764L15.7431 9.65504L11.5176 12.1C11.4368 12.1474 11.3408 12.162 11.2495 12.1409C11.1582 12.1198 11.0784 12.0645 11.0266 11.9864C10.9748 11.9083 10.9549 11.8133 10.9709 11.721C10.9869 11.6286 11.0377 11.5459 11.1128 11.4898L14.1708 9.18204L11.2045 10.8944C11.1237 10.9414 11.0281 10.9557 10.9371 10.9346C10.8461 10.9134 10.7666 10.8583 10.7149 10.7806C10.6631 10.7028 10.643 10.6082 10.6586 10.5161C10.6742 10.424 10.7244 10.3413 10.799 10.285L12.4167 9.04931L11.203 9.74964C11.1272 9.79371 11.0382 9.80916 10.9519 9.7932C10.8657 9.77723 10.7881 9.73091 10.7331 9.66262C10.6781 9.59433 10.6494 9.50861 10.6522 9.42098C10.655 9.33335 10.6891 9.24962 10.7484 9.18498L12.3881 7.38391L11.2001 8.06664C11.13 8.10702 11.0485 8.12309 10.9684 8.11234C10.8882 8.1016 10.8138 8.06465 10.7568 8.00725C10.6999 7.94984 10.6634 7.87521 10.6533 7.79496C10.6431 7.71472 10.6598 7.63337 10.7007 7.56358L11.1788 6.74884C11.1259 6.73976 11.0756 6.71916 11.0315 6.68849C10.9874 6.65782 10.9506 6.61784 10.9236 6.57138C10.8994 6.52965 10.8837 6.48355 10.8774 6.43574C10.871 6.38792 10.8742 6.33932 10.8866 6.29273C10.8991 6.24613 10.9206 6.20246 10.95 6.1642C10.9794 6.12594 11.016 6.09385 11.0578 6.06978L11.9261 5.57331C11.9962 5.53293 12.0776 5.51687 12.1578 5.52761C12.238 5.53835 12.3124 5.5753 12.3693 5.6327C12.4263 5.69011 12.4627 5.76474 12.4729 5.84499C12.483 5.92523 12.4664 6.00659 12.4255 6.07638L12.0354 6.74151L14.0601 5.57331C14.1358 5.52974 14.2246 5.51463 14.3104 5.5307C14.3963 5.54677 14.4736 5.59296 14.5284 5.66097C14.5833 5.72897 14.612 5.81431 14.6095 5.90163C14.607 5.98894 14.5734 6.0725 14.5148 6.13724L12.8758 7.93831L16.9736 5.57331C17.0543 5.52672 17.1496 5.51257 17.2403 5.53373C17.331 5.55489 17.4103 5.60978 17.462 5.68725C17.5137 5.76472 17.534 5.85896 17.5187 5.95085C17.5035 6.04273 17.4539 6.12537 17.3799 6.18198L15.7614 7.41764L18.958 5.57331C19.0388 5.527 19.1343 5.51319 19.2249 5.53468C19.3155 5.55617 19.3946 5.61134 19.446 5.689C19.4974 5.76666 19.5174 5.86098 19.5018 5.95281C19.4862 6.04464 19.4363 6.1271 19.3621 6.18344L16.3048 8.49051L21.3604 5.57331C21.4417 5.52588 21.5382 5.51153 21.6298 5.53324C21.7214 5.55496 21.8011 5.61106 21.8525 5.68995C21.9038 5.76883 21.9229 5.86445 21.9057 5.957C21.8885 6.04955 21.8364 6.13194 21.7601 6.18711L17.6138 9.20771L23.9066 5.56891C23.9891 5.52346 24.086 5.51152 24.1771 5.53557C24.2682 5.55963 24.3465 5.61783 24.3958 5.6981C24.4452 5.77838 24.4617 5.87456 24.442 5.9667C24.4223 6.05885 24.3679 6.13987 24.2901 6.19298L24.0584 6.34404L25.4018 5.56891C25.4838 5.52496 25.5794 5.51381 25.6693 5.53772C25.7592 5.56162 25.8366 5.6188 25.886 5.69767C25.9353 5.77653 25.9528 5.8712 25.9349 5.96248C25.9171 6.05376 25.8652 6.13485 25.7898 6.18931L21.4147 9.14098L27.604 5.56818C27.6864 5.52272 27.783 5.51064 27.874 5.53444C27.965 5.55825 28.0434 5.61611 28.0929 5.69606C28.1425 5.77602 28.1594 5.87196 28.1402 5.96403C28.121 6.05611 28.0671 6.13729 27.9898 6.19078L23.1278 9.40864L29.7813 5.56744C29.8634 5.52127 29.9601 5.50847 30.0514 5.53168C30.1427 5.55489 30.2215 5.61234 30.2716 5.69211C30.3217 5.77189 30.3391 5.86787 30.3203 5.96016C30.3015 6.05246 30.248 6.13398 30.1707 6.18784L21.994 11.7406L32.6875 5.56744C32.7701 5.52048 32.8677 5.50742 32.9598 5.53102C33.0518 5.55462 33.1311 5.61303 33.1809 5.69395C33.2308 5.77486 33.2472 5.87196 33.2269 5.96478C33.2065 6.0576 33.1509 6.13889 33.0718 6.19151L25.2999 11.2676L35.1742 5.56671C35.2572 5.52176 35.3543 5.51053 35.4454 5.53538C35.5364 5.56022 35.6144 5.61921 35.6631 5.70008C35.7117 5.78096 35.7273 5.87747 35.7066 5.96955C35.6859 6.06163 35.6305 6.14218 35.5519 6.19444L31.4452 8.76991L36.9958 5.56598C37.0788 5.52102 37.1759 5.5098 37.267 5.53464C37.358 5.55948 37.436 5.61848 37.4847 5.69935C37.5333 5.78022 37.5489 5.87674 37.5282 5.96882C37.5075 6.0609 37.4521 6.14145 37.3735 6.19371L32.7645 9.07278L38.8387 5.56598C38.9216 5.52037 39.019 5.5086 39.1104 5.53312C39.2018 5.55764 39.2802 5.61655 39.3291 5.69754C39.3781 5.77852 39.3939 5.87531 39.3731 5.96764C39.3524 6.05998 39.2967 6.14072 39.2178 6.19298L30.7266 11.5602L41.1106 5.56524C41.1935 5.52152 41.29 5.5112 41.3803 5.53641C41.4705 5.56162 41.5477 5.62045 41.596 5.70081C41.6442 5.78116 41.6599 5.87695 41.6397 5.96848C41.6195 6.06001 41.5651 6.14035 41.4875 6.19298L33.6863 11.063L42.6572 5.88351C42.6985 5.85876 42.7443 5.84239 42.7919 5.83533C42.8395 5.82828 42.8881 5.83067 42.9348 5.84239C42.9815 5.8541 43.0255 5.8749 43.0642 5.9036C43.1028 5.93229 43.1355 5.96833 43.1602 6.00964C43.185 6.05096 43.2014 6.09674 43.2084 6.14438C43.2155 6.19202 43.2131 6.24058 43.2014 6.2873C43.1896 6.33401 43.1688 6.37796 43.1402 6.41664C43.1115 6.45531 43.0754 6.48796 43.0341 6.51271L35.0767 11.4605L43.0612 6.85078C43.1443 6.80642 43.2412 6.79571 43.3319 6.82086C43.4227 6.84601 43.5002 6.9051 43.5486 6.98588C43.5969 7.06666 43.6124 7.16294 43.5917 7.25479C43.571 7.34664 43.5158 7.427 43.4374 7.47924L35.282 12.5539L43.0612 8.06664C43.1443 8.0192 43.2425 8.00606 43.3351 8.03004C43.4277 8.05402 43.5072 8.11321 43.5568 8.195C43.6063 8.27678 43.622 8.37469 43.6004 8.46784C43.5787 8.561 43.5216 8.64202 43.4411 8.69364L31.325 16.3966L43.0583 9.62131C43.1414 9.57552 43.2391 9.56375 43.3307 9.58848C43.4223 9.61321 43.5008 9.6725 43.5496 9.75389C43.5985 9.83528 43.6138 9.93243 43.5925 10.0249C43.5711 10.1174 43.5148 10.198 43.4352 10.2498L34.9506 15.5562L43.0612 10.8753C43.1445 10.8308 43.2417 10.8201 43.3326 10.8455C43.4235 10.8709 43.5012 10.9303 43.5494 11.0115C43.5975 11.0927 43.6126 11.1893 43.5913 11.2813C43.5701 11.3732 43.5142 11.4535 43.4352 11.5052L42.3118 12.1924L43.0612 11.7604C43.1445 11.716 43.2417 11.7053 43.3326 11.7306C43.4235 11.756 43.5012 11.8155 43.5494 11.8966C43.5975 11.9778 43.6126 12.0744 43.5913 12.1664C43.5701 12.2584 43.5142 12.3386 43.4352 12.3904L43.125 12.5803C43.2111 12.5478 43.3063 12.5488 43.3916 12.5832C43.4769 12.6176 43.5462 12.6828 43.5858 12.7658C43.6253 12.8489 43.6321 12.9438 43.6049 13.0317C43.5777 13.1196 43.5184 13.1941 43.4389 13.2403L35.6839 18.0928L43.0612 13.8336C43.1443 13.7861 43.2425 13.773 43.3351 13.797C43.4277 13.8209 43.5072 13.8801 43.5568 13.9619C43.6063 14.0437 43.622 14.1416 43.6004 14.2348C43.5787 14.3279 43.5216 14.409 43.4411 14.4606L33.0058 21.1053L43.0612 15.3002C43.1445 15.2533 43.2429 15.2408 43.3353 15.2653C43.4277 15.2898 43.5069 15.3495 43.5559 15.4315C43.605 15.5136 43.62 15.6116 43.5979 15.7046C43.5758 15.7976 43.5182 15.8783 43.4374 15.9294L38.9546 18.7088L43.0612 16.3379C43.1445 16.291 43.2429 16.2784 43.3353 16.303C43.4277 16.3275 43.5069 16.3872 43.5559 16.4692C43.605 16.5513 43.62 16.6492 43.5979 16.7423C43.5758 16.8353 43.5182 16.9159 43.4374 16.9671L39.4041 19.4685L43.0634 17.3558C43.1462 17.3086 43.2442 17.2956 43.3364 17.3194C43.4287 17.3432 43.5081 17.402 43.5577 17.4833C43.6074 17.5646 43.6235 17.6621 43.6025 17.7551C43.5816 17.848 43.5253 17.9292 43.4455 17.9813L32.4294 25.0873L43.0627 18.9493C43.1452 18.9039 43.2421 18.8919 43.3332 18.916C43.4243 18.94 43.5026 18.9982 43.552 19.0785C43.6013 19.1588 43.6178 19.255 43.5982 19.3471C43.5785 19.4392 43.5241 19.5203 43.4462 19.5734L33.6496 25.9666L43.0612 20.5333C43.1442 20.4877 43.2415 20.4759 43.3329 20.5005C43.4243 20.525 43.5027 20.5839 43.5517 20.6649C43.6007 20.7459 43.6164 20.8426 43.5957 20.935C43.5749 21.0273 43.5193 21.1081 43.4404 21.1603L39.6468 23.559L43.0612 21.5878C43.1436 21.541 43.241 21.5278 43.3329 21.5512C43.4248 21.5746 43.5041 21.6326 43.5541 21.7132C43.6041 21.7937 43.6209 21.8905 43.6011 21.9832C43.5813 22.076 43.5263 22.1574 43.4477 22.2104L36.2046 27.0504L43.0612 23.0904C43.1435 23.0443 43.2404 23.0317 43.3318 23.0552C43.4231 23.0786 43.5019 23.1364 43.5518 23.2165C43.6017 23.2966 43.6187 23.3928 43.5995 23.4851C43.5802 23.5775 43.5261 23.6588 43.4484 23.7123L38.2975 27.159L43.0642 24.409C43.1468 24.362 43.2444 24.349 43.3364 24.3726C43.4285 24.3962 43.5078 24.4546 43.5576 24.5355C43.6074 24.6164 43.6239 24.7135 43.6035 24.8063C43.5832 24.8991 43.5276 24.9804 43.4484 25.033L41.7119 26.1712L43.0612 25.3924C43.1433 25.3462 43.24 25.3334 43.3313 25.3566C43.4226 25.3798 43.5015 25.4373 43.5515 25.517C43.6016 25.5968 43.6191 25.6928 43.6003 25.7851C43.5815 25.8774 43.5279 25.9589 43.4506 26.0128L40.9199 27.7346L43.0583 26.5004C43.1389 26.4542 43.234 26.4403 43.3244 26.4614C43.4148 26.4826 43.4939 26.5373 43.5455 26.6145C43.5972 26.6916 43.6177 26.7856 43.6028 26.8772C43.5879 26.9689 43.5387 27.0515 43.4653 27.1084L39.8272 29.9112L43.0583 28.0463C43.1396 28.0001 43.2354 27.9867 43.3263 28.0088C43.4171 28.0309 43.4961 28.0868 43.547 28.1652C43.598 28.2436 43.6171 28.3385 43.6004 28.4305C43.5837 28.5225 43.5325 28.6046 43.4572 28.6601L42.7173 29.1991L43.0583 29.0026C43.1364 28.9585 43.2279 28.9445 43.3156 28.9633C43.4032 28.9822 43.481 29.0324 43.5341 29.1047C43.5872 29.1769 43.612 29.2661 43.6038 29.3554C43.5955 29.4447 43.5549 29.5279 43.4895 29.5892L41.9612 30.9972L43.0612 30.3614C43.136 30.3181 43.2237 30.3026 43.3088 30.3176C43.3939 30.3327 43.4709 30.3773 43.5263 30.4436C43.5818 30.5098 43.612 30.5936 43.6117 30.68C43.6114 30.7664 43.5806 30.8499 43.5247 30.9158L42.8376 31.7284C42.8978 31.7318 42.9563 31.7504 43.0075 31.7823C43.0588 31.8142 43.1012 31.8584 43.1309 31.911C43.1794 31.995 43.1925 32.0949 43.1675 32.1886C43.1425 32.2824 43.0813 32.3624 42.9974 32.4111L41.4985 33.2786C41.4237 33.322 41.3361 33.3375 41.251 33.3225C41.1659 33.3074 41.0888 33.2628 41.0334 33.1965C40.978 33.1302 40.9477 33.0465 40.948 32.9601C40.9483 32.8737 40.9792 32.7902 41.035 32.7242L41.607 32.0474L39.4437 33.294C39.3656 33.3381 39.2741 33.3521 39.1864 33.3333C39.0988 33.3145 39.021 33.2642 38.9679 33.1919C38.9148 33.1197 38.89 33.0305 38.8983 32.9412C38.9065 32.8519 38.9471 32.7687 39.0125 32.7074L40.5437 31.3008L37.0875 33.2955C37.0062 33.3417 36.9104 33.3552 36.8195 33.3331C36.7287 33.311 36.6497 33.255 36.5988 33.1766C36.5478 33.0982 36.5287 33.0033 36.5454 32.9113C36.5621 32.8194 36.6133 32.7372 36.6886 32.6817L37.4322 32.1405L35.4287 33.297C35.3481 33.3443 35.2525 33.359 35.1615 33.3382C35.0704 33.3173 34.9907 33.2626 34.9386 33.185C34.8866 33.1074 34.8661 33.0128 34.8814 32.9207C34.8967 32.8285 34.9466 32.7457 35.021 32.689L38.659 29.8862L32.7476 33.3006C32.6655 33.3468 32.5688 33.3596 32.4775 33.3364C32.3863 33.3132 32.3074 33.2558 32.2573 33.176C32.2073 33.0962 32.1898 33.0002 32.2086 32.9079C32.2274 32.8156 32.281 32.7341 32.3582 32.6802L34.8838 30.9606L30.827 33.3021C30.7446 33.347 30.6482 33.3585 30.5575 33.3344C30.4668 33.3103 30.3889 33.2523 30.3396 33.1725C30.2904 33.0926 30.2737 32.9969 30.2929 32.9051C30.312 32.8132 30.3657 32.7323 30.4428 32.6788L32.183 31.5384L29.1257 33.3028C29.0433 33.3506 28.9457 33.3644 28.8533 33.3414C28.7609 33.3184 28.6811 33.2604 28.6307 33.1797C28.5804 33.0989 28.5634 33.0017 28.5833 32.9087C28.6033 32.8156 28.6587 32.734 28.7378 32.681L33.8902 29.2343L26.8333 33.308C26.7508 33.357 26.6524 33.3717 26.5592 33.349C26.4659 33.3262 26.3853 33.2679 26.3347 33.1864C26.284 33.1049 26.2673 33.0068 26.2881 32.9131C26.3089 32.8195 26.3657 32.7377 26.4461 32.6854L33.687 27.8505L24.227 33.3102C24.144 33.3576 24.0457 33.3708 23.9532 33.3468C23.8606 33.3228 23.781 33.2636 23.7315 33.1818C23.6819 33.1 23.6663 33.0021 23.6879 32.909C23.7095 32.8158 23.7667 32.7348 23.8472 32.6832L27.6466 30.2808L22.4047 33.3072C22.3486 33.3399 22.2848 33.3569 22.2199 33.3564V33.3564Z" fill="#E1EFFF"></path>
<path d="M11.8878 6.96656C11.8117 6.96677 11.7374 6.94328 11.6753 6.89935C11.6131 6.85543 11.5661 6.79324 11.5409 6.72142C11.5157 6.6496 11.5134 6.57171 11.5345 6.49856C11.5555 6.4254 11.5988 6.36061 11.6583 6.31316L15.1915 3.48323L11.2051 5.78369C11.125 5.82937 11.0307 5.84319 10.9408 5.82241C10.851 5.80162 10.7723 5.74775 10.7204 5.67153C10.6685 5.59531 10.6472 5.50234 10.6608 5.41114C10.6744 5.31994 10.7219 5.23721 10.7937 5.17943L12.8588 3.53529L11.2051 4.48863C11.127 4.53334 11.0352 4.54778 10.9472 4.52919C10.8591 4.5106 10.781 4.46029 10.7276 4.38783C10.6743 4.31536 10.6495 4.22581 10.6579 4.13622C10.6662 4.04663 10.7073 3.96325 10.7732 3.90196L12.0565 2.71689L11.208 3.20676C11.1323 3.25033 11.0436 3.26544 10.9577 3.24937C10.8718 3.2333 10.7945 3.18711 10.7397 3.1191C10.6849 3.0511 10.6561 2.96576 10.6586 2.87844C10.6611 2.79113 10.6947 2.70757 10.7534 2.64283L11.3474 1.99016C11.2563 1.96402 11.1792 1.9032 11.1325 1.82076C11.0841 1.7367 11.0709 1.63686 11.0959 1.54312C11.1209 1.44938 11.1821 1.36937 11.266 1.32063L12.7678 0.45456C12.8436 0.410989 12.9323 0.395878 13.0182 0.411948C13.1041 0.428019 13.1814 0.474214 13.2362 0.542217C13.291 0.61022 13.3198 0.695563 13.3173 0.782879C13.3147 0.870195 13.2812 0.953748 13.2225 1.01849L12.8778 1.39763L14.5403 0.439893C14.6184 0.395179 14.7102 0.380742 14.7983 0.39933C14.8863 0.417917 14.9644 0.468232 15.0178 0.540695C15.0711 0.613159 15.096 0.70271 15.0876 0.792303C15.0792 0.881895 15.0381 0.965272 14.9722 1.02656L13.6896 2.20943L16.7579 0.439893C16.838 0.394216 16.9324 0.380394 17.0222 0.401181C17.112 0.421969 17.1907 0.475839 17.2426 0.552058C17.2945 0.628277 17.3158 0.721249 17.3022 0.812449C17.2886 0.903649 17.2412 0.986381 17.1693 1.04416L15.1064 2.68609L18.9975 0.439893C19.0775 0.393604 19.1721 0.379257 19.2623 0.399724C19.3524 0.420191 19.4315 0.473961 19.4837 0.550268C19.5359 0.626575 19.5574 0.719785 19.5438 0.811232C19.5302 0.902679 19.4825 0.985613 19.4104 1.04343L15.8764 3.87263L21.8267 0.439893C21.9077 0.39385 22.0032 0.380362 22.0938 0.402168C22.1843 0.423974 22.2632 0.47944 22.3144 0.557298C22.3655 0.635157 22.3851 0.729569 22.3692 0.821359C22.3533 0.913148 22.303 0.995431 22.2286 1.05149L19.5064 3.06376L24.0575 0.439893C24.1396 0.393725 24.2363 0.380919 24.3276 0.404129C24.4189 0.42734 24.4977 0.484787 24.5478 0.564562C24.5979 0.644336 24.6153 0.74032 24.5965 0.832614C24.5778 0.924909 24.5242 1.00644 24.4469 1.06029L24.1536 1.25829L25.5733 0.439893C25.6549 0.394042 25.751 0.381144 25.8418 0.403843C25.9326 0.426542 26.0113 0.483119 26.0618 0.561977C26.1122 0.640835 26.1306 0.736002 26.1131 0.827972C26.0957 0.919942 26.0437 1.00175 25.9678 1.05663L24.3398 2.19989L27.3942 0.439893C27.4742 0.393604 27.5688 0.379257 27.6589 0.399724C27.7491 0.420191 27.8282 0.473961 27.8804 0.550268C27.9326 0.626575 27.954 0.719785 27.9404 0.811232C27.9268 0.902679 27.8792 0.985613 27.807 1.04343L24.2944 3.84989L30.2043 0.439893C30.2862 0.392922 30.383 0.379316 30.4746 0.401905C30.5662 0.424495 30.6456 0.481542 30.6962 0.561176C30.7469 0.64081 30.7648 0.736901 30.7464 0.829455C30.728 0.92201 30.6746 1.0039 30.5974 1.05809L29.4563 1.84789L31.8998 0.439893C31.9797 0.393868 32.0741 0.379662 32.164 0.400108C32.254 0.420554 32.3329 0.474149 32.3851 0.550208C32.4373 0.626266 32.4589 0.719199 32.4456 0.810477C32.4323 0.901755 32.3851 0.984671 32.3134 1.04269L28.7655 3.89389L34.751 0.439893C34.8325 0.395093 34.9281 0.382983 35.0183 0.406019C35.1084 0.429054 35.1864 0.485511 35.2365 0.563945C35.2866 0.642379 35.305 0.736922 35.288 0.828408C35.2709 0.919895 35.2197 1.00148 35.1448 1.05663L33.6048 2.13609L36.5469 0.439893C36.6271 0.393948 36.7217 0.379981 36.8117 0.400789C36.9018 0.421597 36.9807 0.475644 37.0326 0.552114C37.0845 0.628583 37.1056 0.721835 37.0917 0.813205C37.0778 0.904576 37.0299 0.987325 36.9576 1.04489L33.527 3.75823L39.2756 0.439893C39.3571 0.394499 39.4529 0.381879 39.5434 0.404604C39.6338 0.427329 39.7123 0.48369 39.7626 0.562208C39.813 0.640727 39.8316 0.735497 39.8145 0.82722C39.7975 0.918942 39.7461 1.00072 39.6709 1.05589L37.9065 2.30256L41.1119 0.453093C41.1936 0.406003 41.2902 0.392175 41.3818 0.414482C41.4734 0.436789 41.5529 0.493516 41.6038 0.572885C41.6546 0.652253 41.673 0.748164 41.655 0.840702C41.637 0.93324 41.5841 1.01529 41.5072 1.06983L39.7472 2.31649L42.2141 0.89236C42.2949 0.846055 42.3903 0.832244 42.481 0.853731C42.5716 0.875218 42.6507 0.930393 42.7021 1.00805C42.7535 1.08571 42.7735 1.18003 42.7579 1.27186C42.7423 1.36369 42.6923 1.44615 42.6182 1.50249L40.2539 3.28669L42.8895 1.76503C42.9686 1.71947 43.0618 1.70505 43.151 1.72457C43.2401 1.7441 43.3188 1.79617 43.3716 1.87061C43.4244 1.94505 43.4475 2.0365 43.4365 2.12709C43.4255 2.21769 43.381 2.30091 43.3119 2.36049L41.054 4.29943L43.0648 3.13929C43.1434 3.09378 43.2362 3.0791 43.3251 3.09812C43.414 3.11713 43.4926 3.16847 43.5458 3.24219C43.5989 3.31591 43.6228 3.40675 43.6128 3.49708C43.6028 3.58742 43.5596 3.67081 43.4916 3.73109L42.6798 4.44829L43.0692 4.22389C43.135 4.18595 43.211 4.16942 43.2867 4.17657C43.3624 4.18372 43.434 4.21421 43.4915 4.26382C43.5491 4.31343 43.5899 4.3797 43.6081 4.45348C43.6264 4.52725 43.6213 4.60488 43.5935 4.67563L43.1682 5.75436C43.254 5.73185 43.345 5.74121 43.4245 5.7807C43.5039 5.8202 43.5663 5.88715 43.6002 5.96916C43.634 6.05116 43.637 6.14265 43.6085 6.22667C43.58 6.31069 43.5221 6.38154 43.4454 6.42609L42.6321 6.89543C42.5662 6.93337 42.4902 6.94991 42.4146 6.94275C42.3389 6.9356 42.2673 6.90511 42.2097 6.8555C42.1522 6.8059 42.1114 6.73962 42.0931 6.66584C42.0749 6.59207 42.08 6.51444 42.1078 6.44369L42.5258 5.38403L39.9048 6.89763C39.8263 6.94233 39.734 6.95644 39.6456 6.93723C39.5573 6.91803 39.4792 6.86688 39.4262 6.79359C39.3733 6.7203 39.3493 6.63005 39.3589 6.54016C39.3685 6.45027 39.4109 6.36708 39.478 6.30656L40.2891 5.58789L38.0158 6.89836C37.9368 6.94305 37.8441 6.95686 37.7555 6.93713C37.6669 6.9174 37.5888 6.86553 37.5363 6.79155C37.4837 6.71757 37.4605 6.62674 37.471 6.53661C37.4816 6.44649 37.5252 6.36348 37.5934 6.30363L39.8491 4.36616L35.4601 6.90056C35.3793 6.9459 35.2844 6.95898 35.1943 6.93717C35.1043 6.91536 35.0259 6.86029 34.9748 6.78301C34.9237 6.70573 34.9038 6.61198 34.919 6.5206C34.9342 6.42923 34.9834 6.34699 35.0568 6.29043L37.4218 4.50549L33.2696 6.90203C33.188 6.94912 33.0913 6.96295 32.9997 6.94064C32.9081 6.91833 32.8286 6.8616 32.7778 6.78224C32.7269 6.70287 32.7086 6.60696 32.7266 6.51442C32.7445 6.42188 32.7975 6.33983 32.8744 6.28529L34.6344 5.03863L31.4077 6.90203C31.326 6.94912 31.2294 6.96295 31.1378 6.94064C31.0462 6.91833 30.9667 6.8616 30.9158 6.78224C30.865 6.70287 30.8466 6.60696 30.8646 6.51442C30.8826 6.42188 30.9355 6.33983 31.0124 6.28529L32.7761 5.03863L29.5399 6.90496C29.4597 6.95091 29.3651 6.96487 29.2751 6.94406C29.185 6.92326 29.1062 6.86921 29.0543 6.79274C29.0023 6.71627 28.9812 6.62302 28.9951 6.53165C29.009 6.44028 29.0569 6.35753 29.1292 6.29996L32.5598 3.58589L26.809 6.90643C26.7272 6.9528 26.6308 6.96602 26.5396 6.94336C26.4484 6.92071 26.3694 6.8639 26.3189 6.78468C26.2684 6.70545 26.2502 6.60985 26.2681 6.5176C26.286 6.42536 26.3387 6.34351 26.4152 6.28896L27.95 5.21023L25.0064 6.90789C24.9265 6.95309 24.8326 6.96666 24.7431 6.94593C24.6537 6.9252 24.5753 6.87167 24.5234 6.79593C24.4716 6.72019 24.45 6.62774 24.463 6.53686C24.476 6.44598 24.5226 6.36327 24.5936 6.30509L28.14 3.45243L22.1545 6.91009C22.0725 6.95779 21.9753 6.97188 21.8831 6.94939C21.791 6.9269 21.7112 6.86959 21.6604 6.78949C21.6096 6.70939 21.5919 6.61273 21.6108 6.51981C21.6298 6.42689 21.6841 6.34494 21.7622 6.29116L22.9062 5.49989L20.4598 6.91083C20.3798 6.95625 20.2856 6.96995 20.196 6.94918C20.1064 6.92842 20.0278 6.87473 19.9759 6.79875C19.924 6.72277 19.9026 6.63007 19.9159 6.53903C19.9292 6.44799 19.9762 6.36528 20.0476 6.30729L23.5596 3.49936L17.6452 6.91303C17.5635 6.9608 17.4664 6.97507 17.3743 6.95285C17.2822 6.93064 17.2023 6.87365 17.1513 6.79384C17.1003 6.71403 17.0822 6.61758 17.1007 6.5247C17.1193 6.43181 17.173 6.3497 17.2507 6.29556L18.8802 5.14863L15.8214 6.91449C15.7392 6.96325 15.6411 6.97792 15.5481 6.95537C15.4552 6.93282 15.3747 6.87484 15.3239 6.7938C15.2731 6.71276 15.2559 6.61507 15.2762 6.52158C15.2964 6.42808 15.3523 6.34619 15.432 6.29336L15.7254 6.09536L14.3042 6.91523C14.2232 6.96127 14.1277 6.97476 14.0371 6.95295C13.9466 6.93115 13.8677 6.87568 13.8165 6.79782C13.7654 6.71996 13.7458 6.62555 13.7617 6.53376C13.7776 6.44197 13.8279 6.35969 13.9023 6.30363L16.6208 4.29063L12.0741 6.91669C12.0177 6.94994 11.9533 6.96718 11.8878 6.96656V6.96656Z" fill="#3B2186"></path>
<path d="M3.00678 43.6114C2.9279 43.6116 2.85107 43.5863 2.78769 43.5393C2.72431 43.4924 2.67776 43.4262 2.65495 43.3507C2.63214 43.2752 2.63429 43.1944 2.66108 43.1202C2.68786 43.046 2.73786 42.9824 2.80364 42.9389L9.73071 38.3446L1.66404 43.0012C1.58102 43.0487 1.48274 43.0618 1.39017 43.0379C1.2976 43.0139 1.21806 42.9547 1.16851 42.8729C1.11896 42.7911 1.10332 42.6932 1.12493 42.6C1.14654 42.5069 1.20368 42.4259 1.28418 42.3742L4.58858 40.2798L1.13238 42.2745C1.04984 42.32 0.952979 42.3319 0.86188 42.3078C0.770781 42.2838 0.692438 42.2256 0.643104 42.1453C0.59377 42.065 0.577232 41.9689 0.59692 41.8767C0.616607 41.7846 0.67101 41.7035 0.748842 41.6504L8.46278 36.6088L0.938776 40.9523C0.855751 40.9998 0.757475 41.0129 0.664904 40.9889C0.572333 40.9649 0.492792 40.9057 0.443242 40.824C0.393691 40.7422 0.378052 40.6443 0.39966 40.5511C0.421268 40.458 0.478413 40.3769 0.558909 40.3253L5.08651 37.447L0.938776 39.8413C0.856224 39.8892 0.758266 39.903 0.665706 39.8798C0.573146 39.8566 0.493277 39.7982 0.443064 39.7171C0.39285 39.6359 0.376248 39.5384 0.396783 39.4452C0.417319 39.352 0.473374 39.2705 0.553042 39.218L9.63245 33.2046L0.938776 38.2228C0.855929 38.2671 0.759249 38.2779 0.668678 38.253C0.578108 38.2281 0.500555 38.1693 0.452018 38.0889C0.403481 38.0085 0.387662 37.9125 0.407824 37.8208C0.427986 37.729 0.482591 37.6485 0.560376 37.5958L3.15931 35.9612L0.938776 37.2424C0.856048 37.2879 0.758958 37.2997 0.667724 37.2754C0.57649 37.2511 0.498144 37.1926 0.449 37.112C0.399856 37.0313 0.383702 36.9349 0.403903 36.8426C0.424103 36.7504 0.4791 36.6695 0.557442 36.6168L6.63018 32.7133L0.938776 35.9994C0.855799 36.048 0.757038 36.0621 0.663778 36.0386C0.570519 36.0151 0.490227 35.9559 0.440209 35.8737C0.39019 35.7916 0.374449 35.6931 0.396378 35.5994C0.418308 35.5058 0.476151 35.4245 0.557442 35.3731L6.50258 31.5598L0.938776 34.7681C0.855929 34.8124 0.759249 34.8232 0.668678 34.7983C0.578108 34.7733 0.500555 34.7146 0.452018 34.6342C0.403481 34.5538 0.387662 34.4578 0.407824 34.366C0.427986 34.2743 0.482591 34.1938 0.560376 34.1411L3.51131 32.2821L0.938776 33.7664C0.856166 33.8133 0.758551 33.8264 0.666502 33.8028C0.574453 33.7792 0.495161 33.7208 0.445337 33.6399C0.395513 33.559 0.379049 33.4619 0.399414 33.369C0.41978 33.2762 0.475384 33.1949 0.554509 33.1423L9.02011 27.5734L0.938776 32.2418C0.855963 32.2889 0.758052 32.302 0.665784 32.2782C0.573517 32.2544 0.494141 32.1956 0.444471 32.1142C0.394802 32.0329 0.378742 31.9355 0.399692 31.8425C0.420642 31.7495 0.476958 31.6684 0.556709 31.6162L7.61651 27.041L0.938776 30.8961C0.855963 30.9432 0.758052 30.9563 0.665784 30.9325C0.573517 30.9087 0.494141 30.8499 0.444471 30.7686C0.394802 30.6873 0.378742 30.5898 0.399692 30.4968C0.420642 30.4039 0.476958 30.3227 0.556709 30.2706L7.47425 25.7972L0.938776 29.5658C0.856303 29.612 0.759204 29.6245 0.667733 29.6008C0.576262 29.577 0.497482 29.5189 0.447824 29.4385C0.398167 29.3581 0.381466 29.2616 0.401207 29.1692C0.420947 29.0768 0.475603 28.9956 0.553776 28.9425L9.16238 23.2731L0.938776 28.0207C0.856224 28.0686 0.758266 28.0824 0.665706 28.0592C0.573146 28.036 0.493277 27.9776 0.443064 27.8964C0.39285 27.8153 0.376248 27.7178 0.396783 27.6246C0.417319 27.5314 0.473374 27.4499 0.553042 27.3974L9.60678 21.4031L0.938776 26.4066C0.856363 26.4535 0.758996 26.4666 0.667109 26.4433C0.575222 26.4199 0.49596 26.3619 0.445957 26.2813C0.395955 26.2007 0.379099 26.104 0.398929 26.0112C0.418758 25.9185 0.473731 25.8371 0.552309 25.784L10.0468 19.4568L0.938776 24.717C0.856252 24.7608 0.760158 24.7713 0.6701 24.7466C0.580043 24.7219 0.502809 24.6638 0.454157 24.584C0.405506 24.5043 0.389104 24.4091 0.408297 24.3177C0.427491 24.2263 0.480834 24.1456 0.557442 24.0922L6.68884 20.1425L0.938776 23.4616C0.856372 23.5064 0.759915 23.518 0.669255 23.4938C0.578594 23.4697 0.500627 23.4118 0.451397 23.3319C0.402166 23.2521 0.385418 23.1564 0.404599 23.0645C0.423779 22.9727 0.477429 22.8917 0.554509 22.8382L7.87391 18.0312L0.938776 22.0345C0.856555 22.0814 0.759401 22.0946 0.667634 22.0715C0.575867 22.0484 0.496594 21.9907 0.446394 21.9104C0.396195 21.8302 0.378958 21.7337 0.398287 21.641C0.417617 21.5484 0.472017 21.4668 0.550109 21.4134L7.81011 16.5066L0.938776 20.4718C0.856743 20.5187 0.759775 20.5321 0.668093 20.5092C0.576411 20.4864 0.497095 20.429 0.446684 20.3491C0.396274 20.2691 0.378662 20.1728 0.397521 20.0803C0.41638 19.9877 0.470255 19.9059 0.547909 19.8521L6.08678 16.0549L0.938776 19.0242C0.85725 19.0667 0.762717 19.0771 0.673918 19.0532C0.585119 19.0293 0.508537 18.9729 0.459353 18.8952C0.41017 18.8175 0.391976 18.7242 0.408378 18.6337C0.42478 18.5432 0.474582 18.4622 0.547909 18.4067L3.97111 16.06L0.938776 17.8068C0.857335 17.8529 0.761383 17.866 0.67056 17.8436C0.579736 17.8212 0.500909 17.7649 0.450215 17.6863C0.39952 17.6077 0.380791 17.5127 0.397862 17.4207C0.414933 17.3287 0.466512 17.2468 0.542042 17.1916L3.48931 15.0803L0.938776 16.5528C0.858093 16.5979 0.763386 16.6108 0.673597 16.589C0.583808 16.5672 0.505558 16.5123 0.454498 16.4353C0.403439 16.3583 0.383334 16.2648 0.398206 16.1736C0.413077 16.0824 0.461829 16.0002 0.534709 15.9434L2.72004 14.2898L0.938776 15.3164C0.860723 15.3599 0.76947 15.3734 0.682163 15.3544C0.594856 15.3354 0.517504 15.2851 0.464642 15.2131C0.411779 15.141 0.387045 15.0522 0.395086 14.9632C0.403127 14.8742 0.443389 14.7912 0.508309 14.7298L2.37391 13.0248L0.938776 13.8534C0.865204 13.8957 0.779238 13.9112 0.695536 13.8972C0.611834 13.8832 0.53558 13.8406 0.479777 13.7767C0.423973 13.7127 0.392075 13.6314 0.389521 13.5466C0.386968 13.4618 0.413918 13.3787 0.465775 13.3115L1.27758 12.2599C1.19187 12.2825 1.10088 12.2733 1.02144 12.2339C0.942011 12.1946 0.879514 12.1278 0.845519 12.046C0.811523 11.9641 0.80833 11.8727 0.836531 11.7887C0.864731 11.7046 0.922415 11.6337 0.998909 11.5889L2.50151 10.7214C2.57501 10.679 2.66093 10.6635 2.74462 10.6774C2.82831 10.6912 2.90459 10.7337 2.96046 10.7976C3.01634 10.8614 3.04835 10.9426 3.05105 11.0274C3.05374 11.1122 3.02695 11.1953 2.97524 11.2626L2.18251 12.2892L4.92664 10.7067C5.0047 10.6632 5.09595 10.6497 5.18326 10.6687C5.27056 10.6878 5.34791 10.738 5.40078 10.8101C5.45364 10.8821 5.47837 10.971 5.47033 11.06C5.46229 11.149 5.42203 11.232 5.35711 11.2934L3.49224 12.9976L7.46251 10.7067C7.54323 10.6608 7.63838 10.6472 7.72873 10.6686C7.81909 10.6901 7.89793 10.7451 7.94932 10.8225C8.00071 10.8998 8.02083 10.9938 8.0056 11.0855C7.99038 11.1771 7.94096 11.2595 7.86731 11.3161L5.67978 12.9698L9.60678 10.7067C9.68822 10.6607 9.78417 10.6475 9.87499 10.6699C9.96582 10.6923 10.0446 10.7486 10.0953 10.8272C10.146 10.9058 10.1648 11.0009 10.1477 11.0928C10.1306 11.1848 10.079 11.2668 10.0035 11.322L7.05258 13.431L11.7752 10.7052C11.8571 10.6601 11.9531 10.648 12.0436 10.6713C12.1341 10.6946 12.2123 10.7516 12.2622 10.8306C12.3121 10.9096 12.3299 11.0047 12.3121 11.0964C12.2942 11.1882 12.242 11.2696 12.1661 11.3242L8.74731 13.6708L13.8806 10.706C13.9625 10.6609 14.0585 10.6488 14.149 10.6721C14.2395 10.6954 14.3177 10.7523 14.3676 10.8314C14.4175 10.9104 14.4353 11.0055 14.4175 11.0972C14.3996 11.1889 14.3474 11.2704 14.2715 11.3249L8.73338 15.125L16.3908 10.7067C16.4729 10.6617 16.569 10.6498 16.6595 10.6734C16.7501 10.697 16.8282 10.7543 16.8778 10.8336C16.9275 10.9128 16.945 11.0081 16.9267 11.0999C16.9084 11.1916 16.8558 11.2729 16.7795 11.3271L9.51951 16.2338L18.5476 11.022C18.6302 10.9751 18.7278 10.962 18.8199 10.9856C18.9119 11.0092 18.9912 11.0676 19.041 11.1485C19.0908 11.2295 19.1073 11.3266 19.0869 11.4194C19.0666 11.5122 19.011 11.5935 18.9318 11.6461L11.619 16.4494L19.388 11.9629C19.4708 11.9158 19.5687 11.9027 19.661 11.9265C19.7532 11.9503 19.8326 12.0091 19.8823 12.0904C19.932 12.1718 19.948 12.2692 19.9271 12.3622C19.9061 12.4551 19.8498 12.5363 19.77 12.5884L13.6401 16.5396L19.5984 13.0996C19.6809 13.0527 19.7782 13.0396 19.8701 13.0629C19.962 13.0863 20.0413 13.1444 20.0913 13.2249C20.1413 13.3055 20.1581 13.4023 20.1383 13.495C20.1185 13.5877 20.0635 13.6691 19.9849 13.7222L10.4868 20.0494L19.5948 14.7892C19.6773 14.7413 19.7753 14.7275 19.8679 14.7507C19.9604 14.7739 20.0403 14.8323 20.0905 14.9134C20.1407 14.9946 20.1573 15.0921 20.1368 15.1853C20.1162 15.2785 20.0602 15.36 19.9805 15.4125L10.9268 21.4068L19.5948 16.4032C19.6775 16.3537 19.7764 16.3387 19.87 16.3616C19.9637 16.3844 20.0446 16.4432 20.0952 16.5253C20.1458 16.6073 20.1621 16.706 20.1405 16.8C20.1189 16.8939 20.0612 16.9756 19.9798 17.0273L11.3712 22.696L19.5948 17.9491C19.6774 17.9043 19.774 17.8929 19.8648 17.9172C19.9555 17.9416 20.0335 17.9999 20.0825 18.0801C20.1315 18.1602 20.1479 18.2562 20.1282 18.3481C20.1086 18.44 20.0544 18.5208 19.9768 18.5739L13.0593 23.0516L19.5948 19.2786C19.6776 19.2315 19.7755 19.2184 19.8678 19.2423C19.96 19.2661 20.0394 19.3248 20.0891 19.4062C20.1388 19.4875 20.1548 19.585 20.1339 19.6779C20.1129 19.7709 20.0566 19.852 19.9768 19.9042L12.917 24.4794L19.5948 20.6243C19.6774 20.5773 19.775 20.5643 19.8671 20.5879C19.9591 20.6115 20.0384 20.6699 20.0882 20.7508C20.138 20.8317 20.1545 20.9288 20.1341 21.0216C20.1138 21.1145 20.0582 21.1957 19.979 21.2484L11.5134 26.8144L19.5948 22.1467C19.6779 22.1002 19.7758 22.0878 19.8678 22.1121C19.9599 22.1365 20.0389 22.1957 20.088 22.2773C20.1372 22.3588 20.1527 22.4563 20.1313 22.5491C20.1098 22.6419 20.0531 22.7227 19.9732 22.7744L17.023 24.6334L19.5948 23.1484C19.6778 23.0998 19.7765 23.0857 19.8698 23.1092C19.963 23.1327 20.0433 23.1919 20.0933 23.2741C20.1434 23.3562 20.1591 23.4547 20.1372 23.5484C20.1153 23.642 20.0574 23.7233 19.9761 23.7747L14.031 27.588L19.5948 24.376C19.6778 24.3274 19.7765 24.3133 19.8698 24.3368C19.963 24.3603 20.0433 24.4195 20.0933 24.5017C20.1434 24.5838 20.1591 24.6823 20.1372 24.776C20.1153 24.8696 20.0574 24.9509 19.9761 25.0023L13.9026 28.9051L19.5948 25.619C19.6779 25.5725 19.7758 25.5601 19.8678 25.5845C19.9599 25.6088 20.0389 25.6681 20.088 25.7496C20.1372 25.8312 20.1527 25.9287 20.1313 26.0215C20.1098 26.1142 20.0531 26.195 19.9732 26.2468L17.3742 27.8806L19.5948 26.6054C19.6773 26.5575 19.7753 26.5437 19.8679 26.5669C19.9604 26.5901 20.0403 26.6485 20.0905 26.7296C20.1407 26.8108 20.1573 26.9083 20.1368 27.0015C20.1162 27.0947 20.0602 27.1762 19.9805 27.2287L10.9011 33.242L19.5948 28.2238C19.6778 28.1764 19.7761 28.1633 19.8687 28.1872C19.9612 28.2112 20.0408 28.2704 20.0903 28.3522C20.1399 28.434 20.1555 28.5319 20.1339 28.625C20.1123 28.7182 20.0551 28.7992 19.9746 28.8508L15.447 31.7292L19.5948 29.3334C19.6775 29.2852 19.7758 29.2714 19.8687 29.2948C19.9615 29.3182 20.0415 29.3769 20.0916 29.4585C20.1417 29.5401 20.1579 29.638 20.1367 29.7314C20.1155 29.8248 20.0587 29.9062 19.9783 29.9582L12.2614 35.002L19.5948 30.7685C19.6777 30.7229 19.7751 30.7111 19.8665 30.7357C19.9579 30.7602 20.0363 30.8191 20.0852 30.9001C20.1342 30.9811 20.15 31.0778 20.1292 31.1702C20.1085 31.2625 20.0528 31.3433 19.9739 31.3955L16.6739 33.487L19.5948 31.8003C19.6773 31.7524 19.7753 31.7386 19.8679 31.7618C19.9604 31.7851 20.0403 31.8434 20.0905 31.9246C20.1407 32.0057 20.1573 32.1032 20.1368 32.1964C20.1162 32.2896 20.0602 32.3711 19.9805 32.4236L13.0534 37.0209L19.5984 33.2428C19.6803 33.1958 19.7771 33.1822 19.8687 33.2048C19.9604 33.2274 20.0397 33.2844 20.0904 33.3641C20.141 33.4437 20.159 33.5398 20.1406 33.6323C20.1222 33.7249 20.0688 33.8068 19.9915 33.861L13.1312 38.6467L19.5948 34.9155C19.6764 34.8697 19.7725 34.8568 19.8633 34.8795C19.9541 34.9022 20.0328 34.9587 20.0832 35.0376C20.1337 35.1165 20.1521 35.2116 20.1346 35.3036C20.1171 35.3956 20.0652 35.4774 19.9893 35.5322L15.2336 38.8858L19.5948 36.366C19.6764 36.3182 19.7733 36.3037 19.8654 36.3256C19.9574 36.3475 20.0374 36.4042 20.0886 36.4837C20.1399 36.5633 20.1584 36.6596 20.1403 36.7524C20.1222 36.8453 20.0689 36.9276 19.9915 36.982L16.9753 39.1351L19.5948 37.6237C19.6755 37.5787 19.7702 37.5658 19.86 37.5876C19.9498 37.6094 20.028 37.6643 20.0791 37.7413C20.1301 37.8183 20.1502 37.9117 20.1354 38.0029C20.1205 38.0941 20.0717 38.1763 19.9988 38.2331L17.658 40.01L19.5948 38.8916C19.6729 38.8469 19.7647 38.8325 19.8527 38.8511C19.9408 38.8697 20.0189 38.92 20.0723 38.9924C20.1256 39.0649 20.1504 39.1545 20.142 39.2441C20.1337 39.3336 20.0926 39.417 20.0267 39.4783L18.0812 41.2676L19.5948 40.3942C19.6704 40.3507 19.7591 40.3355 19.8449 40.3515C19.9308 40.3675 20.0081 40.4135 20.0629 40.4814C20.1178 40.5493 20.1467 40.6345 20.1444 40.7218C20.142 40.809 20.1086 40.8926 20.0502 40.9574L19.3242 41.7597L19.3506 41.745C19.4344 41.7012 19.5319 41.6914 19.6227 41.7178C19.7135 41.7441 19.7907 41.8046 19.838 41.8864C19.8853 41.9683 19.8992 42.0653 19.8767 42.1572C19.8542 42.249 19.7971 42.3286 19.7172 42.3794L17.6734 43.56C17.5979 43.6031 17.5095 43.618 17.424 43.6019C17.3385 43.5858 17.2615 43.5399 17.2068 43.4723C17.1521 43.4047 17.1231 43.3198 17.1252 43.2329C17.1273 43.1459 17.1602 43.0625 17.218 42.9976L17.944 42.1946L15.5754 43.56C15.4973 43.6048 15.4055 43.6192 15.3174 43.6006C15.2294 43.582 15.1513 43.5317 15.0979 43.4592C15.0446 43.3868 15.0197 43.2972 15.0281 43.2076C15.0365 43.118 15.0776 43.0347 15.1434 42.9734L17.0868 41.1848L12.9713 43.56C12.8906 43.6051 12.7959 43.618 12.7061 43.5962C12.6163 43.5744 12.5381 43.5195 12.487 43.4425C12.436 43.3655 12.4159 43.272 12.4307 43.1808C12.4456 43.0897 12.4944 43.0074 12.5672 42.9506L14.9088 41.1738L10.7742 43.56C10.6928 43.6061 10.5969 43.6192 10.506 43.5968C10.4152 43.5744 10.3364 43.5182 10.2857 43.4395C10.235 43.3609 10.2163 43.2659 10.2333 43.1739C10.2504 43.0819 10.302 43 10.3775 42.9448L13.3922 40.7917L8.59698 43.56C8.51552 43.6045 8.42026 43.6163 8.33039 43.5933C8.24052 43.5703 8.16272 43.514 8.11268 43.4359C8.06264 43.3578 8.04408 43.2636 8.06074 43.1723C8.0774 43.081 8.12803 42.9995 8.20245 42.944L12.9588 39.589L6.07944 43.56C5.99777 43.6053 5.90191 43.6176 5.81143 43.5946C5.72095 43.5716 5.64265 43.5149 5.59251 43.4362C5.54238 43.3574 5.52417 43.2625 5.54162 43.1708C5.55906 43.0791 5.61083 42.9974 5.68638 42.9426L12.5401 38.1612L3.18718 43.56C3.13251 43.5925 3.07034 43.6102 3.00678 43.6114V43.6114Z" fill="#3B2186"></path>
<path d="M10.9342 15.0114C10.8605 15.0116 10.7884 14.9896 10.7274 14.9482C10.6664 14.9068 10.6193 14.848 10.5922 14.7794C10.5651 14.7108 10.5593 14.6357 10.5756 14.5638C10.5919 14.4919 10.6294 14.4266 10.6834 14.3763L11.3324 13.7691L9.2666 14.9601C9.18847 15.0076 9.0954 15.0242 9.00566 15.0066C8.91591 14.9891 8.83597 14.9386 8.78152 14.8651C8.72706 14.7917 8.70202 14.7005 8.71131 14.6095C8.7206 14.5186 8.76355 14.4343 8.83173 14.3734L10.4018 12.8994L7.36507 14.6513C7.28706 14.6937 7.19632 14.7064 7.1097 14.6869C7.02308 14.6675 6.94645 14.6172 6.89405 14.5456C6.84165 14.4739 6.81702 14.3857 6.82475 14.2972C6.83248 14.2088 6.87203 14.1262 6.93607 14.0647L8.0544 13.0534L6.82753 13.7618C6.75205 13.8049 6.66371 13.8198 6.57826 13.8038C6.49282 13.7878 6.41583 13.742 6.36104 13.6745C6.30624 13.6071 6.2772 13.5223 6.2791 13.4354C6.281 13.3485 6.31371 13.2651 6.3714 13.2001L7.00426 12.5019L6.80553 12.6134C6.74225 12.6498 6.66955 12.6665 6.59674 12.6613C6.52392 12.6561 6.4543 12.6294 6.39681 12.5844C6.33931 12.5394 6.29654 12.4783 6.27398 12.4089C6.25143 12.3394 6.25011 12.2649 6.2702 12.1947L6.45426 11.5574C6.39581 11.5272 6.34656 11.4819 6.31167 11.4261C6.27678 11.3703 6.25754 11.3062 6.25596 11.2404C6.25439 11.1746 6.27054 11.1096 6.30272 11.0523C6.3349 10.9949 6.38192 10.9472 6.43886 10.9143L6.80553 10.7016C6.86882 10.665 6.94162 10.6481 7.01458 10.6531C7.08754 10.6582 7.15731 10.685 7.21495 10.73C7.27258 10.775 7.31543 10.8362 7.338 10.9058C7.36057 10.9753 7.36182 11.0501 7.3416 11.1203L7.225 11.5237L8.6594 10.6957C8.73504 10.6522 8.82374 10.637 8.90955 10.653C8.99537 10.669 9.07267 10.715 9.12756 10.7829C9.18244 10.8508 9.21131 10.936 9.20897 11.0233C9.20664 11.1105 9.17324 11.1941 9.1148 11.2589L8.4812 11.9585L10.6812 10.6899C10.7592 10.6475 10.8499 10.6348 10.9366 10.6543C11.0232 10.6737 11.0998 10.724 11.1522 10.7956C11.2046 10.8673 11.2292 10.9555 11.2215 11.044C11.2138 11.1324 11.1742 11.215 11.1102 11.2765L9.99187 12.2878L12.7785 10.6803C12.8567 10.6328 12.9497 10.6162 13.0395 10.6338C13.1292 10.6513 13.2092 10.7018 13.2636 10.7753C13.3181 10.8487 13.3431 10.9399 13.3338 11.0309C13.3245 11.1218 13.2816 11.2061 13.2134 11.267L11.6389 12.7454L13.7282 11.5398C13.8063 11.493 13.8991 11.477 13.9883 11.4949C14.0776 11.5127 14.1571 11.5631 14.2112 11.6363C14.2654 11.7095 14.2904 11.8002 14.2813 11.8908C14.2723 11.9814 14.2299 12.0654 14.1623 12.1265L13.5133 12.7337L13.7282 12.6097C13.8027 12.5672 13.8897 12.5521 13.9742 12.5671C14.0586 12.5821 14.1351 12.6262 14.1904 12.6918C14.2457 12.7573 14.2763 12.8402 14.2768 12.926C14.2773 13.0118 14.2477 13.095 14.1931 13.1612L13.8265 13.6012C13.9065 13.6307 13.9736 13.6876 14.0157 13.7618C14.0641 13.8459 14.0773 13.9457 14.0523 14.0394C14.0272 14.1332 13.9661 14.2132 13.8822 14.2619L12.6685 14.9623C12.5941 15.0048 12.507 15.0199 12.4226 15.0049C12.3381 14.9899 12.2616 14.9458 12.2063 14.8802C12.151 14.8147 12.1205 14.7318 12.12 14.646C12.1195 14.5602 12.1491 14.477 12.2036 14.4108L12.3231 14.2641L11.1175 14.9601C11.0621 14.9934 10.9988 15.0111 10.9342 15.0114V15.0114Z" fill="#E1EFFF"></path>
<path d="M7.2086 29.6779C7.13195 29.6772 7.05747 29.6524 6.99563 29.6071C6.93379 29.5619 6.88769 29.4983 6.86381 29.4255C6.83994 29.3527 6.83949 29.2742 6.86253 29.2011C6.88557 29.128 6.93094 29.0639 6.99226 29.0179L11.1363 25.9893L4.92573 29.5709C4.84429 29.6169 4.74834 29.6301 4.65751 29.6077C4.56669 29.5852 4.48786 29.529 4.43717 29.4504C4.38647 29.3717 4.36775 29.2767 4.38482 29.1847C4.40189 29.0928 4.45347 29.0108 4.529 28.9556L10.425 24.7316L3.90933 28.4929C3.82705 28.5372 3.73096 28.5484 3.64068 28.5242C3.55041 28.5001 3.47277 28.4424 3.42362 28.3629C3.37447 28.2834 3.35752 28.1882 3.37624 28.0966C3.39496 28.005 3.44793 27.9241 3.52433 27.8703L5.79766 26.3691L3.87193 27.4787C3.78964 27.5274 3.69155 27.5421 3.59859 27.5196C3.50564 27.497 3.42517 27.439 3.37436 27.358C3.32356 27.2769 3.30643 27.1792 3.32664 27.0858C3.34684 26.9923 3.40279 26.9104 3.48253 26.8575L5.98173 25.1613L3.87193 26.3787C3.78958 26.4264 3.69189 26.4402 3.59953 26.4173C3.50716 26.3943 3.42735 26.3363 3.37697 26.2555C3.32659 26.1747 3.30959 26.0776 3.32956 25.9845C3.34954 25.8914 3.40492 25.8098 3.484 25.7568L3.88953 25.484L3.87193 25.4943C3.7906 25.5399 3.69496 25.5528 3.60446 25.5303C3.51396 25.5079 3.4354 25.4518 3.38477 25.3736C3.33413 25.2953 3.31522 25.2006 3.33189 25.1089C3.34855 25.0172 3.39953 24.9352 3.47446 24.8797L5.0042 23.7797L3.87193 24.4324C3.79254 24.4772 3.69932 24.4908 3.61045 24.4705C3.52158 24.4503 3.44343 24.3977 3.39124 24.323C3.33904 24.2483 3.31655 24.1568 3.32814 24.0664C3.33973 23.976 3.38458 23.8931 3.45393 23.834L5.332 22.2647L3.87193 23.1058C3.79267 23.1517 3.6991 23.1663 3.60963 23.1467C3.52016 23.1271 3.44127 23.0747 3.38849 22.9998C3.3357 22.925 3.31285 22.8331 3.32441 22.7422C3.33598 22.6514 3.38114 22.5681 3.451 22.5089L3.86093 22.1613C3.78801 22.2003 3.70406 22.2135 3.6227 22.1987C3.54134 22.184 3.46735 22.1422 3.41274 22.0801C3.35814 22.018 3.32611 21.9393 3.32187 21.8567C3.31764 21.7741 3.34143 21.6926 3.3894 21.6252L3.9086 20.8919C3.84292 20.8915 3.7784 20.8745 3.72108 20.8424C3.66376 20.8104 3.61549 20.7643 3.5808 20.7085C3.53235 20.6245 3.51919 20.5246 3.54421 20.4309C3.56922 20.3372 3.63037 20.2572 3.71426 20.2084L4.9294 19.5066C5.00175 19.4651 5.08608 19.4495 5.16849 19.4624C5.25089 19.4753 5.32644 19.5159 5.38266 19.5775C5.43889 19.6391 5.47243 19.718 5.47775 19.8013C5.48307 19.8845 5.45985 19.9671 5.41193 20.0353L4.95286 20.6843L6.99666 19.5066C7.07581 19.4616 7.16887 19.4477 7.25772 19.4675C7.34658 19.4874 7.42488 19.5395 7.47739 19.6139C7.52989 19.6883 7.55286 19.7795 7.54181 19.8699C7.53076 19.9603 7.48648 20.0433 7.4176 20.1028L7.01133 20.4482L8.643 19.5066C8.72239 19.4618 8.81561 19.4482 8.90448 19.4685C8.99335 19.4887 9.0715 19.5413 9.12369 19.616C9.17588 19.6907 9.19838 19.7822 9.18679 19.8726C9.1752 19.963 9.13035 20.0459 9.061 20.105L7.1866 21.6729L10.9383 19.5066C11.0197 19.461 11.1153 19.4481 11.2058 19.4706C11.2963 19.493 11.3749 19.549 11.4255 19.6273C11.4761 19.7056 11.495 19.8003 11.4784 19.892C11.4617 19.9837 11.4107 20.0657 11.3358 20.1211L9.8068 21.2211L12.7805 19.5051C12.8626 19.4596 12.9591 19.4474 13.05 19.4709C13.1409 19.4945 13.2194 19.552 13.2691 19.6317C13.3189 19.7113 13.3362 19.807 13.3174 19.8991C13.2987 19.9911 13.2453 20.0724 13.1684 20.1263L12.7629 20.3983L14.3124 19.5066C14.3945 19.4604 14.4912 19.4476 14.5825 19.4708C14.6738 19.4941 14.7526 19.5515 14.8027 19.6313C14.8528 19.7111 14.8702 19.807 14.8514 19.8993C14.8326 19.9916 14.7791 20.0732 14.7018 20.127L12.2033 21.8239L15.9081 19.6848C15.9905 19.6394 16.0871 19.6273 16.1781 19.6511C16.2691 19.6749 16.3475 19.7327 16.397 19.8127C16.4466 19.8927 16.4635 19.9886 16.4443 20.0807C16.4251 20.1727 16.3712 20.2539 16.2939 20.3074L14.0286 21.8041L16.5315 20.3595C16.6129 20.3135 16.7089 20.3003 16.7997 20.3227C16.8905 20.3451 16.9693 20.4014 17.02 20.48C17.0707 20.5586 17.0895 20.6536 17.0724 20.7456C17.0553 20.8376 17.0037 20.9196 16.9282 20.9747L11.0315 25.1987L16.6613 21.9493C16.7424 21.9035 16.838 21.8904 16.9285 21.9125C17.019 21.9346 17.0978 21.9904 17.1486 22.0684C17.1995 22.1465 17.2188 22.241 17.2025 22.3328C17.1862 22.4245 17.1356 22.5066 17.0609 22.5624L12.9154 25.5933L16.6613 23.4314C16.7418 23.3861 16.8364 23.3728 16.9263 23.3943C17.0162 23.4158 17.0946 23.4704 17.146 23.5472C17.1973 23.624 17.2177 23.7174 17.2032 23.8086C17.1887 23.8999 17.1402 23.9823 17.0675 24.0393L14.2515 26.2019L16.6613 24.8086C16.7401 24.7628 16.8332 24.748 16.9224 24.7671C17.0115 24.7862 17.0903 24.8379 17.1435 24.912C17.1966 24.9861 17.2202 25.0774 17.2097 25.1679C17.1992 25.2585 17.1553 25.3419 17.0866 25.4019L15.1066 27.1399L16.6598 26.243C16.737 26.199 16.8276 26.1846 16.9146 26.2024C17.0017 26.2202 17.0793 26.269 17.1331 26.3397C17.1869 26.4104 17.2131 26.4983 17.207 26.5869C17.2009 26.6755 17.1628 26.7589 17.0998 26.8216L16.3613 27.5461L16.6598 27.3745C16.7436 27.3307 16.8411 27.3209 16.9319 27.3473C17.0227 27.3736 17.0999 27.4341 17.1472 27.5159C17.1945 27.5978 17.2084 27.6948 17.1859 27.7867C17.1634 27.8785 17.1063 27.9581 17.0265 28.0089L14.2266 29.6266C14.1494 29.6706 14.0588 29.685 13.9718 29.6672C13.8847 29.6494 13.8071 29.6006 13.7533 29.5299C13.6995 29.4592 13.6733 29.3713 13.6794 29.2827C13.6855 29.1941 13.7236 29.1107 13.7866 29.048L14.5258 28.3227L12.2657 29.6266C12.1869 29.6716 12.0943 29.6857 12.0057 29.6664C11.9172 29.6471 11.8389 29.5957 11.786 29.522C11.7331 29.4483 11.7094 29.3577 11.7194 29.2676C11.7295 29.1775 11.7726 29.0943 11.8403 29.0341L13.8203 27.2975L9.787 29.6266C9.70645 29.6728 9.61135 29.6868 9.52091 29.6656C9.43048 29.6445 9.35144 29.5898 9.29977 29.5126C9.2481 29.4354 9.22765 29.3415 9.24254 29.2498C9.25743 29.1581 9.30656 29.0755 9.38 29.0187L12.1982 26.8553L7.39193 29.6266C7.3365 29.6598 7.2732 29.6775 7.2086 29.6779V29.6779Z" fill="#F2CF7E"></path>
<path d="M33.4464 28.9446C33.3689 28.9448 33.2933 28.9203 33.2305 28.8748C33.1678 28.8293 33.1211 28.765 33.0971 28.6913C33.0732 28.6175 33.0732 28.5381 33.0972 28.4644C33.1212 28.3907 33.168 28.3264 33.2308 28.281L34.0375 27.6943L31.957 28.8933C31.8765 28.9402 31.7812 28.9547 31.6904 28.9339C31.5996 28.9131 31.5202 28.8585 31.4682 28.7812C31.4162 28.7039 31.3956 28.6097 31.4105 28.5177C31.4254 28.4258 31.4748 28.343 31.5485 28.2861L33.8497 26.5041L29.7101 28.8933C29.6297 28.9399 29.5346 28.9542 29.4441 28.9333C29.3536 28.9125 29.2743 28.8581 29.2224 28.7811C29.1704 28.7041 29.1496 28.6102 29.1642 28.5185C29.1788 28.4268 29.2276 28.344 29.3009 28.2868L31.6703 26.4388L27.4169 28.8933C27.3361 28.939 27.2409 28.9523 27.1506 28.9304C27.0603 28.9086 26.9816 28.8534 26.9305 28.7758C26.8794 28.6982 26.8596 28.6042 26.8752 28.5126C26.8907 28.421 26.9405 28.3388 27.0143 28.2824L28.8594 26.903L25.6327 28.765C25.551 28.8128 25.4539 28.827 25.3618 28.8048C25.2697 28.7826 25.1898 28.7256 25.1388 28.6458C25.0878 28.566 25.0697 28.4695 25.0882 28.3766C25.1067 28.2838 25.1605 28.2017 25.2382 28.1475L25.6049 27.8901L24.7403 28.3895C24.6593 28.4356 24.5638 28.449 24.4732 28.4272C24.3827 28.4054 24.3038 28.35 24.2526 28.2721C24.2015 28.1942 24.1819 28.0998 24.1978 28.008C24.2137 27.9163 24.264 27.834 24.3384 27.7779L25.3651 27.0182L23.9923 27.8109C23.915 27.8555 23.8241 27.8704 23.7366 27.8527C23.6491 27.8351 23.5711 27.7861 23.5171 27.7151C23.4631 27.644 23.4369 27.5557 23.4434 27.4667C23.4499 27.3777 23.4886 27.2941 23.5523 27.2316L25.5682 25.2596L23.2105 26.62C23.1339 26.6637 23.044 26.6783 22.9574 26.661C22.8709 26.6438 22.7934 26.596 22.7393 26.5263C22.6852 26.4565 22.658 26.3696 22.6628 26.2815C22.6676 26.1934 22.704 26.1099 22.7654 26.0465L23.6542 25.1364L22.9553 25.5398C22.8811 25.5825 22.7943 25.5979 22.71 25.5833C22.6256 25.5687 22.549 25.5251 22.4935 25.4599C22.4379 25.3948 22.4069 25.3123 22.4058 25.2267C22.4047 25.1411 22.4336 25.0578 22.4875 24.9912L22.8541 24.5395C22.7668 24.5123 22.6931 24.4527 22.6481 24.373C22.5996 24.289 22.5865 24.1891 22.6115 24.0954C22.6365 24.0017 22.6976 23.9217 22.7815 23.8729L23.9981 23.1711C24.0723 23.1288 24.1589 23.1138 24.2431 23.1285C24.3272 23.1433 24.4035 23.1869 24.4588 23.2519C24.5142 23.317 24.5451 23.3993 24.5463 23.4846C24.5475 23.57 24.5188 23.6531 24.4653 23.7196L24.3098 23.911L25.5931 23.1733C25.6698 23.1291 25.7599 23.1141 25.8468 23.1311C25.9337 23.1481 26.0115 23.196 26.0658 23.2658C26.1202 23.3357 26.1474 23.4229 26.1425 23.5113C26.1375 23.5997 26.1008 23.6834 26.039 23.7468L25.1531 24.6532L27.7198 23.1718C27.7971 23.1273 27.888 23.1124 27.9755 23.13C28.063 23.1477 28.141 23.1966 28.195 23.2677C28.249 23.3388 28.2752 23.4271 28.2687 23.5161C28.2622 23.6051 28.2235 23.6887 28.1598 23.7512L26.1439 25.7224L30.5644 23.1733C30.6454 23.1273 30.7409 23.1138 30.8315 23.1356C30.922 23.1574 31.0009 23.2129 31.0521 23.2907C31.1032 23.3686 31.1228 23.463 31.1069 23.5548C31.091 23.6466 31.0407 23.7288 30.9663 23.7849L29.9396 24.5454L32.3163 23.1733C32.398 23.1275 32.494 23.1146 32.5848 23.1373C32.6757 23.16 32.7544 23.2165 32.8048 23.2954C32.8553 23.3742 32.8736 23.4694 32.8562 23.5614C32.8387 23.6534 32.7867 23.7352 32.7109 23.79L32.3442 24.0482L33.8607 23.1733C33.9416 23.1276 34.0368 23.1144 34.1271 23.1362C34.2174 23.158 34.2961 23.2133 34.3472 23.2908C34.3983 23.3684 34.4181 23.4624 34.4025 23.554C34.387 23.6456 34.3372 23.7279 34.2633 23.7842L32.4175 25.1636L35.8642 23.1733C35.9446 23.1268 36.0397 23.1125 36.1302 23.1333C36.2207 23.1541 36.3 23.2085 36.3519 23.2855C36.4039 23.3625 36.4247 23.4564 36.4101 23.5481C36.3955 23.6399 36.3467 23.7227 36.2734 23.7798L33.904 25.6278L38.1573 23.1733C38.2378 23.1264 38.3331 23.1119 38.4239 23.1327C38.5147 23.1536 38.5942 23.2082 38.6462 23.2855C38.6982 23.3627 38.7188 23.4569 38.7039 23.5489C38.6889 23.6408 38.6396 23.7236 38.5658 23.7805L36.2661 25.561L39.6893 23.5854C39.7706 23.5392 39.8664 23.5258 39.9572 23.5479C40.0481 23.57 40.1271 23.6259 40.178 23.7043C40.229 23.7827 40.248 23.8776 40.2314 23.9696C40.2147 24.0616 40.1635 24.1437 40.0882 24.1992L39.2772 24.7859L40.0919 24.3158C40.1687 24.2721 40.2588 24.2575 40.3455 24.2749C40.4321 24.2923 40.5096 24.3404 40.5637 24.4104C40.6177 24.4804 40.6446 24.5676 40.6394 24.6559C40.6342 24.7441 40.5974 24.8276 40.5356 24.8908L38.5555 26.8906L39.7692 26.1902C39.8109 26.1637 39.8576 26.1459 39.9064 26.1379C39.9552 26.1298 40.0051 26.1318 40.0532 26.1435C40.1012 26.1553 40.1463 26.1767 40.1859 26.2063C40.2255 26.236 40.2586 26.2734 40.2834 26.3162C40.3081 26.359 40.324 26.4064 40.3299 26.4555C40.3359 26.5046 40.3319 26.5543 40.3181 26.6018C40.3043 26.6493 40.2811 26.6935 40.2497 26.7318C40.2184 26.7701 40.1797 26.8017 40.1359 26.8246L36.5521 28.8933C36.4752 28.9376 36.3849 28.9526 36.2979 28.9354C36.2109 28.9182 36.1331 28.8701 36.0788 28.7999C36.0246 28.7297 35.9976 28.6423 36.0029 28.5537C36.0082 28.4652 36.0454 28.3816 36.1077 28.3184L38.0877 26.32L33.6297 28.8933C33.5743 28.9265 33.511 28.9442 33.4464 28.9446V28.9446Z" fill="#D3B571"></path>
<path d="M26.0771 23.8114C26.0019 23.8117 25.9284 23.7887 25.8667 23.7457C25.8049 23.7028 25.7579 23.6418 25.7319 23.5712C25.706 23.5006 25.7024 23.4237 25.7216 23.351C25.7409 23.2782 25.782 23.2132 25.8395 23.1646L26.1402 22.9102L24.6647 23.7601C24.5902 23.8031 24.5029 23.8184 24.4181 23.8035C24.3334 23.7886 24.2566 23.7444 24.2012 23.6786C24.1458 23.6127 24.1153 23.5295 24.115 23.4435C24.1148 23.3574 24.1448 23.2741 24.1998 23.2079L25.2859 21.9268L23.1944 23.1338C23.1257 23.1735 23.0461 23.1898 22.9673 23.1804C22.8886 23.1709 22.8151 23.1362 22.7577 23.0814C22.7004 23.0267 22.6624 22.9548 22.6493 22.8766C22.6363 22.7984 22.649 22.718 22.6855 22.6476L23.278 21.5036L23.1489 21.577C23.0651 21.6208 22.9676 21.6306 22.8768 21.6042C22.786 21.5779 22.7089 21.5175 22.6615 21.4356C22.6142 21.3537 22.6003 21.2567 22.6228 21.1648C22.6453 21.073 22.7025 20.9934 22.7823 20.9426L23.9974 20.2416C24.0662 20.2003 24.1467 20.1831 24.2263 20.1925C24.3059 20.2019 24.3802 20.2375 24.4374 20.2936C24.495 20.3483 24.5333 20.4202 24.5465 20.4985C24.5597 20.5768 24.5472 20.6572 24.5107 20.7278L23.9175 21.8703L26.7386 20.2401C26.8133 20.1972 26.9007 20.182 26.9855 20.1971C27.0703 20.2122 27.1471 20.2567 27.2023 20.3227C27.2576 20.3888 27.2879 20.4722 27.2879 20.5583C27.2878 20.6444 27.2574 20.7278 27.2021 20.7938L26.116 22.0786L29.3023 20.2401C29.3816 20.195 29.4748 20.181 29.5638 20.2008C29.6528 20.2207 29.7312 20.2731 29.7837 20.3476C29.8362 20.4222 29.859 20.5137 29.8477 20.6042C29.8364 20.6947 29.7918 20.7777 29.7225 20.837L29.4226 21.0915L30.8981 20.2401C30.9717 20.1979 31.0577 20.1825 31.1414 20.1966C31.2251 20.2107 31.3014 20.2534 31.3571 20.3175C31.4128 20.3815 31.4446 20.4629 31.447 20.5477C31.4494 20.6326 31.4223 20.7157 31.3703 20.7828L30.274 22.1871L33.6473 20.2401C33.7245 20.1944 33.8158 20.1789 33.9038 20.1966C33.9917 20.2144 34.0699 20.2641 34.1233 20.3362C34.1772 20.4077 34.2031 20.4965 34.1961 20.5858C34.1891 20.6751 34.1496 20.7587 34.0851 20.8209L33.2345 21.6444L35.6706 20.2401C35.7453 20.1977 35.8326 20.1829 35.9172 20.1983C36.0017 20.2137 36.0782 20.2583 36.1332 20.3243C36.1882 20.3903 36.2183 20.4736 36.2182 20.5595C36.2181 20.6455 36.1878 20.7286 36.1326 20.7945L35.0531 22.0734L38.227 20.2401C38.3035 20.1965 38.3932 20.1818 38.4796 20.1989C38.5661 20.2159 38.6435 20.2635 38.6977 20.3329C38.7519 20.4024 38.7793 20.489 38.7749 20.577C38.7705 20.665 38.7345 20.7485 38.6736 20.8121L37.7012 21.8146L39.7025 20.6603C39.7767 20.6181 39.8634 20.6031 39.9475 20.618C40.0316 20.6328 40.1079 20.6766 40.1632 20.7417C40.2185 20.8068 40.2494 20.8892 40.2504 20.9746C40.2514 21.06 40.2226 21.1432 40.1689 21.2096L39.4194 22.127L40.1285 21.7178C40.2127 21.6699 40.3124 21.6573 40.4058 21.6827C40.4993 21.708 40.5789 21.7693 40.6273 21.8532C40.6757 21.937 40.689 22.0366 40.6642 22.1302C40.6395 22.2239 40.5787 22.3039 40.4952 22.3528L38.0473 23.7601C37.9731 23.8028 37.8862 23.8181 37.8018 23.8034C37.7174 23.7887 37.6408 23.745 37.5854 23.6797C37.5299 23.6145 37.499 23.5319 37.498 23.4462C37.4971 23.3606 37.5262 23.2773 37.5802 23.2108L38.3304 22.2934L35.7887 23.7601C35.7121 23.8043 35.6222 23.8194 35.5354 23.8025C35.4487 23.7857 35.3709 23.7381 35.3165 23.6684C35.2621 23.5988 35.2346 23.5119 35.2391 23.4236C35.2437 23.3354 35.28 23.2517 35.3413 23.1881L36.3137 22.1856L33.5865 23.7601C33.5117 23.803 33.4242 23.8181 33.3394 23.8029C33.2546 23.7877 33.1778 23.7431 33.1226 23.677C33.0674 23.6108 33.0372 23.5273 33.0374 23.4411C33.0376 23.355 33.0682 23.2716 33.1237 23.2057L34.2069 21.9268L31.0315 23.7601C30.954 23.8061 30.8624 23.8219 30.774 23.8045C30.6856 23.7872 30.6066 23.7379 30.5522 23.6661C30.4978 23.5943 30.4718 23.505 30.479 23.4152C30.4863 23.3254 30.5263 23.2415 30.5915 23.1793L31.4422 22.355L29.0105 23.7601C28.9368 23.8028 28.8506 23.8185 28.7667 23.8046C28.6827 23.7906 28.6062 23.7479 28.5503 23.6838C28.4943 23.6196 28.4625 23.538 28.4601 23.4529C28.4578 23.3678 28.4851 23.2846 28.5375 23.2174L29.6338 21.8131L26.2605 23.7601C26.2049 23.7931 26.1417 23.8108 26.0771 23.8114V23.8114Z" fill="#925C4C"></path>
<path d="M35.1025 20.8817C35.0218 20.8817 34.9433 20.855 34.8793 20.8059C34.8153 20.7568 34.7692 20.6879 34.7483 20.6099C34.7274 20.532 34.7329 20.4493 34.7637 20.3747C34.7946 20.3001 34.8493 20.2378 34.9192 20.1975L39.7643 17.4006C39.8437 17.3558 39.9369 17.3422 40.0258 17.3624C40.1147 17.3826 40.1928 17.4352 40.245 17.51C40.2972 17.5847 40.3197 17.6762 40.3081 17.7666C40.2965 17.857 40.2517 17.9398 40.1823 17.999L40.1031 18.0657L40.128 18.051C40.1984 18.0107 40.2801 17.9948 40.3604 18.0059C40.4407 18.017 40.5151 18.0543 40.5719 18.1122C40.6287 18.17 40.6648 18.245 40.6744 18.3255C40.6841 18.406 40.6668 18.4874 40.6252 18.557L40.0686 19.4854L40.128 19.4517C40.2122 19.4038 40.3119 19.3912 40.4053 19.4166C40.4988 19.4419 40.5784 19.5032 40.6268 19.5871C40.6752 19.6709 40.6885 19.7705 40.6638 19.8642C40.639 19.9578 40.5782 20.0378 40.4947 20.0867L39.2099 20.8267C39.1396 20.8671 39.0579 20.8831 38.9776 20.8721C38.8973 20.8612 38.8229 20.8239 38.766 20.7662C38.7091 20.7084 38.6729 20.6335 38.6631 20.553C38.6534 20.4725 38.6705 20.3911 38.712 20.3214L39.2693 19.3915L36.7826 20.8267C36.7032 20.8714 36.61 20.885 36.5211 20.8648C36.4322 20.8446 36.3541 20.792 36.3019 20.7173C36.2497 20.6425 36.2272 20.5511 36.2388 20.4607C36.2504 20.3703 36.2952 20.2874 36.3646 20.2283L36.4423 20.163L35.2858 20.8303C35.2303 20.8633 35.1671 20.881 35.1025 20.8817V20.8817Z" fill="#F9D990"></path>
<path d="M30.0596 25.2781C29.9857 25.2781 29.9135 25.2557 29.8526 25.2139C29.7916 25.1721 29.7447 25.1129 29.718 25.044C29.6913 24.9751 29.686 24.8998 29.7029 24.8278C29.7197 24.7559 29.7579 24.6907 29.8124 24.6409L30.1681 24.316L29.2954 24.8198C29.2129 24.8677 29.1149 24.8815 29.0224 24.8583C28.9298 24.8351 28.8499 24.7767 28.7997 24.6955C28.7495 24.6144 28.7329 24.5169 28.7534 24.4237C28.774 24.3305 28.83 24.249 28.9097 24.1965L29.4729 23.8225L28.7755 24.2251C28.6939 24.2709 28.5978 24.2838 28.507 24.2611C28.4162 24.2384 28.3375 24.1818 28.287 24.103C28.2366 24.0241 28.2182 23.929 28.2357 23.837C28.2531 23.745 28.3051 23.6632 28.381 23.6083L30.7086 21.9657L28.1192 23.4602C28.0389 23.5055 27.9445 23.519 27.8548 23.4979C27.7651 23.4768 27.6866 23.4226 27.635 23.3462C27.5834 23.2698 27.5624 23.1768 27.5763 23.0857C27.5902 22.9945 27.6379 22.912 27.71 22.8545L30.6536 20.5503L27.2876 22.4937C27.208 22.5402 27.1139 22.5551 27.0239 22.5354C26.9339 22.5157 26.8546 22.4628 26.8018 22.3872C26.7491 22.3117 26.7266 22.2191 26.7391 22.1278C26.7515 22.0365 26.7978 21.9532 26.8688 21.8945L29.0747 20.0487L26.4736 21.5484C26.3937 21.5936 26.2997 21.6072 26.2103 21.5864C26.1208 21.5657 26.0424 21.5122 25.9906 21.4364C25.9387 21.3607 25.9171 21.2682 25.9301 21.1774C25.9431 21.0865 25.9897 21.0038 26.0607 20.9456L26.8256 20.3311L25.7512 20.9507C25.6741 20.9941 25.5839 21.0081 25.4973 20.9902C25.4106 20.9723 25.3334 20.9237 25.2798 20.8533C25.2262 20.7829 25.1998 20.6955 25.2056 20.6072C25.2114 20.5189 25.2489 20.4357 25.3112 20.3729L26.3357 19.3601L23.7954 20.8268C23.7195 20.8699 23.6307 20.8844 23.545 20.8679C23.4593 20.8514 23.3823 20.8048 23.3279 20.7366C23.2734 20.6684 23.2451 20.5829 23.248 20.4957C23.2509 20.4085 23.2848 20.3251 23.3437 20.2607L24.3704 19.1548L22.9404 19.9805C22.8735 20.0191 22.7962 20.0355 22.7195 20.0275C22.6427 20.0196 22.5704 19.9876 22.5129 19.9362C22.4554 19.8848 22.4155 19.8165 22.3991 19.7411C22.3826 19.6657 22.3903 19.5871 22.4212 19.5163L22.878 18.4699C22.7925 18.4893 22.7029 18.4775 22.6253 18.4366C22.5478 18.3956 22.4875 18.3282 22.4553 18.2466C22.4232 18.165 22.4214 18.0746 22.4503 17.9918C22.4791 17.9089 22.5367 17.8392 22.6126 17.7952L23.4669 17.3068C23.5338 17.2683 23.6111 17.2518 23.6878 17.2598C23.7646 17.2677 23.8368 17.2997 23.8944 17.3511C23.9519 17.4026 23.9917 17.4708 24.0082 17.5462C24.0247 17.6216 24.0169 17.7003 23.9861 17.771L23.5402 18.7896L26.1069 17.3068C26.1828 17.2632 26.2718 17.2483 26.3578 17.2646C26.4438 17.2809 26.5212 17.3275 26.5758 17.3959C26.6305 17.4643 26.6589 17.55 26.6558 17.6375C26.6528 17.7249 26.6186 17.8085 26.5594 17.8729L25.5327 18.9788L28.4308 17.3068C28.508 17.2634 28.5982 17.2494 28.6848 17.2673C28.7714 17.2852 28.8487 17.3339 28.9023 17.4043C28.9559 17.4747 28.9822 17.5621 28.9764 17.6503C28.9707 17.7386 28.9332 17.8219 28.8708 17.8847L27.8486 18.8952L30.6052 17.3068C30.6851 17.2608 30.7795 17.2466 30.8694 17.267C30.9593 17.2874 31.0383 17.341 31.0905 17.4171C31.1427 17.4932 31.1643 17.5861 31.151 17.6774C31.1377 17.7687 31.0905 17.8516 31.0188 17.9096L30.2546 18.5227L32.3622 17.3068C32.4416 17.2613 32.5352 17.2471 32.6245 17.2671C32.7139 17.287 32.7925 17.3397 32.845 17.4147C32.8975 17.4897 32.92 17.5816 32.9081 17.6724C32.8963 17.7631 32.8509 17.8462 32.781 17.9052L30.5751 19.7517L34.8108 17.3068C34.8911 17.2623 34.9851 17.2494 35.0743 17.2708C35.1635 17.2922 35.2415 17.3463 35.2928 17.4224C35.3441 17.4985 35.365 17.591 35.3514 17.6817C35.3378 17.7725 35.2907 17.8548 35.2193 17.9125L32.275 20.2159L37.3152 17.3068C37.3966 17.2624 37.4919 17.2505 37.5818 17.2735C37.6716 17.2966 37.7494 17.3528 37.7995 17.431C37.8495 17.5091 37.8681 17.6033 37.8514 17.6945C37.8347 17.7858 37.7841 17.8674 37.7097 17.9228L35.3858 19.564L39.2966 17.3068C39.379 17.2613 39.4756 17.2493 39.5666 17.2731C39.6576 17.2969 39.736 17.3547 39.7855 17.4347C39.8351 17.5146 39.852 17.6106 39.8328 17.7026C39.8136 17.7947 39.7597 17.8759 39.6824 17.9294L33.262 22.1908C33.285 22.2583 33.2878 22.331 33.2701 22.4C33.2523 22.469 33.2149 22.5314 33.1623 22.5795L31.5988 24.0058L31.6069 24.0197C31.6555 24.1039 31.6687 24.204 31.6435 24.298C31.6184 24.3919 31.5569 24.472 31.4727 24.5206L30.2429 25.2268C30.1875 25.2601 30.1242 25.2778 30.0596 25.2781V25.2781Z" fill="#F9D990"></path>
<path d="M29.3451 17.9446C29.2671 17.9447 29.1912 17.9199 29.1283 17.8739C29.0654 17.8279 29.0188 17.763 28.9952 17.6887C28.9717 17.6144 28.9725 17.5346 28.9974 17.4607C29.0223 17.3869 29.0701 17.3229 29.1339 17.278L31.0471 15.9324L27.6467 17.8933C27.5652 17.9406 27.4686 17.9546 27.3771 17.9326C27.2855 17.9106 27.2059 17.8542 27.1548 17.7751C27.1037 17.696 27.085 17.6002 27.1025 17.5077C27.1201 17.4151 27.1726 17.3329 27.2492 17.278L30.3402 15.0568L25.4269 17.8933C25.3456 17.9395 25.2498 17.953 25.1589 17.9309C25.0681 17.9088 24.9891 17.8528 24.9381 17.7744C24.8872 17.696 24.8681 17.6011 24.8848 17.5091C24.9015 17.4172 24.9527 17.335 25.0279 17.2795L28.3939 14.8331L23.5539 17.6286C23.4722 17.675 23.3758 17.6882 23.2846 17.6655C23.1934 17.6429 23.1144 17.5861 23.0639 17.5068C23.0133 17.4276 22.9952 17.332 23.0131 17.2398C23.031 17.1475 23.0836 17.0657 23.1601 17.0111L25.3367 15.4836L22.9973 16.8336C22.9164 16.8787 22.8214 16.8915 22.7314 16.8694C22.6414 16.8472 22.5632 16.7919 22.5124 16.7144C22.4615 16.6369 22.4419 16.5431 22.4575 16.4517C22.4731 16.3604 22.5226 16.2783 22.5962 16.222L24.8827 14.5251L22.9453 15.6427C22.8652 15.6884 22.7708 15.7022 22.681 15.6814C22.5911 15.6606 22.5124 15.6068 22.4606 15.5306C22.4087 15.4543 22.3874 15.3614 22.401 15.2702C22.4146 15.179 22.462 15.0962 22.5339 15.0385L24.09 13.7999L23.1689 14.3315C23.0909 14.3756 22.9993 14.3896 22.9117 14.3708C22.824 14.3519 22.7463 14.3017 22.6932 14.2294C22.6401 14.1572 22.6153 14.068 22.6235 13.9787C22.6317 13.8894 22.6724 13.8062 22.7377 13.7449L23.8377 12.7336C23.7559 12.7045 23.687 12.6473 23.6434 12.5723C23.5948 12.488 23.5816 12.388 23.6068 12.294C23.6319 12.2001 23.6934 12.12 23.7776 12.0714L25.9299 10.8247C26.008 10.7806 26.0995 10.7667 26.1872 10.7855C26.2749 10.8043 26.3526 10.8546 26.4057 10.9268C26.4588 10.9991 26.4836 11.0883 26.4754 11.1776C26.4672 11.2669 26.4265 11.35 26.3611 11.4114L25.6967 12.0208L27.9847 10.7008C28.0649 10.6542 28.1597 10.6397 28.25 10.6602C28.3404 10.6807 28.4197 10.7346 28.4719 10.8112C28.5241 10.8878 28.5454 10.9813 28.5315 11.0729C28.5176 11.1645 28.4695 11.2475 28.3969 11.3051L26.84 12.5481L30.0322 10.7067C30.1132 10.6606 30.2087 10.6471 30.2993 10.6689C30.3898 10.6907 30.4687 10.7462 30.5199 10.8241C30.571 10.9019 30.5906 10.9963 30.5747 11.0881C30.5588 11.1799 30.5085 11.2622 30.4341 11.3183L28.1483 13.0145L32.1471 10.7067C32.2287 10.6619 32.3243 10.6497 32.4144 10.6728C32.5046 10.6958 32.5826 10.7523 32.6327 10.8307C32.6828 10.9091 32.7012 11.0037 32.6841 11.0952C32.6671 11.1867 32.6159 11.2682 32.5409 11.3234L30.3659 12.8502L34.0802 10.7067C34.1615 10.6604 34.2573 10.647 34.3482 10.6691C34.439 10.6912 34.518 10.7472 34.5689 10.8256C34.6199 10.9039 34.639 10.9988 34.6223 11.0908C34.6056 11.1828 34.5544 11.265 34.4791 11.3205L31.1117 13.7669L36.3381 10.7499C36.4196 10.7027 36.5162 10.6886 36.6078 10.7106C36.6993 10.7326 36.7789 10.789 36.83 10.8682C36.8812 10.9473 36.8999 11.043 36.8823 11.1356C36.8647 11.2281 36.8122 11.3103 36.7356 11.3652L33.6424 13.5879L37.7733 11.2039C37.8551 11.1561 37.9522 11.1418 38.0442 11.164C38.1363 11.1862 38.2162 11.2432 38.2672 11.323C38.3182 11.4029 38.3363 11.4993 38.3178 11.5922C38.2993 11.6851 38.2455 11.7672 38.1678 11.8213L36.2553 13.1663L38.6327 11.7942C38.7135 11.7489 38.8085 11.7358 38.8985 11.7576C38.9885 11.7794 39.067 11.8345 39.1181 11.9117C39.1691 11.989 39.1891 12.0828 39.1739 12.1741C39.1587 12.2655 39.1094 12.3478 39.0361 12.4043L36.5816 14.2523L39.3807 12.639C39.4619 12.5921 39.558 12.5781 39.6492 12.5998C39.7405 12.6216 39.8199 12.6775 39.8712 12.756C39.9224 12.8345 39.9417 12.9297 39.9249 13.0219C39.9082 13.1142 39.8567 13.1966 39.7811 13.2521L38.9099 13.8908L39.7848 13.3855C39.8637 13.3395 39.957 13.3247 40.0463 13.3439C40.1356 13.363 40.2145 13.4148 40.2676 13.4891C40.3208 13.5634 40.3442 13.6549 40.3335 13.7456C40.3227 13.8363 40.2785 13.9197 40.2094 13.9795L38.6063 15.3773L40.0877 14.5222C40.1663 14.4774 40.2588 14.4632 40.3472 14.4825C40.4357 14.5017 40.5139 14.553 40.5668 14.6265C40.6197 14.7 40.6435 14.7904 40.6337 14.8804C40.6239 14.9704 40.5812 15.0536 40.5137 15.114L40.1471 15.4366C40.2216 15.3994 40.3067 15.3887 40.3882 15.4062C40.4697 15.4238 40.5427 15.4686 40.5954 15.5332C40.648 15.5979 40.677 15.6785 40.6776 15.7619C40.6782 15.8453 40.6504 15.9263 40.5988 15.9918L40.1823 16.522C40.254 16.5384 40.3192 16.5761 40.3692 16.6301C40.4193 16.684 40.4519 16.7518 40.4629 16.8246C40.4739 16.8974 40.4628 16.9718 40.4309 17.0382C40.399 17.1045 40.3479 17.1597 40.2842 17.1966L39.0691 17.8977C38.9954 17.9399 38.9093 17.9552 38.8256 17.941C38.7418 17.9268 38.6656 17.884 38.61 17.8198C38.5543 17.7557 38.5226 17.6742 38.5204 17.5893C38.5181 17.5044 38.5454 17.4213 38.5975 17.3543L38.8513 17.0309L37.3472 17.8933C37.2686 17.9381 37.1761 17.9523 37.0876 17.933C36.9992 17.9138 36.921 17.8625 36.8681 17.789C36.8152 17.7155 36.7913 17.6251 36.8011 17.5351C36.8109 17.4451 36.8537 17.3619 36.9211 17.3015L37.2827 16.9818L35.7038 17.8933C35.625 17.9391 35.5319 17.9539 35.4427 17.9348C35.3536 17.9157 35.2747 17.864 35.2216 17.7899C35.1685 17.7158 35.1449 17.6246 35.1554 17.534C35.1659 17.4434 35.2098 17.36 35.2785 17.3L36.8823 15.9023L33.4356 17.8933C33.3544 17.9402 33.2583 17.9542 33.1671 17.9325C33.0759 17.9107 32.9965 17.8548 32.9452 17.7763C32.8939 17.6978 32.8747 17.6026 32.8914 17.5104C32.9082 17.4181 32.9596 17.3357 33.0352 17.2802L33.9064 16.6422L31.735 17.8933C31.6542 17.9387 31.5593 17.9517 31.4692 17.9299C31.3792 17.9081 31.3008 17.853 31.2497 17.7758C31.1986 17.6985 31.1787 17.6047 31.1939 17.5134C31.2091 17.422 31.2583 17.3397 31.3317 17.2832L33.7861 15.4359L29.5284 17.8933C29.4729 17.9263 29.4096 17.944 29.3451 17.9446V17.9446Z" fill="#D3B571"></path>
<path d="M7.68003 36.278C7.60453 36.2782 7.53083 36.255 7.46898 36.2117C7.40714 36.1684 7.36017 36.107 7.3345 36.036C7.30883 35.965 7.3057 35.8878 7.32554 35.815C7.34538 35.7421 7.38723 35.6772 7.44537 35.629L7.6067 35.4948L6.7377 35.9964C6.66192 36.04 6.57307 36.0551 6.48716 36.0389C6.40125 36.0227 6.32395 35.9764 6.26918 35.9083C6.21441 35.8401 6.18578 35.7547 6.18846 35.6673C6.19113 35.58 6.22493 35.4964 6.28377 35.4318L7.11317 34.5261L6.11217 35.1032C6.03845 35.1458 5.95221 35.1615 5.86823 35.1474C5.78425 35.1334 5.70778 35.0906 5.65193 35.0263C5.59607 34.962 5.56433 34.8803 5.56213 34.7952C5.55994 34.7101 5.58743 34.6269 5.6399 34.5598L6.01537 34.0824C5.94371 34.0658 5.87872 34.028 5.82883 33.9739C5.77894 33.9199 5.74647 33.852 5.73564 33.7793C5.7248 33.7065 5.7361 33.6322 5.76807 33.5659C5.80004 33.4997 5.8512 33.4446 5.9149 33.4078L7.1293 32.7067C7.20301 32.6645 7.28907 32.6492 7.3728 32.6634C7.45654 32.6776 7.53274 32.7205 7.5884 32.7846C7.64406 32.8488 7.67573 32.9302 7.678 33.0151C7.68027 33.1 7.65299 33.1831 7.60084 33.2501L7.38963 33.5192L8.79984 32.7067C8.87553 32.6636 8.9641 32.6489 9.04967 32.6651C9.13524 32.6814 9.21222 32.7276 9.26684 32.7955C9.32145 32.8633 9.35013 32.9484 9.34774 33.0354C9.34534 33.1225 9.31203 33.2059 9.25377 33.2706L8.42657 34.1734L10.9734 32.7067C11.0529 32.6618 11.1463 32.6481 11.2353 32.6684C11.3244 32.6886 11.4026 32.7414 11.4548 32.8163C11.507 32.8912 11.5293 32.9829 11.5175 33.0735C11.5056 33.164 11.4604 33.2469 11.3907 33.3058L11.2286 33.4408L12.501 32.7074C12.5791 32.6599 12.6722 32.6433 12.7619 32.6609C12.8517 32.6784 12.9316 32.7289 12.986 32.8024C13.0405 32.8758 13.0655 32.967 13.0563 33.058C13.047 33.1489 13.004 33.2332 12.9358 33.2941L12.1526 34.0267L13.9075 33.014C13.9849 32.9687 14.0762 32.9534 14.1641 32.9709C14.252 32.9884 14.3305 33.0375 14.3847 33.1089C14.4389 33.1803 14.465 33.2691 14.4581 33.3585C14.4513 33.4479 14.4119 33.5317 14.3475 33.594L13.796 34.1323L14.4091 33.7781C14.4824 33.7356 14.5682 33.7198 14.6518 33.7333C14.7355 33.7469 14.8118 33.789 14.8679 33.8526C14.924 33.9161 14.9564 33.9971 14.9595 34.0818C14.9626 34.1665 14.9363 34.2496 14.885 34.3171L14.4868 34.8444C14.5622 34.8552 14.6322 34.8893 14.6873 34.9418C14.7424 34.9943 14.7798 35.0627 14.7943 35.1374C14.8088 35.2121 14.7997 35.2895 14.7683 35.3588C14.7369 35.4281 14.6846 35.4859 14.6188 35.5242L13.4052 36.2252C13.3319 36.267 13.2466 36.2823 13.1634 36.2685C13.0802 36.2547 13.0044 36.2126 12.9486 36.1494C12.8928 36.0862 12.8605 36.0057 12.8571 35.9215C12.8537 35.8373 12.8794 35.7544 12.93 35.687L13.2086 35.3203L11.6334 36.2267C11.5561 36.2713 11.4652 36.2861 11.3777 36.2685C11.2903 36.2508 11.2122 36.2019 11.1583 36.1308C11.1043 36.0598 11.0781 35.9715 11.0846 35.8825C11.091 35.7934 11.1297 35.7099 11.1934 35.6474L11.7464 35.1084L9.80743 36.2267C9.7293 36.2742 9.63624 36.2908 9.54649 36.2732C9.45675 36.2557 9.37681 36.2052 9.32235 36.1318C9.2679 36.0583 9.24286 35.9671 9.25215 35.8762C9.26144 35.7852 9.30439 35.701 9.37257 35.64L10.1558 34.9067L7.86337 36.2267C7.80794 36.2599 7.74463 36.2776 7.68003 36.278V36.278Z" fill="#F9D990"></path>
<path d="M2.95661 43.5505C4.54061 43.5688 6.12535 43.5505 7.70935 43.5505H14.3731C15.5796 43.6384 16.7915 43.6182 17.9944 43.4904C18.6096 43.4034 19.1766 43.1088 19.6013 42.6553C20.026 42.2017 20.2829 41.6166 20.3293 40.997C20.3293 40.9831 20.3205 40.975 20.319 40.9626C20.3176 40.9501 20.3308 40.9398 20.3308 40.9266V33.2868H39.6651C40.8333 33.2868 42.0169 33.352 42.9651 32.5094C43.8451 31.7262 43.7982 30.7062 43.7982 29.6494V3.20836C43.8299 2.85747 43.7881 2.50381 43.6754 2.16999C43.5627 1.83617 43.3816 1.52952 43.1438 1.26962C42.9059 1.00973 42.6164 0.802302 42.2938 0.660595C41.9713 0.518887 41.6227 0.446014 41.2704 0.446628C38.8731 0.348361 36.4509 0.446628 34.0522 0.446628H20.9629C18.4556 0.446628 15.9373 0.378428 13.4301 0.446628C12.9508 0.440359 12.4765 0.543746 12.0434 0.748886C11.6102 0.954027 11.2297 1.25549 10.9309 1.63023C10.5614 2.22581 10.399 2.92677 10.4689 3.62416V10.7162H4.78922C3.42301 10.7162 1.91308 10.552 0.876881 11.652C0.109081 12.4667 0.202214 13.4787 0.202214 14.5002C0.202214 15.9984 0.083414 33.7048 0.202214 41.0528C0.227881 42.6668 1.43348 43.5329 2.95661 43.5505V43.5505ZM42.7356 30.7172C42.7563 31.0187 42.7119 31.3212 42.6055 31.6041C42.4991 31.887 42.3331 32.1437 42.1188 32.3569C41.93 32.5043 41.7131 32.6118 41.4814 32.6729C41.2496 32.7339 41.008 32.7471 40.771 32.7118H20.3308V20.2826C20.3308 17.8846 20.4488 15.4536 20.3308 13.0578C20.2983 12.4162 20.0168 11.8127 19.5463 11.3754C19.0757 10.9381 18.4532 10.7017 17.811 10.7162C17.4832 10.7023 17.151 10.7162 16.8247 10.7162H11.5307V7.0085H42.7356V27.8176C42.7356 28.7841 42.7532 29.7521 42.7356 30.7186V30.7172ZM7.95135 14.2443C7.11022 14.0749 7.13075 13.4831 7.13075 12.7402V11.2838H13.4022C13.4022 11.7766 13.9617 13.4149 13.4543 13.9238C12.6865 14.6924 8.35982 14.3257 7.95135 14.2443V14.2443ZM12.0316 1.50556C12.6476 0.826495 13.7432 1.0201 14.5719 1.0201H40.2789C41.5894 1.0201 42.6754 1.62803 42.7356 3.11523C42.7649 3.85663 42.7356 4.6061 42.7356 5.3475V6.19156H11.5307V3.60656C11.4152 2.86762 11.5951 2.11288 12.0316 1.50556ZM1.26408 13.1846C1.22602 12.7417 1.35561 12.3006 1.6272 11.9486C1.8988 11.5966 2.29262 11.3594 2.73075 11.2838C3.07273 11.2658 3.41543 11.2658 3.75741 11.2838H6.06888V12.8554C6.0106 13.2021 6.05501 13.5584 6.19664 13.8802C6.33828 14.202 6.57096 14.4754 6.86602 14.6667C7.34501 14.8623 7.86566 14.9337 8.37962 14.8742H12.1196C13.2929 14.8346 14.4597 14.2282 14.4663 12.9382C14.4663 12.3875 14.4663 11.8382 14.4663 11.2846H15.2348C16.5599 11.2846 18.3933 10.9553 19.0753 12.4337C19.2986 13.1986 19.3652 14.0008 19.2711 14.7921V41.1518C19.1486 43.274 17.3028 42.9851 15.7907 42.9851H4.28248C3.91581 42.9851 3.53448 43.0056 3.16415 42.9851C2.64015 42.9488 2.15029 42.712 1.79642 42.3238C1.44254 41.9357 1.25188 41.4261 1.26408 40.901C1.16728 38.5074 1.17315 15.8188 1.26408 13.1846V13.1846Z" fill="#2A2A38"></path>
<path d="M3.13557 27.5565C3.08022 27.9107 3.13206 28.2735 3.28443 28.5981C3.43679 28.9227 3.68273 29.1943 3.99063 29.3781C4.42828 29.5611 4.90441 29.6332 5.37664 29.5878H15.1798C16.2798 29.5247 17.3402 28.9175 17.3967 27.7207C17.4216 27.1927 17.3967 26.6574 17.3967 26.1294C17.3967 24.5014 17.4224 22.8719 17.3967 21.2439C17.405 20.8129 17.245 20.3956 16.9506 20.0807C16.6562 19.7657 16.2506 19.578 15.82 19.5572C15.4651 19.5264 15.1006 19.5484 14.745 19.5484H9.50384C8.1435 19.5484 6.77877 19.5125 5.41844 19.5484C4.99236 19.5305 4.5694 19.6286 4.19481 19.8325C3.82022 20.0363 3.50807 20.3381 3.29177 20.7056C3.12331 21.2421 3.07008 21.8082 3.13557 22.3666V27.5565ZM4.23557 20.8494C4.39177 20.1696 4.8127 20.0544 5.37957 20.0544H12.2846C13.2683 19.9897 14.2551 19.9916 15.2385 20.0603C16.183 20.1938 16.3385 21.087 16.3385 21.8621V27.1458C16.3385 27.7215 16.469 29.0297 15.622 29.0789H5.81517C5.57035 29.1163 5.32002 29.0912 5.08754 29.0058C4.85505 28.9204 4.64798 28.7775 4.48564 28.5905C4.21668 28.1205 4.11508 27.5732 4.19744 27.038V22.1804C4.16104 21.7367 4.17285 21.2905 4.23263 20.8494H4.23557Z" fill="#2A2A38"></path>
<path d="M39.9422 17.4255C40.2366 17.266 40.4796 17.0262 40.6428 16.7339C40.806 16.4416 40.8827 16.109 40.864 15.7747C40.9354 14.8587 40.7354 13.9419 40.2888 13.1389C39.8422 12.3359 39.169 11.6822 38.3531 11.2596C37.3783 10.8602 36.3232 10.6956 35.2731 10.7793H27.4763C27.4618 10.7809 27.4473 10.7834 27.433 10.7866C27.4087 10.7835 27.3842 10.7818 27.3597 10.7815C26.5974 10.7859 25.8441 10.9476 25.1471 11.2563C24.4501 11.5651 23.8243 12.0143 23.3088 12.5759C22.4823 13.6234 22.0859 14.9463 22.2 16.2756C22.1991 16.5316 22.265 16.7833 22.3912 17.0061C22.5174 17.2288 22.6994 17.4148 22.9194 17.5457C22.5893 17.8069 22.3682 18.1814 22.299 18.5966C21.9279 19.9562 22.3664 20.4358 23.077 20.6602C22.8181 20.8032 22.6009 21.0112 22.4466 21.2635C22.2923 21.5159 22.2063 21.8041 22.197 22.0997C22.1954 22.3952 22.2777 22.685 22.4344 22.9354C22.5911 23.1859 22.8158 23.3866 23.0822 23.5143C22.7404 23.7452 22.4775 24.0753 22.3291 24.4601C22.1807 24.845 22.1538 25.2661 22.252 25.6667C22.4316 26.6031 22.9333 27.4471 23.67 28.0523C24.4066 28.6576 25.3319 28.986 26.2854 28.9806C27.0268 28.9989 33.7588 28.9967 36.3812 28.9806C37.0699 29.0005 37.7542 28.8628 38.3816 28.578C39.0091 28.2932 39.5632 27.8688 40.0016 27.3372C40.8919 26.2123 41.2952 24.1105 40.0104 23.3567C40.0707 23.3188 40.1289 23.278 40.185 23.2342C40.4795 23.0118 40.6929 22.6988 40.7926 22.3434C40.8922 21.988 40.8725 21.6098 40.7364 21.2667C40.6261 21.0286 40.4583 20.8216 40.248 20.6646C40.3322 20.6033 40.4103 20.5341 40.4812 20.4578C40.6677 20.2319 40.8028 19.9681 40.8773 19.6849C40.9517 19.4016 40.9637 19.1055 40.9125 18.8171C40.8612 18.5287 40.7479 18.2549 40.5804 18.0146C40.4128 17.7743 40.1951 17.5733 39.9422 17.4255V17.4255ZM23.264 15.2599C23.2734 14.6125 23.4215 13.9746 23.6982 13.3892C23.9753 12.7679 24.4198 12.236 24.982 11.8529C25.5442 11.4698 26.2019 11.2506 26.8816 11.22C28.8828 11.22 34.6424 11.198 35.5188 11.22C36.3771 11.2244 37.2146 11.485 37.924 11.9684C38.6333 12.4518 39.1821 13.136 39.5 13.9333C39.7677 14.6168 40.1505 16.5858 39.415 17.2062C37.7107 16.7178 34.6586 17.0867 32.9756 17.0867C30.0914 17.0867 27.4448 17.0757 24.5664 17.2583C24.4645 17.2649 24.3743 17.2685 24.2812 17.2737C23.7444 17.1395 23.212 17.05 23.264 15.2599V15.2599ZM23.165 18.5284C23.8485 17.0977 37.7048 17.8794 38.4961 17.8097C38.6645 17.8391 38.8303 17.882 38.9918 17.9381C39.6159 18.1705 39.9349 18.1104 39.9012 19.1011C39.8564 20.4035 39.1077 20.1953 38.0532 20.1953C36.5432 20.1953 34.5185 19.723 33.6106 20.9719C31.4554 24.299 30.2476 24.9319 29.2275 24.0328C29.0405 23.8685 26.963 20.8897 25.9231 20.4013C24.9668 19.9518 22.2322 20.4813 23.165 18.5284V18.5284ZM23.6593 22.836C23.5094 22.6852 23.3973 22.5011 23.3321 22.2987C23.2668 22.0963 23.2503 21.8814 23.2838 21.6715C23.3359 21.3671 23.5442 20.9198 23.8771 20.8281C24.5489 20.8586 25.2063 21.0337 25.8043 21.3415C26.3936 21.8346 26.8969 22.4222 27.2937 23.0802H24.6845C24.4991 23.0801 24.3141 23.0941 24.1308 23.122C23.9523 23.0675 23.7902 22.9692 23.6593 22.836V22.836ZM39.6738 25.916C39.4866 26.5983 39.0741 27.1972 38.5033 27.6153C37.9325 28.0334 37.237 28.246 36.53 28.2187C34.4767 28.237 28.283 28.2187 27.2409 28.2187C26.3293 28.3093 25.4139 28.0883 24.6442 27.5917C24.2194 27.2819 23.8736 26.8762 23.6351 26.4077C23.3966 25.9392 23.2719 25.421 23.2714 24.8952C23.3212 23.8722 24.0824 23.8553 24.8407 23.8553H27.8569C28.5462 24.7353 29.3302 25.4386 30.4177 25.223C31.1906 24.9821 31.8679 24.5035 32.353 23.8553C34.1584 23.8553 38.4191 23.8143 38.7271 23.8553C39.7875 23.9932 39.9173 25.0287 39.6731 25.9123L39.6738 25.916ZM39.7838 21.9201C39.8225 22.1473 39.795 22.3809 39.7048 22.5931C39.6146 22.8052 39.4654 22.987 39.2749 23.1169C39.2382 23.1117 39.2074 23.1015 39.1693 23.0971C38.0136 22.9717 33.8614 23.0853 32.9756 23.0853C33.4889 22.4063 33.9494 21.7155 34.3403 21.2476C35.587 20.3324 37.707 21.2337 39.2536 21.0401C39.5396 21.2503 39.7303 21.5655 39.7838 21.9164V21.9201Z" fill="#2A2A38"></path>
<path d="M13.1712 36.2619H13.1873C13.2212 36.2656 13.2553 36.2656 13.2892 36.2619C15.7188 35.8703 15.534 32.9004 13.1294 32.673C11.1913 32.4912 9.24038 32.4912 7.30228 32.673C4.84635 32.9275 4.95561 36.0463 7.36681 36.2663C9.26908 36.435 11.2601 36.2619 13.1712 36.2619V36.2619ZM6.59975 34.0267C6.80508 33.3154 7.84641 33.358 8.35168 33.3301C9.09162 33.289 11.945 33.2685 12.605 33.3301C13.7234 33.4349 15.5186 35.214 13.1184 35.6034H9.95695C9.06008 35.6049 6.03581 35.9803 6.59975 34.0267V34.0267Z" fill="#2A2A38"></path>
<path d="M35.7351 4.00104H40.1351C40.2676 4.01259 40.4009 3.99079 40.5229 3.93764C40.6448 3.88448 40.7515 3.80165 40.8332 3.6967C40.9542 3.48257 40.7291 3.33004 40.5311 3.33004H36.1311C35.9986 3.31849 35.8653 3.34028 35.7434 3.39344C35.6214 3.44659 35.5147 3.52942 35.433 3.63437C35.312 3.85071 35.5371 4.00104 35.7351 4.00104Z" fill="#2A2A38"></path>
<path d="M14.8777 40.0482H6.07769C5.86943 40.0482 5.48076 40.1216 5.37443 40.3313C5.26809 40.541 5.46463 40.6187 5.65529 40.6187H14.4553C14.6636 40.6187 15.0522 40.5454 15.1586 40.3357C15.2649 40.1259 15.0684 40.0482 14.8777 40.0482Z" fill="#2A2A38"></path>
<path d="M15.407 3.66676C15.407 3.93809 15.0844 4.16469 14.681 4.16469H13.933C13.5297 4.16469 13.207 3.93809 13.207 3.66676C13.207 3.39542 13.5297 3.16882 13.933 3.16882H14.681C15.0844 3.16882 15.407 3.39542 15.407 3.66676Z" fill="#2A2A38"></path>
<path d="M19.0738 3.66676C19.0738 3.93809 18.7511 4.16469 18.3478 4.16469H17.5998C17.1964 4.16469 16.8738 3.93809 16.8738 3.66676C16.8738 3.39542 17.1964 3.16882 17.5998 3.16882H18.3478C18.7511 3.16882 19.0738 3.39542 19.0738 3.66676Z" fill="#2A2A38"></path>
<path d="M22.7405 3.66676C22.7405 3.93809 22.4179 4.16469 22.0145 4.16469H21.2665C20.8632 4.16469 20.5405 3.93809 20.5405 3.66676C20.5405 3.39542 20.8632 3.16882 21.2665 3.16882H22.0145C22.4179 3.16882 22.7405 3.39542 22.7405 3.66676Z" fill="#2A2A38"></path>
<path d="M31.5617 13.5785C31.6906 13.5761 31.8152 13.6248 31.9083 13.714C32.0015 13.8031 32.0556 13.9255 32.0589 14.0544V14.545C32.0539 14.6737 31.9993 14.7954 31.9066 14.8847C31.8138 14.974 31.69 15.0238 31.5613 15.0238C31.4325 15.0238 31.3088 14.974 31.216 14.8847C31.1232 14.7954 31.0687 14.6737 31.0637 14.545V14.0544C31.067 13.9254 31.1212 13.8029 31.2145 13.7137C31.3078 13.6245 31.4326 13.5759 31.5617 13.5785V13.5785Z" fill="#2A2A38"></path>
<path d="M16.8739 13.5227C17.0029 13.5203 17.1276 13.569 17.2209 13.6581C17.3141 13.7473 17.3684 13.8696 17.3718 13.9986V14.4892C17.3649 14.6166 17.3094 14.7365 17.2168 14.8242C17.1242 14.9119 17.0015 14.9608 16.8739 14.9608C16.7463 14.9608 16.6236 14.9119 16.531 14.8242C16.4384 14.7365 16.3829 14.6166 16.376 14.4892V13.9986C16.3794 13.8696 16.4337 13.7473 16.527 13.6581C16.6202 13.569 16.7449 13.5203 16.8739 13.5227Z" fill="#2A2A38"></path>
<path d="M3.66639 13.5227C3.79538 13.5203 3.92008 13.569 4.01334 13.6581C4.1066 13.7473 4.16086 13.8696 4.16432 13.9986V14.4892C4.15741 14.6166 4.10193 14.7365 4.00931 14.8242C3.91669 14.9119 3.79397 14.9608 3.66639 14.9608C3.53882 14.9608 3.41609 14.9119 3.32347 14.8242C3.23085 14.7365 3.17537 14.6166 3.16846 14.4892V13.9986C3.17192 13.8696 3.22618 13.7473 3.31944 13.6581C3.4127 13.569 3.5374 13.5203 3.66639 13.5227V13.5227Z" fill="#2A2A38"></path>
<path d="M6.59974 25.3066C6.72885 25.3042 6.85365 25.353 6.94693 25.4423C7.04021 25.5316 7.0944 25.6542 7.09767 25.7833V26.2739C7.09075 26.4012 7.03528 26.5211 6.94265 26.6089C6.85003 26.6966 6.72731 26.7455 6.59974 26.7455C6.47216 26.7455 6.34944 26.6966 6.25682 26.6089C6.1642 26.5211 6.10872 26.4012 6.10181 26.2739V25.7833C6.10508 25.6542 6.15926 25.5316 6.25254 25.4423C6.34582 25.353 6.47063 25.3042 6.59974 25.3066Z" fill="#2A2A38"></path>
<path d="M9.53309 25.3066C9.6622 25.3042 9.787 25.353 9.88028 25.4423C9.97356 25.5316 10.0277 25.6542 10.031 25.7833V26.2739C10.0241 26.4012 9.96862 26.5211 9.876 26.6089C9.78338 26.6966 9.66066 26.7455 9.53309 26.7455C9.40551 26.7455 9.28279 26.6966 9.19017 26.6089C9.09755 26.5211 9.04207 26.4012 9.03516 26.2739V25.7833C9.03843 25.6542 9.09261 25.5316 9.18589 25.4423C9.27917 25.353 9.40398 25.3042 9.53309 25.3066Z" fill="#2A2A38"></path>
<path d="M8.10248 22.7334C8.10504 22.8624 8.05642 22.9873 7.96724 23.0806C7.87806 23.1739 7.75558 23.2281 7.62655 23.2313H6.53828C6.4109 23.2244 6.291 23.1689 6.20327 23.0763C6.11555 22.9837 6.06665 22.861 6.06665 22.7334C6.06665 22.6058 6.11555 22.4831 6.20327 22.3905C6.291 22.2979 6.4109 22.2424 6.53828 22.2355H7.62655C7.75558 22.2387 7.87806 22.293 7.96724 22.3863C8.05642 22.4796 8.10504 22.6044 8.10248 22.7334V22.7334Z" fill="#2A2A38"></path>
<path d="M12.4664 25.3066C12.5955 25.3042 12.7204 25.353 12.8136 25.4423C12.9069 25.5316 12.9611 25.6542 12.9644 25.7833V26.2739C12.9575 26.4012 12.902 26.5211 12.8094 26.6089C12.7167 26.6966 12.594 26.7455 12.4664 26.7455C12.3389 26.7455 12.2161 26.6966 12.1235 26.6089C12.0309 26.5211 11.9754 26.4012 11.9685 26.2739V25.7833C11.9718 25.6542 12.026 25.5316 12.1192 25.4423C12.2125 25.353 12.3373 25.3042 12.4664 25.3066V25.3066Z" fill="#2A2A38"></path>
<path d="M28.1444 13.7339C28.2372 13.8235 28.2907 13.9462 28.2935 14.0751C28.2962 14.2041 28.2479 14.3289 28.1591 14.4225L27.8122 14.7693C27.7177 14.8566 27.593 14.9039 27.4644 14.9012C27.3358 14.8986 27.2131 14.8463 27.1222 14.7553C27.0313 14.6643 26.9791 14.5416 26.9767 14.413C26.9742 14.2844 27.0216 14.1598 27.1089 14.0653L27.4558 13.7185C27.5493 13.6295 27.6743 13.5812 27.8033 13.5841C27.9323 13.587 28.0549 13.6408 28.1444 13.7339Z" fill="#2A2A38"></path>
<path d="M35.0532 13.7339C34.9602 13.8233 34.9063 13.946 34.9034 14.075C34.9006 14.204 34.9489 14.3289 35.0378 14.4225L35.3847 14.7693C35.4797 14.8538 35.6035 14.8988 35.7306 14.895C35.8577 14.8913 35.9786 14.8391 36.0685 14.7492C36.1585 14.6593 36.2106 14.5384 36.2144 14.4113C36.2181 14.2841 36.1731 14.1604 36.0887 14.0653L35.7418 13.7185C35.6483 13.6295 35.5233 13.5812 35.3943 13.5841C35.2653 13.587 35.1426 13.6408 35.0532 13.7339V13.7339Z" fill="#2A2A38"></path>
</svg>
