<svg width="44" height="44" fill="none" xmlns="http://www.w3.org/2000/svg"><path d="M11.987 31.9a.366.366 0 0 1-.2-.674l10.659-6.918L9.739 31.64a.367.367 0 0 1-.38-.625l11.577-7.42L9.74 30.06a.366.366 0 0 1-.38-.625l11.38-7.285-11 6.351a.367.367 0 0 1-.376-.629l5.774-3.588-5.397 3.115a.367.367 0 0 1-.381-.626l11.089-7.082L9.74 25.873a.367.367 0 0 1-.375-.63l3.094-1.906-2.721 1.57a.367.367 0 0 1-.375-.63l2.115-1.301-1.74 1.004a.367.367 0 0 1-.375-.63l1.462-.897-1.087.628a.367.367 0 0 1-.382-.626l12.213-7.862L9.739 21.42a.367.367 0 0 1-.382-.626l11.973-7.697L9.739 19.79a.367.367 0 0 1-.376-.629l5.313-3.3-4.937 2.853a.367.367 0 0 1-.379-.628L18 12.646 9.74 17.413a.367.367 0 0 1-.375-.63l2.555-1.573-2.18 1.261a.367.367 0 0 1-.377-.628l6.142-3.838-5.765 3.328a.367.367 0 0 1-.379-.627l6.929-4.375-6.55 3.781a.366.366 0 0 1-.385-.623l9.381-6.178-8.996 5.194a.366.366 0 0 1-.383-.625l6.1-3.973-5.72 3.3a.367.367 0 0 1-.379-.627l.836-.529-.456.263a.366.366 0 0 1-.387-.622l4.254-2.829-3.865 2.23a.367.367 0 0 1-.389-.62l3.29-2.225L9.74 7.926a.367.367 0 0 1-.393-.62L11.953 5.5 9.74 6.777a.367.367 0 0 1-.406-.607l3.037-2.34-2.631 1.518a.367.367 0 0 1-.435-.586l2.248-2.115-1.813 1.047a.367.367 0 0 1-.478-.536l.88-1.188a.367.367 0 0 1-.342-.648l1.503-.867a.367.367 0 0 1 .477.536l-.88 1.186L13.913.44a.367.367 0 0 1 .434.587L12.1 3.139 16.778.44a.367.367 0 0 1 .407.608l-3.037 2.34L19.254.44a.367.367 0 0 1 .392.618L17.044 2.86 21.241.44a.366.366 0 0 1 .389.62l-3.296 2.225L23.268.44a.367.367 0 0 1 .387.622l-4.252 2.825L25.379.44a.367.367 0 0 1 .38.627l-.837.53L26.927.44a.367.367 0 0 1 .383.624l-6.102 3.973L29.173.44a.367.367 0 0 1 .386.623L20.176 7.24 31.958.44a.367.367 0 0 1 .38.627l-6.926 4.37L33.357.852a.367.367 0 0 1 .377.629L27.6 5.312l6.412-3.699a.367.367 0 1 1 .376.63L31.827 3.82l2.42-1.399a.367.367 0 0 1 .379.627l-8.639 5.438 8.275-4.777a.367.367 0 0 1 .376.629l-5.315 3.3 4.94-2.853a.367.367 0 0 1 .382.627l-11.97 7.694L34.26 6.414a.367.367 0 0 1 .382.625l-12.21 7.867 11.833-6.831a.367.367 0 0 1 .375.629l-1.455.892 1.08-.623a.367.367 0 0 1 .375.63l-2.126 1.307 1.752-1.01a.366.366 0 0 1 .376.63l-3.088 1.906 2.713-1.567a.367.367 0 0 1 .38.627l-11.09 7.077 10.71-6.18a.366.366 0 0 1 .378.629l-5.781 3.593 5.405-3.12a.366.366 0 0 1 .38.626l-11.376 7.278 11-6.35a.367.367 0 0 1 .381.627l-11.578 7.419 11.195-6.464a.366.366 0 0 1 .383.624L23.99 24.178l10.283-5.94a.367.367 0 1 1 .382.626l-7.303 4.694 6.922-3.996a.367.367 0 0 1 .386.622l-7.342 4.84 6.957-4.017a.367.367 0 0 1 .385.624L30.09 24.62l4.185-2.415a.367.367 0 0 1 .395.617l-6.127 4.317 5.734-3.305a.367.367 0 0 1 .397.616l-4.253 3.055 3.86-2.228a.367.367 0 0 1 .41.605l-3.51 2.764 3.098-1.79a.366.366 0 0 1 .399.614l-.352.256a.367.367 0 0 1 .378.616l-1.118.975.692-.4a.367.367 0 0 1 .491.513l-.645 1.004.158-.09a.365.365 0 0 1 .514.125.366.366 0 0 1-.148.509l-1.474.85a.367.367 0 0 1-.49-.516l.647-1.003-2.64 1.522a.367.367 0 0 1-.424-.594l1.119-.97-2.718 1.568a.367.367 0 0 1-.399-.614l.322-.234-1.472.85a.367.367 0 0 1-.41-.606l3.51-2.763-5.838 3.374a.367.367 0 0 1-.397-.616l4.253-3.054-6.36 3.672a.367.367 0 0 1-.395-.618l6.127-4.319-8.549 4.936a.367.367 0 0 1-.384-.624l4.57-2.99-6.264 3.616a.366.366 0 0 1-.385-.623l7.34-4.84-9.466 5.465a.366.366 0 0 1-.382-.626l7.304-4.693-9.22 5.322a.363.363 0 0 1-.187.051Z" fill="#3B2186"/><path d="M25.158 20.154a.366.366 0 0 1-.294-.586l.83-1.072-2.758 1.592a.366.366 0 0 1-.423-.595l1.466-1.267-1.04.6a.366.366 0 0 1-.434-.587l2.076-1.959-1.642.948a.367.367 0 0 1-.426-.592l1.57-1.378-1.144.66a.367.367 0 0 1-.416-.6l.936-.772-.52.3a.367.367 0 0 1-.474-.54l1.014-1.32-.54.31a.366.366 0 0 1-.534-.422l.176-.587a.367.367 0 0 1-.009-.64l.367-.213a.367.367 0 0 1 .534.423l-.102.338 1.334-.77a.367.367 0 0 1 .474.54l-1.013 1.32 2.76-1.593a.367.367 0 0 1 .416.6l-.935.77.522-.3a.367.367 0 0 1 .425.593l-1.567 1.385 1.148-.66a.366.366 0 0 1 .435.587l-2.079 1.96 1.649-.953a.367.367 0 0 1 .423.595l-1.462 1.258 1.042-.6a.366.366 0 0 1 .473.54l-.829 1.072.36-.206a.366.366 0 0 1 .533.43l-.16.49a.366.366 0 0 1-.004.632l-.367.213a.362.362 0 0 1-.413-.032.366.366 0 0 1-.118-.398l.073-.22-1.146.66a.358.358 0 0 1-.187.046ZM18.867 20.156a.366.366 0 0 1-.285-.597l1.145-1.411-2.646 1.526a.367.367 0 1 1-.413-.607l.338-.265a.367.367 0 0 1-.36-.615l1.907-1.76-1.481.854a.367.367 0 0 1-.44-.582l2.18-2.102-1.747 1.009a.367.367 0 0 1-.424-.595l1.187-1.026-.766.44a.366.366 0 0 1-.467-.551l.66-.803-.198.114a.367.367 0 0 1-.533-.43l.158-.481a.367.367 0 0 1 .005-.631l.367-.214a.366.366 0 0 1 .531.431l-.069.212 1.128-.651a.367.367 0 0 1 .466.55l-.66.807 2.366-1.365a.367.367 0 0 1 .423.595l-1.185 1.022.993-.563a.367.367 0 0 1 .44.581L19.3 15.151l1.755-1.013a.367.367 0 0 1 .432.587l-1.907 1.754 1.483-.855a.367.367 0 0 1 .41.605l-.338.266a.367.367 0 0 1 .401.578l-1.14 1.41.68-.393a.368.368 0 0 1 .539.412l-.195.733a.362.362 0 0 1 .03.647l-.372.214a.367.367 0 0 1-.537-.411l.137-.518-1.627.94a.362.362 0 0 1-.184.05Z" fill="#D3B571"/><path d="M22.674 20.151a.366.366 0 0 1-.343-.497l.422-1.109-2.014 1.163a.367.367 0 0 1-.435-.587l.61-.573-.175.1a.366.366 0 0 1-.436-.582l.68-.649-.244.14a.367.367 0 0 1-.433-.586l.502-.464-.07.038a.367.367 0 0 1-.44-.578l.854-.84-.413.237a.367.367 0 0 1-.457-.56l1.377-1.547-.92.53a.367.367 0 0 1-.453-.566l1.247-1.345-.792.457a.367.367 0 0 1-.433-.587l.496-.46-.063.034a.366.366 0 0 1-.523-.455l.492-1.206a.367.367 0 0 1-.297-.667l.854-.485a.367.367 0 0 1 .523.456l-.486 1.194 1.937-1.12a.367.367 0 0 1 .433.587l-.495.46.086-.048a.367.367 0 0 1 .453.566l-1.247 1.345.793-.457a.367.367 0 0 1 .457.56l-1.377 1.548.925-.533a.366.366 0 0 1 .44.579l-.852.84.414-.24a.367.367 0 0 1 .433.587l-.502.465.073-.042a.367.367 0 0 1 .437.583l-.68.65.246-.148a.366.366 0 0 1 .435.587l-.608.573.176-.101a.367.367 0 0 1 .527.447l-.43 1.128a.367.367 0 0 1 .274.672l-.79.458a.367.367 0 0 1-.188.048ZM26.407 16.407a.366.366 0 0 1-.262-.623l1.026-1.048-.58.335a.367.367 0 0 1-.43-.587l.367-.335a.367.367 0 0 1-.394-.593l1.293-1.41-.834.482a.367.367 0 0 1-.44-.582l.503-.483-.065.036a.36.36 0 0 1-.436-.052.366.366 0 0 1-.074-.433l.363-.7a.367.367 0 0 1-.18-.684l.852-.492a.36.36 0 0 1 .435.053.367.367 0 0 1 .074.433l-.319.617 1.578-.911a.367.367 0 0 1 .44.581l-.5.484.293-.17a.367.367 0 0 1 .454.565l-1.287 1.406.837-.483a.366.366 0 0 1 .43.587l-.367.334a.367.367 0 0 1 .385.602l-1.026 1.048.586-.337a.365.365 0 0 1 .514.126.366.366 0 0 1-.147.508l-2.905 1.677a.358.358 0 0 1-.184.049ZM16.802 16.414a.367.367 0 0 1-.332-.522l.283-.604-.753.433a.366.366 0 0 1-.476-.537l.68-.903-1.279.738a.367.367 0 0 1-.43-.587l.385-.356-.008.005a.367.367 0 0 1-.434-.587l.55-.513-.116.067a.367.367 0 0 1-.447-.57l.965-1.005-.518.299a.366.366 0 0 1-.514-.473l.418-.888a.36.36 0 0 1-.367-.18.367.367 0 0 1 .134-.501l.852-.491a.367.367 0 0 1 .513.472l-.395.842 1.748-1.008a.367.367 0 0 1 .447.572l-.96 1 .646-.372a.367.367 0 0 1 .435.587l-.551.513.117-.067a.367.367 0 0 1 .43.587l-.394.367a.366.366 0 0 1 .44.556l-.679.903.203-.117a.367.367 0 0 1 .514.473l-.323.689a.366.366 0 0 1 .174.684l-.776.448a.366.366 0 0 1-.182.046Z" fill="#F2CF7E"/><path d="M20.296 4.745a.367.367 0 0 1-.22-.66l.121-.092-1.216.7a.367.367 0 0 1-.424-.594l1.3-1.128-2.962 1.71a.367.367 0 0 1-.424-.594l1.269-1.1-1.875 1.086a.367.367 0 0 1-.434-.587l.87-.806-.696.4a.367.367 0 0 1-.446-.572l.256-.265a.367.367 0 0 1-.34-.482l.156-.48a.366.366 0 0 1 .007-.632l.367-.211a.366.366 0 0 1 .532.432l-.068.207 1.114-.642a.367.367 0 0 1 .446.572l-.123.127 1.216-.701a.367.367 0 0 1 .433.586l-.868.807 2.42-1.399a.367.367 0 0 1 .423.595l-1.268 1.1L22.806.425a.367.367 0 0 1 .423.595l-1.303 1.129 2.99-1.727a.367.367 0 0 1 .404.609l-.122.093 1.22-.705a.367.367 0 0 1 .425.594L25.52 2.168l2.875-1.66a.367.367 0 0 1 .406.608l-.317.244a.372.372 0 0 1 .386.134.366.366 0 0 1-.038.484l-.619.602.182-.105a.367.367 0 0 1 .366.634l-2.745 1.584a.366.366 0 0 1-.44-.58l.62-.602-2.047 1.182a.367.367 0 0 1-.407-.608l.24-.184-1.373.792a.367.367 0 0 1-.424-.593l1.326-1.156-3.031 1.75a.361.361 0 0 1-.184.05Z" fill="#E0EEFE"/><path d="M26.458 16.884a.367.367 0 0 1-.289-.59l.642-.829a.367.367 0 0 1 .04-.607l.844-.486a.367.367 0 0 1 .472.542l-.273.351 1.55-.892a.365.365 0 0 1 .514.126.368.368 0 0 1-.148.509l-3.169 1.829a.358.358 0 0 1-.183.047Z" fill="#CAB5CF"/><path d="M15.977 30.429a.367.367 0 0 1-.202-.673l3.939-2.602L15.3 29.7a.366.366 0 0 1-.39-.62l7.135-4.868L15.1 28.22a.367.367 0 0 1-.385-.623l4.649-3.045-4.416 2.55a.366.366 0 1 1-.38-.627l1.447-.92-1.185.683a.367.367 0 0 1-.382-.626l3.007-1.928-2.754 1.59a.367.367 0 0 1-.41-.606l3.418-2.683-3.206 1.848a.367.367 0 0 1-.412-.603l2.123-1.702-1.876 1.084a.367.367 0 0 1-.432-.586l2.208-2.034-1.98 1.141a.367.367 0 0 1-.418-.598l.902-.753-.619.357a.367.367 0 0 1-.43-.587l1.153-1.044-.876.506a.367.367 0 0 1-.425-.594l.677-.593-.383.22a.367.367 0 0 1-.428-.587l.599-.538-.3.173a.367.367 0 0 1-.531-.435l.397-1.164-.012.007a.37.37 0 0 1-.501-.134.365.365 0 0 1 .134-.502l.86-.494a.367.367 0 0 1 .531.436l-.396 1.162 2.494-1.44a.366.366 0 0 1 .428.587l-.6.54.562-.325a.367.367 0 0 1 .425.593l-.675.594.636-.367a.367.367 0 0 1 .43.587l-1.154 1.045 1.32-.762a.367.367 0 0 1 .419.599l-.902.753 1.166-.672a.367.367 0 0 1 .431.586l-2.208 2.034 3.18-1.837a.366.366 0 0 1 .412.604l-2.122 1.7 3.498-2.019a.367.367 0 0 1 .41.606l-3.417 2.681 11.78-6.797a.366.366 0 0 1 .381.626l-3.006 1.928 2.47-1.426a.367.367 0 0 1 .382.626l-1.455.926.938-.541a.367.367 0 0 1 .384.623l-4.645 3.043 4.085-2.359a.367.367 0 0 1 .391.62l-7.135 4.87 6.511-3.76a.367.367 0 0 1 .385.623l-3.94 2.604 3.383-1.954a.367.367 0 0 1 .39.62l-3.684 2.512 3.115-1.797a.367.367 0 0 1 .388.62l-1.348.913.817-.472a.366.366 0 0 1 .41.606l-3.11 2.44 2.483-1.434a.367.367 0 0 1 .427.592l-1.82 1.613 1.188-.685a.367.367 0 0 1 .458.56l-.715.81.079-.046a.367.367 0 0 1 .518.468l-.227.503a.367.367 0 0 1-.05.6l-.399.229a.366.366 0 0 1-.517-.467l.057-.13-1.037.6a.366.366 0 0 1-.458-.56l.716-.811-2.384 1.373a.367.367 0 0 1-.427-.59l1.82-1.617-3.826 2.209a.367.367 0 0 1-.409-.606l3.11-2.44-5.28 3.05a.367.367 0 0 1-.39-.622l1.349-.911-2.66 1.535a.367.367 0 0 1-.389-.62l3.684-2.513-5.43 3.135a.362.362 0 0 1-.182.052Z" fill="#CAB5CF"/><path d="M21.017 43.46a.367.367 0 0 1-.203-.672l7.665-5.118-8.621 4.977a.367.367 0 0 1-.382-.625l5.627-3.639-6.196 3.578a.367.367 0 0 1-.385-.624l7.266-4.798-7.993 4.62a.367.367 0 0 1-.39-.62l7.675-5.236-9.228 5.324a.367.367 0 0 1-.383-.625l4.228-2.749-5.851 3.374a.367.367 0 0 1-.385-.624l5.067-3.334-6.857 3.96a.367.367 0 0 1-.38-.626l2.65-1.7-4.028 2.324a.367.367 0 0 1-.386-.624l5.15-3.393-6.87 3.967a.366.366 0 0 1-.394-.62l7.35-5.088-8.31 4.8a.366.366 0 0 1-.381-.626l.726-.464-.66.38a.367.367 0 0 1-.388-.621l3.866-2.602-3.544 2.045a.367.367 0 0 1-.403-.61l4.913-3.672-4.51 2.602a.367.367 0 0 1-.391-.62l.571-.392-.18.104a.367.367 0 0 1-.409-.606l2.005-1.569-1.596.921a.367.367 0 0 1-.411-.603l.607-.486-.196.113a.367.367 0 0 1-.475-.539l.84-1.104a.366.366 0 0 1-.303-.664l1.504-.868a.367.367 0 0 1 .475.539l-.829 1.09 2.85-1.644a.367.367 0 0 1 .413.604l-.609.485 1.888-1.089a.367.367 0 0 1 .409.606l-2.006 1.569 3.768-2.175a.366.366 0 0 1 .487.126.367.367 0 0 1-.096.494l-.567.39 1.748-1.01a.367.367 0 0 1 .403.611l-4.913 3.672 7.42-4.283a.367.367 0 0 1 .39.621l-3.867 2.602 5.583-3.227a.367.367 0 0 1 .382.626l-.722.46 1.883-1.082a.367.367 0 0 1 .392.618l-7.352 5.091 9.891-5.709a.367.367 0 0 1 .385.623l-5.145 3.39 6.953-4.013a.366.366 0 0 1 .381.626L24.978 32.1l4.033-2.328a.367.367 0 0 1 .385.623l-5.066 3.337 6.856-3.96a.367.367 0 0 1 .383.624l-4.224 2.75 5.846-3.374a.367.367 0 0 1 .39.62l-7.672 5.23 10.105-5.834a.367.367 0 0 1 .386.623l-7.27 4.8 8.213-4.741a.367.367 0 0 1 .382.624l-5.623 3.636 5.756-3.322a.366.366 0 0 1 .387.622L30.58 37.15l7.348-4.242a.367.367 0 0 1 .396.616l-3.637 2.587 3.244-1.872a.366.366 0 0 1 .403.61l-2.67 1.986 2.267-1.309a.366.366 0 0 1 .41.607l-1.649 1.295 1.239-.714a.366.366 0 0 1 .44.575l-1.32 1.32.853-.492a.366.366 0 0 1 .366.635l-3.244 1.876a.367.367 0 0 1-.44-.576l1.32-1.32-3.295 1.896a.367.367 0 0 1-.41-.606l1.65-1.296-3.296 1.902a.367.367 0 0 1-.403-.612l2.67-1.985-4.499 2.597a.367.367 0 0 1-.396-.616l3.639-2.586L21.2 43.413a.368.368 0 0 1-.184.047Z" fill="#D3B571"/><path d="M19.254 37.71a.366.366 0 0 1-.322-.543l.05-.093-.63.367a.367.367 0 0 1-.458-.561l.763-.86-1.724.995a.366.366 0 0 1-.435-.587l.494-.466-.186.107a.366.366 0 0 1-.483-.528l1.203-1.71a.367.367 0 0 1 .01-.63l.797-.46a.366.366 0 0 1 .483.529l-.937 1.334 1.459-.841a.366.366 0 0 1 .435.586l-.494.467.97-.56a.367.367 0 0 1 .457.561l-.82.924a.366.366 0 0 1 .371.54l-.197.36a.367.367 0 0 1 .026.648l-.647.373a.359.359 0 0 1-.185.047ZM33.578 37.609a.367.367 0 0 1-.303-.573l.69-1.013-2.335 1.348a.367.367 0 0 1-.448-.57l1.045-1.093-.723.417a.367.367 0 0 1-.487-.522l1.192-1.76a.367.367 0 0 1-.008-.64l.799-.461a.367.367 0 0 1 .487.523l-.967 1.428 1.564-.902a.367.367 0 0 1 .448.57l-1.046 1.093 1.506-.87a.367.367 0 0 1 .486.524l-.814 1.196a.366.366 0 0 1 .105.676l-1.006.58a.368.368 0 0 1-.185.049ZM11.096 37.474a.367.367 0 0 1-.293-.587l.888-1.194L9.598 36.9a.367.367 0 0 1-.46-.558l.988-1.14-.889.514a.366.366 0 0 1-.455-.564l1.3-1.431a.367.367 0 0 1 .12-.523l.798-.457a.366.366 0 0 1 .455.564l-.55.605.744-.43a.367.367 0 0 1 .46.558l-.989 1.141 1.741-1.004a.366.366 0 0 1 .478.536l-.89 1.197a.367.367 0 0 1 .333.651l-1.501.867a.36.36 0 0 1-.185.047ZM26.527 37.693a.368.368 0 0 1-.319-.547l.462-.812-2.2 1.27a.367.367 0 0 1-.422-.595l.341-.293-.129.073a.367.367 0 0 1-.446-.573l.66-.68-.5.29a.367.367 0 0 1-.463-.553l1.267-1.51a.367.367 0 0 1 .09-.561l.799-.46a.367.367 0 0 1 .464.553l-.717.853.982-.567a.366.366 0 0 1 .446.573l-.66.68 1.276-.733a.367.367 0 0 1 .423.596l-.356.304a.366.366 0 0 1 .455.522l-.598 1.05a.366.366 0 0 1 .048.66l-.717.413a.359.359 0 0 1-.186.047Z" fill="#F2CF7E"/><path d="M38.666 32.21c0-.017-.01-.026-.012-.04-.002-.013.012-.027.01-.042-.116-2.16-1.953-2.391-3.666-2.394V4.218c.027-.556.022-1.112-.014-1.668-.176-1.53-1.556-2.095-2.909-2.095H13.273a7.219 7.219 0 0 0-2.435.197 2.728 2.728 0 0 0-1.833 2.776c-.006 2.483 0 4.967 0 7.451v18.86c-.232 0-.463 0-.695.009a2.832 2.832 0 0 0-2.974 2.65c-.052 1.5 0 3.01 0 4.511 0 1.475 0 3.072 1.716 3.615 1.065.337 6.727.128 8.327.128a2.795 2.795 0 0 1 1.67.378c.595.38 1.154.834 1.727 1.247a6.967 6.967 0 0 0 1.845 1.114 4.172 4.172 0 0 0 3.399-.412c.567-.342 1.091-.773 1.628-1.16a4.935 4.935 0 0 1 1.996-1.168c1.161-.137 6.486.02 7.934 0 1.584-.02 3.03-.946 3.09-2.649.051-1.475 0-2.96 0-4.434l-.002-1.359ZM27.353 4.136H18.52c-.625.09-1.26.049-1.869-.12-.942-.471-.788-1.976-.733-3.007h12.155c.034.817.285 3.069-.719 3.127ZM10.065 2.869a1.76 1.76 0 0 1 1.462-1.857c.194-.01.388-.01.582 0h2.76v1.335a2.705 2.705 0 0 0 .246 1.54c.513.81 1.42.774 2.26.774h9.538c1.119-.065 2.183-.69 2.215-1.907.015-.579.007-1.16 0-1.741h1.4c.806 0 1.841-.151 2.538.346.88.628.864 1.58.864 2.524v18.855c0 2.33-.089 4.68 0 7.007h-4.55l1.325-9.738c.198-1.462.46-2.934.597-4.4.088-.934-.616-1.242-1.45-1.32v-2.67c0-.45.003-.9 0-1.349a1.049 1.049 0 0 0-1.146-1.061c-1.001-.015-2.84-.21-2.854 1.238v.961H24v-1.402c.07-.4-.007-.812-.215-1.162a1.54 1.54 0 0 0-1.295-.377c-.898 0-2.4-.125-2.493 1.13-.045.62-.048 1.247-.04 1.88h-1.818v-.922a1.295 1.295 0 0 0-.445-1.2 3.374 3.374 0 0 0-1.849-.22 2.678 2.678 0 0 0-.768.06 1.285 1.285 0 0 0-.944 1.018 8.049 8.049 0 0 0-.005 1.027v3.122c-.66.05-1.32.24-1.45.981-.017.372.02.744.108 1.105l.312 2.296 1.49 10.956c-1.509-.003-3.016.004-4.523.024V4.886c0-.67-.028-1.347 0-2.017Zm14.329 26.879c-2.9 0-5.802-.031-8.705-.043-.41-3.011-.82-6.023-1.228-9.035-.175-1.747-.574-3.479-.711-5.229-.04-.507.333-.463.718-.463.576 0 1.547-.228 1.938.334.542.777.777 1.764 1.43 2.46 1.654 1.764 4.482 2.009 6.616 1.042 1.462-.66 2.39-2.137 3.102-3.747.155-.35 1.28-.085 1.603-.084.49 0 1.08.004 1.094.647a25.268 25.268 0 0 1-.504 3.71l-1.415 10.408h-3.938ZM17.06 10.183c0 .377-.006 3.442-.006 4.316a3.925 3.925 0 0 0-1.85-.168c0-.785-.004-4.02 0-4.102.016-.25.074-.293.286-.293h.835c.122-.003.736-.036.736.247Zm10.86-.323c.42 0 .83-.025.865.526.025.403 0 .815 0 1.218v2.682c-.325.018-.63.046-.87.06-.348.01-.687.112-.983.294.001-4.542-.505-4.78.989-4.78Zm-2.069 6.776A4.464 4.464 0 0 1 24 18.36v-6.3h1.852c.002.51 0 3.559 0 4.575Zm-2.919-6.385v8.433a4.82 4.82 0 0 1-1.865-.067c0-2.874-.47-8.686 0-9.482.162-.273 1.324-.117 1.618.042.348.186.248.756.248 1.074Zm-2.944 7.966a4.345 4.345 0 0 1-1.17-.873 5.335 5.335 0 0 1-.679-.931v-4.42h1.826c.007.362.023 6.198.023 6.224Zm16.253 21.79c-1.015.147-6.134.007-7.617.007a4.685 4.685 0 0 0-2.957.957c-.616.445-1.228.894-1.846 1.333a2.722 2.722 0 0 1-3.318.08c-.97-.646-1.849-1.5-2.875-2.054-.946-.508-2.274-.316-3.31-.316-1.583 0-5.587.018-6.002 0a1.993 1.993 0 0 1-1.917-1.954c-.08-1.264 0-2.558 0-3.824 0-1.285-.367-3.667 1.467-3.851.416-.042 26.318-.074 27.85 0A1.999 1.999 0 0 1 37.6 32.4v3.585c0 1.25.4 3.765-1.36 4.02Z" fill="#2A2A38"/><path d="M20.392 33.94c-.28-.088-.551-.206-.807-.352-.337-.28-.452-.773-.902-.914a1.094 1.094 0 0 0-1.105.44c-.132.152-.235.366-.388.513-.204.195-.461.199-.707.31a1.1 1.1 0 0 0-.608 1.528c.102.201.3.374.389.594.065.288.087.585.066.88a.814.814 0 0 0 1.03.806c.249-.043.489-.188.74-.22.299.01.595.07.873.18a1.05 1.05 0 0 0 1.309-.605c.175-.488-.022-.972.259-1.432.366-.603.648-1.304-.15-1.727Zm-.55 1.54c-.302.469-.174.772-.305 1.267-.081.305.028.22-.294.193-.22-.02-.432-.15-.656-.176-.494-.054-1.237.505-1.455-.073-.152-.405.027-.799-.194-1.215-.14-.266-.526-.61-.235-.9.12-.121.422-.128.576-.208.197-.104.37-.248.508-.423.172-.2.335-.642.61-.452.211.358.5.664.844.896.19.098.44.11.618.224.423.275.18.563-.017.87v-.002ZM34.89 33.896a4.558 4.558 0 0 1-.783-.331c-.283-.23-.39-.606-.688-.807a.815.815 0 0 0-1.173.234c-.155.243-.347.46-.568.643-.236.147-.54.155-.776.312a1.11 1.11 0 0 0-.22 1.54c.134.172.25.356.348.55.041.253.052.51.033.766.06.623.454 1.1 1.118.986.25-.042.488-.184.74-.216.306.004.609.065.894.178a.822.822 0 0 0 1.13-.738c.035-.258-.026-.531.032-.786.08-.217.193-.421.337-.603a1.182 1.182 0 0 0-.423-1.728Zm-.43 1.54c-.22.413-.033.846-.2 1.235-.23.533-1.027-.023-1.511.044-.25.034-.581.259-.824.238-.175-.016-.155-.078-.191-.27a3.006 3.006 0 0 0-.286-1.262c-.182-.294-.462-.434-.053-.75.157-.12.424-.122.6-.215.255-.135.961-1.174 1.2-.963.223.374.525.695.885.94.166.087.505.096.618.229.262.31-.1.52-.238.777v-.003ZM13.206 34.108c-.263-.186-.634-.185-.886-.367-.372-.271-.474-.75-.907-.953a1.018 1.018 0 0 0-1.181.22c-.18.183-.286.451-.479.62a2.377 2.377 0 0 1-.69.32.958.958 0 0 0-.534 1.426c.144.19.273.39.384.601.046.29.063.582.051.875a.953.953 0 0 0 1.144.86c.253-.034.486-.167.734-.205.242-.025.486.01.712.1.505.143 1.145.21 1.414-.366.209-.445-.017-.967.22-1.411.317-.592.764-1.19.018-1.72Zm-.807 1.393c-.272.45-.116.801-.237 1.282-.083.33-.13.269-.451.174a3.056 3.056 0 0 0-.643-.147 1.991 1.991 0 0 0-.741.12c-.348.101-.384.21-.496-.088-.174-.464.037-.856-.25-1.32-.195-.318-.55-.606-.068-.981.157-.123.432-.13.612-.227.156-.083.884-.923.92-.925.204.34.47.638.784.88.187.113.455.121.627.246.495.353.15.651-.054.987H12.4ZM27.554 33.895a4.478 4.478 0 0 1-.783-.332c-.282-.23-.387-.604-.688-.806a.814.814 0 0 0-1.173.237 2.72 2.72 0 0 1-.57.642c-.235.147-.54.154-.774.312a1.111 1.111 0 0 0-.22 1.545c.134.17.253.352.354.544.029.256.036.514.023.771.061.624.46 1.1 1.122.984.25-.044.489-.186.74-.22.306.004.61.065.895.178a.82.82 0 0 0 1.128-.74c.033-.246-.027-.514.023-.753.077-.231.194-.446.346-.636a1.183 1.183 0 0 0-.423-1.726Zm-.395 1.496c-.268.446-.064.847-.233 1.286-.21.544-1.008-.02-1.467.034-.195.037-.387.09-.573.157a1.41 1.41 0 0 1-.471.082c-.052-.479-.128-.955-.229-1.427-.17-.307-.494-.551-.094-.858.151-.116.407-.118.576-.207.261-.138.953-1.173 1.199-.96.223.374.525.695.886.94.159.081.509.097.619.227.226.272-.077.499-.213.726ZM32.064 3.781a.531.531 0 1 0-1.062 0v.505a.532.532 0 1 0 1.062 0v-.505ZM12.998 3.781a.531.531 0 1 0-1.063 0v.505a.531.531 0 1 0 1.063 0v-.505Z" fill="#2A2A38"/></svg>