<svg width="286" height="238" fill="none" xmlns="http://www.w3.org/2000/svg"><path d="M254.113 37.015a.332.332 0 0 1-.16-.33.325.325 0 0 1 .247-.272l.687-.167h-1.903a.328.328 0 0 1-.064-.648l2.103-.418h-2.737a.327.327 0 0 1-.054-.65l1.064-.178h-1.225a.328.328 0 0 1-.114-.635l1.44-.535-1.249.003a.325.325 0 0 1-.294-.183.329.329 0 0 1 .035-.344l.6-.78a.325.325 0 0 1-.085-.36.332.332 0 0 1 .304-.21h.378a.327.327 0 0 1 .258.527l-.533.695h2.4a.328.328 0 0 1 .115.634l-1.44.535h3.359a.328.328 0 0 1 .054.65l-1.065.178 2.113-.001a.326.326 0 0 1 .323.296.328.328 0 0 1-.26.352l-2.098.422h1.309a.327.327 0 0 1 .075.649l-1.126.274c.042.047.07.105.081.168a.335.335 0 0 1-.144.327.326.326 0 0 1-.178.054h-2.053a.323.323 0 0 1-.163-.053Z" fill="#D4D4D7"/><path d="M254.6 42.839a.326.326 0 0 1-.152-.368.325.325 0 0 1 .316-.243h11.712a.325.325 0 0 1 .325.303.33.33 0 0 1-.278.348l-1.679.242h1.525a.327.327 0 0 1 .071.647l-2.337.527 1.624.002a.327.327 0 0 1 .257.523.325.325 0 0 1-.197.125l-2.209.41a.326.326 0 0 1-.326.322h-1.445a.326.326 0 0 1-.325-.297.326.326 0 0 1 .265-.352l.415-.077h-.995a.328.328 0 0 1-.072-.647l2.336-.528h-3.156a.325.325 0 0 1-.322-.303.327.327 0 0 1 .275-.347l1.681-.243h-7.145a.325.325 0 0 1-.164-.044ZM272.347 38.234a.33.33 0 0 1 .163-.611l1.938-.001a.326.326 0 0 1 .315.198.332.332 0 0 1 0 .257.338.338 0 0 1-.185.178.329.329 0 0 1-.13.021l-1.936.002a.327.327 0 0 1-.165-.044Z" fill="#BFDBF0"/><path d="M261.162 40.757a.328.328 0 0 1 .123-.606l3.676-.5a.328.328 0 0 1 .047-.639l1.198-.161a.324.324 0 0 1-.102-.157.33.33 0 0 1 .273-.418l2.857-.344h-1.414a.326.326 0 0 1-.254-.53.325.325 0 0 1 .204-.121l3.503-.544h-2.147a.33.33 0 0 1-.222-.088.332.332 0 0 1-.032-.443.327.327 0 0 1 .206-.12l2.673-.405h-1.712a.33.33 0 0 1-.258-.527.324.324 0 0 1 .202-.122l2.59-.445h-1.76a.327.327 0 0 1-.054-.65l1.24-.207h-.687a.326.326 0 0 1-.265-.507.321.321 0 0 1 .182-.135l1.394-.373h-.806a.326.326 0 0 1-.286-.489.33.33 0 0 1 .168-.145l1.457-.558h-.884a.326.326 0 0 1-.282-.492.328.328 0 0 1 .17-.144l1.166-.425h-.743a.326.326 0 0 1-.292-.477.325.325 0 0 1 .16-.15l1.372-.605h-1a.327.327 0 0 1-.109-.636l.866-.31h-.646a.325.325 0 0 1-.318-.258.328.328 0 0 1 .182-.367l1.213-.558h-1.033a.325.325 0 0 1-.212-.08.324.324 0 0 1-.066-.42.328.328 0 0 1 .178-.14l.59-.187h-.522a.324.324 0 0 1-.323-.282.324.324 0 0 1 .234-.36l1.916-.545-1.952-.002a.328.328 0 0 1-.07-.645l2.079-.46h-2.228a.326.326 0 0 1-.271-.519.327.327 0 0 1 .197-.129l2.226-.518-2.48.002a.325.325 0 0 1-.326-.296.327.327 0 0 1 .263-.353l1.77-.347h-2.083a.328.328 0 0 1-.063-.649l1.798-.35h-2.196a.327.327 0 0 1-.13-.628l.982-.423h-1.459a.325.325 0 0 1-.323-.279.329.329 0 0 1 .227-.36l.425-.133h-.854a.33.33 0 0 1-.317-.243.33.33 0 0 1 .154-.368l1.142-.657h-2.029a.328.328 0 0 1-.081-.645l.21-.054h-.835a.33.33 0 0 1-.32-.258.33.33 0 0 1 .185-.368l1.095-.5h-2.353a.327.327 0 0 1-.282-.493.326.326 0 0 1 .172-.144l1.242-.444h-2.931a.326.326 0 0 1-.326-.287c-.01-.079.01-.16.054-.225a.332.332 0 0 1 .191-.133l2.451-.623h-6.307a.325.325 0 0 1-.313-.328.325.325 0 0 1 .313-.327h8.92a.324.324 0 0 1 .324.286c.01.08-.009.16-.055.225a.323.323 0 0 1-.189.133l-2.451.623h2.202a.325.325 0 0 1 .322.271.33.33 0 0 1-.211.365l-1.248.448h1.981a.327.327 0 0 1 .135.626l-1.095.5 1.934-.002a.326.326 0 0 1 .27.512.325.325 0 0 1-.189.133l-.211.054.652-.001a.325.325 0 0 1 .316.243.33.33 0 0 1-.153.369l-1.144.657h1.793a.325.325 0 0 1 .32.279.332.332 0 0 1-.045.222.33.33 0 0 1-.179.139l-.425.132h.882a.33.33 0 0 1 .321.261.328.328 0 0 1-.191.367l-.984.42 4.003.001a.324.324 0 0 1 .321.296.325.325 0 0 1-.258.353l-1.799.354h2.06a.325.325 0 0 1 .326.295.327.327 0 0 1-.263.353l-1.77.348 1.964-.002a.327.327 0 0 1 .073.647l-2.227.518h2.389a.33.33 0 0 1 .262.516.327.327 0 0 1-.192.13l-2.079.46 1.295-.001a.33.33 0 0 1 .216.08.332.332 0 0 1 .059.427.33.33 0 0 1-.186.136l-1.918.544h.274a.325.325 0 0 1 .322.277.328.328 0 0 1-.224.362l-.59.188h.428a.33.33 0 0 1 .317.258.326.326 0 0 1-.181.367l-1.214.559h1.038a.33.33 0 0 1 .211.076.331.331 0 0 1 .071.416.327.327 0 0 1-.173.144l-.867.31h.665a.326.326 0 0 1 .321.26.327.327 0 0 1-.03.217.327.327 0 0 1-.158.15l-1.373.605 1.043-.002c.076 0 .15.027.21.077a.326.326 0 0 1-.099.558l-1.164.425h.8a.325.325 0 0 1 .321.268.329.329 0 0 1-.204.366l-1.457.558h1.525a.325.325 0 0 1 .317.286.329.329 0 0 1-.235.356l-1.393.374 2.106.001a.327.327 0 0 1 .055.65l-1.245.21h1.698a.328.328 0 0 1 .055.65l-2.586.443 2.226.003a.326.326 0 0 1 .324.303.329.329 0 0 1-.275.348l-2.677.405h2.054a.327.327 0 0 1 .329.301.328.328 0 0 1-.278.35l-3.501.54 2.692.005a.326.326 0 0 1 .323.308.327.327 0 0 1-.285.344l-4.025.477a.33.33 0 0 1-.013.397.326.326 0 0 1-.209.117l-.753.099a.332.332 0 0 1 .219.288.326.326 0 0 1-.282.347l-3.581.485 2.017.002a.327.327 0 0 1 .129.633.324.324 0 0 1-.129.02h-6.865a.322.322 0 0 1-.16-.042Z" fill="#BFDBF0"/><path d="M250.152 43.845a.326.326 0 0 1-.087-.494.328.328 0 0 1 .157-.103l1.65-.491-3.404-.004a.327.327 0 0 1-.317-.316.33.33 0 0 1 .08-.228.33.33 0 0 1 .215-.11l8.88-.6-9.327.003a.327.327 0 0 1-.051-.651l3.091-.49h-2.885a.326.326 0 0 1-.261-.523.325.325 0 0 1 .199-.126l1.446-.285h-1.26a.325.325 0 0 1-.317-.252.328.328 0 0 1 .17-.368l1.355-.686h-2.354a.325.325 0 0 1-.326-.287.329.329 0 0 1 .245-.359l.308-.077h-.842a.325.325 0 0 1-.32-.257.329.329 0 0 1 .181-.368l1.049-.489h-1.719a.325.325 0 0 1-.279-.496.325.325 0 0 1 .175-.141l.588-.196h-1.009a.324.324 0 0 1-.32-.261.327.327 0 0 1 .189-.367l.906-.396-2.564-.001a.328.328 0 0 1-.089-.643l1.311-.376h-3.244a.327.327 0 0 1-.042-.652l.303-.04h-.486a.327.327 0 0 1-.053-.65l1.155-.19h-1.334a.328.328 0 0 1-.059-.649l1.599-.297H240.7a.327.327 0 0 1-.082-.644l2.518-.66-2.277.001a.327.327 0 0 1-.271-.512.327.327 0 0 1 .19-.133l2.129-.54-.531-.004a.326.326 0 0 1-.321-.275.324.324 0 0 1 .217-.363l1.186-.398h-.522a.327.327 0 0 1-.112-.635l.8-.293-.679-.001a.329.329 0 0 1-.319-.262.327.327 0 0 1 .191-.366l1.173-.505-.959.004a.328.328 0 0 1-.129-.628l1.31-.567h-1a.326.326 0 0 1-.33-.287.328.328 0 0 1 .249-.36l.158-.038a.326.326 0 0 1-.206-.512.327.327 0 0 1 .175-.124l.728-.218h-.42a.328.328 0 0 1-.323-.28.326.326 0 0 1 .23-.361l.863-.258h-.94a.325.325 0 0 1-.325-.295.327.327 0 0 1 .264-.353l.1-.018h-.563a.325.325 0 0 1-.325-.294.325.325 0 0 1 .259-.354l1.377-.284h-2.026a.325.325 0 0 1-.325-.302.33.33 0 0 1 .275-.349l1.612-.249-1.65-.001a.325.325 0 0 1-.322-.303.327.327 0 0 1 .274-.348l2.31-.343h-1.778a.324.324 0 0 1-.325-.304.327.327 0 0 1 .278-.347l2.662-.386h-2.016a.329.329 0 0 1-.126-.63l1.201-.503h-.218a.321.321 0 0 1-.24-.091.333.333 0 0 1-.075-.365.323.323 0 0 1 .185-.178.326.326 0 0 1 .129-.021h1.849a.33.33 0 0 1 .207.074.329.329 0 0 1-.081.555l-1.2.504h4.942a.33.33 0 0 1 .325.304.33.33 0 0 1-.278.348l-2.663.386h1.641a.325.325 0 0 1 .324.304.329.329 0 0 1-.276.348l-2.31.343h1.493a.325.325 0 0 1 .326.302.33.33 0 0 1-.275.35l-1.609.245.979.002a.325.325 0 0 1 .325.294.326.326 0 0 1-.259.354l-1.379.283h.803a.326.326 0 0 1 .062.65l-.243.044a.332.332 0 0 1 .194.254.332.332 0 0 1-.048.224.331.331 0 0 1-.183.137l-.863.257h.423a.325.325 0 0 1 .322.28.324.324 0 0 1-.228.362l-.729.217h.368a.327.327 0 0 1 .08.647l-.175.042a.326.326 0 0 1 .247.291.326.326 0 0 1-.196.328l-1.311.567h.967a.327.327 0 0 1 .13.628l-1.175.506h.944c.077 0 .151.027.209.076a.33.33 0 0 1 .073.414.323.323 0 0 1-.171.144l-.799.294.677-.003a.328.328 0 0 1 .103.638l-1.189.397h1.138a.328.328 0 0 1 .081.645l-2.13.545h2.214a.327.327 0 0 1 .268.51.328.328 0 0 1-.186.133l-2.519.66h2.735a.326.326 0 0 1 .322.297.327.327 0 0 1-.262.352l-1.596.3h1.843a.329.329 0 0 1 .321.3.33.33 0 0 1-.269.35l-1.155.189 1.434-.002a.326.326 0 0 1 .325.306.327.327 0 0 1-.282.346l-.303.04h.586a.326.326 0 0 1 .273.506.328.328 0 0 1-.184.136l-1.31.376h1.791a.328.328 0 0 1 .131.628l-.906.395h1.467a.327.327 0 0 1 .103.639l-.587.195h1.165a.327.327 0 0 1 .139.624l-1.043.493 2.01.001a.326.326 0 0 1 .326.287c.01.08-.009.16-.055.226a.325.325 0 0 1-.189.132l-.308.078h1.093a.327.327 0 0 1 .147.62l-1.355.686h3.265a.326.326 0 0 1 .26.521.328.328 0 0 1-.197.127l-1.451.285 3.663.002c.082 0 .161.031.22.087a.322.322 0 0 1 .104.214.323.323 0 0 1-.273.35l-3.091.49 14.873-.004a.324.324 0 0 1 .224.094.326.326 0 0 1-.202.56l-12.615.852a.33.33 0 0 1-.224.39l-1.65.49h.119a.326.326 0 0 1 .313.328.325.325 0 0 1-.313.327h-2.365a.317.317 0 0 1-.162-.043ZM264.805 11.025a.33.33 0 0 1-.126-.13.337.337 0 0 1-.037-.176.325.325 0 0 1 .203-.281l1.151-.473a.324.324 0 0 1-.049-.347.33.33 0 0 1 .293-.192l1.146-.004a.328.328 0 0 1 .124.63l-.881.361 2.565.001a.325.325 0 0 1 .324.328.327.327 0 0 1-.324.327h-4.225a.319.319 0 0 1-.164-.044Z" fill="#BFDBF0"/><path d="M247.379 15.736a.322.322 0 0 1-.132-.144.324.324 0 0 1 .061-.368.324.324 0 0 1 .171-.093l2.976-.604h-1.552a.327.327 0 0 1-.039-.652l3.877-.464-2.299.001a.326.326 0 0 1-.236-.549.329.329 0 0 1 .221-.105l5.715-.261-4.308.002a.328.328 0 0 1-.039-.652l5.38-.65-5.183-.002a.327.327 0 0 1-.039-.653l.694-.084h-.566a.328.328 0 0 1-.057-.65l1.649-.295-1.174.002a.327.327 0 0 1-.066-.648l2.418-.5v-.032a.328.328 0 0 1 .326-.327h1.455a.325.325 0 0 1 .325.294.329.329 0 0 1-.26.354l-.989.202 1.659.002c.082 0 .161.03.221.085a.329.329 0 0 1-.163.564l-1.649.294h2.308a.327.327 0 0 1 .039.653l-.69.084h5.188a.327.327 0 0 1 .038.653l-5.381.65 13.195-.003a.326.326 0 0 1 .231.547.323.323 0 0 1-.217.107l-11.916.547.003.024a.33.33 0 0 1-.287.346l-4.384.522a.326.326 0 0 1 .132.335.33.33 0 0 1-.255.253l-2.972.603h.646c.085.004.164.04.223.1a.329.329 0 0 1-.222.555h-3.913a.326.326 0 0 1-.163-.043Z" fill="#BFDBF0"/><path d="M254.053 33.282a.33.33 0 0 1-.158-.344.33.33 0 0 1 .271-.263l.971-.153-2.309-.002a.324.324 0 0 1-.327-.29.327.327 0 0 1 .254-.357l1.834-.424h-2.722a.325.325 0 0 1-.326-.303.328.328 0 0 1 .275-.349l.289-.046h-.187a.327.327 0 0 1-.129-.628l1.905-.818a.325.325 0 0 1 .32-.268l.377-.001a.33.33 0 0 1 .321.261.328.328 0 0 1-.191.367l-1.012.434h2.729a.327.327 0 0 1 .052.65l-.292.047h1.455a.326.326 0 0 1 .325.291.326.326 0 0 1-.253.356l-1.833.425 3.622-.001c.082 0 .161.031.221.087a.325.325 0 0 1 .034.443.326.326 0 0 1-.205.121l-.972.153h1.044a.327.327 0 0 1 .106.637l-1.417.488h1.938a.328.328 0 0 1 .118.633l-.705.273h.243a.324.324 0 0 1 .314.199.332.332 0 0 1 .001.257.34.34 0 0 1-.185.178.334.334 0 0 1-.13.02h-1.994a.328.328 0 0 1-.321-.268.33.33 0 0 1 .203-.365l.704-.273h-2.151a.322.322 0 0 1-.321-.273.329.329 0 0 1 .215-.364l1.422-.487-3.259-.001a.32.32 0 0 1-.164-.042Z" fill="#D4D4D7"/><path d="M254.312 30.407a.328.328 0 0 1 .146-.611l.055-.003h-1.092a.33.33 0 0 1-.329-.32.326.326 0 0 1 .314-.335l.098-.004h-.453a.326.326 0 0 1-.33-.317.327.327 0 0 1 .309-.337l4.729-.313h-4.585a.327.327 0 0 1-.017-.655l2.726-.148h-2.576a.329.329 0 0 1-.237-.548.328.328 0 0 1 .22-.106l2.558-.134H253.3a.326.326 0 0 1-.331-.317.327.327 0 0 1 .309-.338l5.326-.35h-5.474a.326.326 0 0 1-.234-.546.325.325 0 0 1 .215-.108l4.732-.287-4.8-.002a.326.326 0 0 1-.242-.542.323.323 0 0 1 .215-.112l7.756-.653-7.675.001a.327.327 0 0 1-.234-.544.325.325 0 0 1 .214-.11l4.448-.268h-4.249a.326.326 0 0 1-.328-.318.329.329 0 0 1 .308-.337l4.382-.273h-4.067a.326.326 0 0 1-.325-.317.329.329 0 0 1 .304-.337l3.806-.242h-3.363a.326.326 0 0 1-.323-.312.33.33 0 0 1 .291-.341l6.24-.618h-5.346a.326.326 0 0 1-.027-.654l3.227-.268h-2.3a.324.324 0 0 1-.324-.316.323.323 0 0 1 .299-.339l.983-.078a.327.327 0 0 1-.013-.647l2.392-.422a.337.337 0 0 1-.091-.113.332.332 0 0 1 .064-.374.325.325 0 0 1 .23-.096l3.134-.002c.081.001.159.032.218.087.059.056.096.131.104.212a.327.327 0 0 1-.265.35l-1.988.352h4.445a.33.33 0 0 1 .243.545.327.327 0 0 1-.218.11l-.949.075h1.921a.328.328 0 0 1 .028.654l-3.222.269h4.093a.33.33 0 0 1 .324.31.327.327 0 0 1-.292.342l-6.24.619h7.057a.328.328 0 0 1 .021.654l-3.813.24h4.204a.324.324 0 0 1 .326.318.328.328 0 0 1-.307.337l-4.38.273h4.655a.326.326 0 0 1 .328.317.329.329 0 0 1-.308.337l-4.445.269h4.602a.327.327 0 0 1 .027.653l-7.759.652 7.801.003a.327.327 0 0 1 .019.655l-4.727.289h4.623a.327.327 0 0 1 .022.654l-5.332.35h5.086a.327.327 0 0 1 .018.654l-2.556.134h2.259a.326.326 0 0 1 .327.319.324.324 0 0 1-.309.336l-2.737.147h2.331a.326.326 0 0 1 .33.317.33.33 0 0 1-.085.232.33.33 0 0 1-.224.106l-4.72.313h4.065a.326.326 0 0 1 .238.55.327.327 0 0 1-.222.105l-.474.023a.328.328 0 0 1-.09.636l-.601.03a.327.327 0 0 1-.102.622l-3.348.353 1.678.007a.323.323 0 0 1 .218.09.32.32 0 0 1 .101.214.324.324 0 0 1-.273.346l-1.984.29a.318.318 0 0 1 .196.25.325.325 0 0 1-.224.362l-.916.295a.331.331 0 0 1 .131.367.326.326 0 0 1-.311.233l-1.738-.007a.328.328 0 0 1-.1-.639l.747-.24h-2.166a.33.33 0 0 1-.32-.304.33.33 0 0 1 .274-.347l1.799-.26h-3.327a.324.324 0 0 1-.217-.094.333.333 0 0 1-.098-.216.329.329 0 0 1 .28-.341l3.347-.354-5.054-.002a.328.328 0 0 1-.162-.042Z" fill="#F2CF7E"/><path d="M255.071 40.114c13.472 4.271 24.239-11.844 14.726-22.498a14.771 14.771 0 0 0-7.242-4.272 14.743 14.743 0 0 0-8.395.377c-12.568 4.61-11.82 22.553.911 26.393Zm-2.204-25.061c11.943-6.747 24.391 6.934 17.758 18.541a13.616 13.616 0 0 1-5.97 5.488 13.576 13.576 0 0 1-8.024 1.114c-12.082-2.323-14.424-19.258-3.764-25.143Z" fill="#2A2A38"/><path d="M249.042 13.474a17.31 17.31 0 0 0-2.209 2.002c-1.305-.223-2.862-.731-3.741.519-.611 1.096-1.74 2.268-1.54 3.591.294.908 1.269 1.56 1.719 2.351-.021-.283-.406.694-.235.289a16.458 16.458 0 0 0-.627 4.855c.051.415.155.22-.027.439-2.114 1.675-2.859 1.672-1.818 4.63.378 2.255 1.894 2.306 3.812 2.463a17.581 17.581 0 0 0 3.4 4.424c-.431 2.336-.697 3.402 1.744 4.534 2.18 1.527 3.082.843 4.87-.736 1.754.517 3.578.757 5.406.712.985 1.558 1.881 2.899 3.913 2.13 2.297-.409 3.289-.704 3.315-3.266.023-.19-.012-.584.089-.744a17.584 17.584 0 0 0 4.491-3.458c3.45.934 3.859-.346 5.246-3.187.404-1.331-1.019-2.189-1.618-3.19-.058-.214.071.028.087-.096a18.69 18.69 0 0 0 .701-5.41c.037-.137-.155.07.038-.158 1.689-1.344 2.936-1.553 1.973-4.06-.374-2.524-1.495-3.017-3.973-3.045a17.588 17.588 0 0 0-3.395-4.417c.43-2.335.696-3.403-1.746-4.535-2.18-1.527-3.081-.843-4.87.74a17.58 17.58 0 0 0-5.406-.713c-.987-1.56-1.881-2.898-3.914-2.13-.841.194-2.132.354-2.758.998-.675.828-.38 2.061-.644 3.013-.657.467-1.634.89-2.283 1.455Zm1.887-.238c1.958-.683 1.316-1.566 1.613-3.21.284-.934 1.581-1.088 2.42-1.29 2.519-1.045 1.992 2.49 4.164 2.092 1.609 0 3.211.23 4.755.683 1.971.309 1.994-2.783 4.482-.898 2.975 1.334.931 2.183 1.443 4.261a16.63 16.63 0 0 1 3.097 3.835c.261.454.359.903.893 1.036 1.196.229 2.863-.1 3.06 1.53.353 1.082 1.139 2.798-.304 3.41-.886.6-1.803.876-1.484 2.131a15.703 15.703 0 0 1-.4 3.55c-.111.48-.507 1.202-.306 1.659 2.046 2.43 1.996 2.257.279 4.997-.702 1.377-2.19.368-3.323.433-.463.017-.695.464-1.002.77a18.007 18.007 0 0 1-3.901 2.844c-.273.204-.245.312-.285.649-.075 2.042-.157 2.812-2.423 3.17-2.81 1.199-2.079-2.263-4.257-2.04a15.577 15.577 0 0 1-4.757-.64c-.402-.119-.613-.215-.96.003-1.283.852-1.888 2.23-3.53.927-.633-.355-1.811-.828-1.795-1.677-.043-.862.454-1.784.263-2.618a16.817 16.817 0 0 1-3.137-3.873c-.26-.453-.36-.908-.894-1.036-1.12-.264-2.759.162-3.015-1.39-1.022-3.367-.802-2.733 1.738-4.705-.044-1.52.093-3.04.407-4.529.113-.497.497-1.19.302-1.665-.345-.956-1.853-1.566-1.537-2.73.447-.931 1.253-3.084 2.452-3.003.713.041 1.425.268 2.132.309.466-.023.691-.46 1.002-.77a16.032 16.032 0 0 1 2.808-2.215Z" fill="#2A2A38"/><path d="M252.758 25.796c.397 1.187-.676 2.471.086 3.52a1.464 1.464 0 0 0-1.405 1.003 1.473 1.473 0 0 0 .516 1.65c-2.086 3.86 4.145 7.13 6.466 3.69 1.323.422 2.765-.98 1.875-2.233a1.922 1.922 0 0 0 1.502-.617c1.022-.988 2.398-1.199 3.58-1.92 4.673-2.732 4.964-9.86.686-13.112-5.93-4.801-15.148.32-13.306 8.02Zm3.259 4.923a9.972 9.972 0 0 0 1.27-4.013l3.101 1.794a9.822 9.822 0 0 0-2.912 3.06l-1.459-.84Zm-2.205 5.628a3.22 3.22 0 0 1-1.05-3.81c1.677.907 3.175 1.806 4.808 2.744-.783 1.185-2.489 1.98-3.758 1.066Zm4.529-1.257c-1.842-1.066-3.722-2.085-5.533-3.203a1.129 1.129 0 0 1 .322-2.027c2.081.742 3.972 2.264 5.973 3.284 1.001.522.351 2.394-.762 1.946Zm-3.203-15.78c7.761-8.732 18.514 3.864 9.893 10.874-1.269.93-2.888 1.064-4.018 2.184-.328.308-.626.743-1.143.618-.494-.362-1.055-.632-1.578-.95a8.771 8.771 0 0 1 4.467-3.928c.213-.057-.018-.237-.106-.283-.634-.354-1.318.145-1.886.438l-3.451-1.997a5.428 5.428 0 0 0-.128-1.556c-.07-.272-1.012-.418-.94-.145a8.716 8.716 0 0 1-1.063 5.672c-1.182-.67-2.025-.888-1.501-2.491.211-1.022-.071-1.912-.166-2.922a7.845 7.845 0 0 1 1.62-5.514Z" fill="#2A2A38"/><path d="M258.07 19.596a.797.797 0 0 0 .613.04 4.52 4.52 0 0 1 4.503-.089.91.91 0 0 0 .663.114c.197-.08-.005-.215-.108-.274a6.067 6.067 0 0 0-5.947-.086c-.161.092.229.276.276.295Z" fill="#2A2A38"/><path d="M43.008 209.615a.289.289 0 0 1-.33-.024.293.293 0 0 1-.1-.315l.18-.613-.859 1.49a.293.293 0 0 1-.376.12.298.298 0 0 1-.157-.363l.623-1.834-1.234 2.141a.294.294 0 0 1-.53-.25l.34-.913-.552.959a.295.295 0 0 1-.354.129.295.295 0 0 1-.191-.326l.232-1.368-.561.979a.294.294 0 0 1-.527-.036l-.337-.82a.295.295 0 0 1-.318-.096.294.294 0 0 1-.026-.332l.17-.297a.3.3 0 0 1 .274-.146.299.299 0 0 1 .252.182l.301.73 1.082-1.878a.294.294 0 0 1 .355-.129.295.295 0 0 1 .19.326l-.232 1.368 1.514-2.63a.294.294 0 0 1 .53.251l-.341.914.951-1.654a.3.3 0 0 1 .165-.133.296.296 0 0 1 .369.376l-.618 1.831.59-1.023a.295.295 0 0 1 .378-.134.297.297 0 0 1 .162.367l-.295 1.006a.292.292 0 0 1 .357.271.298.298 0 0 1-.038.164l-.926 1.606a.28.28 0 0 1-.113.104Z" fill="#D4D4D7"/><path d="M47.762 211.859a.291.291 0 0 1-.355-.047.296.296 0 0 1-.047-.356l5.278-9.167a.294.294 0 0 1 .529.257l-.568 1.424.687-1.193a.296.296 0 0 1 .373-.123.294.294 0 0 1 .163.357l-.642 2.067.732-1.27a.294.294 0 0 1 .532.246l-.677 1.913a.296.296 0 0 1 .105.401l-.651 1.13a.293.293 0 0 1-.378.121.298.298 0 0 1-.155-.367l.127-.359-.449.779a.291.291 0 0 1-.373.121.297.297 0 0 1-.163-.357l.642-2.066-1.422 2.47a.297.297 0 0 1-.169.133.297.297 0 0 1-.213-.017.298.298 0 0 1-.146-.372l.568-1.426-3.22 5.592a.296.296 0 0 1-.108.109ZM52.175 195.895a.294.294 0 0 1-.44-.217.295.295 0 0 1 .038-.186l.872-1.517a.296.296 0 0 1 .497-.041.296.296 0 0 1 .012.335l-.87 1.517a.296.296 0 0 1-.109.109Z" fill="#BFDBF0"/><path d="M49.098 205.785a.297.297 0 0 1-.338-.036.297.297 0 0 1-.078-.333l1.267-3.102a.294.294 0 0 1-.37.031.292.292 0 0 1-.106-.356l.414-1.01a.284.284 0 0 1-.168.009.29.29 0 0 1-.221-.235.296.296 0 0 1 .019-.168l1.02-2.39-.638 1.106a.296.296 0 0 1-.381.117.295.295 0 0 1-.148-.371l1.155-2.986-.968 1.68a.293.293 0 0 1-.529-.256l.89-2.274-.771 1.34a.293.293 0 0 1-.38.119.293.293 0 0 1-.151-.369l.82-2.227-.793 1.378a.297.297 0 0 1-.38.117.293.293 0 0 1-.15-.368l.398-1.063-.31.537a.296.296 0 0 1-.515-.021.295.295 0 0 1-.022-.204l.337-1.259-.363.631a.295.295 0 0 1-.547-.193l.222-1.392-.398.691a.297.297 0 0 1-.155.13.297.297 0 0 1-.39-.328l.194-1.104-.335.582a.297.297 0 0 1-.503.013.295.295 0 0 1-.045-.193l.147-1.346-.451.782a.292.292 0 0 1-.155.129.29.29 0 0 1-.355-.131.295.295 0 0 1-.034-.199l.15-.818-.293.506a.295.295 0 0 1-.547-.175l.112-1.201-.466.809a.292.292 0 0 1-.36.127.293.293 0 0 1-.182-.337l.12-.547-.236.409a.293.293 0 0 1-.518-.014.295.295 0 0 1-.023-.205l.44-1.746-.88 1.527a.291.291 0 0 1-.37.117.29.29 0 0 1-.15-.145.297.297 0 0 1-.015-.208l.579-1.835-1.005 1.744a.295.295 0 0 1-.374.128.298.298 0 0 1-.163-.362l.6-1.975-1.116 1.941a.291.291 0 0 1-.165.134.289.289 0 0 1-.213-.012.296.296 0 0 1-.157-.365l.528-1.542-.94 1.631a.294.294 0 0 1-.533-.243l.538-1.566-.99 1.719a.296.296 0 0 1-.547-.182l.113-.958-.657 1.142a.293.293 0 0 1-.362.126.296.296 0 0 1-.18-.34l.089-.392-.385.669a.296.296 0 0 1-.49.032.296.296 0 0 1-.06-.181l.004-1.189-.915 1.587a.296.296 0 0 1-.37.124.296.296 0 0 1-.17-.351l.054-.189-.376.654a.3.3 0 0 1-.15.128.3.3 0 0 1-.195.006.297.297 0 0 1-.203-.31l.103-1.083-1.06 1.841a.296.296 0 0 1-.357.13.293.293 0 0 1-.188-.33l.214-1.173-1.321 2.294a.292.292 0 0 1-.162.133.294.294 0 0 1-.378-.36l.62-2.199-2.843 4.935a.292.292 0 0 1-.396.098.295.295 0 0 1-.114-.392l4.02-6.982a.29.29 0 0 1 .162-.131.287.287 0 0 1 .208.007.298.298 0 0 1 .169.352l-.62 2.199.992-1.723a.297.297 0 0 1 .155-.13.298.298 0 0 1 .356.131c.035.06.047.131.034.2l-.213 1.178.893-1.55a.293.293 0 0 1 .501-.015.295.295 0 0 1 .047.191l-.103 1.082.87-1.514a.296.296 0 0 1 .368-.124.297.297 0 0 1 .17.351l-.053.189.293-.51a.293.293 0 0 1 .49-.032c.039.051.06.115.06.18l-.004 1.191.808-1.403a.296.296 0 0 1 .361-.125.296.296 0 0 1 .18.338l-.088.392.398-.69a.292.292 0 0 1 .15-.128.291.291 0 0 1 .353.117.297.297 0 0 1 .044.193l-.116.959 1.805-3.132a.298.298 0 0 1 .165-.131.292.292 0 0 1 .368.374l-.535 1.568.928-1.613a.299.299 0 0 1 .165-.134.3.3 0 0 1 .213.012.297.297 0 0 1 .156.365l-.527 1.542.883-1.538a.297.297 0 0 1 .375-.127.293.293 0 0 1 .163.361l-.6 1.977 1.075-1.87a.292.292 0 0 1 .371-.118.296.296 0 0 1 .164.354l-.579 1.835.583-1.014a.293.293 0 0 1 .367-.127.295.295 0 0 1 .174.347l-.44 1.746.123-.214a.293.293 0 0 1 .514.008.297.297 0 0 1 .028.203l-.12.547.193-.335a.293.293 0 0 1 .5-.014.295.295 0 0 1 .048.189l-.112 1.202.468-.812a.292.292 0 0 1 .356-.13.292.292 0 0 1 .188.33l-.15.82.3-.521a.296.296 0 0 1 .548.179l-.147 1.346.469-.816a.297.297 0 0 1 .154-.13.302.302 0 0 1 .201 0 .297.297 0 0 1 .19.329l-.194 1.102.36-.626a.294.294 0 0 1 .509-.003c.035.06.048.129.037.197l-.222 1.392.688-1.193a.291.291 0 0 1 .16-.127.291.291 0 0 1 .355.148c.031.063.04.136.022.204l-.337 1.259.95-1.648a.302.302 0 0 1 .167-.133.3.3 0 0 1 .213.015.298.298 0 0 1 .15.368l-.396 1.069.764-1.329a.297.297 0 0 1 .167-.132.294.294 0 0 1 .364.382l-.82 2.223 1.006-1.74a.293.293 0 0 1 .528.04.296.296 0 0 1 0 .215l-.89 2.277.925-1.608a.293.293 0 0 1 .383-.121.294.294 0 0 1 .147.375l-1.157 2.983 1.217-2.104a.297.297 0 0 1 .386-.114.297.297 0 0 1 .14.378l-1.444 3.365a.296.296 0 0 1 .3.406l-.261.633a.299.299 0 0 1 .322-.042.297.297 0 0 1 .143.377l-1.236 3.022.91-1.578a.292.292 0 0 1 .179-.146.292.292 0 0 1 .318.105.3.3 0 0 1 .013.336l-3.095 5.371a.287.287 0 0 1-.105.107Z" fill="#BFDBF0"/><path d="M46.541 215.794a.295.295 0 0 1-.434-.325l.361-1.513-1.537 2.663a.296.296 0 0 1-.389.105.293.293 0 0 1-.13-.383l3.536-7.22-4.202 7.301a.293.293 0 0 1-.53-.254l1.011-2.639-1.3 2.257a.295.295 0 0 1-.533-.243l.43-1.261-.569.986a.289.289 0 0 1-.146.126.29.29 0 0 1-.35-.104.295.295 0 0 1-.052-.186l.077-1.369-1.062 1.842a.29.29 0 0 1-.161.132.295.295 0 0 1-.378-.36l.078-.276-.379.659a.294.294 0 0 1-.549-.173l.092-1.041-.775 1.346a.3.3 0 0 1-.156.13.294.294 0 0 1-.356-.136.296.296 0 0 1-.031-.201l.113-.548-.456.79a.297.297 0 0 1-.347.133.296.296 0 0 1-.2-.314l.1-.888-1.157 2.006a.293.293 0 0 1-.54-.219l.298-1.196-1.463 2.538a.294.294 0 0 1-.526-.26l.105-.256-.22.381a.296.296 0 0 1-.167.134.297.297 0 0 1-.36-.172.295.295 0 0 1-.002-.214l.373-.989-.601 1.044a.295.295 0 0 1-.532-.246l.489-1.386-.792 1.374a.293.293 0 0 1-.16.129.293.293 0 0 1-.378-.355l.622-2.268-1.026 1.782a.295.295 0 0 1-.539-.228l.54-1.908-.243.413a.3.3 0 0 1-.157.13.294.294 0 0 1-.356-.136.294.294 0 0 1-.03-.201l.224-1.107-.235.409a.297.297 0 0 1-.155.13.297.297 0 0 1-.39-.329l.132-.758-.307.531a.303.303 0 0 1-.15.128.303.303 0 0 1-.197.004.3.3 0 0 1-.2-.315l.136-1.146-.43.753a.296.296 0 0 1-.502.01.295.295 0 0 1-.045-.192l.15-1.281-.451.783a.294.294 0 0 1-.54-.229l.041-.141a.292.292 0 0 1-.358.071.296.296 0 0 1-.152-.333l.16-.668-.19.329a.29.29 0 0 1-.159.131.291.291 0 0 1-.358-.143.295.295 0 0 1-.024-.204l.188-.791-.423.735a.294.294 0 0 1-.533-.244l.03-.087-.253.441a.293.293 0 0 1-.376.122.295.295 0 0 1-.158-.363l.4-1.205-.914 1.585a.292.292 0 0 1-.167.134.295.295 0 0 1-.362-.388l.532-1.373-.744 1.29a.296.296 0 0 1-.528-.256l.773-1.963-.802 1.392a.296.296 0 0 1-.384.118.296.296 0 0 1-.145-.375l.9-2.256-.908 1.577a.294.294 0 0 1-.546-.185l.148-1.167-.098.171a.296.296 0 0 1-.408.119.295.295 0 0 1-.102-.414l.833-1.446a.292.292 0 0 1 .35-.132.294.294 0 0 1 .197.316l-.148 1.167 2.227-3.868a.301.301 0 0 1 .169-.134.298.298 0 0 1 .36.391l-.9 2.258.74-1.284a.3.3 0 0 1 .168-.133.289.289 0 0 1 .214.017.293.293 0 0 1 .147.372l-.774 1.963.673-1.169a.296.296 0 0 1 .382-.119.298.298 0 0 1 .148.373l-.534 1.37.443-.765a.29.29 0 0 1 .165-.134.302.302 0 0 1 .211.011c.067.031.12.085.149.152.03.066.033.142.01.211l-.401 1.207.36-.629a.294.294 0 0 1 .534.244l-.073.211a.29.29 0 0 1 .137-.055.293.293 0 0 1 .324.361l-.188.791.19-.331a.29.29 0 0 1 .16-.13.29.29 0 0 1 .204.004.298.298 0 0 1 .178.342l-.159.668.165-.288a.295.295 0 0 1 .54.23l-.045.155a.304.304 0 0 1 .159-.086.299.299 0 0 1 .31.148c.03.054.043.116.036.177l-.15 1.282.436-.757a.293.293 0 0 1 .503-.011.294.294 0 0 1 .044.192l-.135 1.147.425-.738a.297.297 0 0 1 .154-.13.297.297 0 0 1 .39.329l-.131.757.303-.53a.291.291 0 0 1 .156-.13.296.296 0 0 1 .387.336l-.227 1.11.513-.891a.295.295 0 0 1 .539.227l-.536 1.913.998-1.732a.29.29 0 0 1 .16-.13.297.297 0 0 1 .377.355l-.62 2.269 1.232-2.14a.295.295 0 0 1 .533.245l-.487 1.384.831-1.442a.298.298 0 0 1 .167-.132.298.298 0 0 1 .212.016.298.298 0 0 1 .151.368l-.373.989.645-1.123a.29.29 0 0 1 .17-.134.288.288 0 0 1 .215.018.294.294 0 0 1 .142.376l-.106.256.265-.459a.297.297 0 0 1 .365-.125.296.296 0 0 1 .175.344l-.298 1.196.807-1.402a.291.291 0 0 1 .503-.013.295.295 0 0 1 .045.193l-.1.888.66-1.149a.29.29 0 0 1 .157-.13.293.293 0 0 1 .387.337l-.112.548.525-.912a.292.292 0 0 1 .5-.017.296.296 0 0 1 .049.19l-.087 1.039.907-1.573a.298.298 0 0 1 .161-.134.3.3 0 0 1 .21.007.296.296 0 0 1 .169.354l-.079.275.493-.855a.296.296 0 0 1 .339-.136.298.298 0 0 1 .21.3l-.077 1.37 1.472-2.556a.294.294 0 0 1 .533.243l-.432 1.264 1.652-2.865a.296.296 0 0 1 .167-.134.298.298 0 0 1 .36.172.296.296 0 0 1 .003.215l-1.011 2.64 6.7-11.641a.3.3 0 0 1 .174-.134.295.295 0 0 1 .345.411L47.31 211.77a.293.293 0 0 1 .202.35l-.361 1.513.054-.093a.295.295 0 0 1 .51.295l-1.067 1.851a.296.296 0 0 1-.106.108ZM27.587 189.534a.29.29 0 0 1-.312-.01.295.295 0 0 1-.127-.286l.15-1.113a.294.294 0 0 1-.309-.434l.513-.899a.295.295 0 0 1 .547.187l-.116.852 1.157-2.007a.296.296 0 0 1 .401-.106.295.295 0 0 1 .109.401l-1.905 3.306a.287.287 0 0 1-.108.109Z" fill="#BFDBF0"/><path d="M23.402 205.294a.294.294 0 0 1-.426-.351l.871-2.601-.699 1.215a.297.297 0 0 1-.17.135.29.29 0 0 1-.217-.019.297.297 0 0 1-.14-.38l1.388-3.242-1.036 1.799a.293.293 0 0 1-.534-.063.295.295 0 0 1 .018-.22l2.372-4.591-1.94 3.373a.296.296 0 0 1-.386.117.296.296 0 0 1-.14-.381l1.92-4.503-2.338 4.055a.293.293 0 0 1-.387.117.297.297 0 0 1-.139-.38l.248-.581-.256.443a.299.299 0 0 1-.166.135.298.298 0 0 1-.362-.169.297.297 0 0 1-.004-.215l.514-1.423-.528.92a.294.294 0 0 1-.523-.03.296.296 0 0 1-.011-.211l.701-2.117-.025-.014a.296.296 0 0 1-.108-.404l.655-1.138a.293.293 0 0 1 .376-.121.294.294 0 0 1 .159.362l-.289.865.749-1.298a.297.297 0 0 1 .527.034c.029.068.03.145.005.214l-.514 1.423 1.04-1.806a.296.296 0 0 1 .387-.116.297.297 0 0 1 .14.38l-.247.577 2.338-4.059a.293.293 0 0 1 .387-.117.296.296 0 0 1 .139.38l-1.92 4.505 5.946-10.327a.29.29 0 0 1 .175-.129.296.296 0 0 1 .34.412l-4.944 9.572.02.009a.297.297 0 0 1 .14.38l-1.57 3.666c.052-.024.11-.033.168-.024a.3.3 0 0 1 .241.216.298.298 0 0 1-.006.17l-.87 2.597.292-.506a.294.294 0 0 1 .531.076.295.295 0 0 1-.022.219l-1.762 3.062a.294.294 0 0 1-.108.108Z" fill="#BFDBF0"/><path d="M40.074 207.979a.288.288 0 0 1-.34-.031.298.298 0 0 1-.082-.33l.319-.829-1.043 1.806a.295.295 0 0 1-.537-.235l.497-1.626-1.228 2.13a.294.294 0 0 1-.53-.254l.095-.247-.084.147a.294.294 0 0 1-.548-.183l.222-1.859a.295.295 0 0 1-.065-.371l.17-.296a.298.298 0 0 1 .348-.133.295.295 0 0 1 .2.315l-.12.987 1.23-2.136a.299.299 0 0 1 .168-.132.294.294 0 0 1 .362.385l-.095.25.656-1.139a.295.295 0 0 1 .537.235l-.496 1.626 1.632-2.834a.298.298 0 0 1 .168-.135.294.294 0 0 1 .362.388l-.32.831.471-.818a.295.295 0 0 1 .513.003.297.297 0 0 1 .031.201l-.258 1.329.873-1.516a.295.295 0 0 1 .546.193l-.105.674.11-.19a.293.293 0 0 1 .296-.156.296.296 0 0 1 .213.451l-.9 1.56a.293.293 0 0 1-.352.13.296.296 0 0 1-.193-.323l.104-.674-.97 1.683a.293.293 0 0 1-.544-.204l.263-1.332-1.47 2.55a.283.283 0 0 1-.106.109Z" fill="#D4D4D7"/><path d="M37.952 206.481a.296.296 0 0 1-.35-.041.295.295 0 0 1-.06-.348l.022-.045-.492.854a.295.295 0 0 1-.517-.283l.041-.079-.204.355a.297.297 0 0 1-.174.139.293.293 0 0 1-.345-.417l1.888-3.842-2.067 3.588a.29.29 0 0 1-.175.133.292.292 0 0 1-.358-.195.296.296 0 0 1 .016-.22l1.113-2.2-1.16 2.016a.295.295 0 0 1-.518-.282l1.048-2.061-1.148 1.993a.29.29 0 0 1-.175.139.294.294 0 0 1-.345-.417l2.127-4.325-2.467 4.283a.297.297 0 0 1-.39.105.298.298 0 0 1-.127-.384l1.91-3.833-2.166 3.756a.296.296 0 0 1-.173.133.296.296 0 0 1-.348-.407l2.988-6.364-3.459 6.006a.289.289 0 0 1-.174.13.294.294 0 0 1-.344-.409l1.795-3.601-1.915 3.325a.293.293 0 0 1-.395.113.293.293 0 0 1-.124-.392l1.763-3.553-1.834 3.183a.292.292 0 0 1-.393.111.296.296 0 0 1-.125-.389l1.527-3.088-1.516 2.631a.291.291 0 0 1-.172.134.294.294 0 0 1-.351-.403l2.331-5.162-2.41 4.184a.293.293 0 0 1-.535-.053.296.296 0 0 1 .014-.22l1.246-2.646-1.037 1.799a.297.297 0 0 1-.392.113.298.298 0 0 1-.129-.388l.383-.805a.297.297 0 0 1-.375.079.296.296 0 0 1-.135-.359l.75-2.063a.3.3 0 0 1-.13.02.293.293 0 0 1-.233-.442l1.41-2.453a.291.291 0 0 1 .167-.131.291.291 0 0 1 .358.167c.029.068.031.143.007.213l-.622 1.713 2.004-3.478a.293.293 0 0 1 .533.055.297.297 0 0 1-.013.22l-.369.776.867-1.503a.294.294 0 0 1 .531.056.293.293 0 0 1-.01.217l-1.243 2.643 1.845-3.203a.295.295 0 0 1 .523.269l-2.332 5.162 3.181-5.522a.294.294 0 0 1 .52.278l-1.532 3.093 1.895-3.29a.293.293 0 0 1 .536.058.295.295 0 0 1-.018.221l-1.762 3.551 2.099-3.643a.293.293 0 0 1 .536.058.295.295 0 0 1-.018.221l-1.795 3.6 2.075-3.601a.292.292 0 0 1 .172-.133.295.295 0 0 1 .348.405l-2.99 6.367 3.52-6.104a.294.294 0 0 1 .518.28l-1.905 3.829 2.083-3.617a.295.295 0 0 1 .52.278l-2.131 4.33 2.293-3.981a.295.295 0 0 1 .517.282l-1.048 2.06 1.018-1.768a.293.293 0 0 1 .537.06.297.297 0 0 1-.02.222l-1.118 2.207 1.051-1.823a.294.294 0 0 1 .52.278l-1.884 3.835 1.832-3.181a.296.296 0 0 1 .395-.11.295.295 0 0 1 .122.393l-.196.38a.294.294 0 0 1 .48.16.293.293 0 0 1-.024.197l-.248.485a.295.295 0 0 1 .354.014.295.295 0 0 1 .084.346l-1.234 2.779.761-1.31a.296.296 0 0 1 .169-.131.295.295 0 0 1 .359.388l-.67 1.682c.04-.03.088-.05.137-.057.05-.007.1-.001.147.018a.292.292 0 0 1 .182.338l-.184.85a.296.296 0 0 1 .345.062.295.295 0 0 1 .04.349l-.787 1.357a.296.296 0 0 1-.36.127.295.295 0 0 1-.182-.336l.149-.693-.977 1.694a.298.298 0 0 1-.168.132.293.293 0 0 1-.357-.175.293.293 0 0 1-.002-.213l.608-1.526-1.5 2.604a.295.295 0 0 1-.523-.267l1.234-2.778-2.28 3.954a.299.299 0 0 1-.105.108Z" fill="#F2CF7E"/><path d="M45.852 210.262c9.398-8.618 1.702-24.307-10.882-21.664a13.317 13.317 0 0 0-6.591 3.742 13.366 13.366 0 0 0-3.49 6.74c-2.075 11.912 12.236 19.414 20.963 11.182Zm-20.508-9.571c.128-12.386 16.393-15.962 22.441-5.54a12.32 12.32 0 0 1-1.166 13.928c-7.254 8.407-21.497 2.608-21.275-8.388Z" fill="#2A2A38"/><path d="M22.39 202.973c.112.892.3 1.772.564 2.631-.762.921-1.86 1.911-1.283 3.162.579.972.982 2.384 2.103 2.824.84.178 1.786-.291 2.605-.285-.23-.112.358.63.12.313a14.776 14.776 0 0 0 3.497 2.679c.347.147.241-.023.33.218.351 2.41.014 2.992 2.786 3.51 1.926.721 2.65-.442 3.636-1.873 1.684.045 3.365-.18 4.978-.667 1.625 1.391 2.335 2.08 4.316.679 2.172-1.018 2.046-2.032 1.622-4.143a15.948 15.948 0 0 0 2.992-3.909c1.656-.068 3.104-.166 3.422-2.102.717-1.983.933-2.891-1.05-4.066-.137-.105-.46-.255-.539-.406a15.928 15.928 0 0 0-.669-5.073c2.282-2.279 1.47-3.176-.117-5.541-.854-.917-2.164-.19-3.213-.172-.193-.051.054-.043-.035-.112a16.802 16.802 0 0 0-3.897-2.986c-.091-.091-.016.153-.107-.101-.285-1.928.114-2.998-2.272-3.374-2.134-.845-3.023-.19-4.162 1.737-1.682-.045-3.36.18-4.97.666-1.624-1.389-2.336-2.079-4.318-.677-2.171 1.017-2.045 2.03-1.619 4.144a15.897 15.897 0 0 0-2.99 3.909c-1.66.07-3.106.166-3.424 2.102-.228.746-.686 1.829-.466 2.609.34.901 1.434 1.227 2.056 1.862.068.725-.043 1.68.104 2.442Zm.665-1.584c.351-1.839-.626-1.735-1.772-2.708-.6-.643-.135-1.728.086-2.475.321-2.443 2.836-.438 3.506-2.317a15.31 15.31 0 0 1 2.674-3.413c1.13-1.403-1.268-2.815 1.322-3.912 2.379-1.728 2.119.255 3.968.792a14.88 14.88 0 0 1 4.381-.696c.472 0 .866.126 1.21-.232.717-.833 1.212-2.285 2.571-1.705 1.001.211 2.692.37 2.518 1.775.069.964-.13 1.806.991 2.121a14.055 14.055 0 0 1 2.584 1.914c.324.303.707.938 1.154.987 2.814-.507 2.657-.544 4.017 2.034.756 1.169-.7 1.879-1.16 2.795-.196.37.047.753.147 1.131.346 1.418.5 2.876.457 4.335.035.306.132.332.377.515 1.556.98 2.119 1.391 1.376 3.325-.333 2.74-2.699.608-3.507 2.413a14.096 14.096 0 0 1-2.642 3.433c-.274.261-.444.383-.43.754.085 1.387.885 2.482-.87 3.179-.562.336-1.46 1.045-2.114.649-.691-.354-1.185-1.159-1.92-1.385a15.11 15.11 0 0 1-4.43.71c-.47-.001-.87-.129-1.21.232-.71.757-1.118 2.232-2.442 1.733-3.083-.718-2.49-.604-2.88-3.481a17.233 17.233 0 0 1-3.344-2.36c-.336-.312-.702-.925-1.16-.986-.9-.161-2.055.744-2.82-.028-.522-.77-1.835-2.371-1.232-3.273.354-.539.85-.994 1.202-1.529.192-.375-.047-.747-.148-1.131a14.482 14.482 0 0 1-.46-3.196Z" fill="#2A2A38"/><path d="M33.66 205.619c1.103.224 1.62 1.642 2.78 1.52a1.324 1.324 0 0 0 .148 1.551 1.321 1.321 0 0 0 1.517.34c2.066 3.372 7.42-.031 5.788-3.397.925-.846.484-2.606-.893-2.474a1.744 1.744 0 0 0 .196-1.454c-.31-1.244.147-2.417.118-3.667-.02-4.888-5.44-8.328-9.901-6.446-6.411 2.477-6.579 11.998.248 14.027Zm5.304-.332a8.973 8.973 0 0 0-2.553-2.802l2.794-1.617a8.88 8.88 0 0 0 1.07 3.657l-1.311.762Zm3.388 4.263a2.887 2.887 0 0 1-3.44-.896c1.462-.904 2.837-1.67 4.303-2.526.57 1.147.42 2.84-.863 3.422Zm1.062-4.111c-1.66.961-3.3 1.973-4.988 2.886-.174.087-.37.122-.563.1a1.007 1.007 0 0 1-.852-.692 1.022 1.022 0 0 1-.018-.573c1.516-1.294 3.552-2.089 5.25-3.195.856-.548 2.022.805 1.171 1.474Zm-13.731-4.606c-3.302-10.009 11.353-12.747 12.926-2.841.151 1.412-.474 2.74-.11 4.129.091.395.297.825-.034 1.173-.505.224-.968.541-1.452.807a7.938 7.938 0 0 1-1.044-5.267c.05-.192-.194-.092-.269-.044-.561.337-.481 1.097-.509 1.674l-3.11 1.801a4.828 4.828 0 0 0-1.27-.602c-.243-.068-.782.603-.536.67a7.826 7.826 0 0 1 3.938 3.389c-1.055.622-1.605 1.184-2.617.051-.7-.625-1.52-.806-2.35-1.187a7.047 7.047 0 0 1-3.563-3.753Z" fill="#2A2A38"/><path d="M31.227 198.668a.725.725 0 0 0 .307-.462 4.086 4.086 0 0 1 1.96-3.563.829.829 0 0 0 .388-.469c.026-.191-.17-.092-.262-.038a5.486 5.486 0 0 0-2.747 4.615c-.002.167.317-.055.354-.083Z" fill="#2A2A38"/><path d="M96.067 194.739a1.473 1.473 0 0 1-1.38-1.993c.112-.299.316-.553.585-.725l54.263-34.807-61.563 35.633a1.472 1.472 0 0 1-2.136-1.637c.088-.372.316-.695.637-.901l2.114-1.288-2.741 1.585a1.468 1.468 0 0 1-1.955-.539 1.48 1.48 0 0 1 .435-1.984l59.615-37.762-59.562 34.47a1.468 1.468 0 0 1-1.995-.529 1.48 1.48 0 0 1 .494-2.009l25.706-15.764-24.205 14.001a1.472 1.472 0 0 1-2.155-1.628c.089-.374.32-.699.645-.904l45.471-28.295-43.96 25.431a1.468 1.468 0 0 1-1.952-.55 1.475 1.475 0 0 1 .447-1.982l28.998-17.833-27.494 15.914c-.335.2-.736.259-1.115.162a1.467 1.467 0 0 1-.903-.674 1.482 1.482 0 0 1 .51-2.024l35.548-21.951-34.04 19.702c-.335.2-.736.259-1.115.162a1.479 1.479 0 0 1-.393-2.698l39.058-24.182-37.55 21.741a1.473 1.473 0 0 1-2.132-1.619c.081-.369.3-.693.613-.905l57.565-36.309-56.046 32.442a1.471 1.471 0 0 1-2.128-1.634c.085-.371.31-.694.627-.902l19.949-12.203-18.448 10.674a1.47 1.47 0 0 1-1.97-.545 1.478 1.478 0 0 1 .471-1.994l6.773-4.132-5.3 3.058a1.471 1.471 0 0 1-2.129-1.634c.085-.371.31-.694.627-.902l25.966-15.94-24.464 14.169a1.473 1.473 0 0 1-2.137-1.63c.086-.371.311-.695.629-.903l35.551-21.953-34.017 19.698a1.469 1.469 0 0 1-1.93-.549 1.48 1.48 0 0 1 .408-1.969l61.726-39.137-60.204 34.845a1.469 1.469 0 0 1-1.977-.537 1.478 1.478 0 0 1 .472-1.999l30.716-18.913-29.21 16.912a1.473 1.473 0 0 1-2.18-1.634c.096-.379.339-.705.674-.905l26.797-16.472-25.292 14.645a1.472 1.472 0 0 1-2.154-1.62c.086-.374.314-.699.635-.907l54.493-34.482-52.974 30.659a1.469 1.469 0 0 1-1.977-.537 1.478 1.478 0 0 1 .472-1.999l22.633-13.974-21.128 12.229a1.471 1.471 0 0 1-2.019-.514 1.478 1.478 0 0 1 .514-2.024l9.29-5.709-7.785 4.505a1.477 1.477 0 0 1-2.022-.516 1.481 1.481 0 0 1 .514-2.026l12.724-7.873-11.216 6.494a1.473 1.473 0 0 1-2.154-1.62c.086-.373.314-.698.635-.906L109.79 84.13 84.379 98.837a1.472 1.472 0 0 1-2.154-1.62c.086-.374.314-.699.635-.907l17.753-11.217-16.234 9.392a1.47 1.47 0 0 1-1.995-.503 1.482 1.482 0 0 1 .455-2.012l27.774-18.201-26.234 15.185a1.47 1.47 0 0 1-1.976-.494 1.479 1.479 0 0 1 .407-2l30.035-20.726-28.466 16.475a1.471 1.471 0 0 1-2.094-1.603c.07-.361.27-.683.563-.904l2.029-1.308-.498.296a1.473 1.473 0 0 1-2.177-1.569c.074-.372.288-.701.599-.92l16.823-11.757-15.245 8.802a1.47 1.47 0 0 1-1.983-.467 1.476 1.476 0 0 1 .381-2.006l13.145-9.562-11.543 6.684a1.468 1.468 0 0 1-1.938-.435 1.479 1.479 0 0 1 .257-1.974l11.734-9.854-10.053 5.819a1.467 1.467 0 0 1-1.9-.39 1.479 1.479 0 0 1 .134-1.94l6.313-6.249-4.52 2.625a1.47 1.47 0 0 1-2.203-1.338c.013-.353.152-.689.392-.947l2.246-2.439a1.48 1.48 0 0 1-.22-2.657l6.033-3.483a1.47 1.47 0 0 1 1.885.363 1.476 1.476 0 0 1-.074 1.922l-.998 1.075 5.928-3.419a1.47 1.47 0 0 1 1.9.39 1.481 1.481 0 0 1-.134 1.94l-6.319 6.23 14.82-8.56a1.47 1.47 0 0 1 1.948.428 1.482 1.482 0 0 1-.263 1.981l-11.74 9.836 21.172-12.245a1.467 1.467 0 0 1 1.962.479 1.477 1.477 0 0 1-.36 1.992l-13.128 9.552 20.787-12.023a1.47 1.47 0 0 1 1.993.476 1.477 1.477 0 0 1-.412 2.013L112.798 58.81l24.614-14.237a1.471 1.471 0 0 1 2.025.492 1.481 1.481 0 0 1-.49 2.03l-2.035 1.307 6.614-3.838a1.467 1.467 0 0 1 1.955.505c.2.318.272.7.2 1.07-.072.37-.281.697-.586.917l-30.032 20.728 40.117-23.21a1.47 1.47 0 0 1 1.982.508 1.478 1.478 0 0 1-.438 2.003l-27.781 18.205 35.796-20.717a1.465 1.465 0 0 1 1.634.075 1.473 1.473 0 0 1 .313 2.064 1.472 1.472 0 0 1-.425.388l-17.744 11.217 23.739-13.744a1.476 1.476 0 0 1 1.635.075 1.484 1.484 0 0 1 .583.967 1.487 1.487 0 0 1-.695 1.485l-26.943 17.062 33.848-19.589a1.468 1.468 0 0 1 1.987.529 1.478 1.478 0 0 1-.476 2.004l-12.73 7.87 17.989-10.403a1.469 1.469 0 0 1 2.019.512 1.478 1.478 0 0 1-.512 2.024l-9.278 5.694 14.234-8.23a1.47 1.47 0 0 1 1.978.537 1.475 1.475 0 0 1-.473 1.999l-22.7 13.995 27.759-16.064a1.472 1.472 0 0 1 2.191 1.617 1.484 1.484 0 0 1-.668.91l-54.483 34.496 57.575-33.336a1.47 1.47 0 0 1 2.21 1.054 1.486 1.486 0 0 1-.276 1.096 1.483 1.483 0 0 1-.427.385l-26.796 16.475 26.546-15.35a1.468 1.468 0 0 1 2.018.512 1.478 1.478 0 0 1-.51 2.024l-30.722 18.874 29.267-16.926a1.467 1.467 0 0 1 2.021.5 1.475 1.475 0 0 1-.499 2.026L146.2 98.53l60.209-34.833a1.457 1.457 0 0 1 1.115-.163 1.466 1.466 0 0 1 .903.675 1.47 1.47 0 0 1-.511 2.024l-35.55 21.938 34.043-19.704a1.467 1.467 0 0 1 1.995.53 1.476 1.476 0 0 1-.494 2.009l-25.933 15.916 24.44-14.139a1.471 1.471 0 0 1 2.018.52c.199.336.256.739.158 1.118-.097.38-.34.704-.677.904l-6.831 4.15 5.332-3.085a1.47 1.47 0 0 1 1.996.53 1.48 1.48 0 0 1-.494 2.01l-19.95 12.202 18.448-10.677a1.47 1.47 0 0 1 1.981.526 1.477 1.477 0 0 1-.461 2l-57.562 36.277 56.034-32.42a1.469 1.469 0 0 1 1.966.54 1.475 1.475 0 0 1-.459 1.992l-39.057 24.185 37.55-21.735a1.467 1.467 0 0 1 2.018.512 1.477 1.477 0 0 1-.511 2.024l-35.577 21.968 34.07-19.716a1.47 1.47 0 0 1 1.977.537 1.479 1.479 0 0 1-.472 1.999l-28.973 17.815 27.471-15.903a1.47 1.47 0 0 1 1.986.529 1.478 1.478 0 0 1-.475 2.004l-45.516 28.339 44.005-25.463a1.469 1.469 0 0 1 1.96.548 1.481 1.481 0 0 1-.458 1.987l-25.672 15.755 24.17-13.989a1.466 1.466 0 0 1 1.98.525 1.476 1.476 0 0 1-.461 2.001l-59.626 37.759 57.22-33.118a1.48 1.48 0 0 1 1.634.09 1.477 1.477 0 0 1-.135 2.451l-2.818 1.712a1.47 1.47 0 0 1 1.832.719 1.48 1.48 0 0 1-.516 1.903l-54.261 34.803 49.721-28.775a1.472 1.472 0 0 1 2.165 1.615 1.48 1.48 0 0 1-.64.909l-38.993 24.908 34.93-20.212a1.474 1.474 0 0 1 2.126 1.616 1.475 1.475 0 0 1-.604.905l-25.422 16.171 21.747-12.584a1.47 1.47 0 0 1 2.146 1.617 1.478 1.478 0 0 1-.624.907l-12.326 7.796 9.008-5.21a1.47 1.47 0 0 1 1.971.512 1.478 1.478 0 0 1-.425 1.997l-23.081 15.249 19.191-11.105a1.468 1.468 0 0 1 1.978.505 1.476 1.476 0 0 1-.426 2.001l-15.448 10.303 11.779-6.819a1.465 1.465 0 0 1 1.953.473 1.48 1.48 0 0 1-.337 1.985l-20.123 15.055 15.503-8.971a1.474 1.474 0 0 1 1.628 2.451l-10.055 7.716 6.098-3.51a1.47 1.47 0 0 1 1.939.418 1.479 1.479 0 0 1-.234 1.973l-5.616 4.9 1.682-.97a1.473 1.473 0 0 1 2.173 1.378c-.02.351-.164.684-.406.938l-2.127 2.138a1.48 1.48 0 0 1 .945 1.26 1.484 1.484 0 0 1-.73 1.397l-6.884 3.985c-.309.168-.667.22-1.011.147a1.473 1.473 0 0 1-1.162-1.526c.019-.351.163-.684.406-.939l.656-.658-5.161 2.976a1.473 1.473 0 0 1-2.195-1.449c.042-.363.216-.698.49-.939l5.606-4.907-12.612 7.295a1.472 1.472 0 0 1-2.189-1.52c.061-.37.261-.702.558-.93l10.059-7.72-17.571 10.17a1.472 1.472 0 0 1-2.175-1.533c.062-.368.262-.699.559-.926l20.117-15.055-30.253 17.514c-.33.18-.717.227-1.08.132a1.477 1.477 0 0 1-.472-2.636l15.454-10.308-22.138 12.812a1.468 1.468 0 0 1-1.963-.515 1.48 1.48 0 0 1 .414-1.991l23.098-15.262-30.707 17.768a1.473 1.473 0 0 1-2.132-1.619c.081-.369.3-.693.613-.905l12.273-7.764-17.78 10.288a1.472 1.472 0 0 1-2.14-1.614c.081-.37.301-.695.615-.907l25.442-16.189-32.33 18.71a1.474 1.474 0 0 1-1.525-2.521l38.975-24.9-47.377 27.421a1.467 1.467 0 0 1-.738.206Z" fill="#3B2186"/><path d="M119.321 182.958c-.317 0-.624-.101-.878-.29a1.481 1.481 0 0 1 .059-2.414l31.643-21.13-36.125 20.909a1.474 1.474 0 0 1-2.159-1.597c.08-.372.299-.699.613-.912l36.897-24.318-39.385 22.786a1.472 1.472 0 0 1-2.148-1.609c.081-.372.302-.697.617-.909l31.369-20.118-33.239 19.238a1.467 1.467 0 0 1-2.002-.506 1.478 1.478 0 0 1 .471-2.015l36.864-23.722-38.999 22.574a1.472 1.472 0 0 1-2.185-1.626c.095-.38.336-.706.671-.907l15.047-9.363-16.113 9.321a1.47 1.47 0 0 1-2.086-1.617c.072-.361.276-.682.573-.9l31.019-19.596-32.686 18.92a1.472 1.472 0 0 1-2.155-1.613c.084-.373.308-.698.626-.908l43.693-27.982-43.165 24.979a1.471 1.471 0 0 1-2.125-1.623c.08-.368.3-.692.611-.903l29.029-18.199-27.515 15.92a1.468 1.468 0 0 1-1.96-.532 1.48 1.48 0 0 1 .434-1.989l42.769-27.303-41.243 23.87a1.473 1.473 0 0 1-2.155-1.613c.084-.372.308-.698.626-.908l46.821-30.093-45.292 26.205a1.473 1.473 0 0 1-2.123-1.631c.083-.369.305-.692.618-.902l7.273-4.481-5.768 3.339a1.473 1.473 0 0 1-2.155-1.612c.084-.373.308-.699.626-.909l46.821-30.095-45.292 26.207a1.47 1.47 0 0 1-2.146-1.617 1.48 1.48 0 0 1 .624-.907l40.818-25.977-39.296 22.742a1.468 1.468 0 0 1-1.97-.529 1.48 1.48 0 0 1 .448-1.995l40.25-25.599-38.728 22.417a1.471 1.471 0 0 1-2.165-1.607c.084-.375.31-.701.63-.911l44.073-28.616L96.158 112.4a1.467 1.467 0 0 1-1.987-.529 1.478 1.478 0 0 1 .476-2.004l4.968-3.085-3.457 2.002a1.471 1.471 0 0 1-1.98-.526 1.478 1.478 0 0 1 .46-2.001l15.675-9.918-14.155 8.191a1.471 1.471 0 0 1-1.98-.526 1.477 1.477 0 0 1 .46-2.001l8.316-5.257-6.796 3.932a1.47 1.47 0 0 1-1.962-.504 1.48 1.48 0 0 1 .395-1.99l29.241-20.074-27.68 16.017a1.469 1.469 0 0 1-1.968-.496 1.477 1.477 0 0 1 .395-1.995l20.663-14.296-19.084 11.055a1.47 1.47 0 0 1-1.986-.491 1.48 1.48 0 0 1 .42-2.006l10.877-7.445-9.311 5.381a1.469 1.469 0 0 1-1.97-.464 1.481 1.481 0 0 1 .353-1.998l13.251-9.922-11.634 6.746a1.469 1.469 0 0 1-1.933-.424 1.48 1.48 0 0 1 .234-1.97l10.512-9.128-8.813 5.104a1.473 1.473 0 0 1-2.218-1.388c.029-.362.19-.7.451-.95l4.711-4.584-2.944 1.703a1.468 1.468 0 0 1-1.726-.199 1.474 1.474 0 0 1-.335-1.708l1.67-3.542a1.47 1.47 0 0 1-1.578-.995 1.48 1.48 0 0 1 .659-1.747l3.43-1.987a1.469 1.469 0 0 1 2.171.998c.061.307.022.626-.11.909l-1.578 3.368 9.108-5.275a1.47 1.47 0 0 1 1.916.382 1.482 1.482 0 0 1-.149 1.953l-4.712 4.587 11.961-6.922a1.47 1.47 0 0 1 1.934.424 1.48 1.48 0 0 1-.234 1.97l-10.513 9.119 19.9-11.513a1.468 1.468 0 0 1 1.97.464 1.479 1.479 0 0 1-.354 1.998l-13.251 9.924 21.4-12.386a1.466 1.466 0 0 1 2.013.473 1.48 1.48 0 0 1-.444 2.025l-10.875 7.441 17.165-9.939a1.472 1.472 0 0 1 2.183 1.57 1.478 1.478 0 0 1-.608.921l-20.66 14.282 28.982-16.773a1.466 1.466 0 0 1 1.961.503 1.475 1.475 0 0 1-.395 1.991L127.813 78.95l39.008-22.568a1.469 1.469 0 0 1 2.021.5 1.477 1.477 0 0 1-.499 2.026l-8.316 5.25 13.449-7.776a1.469 1.469 0 0 1 2.021.5 1.477 1.477 0 0 1-.499 2.027l-15.662 9.9 21.495-12.436a1.477 1.477 0 0 1 1.115-.165 1.466 1.466 0 0 1 .906.673 1.479 1.479 0 0 1-.507 2.025l-5.006 3.111 9.735-5.635a1.467 1.467 0 0 1 1.974.518 1.478 1.478 0 0 1-.437 1.997l-44.072 28.607 50.006-28.943a1.476 1.476 0 0 1 1.525 2.527l-40.241 25.59 38.798-22.456a1.47 1.47 0 0 1 1.97.53 1.483 1.483 0 0 1-.447 1.994l-40.837 25.992 39.317-22.757a1.468 1.468 0 0 1 1.977.522 1.482 1.482 0 0 1-.449 2l-46.796 30.085 45.268-26.2a1.468 1.468 0 0 1 2.019.514 1.476 1.476 0 0 1-.514 2.024l-7.309 4.498 5.804-3.359a1.468 1.468 0 0 1 1.977.522 1.482 1.482 0 0 1-.449 2l-46.796 30.085 45.268-26.201a1.471 1.471 0 0 1 2.165 1.615 1.475 1.475 0 0 1-.639.909l-42.769 27.311 41.243-23.869a1.47 1.47 0 0 1 1.973.534 1.478 1.478 0 0 1-.459 1.996l-29.034 18.199 27.523-15.926a1.47 1.47 0 0 1 1.976.522 1.473 1.473 0 0 1-.448 1.999l-43.701 27.975 42.173-24.418a1.47 1.47 0 0 1 2.154 1.62 1.473 1.473 0 0 1-.635.907l-31.007 19.58 29.488-17.068a1.466 1.466 0 0 1 1.986.529 1.477 1.477 0 0 1-.475 2.004l-15.018 9.357 13.522-7.825a1.466 1.466 0 0 1 2.002.506 1.475 1.475 0 0 1-.471 2.014l-36.894 23.74 35.148-20.342a1.464 1.464 0 0 1 1.114-.173 1.463 1.463 0 0 1 .91.667 1.47 1.47 0 0 1-.493 2.03l-31.369 20.114 27.14-15.706a1.467 1.467 0 0 1 1.972.512 1.482 1.482 0 0 1-.426 1.997l-36.893 24.32 32.144-18.597c.33-.185.719-.236 1.086-.142a1.475 1.475 0 0 1 1.075 1.731 1.476 1.476 0 0 1-.606.915l-31.644 21.123 26.967-15.606a1.473 1.473 0 0 1 2.183 1.571 1.471 1.471 0 0 1-.607.92l-26.369 18.34 21.542-12.469a1.47 1.47 0 0 1 1.956.493 1.478 1.478 0 0 1-.368 1.987l-17 12.103 12.568-7.273a1.466 1.466 0 0 1 1.95.466 1.477 1.477 0 0 1-.321 1.984l-11.818 9.024 7.38-4.274a1.464 1.464 0 0 1 1.972.436 1.477 1.477 0 0 1-.317 1.999l-4.247 3.383.422-.245a1.468 1.468 0 0 1 1.897.372c.219.281.328.633.308.988a1.473 1.473 0 0 1-.415.948l-3.172 3.247a1.476 1.476 0 0 1 .613 2.749l-7.694 4.451a1.473 1.473 0 0 1-1.791-2.308l2.48-2.548-8.399 4.862a1.467 1.467 0 0 1-1.956-.445 1.48 1.48 0 0 1 .302-1.988l4.263-3.392-10.079 5.836a1.468 1.468 0 0 1-1.961-.458 1.478 1.478 0 0 1 .33-1.991l11.828-9.042-19.864 11.495a1.472 1.472 0 0 1-2.176-1.558c.07-.371.28-.701.585-.922l17.009-12.103-25.213 14.588a1.47 1.47 0 0 1-2.183-1.57 1.48 1.48 0 0 1 .608-.921l26.367-18.323-35.954 20.82a1.47 1.47 0 0 1-.748.201ZM138.364 39.069a1.474 1.474 0 0 1-1.361-2.04c.125-.301.344-.552.624-.714l6.031-3.49a1.468 1.468 0 0 1 2.02.536 1.479 1.479 0 0 1-.547 2.02l-6.031 3.49c-.224.13-.478.199-.736.198Z" fill="#E1EFFF"/><path d="M142.586 61.902a1.472 1.472 0 0 1-1.405-1.916c.092-.296.275-.555.522-.74l2.585-1.931-7.585 4.38a1.47 1.47 0 0 1-1.945-.427 1.48 1.48 0 0 1 .258-1.978l8.106-6.867-15.804 9.151a1.473 1.473 0 0 1-2.201-1.55c.074-.375.29-.707.602-.926l4.096-2.967-5.857 3.392a1.467 1.467 0 0 1-1.993-.476 1.476 1.476 0 0 1 .412-2.013l1.652-1.16-1.307.759a1.473 1.473 0 0 1-1.743-2.362l3.98-3.728-2.299 1.331a1.47 1.47 0 0 1-2.203-1.216 1.476 1.476 0 0 1 .289-.944l1.876-2.524a1.47 1.47 0 0 1-1.295-1.16 1.481 1.481 0 0 1 .706-1.589l4.885-2.819a1.469 1.469 0 0 1 1.833.3 1.483 1.483 0 0 1 .081 1.861l-1.455 1.957 7.247-4.195a1.468 1.468 0 0 1 1.939.39 1.477 1.477 0 0 1-.196 1.972l-3.984 3.722 19.37-11.217a1.47 1.47 0 0 1 1.993.476 1.477 1.477 0 0 1-.412 2.013l-1.663 1.18 1.431-.83a1.47 1.47 0 0 1 1.992.465 1.477 1.477 0 0 1-.393 2.012l-4.093 2.964 5.3-3.079a1.47 1.47 0 0 1 1.944.428 1.481 1.481 0 0 1-.257 1.978l-8.08 6.867 15.144-8.765a1.471 1.471 0 0 1 1.971.464 1.48 1.48 0 0 1-.354 1.998l-2.594 1.937 3.604-2.085a1.469 1.469 0 0 1 1.916.383 1.483 1.483 0 0 1-.149 1.953l-6.646 6.476 5.718-3.31a1.47 1.47 0 0 1 1.925.401 1.477 1.477 0 0 1-.188 1.961l-1.001.933a1.47 1.47 0 0 1 1.417 1.097 1.474 1.474 0 0 1-.686 1.657l-9.889 5.71a1.468 1.468 0 0 1-1.917-.406 1.479 1.479 0 0 1 .183-1.956l.333-.313-4.617 2.671a1.47 1.47 0 0 1-1.916-.382 1.478 1.478 0 0 1 .149-1.953l6.631-6.494-15.218 8.833a1.446 1.446 0 0 1-.745.206Z" fill="#ECECEC"/><path d="M210.543 206.535a1.477 1.477 0 0 1-.833-2.692l9.299-6.388-14.532 8.41a1.468 1.468 0 0 1-1.976-.494 1.479 1.479 0 0 1 .407-2l17.326-11.867-22.258 12.882a1.47 1.47 0 0 1-1.969-.49 1.477 1.477 0 0 1 .387-1.995l28.413-19.832-33.772 19.549a1.474 1.474 0 0 1-2.166-1.6c.082-.374.305-.701.623-.913l20.662-13.578-23.451 13.578a1.466 1.466 0 0 1-1.96-.532 1.485 1.485 0 0 1-.18-1.082c.082-.37.301-.694.615-.907l11.054-7.061-12.662 7.321a1.469 1.469 0 0 1-2.002-.49 1.477 1.477 0 0 1 .447-2.016l31.213-20.826-33.807 19.545a1.467 1.467 0 0 1-1.965-.521 1.478 1.478 0 0 1 .425-1.992l25.103-16.332-26.602 15.391a1.47 1.47 0 0 1-2.096-1.592c.066-.36.263-.683.553-.905l35.925-24.077-37.691 21.795a1.47 1.47 0 0 1-1.963-.537 1.474 1.474 0 0 1 .446-1.99l7.891-4.974-7.965 4.614a1.471 1.471 0 0 1-2.164-1.607 1.47 1.47 0 0 1 .63-.911l23.934-15.495-24.146 13.978a1.473 1.473 0 0 1-2.189-1.59c.084-.377.311-.706.634-.917l33.143-22.121-33.258 19.243a1.463 1.463 0 0 1-1.088.133 1.475 1.475 0 0 1-1.059-1.742c.081-.371.302-.697.616-.909l17.607-11.332-16.868 9.762c-.165.1-.349.166-.54.196a1.48 1.48 0 0 1-1.094-.271 1.472 1.472 0 0 1-.583-.967 1.49 1.49 0 0 1 .27-1.097c.115-.156.259-.288.425-.388l4.67-2.952-3.504 2.028a1.47 1.47 0 0 1-1.985-.513 1.476 1.476 0 0 1 .451-2.005l15.353-9.948-13.848 8.017a1.473 1.473 0 0 1-2.165-1.615 1.48 1.48 0 0 1 .639-.909l2.256-1.434-.451.259a1.466 1.466 0 0 1-2.005-.465 1.475 1.475 0 0 1 .418-2.02l26.658-18.804-23.424 13.558a1.467 1.467 0 0 1-1.098.165 1.478 1.478 0 0 1-1.092-1.746c.081-.376.306-.706.626-.919l12.111-8.242-8.215 4.753a1.47 1.47 0 0 1-1.97-.508 1.475 1.475 0 0 1 .415-1.996l3.534-2.361a1.475 1.475 0 0 1-.79-2.63l8.867-7.008a1.473 1.473 0 0 1-1-1.25c-.03-.283.024-.568.153-.821.128-.253.328-.464.573-.606l13.772-7.971a1.471 1.471 0 0 1 2.2 1.504 1.475 1.475 0 0 1-.551.935l-6.184 4.882 16.896-9.78a1.473 1.473 0 0 1 2.214 1.588 1.472 1.472 0 0 1-.656.918l-.171.113 4.417-2.553a1.467 1.467 0 0 1 1.969.501 1.483 1.483 0 0 1-.405 1.996l-12.105 8.239 16.881-9.771a1.471 1.471 0 0 1 2.187 1.563c-.075.374-.29.705-.603.922l-26.663 18.804 32.606-18.875a1.472 1.472 0 0 1 2.023.499 1.482 1.482 0 0 1-.498 2.028l-2.203 1.402 4.002-2.317a1.469 1.469 0 0 1 1.959.527 1.479 1.479 0 0 1-.424 1.988l-15.365 9.96 17.641-10.211a1.47 1.47 0 0 1 1.98.526 1.476 1.476 0 0 1-.461 2.001l-4.682 2.952 5.972-3.433a1.472 1.472 0 0 1 2.165 1.607 1.478 1.478 0 0 1-.631.911l-17.615 11.326 19.208-11.114a1.474 1.474 0 0 1 2.148 1.591 1.477 1.477 0 0 1-.596.913l-33.133 22.113 35.394-20.484a1.47 1.47 0 0 1 2.025.489 1.476 1.476 0 0 1-.488 2.029l-23.951 15.504 25.029-14.482a1.468 1.468 0 0 1 2.022.503c.202.335.262.737.167 1.117a1.47 1.47 0 0 1-.669.909l-7.868 4.954 8.053-4.662a1.468 1.468 0 0 1 1.112-.184 1.48 1.48 0 0 1 .446 2.691L213.57 164.68l36.85-21.325a1.47 1.47 0 0 1 1.951.529 1.48 1.48 0 0 1-.414 1.983l-25.089 16.327 25.03-14.488a1.468 1.468 0 0 1 1.979.505 1.478 1.478 0 0 1-.427 2.001l-31.229 20.832 30.831-17.838a1.468 1.468 0 0 1 1.99.516 1.479 1.479 0 0 1-.464 2.007l-11.005 7.029 9.859-5.715a1.47 1.47 0 0 1 2.01.491 1.48 1.48 0 0 1-.464 2.021l-20.692 13.605 19.14-11.081a1.468 1.468 0 0 1 1.994.476 1.477 1.477 0 0 1-.412 2.013l-28.399 19.822 25.775-14.919a1.472 1.472 0 0 1 2.18 1.578 1.474 1.474 0 0 1-.614.919l-17.32 11.861 13.778-7.97a1.469 1.469 0 0 1 1.976.493 1.483 1.483 0 0 1-.406 2.001l-9.306 6.4 4.765-2.76a1.475 1.475 0 0 1 2.037.461 1.48 1.48 0 0 1-.459 2.042l-4.543 3.138a1.473 1.473 0 0 1 1.092 1.228 1.49 1.49 0 0 1-.136.85 1.486 1.486 0 0 1-.585.629l-26.567 15.377a1.473 1.473 0 0 1-2.174-1.577c.076-.372.292-.701.604-.918l.183-.127-5.61 3.247a1.46 1.46 0 0 1-.736.192Z" fill="#F1CE7F"/><path d="M114.809 181.757a1.475 1.475 0 0 1-1.449-1.736l.492-2.775-1.652.957a1.47 1.47 0 0 1-1.82-.274 1.475 1.475 0 0 1-.132-1.84l.707-1.025-1.199.691a1.464 1.464 0 0 1-1.824-.289 1.477 1.477 0 0 1-.107-1.848l2.856-3.988-4.452 2.58a1.47 1.47 0 0 1-1.883-.357 1.477 1.477 0 0 1 .063-1.919l2.211-2.415-3.216 1.86a1.464 1.464 0 0 1-1.754-.218 1.471 1.471 0 0 1-.431-.829 1.475 1.475 0 0 1 .151-.922l1.372-2.597-2.468 1.426a1.467 1.467 0 0 1-1.996-.491l-1.767-2.825a1.468 1.468 0 0 1-1.766-.833 1.479 1.479 0 0 1 .612-1.859l.93-.537a1.47 1.47 0 0 1 1.99.49l1.768 2.79 5.651-3.274a1.472 1.472 0 0 1 2.034 1.969l-1.372 2.595 7.085-4.101a1.471 1.471 0 0 1 2.205 1.325c-.01.352-.146.688-.382.948l-2.209 2.415 2.061-1.196a1.471 1.471 0 0 1 2.203 1.194c.02.337-.076.669-.271.943l-2.853 3.992.921-.534a1.468 1.468 0 0 1 1.817.276 1.482 1.482 0 0 1 .133 1.837l-1.066 1.556a1.476 1.476 0 0 1 1.302 1.735l-.672 3.779a1.47 1.47 0 0 1 .697 1.277 1.47 1.47 0 0 1-.203.725c-.128.22-.312.403-.532.531l-1.048.608c-.226.124-.48.187-.737.183Z" fill="#ECECEC"/><path d="M207.981 167.72a1.464 1.464 0 0 1-1.287-.76 1.474 1.474 0 0 1 .039-1.498l2.909-4.655-4.396 2.541a1.47 1.47 0 0 1-2.205-1.252 1.484 1.484 0 0 1 .32-.947l1.472-1.833a1.471 1.471 0 0 1-1.067-1.233 1.48 1.48 0 0 1 .72-1.465l4.882-2.822a1.469 1.469 0 0 1 1.849.318 1.48 1.48 0 0 1 .036 1.881l-.704.886 2.759-1.594a1.47 1.47 0 0 1 2.202 1.128c.034.329-.044.659-.22.938l-2.91 4.655 2.807-1.623a1.465 1.465 0 0 1 1.673.065 1.466 1.466 0 0 1 .531 1.591 1.475 1.475 0 0 1-.732.897l-7.941 4.585c-.224.13-.478.199-.737.197Z" fill="#E1EFFF"/><path d="M208.582 115.078c.062-19.453 1.357-39.355 0-58.743-1.325-18.55-26.97-12.33-40.142-12.319-2.558-3.114-8.145-2.137-13.097-2.952-1.312.225-1.352-.044-.121-.806-2.491-8.53-13.725-11.33-18.572-3.025-1.973 3.858.179 3.82-4.774 3.82-4.355 0-7.629.528-9.537 2.952-12.798-.136-37.724-5.952-40.145 11.332-1.849 41.537.333 83.941 0 125.593.651 16.531 13.546 14.17 26.596 14.17h71.026c28.637 26.912 75.872 3.861 76.001-34.71-1.136-25.616-21.222-46.369-47.235-45.312ZM192.802 47.5c10.836.717 13.074 6.996 13.074 16.53v51.196a43.658 43.658 0 0 0-9.114 1.921V65.583c0-4.502.618-8.088-4.264-9.791-6.022-2.1-15.657-.357-22.565-.062.471-2.734.49-5.526.056-8.266 7.594-.068 15.298-.463 22.813.036ZM100.26 163.319c-.23-.254-.386-.472-.589-.711 16.511-.868 15.421-.485 14.9 15.432a142.31 142.31 0 0 1-14.311-14.721Zm15.922-2.521c-5.042-3.699-12.774-.806-18.702-1.644-1.614-25.561-.03-53.478-.569-79.428 0-3.247-2.114-16.803 0-19.456 3.534-4.292 20.404-.845 25.931-1.282 4.323 4.892 13.773 3.277 21.9 3.277 7.288-.516 18.351 2.952 23.801-2.952 6.438-.077 16.196-1.98 22.085 0 5.595 1.887 3.484 8.56 3.484 14.252v44.512c-23.581 8.712-36.847 38.786-25.456 61.932-16.526-1.358-35.139 2.985-51.323-.227-.742-6.066 1.69-13.446-1.151-18.984Zm20.641-116.245c.713 0 .999-.938 1.069-1.475 2.474-9.094 7.48-9.12 15.018-.077a1.648 1.648 0 0 0 1.576 1.553c3.913 0 11.808-1.494 13.106 4.212.194 15.613-18.925 8.47-28.742 9.998-5.042 0-13.372 1.819-15.687-4.493-3.548-9.697 8.039-9.718 13.66-9.718ZM84.915 183.21c-1.083-36.309.701-73.394 0-109.907-4.402-31.585 10.836-27.677 35.925-25.864a17.642 17.642 0 0 0 .327 8.52c-13.121-.86-31.299-5.675-27.386 13.356.44 30.662-.76 61.551.221 92.083 1.579 5.296 9.667 10.193 13.401 14.06 1.75 1.751 5.03 6.439 7.489 7.466a.788.788 0 0 0 .777.233c17.748 1.845 36.661-1.157 54.6-.077a46.336 46.336 0 0 0 6.042 8.537h-65.992c-8.843 0-22.012 3.174-25.404-8.407Zm118.01 19.636c-54.903-11.722-41.422-91.902 14.503-83.929 54.514 11.288 41.054 92.242-14.503 83.929Z" fill="#2A2A38"/><path d="M222.08 159.142h-4.543a7.212 7.212 0 0 0-2.124-3.607 7.179 7.179 0 0 0-3.766-1.816V142.62c0-2.185-2.927-.591-2.927 1.098v10.105c-15.733 5.514 2.447 23.417 8.743 8.796h4.373c1.673 0 2.144-3.477.244-3.477Zm-11.975 6.27c-4.659-.325-5.625-7.817-.972-8.936a1.168 1.168 0 0 0 1.083-.074c5.224.228 5.445 9.27-.111 9.01ZM210.075 132.722c2.509.192 2.78-5.998.2-5.674-2.509-.191-2.782 5.996-.2 5.674ZM188.815 137.117a2.026 2.026 0 0 0-2.598-.145c-.252.19-.457.435-.597.718-.392 1.376 1.495 2.114 2.19 3.12a2.018 2.018 0 0 0 3.192-.572c.395-1.376-1.496-2.117-2.187-3.121ZM180.838 159.558c-1.514.242-4.253-.77-4.815 1.181-.068.835.907 1.476 1.652 1.476 1.513-.242 4.252.77 4.815-1.181.067-.844-.908-1.476-1.652-1.476ZM188.679 180.467c-1.039 1.296-3.486 2.547-2.65 4.496 1.943 2.807 7.768-6.666 2.65-4.496ZM208.532 190.677v2.953c0 2.066 3.286 1.121 3.286-.556v-2.951c0-2.052-3.286-1.122-3.286.554ZM232.216 180.511c-1.34-1.367-3.469 1.181-2.438 2.486 1.177.929 2.5 3.577 4.122 1.936 1.758-1.742-.495-3.188-1.684-4.422ZM238.27 160.73c-.769 2.784 5.262 2.527 5.648.295.768-2.778-5.262-2.506-5.648-.295ZM231.686 141.286c1.042-1.291 3.49-2.554 2.618-4.496-1.929-2.793-7.757 6.701-2.618 4.496ZM164.742 88.28c3.884.954 8.383-9.811 11.458-12.5 1.383-1.852-1.635-2.463-2.721-1.01l-7.412 9.907-1.743-1.745c-1.178-1.181-3.873 1.048-2.527 2.397l2.945 2.952ZM164.68 117.614c4.058 1.541 8.49-9.567 11.596-12.203 1.32-1.771-1.843-2.61-2.874-1.234l-7.479 10.001-1.537-1.541c-1.178-1.181-4.102.57-2.651 2.025l2.945 2.952ZM109.874 77.046c3.89-1.22 50.69 3.306 41.591-3.522-3.891 1.207-50.69-3.318-41.591 3.522ZM110.036 88.827c3.027-.886 31.396 2.745 23.598-3.49-3.026.898-31.396-2.745-23.598 3.49ZM109.636 106.302c3.489-.991 50.739 2.751 42.067-3.014-3.489.989-50.74-2.754-42.067 3.014ZM133.32 118.137c9.372-5.441-20.319-2.312-22.946-3.071-9.384 5.441 20.295 2.312 22.946 3.071ZM151.297 132.569c-3.672 1.201-51.22-3.265-41.255 3.486 3.672-1.199 51.22 3.276 41.255-3.486ZM133.773 144.766c-2.294.591-32.097-1.945-23.875 2.71 2.294-.579 32.099 1.945 23.875-2.71Z" fill="#2A2A38"/><path d="M111.817 13.745a.15.15 0 0 1-.134-.087.145.145 0 0 1 .023-.158l.582-.669-1.332.77a.146.146 0 0 1-.218-.145.148.148 0 0 1 .048-.093l.863-.749-1.13.655a.15.15 0 0 1-.195-.045.148.148 0 0 1 .028-.198l.769-.62-.843.488a.147.147 0 0 1-.167-.241l.814-.677-.768.443a.145.145 0 0 1-.104.015.148.148 0 0 1-.114-.16.144.144 0 0 1 .049-.095l.579-.498-.362.209a.145.145 0 0 1-.103.017.145.145 0 0 1-.089-.057.149.149 0 0 1 .019-.196l.358-.333a.159.159 0 0 1-.054-.054.158.158 0 0 1-.02-.074c0-.026.008-.052.02-.074a.159.159 0 0 1 .054-.054l.75-.434a.147.147 0 0 1 .192.04c.022.03.032.066.029.102a.154.154 0 0 1-.047.095l-.118.108.591-.342a.148.148 0 0 1 .17.24l-.579.498.908-.524a.148.148 0 0 1 .22.148.15.15 0 0 1-.052.094l-.815.678 1.001-.578a.146.146 0 0 1 .195.044.15.15 0 0 1 .025.105.15.15 0 0 1-.054.094l-.768.618.806-.467a.148.148 0 0 1 .194.043.15.15 0 0 1 .026.103.15.15 0 0 1-.05.094l-.863.748.755-.437a.15.15 0 0 1 .187.034.15.15 0 0 1 .034.096.15.15 0 0 1-.036.095l-.582.67.041-.024a.14.14 0 0 1 .054-.021.15.15 0 0 1 .152.072.147.147 0 0 1-.014.167.146.146 0 0 1-.045.037l-.805.466a.147.147 0 0 1-.075.018Z" fill="#F2CF7E"/><path d="M119.088 10.91c-.111-.111-.516.05-.395.172l.946.947h-6.434a1.613 1.613 0 0 0-.382-.915l4.117-4.126.414-.416v1.279c0 .057.427 0 .427-.115v-1.67c0-.023-.067-.025-.074-.025h-1.666a.603.603 0 0 0-.301.081c-.066.04-.062.084.022.084h1.529a.349.349 0 0 0-.109.069l-4.192 4.202-.407.408c-.133-.1-.28-.18-.437-.236a1.624 1.624 0 0 0-.401-.082V4.113l.763.765c.098.099.501-.059.397-.162l-1.177-1.181c-.081-.081-.299-.017-.368.052l-1.178 1.18c-.059.06-.053.119.037.138a.387.387 0 0 0 .301-.079l.793-.797v6.55a1.81 1.81 0 0 0-.777.316l-4.042-4.054-.56-.559h1.204c.093 0 .224-.072.236-.174.011-.113-.113-.143-.198-.143h-1.667c-.085 0-.236.073-.236.174v1.669c0 .107.104.15.199.143.083-.006.235-.069.235-.174v-1.15l3.987 3.997.54.54a1.613 1.613 0 0 0-.383.922h-6.43a.792.792 0 0 0-.189.023l1.128-1.13c.067-.067-.059-.07-.1-.066a.492.492 0 0 0-.285.1l-1.178 1.182c-.019.018-.03.034-.009.054l1.178 1.18c.076.076.464-.082.403-.143l-1.016-1.018h6.498c.007.266.082.526.218.756.052.084.111.163.177.236l-4.119 4.13-.42.416v-1.26c0-.108-.103-.156-.199-.15-.087.006-.234.07-.234.177v1.67c0 .112.103.15.2.15h1.666a.24.24 0 0 0 .233-.178c.011-.113-.111-.15-.2-.15h-1.318c.005-.003.011-.005.015-.009l4.192-4.202.399-.4c.249.188.544.302.854.332v6.447l-.77-.772a.25.25 0 0 0-.291-.035c-.066.032-.176.148-.099.226l1.178 1.181a.27.27 0 0 0 .193.063.264.264 0 0 0 .181-.092l1.178-1.181a.14.14 0 0 0 .032-.058.132.132 0 0 0-.089-.157.29.29 0 0 0-.302.081l-.784.788v-6.504c.029-.004.057-.005.085-.01.25-.05.487-.154.692-.306l4.048 4.058.569.57h-1.157a.303.303 0 0 0-.28.127c-.044.089.039.163.126.163h1.665c.085 0 .292-.038.292-.164v-1.67c0-.103-.105-.133-.192-.125-.076.006-.238.063-.238.164v1.147l-3.989-4-.543-.543c.209-.243.34-.542.379-.86h6.51l-.991.994a.087.087 0 0 0-.033.042.084.084 0 0 0-.003.054.087.087 0 0 0 .079.065.35.35 0 0 0 .302-.08l1.178-1.181c.031-.031.065-.086.025-.126l-1.178-1.181ZM110.569 13a1.399 1.399 0 0 1-.122-1.528 1.2 1.2 0 0 1 .992-.62.308.308 0 0 0 .114-.002c.058.003.115.01.172.022a1.377 1.377 0 0 1 1.06 1.325 1.322 1.322 0 0 1-.811 1.24 1.264 1.264 0 0 1-1.405-.436Z" fill="#2A2A38"/><path d="M159.3 230.713a.153.153 0 0 1-.08-.024.144.144 0 0 1-.054-.063.147.147 0 0 1 .023-.158l.581-.67-1.331.771a.146.146 0 0 1-.193-.043.148.148 0 0 1 .023-.196l.862-.749-1.13.655a.15.15 0 0 1-.106.016.149.149 0 0 1-.06-.258l.769-.62-.843.488a.148.148 0 0 1-.194-.044.147.147 0 0 1 .027-.198l.814-.677-.768.443a.145.145 0 0 1-.192-.043.144.144 0 0 1 .023-.196l.579-.499-.362.209a.148.148 0 0 1-.174-.236l.359-.333a.147.147 0 0 1-.054-.202.147.147 0 0 1 .054-.054l.749-.433a.148.148 0 0 1 .193.04.144.144 0 0 1 .028.102.144.144 0 0 1-.047.094l-.117.109.591-.343a.149.149 0 0 1 .194.043.147.147 0 0 1-.025.197l-.578.498.908-.523a.145.145 0 0 1 .194.044.15.15 0 0 1 .026.103.15.15 0 0 1-.052.094l-.816.679 1.002-.579a.145.145 0 0 1 .195.045c.021.031.03.068.024.105a.143.143 0 0 1-.053.093l-.768.619.806-.467a.154.154 0 0 1 .105-.017.15.15 0 0 1 .089.059c.021.03.03.067.026.103a.155.155 0 0 1-.05.094l-.863.748.755-.436c.031-.017.065-.024.1-.017a.145.145 0 0 1 .12.146.15.15 0 0 1-.035.095l-.582.67.04-.024a.184.184 0 0 1 .055-.021.167.167 0 0 1 .059.002.15.15 0 0 1 .054.026.161.161 0 0 1 .038.044.146.146 0 0 1 .015.115.146.146 0 0 1-.028.052.126.126 0 0 1-.046.037l-.804.467a.163.163 0 0 1-.075.018Z" fill="#BFDBF0"/><path d="M166.571 227.878c-.111-.112-.516.05-.396.171l.946.947h-6.433a1.626 1.626 0 0 0-.383-.915l4.117-4.126.414-.415v1.278c0 .057.427 0 .427-.114v-1.67c0-.024-.067-.026-.074-.026h-1.666a.595.595 0 0 0-.301.082c-.065.039-.062.083.023.083h1.528a.332.332 0 0 0-.108.069l-4.193 4.203-.407.408a1.595 1.595 0 0 0-.838-.319v-6.454l.763.765c.099.099.501-.058.398-.162l-1.178-1.18c-.081-.082-.298-.017-.368.051l-1.178 1.181c-.059.059-.052.118.037.137a.371.371 0 0 0 .159-.007.4.4 0 0 0 .143-.071l.793-.797v6.55c-.281.042-.547.15-.778.315l-4.042-4.053-.559-.559h1.203c.094 0 .224-.073.236-.175.012-.112-.113-.143-.198-.143h-1.666c-.085 0-.236.073-.236.175v1.668c0 .107.104.15.198.143.083-.005.235-.068.235-.174v-1.15l3.988 3.997.539.541a1.612 1.612 0 0 0-.382.921h-6.43a.753.753 0 0 0-.189.024l1.127-1.131c.068-.067-.058-.069-.099-.066a.497.497 0 0 0-.286.101l-1.177 1.181c-.02.019-.03.034-.009.054l1.177 1.181c.076.076.464-.082.403-.144l-1.016-1.018h6.498a1.508 1.508 0 0 0 .395.992l-4.119 4.13-.419.417v-1.261c0-.108-.103-.156-.2-.15-.087.006-.234.071-.234.178v1.669c0 .113.103.15.2.15h1.666a.242.242 0 0 0 .234-.177c.01-.114-.112-.15-.2-.15h-1.318l.014-.01 4.192-4.202.399-.399c.249.187.545.302.854.331v6.447l-.769-.771a.257.257 0 0 0-.14-.066.253.253 0 0 0-.151.03c-.066.032-.177.148-.1.227l1.178 1.18a.253.253 0 0 0 .09.051.284.284 0 0 0 .104.013.288.288 0 0 0 .099-.028.274.274 0 0 0 .082-.065l1.177-1.181a.14.14 0 0 0 .032-.057.134.134 0 0 0-.033-.123.122.122 0 0 0-.055-.034.292.292 0 0 0-.302.081l-.784.787v-6.504c.029-.004.056-.005.085-.01.25-.049.486-.154.691-.306l4.048 4.058.57.571h-1.158a.302.302 0 0 0-.279.126c-.045.089.039.163.126.163h1.665c.085 0 .292-.038.292-.164v-1.67c0-.103-.106-.132-.193-.125-.076.006-.237.063-.237.164v1.147l-3.989-3.999-.543-.544c.208-.242.339-.542.378-.859h6.51l-.99.993a.086.086 0 0 0-.034.043.083.083 0 0 0-.003.054.09.09 0 0 0 .029.045.09.09 0 0 0 .051.02.346.346 0 0 0 .302-.081l1.177-1.181c.032-.031.066-.086.026-.126l-1.178-1.181Zm-8.519 2.09a1.39 1.39 0 0 1-.122-1.528c.099-.18.242-.331.416-.439.173-.109.371-.171.575-.181a.317.317 0 0 0 .115-.002c.057.003.115.01.171.021a1.372 1.372 0 0 1 1.06 1.326 1.32 1.32 0 0 1-.811 1.239 1.267 1.267 0 0 1-1.404-.436Z" fill="#2A2A38"/><path d="M28.047 91.56c6.383-.514 17.255-5.128 17.06-12.808-5.372 4.088-14.456 6.544-17.26-.581-1.844-4.692 1.146-7.993 5.563-9.02 4.898-1.144 9.03 1.109 11.62 5.119.438-.471.832-.98 1.178-1.522 5.437-8.983-6.704-16.09-14.139-16.467-1.662-.082-1.685-2.639 0-2.607 10.746.191 23.508 10.577 16.232 21.8a11.866 11.866 0 0 1-1.812 2.129C48.342 86.232 35.1 92.49 28.065 93.076c-.992.082-.988-1.44-.018-1.517Zm6.568-20.687c-3.8.65-5.703 4.396-2.718 7.266 3.294 3.21 9.02.14 12.318-3.034-1.762-3.487-5.667-4.904-9.6-4.232Z" fill="#EAEAEB"/><path d="M30.058 99.089a39.625 39.625 0 0 1-8.893-2.52A1.274 1.274 0 0 1 20.291 95c1.196-3.592 3.805-6.44 6.641-8.856a.864.864 0 0 1 1.433.627.868.868 0 0 1-.214.6c-1.962 2.316-3.891 4.382-5.029 7.157 2.528.722 5.251 1.067 7.548 2.27 1.001.555.589 2.444-.612 2.29Z" fill="#EAEAEB"/></svg>