<svg width="251" height="70" fill="none" xmlns="http://www.w3.org/2000/svg"><path d="M0 0h251v70H0V0Z" fill="#3B2186"/><path d="M81.744 20.228 78.16 30h-2.38l-3.584-9.772h2.1l2.688 7.77 2.674-7.77h2.086Zm2.17 1.092c-.346 0-.636-.107-.869-.322a1.123 1.123 0 0 1-.336-.826c0-.327.112-.597.336-.812.233-.224.523-.336.868-.336.346 0 .63.112.854.336.234.215.35.485.35.812a1.1 1.1 0 0 1-.35.826c-.224.215-.508.322-.854.322Zm.965.924V30h-1.96v-7.756h1.96Zm1.433 3.85c0-.784.154-1.48.462-2.086.317-.607.746-1.073 1.288-1.4a3.428 3.428 0 0 1 1.806-.49c.504 0 .984.112 1.442.336.457.215.82.504 1.092.868V19.64h1.988V30h-1.988v-1.148c-.243.383-.584.69-1.022.924-.44.233-.948.35-1.526.35-.654 0-1.251-.168-1.792-.504a3.57 3.57 0 0 1-1.288-1.414c-.308-.616-.462-1.32-.462-2.114Zm6.104.028c0-.476-.094-.882-.28-1.218a1.916 1.916 0 0 0-.756-.784 1.981 1.981 0 0 0-1.022-.28c-.364 0-.7.089-1.008.266a2.04 2.04 0 0 0-.756.784c-.187.336-.28.737-.28 1.204 0 .467.093.877.28 1.232.196.345.448.611.756.798.317.187.653.28 1.008.28.364 0 .704-.089 1.022-.266.317-.187.569-.448.756-.784.186-.345.28-.756.28-1.232Zm11.098-.168c0 .28-.019.532-.056.756h-5.67c.047.56.243.999.588 1.316.345.317.77.476 1.274.476.728 0 1.246-.313 1.554-.938h2.114a3.567 3.567 0 0 1-1.288 1.848c-.635.476-1.414.714-2.338.714-.747 0-1.419-.163-2.016-.49a3.606 3.606 0 0 1-1.386-1.414c-.327-.607-.49-1.307-.49-2.1 0-.803.163-1.507.49-2.114a3.42 3.42 0 0 1 1.372-1.4c.588-.327 1.265-.49 2.03-.49.737 0 1.395.159 1.974.476.588.317 1.041.77 1.358 1.358.327.579.49 1.246.49 2.002Zm-2.03-.56c-.009-.504-.191-.905-.546-1.204-.355-.308-.789-.462-1.302-.462-.485 0-.896.15-1.232.448-.327.29-.527.695-.602 1.218h3.682Zm6.905 4.732c-.747 0-1.419-.163-2.016-.49a3.669 3.669 0 0 1-1.414-1.414c-.336-.607-.504-1.307-.504-2.1 0-.793.172-1.493.518-2.1a3.64 3.64 0 0 1 1.442-1.4 4.116 4.116 0 0 1 2.03-.504c.746 0 1.423.168 2.03.504a3.562 3.562 0 0 1 1.428 1.4c.354.607.532 1.307.532 2.1 0 .793-.182 1.493-.546 2.1a3.722 3.722 0 0 1-1.456 1.414c-.607.327-1.288.49-2.044.49Zm0-1.708c.354 0 .686-.084.994-.252a1.92 1.92 0 0 0 .756-.784c.186-.345.28-.765.28-1.26 0-.737-.196-1.302-.588-1.694a1.877 1.877 0 0 0-1.414-.602c-.56 0-1.032.2-1.414.602-.374.392-.56.957-.56 1.694s.182 1.307.546 1.708c.373.392.84.588 1.4.588Zm15.945-5.166c0 .523-.126 1.013-.378 1.47-.242.457-.63.826-1.162 1.106-.522.28-1.185.42-1.988.42h-1.638V30h-1.96v-9.772h3.598c.756 0 1.4.13 1.932.392.532.261.929.62 1.19 1.078.271.457.406.975.406 1.554Zm-3.612 1.414c.542 0 .943-.121 1.204-.364.262-.252.392-.602.392-1.05 0-.952-.532-1.428-1.596-1.428h-1.554v2.842h1.554Zm6.964-1.218c.252-.41.578-.733.98-.966.41-.233.877-.35 1.4-.35v2.058h-.518c-.616 0-1.083.145-1.4.434-.308.29-.462.793-.462 1.512V30h-1.96v-7.756h1.96v1.204Zm10.91 2.506c0 .28-.019.532-.056.756h-5.67c.047.56.243.999.588 1.316.345.317.77.476 1.274.476.728 0 1.246-.313 1.554-.938h2.114a3.567 3.567 0 0 1-1.288 1.848c-.635.476-1.414.714-2.338.714-.747 0-1.419-.163-2.016-.49a3.606 3.606 0 0 1-1.386-1.414c-.327-.607-.49-1.307-.49-2.1 0-.803.163-1.507.49-2.114a3.421 3.421 0 0 1 1.372-1.4c.588-.327 1.265-.49 2.03-.49.737 0 1.395.159 1.974.476.588.317 1.041.77 1.358 1.358.327.579.49 1.246.49 2.002Zm-2.03-.56c-.009-.504-.191-.905-.546-1.204-.355-.308-.789-.462-1.302-.462-.485 0-.896.15-1.232.448-.327.29-.527.695-.602 1.218h3.682Zm6.429 4.732c-.635 0-1.204-.112-1.708-.336-.504-.233-.906-.546-1.204-.938a2.382 2.382 0 0 1-.476-1.302h1.974c.037.299.182.546.434.742.261.196.583.294.966.294.373 0 .662-.075.868-.224.214-.15.322-.34.322-.574 0-.252-.131-.439-.392-.56-.252-.13-.658-.27-1.218-.42a10.702 10.702 0 0 1-1.428-.434 2.533 2.533 0 0 1-.952-.686c-.262-.308-.392-.723-.392-1.246 0-.43.121-.821.364-1.176.252-.355.606-.635 1.064-.84.466-.205 1.012-.308 1.638-.308.924 0 1.661.233 2.212.7.55.457.854 1.078.91 1.862h-1.876a.985.985 0 0 0-.392-.728c-.224-.187-.528-.28-.91-.28-.355 0-.63.065-.826.196a.629.629 0 0 0-.28.546c0 .261.13.462.392.602.261.13.667.266 1.218.406.56.14 1.022.285 1.386.434.364.15.676.383.938.7.27.308.41.719.42 1.232 0 .448-.126.85-.378 1.204-.243.355-.598.635-1.064.84-.458.196-.994.294-1.61.294Zm11.87-4.172c0 .28-.018.532-.056.756h-5.67c.047.56.243.999.588 1.316.346.317.77.476 1.274.476.728 0 1.246-.313 1.554-.938h2.114a3.567 3.567 0 0 1-1.288 1.848c-.634.476-1.414.714-2.338.714-.746 0-1.418-.163-2.016-.49a3.606 3.606 0 0 1-1.386-1.414c-.326-.607-.49-1.307-.49-2.1 0-.803.164-1.507.49-2.114a3.421 3.421 0 0 1 1.372-1.4c.588-.327 1.265-.49 2.03-.49.738 0 1.396.159 1.974.476.588.317 1.041.77 1.358 1.358.327.579.49 1.246.49 2.002Zm-2.03-.56c-.009-.504-.191-.905-.546-1.204-.354-.308-.788-.462-1.302-.462-.485 0-.896.15-1.232.448-.326.29-.527.695-.602 1.218h3.682Zm7.759-3.262c.924 0 1.671.294 2.24.882.569.579.854 1.39.854 2.436V30h-1.96v-4.284c0-.616-.154-1.087-.462-1.414-.308-.336-.728-.504-1.26-.504-.541 0-.971.168-1.288.504-.308.327-.462.798-.462 1.414V30h-1.96v-7.756h1.96v.966c.261-.336.593-.597.994-.784a3.082 3.082 0 0 1 1.344-.294Zm7.24 1.722v3.752c0 .261.061.453.182.574.131.112.345.168.644.168h.91V30h-1.232c-1.652 0-2.478-.803-2.478-2.408v-3.738h-.924v-1.61h.924v-1.918h1.974v1.918h1.736v1.61h-1.736Zm2.642 2.24c0-.784.154-1.48.462-2.086.317-.607.742-1.073 1.274-1.4a3.426 3.426 0 0 1 1.806-.49c.578 0 1.082.117 1.512.35.438.233.788.527 1.05.882v-1.106h1.974V30h-1.974v-1.134c-.252.364-.602.667-1.05.91-.439.233-.948.35-1.526.35a3.329 3.329 0 0 1-1.792-.504c-.532-.336-.957-.807-1.274-1.414-.308-.616-.462-1.32-.462-2.114Zm6.104.028c0-.476-.094-.882-.28-1.218a1.92 1.92 0 0 0-.756-.784 1.983 1.983 0 0 0-1.022-.28c-.364 0-.7.089-1.008.266a2.04 2.04 0 0 0-.756.784c-.187.336-.28.737-.28 1.204 0 .467.093.877.28 1.232.196.345.448.611.756.798.317.187.653.28 1.008.28.364 0 .704-.089 1.022-.266.317-.187.569-.448.756-.784.186-.345.28-.756.28-1.232Zm6.17-2.268v3.752c0 .261.061.453.182.574.131.112.345.168.644.168h.91V30h-1.232c-1.652 0-2.478-.803-2.478-2.408v-3.738h-.924v-1.61h.924v-1.918h1.974v1.918h1.736v1.61h-1.736Zm4.14-2.534c-.346 0-.635-.107-.868-.322a1.123 1.123 0 0 1-.336-.826c0-.327.112-.597.336-.812.233-.224.522-.336.868-.336.345 0 .63.112.854.336.233.215.35.485.35.812 0 .327-.117.602-.35.826-.224.215-.509.322-.854.322Zm.966.924V30h-1.96v-7.756h1.96Zm5.38 7.882c-.746 0-1.418-.163-2.016-.49a3.682 3.682 0 0 1-1.414-1.414c-.336-.607-.504-1.307-.504-2.1 0-.793.173-1.493.518-2.1a3.654 3.654 0 0 1 1.442-1.4 4.121 4.121 0 0 1 2.03-.504c.747 0 1.424.168 2.03.504a3.55 3.55 0 0 1 1.428 1.4c.355.607.532 1.307.532 2.1 0 .793-.182 1.493-.546 2.1a3.715 3.715 0 0 1-1.456 1.414c-.606.327-1.288.49-2.044.49Zm0-1.708c.355 0 .686-.084.994-.252.318-.177.57-.439.756-.784.187-.345.28-.765.28-1.26 0-.737-.196-1.302-.588-1.694a1.876 1.876 0 0 0-1.414-.602c-.56 0-1.031.2-1.414.602-.373.392-.56.957-.56 1.694s.182 1.307.546 1.708c.374.392.84.588 1.4.588Zm9.782-6.286c.924 0 1.671.294 2.24.882.569.579.854 1.39.854 2.436V30h-1.96v-4.284c0-.616-.154-1.087-.462-1.414-.308-.336-.728-.504-1.26-.504-.541 0-.971.168-1.288.504-.308.327-.462.798-.462 1.414V30h-1.96v-7.756h1.96v.966c.261-.336.593-.597.994-.784a3.082 3.082 0 0 1 1.344-.294Z" fill="#fff"/><path opacity=".6" d="M72.532 45.04v-1.162h2.632V54h-1.288v-8.96h-1.344Zm5.436 9.044a.838.838 0 0 1-.616-.252.838.838 0 0 1-.252-.616c0-.243.084-.448.252-.616a.838.838 0 0 1 .616-.252c.234 0 .43.084.588.252a.838.838 0 0 1 .252.616.838.838 0 0 1-.252.616.777.777 0 0 1-.588.252Zm0-5.992a.838.838 0 0 1-.616-.252.838.838 0 0 1-.252-.616c0-.243.084-.448.252-.616a.838.838 0 0 1 .616-.252c.234 0 .43.084.588.252a.838.838 0 0 1 .252.616.838.838 0 0 1-.252.616.777.777 0 0 1-.588.252Zm2.365.742c0-1.605.261-2.856.784-3.752.522-.905 1.437-1.358 2.744-1.358 1.297 0 2.207.453 2.73 1.358.523.896.784 2.147.784 3.752 0 1.633-.261 2.903-.784 3.808-.523.905-1.433 1.358-2.73 1.358-1.307 0-2.222-.453-2.744-1.358-.523-.905-.784-2.175-.784-3.808Zm5.782 0c0-.812-.056-1.498-.168-2.058-.103-.57-.322-1.027-.658-1.372-.327-.345-.803-.518-1.428-.518-.635 0-1.12.173-1.456.518-.327.345-.546.803-.658 1.372-.103.56-.154 1.246-.154 2.058 0 .84.051 1.545.154 2.114.112.57.331 1.027.658 1.372.336.345.821.518 1.456.518.625 0 1.101-.173 1.428-.518.336-.345.555-.803.658-1.372.112-.57.168-1.274.168-2.114Zm3.009 0c0-1.605.261-2.856.784-3.752.522-.905 1.437-1.358 2.744-1.358 1.297 0 2.207.453 2.73 1.358.522.896.784 2.147.784 3.752 0 1.633-.261 2.903-.784 3.808-.523.905-1.433 1.358-2.73 1.358-1.307 0-2.222-.453-2.744-1.358-.523-.905-.784-2.175-.784-3.808Zm5.782 0c0-.812-.056-1.498-.168-2.058-.103-.57-.322-1.027-.658-1.372-.327-.345-.803-.518-1.428-.518-.635 0-1.12.173-1.456.518-.327.345-.546.803-.658 1.372-.103.56-.154 1.246-.154 2.058 0 .84.051 1.545.154 2.114.112.57.331 1.027.658 1.372.336.345.821.518 1.456.518.625 0 1.101-.173 1.428-.518.336-.345.555-.803.658-1.372.112-.57.168-1.274.168-2.114Z" fill="#fff"/><path fill-rule="evenodd" clip-rule="evenodd" d="M36 57c11.046 0 20-8.954 20-20s-8.954-20-20-20-20 8.954-20 20 8.954 20 20 20Z" fill="#fff"/></svg>