<svg width="272" height="240" fill="none" xmlns="http://www.w3.org/2000/svg"><path d="M70.604 199.648c-.277 0-.547-.089-.767-.253a1.246 1.246 0 0 1-.454-.659 1.225 1.225 0 0 1 .045-.794 1.25 1.25 0 0 1 .525-.605l7.563-4.458-10.811 6.133a1.29 1.29 0 0 1-.96.137 1.266 1.266 0 0 1-.776-.569 1.227 1.227 0 0 1-.14-.942c.083-.32.29-.595.58-.764l63.899-38.607-66.411 37.674a1.286 1.286 0 0 1-.944.113 1.263 1.263 0 0 1-.757-.565 1.224 1.224 0 0 1-.144-.923c.076-.315.273-.588.55-.762l61.345-36.893-61.157 34.694a1.283 1.283 0 0 1-1.688-.465 1.223 1.223 0 0 1-.141-.919c.075-.312.271-.584.545-.758l5.639-3.312-4.355 2.468a1.28 1.28 0 0 1-1.706-.454 1.227 1.227 0 0 1-.14-.928c.08-.315.28-.588.56-.76l25.066-14.813-23.782 13.493c-.29.167-.635.214-.96.131a1.26 1.26 0 0 1-.773-.573 1.225 1.225 0 0 1-.135-.943c.085-.32.295-.593.584-.76l9.692-5.705-8.408 4.772a1.29 1.29 0 0 1-.932.093 1.267 1.267 0 0 1-.742-.563 1.222 1.222 0 0 1-.145-.909c.071-.31.26-.581.53-.759l55.893-33.479-54.604 30.977a1.29 1.29 0 0 1-.934.097 1.262 1.262 0 0 1-.744-.561 1.23 1.23 0 0 1 .384-1.671l67.6-40.802-66.31 37.605a1.285 1.285 0 0 1-.936.101 1.262 1.262 0 0 1-.748-.563 1.226 1.226 0 0 1-.145-.915c.073-.312.266-.584.539-.76l61.524-36.973-60.233 34.169a1.285 1.285 0 0 1-.937.101 1.266 1.266 0 0 1-.748-.563 1.226 1.226 0 0 1-.145-.915c.073-.312.266-.584.539-.76l58.463-35.079-57.174 32.455c-.288.153-.624.19-.94.106a1.263 1.263 0 0 1-.75-.563 1.224 1.224 0 0 1-.147-.917c.073-.313.267-.585.54-.761l70.672-42.792-69.375 39.336a1.287 1.287 0 0 1-.938.101 1.263 1.263 0 0 1-.748-.563 1.224 1.224 0 0 1-.145-.915c.074-.312.267-.584.54-.76l54.941-33.03-53.65 30.438a1.29 1.29 0 0 1-.948.113 1.26 1.26 0 0 1-.759-.568 1.226 1.226 0 0 1-.14-.928c.08-.315.28-.588.56-.76l28.436-16.915-27.152 15.408a1.288 1.288 0 0 1-.946.118 1.26 1.26 0 0 1-.762-.564 1.225 1.225 0 0 1-.145-.926 1.25 1.25 0 0 1 .554-.763l55.868-34.042-54.569 30.957a1.287 1.287 0 0 1-.936.097 1.261 1.261 0 0 1-.744-.565 1.226 1.226 0 0 1 .394-1.671l11.074-6.581-9.788 5.553a1.284 1.284 0 0 1-1.694-.459 1.226 1.226 0 0 1-.143-.921c.076-.313.273-.586.549-.76l21.097-12.641-19.822 11.246a1.29 1.29 0 0 1-.943.112 1.265 1.265 0 0 1-.757-.565 1.227 1.227 0 0 1 .407-1.684l27.951-16.891-26.647 15.119a1.286 1.286 0 0 1-.937.101 1.262 1.262 0 0 1-.749-.563 1.226 1.226 0 0 1-.145-.915c.074-.312.267-.584.54-.76l16.304-9.812-15.013 8.516a1.29 1.29 0 0 1-.944.112 1.263 1.263 0 0 1-.757-.565 1.224 1.224 0 0 1-.144-.923c.076-.314.274-.588.55-.761l14.065-8.489-12.77 7.245a1.29 1.29 0 0 1-.937.106 1.261 1.261 0 0 1-.751-.559 1.226 1.226 0 0 1 .384-1.677l28.177-17.385-26.876 15.246a1.289 1.289 0 0 1-.959.139 1.262 1.262 0 0 1-.778-.568 1.223 1.223 0 0 1-.142-.941c.082-.32.29-.596.578-.765l15.697-9.606-14.396 8.163a1.287 1.287 0 0 1-.946.119 1.269 1.269 0 0 1-.762-.564 1.23 1.23 0 0 1 .41-1.69l6.514-3.98-5.216 2.958a1.286 1.286 0 0 1-.95.141 1.262 1.262 0 0 1-.778-.555 1.226 1.226 0 0 1-.156-.932c.075-.319.274-.596.555-.771L89.46 93.895 61.772 109.61c-.285.154-.62.195-.933.113a1.263 1.263 0 0 1-.756-.551 1.227 1.227 0 0 1 .365-1.679l19.604-12.617-18.28 10.37a1.285 1.285 0 0 1-.933.129 1.266 1.266 0 0 1-.765-.54 1.224 1.224 0 0 1-.173-.911 1.24 1.24 0 0 1 .514-.775l23.109-15.833-21.752 12.34c-.28.157-.611.202-.925.127a1.267 1.267 0 0 1-.762-.53 1.228 1.228 0 0 1 .31-1.68l18.483-13.283-17.118 9.703a1.282 1.282 0 0 1-1.687-.409 1.224 1.224 0 0 1-.18-.9c.058-.313.236-.59.497-.778l9.272-6.53-7.903 4.477c-.28.147-.607.184-.914.105a1.267 1.267 0 0 1-.745-.531 1.229 1.229 0 0 1 .298-1.66l3.572-2.519-2.2 1.244c-.277.155-.604.201-.915.13a1.267 1.267 0 0 1-.76-.517 1.226 1.226 0 0 1 .265-1.67l3.61-2.77-2.203 1.245a1.286 1.286 0 0 1-1.652-.353 1.231 1.231 0 0 1 .179-1.653l2.364-2.067-.89.498a1.284 1.284 0 0 1-1.524-.193 1.226 1.226 0 0 1-.214-1.494l1.753-3.043a1.273 1.273 0 0 1-.717-.311 1.235 1.235 0 0 1-.393-.665 1.219 1.219 0 0 1 .08-.765 1.25 1.25 0 0 1 .523-.573l3.003-1.691a1.284 1.284 0 0 1 1.52.192 1.226 1.226 0 0 1 .216 1.492l-1.518 2.664 7.666-4.348c.272-.155.592-.204.9-.14.306.064.577.238.76.488a1.23 1.23 0 0 1-.186 1.66l-2.368 2.067 7.183-4.075c.278-.159.606-.207.919-.136.312.07.586.255.765.516a1.228 1.228 0 0 1-.271 1.677l-3.61 2.756 8.507-4.813c.281-.16.615-.209.93-.134.317.075.592.266.768.534.177.269.241.594.18.908-.06.314-.242.593-.506.779L82.557 75.2l8.13-4.6c.281-.163.616-.212.934-.138.317.075.594.267.77.537a1.227 1.227 0 0 1-.335 1.69l-9.264 6.514 15.191-8.616c.28-.16.614-.21.93-.136.317.074.591.264.77.532a1.227 1.227 0 0 1-.32 1.686L80.88 85.953l27.091-15.368c.284-.169.623-.222.946-.148.323.074.604.27.781.544a1.226 1.226 0 0 1-.369 1.704L86.195 88.514l31.615-17.939a1.274 1.274 0 0 1 .957-.15 1.266 1.266 0 0 1 .785.559 1.228 1.228 0 0 1-.415 1.711l-19.6 12.612 25.965-14.724c.285-.162.623-.21.943-.13.319.078.595.276.769.552.173.275.23.606.159.922a1.243 1.243 0 0 1-.539.77L97.821 91.475l36.824-20.899c.287-.159.627-.201.946-.118.319.084.592.286.762.564a1.229 1.229 0 0 1-.41 1.689l-6.521 3.98 10.773-6.112c.288-.17.633-.22.959-.14.326.08.606.283.779.567.173.283.224.621.143.942-.082.32-.289.596-.577.766l-15.698 9.615 20.711-11.75c.286-.158.624-.2.942-.117.318.083.591.284.76.56.17.277.224.608.15.922-.074.315-.27.59-.546.765l-28.187 17.388 34.402-19.518a1.29 1.29 0 0 1 .96-.137c.326.081.605.286.777.57a1.229 1.229 0 0 1-.44 1.707l-14.067 8.486 18.736-10.626c.288-.156.626-.196.943-.112.318.085.589.287.757.565.168.277.22.609.144.923a1.245 1.245 0 0 1-.55.761l-16.311 9.828 21.07-11.968c.289-.169.634-.218.959-.137.326.08.605.286.777.57.172.282.222.622.14.941a1.25 1.25 0 0 1-.579.764l-27.947 16.89 33.54-19.028c.288-.153.625-.192.941-.106.316.086.586.289.753.566.167.277.218.607.142.92a1.246 1.246 0 0 1-.548.76l-21.07 12.616 26.013-14.756c.288-.157.628-.198.947-.113.319.085.591.288.759.568.168.28.218.612.139.928a1.244 1.244 0 0 1-.559.76l-11.14 6.62 15.444-8.765c.287-.16.627-.202.946-.118.319.083.593.285.762.563a1.229 1.229 0 0 1-.409 1.69l-55.861 34.039 63.76-36.174a1.283 1.283 0 0 1 1.734.438 1.22 1.22 0 0 1 .137.943 1.23 1.23 0 0 1-.214.437c-.1.131-.225.24-.368.324l-28.39 16.883 33.535-19.028a1.29 1.29 0 0 1 .959-.135 1.267 1.267 0 0 1 .776.57 1.232 1.232 0 0 1 .139.942 1.246 1.246 0 0 1-.581.763l-54.964 33.042 59.471-33.74c.289-.17.634-.22.959-.14.326.082.606.286.778.57.172.283.223.622.141.942-.082.32-.291.595-.579.764l-70.69 42.812 70.417-39.948a1.281 1.281 0 0 1 1.715.446c.17.28.22.615.141.932-.08.317-.282.59-.565.761l-58.438 35.055 57.147-32.41c.288-.162.629-.205.951-.122.32.084.595.288.764.569.17.28.22.615.141.931-.08.317-.282.59-.565.762l-61.525 36.985 60.259-34.18c.289-.168.634-.216.959-.135.326.082.605.287.776.57.172.284.222.623.139.943a1.25 1.25 0 0 1-.58.763l-67.586 40.771 66.267-37.594c.287-.147.62-.18.932-.093.311.087.576.288.741.562a1.227 1.227 0 0 1-.385 1.668l-55.913 33.495 54.625-30.993c.289-.167.635-.214.96-.131.326.083.604.29.774.574a1.23 1.23 0 0 1-.451 1.705l-9.75 5.722 8.467-4.802a1.286 1.286 0 0 1 1.405.078 1.248 1.248 0 0 1 .492.821 1.221 1.221 0 0 1-.243.923c-.099.13-.225.24-.368.323l-25.025 14.788 23.739-13.469a1.266 1.266 0 0 1 .96-.132 1.252 1.252 0 0 1 .936 1.033 1.244 1.244 0 0 1-.613 1.245l-5.686 3.339 4.403-2.488c.288-.161.629-.205.951-.121.32.083.595.287.764.567.17.281.22.616.141.932-.08.317-.282.591-.565.762l-61.297 36.871 60.006-34.045a1.29 1.29 0 0 1 .933-.097c.312.087.578.287.744.561.167.274.219.6.148.911a1.245 1.245 0 0 1-.532.76l-63.929 38.627 62.636-35.534a1.28 1.28 0 0 1 1.733.441 1.232 1.232 0 0 1-.45 1.703l-7.595 4.478 6.304-3.575c.288-.162.63-.205.951-.122.32.084.595.288.765.569.169.28.22.615.14.931-.079.317-.282.59-.565.762l-42.282 25.376 41.001-23.262c.287-.155.624-.195.941-.111.316.084.587.285.756.561.168.276.221.606.147.92a1.239 1.239 0 0 1-.542.762l-58.357 35.826 57.053-32.365c.287-.155.624-.195.94-.111.317.084.588.285.756.561.169.276.221.606.148.919a1.242 1.242 0 0 1-.543.763l-48.713 29.895 47.412-26.897a1.29 1.29 0 0 1 .933-.097c.312.087.578.287.744.561.167.274.219.6.148.911a1.245 1.245 0 0 1-.532.76l-27.929 16.91 26.636-15.117c.285-.149.618-.186.93-.103.313.084.58.282.749.554.168.272.224.596.156.907a1.247 1.247 0 0 1-.521.765l-46.587 29.27 45.273-25.69a1.28 1.28 0 0 1 1.677.464c.167.274.219.6.148.911a1.25 1.25 0 0 1-.532.76l-7.069 4.252 5.776-3.274a1.278 1.278 0 0 1 1.68.454 1.226 1.226 0 0 1-.374 1.672l-26.248 16.271 24.942-14.129c.284-.149.617-.187.928-.104.313.083.581.28.749.55.169.271.227.595.16.906-.066.31-.25.584-.516.766l-31.926 20.415 30.605-17.368c.285-.152.618-.191.932-.108.313.083.583.281.751.553.17.272.227.597.159.909a1.25 1.25 0 0 1-.523.766l-22.453 14.291 21.134-11.987c.284-.156.618-.2.934-.12.315.08.587.276.759.548a1.228 1.228 0 0 1-.356 1.682l-23.383 15.378 22.046-12.507c.287-.171.631-.223.957-.145.326.078.608.281.782.563.174.282.228.62.147.941-.079.32-.285.597-.572.768l-2.112 1.321.798-.45c.286-.16.624-.204.942-.124.319.081.593.281.765.556a1.23 1.23 0 0 1-.388 1.69l-2.234 1.418.915-.518a1.285 1.285 0 0 1 1.686.42 1.226 1.226 0 0 1-.332 1.678l-12.183 8.317 10.829-6.14a1.282 1.282 0 0 1 1.664.392 1.232 1.232 0 0 1-.254 1.663l-13.108 10.056 11.698-6.623c.274-.152.597-.199.904-.13.307.069.577.248.758.502a1.228 1.228 0 0 1-.222 1.661l-7.54 6.15 6.1-3.456a1.281 1.281 0 0 1 1.685.374 1.23 1.23 0 0 1-.265 1.679l-.959.746a1.248 1.248 0 0 1 1.142.433 1.232 1.232 0 0 1 0 1.6l-2.401 2.804c.274.01.538.107.75.277a1.23 1.23 0 0 1-.162 2.041l-5.186 2.934a1.287 1.287 0 0 1-.852.146 1.266 1.266 0 0 1-.748-.425 1.223 1.223 0 0 1-.002-1.598l2.025-2.378-7.595 4.309a1.29 1.29 0 0 1-.917.138 1.268 1.268 0 0 1-.766-.512 1.229 1.229 0 0 1 .259-1.676l.456-.353-4.238 2.398a1.287 1.287 0 0 1-.904.131 1.269 1.269 0 0 1-.758-.503 1.221 1.221 0 0 1-.216-.872c.041-.307.197-.588.437-.789l7.538-6.149-14.432 8.182a1.283 1.283 0 0 1-1.672-.386 1.228 1.228 0 0 1 .259-1.669l13.1-10.058-21.328 12.113c-.282.151-.611.19-.922.111a1.272 1.272 0 0 1-.75-.537 1.226 1.226 0 0 1 .317-1.668l12.173-8.315-18.363 10.409a1.285 1.285 0 0 1-.932.108 1.259 1.259 0 0 1-.752-.552 1.226 1.226 0 0 1-.158-.909 1.25 1.25 0 0 1 .522-.767l2.221-1.413-6.226 3.533a1.283 1.283 0 0 1-1.721-.426 1.227 1.227 0 0 1 .405-1.698l2.103-1.319-6.071 3.443a1.283 1.283 0 0 1-1.709-.417 1.232 1.232 0 0 1 .37-1.693l23.397-15.385-30.841 17.495a1.286 1.286 0 0 1-.938.118 1.265 1.265 0 0 1-.759-.554 1.224 1.224 0 0 1-.157-.916 1.25 1.25 0 0 1 .532-.768l22.435-14.278-28.908 16.398c-.286.154-.62.195-.934.113a1.265 1.265 0 0 1-.756-.551 1.228 1.228 0 0 1 .365-1.679l31.935-20.421-39.73 22.538c-.286.151-.62.187-.933.103a1.266 1.266 0 0 1-.748-.557 1.222 1.222 0 0 1-.152-.91c.069-.311.258-.584.526-.763l26.264-16.283-32.454 18.41a1.28 1.28 0 0 1-1.678-.464 1.222 1.222 0 0 1-.147-.91 1.24 1.24 0 0 1 .531-.76l7.044-4.247-11.252 6.381a1.281 1.281 0 0 1-1.679-.45 1.224 1.224 0 0 1-.156-.907c.068-.311.254-.585.521-.765l46.587-29.27-55.322 31.392a1.286 1.286 0 0 1-.939.106 1.262 1.262 0 0 1-.751-.562 1.224 1.224 0 0 1-.147-.917c.073-.313.268-.586.541-.761l27.924-16.898-33.552 19.032c-.287.148-.62.184-.932.098a1.266 1.266 0 0 1-.745-.558 1.227 1.227 0 0 1 .375-1.669l48.734-29.898-56.466 32.027a1.285 1.285 0 0 1-.937.107 1.267 1.267 0 0 1-.75-.559 1.224 1.224 0 0 1-.151-.914 1.24 1.24 0 0 1 .534-.763l58.362-35.826-66.923 37.955a1.284 1.284 0 0 1-.943.112 1.262 1.262 0 0 1-.757-.564 1.225 1.225 0 0 1-.144-.923c.076-.315.273-.588.551-.762l42.282-25.377-48.5 27.514a1.28 1.28 0 0 1-.633.174Z" fill="#E1EFFF"/><path d="M64.061 75.327a1.28 1.28 0 0 1-.74-.234 1.245 1.245 0 0 1-.46-.616 1.222 1.222 0 0 1-.008-.764c.08-.25.236-.468.449-.625l10.634-7.939-12.146 6.887a1.283 1.283 0 0 1-1.675-.387 1.23 1.23 0 0 1 .265-1.67l7.426-5.693L61.79 67.7a1.286 1.286 0 0 1-.918.135 1.265 1.265 0 0 1-.766-.516 1.228 1.228 0 0 1 .272-1.677l2.076-1.605-.664.376a1.287 1.287 0 0 1-1.569-.248 1.229 1.229 0 0 1-.087-1.559l3.173-4.298-.043.022c-.29.163-.635.205-.958.12a1.264 1.264 0 0 1-.764-.58 1.225 1.225 0 0 1-.128-.94c.085-.317.295-.588.584-.755l5.188-2.94a1.282 1.282 0 0 1 1.568.248 1.23 1.23 0 0 1 .088 1.559l-3.17 4.295 10.854-6.152c.276-.154.603-.2.913-.128.31.072.58.256.758.515a1.227 1.227 0 0 1-.259 1.668l-2.083 1.612 6.469-3.667c.277-.154.603-.2.914-.13.31.073.583.257.76.517a1.228 1.228 0 0 1-.264 1.67l-7.424 5.683 13.655-7.74c.279-.16.609-.208.923-.137.314.072.588.26.767.523.179.264.248.585.194.897a1.241 1.241 0 0 1-.484.785L80.731 63.19l17.645-10.006a1.285 1.285 0 0 1 1.688.38c.179.263.25.582.198.895a1.24 1.24 0 0 1-.476.785l-11.333 8.638 18.857-10.698c.284-.157.618-.2.933-.121.315.078.588.273.76.544a1.236 1.236 0 0 1-.348 1.682l-1.183.79 5.105-2.895a1.283 1.283 0 0 1 1.698.406 1.226 1.226 0 0 1-.334 1.687l-6.438 4.485 11.609-6.578c.277-.157.604-.205.916-.134.312.07.584.254.764.515a1.228 1.228 0 0 1-.265 1.674l-11.745 9.076 19.647-11.13a1.282 1.282 0 0 1 1.685.392 1.228 1.228 0 0 1-.29 1.677l-10.153 7.486 16.86-9.556c.279-.158.61-.206.923-.133.314.072.588.26.766.525a1.227 1.227 0 0 1-.297 1.68l-9.902 7.273 16.488-9.345a1.284 1.284 0 0 1 1.693.397 1.231 1.231 0 0 1-.311 1.683l-8.841 6.38 14.907-8.46a1.29 1.29 0 0 1 .937-.126c.317.08.59.275.763.547.174.272.234.6.167.914-.067.314-.255.59-.525.772l-.506.329 4.307-2.436c.276-.154.601-.2.911-.13.309.07.58.252.759.51.18.258.253.573.207.881-.045.31-.208.59-.454.787l-12.118 9.509 20.392-11.557c.279-.158.609-.206.923-.133.315.072.588.26.766.525a1.227 1.227 0 0 1-.297 1.68l-9.856 7.238 16.429-9.31c.279-.158.608-.206.921-.134.313.072.587.258.765.52.179.263.249.583.196.895a1.243 1.243 0 0 1-.479.784l-10.786 8.088 17.913-10.153c.276-.154.601-.2.911-.13.309.07.581.252.759.51.18.258.254.573.208.881-.046.31-.209.59-.455.787l-12.125 9.53 20.424-11.578a1.285 1.285 0 0 1 1.696.386 1.232 1.232 0 0 1-.298 1.684l-10.282 7.613 16.875-9.569a1.284 1.284 0 0 1 1.692.38 1.23 1.23 0 0 1-.284 1.683l-11.06 8.419 14.077-7.989c.28-.16.612-.208.927-.135.315.073.59.26.768.527a1.233 1.233 0 0 1-.304 1.684l-6.216 4.562 6.39-3.625a1.284 1.284 0 0 1 1.683.375 1.233 1.233 0 0 1-.26 1.675l-4.947 3.891 3.762-2.132a1.285 1.285 0 0 1 1.655.338 1.226 1.226 0 0 1-.161 1.652l-3.117 2.847 1.646-.933c.257-.146.558-.2.85-.15.292.05.557.199.749.421a1.228 1.228 0 0 1 .014 1.595l-1.124 1.35a1.3 1.3 0 0 1 .726.12c.225.109.413.28.54.493.168.285.213.625.126.944-.087.318-.299.59-.59.755l-5.37 3.033a1.284 1.284 0 0 1-1.599-.271 1.23 1.23 0 0 1-.013-1.595l.954-1.145-5.309 3.01c-.27.157-.589.21-.896.148a1.272 1.272 0 0 1-.765-.48 1.23 1.23 0 0 1 .164-1.658l3.117-2.836-8.535 4.844a1.286 1.286 0 0 1-.916.138 1.268 1.268 0 0 1-.766-.512 1.23 1.23 0 0 1 .259-1.676l4.945-3.889-10.475 5.941a1.282 1.282 0 0 1-1.688-.391 1.22 1.22 0 0 1-.191-.898c.054-.313.229-.593.487-.783l6.231-4.567-11.723 6.645a1.284 1.284 0 0 1-1.692-.38 1.229 1.229 0 0 1 .285-1.683l11.059-8.411-18.482 10.484c-.28.16-.611.21-.926.138a1.266 1.266 0 0 1-.77-.524 1.222 1.222 0 0 1-.192-.9c.055-.314.23-.594.49-.785l10.276-7.625-17.094 9.703a1.286 1.286 0 0 1-.915.136 1.263 1.263 0 0 1-.764-.51 1.224 1.224 0 0 1 .253-1.674l12.123-9.538-20.425 11.58a1.284 1.284 0 0 1-1.702-.377 1.23 1.23 0 0 1 .299-1.69l10.784-8.092-17.923 10.165a1.287 1.287 0 0 1-.932.145 1.264 1.264 0 0 1-.775-.528 1.226 1.226 0 0 1 .314-1.692l9.856-7.245-16.429 9.323a1.286 1.286 0 0 1-.914.136 1.268 1.268 0 0 1-.764-.51 1.224 1.224 0 0 1 .253-1.674l12.122-9.517-20.404 11.57a1.285 1.285 0 0 1-.944.138 1.267 1.267 0 0 1-.774-.548 1.218 1.218 0 0 1-.164-.923c.069-.318.262-.595.538-.775l.486-.323-4.29 2.433a1.284 1.284 0 0 1-1.693-.397 1.23 1.23 0 0 1 .311-1.683l8.847-6.379-14.918 8.46c-.28.163-.614.215-.932.144a1.27 1.27 0 0 1-.775-.528 1.23 1.23 0 0 1 .314-1.692l9.897-7.277-16.49 9.362a1.283 1.283 0 0 1-1.7-.384 1.222 1.222 0 0 1-.191-.904c.057-.315.235-.596.496-.784l10.128-7.494-16.86 9.568a1.284 1.284 0 0 1-1.69-.374 1.23 1.23 0 0 1 .272-1.68l11.751-9.087L85.44 75.15a1.284 1.284 0 0 1-1.698-.407 1.224 1.224 0 0 1-.177-.909c.063-.313.245-.592.51-.777l6.43-4.478-11.597 6.575a1.284 1.284 0 0 1-.943.139 1.266 1.266 0 0 1-.775-.548 1.223 1.223 0 0 1-.164-.924c.07-.317.262-.595.538-.774l1.187-.791-5.114 2.9a1.285 1.285 0 0 1-1.76-.338 1.225 1.225 0 0 1-.192-.934c.064-.324.257-.61.536-.795l11.343-8.635-18.87 10.698c-.191.112-.41.174-.633.176Z" fill="#3B2186"/><path d="M104.974 102.563a1.278 1.278 0 0 1-1.161-.744 1.223 1.223 0 0 1 .229-1.344l1.033-1.1-3.864 2.192a1.277 1.277 0 0 1-1.654-.318 1.228 1.228 0 0 1 .135-1.652l2.932-2.796-4.127 2.34a1.284 1.284 0 0 1-1.627-.306 1.224 1.224 0 0 1 .075-1.627l4.071-4.229-3.78 2.147c-.26.148-.565.2-.86.148a1.274 1.274 0 0 1-.754-.436 1.231 1.231 0 0 1 .032-1.612l2.177-2.416a1.274 1.274 0 0 1-.664-.354 1.24 1.24 0 0 1-.34-.664 1.22 1.22 0 0 1 .105-.735c.11-.229.288-.42.512-.546l5.191-2.943a1.284 1.284 0 0 1 1.614.289 1.23 1.23 0 0 1-.032 1.612l-1.519 1.684 4.608-2.615a1.284 1.284 0 0 1 1.627.306 1.228 1.228 0 0 1-.075 1.627l-4.074 4.23 5.418-3.075c.268-.156.584-.21.889-.151.305.059.578.226.766.47a1.229 1.229 0 0 1-.136 1.651l-2.932 2.796 2.203-1.243c.262-.15.571-.202.868-.148.298.055.567.213.756.446.189.233.287.524.277.822-.011.297-.13.582-.336.8l-1.998 2.132c.231.076.435.215.588.403a1.23 1.23 0 0 1-.352 1.854l-5.191 2.943a1.282 1.282 0 0 1-.63.162Z" fill="#ECECEC"/><path d="M79.096 135.037c-.273 0-.538-.087-.757-.248a1.239 1.239 0 0 1-.455-.643 1.218 1.218 0 0 1 .026-.782c.094-.252.268-.467.497-.613l1.95-1.244-3.375 1.916a1.29 1.29 0 0 1-.934.113 1.261 1.261 0 0 1-.755-.552 1.224 1.224 0 0 1-.16-.911c.068-.312.256-.587.525-.768l2.741-1.756-1.417.804c-.28.154-.61.198-.92.123a1.267 1.267 0 0 1-.759-.528 1.225 1.225 0 0 1-.188-.893 1.24 1.24 0 0 1 .484-.78l17.959-12.959-15.984 9.056a1.29 1.29 0 0 1-.927.133 1.27 1.27 0 0 1-.766-.53 1.23 1.23 0 0 1 .31-1.683l11.414-8.238-8.16 4.63a1.28 1.28 0 0 1-1.658-.348 1.228 1.228 0 0 1 .182-1.657l7.849-6.871a1.292 1.292 0 0 1-.808-.057 1.256 1.256 0 0 1-.607-.526 1.225 1.225 0 0 1-.127-.944c.087-.318.299-.59.59-.755l10.196-5.784c.27-.154.59-.204.897-.14.306.065.578.238.762.488a1.227 1.227 0 0 1-.183 1.657l-7.677 6.717 17.412-9.877a1.285 1.285 0 0 1 1.693.397c.177.266.244.589.185.903a1.238 1.238 0 0 1-.496.78L96.262 110.9l15.998-9.079c.281-.159.613-.207.928-.133.315.074.589.264.766.53a1.235 1.235 0 0 1-.311 1.683l-17.979 12.975 22.096-12.537a1.29 1.29 0 0 1 .946-.131c.32.08.596.279.769.555a1.229 1.229 0 0 1-.391 1.696l-2.757 1.766 3.924-2.227a1.29 1.29 0 0 1 .946-.131c.32.08.596.279.77.556.173.277.228.609.155.926a1.243 1.243 0 0 1-.547.769l-1.949 1.244 2.785-1.577a1.281 1.281 0 0 1 1.705.404 1.226 1.226 0 0 1-.343 1.69l-13.166 9.119 14.574-8.268c.284-.17.624-.223.948-.149.324.074.605.272.783.548a1.229 1.229 0 0 1-.382 1.706l-5.064 3.399 5.477-3.107a1.28 1.28 0 0 1 1.681.392 1.226 1.226 0 0 1-.284 1.675l-10.33 7.73 10.887-6.18a1.284 1.284 0 0 1 1.708.377 1.228 1.228 0 0 1-.308 1.693l-5.473 4.092 5.258-2.985a1.284 1.284 0 0 1 1.661.332 1.233 1.233 0 0 1-.164 1.658l-5.77 5.277 5.203-2.951c.265-.145.576-.191.874-.13.298.061.563.226.747.464a1.223 1.223 0 0 1-.102 1.624l-1.773 1.742.489-.277a1.294 1.294 0 0 1 1.409.096 1.228 1.228 0 0 1 .442 1.318l-.76 2.63c.231.076.435.216.587.403a1.23 1.23 0 0 1-.356 1.853l-1.489.844a1.28 1.28 0 0 1-1.408-.096 1.228 1.228 0 0 1-.443-1.318l.583-2.05-6.123 3.471a1.29 1.29 0 0 1-.871.127 1.271 1.271 0 0 1-.744-.463 1.22 1.22 0 0 1-.258-.827c.018-.298.144-.579.354-.792l1.772-1.742-6.524 3.7a1.289 1.289 0 0 1-.896.147 1.27 1.27 0 0 1-.765-.48 1.226 1.226 0 0 1 .165-1.658l5.767-5.277-12.824 7.275c-.278.154-.605.2-.917.127a1.267 1.267 0 0 1-.76-.52 1.224 1.224 0 0 1-.195-.889c.051-.31.22-.59.472-.783l5.464-4.09-10.857 6.17a1.282 1.282 0 0 1-1.668-.399 1.228 1.228 0 0 1 .271-1.666l10.33-7.733-17.293 9.81a1.28 1.28 0 0 1-1.73-.398 1.228 1.228 0 0 1 .38-1.706l5.064-3.401-9.71 5.513a1.283 1.283 0 0 1-1.697-.406 1.23 1.23 0 0 1 .333-1.687l13.166-9.118-19.78 11.221a1.27 1.27 0 0 1-.642.171Z" fill="#ECECEC"/><path d="M115.858 142.427c-.252 0-.499-.074-.709-.213a1.225 1.225 0 0 1-.172-1.927l2.929-2.787-8.385 4.752a1.283 1.283 0 0 1-1.605-.275 1.228 1.228 0 0 1 0-1.601l3.757-4.41-11.095 6.286a1.283 1.283 0 0 1-1.622-.31 1.23 1.23 0 0 1 .073-1.623l3.448-3.568-9.687 5.501a1.283 1.283 0 0 1-1.613-.302 1.23 1.23 0 0 1 .049-1.613l3.577-3.827-10.127 5.742a1.281 1.281 0 0 1-1.627-.316 1.23 1.23 0 0 1 .087-1.627l3.335-3.363-9.366 5.306a1.285 1.285 0 0 1-1.6-.274 1.23 1.23 0 0 1-.008-1.596l3.768-4.464-6.714 3.814a1.283 1.283 0 0 1-1.528-.2 1.23 1.23 0 0 1-.2-1.502l1.905-3.241-.096.052c-.29.149-.626.181-.94.092a1.261 1.261 0 0 1-.743-.572 1.224 1.224 0 0 1-.134-.918c.078-.312.275-.582.55-.754l4.204-2.378a1.262 1.262 0 0 1 1.519.196 1.232 1.232 0 0 1 .2 1.492l-1.912 3.235 8.745-4.923a1.277 1.277 0 0 1 1.596.277 1.23 1.23 0 0 1 .01 1.593l-3.776 4.459 11.168-6.329a1.283 1.283 0 0 1 1.631.312 1.23 1.23 0 0 1-.089 1.63l-3.337 3.364 9.368-5.306a1.278 1.278 0 0 1 1.613.302 1.227 1.227 0 0 1-.048 1.613l-3.578 3.821 10.128-5.742a1.29 1.29 0 0 1 .87-.141c.298.057.565.217.752.452a1.229 1.229 0 0 1-.072 1.622l-3.449 3.568 9.697-5.501a1.288 1.288 0 0 1 1.601.279 1.227 1.227 0 0 1 .002 1.597l-3.758 4.411 11.083-6.281a1.283 1.283 0 0 1 1.643.325 1.233 1.233 0 0 1-.13 1.645l-2.921 2.779 8.203-4.65a1.273 1.273 0 0 1 1.616.311 1.224 1.224 0 0 1-.064 1.617l-3.375 3.515 5.234-2.968a1.28 1.28 0 0 1 1.579.254 1.228 1.228 0 0 1 .064 1.572l-1.785 2.319.486-.276c.29-.162.635-.205.957-.119.323.086.598.294.765.579.167.284.213.622.127.939a1.24 1.24 0 0 1-.583.755l-5.915 3.344a1.282 1.282 0 0 1-1.576-.257 1.23 1.23 0 0 1-.064-1.569l1.784-2.321-7.311 4.147a1.283 1.283 0 0 1-1.617-.311 1.23 1.23 0 0 1 .064-1.617l3.376-3.515-9.599 5.443c-.191.113-.41.173-.633.175Z" fill="#ECECEC"/><path d="M173.785 187.209a1.278 1.278 0 0 1-.738-.231 1.245 1.245 0 0 1-.463-.608 1.24 1.24 0 0 1 .421-1.388l4.372-3.346-9.527 5.399a1.284 1.284 0 0 1-1.654-.362 1.226 1.226 0 0 1 .193-1.654l7.307-6.194-14.348 8.138a1.29 1.29 0 0 1-.911.134 1.271 1.271 0 0 1-.761-.508 1.224 1.224 0 0 1 .242-1.669l5.992-4.774-8.608 4.881a1.287 1.287 0 0 1-.904.138 1.271 1.271 0 0 1-.763-.497 1.228 1.228 0 0 1 .211-1.663l4.763-4.009-5.274 2.986a1.289 1.289 0 0 1-.904.142 1.261 1.261 0 0 1-.765-.495 1.223 1.223 0 0 1-.226-.872c.038-.308.192-.591.431-.793l1.327-1.124-.215.121a1.277 1.277 0 0 1-1.632-.313 1.229 1.229 0 0 1 .093-1.632l1.731-1.742a1.253 1.253 0 0 1-.478-.45 1.228 1.228 0 0 1 .45-1.719l5.191-2.946c.264-.148.575-.197.874-.139.299.058.566.221.753.457a1.228 1.228 0 0 1-.09 1.628l-.152.156 3.798-2.156c.272-.154.594-.203.901-.137.307.066.579.242.761.494a1.23 1.23 0 0 1-.201 1.66l-1.319 1.117 5.529-3.122c.273-.152.594-.199.9-.132.306.067.576.244.757.495a1.227 1.227 0 0 1-.201 1.657l-4.747 4.006 10.633-6.026a1.281 1.281 0 0 1 1.665.38 1.229 1.229 0 0 1-.237 1.663l-5.99 4.774 12.006-6.817a1.284 1.284 0 0 1 1.654.362 1.226 1.226 0 0 1-.193 1.653l-7.304 6.195 13.811-7.832a1.284 1.284 0 0 1 1.675.387 1.228 1.228 0 0 1-.265 1.671l-4.375 3.351 6.077-3.448a1.279 1.279 0 0 1 1.625.314 1.229 1.229 0 0 1-.084 1.626l-5.949 6.046 6.393-3.623a1.285 1.285 0 0 1 1.636.351 1.23 1.23 0 0 1-.15 1.64l-1.147 1.025c.266.026.517.135.716.311a1.227 1.227 0 0 1 .313 1.43c-.108.24-.291.441-.523.572l-8.608 4.884a1.282 1.282 0 0 1-1.637-.35 1.226 1.226 0 0 1 .151-1.64l.342-.304-4.051 2.299a1.287 1.287 0 0 1-.873.14 1.264 1.264 0 0 1-.752-.455 1.22 1.22 0 0 1-.267-.828c.015-.298.139-.581.349-.798l5.95-6.048-14.074 7.987c-.192.112-.41.172-.633.174Z" fill="#F2CF7E"/><path d="M209.763 108.016v-43.71c.163-1.843.032-3.7-.388-5.503-2.367-6.999-11.178-5.6-17.036-5.6H85.438c-5.325 0-10.685-.147-16.002 0a9.857 9.857 0 0 0-7.012 2.487 9.517 9.517 0 0 0-3.176 6.628c-.038 1.789 0 3.58 0 5.367v67.196c0 18.659-.253 37.318 0 55.963a8.267 8.267 0 0 0 2.246 5.844 8.563 8.563 0 0 0 5.745 2.677c.231.069.472.1.714.092h121.904c5.57 0 13.366 1.209 17.576-3.18 3.664-3.821 2.33-11.581 2.33-16.388v-71.873ZM62.914 61.514c.31-7.65 7.393-6.356 12.779-6.356h67.866c18.374 0 36.793-.376 55.167 0 7.441.154 7.371 6.521 7.371 11.867v6.36H62.871c-.053-3.961-.114-7.93.043-11.87ZM206.097 166.68v22.461c0 3.234-.155 6.985-4.051 8.095a16.793 16.793 0 0 1-4.634.267H69.402c-8.23-.436-6.488-11.062-6.488-16.553v-102.3c0-1.286 0-2.575-.028-3.867h143.211v91.897Z" fill="#262626"/><path d="M133.804 130.639a30.532 30.532 0 0 0-4.051-16.537c-3.549-5.754-9.073-10.073-15.576-12.179a29.76 29.76 0 0 0-4.81-1.117 9.903 9.903 0 0 0 2.656-3.213 9.715 9.715 0 0 0 1.078-4.002 8.41 8.41 0 0 0-.797-3.39 8.546 8.546 0 0 0-2.109-2.795 8.728 8.728 0 0 0-3.069-1.735 8.827 8.827 0 0 0-3.519-.387 9.558 9.558 0 0 0-5.97 2.987 9.247 9.247 0 0 0-2.477 6.117 8.257 8.257 0 0 0 .981 3.782 8.419 8.419 0 0 0 2.62 2.935c-7.663 1.435-14.48 5.686-19.065 11.887a30.183 30.183 0 0 0-5.234 18.045 7.567 7.567 0 0 0-3.68 2.145 5.242 5.242 0 0 0-1.17 2.122 5.188 5.188 0 0 0-.085 2.412c.162.8.51 1.552 1.018 2.197a5.36 5.36 0 0 0 1.907 1.521c2.51 1.194 6.33.6 9.014.6h49.73c6.044.151 6.973-1.715 7.596-5.225a5.267 5.267 0 0 0-1.115-4.161 5.427 5.427 0 0 0-1.722-1.404 5.513 5.513 0 0 0-2.151-.605ZM104.47 87.884a6.78 6.78 0 0 1 4.173 2.172 6.567 6.567 0 0 1 1.701 4.329c-.448 8.21-12.424 6.856-12.442-.796.001-.814.177-1.62.518-2.362a5.765 5.765 0 0 1 1.46-1.944c.62-.539 1.35-.942 2.142-1.183a5.945 5.945 0 0 1 2.448-.216Zm-20.508 23.998a24.988 24.988 0 0 1 8.019-6.573 25.411 25.411 0 0 1 10.048-2.791c.723.16 1.463.226 2.203.196.371-.033.74-.089 1.104-.166a27.245 27.245 0 0 1 10.691 3.15 26.765 26.765 0 0 1 8.47 7.142 28.321 28.321 0 0 1 5.608 17.471H78.121a28.473 28.473 0 0 1 5.843-18.429h-.002Zm48.809 28.611H80.855c-3.38 0-7.866.038-7.813-4.694.028-2.197.921-3.133 2.175-3.531.137.02 56.311.015 56.531-.02a4.352 4.352 0 0 1 2.486 1.685c1.214 1.634 1.596 6.299-1.46 6.56h-.003ZM189.728 169.619a133.614 133.614 0 0 0-16.429 0 97.74 97.74 0 0 0-13.594.025 9.183 9.183 0 0 0-6.098 2.901 8.874 8.874 0 0 0-2.376 6.234 8.88 8.88 0 0 0 2.658 6.123 9.191 9.191 0 0 0 6.224 2.63 149.8 149.8 0 0 0 30.365-.047c11.628-2.222 10.395-16.44-.75-17.866Zm.385 14.928h-16.814c-3.421 0-12.244.249-12.931 0-4.225-1.493-6.145-10.308-1.559-11.775 5.099-1.632 12.618-.167 17.923-.167 4.307-.224 8.623-.224 12.93 0 6.054.667 5.902 10.879.451 11.942Z" fill="#262626"/><path d="M87.813 122.177c.711-.107 1.772-.395 2.119-1.097a16.66 16.66 0 0 1 5.76-6.556 13.484 13.484 0 0 1 7.674-2.256 3.387 3.387 0 0 0 2.441-.921c.506-.661-.436-.813-.927-.81a21.04 21.04 0 0 0-10.89 2.962 20.543 20.543 0 0 0-7.699 8.128c-.334.68 1.254.59 1.522.55ZM137.197 152.363H71.368c-2.103 0-2.807 2.667-.318 2.667h65.828c2.104 0 2.808-2.667.319-2.667ZM89.086 162.302c-2.114 0-2.797 2.692-.309 2.692h48.106c2.114 0 2.785-2.692.309-2.692H89.086ZM70.52 164.763h7.596a3.52 3.52 0 0 0 1.44-.271 2.09 2.09 0 0 0 .97-.747c.383-.731-.326-1.206-1.033-1.206h-7.595a3.52 3.52 0 0 0-1.441.271c-.392.147-.73.407-.97.747-.382.731.327 1.206 1.033 1.206ZM71.908 172.528c-1.444 0-3.87 2.145-1.398 2.145h65.828c1.444 0 3.869-2.145 1.398-2.145H71.908ZM114.428 182.283H71.386c-2.058 0-2.848 2.538-.354 2.538h43.041c2.059 0 2.849-2.538.355-2.538ZM152.925 127.728c-.714 0-2.12.229-2.416 1.012-.278.747.241 1.168 1.013 1.168h45.574c.714 0 2.119-.229 2.415-1.013.279-.747-.24-1.167-1.013-1.167h-45.573ZM198.526 137.789h-27.85c-.722 0-2.059.249-2.426.965-.367.717.309.996.977.996h27.851c.722 0 2.059-.249 2.426-.968s-.309-.993-.978-.993ZM151.484 139.68h7.596a3.297 3.297 0 0 0 2.435-.938c.507-.672-.448-.883-.947-.883h-7.595a3.312 3.312 0 0 0-2.435.937c-.515.672.447.884.946.884ZM152.968 107.986c-1.266 0-3.935 1.856-1.479 1.856h45.574c1.265 0 3.935-1.856 1.479-1.856h-45.574ZM198.476 117.699h-27.851a2.71 2.71 0 0 0-1.343.211 2.666 2.666 0 0 0-1.062.834c-.375.746.326 1.289 1.058 1.289h27.851c.458.045.921-.028 1.342-.211a2.662 2.662 0 0 0 1.063-.834c.375-.737-.327-1.289-1.058-1.289ZM151.469 119.737h7.596a3.44 3.44 0 0 0 2.438-.923c.534-.657-.469-.819-.929-.819h-7.596a3.439 3.439 0 0 0-1.313.22 3.38 3.38 0 0 0-1.125.701c-.529.659.473.821.929.821ZM151.041 89.757h45.574a4.033 4.033 0 0 0 2.595-.681c.344-.398.694-.811-.221-.811h-45.573a4.029 4.029 0 0 0-2.595.681c-.345.398-.694.811.22.811ZM198.504 97.893h-27.851a2.882 2.882 0 0 0-1.332.207c-.42.173-.792.444-1.084.788-.407.721.345 1.135 1.013 1.135h27.851c.454.036.911-.034 1.331-.208a2.824 2.824 0 0 0 1.084-.788c.408-.721-.344-1.134-1.012-1.134ZM151.542 100.082h7.596c.494.011.985-.081 1.44-.271.393-.148.73-.408.97-.746.38-.732-.326-1.215-1.038-1.215h-7.595a3.539 3.539 0 0 0-1.441.272 2.075 2.075 0 0 0-.97.746c-.38.732.327 1.214 1.038 1.214ZM198.992 147.989h-45.574a4.11 4.11 0 0 0-2.592.684c-.35.394-.696.779.213.779h45.573a4.1 4.1 0 0 0 2.593-.684c.349-.393.696-.779-.213-.779ZM172.314 159.969c.782 0 1.932-.595 2.025-1.441.104-.938-.979-1.152-1.686-1.152h-20.255c-.782 0-1.932.595-2.025 1.441-.104.938.979 1.152 1.686 1.152h20.255Z" fill="#262626"/><path d="M41.946 88a.14.14 0 0 1-.128-.082c-.011-.025-.015-.052-.011-.08a.144.144 0 0 1 .033-.071l.555-.638-1.272.734a.14.14 0 0 1-.209-.138.142.142 0 0 1 .047-.09l.824-.713-1.08.624a.14.14 0 0 1-.158-.23l.734-.592-.805.466a.141.141 0 0 1-.16-.23l.778-.646-.734.422a.14.14 0 0 1-.162-.228l.554-.476-.346.2a.142.142 0 0 1-.184-.038.14.14 0 0 1 .018-.187l.343-.318a.14.14 0 0 1 0-.243l.716-.413a.142.142 0 0 1 .099-.017.142.142 0 0 1 .111.152.142.142 0 0 1-.044.09l-.113.103.565-.326a.141.141 0 0 1 .21.14.141.141 0 0 1-.047.088l-.554.476.868-.5a.14.14 0 0 1 .21.14.14.14 0 0 1-.05.09l-.778.647.956-.551a.14.14 0 0 1 .187.042.141.141 0 0 1-.028.19l-.734.589.77-.445a.141.141 0 0 1 .185.04.14.14 0 0 1-.023.188l-.824.713.721-.416a.14.14 0 0 1 .176.214l-.555.638.038-.022a.144.144 0 0 1 .11-.018.143.143 0 0 1 .106.12.139.139 0 0 1-.031.106.134.134 0 0 1-.044.035l-.769.444a.14.14 0 0 1-.071.017Z" fill="#BFDBF0"/><path d="M48.892 85.299c-.106-.107-.493.048-.378.163l.904.903h-6.146a1.54 1.54 0 0 0-.366-.872l3.934-3.933.395-.396v1.219c0 .054.408 0 .408-.11v-1.59c0-.024-.064-.025-.07-.025H45.98c-.101 0-.2.027-.288.078-.063.037-.06.08.021.08h1.461a.328.328 0 0 0-.104.065l-4.005 4.005-.389.389a1.551 1.551 0 0 0-.417-.225 1.556 1.556 0 0 0-.383-.079v-6.15l.729.729c.094.094.478-.056.38-.155L41.86 78.27c-.077-.078-.285-.016-.352.05l-1.125 1.124c-.056.057-.05.113.035.132a.369.369 0 0 0 .288-.075l.758-.76v6.242c-.268.04-.522.144-.743.3l-3.861-3.862-.535-.533h1.15c.09 0 .214-.07.225-.166.012-.107-.107-.136-.189-.136H35.92c-.081 0-.225.07-.225.166v1.59c0 .101.099.143.19.136.08-.005.224-.065.224-.166v-1.096l3.81 3.81.515.515c-.212.247-.34.554-.366.878h-6.143a.748.748 0 0 0-.18.022l1.077-1.078c.064-.063-.056-.065-.095-.062a.47.47 0 0 0-.273.096l-1.125 1.125c-.018.018-.028.032-.008.052l1.125 1.125c.072.073.443-.078.384-.137l-.97-.97h6.208c.007.254.08.502.209.72.048.081.105.156.169.226l-3.936 3.935-.4.397V90.67c0-.102-.099-.148-.191-.143-.083.006-.224.067-.224.17v1.59c0 .108.098.143.191.143h1.592a.23.23 0 0 0 .223-.169c.01-.108-.107-.143-.191-.143h-1.26c.005-.003.011-.005.015-.009l4.005-4.004.38-.38c.238.178.52.287.816.315v6.144l-.735-.736a.24.24 0 0 0-.278-.033c-.062.03-.168.14-.094.215l1.125 1.126a.258.258 0 0 0 .28.034.257.257 0 0 0 .077-.062l1.126-1.125a.123.123 0 0 0 .029-.118.124.124 0 0 0-.084-.087.274.274 0 0 0-.288.077l-.749.751v-6.198c.028-.005.054-.005.081-.01a1.66 1.66 0 0 0 .661-.291l3.867 3.866.544.544h-1.106a.293.293 0 0 0-.267.121c-.043.084.038.155.12.155h1.592c.08 0 .279-.036.279-.157v-1.59c0-.099-.101-.127-.185-.12-.072.006-.227.06-.227.156v1.093l-3.81-3.81-.519-.52c.199-.23.324-.515.361-.818h6.22l-.947.947a.085.085 0 0 0-.035.092.084.084 0 0 0 .077.062.327.327 0 0 0 .288-.077l1.125-1.126c.03-.029.063-.081.024-.12L48.892 85.3Zm-8.138 1.992a1.326 1.326 0 0 1-.117-1.457 1.15 1.15 0 0 1 .947-.59.292.292 0 0 0 .11-.002c.054.002.11.01.163.02a1.312 1.312 0 0 1 1.013 1.263 1.258 1.258 0 0 1-.775 1.181 1.209 1.209 0 0 1-1.341-.415Z" fill="#2A2A38"/><path d="M29.231 210.53a.28.28 0 0 1-.404-.34l1.003-2.742-2.296 3.977a.281.281 0 0 1-.508-.239l.975-2.617-2.175 3.765a.28.28 0 0 1-.365.11.283.283 0 0 1-.14-.354l.873-2.201-1.831 3.171a.281.281 0 0 1-.504-.248l.717-1.733-1.47 2.547a.28.28 0 0 1-.511-.229l.837-2.548-2.05 3.553a.281.281 0 0 1-.508-.24l.69-1.838-1.367 2.367a.28.28 0 0 1-.365.113.28.28 0 0 1-.141-.354l.446-1.151-.596 1.034a.28.28 0 0 1-.354.11.283.283 0 0 1-.157-.336l.297-.914-.392.681a.282.282 0 0 1-.316.132.283.283 0 0 1-.209-.272l-.003-.943-.273.471a.273.273 0 0 1-.099.101.271.271 0 0 1-.135.04.275.275 0 0 1-.138-.031.273.273 0 0 1-.105-.094l-.223-.335a.28.28 0 0 1-.325-.067.283.283 0 0 1-.035-.33l.13-.226a.278.278 0 0 1 .235-.14.275.275 0 0 1 .137.031.272.272 0 0 1 .106.094l.19.285.567-.987a.28.28 0 0 1 .524.14l.003.94 1.202-2.081a.279.279 0 0 1 .156-.12.279.279 0 0 1 .338.149.282.282 0 0 1 .016.197l-.295.918 1.1-1.9a.283.283 0 0 1 .16-.127.281.281 0 0 1 .345.369l-.447 1.149 1.237-2.143a.284.284 0 0 1 .16-.126.276.276 0 0 1 .203.015.28.28 0 0 1 .144.351l-.69 1.838 1.71-2.962a.28.28 0 0 1 .501.027.282.282 0 0 1 .01.202l-.838 2.548 2.244-3.886a.281.281 0 0 1 .503.248l-.715 1.732 1.611-2.79a.28.28 0 0 1 .367-.114.28.28 0 0 1 .139.358l-.873 2.202 1.936-3.354a.28.28 0 0 1 .364-.114.282.282 0 0 1 .143.353l-.973 2.616 2.241-3.882a.28.28 0 0 1 .503.033.282.282 0 0 1 .005.204l-1.003 2.743 2.335-4.045a.286.286 0 0 1 .165-.127.284.284 0 0 1 .342.178.28.28 0 0 1-.008.207l-.273.592.852-1.473a.28.28 0 0 1 .502.033c.027.064.03.137.006.203l-.946 2.611 2.25-3.898a.282.282 0 0 1 .506.042.28.28 0 0 1-.002.206l-.671 1.623.552-.956a.284.284 0 0 1 .35-.119.285.285 0 0 1 .166.33l-.35 1.345.027-.046a.28.28 0 0 1 .378-.093.281.281 0 0 1 .109.374l-1.066 1.846a.28.28 0 0 1-.35.118.283.283 0 0 1-.166-.329l.35-1.346-1.656 2.869a.281.281 0 0 1-.504-.247l.67-1.622-1.696 2.938a.28.28 0 0 1-.362.113.282.282 0 0 1-.146-.349l.946-2.613-2.326 4.026a.282.282 0 0 1-.499-.259l.272-.589-.893 1.548a.265.265 0 0 1-.103.103Z" fill="#CAD0D7"/><path d="M27.018 208.566a.284.284 0 0 1-.174.036.286.286 0 0 1-.244-.232.281.281 0 0 1 .026-.175l1.573-3.099-2.339 4.051a.28.28 0 0 1-.494-.267l1.755-3.486-2.565 4.446a.282.282 0 0 1-.494-.269l1.068-2.079-1.65 2.859a.283.283 0 0 1-.51-.053.281.281 0 0 1 .012-.209l2.523-5.279-3.628 6.282a.284.284 0 0 1-.382.112.282.282 0 0 1-.111-.383l.312-.599-.712 1.232a.283.283 0 0 1-.374.105.281.281 0 0 1-.123-.368l2.149-4.439-3.034 5.254a.282.282 0 0 1-.494-.268l.75-1.467-1.177 2.037a.282.282 0 0 1-.509-.053.28.28 0 0 1 .012-.208l2.082-4.4-2.943 5.098a.28.28 0 0 1-.511-.058.283.283 0 0 1 .017-.211l.28-.545-.585 1.013a.283.283 0 0 1-.372.101.284.284 0 0 1-.124-.365l1.221-2.492-1.718 2.975a.281.281 0 0 1-.498-.258l1.674-3.627-2.345 4.061a.279.279 0 0 1-.368.109.282.282 0 0 1-.134-.359l1.73-4.091-2.519 4.365a.28.28 0 0 1-.5-.255l1.146-2.576-1.547 2.676a.285.285 0 0 1-.161.126.282.282 0 0 1-.342-.373l1.045-2.567-1.348 2.338a.284.284 0 0 1-.354.12.284.284 0 0 1-.161-.337l.514-1.829-.254.44a.286.286 0 0 1-.17.123.284.284 0 0 1-.338-.195.282.282 0 0 1 .02-.209l1.38-2.389a.28.28 0 0 1 .353-.12.285.285 0 0 1 .145.137c.03.063.036.133.017.2L12 210.502l2.279-3.944a.28.28 0 0 1 .503.042.28.28 0 0 1 0 .204l-1.045 2.568 2.167-3.754a.283.283 0 0 1 .37-.108.28.28 0 0 1 .13.363l-1.145 2.576 2.13-3.688a.285.285 0 0 1 .367-.109.282.282 0 0 1 .134.359l-1.73 4.091 3.144-5.447a.283.283 0 0 1 .164-.128.28.28 0 0 1 .334.386l-1.672 3.629 2.778-4.812a.282.282 0 0 1 .496.264l-1.22 2.492 2.024-3.508a.282.282 0 0 1 .494.269l-.278.543.812-1.406a.28.28 0 0 1 .373-.106.28.28 0 0 1 .125.367l-2.083 4.4 3.243-5.618a.283.283 0 0 1 .378-.105.282.282 0 0 1 .116.374l-.75 1.473 1.377-2.386a.288.288 0 0 1 .166-.133.28.28 0 0 1 .331.396l-2.15 4.435 3.246-5.623a.275.275 0 0 1 .167-.135c.036-.01.073-.014.11-.01a.276.276 0 0 1 .189.104.284.284 0 0 1 .06.206.278.278 0 0 1-.033.105l-.313.601.845-1.463a.279.279 0 0 1 .166-.128.28.28 0 0 1 .331.39l-2.522 5.276 3.786-6.557a.282.282 0 0 1 .493.269l-1.069 2.081 1.748-3.026a.282.282 0 0 1 .379-.111.28.28 0 0 1 .116.377l-1.755 3.487 2.62-4.54a.281.281 0 0 1 .495.268l-1.577 3.104 2.168-3.756a.28.28 0 0 1 .374-.108.281.281 0 0 1 .125.368l-2.641 5.626 3.54-6.129a.285.285 0 0 1 .166-.125.283.283 0 0 1 .326.393l-.727 1.428 1.024-1.774a.283.283 0 0 1 .374-.105.281.281 0 0 1 .123.369l-1.557 3.217 1.991-3.449a.282.282 0 0 1 .5.255l-1.632 3.641 2.12-3.67a.28.28 0 0 1 .505.044.28.28 0 0 1-.003.205l-1.1 2.636 1.344-2.323a.287.287 0 0 1 .157-.127.285.285 0 0 1 .343.155.284.284 0 0 1 .01.202l-.369 1.1a.279.279 0 0 1 .377-.047.282.282 0 0 1 .08.371l-1.362 2.36a.281.281 0 0 1-.51-.23l.361-1.079-2.128 3.686a.28.28 0 0 1-.368.112.278.278 0 0 1-.135-.36l1.097-2.638-2.684 4.649a.282.282 0 0 1-.5-.255l1.633-3.643-3.093 5.359a.282.282 0 0 1-.513-.052.28.28 0 0 1 .016-.211l1.556-3.215-2.637 4.565a.28.28 0 0 1-.517-.054.283.283 0 0 1 .023-.215l.732-1.433-1.396 2.415a.282.282 0 0 1-.372.107.28.28 0 0 1-.126-.366l2.64-5.626-4.06 7.033a.279.279 0 0 1-.101.104Z" fill="#EAEAEB"/><path d="M29.237 191.86a.282.282 0 0 1-.415-.182.28.28 0 0 1 .015-.172l.998-2.412-1.307 2.261a.281.281 0 0 1-.501-.254l1.641-3.733a.28.28 0 0 1-.148-.296l.093-.547a.268.268 0 0 1-.227-.023.284.284 0 0 1-.103-.385l.59-1.02a.282.282 0 0 1 .52.187l-.057.34.425-.737a.285.285 0 0 1 .164-.129.287.287 0 0 1 .207.019.281.281 0 0 1 .13.364l-.652 1.481.872-1.51a.285.285 0 0 1 .162-.128.283.283 0 0 1 .342.376l-.996 2.414 1.21-2.094a.282.282 0 0 1 .488.004.281.281 0 0 1 .03.191l-.21 1.066.488-.842a.278.278 0 0 1 .343-.122.28.28 0 0 1 .177.317l-.12.604.04-.069a.282.282 0 0 1 .486.281l-.892 1.546a.281.281 0 0 1-.52-.196l.122-.604-.482.833a.285.285 0 0 1-.149.124.276.276 0 0 1-.194-.002.28.28 0 0 1-.177-.318l.21-1.065-2.5 4.329a.28.28 0 0 1-.103.103Z" fill="#F4D1B5"/><path d="M17.265 209.013a.28.28 0 0 1-.39-.374l2.743-5.208-3.535 6.122a.276.276 0 0 1-.169.126.277.277 0 0 1-.208-.026.282.282 0 0 1-.114-.373l1.967-3.681-2.302 3.986a.281.281 0 0 1-.494-.269l4.862-9.507-5.284 9.146a.282.282 0 0 1-.494-.268l4.574-8.926-4.683 8.107a.282.282 0 0 1-.493-.27l3.192-6.116-3.106 5.379a.28.28 0 0 1-.495-.267l4.03-8.015-3.987 6.903a.282.282 0 0 1-.517-.057.281.281 0 0 1 .024-.214l1.44-2.744-1.145 1.982a.281.281 0 0 1-.493-.269l1.725-3.347-1.375 2.38a.28.28 0 0 1-.375.109.283.283 0 0 1-.122-.372l2.245-4.657-1.733 3a.281.281 0 0 1-.505-.243l1.363-3.476a.283.283 0 0 1-.374.037.283.283 0 0 1-.077-.368l1.819-3.152a.282.282 0 0 1 .504.039.28.28 0 0 1 .001.204l-1.345 3.43 3.638-6.301a.28.28 0 0 1 .496.262l-2.246 4.661 3.39-5.872a.284.284 0 0 1 .377-.105.28.28 0 0 1 .116.374l-1.719 3.342 2.344-4.06a.279.279 0 0 1 .168-.134.28.28 0 0 1 .326.405l-1.444 2.749 1.853-3.205a.28.28 0 0 1 .373-.101.28.28 0 0 1 .121.367l-4.03 8.018 4.852-8.401a.28.28 0 0 1 .378-.105.28.28 0 0 1 .114.376l-3.191 6.116 3.676-6.368a.282.282 0 0 1 .494.269l-4.571 8.925 5.186-8.982a.28.28 0 0 1 .377-.105.28.28 0 0 1 .117.374l-4.861 9.509 5.44-9.422a.282.282 0 0 1 .508.064.283.283 0 0 1-.016.209l-1.966 3.677 2.13-3.69a.28.28 0 1 1 .493.271l-2.744 5.21 2.854-4.942a.277.277 0 0 1 .167-.127.275.275 0 0 1 .209.023.284.284 0 0 1 .12.37l-3.917 7.802 4.21-7.289a.28.28 0 0 1 .512.055.281.281 0 0 1-.016.211L25 198.751l3.508-6.086a.284.284 0 0 1 .374-.096.278.278 0 0 1 .119.367l-.714 1.365.683-1.181a.279.279 0 0 1 .377-.114.28.28 0 0 1 .121.374l-2.626 5.565 2.915-5.047a.28.28 0 0 1 .164-.128.28.28 0 0 1 .336.384l-2.166 4.836 2.387-4.135a.281.281 0 0 1 .372-.105.279.279 0 0 1 .126.365l-.97 2.054.934-1.617a.279.279 0 0 1 .37-.11.282.282 0 0 1 .133.361l-.98 2.304 1.241-2.147a.283.283 0 0 1 .361-.111.28.28 0 0 1 .147.348l-.793 2.175 1.582-2.739a.281.281 0 0 1 .505.246l-.439 1.085.795-1.376a.281.281 0 0 1 .509.234l-.427 1.213.668-1.155a.28.28 0 0 1 .35-.113.282.282 0 0 1 .164.327l-.24.905.33-.572a.278.278 0 0 1 .342-.122.28.28 0 0 1 .178.317l-.063.312a.282.282 0 0 1 .36.397l-.693 1.2a.283.283 0 0 1-.343.123.281.281 0 0 1-.177-.318l.03-.154-.547.948a.279.279 0 0 1-.349.113.282.282 0 0 1-.164-.327l.243-.906-1.11 1.916a.283.283 0 0 1-.359.113.28.28 0 0 1-.149-.346l.426-1.213-1.295 2.242a.283.283 0 0 1-.365.108.28.28 0 0 1-.139-.354l.44-1.081-1.188 2.049a.28.28 0 0 1-.361.112.28.28 0 0 1-.147-.348l.792-2.174-1.946 3.37a.279.279 0 0 1-.368.11.277.277 0 0 1-.139-.153.284.284 0 0 1 .005-.208l.982-2.3-1.976 3.415a.28.28 0 0 1-.165.125.281.281 0 0 1-.333-.385l.969-2.06-1.773 3.072a.28.28 0 0 1-.371.109.282.282 0 0 1-.129-.365l2.165-4.834-3.575 6.192a.28.28 0 0 1-.498-.26l2.626-5.564-3.98 6.893a.278.278 0 0 1-.168.125.278.278 0 0 1-.34-.187.28.28 0 0 1 .015-.208l.715-1.363-1.307 2.261a.277.277 0 0 1-.166.126.28.28 0 0 1-.329-.391l3.258-6.559-4.53 7.843a.28.28 0 0 1-.374.101.282.282 0 0 1-.12-.367l3.915-7.803-5.277 9.141a.281.281 0 0 1-.1.103Z" fill="#F2CF7E"/><path d="M27.39 200.278a.282.282 0 0 1-.17.037.287.287 0 0 1-.247-.223.28.28 0 0 1 .02-.173l.65-1.437-1.177 2.038a.28.28 0 0 1-.373.109.282.282 0 0 1-.127-.367l1.137-2.467-1.547 2.682a.28.28 0 0 1-.372.11.282.282 0 0 1-.128-.366l1.722-3.822-2.171 3.76a.282.282 0 0 1-.498-.26l1.403-2.979-1.647 2.852a.283.283 0 0 1-.373.103.283.283 0 0 1-.123-.367l.72-1.469-.766 1.324a.283.283 0 0 1-.514-.053.281.281 0 0 1 .018-.212l.378-.767-.366.634a.278.278 0 0 1-.166.132.285.285 0 0 1-.21-.02.281.281 0 0 1-.122-.373l.695-1.456-.665 1.152a.28.28 0 0 1-.51-.049.281.281 0 0 1 .01-.209l.683-1.485-.559.969a.284.284 0 0 1-.362.113.283.283 0 0 1-.146-.35l.66-1.826-.02.033a.278.278 0 0 1-.281.141.278.278 0 0 1-.104-.036.279.279 0 0 1-.102-.386l1.604-2.777a.282.282 0 0 1 .36-.111.28.28 0 0 1 .147.347l-.658 1.825 2.008-3.474a.282.282 0 0 1 .37-.106.281.281 0 0 1 .129.363l-.684 1.489 1.223-2.118a.28.28 0 0 1 .51.052.283.283 0 0 1-.013.21l-.695 1.45L27 190.634a.283.283 0 0 1 .465-.047.287.287 0 0 1 .031.312l-.379.767.605-1.047a.282.282 0 0 1 .497.264l-.721 1.472.897-1.558a.282.282 0 0 1 .498.261l-1.4 2.976 1.598-2.769a.283.283 0 0 1 .165-.13.284.284 0 0 1 .345.177.281.281 0 0 1-.01.209l-1.72 3.822 1.811-3.138a.278.278 0 0 1 .165-.129.279.279 0 0 1 .345.178.282.282 0 0 1-.01.209l-1.138 2.467.967-1.675a.284.284 0 0 1 .371-.107.28.28 0 0 1 .129.364l-.653 1.441.277-.479a.286.286 0 0 1 .162-.128.282.282 0 0 1 .342.375l-.5 1.22a.282.282 0 0 1 .234.422l-1.425 2.468a.278.278 0 0 1-.366.108.278.278 0 0 1-.138-.356l.079-.191-1.028 1.782a.279.279 0 0 1-.104.104ZM20.384 207.213a.284.284 0 0 1-.32-.027.28.28 0 0 1-.087-.309l.332-.954-1.11 1.921a.28.28 0 0 1-.36.127.28.28 0 0 1-.154-.349l.469-1.597-1.173 2.033a.276.276 0 0 1-.158.126.282.282 0 0 1-.352-.357l.39-1.145-.645 1.12a.276.276 0 0 1-.163.132.28.28 0 0 1-.34-.381l.05-.118a.278.278 0 0 1-.164.124.28.28 0 0 1-.336-.379l.34-.815-.252.434a.279.279 0 0 1-.16.126.281.281 0 0 1-.344-.37l.57-1.429-.315.545a.282.282 0 0 1-.511-.225l.743-2.335-.197.342a.28.28 0 0 1-.354.11.281.281 0 0 1-.156-.336l.32-.998a.281.281 0 0 1-.313-.301l.13-1.669a.284.284 0 0 1-.061-.355l.134-.231a.283.283 0 0 1 .477-.018.283.283 0 0 1 .047.181l-.07.899.339-.586a.28.28 0 0 1 .495.028.283.283 0 0 1 .015.198l-.155.479.163-.28a.282.282 0 0 1 .497.026.28.28 0 0 1 .015.198l-.744 2.335.967-1.669a.28.28 0 0 1 .366-.111.283.283 0 0 1 .14.356l-.572 1.433.482-.831a.283.283 0 0 1 .162-.128.28.28 0 0 1 .34.376l-.338.813.049-.084a.281.281 0 0 1 .502.249l-.123.294a.287.287 0 0 1 .138-.054.28.28 0 0 1 .288.169.28.28 0 0 1 .008.202l-.392 1.136.91-1.575a.282.282 0 0 1 .517.221l-.47 1.599 1.417-2.454a.277.277 0 0 1 .36-.114.284.284 0 0 1 .142.144c.028.065.03.137.008.203l-.336.951.585-1.012a.282.282 0 0 1 .345-.123.28.28 0 0 1 .174.323l-.212.967.3-.519a.282.282 0 0 1 .383-.101.28.28 0 0 1 .104.382l-1.203 2.081a.276.276 0 0 1-.344.12.28.28 0 0 1-.174-.32l.211-.966-1.167 2.018a.274.274 0 0 1-.1.104Z" fill="#D3B571"/><path d="M12.509 213.568c1.564.142 3.14-.013 4.647-.455l1.434 1.09c.675.513 1.274.982 2.159.573a70.674 70.674 0 0 0 15.39-8.885c.832-.584.814-1.348.7-2.244l-.255-1.997a17.494 17.494 0 0 0 2.17-2.704c2.654-4.145-1.77-4.329-4.923-3.62a2.737 2.737 0 0 0-1.22.346c-.998.489-1.494-.843-1.873-1.499a.174.174 0 0 0-.07-.065 5.972 5.972 0 0 0-.54-2.352l1.73-2.849a2.05 2.05 0 0 0 2.082-1.32 1.59 1.59 0 0 0-1.39-2.121c-1.376-1.999-4.423.429-2.932 2.168l-1.662 2.737a3.63 3.63 0 0 0-1.04.056c-5.91-2.645-11.912 1.504-14.108 7.099-.668 1.7-1.215 7.151-.054 10.174-1.598 1.84-4.105 5.417-.245 5.868Zm23.544-10.219c.066.52.406 1.649-.12 2.018a69.832 69.832 0 0 1-15.21 8.781c-.71.33-1.414-.449-1.936-.845l-.636-.484c3.29-1.064 6.564-2.964 9.096-4.424 2.884-1.664 6.105-3.643 8.673-6.089l.133 1.043Zm-9.515-12.236a.298.298 0 0 0 .147-.031 2.653 2.653 0 0 1 2.819 1.2c.328.714.516 1.485.555 2.27v.016a5.63 5.63 0 0 1-1.71 4.414c-1.856 1.741-4.17 1.128-5.705-.681-1.065-1.256-.765-2.856.014-4.185a6.727 6.727 0 0 1 3.88-3.003Zm3.599-3.715a.486.486 0 0 0 .131-.248l-.003-.005a.08.08 0 0 0-.015-.057c-.411-.449-.77-1.469.06-1.747a1.538 1.538 0 0 1 1.647.728c.005.01.02.008.032.011l.002.004a1.55 1.55 0 0 1 1.397 1.142c.073.298.064.767-.219.964a1.281 1.281 0 0 1-1.005.061l-.022-.007c-.183-.06-.467.337-.54.458l-1.678 2.766a2.856 2.856 0 0 0-1.627-1.043l1.84-3.027Zm-17.378 16.894c-1.352-7.397 5.09-16.356 12.976-13.488-3.082 1.406-5.884 5.748-3.52 8.266 1.818 1.938 4.248 2.173 6.081.305a8.12 8.12 0 0 0 2.24-3.92c.06.106.12.214.183.318a1.365 1.365 0 0 0 .834.623 1.354 1.354 0 0 0 1.03-.151 2.096 2.096 0 0 1 2.768.806c.1.184.14.395.114.603-1.328 1.64-4.127 2.643-5.927 3.682l-6.38 3.683c.189-.428.21-.911.058-1.354-.003-.007-.009-.007-.012-.013-.003-.006 0-.019-.006-.027-1.357-1.917-2.65.651-3.759-.051-.526-.332-.452-1.24-.726-1.82a4.526 4.526 0 0 0-.952-1.298 5.089 5.089 0 0 0-1.57-1.047c-.214-.089-.572.401-.577.576l-.075 4.476c-.025 1.499-.047 3.477 1.841 3.797.102.012.204.016.307.012a6.356 6.356 0 0 1-.952.458c-2.608.962-3.629-2.531-3.976-4.436Zm3.465-3.963c.4.24.767.534 1.088.873a4.838 4.838 0 0 1 1.101 2.093c.108.372-.018.863.391 1.066 1.336.663 2.346-2.151 3.782-.154a1.379 1.379 0 0 1-.377 1.364l-2.506 1.447c-.168.096-.338.202-.509.31-1.561.62-2.926-.194-3.04-2.089-.098-1.616.014-3.275.07-4.909v-.001Zm-3.298 7.771c.654 1.377 1.741 2.094 3.459 1.396 3.812-1.552 7.482-4.32 11.042-6.376l6.083-3.512a7.362 7.362 0 0 0 2.423-1.803.662.662 0 0 0 .137-.193.29.29 0 0 0 .048-.165c.07-.308.028-.63-.117-.911-.006-.011-.017-.014-.024-.023-.007-.009-.002-.021-.008-.029a2.475 2.475 0 0 0-.92-.864 5.323 5.323 0 0 1 2.782.035c2.766 1.039-.302 4.327-1.42 5.469-.058.059-.119.114-.177.171a.66.66 0 0 0-.366.355 43.752 43.752 0 0 1-8.561 6.203 44.953 44.953 0 0 1-9.29 4.218l-.635.197a.419.419 0 0 0-.342.102c-1.461.442-3.278.906-4.598.469-2.475-.818-.799-3.251.484-4.739Z" fill="#262626"/><path d="M15.94 197.153a10.28 10.28 0 0 1 2.142-2.779c.363-.335.16-.54-.205-.207a12.084 12.084 0 0 0-2.502 3.264c-.191.361.476-.11.565-.278ZM19.768 193.205c.137-.079.276-.155.419-.224a.813.813 0 0 0 .421-.422c.049-.141-.02-.26-.181-.182-.197.096-.39.196-.58.306a.699.699 0 0 0-.362.454c-.002.183.173.132.283.068ZM23.191 208.092a62.242 62.242 0 0 0 5.938-3.428c.373-.244.264-.828-.205-.522a59.977 59.977 0 0 1-5.756 3.324c-.332.169-.47.875.023.626Z" fill="#262626"/><path d="M226.161 232.192a.28.28 0 0 1-.172-.412.29.29 0 0 1 .125-.115l2.68-1.253-4.434 1.187a.28.28 0 0 1-.338-.186.275.275 0 0 1 .015-.207.271.271 0 0 1 .151-.141l.895-.337-1.908.511a.28.28 0 0 1-.193-.526l2.557-1.212-4.155 1.114a.273.273 0 0 1-.202-.024.275.275 0 0 1-.134-.154.277.277 0 0 1 .006-.204.278.278 0 0 1 .142-.146l2.183-.988-3.509.941a.276.276 0 0 1-.207-.025.278.278 0 0 1-.119-.368.284.284 0 0 1 .153-.142l.556-.212-1.38.369a.283.283 0 0 1-.334-.17.283.283 0 0 1 .13-.351l2.238-1.177-3.309.886a.28.28 0 0 1-.327-.383.281.281 0 0 1 .142-.146l.924-.405-.905.243a.281.281 0 0 1-.195-.525l.569-.277-.466.125a.285.285 0 0 1-.33-.161.285.285 0 0 1-.01-.195.29.29 0 0 1 .12-.155l.365-.224-.236.063a.28.28 0 0 1-.353-.301l.075-.725a.295.295 0 0 1-.156-.097.285.285 0 0 1-.004-.348.273.273 0 0 1 .152-.101l.251-.068a.28.28 0 0 1 .353.3l-.068.691 1.717-.459a.286.286 0 0 1 .195.019.282.282 0 0 1 .025.492l-.366.225 1.448-.386a.28.28 0 0 1 .195.524l-.571.278 1.688-.452a.282.282 0 0 1 .329.383.281.281 0 0 1-.144.146l-.923.403 2.111-.563a.277.277 0 0 1 .198.022c.062.031.11.084.134.148a.287.287 0 0 1 .003.2.285.285 0 0 1-.132.15l-2.237 1.178 4.189-1.123a.277.277 0 0 1 .207.025.283.283 0 0 1-.034.509l-.554.212 1.587-.425a.289.289 0 0 1 .204.022.276.276 0 0 1 .134.155.281.281 0 0 1-.149.352l-2.183.987 3.828-1.025a.283.283 0 0 1 .337.175.279.279 0 0 1-.004.203.277.277 0 0 1-.14.148l-2.556 1.211 4.427-1.187a.28.28 0 0 1 .338.187.28.28 0 0 1-.166.348l-.901.341 1.998-.535a.278.278 0 0 1 .335.176.279.279 0 0 1-.143.351l-2.681 1.248 4.57-1.222a.278.278 0 0 1 .202.023c.062.033.11.088.134.154a.28.28 0 0 1-.147.35l-2.486 1.123 4.238-1.136a.28.28 0 0 1 .174.533l-1.311.511 2.521-.674a.283.283 0 0 1 .341.18.28.28 0 0 1-.159.351l-1.843.774 2.354-.632a.285.285 0 0 1 .339.173.28.28 0 0 1-.142.352l-1.557.752.471-.126a.285.285 0 0 1 .193.017.282.282 0 0 1 .035.489l-.732.486a.266.266 0 0 1 .061.126.273.273 0 0 1-.007.139.27.27 0 0 1-.074.119.275.275 0 0 1-.122.069l-.951.255a.289.289 0 0 1-.194-.017.282.282 0 0 1-.034-.489l.309-.205-1.685.451a.284.284 0 0 1-.338-.174.28.28 0 0 1 .004-.203.276.276 0 0 1 .139-.148l1.557-.753-3.481.932a.279.279 0 0 1-.206-.023.286.286 0 0 1-.135-.157.288.288 0 0 1 .01-.208.285.285 0 0 1 .15-.144l1.844-.774-3.474.934a.281.281 0 0 1-.175-.534l1.312-.511-2.618.701a.28.28 0 0 1-.337-.178.277.277 0 0 1 .006-.204.278.278 0 0 1 .142-.146l2.488-1.128-4.322 1.16a.256.256 0 0 1-.145 0Z" fill="#F2CF7E"/><path d="M227.927 229.75a.282.282 0 0 1-.148-.096.283.283 0 0 1 .129-.441l5.154-1.777-6.794 1.82a.28.28 0 0 1-.206-.029.278.278 0 0 1-.113-.37.282.282 0 0 1 .155-.139l5.323-1.822-6.881 1.842a.28.28 0 0 1-.34-.192.28.28 0 0 1 .18-.347l4.139-1.373-5.365 1.438a.282.282 0 0 1-.168-.537l6.11-2.19-7.706 2.065a.285.285 0 0 1-.214-.021.287.287 0 0 1-.137-.167.284.284 0 0 1 .189-.351l4.035-1.352-5.142 1.378a.279.279 0 0 1-.214-.021.28.28 0 0 1-.116-.38.282.282 0 0 1 .166-.137l4.459-1.526-5.548 1.483a.283.283 0 0 1-.35-.191.284.284 0 0 1 .192-.349l.085-.027-.71.191a.282.282 0 0 1-.32-.403.282.282 0 0 1 .162-.137l1.343-.433-2 .537a.277.277 0 0 1-.209-.024.28.28 0 0 1-.117-.374.283.283 0 0 1 .159-.139l4.22-1.491-5.161 1.385a.285.285 0 0 1-.335-.194.282.282 0 0 1 .175-.345l.912-.298-1.448.389a.284.284 0 0 1-.34-.191.283.283 0 0 1 .178-.348l2.147-.729-2.717.728a.28.28 0 0 1-.353-.185.282.282 0 0 1 .186-.354l2.715-.962-3.295.883a.28.28 0 0 1-.17-.535l2.92-1.082-3.389.907a.284.284 0 0 1-.206-.023.288.288 0 0 1-.133-.158.28.28 0 0 1 .159-.35l3.261-1.346-3.593.965a.28.28 0 0 1-.18-.532l2.073-.851-1.882.503a.283.283 0 0 1-.204-.021.283.283 0 0 1-.13-.359.285.285 0 0 1 .143-.147l.843-.392a.28.28 0 0 1-.175-.278.288.288 0 0 1 .063-.161.285.285 0 0 1 .145-.093l2.647-.708a.283.283 0 0 1 .337.175.283.283 0 0 1-.145.351l-.544.253 3.002-.805a.278.278 0 0 1 .204.025.28.28 0 0 1-.024.507l-2.071.851 3.53-.944a.279.279 0 0 1 .204.025.282.282 0 0 1-.025.506l-3.262 1.348 5.048-1.352a.28.28 0 0 1 .325.395.277.277 0 0 1-.155.14l-2.92 1.082 4.393-1.178a.28.28 0 0 1 .34.189.28.28 0 0 1-.173.348l-2.714.962 4.069-1.09a.28.28 0 0 1 .162.538l-2.148.729 3.359-.9a.283.283 0 0 1 .343.192.277.277 0 0 1-.021.211.276.276 0 0 1-.162.136l-.912.297 1.938-.519a.28.28 0 0 1 .208.027.28.28 0 0 1 .115.371.277.277 0 0 1-.156.139l-4.22 1.491 5.813-1.558a.28.28 0 0 1 .359.299.278.278 0 0 1-.2.241l-1.343.43 2.409-.645a.273.273 0 0 1 .215.023.27.27 0 0 1 .083.071.276.276 0 0 1-.043.395.266.266 0 0 1-.097.051l-.091.028 1.03-.276a.282.282 0 0 1 .323.4.276.276 0 0 1-.16.138l-4.453 1.526 5.999-1.606a.28.28 0 0 1 .329.402.277.277 0 0 1-.166.136l-4.036 1.352 5.467-1.465a.285.285 0 0 1 .342.188.28.28 0 0 1-.175.349l-6.11 2.191 8.062-2.161a.282.282 0 0 1 .162.539l-4.141 1.373 5.558-1.49a.282.282 0 0 1 .324.4.279.279 0 0 1-.16.138l-5.323 1.822 6.555-1.756a.282.282 0 0 1 .166.537l-5.151 1.78 6.051-1.624a.282.282 0 0 1 .17.536l-5.653 2.075 6.559-1.758a.281.281 0 0 1 .171.536l-4.657 1.729 5.286-1.416a.281.281 0 0 1 .177.532l-3.919 1.559 4.267-1.144a.281.281 0 0 1 .188.528l-2.554 1.151 2.205-.59a.289.289 0 0 1 .22.021.273.273 0 0 1 .136.174.287.287 0 0 1-.03.219.28.28 0 0 1-.18.128l-5.557 1.493a.28.28 0 0 1-.189-.527l2.554-1.152-5.547 1.485a.284.284 0 0 1-.338-.184.277.277 0 0 1 .012-.206.276.276 0 0 1 .148-.143l3.921-1.561-6.453 1.729a.281.281 0 0 1-.17-.535l4.657-1.729-6.795 1.821a.282.282 0 0 1-.17-.536l5.652-2.074-7.746 2.075a.278.278 0 0 1-.146 0Z" fill="#F2CF7E"/><path d="M227.08 226.606a.276.276 0 0 1-.147-.096.28.28 0 0 1 .125-.441l6.38-2.29-8.267 2.216a.279.279 0 0 1-.337-.194.284.284 0 0 1 .176-.346l5.09-1.671-6.392 1.711a.284.284 0 0 1-.346-.189.28.28 0 0 1 .183-.349l7.745-2.633-9.372 2.512a.28.28 0 0 1-.214-.025.28.28 0 0 1 .058-.516l2.894-.891-3.791 1.015a.279.279 0 0 1-.336-.193.28.28 0 0 1 .176-.346l7.897-2.569-9.194 2.462a.28.28 0 0 1-.158-.539l7.275-2.309-8.327 2.233a.282.282 0 0 1-.161-.539l9.568-3.121-9.822 2.631a.282.282 0 0 1-.16-.539l8.911-2.888-8.471 2.269a.28.28 0 0 1-.336-.197.281.281 0 0 1 .183-.344l.303-.094a.281.281 0 0 1-.101-.551l.756-.228-.367.098a.277.277 0 0 1-.199-.035.282.282 0 0 1 .038-.501l7.592-2.553-6.847 1.835a.28.28 0 0 1-.319-.405.281.281 0 0 1 .162-.135l1.054-.328-.494.132a.282.282 0 0 1-.168-.537l5.581-2.006-4.39 1.177a.282.282 0 0 1-.174-.534l4.095-1.59-2.366.633a.283.283 0 0 1-.206-.023.29.29 0 0 1-.134-.158.285.285 0 0 1 .16-.351l2.497-1.028a.283.283 0 0 1 .104-.49l3.122-.839a.28.28 0 0 1 .339.181.285.285 0 0 1-.01.207.287.287 0 0 1-.149.144l-1.664.686 3.138-.841a.282.282 0 0 1 .34.184.28.28 0 0 1-.165.349l-4.093 1.592 5.915-1.585a.28.28 0 0 1 .212.022.278.278 0 0 1 .118.375.285.285 0 0 1-.161.14l-5.58 2.006 7.444-1.995a.28.28 0 0 1 .316.404.273.273 0 0 1-.16.136l-1.057.33 2.07-.552a.277.277 0 0 1 .337.192.278.278 0 0 1-.175.346l-7.593 2.552 8.87-2.377a.283.283 0 0 1 .154.542l-.754.227 1.133-.304a.28.28 0 0 1 .336.197.282.282 0 0 1-.183.344l-.139.045.474-.126a.28.28 0 0 1 .318.402.283.283 0 0 1-.159.137l-8.91 2.887 9.467-2.538a.283.283 0 0 1 .318.402.288.288 0 0 1-.158.137l-9.568 3.118 10.071-2.699a.282.282 0 0 1 .158.539l-7.277 2.312 7.571-2.028a.284.284 0 0 1 .334.194.286.286 0 0 1-.174.345l-7.891 2.567 8.148-2.185a.288.288 0 0 1 .215.024.281.281 0 0 1-.059.517l-2.899.893 2.964-.795a.28.28 0 0 1 .212.025.28.28 0 0 1 .114.376.28.28 0 0 1-.162.138l-7.748 2.635 7.9-2.117a.278.278 0 0 1 .34.192.283.283 0 0 1-.019.21.284.284 0 0 1-.16.137l-5.089 1.673 5.068-1.359a.282.282 0 0 1 .167.537l-6.379 2.29 6.348-1.7a.277.277 0 0 1 .339.186.28.28 0 0 1-.168.348l-5.203 1.935 5.021-1.345a.276.276 0 0 1 .205.024.275.275 0 0 1 .133.159.282.282 0 0 1-.163.35l-3.941 1.542 3.674-.984a.279.279 0 0 1 .21.024.28.28 0 0 1-.043.513l-.567.201.281-.075a.29.29 0 0 1 .208.025.284.284 0 0 1 .118.37.282.282 0 0 1-.155.141l-.246.092a.276.276 0 0 1 .187.043c.055.036.096.09.116.153a.281.281 0 0 1-.141.333l-1.159.598.723-.193a.281.281 0 0 1 .234.501l-.392.277a.272.272 0 0 1 .104.121.277.277 0 0 1-.046.303.282.282 0 0 1-.136.084l-1.088.291a.283.283 0 0 1-.345-.343.287.287 0 0 1 .11-.159l.174-.123-1.721.461a.28.28 0 0 1-.331-.369.281.281 0 0 1 .129-.151l1.16-.597-3.066.822a.28.28 0 0 1-.325-.395.287.287 0 0 1 .154-.141l.226-.084-1.425.382a.284.284 0 0 1-.345-.188.286.286 0 0 1 .018-.211.277.277 0 0 1 .159-.138l.563-.199-1.752.467a.283.283 0 0 1-.339-.184.28.28 0 0 1 .163-.35l3.942-1.542-5.904 1.582a.286.286 0 0 1-.207-.025.283.283 0 0 1 .036-.51l5.202-1.934-7.138 1.912a.278.278 0 0 1-.146 0Z" fill="#CAD0D7"/><path d="M230.963 213.674a.28.28 0 0 1-.036-.53l.912-.385-1.959.523a.281.281 0 0 1-.203-.025.284.284 0 0 1-.122-.362.281.281 0 0 1 .146-.144l1.512-.621-2.531.678a.278.278 0 0 1-.202-.023.282.282 0 0 1 .012-.504l2.885-1.337-3.29.884a.28.28 0 0 1-.336-.182.27.27 0 0 1 .01-.205.276.276 0 0 1 .147-.144l1.226-.506-.787.211a.283.283 0 0 1-.344-.348.284.284 0 0 1 .113-.157l1.345-.909a.28.28 0 0 1-.205-.042.279.279 0 0 1-.088-.378.283.283 0 0 1 .166-.128l1.597-.428a.283.283 0 0 1 .343.347.28.28 0 0 1-.112.157l-1.343.909 3.381-.906a.282.282 0 0 1 .18.532l-1.224.504 2.229-.598a.28.28 0 0 1 .33.38.277.277 0 0 1-.139.147l-2.887 1.338 3.621-.97a.283.283 0 0 1 .34.181.281.281 0 0 1-.159.35l-1.515.622 1.666-.446a.278.278 0 0 1 .204.025.28.28 0 0 1 .124.361.276.276 0 0 1-.146.145l-.918.384.865-.232a.283.283 0 0 1 .332.163.287.287 0 0 1 .008.198.285.285 0 0 1-.124.153l-1.195.703.855-.229a.283.283 0 0 1 .299.438l-.366.497a.278.278 0 0 1 .18.277.284.284 0 0 1-.206.257l-.547.144a.275.275 0 0 1-.304-.112.28.28 0 0 1 .005-.325l.313-.427-2.083.558a.28.28 0 0 1-.332-.163.279.279 0 0 1 .116-.351l1.196-.699-2.809.75a.259.259 0 0 1-.146 0Z" fill="#EAEAEB"/><path d="M232.855 209.49a.276.276 0 0 1-.137-.084.28.28 0 0 1 .058-.425l.259-.164-.948.254a.28.28 0 0 1-.334-.169.284.284 0 0 1 .13-.352l.543-.284-.743.199a.292.292 0 0 1-.195-.019.28.28 0 0 1-.028-.491l1.159-.732-1.029.273a.277.277 0 0 1-.192-.017.284.284 0 0 1-.153-.328.282.282 0 0 1 .112-.158l.656-.452a.277.277 0 0 1-.151-.182.274.274 0 0 1 .028-.213.276.276 0 0 1 .171-.131l1.215-.325a.279.279 0 0 1 .334.15.28.28 0 0 1-.098.353l-.491.339 1.246-.333a.282.282 0 0 1 .329.159.277.277 0 0 1 .011.194.274.274 0 0 1-.117.156l-1.163.732 1.387-.372a.288.288 0 0 1 .2.021.287.287 0 0 1 .134.149.28.28 0 0 1-.13.351l-.542.285.277-.075a.279.279 0 0 1 .331.159.279.279 0 0 1-.107.35l-.568.362a.281.281 0 0 1-.098.495l-1.211.324a.265.265 0 0 1-.145.001Z" fill="#EAEAEB"/><path d="M240.498 224.625a12.231 12.231 0 0 0-4.603-10.511l.288-1.077c.386-2.023-.68-3.066-2.139-3.695a1.956 1.956 0 0 0 1.131-1.236 2.025 2.025 0 0 0-.236-1.529 2.011 2.011 0 0 0-1.252-.909 2.139 2.139 0 0 0-2.586 1.404 1.786 1.786 0 0 0 .195 1.52c-2.15-.214-3.235 1.288-3.811 3.3a11.815 11.815 0 0 0-9.223 6.852c-2.27.051-7.747.509-5.381 3.826.878 1.229 2.31 2.13 3.71 2.873.123 1.04.042 2.717.739 3.545.757.902 2.724 1.241 3.762 1.613a66.666 66.666 0 0 0 6.349 1.935c1.645.413 3.304.761 4.977 1.045.942.161 2.611.721 3.608.384 1.044-.351 1.777-1.705 2.419-2.6a15.312 15.312 0 0 0 3.96-.538c4.706-1.349.489-4.774-1.907-6.202Zm-7.089-18.383a1.413 1.413 0 0 1 .952 1.705 1.312 1.312 0 0 1-1.442 1.001l-.216-.062a1.434 1.434 0 0 1-.791-1.655 1.28 1.28 0 0 1 1.497-.989Zm-4.852 4.823a2.496 2.496 0 0 1 2.996-1.833c1.956.333 4.285 1.193 3.817 3.644a3.66 3.66 0 0 0-.202.755.652.652 0 0 1-.064.297 7.365 7.365 0 0 1-1.492-.207 22.012 22.012 0 0 1-3.784-1.014 5.78 5.78 0 0 1-1.544-.655c.013-.035.032-.095.06-.19.076-.262.123-.538.213-.797Zm-.824 1.411c1.072.59 2.22 1.029 3.413 1.302 1.325.44 2.707.684 4.103.725 2.741 2.205 5.028 6.336 4.544 10.082-.142.043-.222.107-.109.174l.085.049a7.132 7.132 0 0 1-.461 1.632c-.113.268-.07.845-.279 1.039-1.154 1.073-3.181.392-4.525.185a58.763 58.763 0 0 1-6.35-1.352c-2.455-.663-10.774-2.218-9.701-5.797a11.143 11.143 0 0 1 9.28-8.037v-.002Zm8.429 20.636c-1.996 1.31-7.901-.877-9.897-1.429-2.395-.662-5.748-1.264-7.641-2.936-.964-.848-1.008-1.683-1.132-2.842l.438.22a48.983 48.983 0 0 0 9.17 3.362c3.13.838 6.877 1.784 10.45 1.877a6.328 6.328 0 0 1-1.388 1.749v-.001Zm4.538-2.372c-.709.091-1.423.142-2.138.154a.618.618 0 0 0-.341-.103.618.618 0 0 0-.34.106c-3.491-.037-7.097-.854-10.357-1.73a43.133 43.133 0 0 1-10.126-3.878.382.382 0 0 0-.309-.183c-.378-.223-.753-.45-1.116-.691-.875-.584-2.238-1.43-2.628-2.458-.984-2.608 2.767-2.818 4.758-2.848-.2.473-.374.955-.52 1.447-.352 1.203-.521 1.908.484 2.74 1.216 1.006 3.451 1.541 4.926 2.07 1.459.524 2.939.985 4.435 1.399a55.424 55.424 0 0 0 9.622 1.834c1.621.15 2.399.119 2.931-1.478.208-.63.359-1.276.453-1.932 1.326.763 3.135 1.893 3.305 3.226.231 1.788-1.55 2.134-3.037 2.327l-.002-.002Z" fill="#262626"/><path d="M226.85 214.875c.22-.053.441-.1.663-.139.156-.027.362-.149.294-.336-.068-.187-.358-.219-.519-.191-.222.04-.443.086-.663.139-.152.037-.365.143-.294.337.065.177.361.229.519.19ZM220.788 220.535a9.2 9.2 0 0 1 4.138-4.956c.406-.232-.371-.415-.597-.285a9.557 9.557 0 0 0-4.355 5.136c-.107.295.724.355.814.105Z" fill="#262626"/><path d="M244.854 143.168c-6.098-.49-16.485-4.887-16.299-12.206 5.133 3.896 13.81 6.237 16.489-.553 1.762-4.471-1.095-7.618-5.315-8.596-4.678-1.09-8.625 1.056-11.101 4.878a10.245 10.245 0 0 1-1.125-1.45c-5.193-8.561 6.405-15.334 13.508-15.693 1.588-.078 1.609-2.515 0-2.485-10.267.182-22.458 10.08-15.508 20.775a11.296 11.296 0 0 0 1.732 2.029c-1.771 8.224 10.88 14.188 17.601 14.746.948.078.944-1.372.018-1.445Zm-6.276-19.715c3.632.619 5.449 4.19 2.597 6.925-3.146 3.06-8.617.135-11.768-2.891 1.684-3.324 5.415-4.674 9.171-4.034Z" fill="#EAEAEB"/><path d="M242.932 150.343a37.901 37.901 0 0 0 8.496-2.402 1.21 1.21 0 0 0 .724-.575 1.21 1.21 0 0 0 .111-.918c-1.142-3.423-3.635-6.137-6.344-8.44a.828.828 0 0 0-1.165 1.169c1.874 2.207 3.718 4.176 4.804 6.821-2.414.688-5.016 1.017-7.21 2.164-.957.528-.563 2.329.584 2.181ZM130.989 17.265a.23.23 0 0 1-.169-.195.231.231 0 0 1 .117-.231l1.496-.824-.701.188a.232.232 0 0 1-.25-.355l.326-.47a.234.234 0 0 1-.099-.23.234.234 0 0 1 .169-.185l.349-.094a.231.231 0 0 1 .251.354l-.256.368 1.932-.518a.231.231 0 0 1 .173.427l-1.496.824 3.72-.996a.231.231 0 0 1 .119.448l-5.562 1.489a.229.229 0 0 1-.119 0Z" fill="#EAEAEB"/><path d="M117.262 28.113a.231.231 0 0 1-.008-.446l7.512-2.26-8.743 2.34a.232.232 0 0 1-.129-.445l11.691-3.595-12.707 3.404a.231.231 0 0 1-.128-.445l12.276-3.74-12.393 3.32a.232.232 0 0 1-.127-.446l12.768-3.884-12.517 3.353a.23.23 0 0 1-.277-.163.23.23 0 0 1 .152-.283l3.114-.9-2.902.778a.231.231 0 0 1-.123-.446l.2-.057a.232.232 0 0 1-.124-.447l8.033-2.364-7.796 2.09a.232.232 0 0 1-.126-.446l7.974-2.363-7.735 2.071a.231.231 0 0 1-.133-.441l5.925-1.943-5.658 1.515a.231.231 0 0 1-.133-.443l4.765-1.588-4.505 1.207a.232.232 0 0 1-.28-.16.232.232 0 0 1 .152-.285l.154-.048a.231.231 0 0 1-.085-.45l4.602-1.604-4.329 1.16a.231.231 0 0 1-.136-.442l4.217-1.478-3.948 1.058a.232.232 0 0 1-.282-.155.232.232 0 0 1 .144-.287l4.506-1.619-4.224 1.133a.232.232 0 0 1-.134-.443l2.662-.897-2.422.65a.231.231 0 0 1-.135-.444l3.308-1.134-3.056.818a.232.232 0 0 1-.132-.444l.809-.262-.59.159a.233.233 0 0 1-.283-.154.233.233 0 0 1 .144-.288l2.88-1.035-2.624.702a.232.232 0 0 1-.147-.438l3.199-1.294-2.905.778a.23.23 0 0 1-.284-.15.231.231 0 0 1 .138-.289l1.84-.728-1.579.421a.232.232 0 0 1-.155-.435l1.685-.755-1.405.377a.232.232 0 0 1-.167-.429l1.27-.673-.973.26a.231.231 0 0 1-.2-.407l.803-.617-.465.124a.233.233 0 0 1-.26-.1.233.233 0 0 1 .025-.277l.26-.292a.231.231 0 0 1 .017-.442l.56-.15a.232.232 0 0 1 .234.377l-.21.237.848-.227a.231.231 0 0 1 .201.408l-.804.616 1.815-.486a.233.233 0 0 1 .278.138.232.232 0 0 1-.109.29l-1.27.674 2.236-.6a.232.232 0 0 1 .155.435l-1.685.755 2.626-.703a.231.231 0 0 1 .145.44l-1.841.73 2.7-.722a.23.23 0 0 1 .281.15.23.23 0 0 1-.135.289l-3.197 1.293 4.345-1.164a.232.232 0 0 1 .282.154.232.232 0 0 1-.144.287l-2.879 1.035 3.792-1.016a.232.232 0 0 1 .132.444l-.807.263.994-.266a.23.23 0 0 1 .225.052.232.232 0 0 1-.09.39l-3.309 1.133 3.026-.81a.231.231 0 0 1 .134.442l-2.659.896 2.501-.67a.233.233 0 0 1 .282.154.232.232 0 0 1-.144.288l-4.507 1.62 4.505-1.208a.232.232 0 0 1 .137.442l-4.22 1.478 4.457-1.194a.232.232 0 0 1 .279.156.232.232 0 0 1-.143.286l-4.599 1.603 5.201-1.393a.232.232 0 0 1 .129.444l-.019.007.521-.14a.232.232 0 0 1 .134.443l-4.764 1.587 6.314-1.692a.231.231 0 0 1 .132.444l-5.924 1.942 16.581-4.443a.232.232 0 1 1 .126.446l-7.976 2.362 9.141-2.448a.232.232 0 0 1 .126.446l-8.036 2.365 7.789-2.085a.232.232 0 0 1 .124.447l-.305.087a.231.231 0 0 1 .096.452l-3.101.895 2.741-.734a.231.231 0 0 1 .127.445l-12.769 3.884 12.233-3.279a.231.231 0 1 1 .127.446l-12.278 3.742 11.746-3.148a.232.232 0 0 1 .129.445l-11.689 3.597 11.152-2.988a.23.23 0 0 1 .28.16.23.23 0 0 1-.153.285l-7.511 2.26 7.068-1.894a.23.23 0 0 1 .286.159.233.233 0 0 1-.158.287l-8.023 2.466 7.55-2.023a.232.232 0 1 1 .128.445l-6.507 2.005 6.058-1.623a.232.232 0 0 1 .129.444l-6.138 1.923 5.68-1.522a.231.231 0 0 1 .129.445l-4.157 1.295 3.741-1.003a.23.23 0 0 1 .287.156.23.23 0 0 1-.156.288l-4.927 1.597 4.468-1.198a.232.232 0 0 1 .138.442l-5.678 2 5.125-1.373a.232.232 0 0 1 .141.44l-4.545 1.689 3.993-1.07a.23.23 0 0 1 .277.154.23.23 0 0 1-.135.286l-2.947 1.117 2.456-.658a.232.232 0 0 1 .279.156.233.233 0 0 1-.142.286l-.535.192.169-.045a.232.232 0 0 1 .141.44l-.28.105a.231.231 0 0 1 .093.436l-1.256.667.739-.198a.232.232 0 0 1 .186.418l-.506.326a.232.232 0 0 1-.057.423l-1.065.286a.232.232 0 0 1-.185-.419l.317-.203-1.275.34a.232.232 0 0 1-.169-.429l1.257-.667-2.589.694a.231.231 0 0 1-.14-.44l.156-.059-.939.251a.232.232 0 0 1-.138-.44l.534-.194-1.378.371a.232.232 0 0 1-.142-.44l2.948-1.117-4.31 1.154a.231.231 0 0 1-.14-.44l4.543-1.688-6.173 1.654a.232.232 0 0 1-.137-.441l5.677-2.001-7.328 1.963a.23.23 0 0 1-.278-.159.23.23 0 0 1 .147-.285l4.924-1.595-6.202 1.661a.231.231 0 0 1-.129-.444l4.157-1.295-5.26 1.41a.231.231 0 0 1-.129-.445l6.145-1.924-7.43 1.99a.231.231 0 0 1-.128-.445l6.507-2.004-7.762 2.078a.233.233 0 0 1-.28-.16.232.232 0 0 1 .152-.285l8.024-2.466-9.379 2.513a.23.23 0 0 1-.12.002Z" fill="#CAD0D7"/><path d="M124.87 25.727a.232.232 0 0 1-.037-.434l2.275-1.061-3.005.805a.232.232 0 0 1-.146-.439l1.799-.717-2.099.563a.232.232 0 0 1-.149-.438l2.356-.982-2.493.669a.232.232 0 0 1-.139-.44l.422-.153-.33.089a.231.231 0 0 1-.14-.442l.208-.076-.035.01a.232.232 0 0 1-.147-.438l.894-.363-.49.13a.231.231 0 0 1-.173-.426l1.027-.564a.232.232 0 0 1 0-.447l1.612-.432a.23.23 0 0 1 .278.136.23.23 0 0 1-.105.29l-.91.502 2.257-.605a.232.232 0 0 1 .148.438l-.895.363 1.459-.391a.232.232 0 0 1 .14.44l-.207.077.513-.138a.231.231 0 0 1 .139.442l-.42.152.624-.168a.23.23 0 0 1 .28.148.23.23 0 0 1-.131.29l-2.356.98 2.557-.684a.231.231 0 0 1 .146.439l-1.799.716 1.752-.47a.231.231 0 0 1 .158.434l-2.276 1.06 1.949-.521c.11-.03.226.027.271.132a.23.23 0 0 1-.09.289l-1.329.809.053-.015a.231.231 0 0 1 .12.447l-1.61.432a.232.232 0 0 1-.18-.421l1.326-.809-2.954.792a.227.227 0 0 1-.118 0Z" fill="#EAEAEB"/><path d="M127.398 17.847a.232.232 0 0 1-.061-.42l.908-.558-1.538.413a.23.23 0 0 1-.282-.137.23.23 0 0 1 .112-.292l1.628-.886-1.192.322a.231.231 0 0 1-.158-.434l.892-.417-.545.146a.232.232 0 0 1-.155-.434l.692-.315-.362.097a.231.231 0 0 1-.167-.428l1.462-.764-1.05.281a.232.232 0 0 1-.167-.428l1.388-.714-.986.263a.231.231 0 0 1-.157-.434l.821-.379-.48.128a.232.232 0 0 1-.156-.436l.589-.264-.266.072a.232.232 0 0 1-.159-.433l.932-.44-.58.156a.232.232 0 0 1-.169-.429l1.546-.824-1.122.3a.232.232 0 0 1-.154-.435l.517-.229-.199.054a.23.23 0 0 1-.277-.145.23.23 0 0 1 .121-.29l.784-.36-.447.12a.232.232 0 0 1-.163-.432l1.239-.618-.856.229a.232.232 0 0 1-.167-.428l1.449-.757-1.039.279a.231.231 0 0 1-.153-.436l.514-.228-.197.053a.232.232 0 0 1-.157-.434l.766-.353-.43.115a.231.231 0 0 1-.186-.418l1.194-.78-.74.2a.23.23 0 0 1-.234-.38l.353-.391a.231.231 0 0 1 .008-.446l.582-.155a.231.231 0 0 1 .234.379l-.309.343 1.384-.371a.232.232 0 0 1 .187.418l-1.193.777 1.669-.447a.231.231 0 0 1 .156.434l-.766.353.432-.115a.231.231 0 0 1 .154.435l-.515.228.198-.052a.231.231 0 0 1 .167.428l-1.449.756 1.039-.279a.23.23 0 0 1 .276.142.23.23 0 0 1-.113.29l-1.24.618.858-.23a.231.231 0 0 1 .156.435l-.784.36.447-.12a.232.232 0 0 1 .154.436l-.517.23.2-.054a.231.231 0 0 1 .168.429l-1.545.824 1.122-.301a.23.23 0 0 1 .279.143.23.23 0 0 1-.12.29l-.933.44.581-.156a.232.232 0 0 1 .155.435l-.589.264.267-.072a.232.232 0 0 1 .158.434l-.821.379.479-.129a.232.232 0 0 1 .166.429l-1.388.714.987-.263a.232.232 0 0 1 .168.428l-1.461.766 1.052-.282a.23.23 0 0 1 .28.145.23.23 0 0 1-.124.29l-.692.314.361-.095a.231.231 0 0 1 .158.433l-.889.415.543-.146a.234.234 0 0 1 .276.138.233.233 0 0 1-.105.29l-1.628.886 1.192-.32a.231.231 0 0 1 .274.13.23.23 0 0 1-.092.29l-.909.557.502-.134a.231.231 0 0 1 .244.363l-.282.37a.232.232 0 0 1 .13.152.23.23 0 0 1-.165.283l-.448.12a.232.232 0 0 1-.244-.364l.23-.302-1.388.372a.225.225 0 0 1-.12 0ZM125.48 13.501a.233.233 0 0 1-.147-.327l.158-.309-.837.224a.23.23 0 0 1-.188-.416l.327-.217-.982.265a.231.231 0 0 1-.173-.428l.864-.473-1.214.322a.232.232 0 0 1-.151-.436l.314-.136-.01.003a.231.231 0 0 1-.169-.43l1.568-.84-1.141.305a.232.232 0 0 1-.156-.435l.666-.3-.338.09a.231.231 0 0 1-.154-.435l.599-.269-.275.074a.23.23 0 0 1-.173-.425l1.299-.736-.879.237a.232.232 0 0 1-.244-.364l.505-.668a.233.233 0 0 1-.231-.2.232.232 0 0 1 .17-.255l.584-.156a.23.23 0 0 1 .252.094.23.23 0 0 1-.007.269l-.497.658 1.995-.535a.232.232 0 0 1 .174.426l-1.301.735 1.306-.35a.231.231 0 0 1 .154.435l-.6.271.279-.075a.231.231 0 0 1 .155.435l-.667.301.341-.092a.232.232 0 0 1 .169.43l-1.568.84 1.143-.306a.232.232 0 0 1 .153.436l-.316.136.013-.003a.231.231 0 0 1 .173.427l-.868.473.49-.131a.232.232 0 0 1 .188.417l-.331.219a.23.23 0 0 1 .239.334l-.23.452a.232.232 0 0 1-.107.385l-.203.055a.23.23 0 0 1-.121 0ZM121.037 11.531a.232.232 0 0 1-.125-.362l.164-.219-.773.207a.231.231 0 0 1-.206-.402l.856-.704-1.969.527a.232.232 0 0 1-.159-.433l.847-.399-.579.155a.231.231 0 0 1-.162-.431l1.2-.594-.822.22a.232.232 0 0 1-.15-.437l.202-.085a.232.232 0 0 1-.198-.19c-.017-.1.033-.199.122-.245l1.408-.726-1.005.267a.232.232 0 0 1-.167-.428l1.472-.773-1.059.284a.232.232 0 0 1-.167-.428l1.45-.758-1.04.278a.232.232 0 0 1-.159-.433l.782-.373-.439.118a.23.23 0 0 1-.272-.132.23.23 0 0 1 .092-.29l.501-.306-.135.036a.232.232 0 0 1-.216-.394l.202-.182a.232.232 0 0 1 .08-.41l.583-.156a.232.232 0 0 1 .216.394l-.057.05.753-.2a.231.231 0 0 1 .181.422l-.502.307 1.321-.354a.232.232 0 0 1 .16.433l-.783.372.643-.172a.232.232 0 0 1 .167.429l-1.45.756 1.041-.278a.231.231 0 0 1 .168.428l-1.472.773 1.061-.285a.232.232 0 0 1 .167.428l-1.408.726 1.007-.27a.231.231 0 0 1 .149.437l-.201.085a.232.232 0 0 1 .075.438l-1.199.593.823-.22a.231.231 0 0 1 .158.433l-.848.4.505-.136a.231.231 0 0 1 .206.402l-.858.708.383-.103a.231.231 0 0 1 .245.363l-.236.314a.232.232 0 0 1-.062.42l-.393.105a.226.226 0 0 1-.119 0ZM132.041 15.282a.23.23 0 0 1-.171-.204.23.23 0 0 1 .134-.23l.668-.308-.468.125a.232.232 0 0 1-.151-.437l.247-.105a.232.232 0 0 1-.235-.18.234.234 0 0 1 .133-.263l.404-.177-.095.026a.231.231 0 0 1-.155-.435l.707-.322-.375.1a.233.233 0 0 1-.277-.138.233.233 0 0 1 .108-.29l1.508-.795-1.085.292a.23.23 0 0 1-.276-.142.23.23 0 0 1 .112-.289l1.147-.574-.769.206a.23.23 0 0 1-.272-.129.23.23 0 0 1 .086-.289l.73-.476-.328.088a.232.232 0 0 1-.218-.394l.221-.205a.232.232 0 0 1 .07-.413l.583-.157a.232.232 0 0 1 .264.112.232.232 0 0 1-.047.283l-.095.088.839-.224a.231.231 0 0 1 .186.418l-.73.475 1.56-.418a.232.232 0 0 1 .164.43l-1.147.575.87-.233a.232.232 0 0 1 .168.429l-1.506.795 1.091-.292a.232.232 0 0 1 .277.146.232.232 0 0 1-.122.288l-.711.319.376-.101a.232.232 0 0 1 .153.436l-.403.176.094-.026a.231.231 0 0 1 .151.438l-.245.104a.232.232 0 0 1 .106.442l-.67.31.34-.092a.231.231 0 0 1 .23.381l-.385.417a.23.23 0 0 1 .229.2.23.23 0 0 1-.168.255l-.705.19a.232.232 0 0 1-.231-.382l.376-.406-2.174.582a.226.226 0 0 1-.118 0ZM138.085 15.919a.231.231 0 0 1-.088-.403l.876-.724-2.056.552a.231.231 0 0 1-.273-.14.23.23 0 0 1 .106-.288l1.455-.76-1.044.279a.232.232 0 0 1-.152-.437l.347-.15-.041.01a.231.231 0 0 1-.158-.433l.862-.402-.516.14a.232.232 0 0 1-.161-.433l1.094-.531-.728.195a.232.232 0 0 1-.169-.43l1.564-.837-1.137.305a.232.232 0 0 1-.169-.43l1.574-.844-1.145.307a.232.232 0 0 1-.163-.43l.742-.369-.394.106a.232.232 0 0 1-.245-.364l.505-.668a.232.232 0 0 1-.23-.202.232.232 0 0 1 .17-.254l.582-.155a.23.23 0 0 1 .245.363l-.498.66 1.996-.538a.232.232 0 0 1 .163.432l-.741.368.816-.219a.231.231 0 0 1 .169.43l-1.575.843 1.147-.307a.23.23 0 0 1 .168.429l-1.562.84 1.137-.306a.232.232 0 0 1 .161.432l-1.095.531.729-.195a.232.232 0 0 1 .158.434l-.862.402.517-.14a.231.231 0 0 1 .152.437l-.346.15.041-.012a.232.232 0 0 1 .167.429l-1.45.758 1.044-.28a.232.232 0 0 1 .208.402l-.876.726.396-.107a.233.233 0 0 1 .283.164.233.233 0 0 1-.163.284l-1.42.38a.23.23 0 0 1-.117 0Z" fill="#D3B571"/><path d="M134.628 9.756a.232.232 0 0 1-.09-.4l.689-.583-1.04.28a.231.231 0 0 1-.189-.417l1.131-.752-.677.182a.23.23 0 0 1-.239-.077.23.23 0 0 1-.03-.249l.361-.736a.232.232 0 0 1 .065-.418l.261-.07a.233.233 0 0 1 .269.325l-.317.645 1.545-.414a.231.231 0 0 1 .188.416l-1.13.753.683-.183a.232.232 0 0 1 .21.4l-.689.583.238-.064a.232.232 0 0 1 .224.06.23.23 0 0 1 .059.224.23.23 0 0 1-.164.164l-1.239.332a.233.233 0 0 1-.119-.001Z" fill="#F2CF7E"/><path d="M135.857 15.68a.23.23 0 0 1-.115-.374l.57-.663-1.32.353a.231.231 0 0 1-.272-.13.23.23 0 0 1 .088-.29l1.005-.636-.58.156a.233.233 0 0 1-.277-.143.234.234 0 0 1 .115-.29l.183-.088a.203.203 0 0 1-.158-.138.233.233 0 0 1 .109-.29l.33-.172a.23.23 0 0 1-.179-.422l.857-.516-.458.123a.231.231 0 0 1-.179-.422l.857-.518-.459.123a.232.232 0 0 1-.187-.418l1.078-.708-.702.189a.232.232 0 0 1-.184-.42l1.063-.674-1.084.29a.232.232 0 0 1-.158-.434l.807-.373-.467.126a.233.233 0 0 1-.278-.15.233.233 0 0 1 .127-.287l.235-.1a.233.233 0 0 1-.222-.171.233.233 0 0 1 .105-.26l1.445-.855-.996.27a.23.23 0 0 1-.252-.095.23.23 0 0 1 .008-.27l.497-.653a.23.23 0 0 1-.056-.456l.582-.155a.232.232 0 0 1 .245.364l-.489.643 1.971-.527c.112-.03.23.027.275.133a.233.233 0 0 1-.097.29l-1.443.852 1.442-.387a.232.232 0 0 1 .149.437l-.232.099a.231.231 0 0 1 .098.442l-.824.381a.232.232 0 0 1 .144.426l-1.062.675.633-.17a.232.232 0 0 1 .186.418l-1.081.706.641-.172a.233.233 0 0 1 .274.133.234.234 0 0 1-.094.29l-.859.517.462-.123a.231.231 0 0 1 .18.422l-.858.516.46-.123a.231.231 0 0 1 .167.428l-.33.172h.002a.232.232 0 0 1 .277.143.232.232 0 0 1-.115.29l-.181.088c.072.01.132.062.153.131a.23.23 0 0 1-.088.289l-1.005.637.581-.156a.232.232 0 0 1 .235.375l-.57.662.064-.017a.232.232 0 0 1 .12.448l-.79.211a.23.23 0 0 1-.119-.002ZM122.618 12.236a.232.232 0 0 1-.115-.376l.244-.281-.937.25a.231.231 0 0 1-.182-.42l.509-.314-.524.14a.232.232 0 0 1-.273-.131.232.232 0 0 1 .091-.29l.955-.592-.54.143a.232.232 0 0 1-.17-.429l.501-.272-.155.041a.232.232 0 0 1-.181-.42l.9-.55-.494.132a.231.231 0 0 1-.185-.418l1.111-.72-.669.179a.231.231 0 0 1-.177-.424l1.354-.797-.915.246a.232.232 0 0 1-.174-.426l1.224-.695-.808.215a.231.231 0 0 1-.169-.43l1.036-.559-.648.174a.232.232 0 0 1-.174-.425l1.246-.713-1.062.286a.23.23 0 0 1-.267-.124.23.23 0 0 1 .071-.287l.987-.72-.807.215a.232.232 0 0 1-.228-.383l.31-.326a.232.232 0 0 1 .027-.438l.582-.154c.1-.027.207.016.259.105a.23.23 0 0 1-.03.278l-.248.26 1.212-.324a.231.231 0 0 1 .197.411l-.988.72 1.59-.425a.232.232 0 0 1 .174.424l-1.247.715.83-.222a.232.232 0 0 1 .17.43l-1.035.555.65-.174a.232.232 0 0 1 .174.425l-1.225.695.812-.217a.231.231 0 0 1 .177.423l-1.353.796.439-.118a.232.232 0 0 1 .186.419l-1.112.72.621-.17a.231.231 0 0 1 .181.422l-.898.555.496-.134a.231.231 0 0 1 .17.43l-.499.27.155-.04a.232.232 0 0 1 .183.42l-.955.594.542-.145a.232.232 0 0 1 .181.42l-.508.315.142-.039a.232.232 0 0 1 .236.376l-.288.333a.231.231 0 0 1-.014.443l-.551.148a.237.237 0 0 1-.12-.001ZM129.255 18.063a.232.232 0 0 1-.052-.426l.251-.137a.232.232 0 0 1-.111-.426l.969-.623-.544.146a.232.232 0 0 1-.185-.418l1.042-.668-.61.164a.231.231 0 0 1-.173-.425l.679-.388-.31.083a.231.231 0 0 1-.181-.421l.902-.552-.497.133a.231.231 0 0 1-.183-.42l.991-.625-.568.153a.232.232 0 0 1-.169-.43l.448-.239-.104.03a.232.232 0 0 1-.188-.417l1.108-.733-.663.176a.232.232 0 0 1-.18-.422l.853-.515-.455.122a.231.231 0 0 1-.176-.424l1.321-.768-.889.238a.231.231 0 0 1-.158-.434l.309-.144a.233.233 0 0 1-.275-.149.233.233 0 0 1 .123-.286l.212-.096a.232.232 0 0 1-.089-.43l1.11-.647-.697.186a.23.23 0 0 1-.209-.4l.854-.727-.369.1a.232.232 0 0 1-.208-.402l.219-.181a.234.234 0 0 1-.131-.127.234.234 0 0 1 .001-.182l.202-.465a.231.231 0 0 1-.031-.066.23.23 0 0 1 .165-.283l.127-.034a.232.232 0 0 1 .272.316l-.12.276.335-.09a.232.232 0 0 1 .208.403l-.135.112.339-.09a.232.232 0 0 1 .21.399l-.854.727 1.38-.37a.233.233 0 0 1 .269.137.233.233 0 0 1-.094.287l-1.108.647.877-.235a.231.231 0 0 1 .156.435l-.21.095a.232.232 0 0 1 .072.44l-.309.143a.232.232 0 0 1 .174.424l-1.321.77.362-.098a.232.232 0 0 1 .179.422l-.852.515.457-.123a.232.232 0 0 1 .188.417l-1.107.733.662-.178a.232.232 0 0 1 .169.429l-.448.24.109-.03a.231.231 0 0 1 .184.42l-.992.626.571-.153a.232.232 0 0 1 .181.42l-.903.552.5-.133a.232.232 0 0 1 .174.425l-.68.387.311-.084a.231.231 0 0 1 .184.419l-1.042.667.54-.143a.231.231 0 0 1 .185.418l-.965.623.311-.083a.232.232 0 0 1 .172.43l-.715.39a.231.231 0 0 1-.12.37l-1.117.295a.228.228 0 0 1-.12 0Z" fill="#F2CF7E"/><path d="M134.235 7.025a.232.232 0 0 1-.122-.368l.071-.086-.211.057a.232.232 0 0 1-.232-.38l.109-.119-.286.077a.232.232 0 0 1-.246-.087l-.447-.601a.231.231 0 0 1-.098-.452l.131-.036c.092-.024.19.01.246.086l.445.602.896-.24a.232.232 0 0 1 .231.38l-.108.119.125-.034a.232.232 0 0 1 .242.368l-.167.21a.234.234 0 0 1-.086.405l-.373.1a.233.233 0 0 1-.12 0ZM126.166 17.102a.234.234 0 0 1-.16-.151.234.234 0 0 1 .039-.216l.21-.26-.376.102a.23.23 0 0 1-.206-.404l.426-.347-.468.125a.232.232 0 0 1-.202-.406l.864-.67-.751.2a.233.233 0 0 1-.274-.133.233.233 0 0 1 .095-.29l.619-.368-.369.1a.231.231 0 0 1-.184-.42l.968-.62-.596.16a.231.231 0 0 1-.173-.427l.621-.35-.258.07a.232.232 0 0 1-.178-.423l.778-.46-.393.106a.231.231 0 0 1-.165-.43l.254-.13a.231.231 0 0 1-.125-.426l1.083-.71-.639.172a.23.23 0 0 1-.278-.141.23.23 0 0 1 .116-.29l.204-.102a.23.23 0 0 1-.185-.186.23.23 0 0 1 .107-.239l.88-.536-.478.128a.231.231 0 0 1-.179-.422l.827-.495-.433.115a.232.232 0 0 1-.174-.426l.553-.305-.521.14a.232.232 0 0 1-.183-.42l1.333-.838-1.071.288a.232.232 0 0 1-.157-.434l.262-.122a.232.232 0 0 1-.131-.43l1.189-.692-.766.205a.23.23 0 0 1-.255-.098.23.23 0 0 1 .015-.272l.432-.526a.235.235 0 0 1-.194-.17.23.23 0 0 1 .163-.284l.588-.154c.097-.026.2.013.255.098a.232.232 0 0 1-.016.272l-.412.504 1.74-.466a.232.232 0 0 1 .177.423l-1.188.69.883-.236a.232.232 0 0 1 .157.434l-.262.121a.232.232 0 0 1 .137.427l-1.332.838.875-.234a.232.232 0 0 1 .174.427l-.553.305.199-.053a.232.232 0 0 1 .179.422l-.827.495.434-.116a.232.232 0 0 1 .18.422l-.88.534.478-.128a.232.232 0 0 1 .163.431l-.204.102a.232.232 0 0 1 .084.421l-1.081.707.639-.171a.232.232 0 0 1 .165.428l-.254.13a.232.232 0 0 1 .115.43l-.777.46.391-.106a.232.232 0 0 1 .174.425l-.621.351.258-.07a.232.232 0 0 1 .185.419l-.971.624.543-.146a.232.232 0 0 1 .179.423l-.619.369.246-.066a.232.232 0 0 1 .202.406l-.864.669.403-.108a.232.232 0 0 1 .206.403l-.426.348.02-.005a.232.232 0 0 1 .24.369l-.266.33a.233.233 0 0 1-.038.433l-.474.128a.23.23 0 0 1-.12 0Z" fill="#F2CF7E"/><path d="M126.271 7.512a.23.23 0 0 1-.124-.366l.369-.482-1.379.372a.232.232 0 0 1-.179-.424l.79-.465-.403.107a.231.231 0 0 1-.17-.427l.514-.283-.167.046a.23.23 0 0 1-.239-.078.231.231 0 0 1-.028-.25l.333-.66a.231.231 0 0 1 .07-.416l.261-.07a.233.233 0 0 1 .24.078c.057.07.068.168.027.25l-.284.564 1.536-.412a.231.231 0 0 1 .17.43l-.516.282.171-.046a.232.232 0 0 1 .179.423l-.788.464.407-.109a.231.231 0 0 1 .243.365l-.387.503a.232.232 0 0 1 .207.212.233.233 0 0 1-.172.242l-.562.15a.228.228 0 0 1-.119 0Z" fill="#F2CF7E"/><path d="M129.616 18.093a4.409 4.409 0 0 1-1.438-.005c.458.204.979.205 1.438.005Z" fill="#262626"/><path d="M115.562 17.096c-.42 2.725-.946 5.456-1.265 8.197-.186 1.59.515 2.146 1.948 2.54 2.661.73 5.331 1.428 7.996 2.142l8.229 2.205c1.291.346 2.464.647 3.259-.742 1.335-2.33 2.054-5.287 3.025-7.787l2.702-6.956a.157.157 0 0 0 .012-.03l.002-.009.002-.005a.118.118 0 0 0 .012-.045c-.001-.011-.006-.02-.007-.032l-.004-.015c-.079-.48-.711-.792-1.62-1l1.639-6.116a.126.126 0 0 0 .023-.086c-.112-.837-1.291-1.088-2.081-1.182l.3-1.121a.122.122 0 0 0 .023-.085c-.119-.895-2.19-1.577-2.991-1.165-.341.24-.585.593-.687.997l-1.004-.27.084-.312a.068.068 0 0 0-.014-.063c-.166-.84-1.297-.911-2.077-1.077l.075-.279a.113.113 0 0 0 .021-.08c-.12-.902-2.167-1.577-2.949-1.166a1.255 1.255 0 0 0-.504.606c-.679-.237-1.642-.572-2.156-.202a1.368 1.368 0 0 0-.407.539l-1.039-.279.197-.734a.165.165 0 0 0 .025-.114c-.001-.014-.009-.024-.011-.037a.188.188 0 0 0-.01-.033c-.186-.865-1.515-1.176-2.312-1.201-1.036-.033-1.132.72-1.326 1.558-.42-.14-.855-.23-1.295-.273-.723-.082-.961.071-1.207.705-.71 1.827-1.07 3.87-1.556 5.787-.951-.254-1.693-.236-1.983.299-.279.508-.234 1.511-.323 2.084l-.746 4.837Zm16.79-2.19 1.025-3.826c.075-.28.118-.776.245-1.12.065-.134.154-.256.261-.36a.311.311 0 0 1 .06-.027l1.583.424a.92.92 0 0 1 .174.563l-1.211 4.519a60.714 60.714 0 0 1-.951-.046l-1.186-.127Zm8.465-5.553-1.629 6.075a23.429 23.429 0 0 0-2.119-.223l1.161-4.332c.107-.398.175-1.104.339-1.625.065-.179.151-.349.256-.507.233-.296.212-.172.675-.094.44.072 1.243.178 1.317.706Zm-3.422-3.193c.389-.115 1.601.372 1.664.803a4.788 4.788 0 0 1-.454 1.208.38.38 0 0 1-.064.067.695.695 0 0 0-.232.194.887.887 0 0 0-.166.166 5.012 5.012 0 0 0-.539 1.78 55.783 55.783 0 0 0-.573 2.169c-.279.75-.472 1.53-.575 2.323-.026.098-.052.196-.076.293-.409-.021-.813-.04-1.204-.056l.709-2.647.025-.093c.124-.462.265-.902.361-1.347l.156-.581c.001-.004-.001-.007-.001-.012a.112.112 0 0 0 .013-.035.73.73 0 0 0-.061-.295c0-.036.003-.07.002-.107-.004-.138-.222-.086-.233-.284l.671-2.506v-.009c.131-.506.144-.904.577-1.031Zm-1.902 3.338a6.07 6.07 0 0 0-.611-.143l-.523-.14.602-2.246.979.262c-.215.78-.331 1.684-.449 2.266h.002Zm-1.027-3.283c-.029.107-.056.22-.081.337a.178.178 0 0 0-.027.052l-.623 2.327c-.197.35-.428.317-.682.766-.809 1.433-.993 3.656-1.415 5.274l-.005.008-.001.003-.001.007-.028.103c-.198.633-1.463 3.217-1.958 2.77l3.338-12.458c.605.117 1.413.291 1.483.81Zm-4.002-2.156c.369-.292 1.92.035 2.004.66L129 17.66c-.341.293-1.884-.148-2.014-.622l2.233-8.334.01-.037 1.065-3.975.003-.012.063-.231a.065.065 0 0 0-.011-.045.617.617 0 0 1 .115-.345Zm-6.942 8.028.964-3.597c.05-.19.09-.57.192-.874.137-.251.284-.412.439-.433.01-.001.021-.005.031-.007a3.036 3.036 0 0 1 1.554.645c.029.098.047.2.052.302l-1.296 4.84-1.715-.76-.221-.116Zm6.049-7.58c-.2.61-.283 1.339-.397 1.764l-2.778 10.37a2.717 2.717 0 0 1-.574-1.67v-.13a4.35 4.35 0 0 1 .037-.512l.014-.098c.018-.125.04-.25.065-.372a.772.772 0 0 0 .013-.048c.029-.132.061-.264.095-.392l.306-1.142a32.483 32.483 0 0 0 1.062-3.963l.067-.251c.002-.008-.001-.014 0-.021a.177.177 0 0 0 .012-.045.951.951 0 0 0-.024-.15.091.091 0 0 0 0-.024c-.007-.313-.226-.362-.231-.664l.46-1.714c.376-1.42.626-1.287 1.873-.938Zm-2.532.248a15.293 15.293 0 0 0-.492 2.31c-.257-.07-.526-.116-.756-.178-.127-.034-.25-.067-.371-.096l.618-2.304 1.001.268Zm-3.545-.695c-.013-.212-.204-1.254.358-1.484.371-.15 1.717.432 1.783.784l-.696 2.595c-.211.789-.326.658-.644 1.03-.019.02-.037.044-.055.068a4.065 4.065 0 0 0-.117.158 3.86 3.86 0 0 0-.429 1.36c-.09.426-.166.857-.265 1.228l-.526 1.964a76.01 76.01 0 0 0-1.021-.523c.03-.145.045-.36.09-.528l1.222-4.564c.054-.2.103-.381.143-.553l.278-1.035a.073.073 0 0 0-.024-.072.824.824 0 0 0-.091-.245 3.796 3.796 0 0 0-.006-.182V4.06Zm-3.585 3.591c.296-1.104.463-2.383.92-3.431.185-.426.03-.445.533-.461a2.068 2.068 0 0 1 1.447.561c.05.122.075.254.072.386l-.83 3.097c-.017.055-.033.104-.043.144l-.795 2.965a19.385 19.385 0 0 0-2.043-.865c.032-.662.62-1.95.739-2.396Zm-1.587 2.687c.181.068.36.145.54.218l1.154.512c.368.17.734.34 1.099.507a.308.308 0 0 0 .128.098l1.677.745a.36.36 0 0 0 .037.022l2.346 1.04a.175.175 0 0 0 .007.04l-.001.004c-.002.014-.001.029 0 .043-.21.232-.226.941-.191 1.493a.779.779 0 0 0-.002.108 4.22 4.22 0 0 0 .079.549l.007.024c.055.268.154.525.292.76a3.848 3.848 0 0 0 2.685 1.587 2.91 2.91 0 0 1-.299-.138c.457.107.923.166 1.392.175a.588.588 0 0 0 .279-.066c.085-.018.169-.039.251-.06a2.104 2.104 0 0 1-.186.093c.216-.036.427-.094.631-.173a3.093 3.093 0 0 0 1.651-1.668c.112-.24.203-.488.271-.743.012-.042.028-.083.042-.126a.176.176 0 0 0 .031-.052l.018-.065c.028.008.053.012.063.013.206.035.613.069 1.14.102l1.105.118a.41.41 0 0 0 .104.028l1.84.195.025.007 2.797.298c.094.01.189.001.281-.023.683.154 1.135.345 1.17.589l-2.869 7.384-1.918 4.939c-.283.73-.484 1.848-.962 2.476-.884 1.163-2.026.502-3.125.207l-14.868-3.984c-1.123-.3-1.905-.408-2.119-1.892-.134-.931.353-2.29.495-3.212.553-3.57 1.105-7.14 1.655-10.71.187-1.211-.083-1.957 1.248-1.462Z" fill="#262626"/><path d="M122.941 22.407c-.838 3.664 5.413 5.143 6.861 1.887l3.256.872c.361.097.626-.314.184-.433l-3.304-.885c.554-3.665-5.685-5.19-6.894-1.8l-3.141-.841c-.239-.064-.786.173-.351.29l3.389.91Zm6.286 1.56c-1.108 3.162-6.425 1.604-5.559-1.626.884-3.296 6.165-1.599 5.558 1.627l.001-.002ZM116.89 26.079l.895.24c.16.057.338.032.475-.068.107-.112-.004-.225-.123-.256l-.895-.24a.514.514 0 0 0-.475.067c-.107.111.003.225.123.257ZM131.978 29.895c-.104.113.002.232.125.265l.895.24c.16.059.339.032.475-.07.105-.112-.002-.232-.125-.265l-.894-.24a.506.506 0 0 0-.476.07ZM119.926 26.487c-.243-.065-.787.18-.351.298l10.738 2.877c.242.065.787-.18.352-.298l-10.739-2.877Z" fill="#262626"/></svg>