<svg width="251" height="70" viewBox="0 0 251 70" fill="none" xmlns="http://www.w3.org/2000/svg">
<path d="M0 0H251V70H0V0Z" fill="#3B2186"/>
<path d="M81.744 20.228L78.16 30H75.78L72.196 20.228H74.296L76.984 27.998L79.658 20.228H81.744ZM83.9131 21.32C83.5678 21.32 83.2785 21.2127 83.0451 20.998C82.8211 20.774 82.7091 20.4987 82.7091 20.172C82.7091 19.8453 82.8211 19.5747 83.0451 19.36C83.2785 19.136 83.5678 19.024 83.9131 19.024C84.2585 19.024 84.5431 19.136 84.7671 19.36C85.0005 19.5747 85.1171 19.8453 85.1171 20.172C85.1171 20.4987 85.0005 20.774 84.7671 20.998C84.5431 21.2127 84.2585 21.32 83.9131 21.32ZM84.8791 22.244V30H82.9191V22.244H84.8791ZM86.3116 26.094C86.3116 25.31 86.4656 24.6147 86.7736 24.008C87.0909 23.4013 87.5203 22.9347 88.0616 22.608C88.6029 22.2813 89.2049 22.118 89.8676 22.118C90.3716 22.118 90.8523 22.23 91.3096 22.454C91.7669 22.6687 92.1309 22.958 92.4016 23.322V19.64H94.3896V30H92.4016V28.852C92.1589 29.2347 91.8183 29.5427 91.3796 29.776C90.9409 30.0093 90.4323 30.126 89.8536 30.126C89.2003 30.126 88.6029 29.958 88.0616 29.622C87.5203 29.286 87.0909 28.8147 86.7736 28.208C86.4656 27.592 86.3116 26.8873 86.3116 26.094ZM92.4156 26.122C92.4156 25.646 92.3223 25.24 92.1356 24.904C91.9489 24.5587 91.6969 24.2973 91.3796 24.12C91.0623 23.9333 90.7216 23.84 90.3576 23.84C89.9936 23.84 89.6576 23.9287 89.3496 24.106C89.0416 24.2833 88.7896 24.5447 88.5936 24.89C88.4069 25.226 88.3136 25.6273 88.3136 26.094C88.3136 26.5607 88.4069 26.9713 88.5936 27.326C88.7896 27.6713 89.0416 27.9373 89.3496 28.124C89.6669 28.3107 90.0029 28.404 90.3576 28.404C90.7216 28.404 91.0623 28.3153 91.3796 28.138C91.6969 27.9513 91.9489 27.69 92.1356 27.354C92.3223 27.0087 92.4156 26.598 92.4156 26.122ZM103.514 25.954C103.514 26.234 103.495 26.486 103.458 26.71H97.7879C97.8346 27.27 98.0306 27.7087 98.3759 28.026C98.7212 28.3433 99.1459 28.502 99.6499 28.502C100.378 28.502 100.896 28.1893 101.204 27.564H103.318C103.094 28.3107 102.665 28.9267 102.03 29.412C101.395 29.888 100.616 30.126 99.6919 30.126C98.9452 30.126 98.2732 29.9627 97.6759 29.636C97.0879 29.3 96.6259 28.8287 96.2899 28.222C95.9632 27.6153 95.7999 26.9153 95.7999 26.122C95.7999 25.3193 95.9632 24.6147 96.2899 24.008C96.6166 23.4013 97.0739 22.9347 97.6619 22.608C98.2499 22.2813 98.9266 22.118 99.6919 22.118C100.429 22.118 101.087 22.2767 101.666 22.594C102.254 22.9113 102.707 23.364 103.024 23.952C103.351 24.5307 103.514 25.198 103.514 25.954ZM101.484 25.394C101.475 24.89 101.293 24.4887 100.938 24.19C100.583 23.882 100.149 23.728 99.6359 23.728C99.1506 23.728 98.7399 23.8773 98.4039 24.176C98.0772 24.4653 97.8766 24.8713 97.8019 25.394H101.484ZM108.389 30.126C107.642 30.126 106.97 29.9627 106.373 29.636C105.775 29.3 105.304 28.8287 104.959 28.222C104.623 27.6153 104.455 26.9153 104.455 26.122C104.455 25.3287 104.627 24.6287 104.973 24.022C105.327 23.4153 105.808 22.9487 106.415 22.622C107.021 22.286 107.698 22.118 108.445 22.118C109.191 22.118 109.868 22.286 110.475 22.622C111.081 22.9487 111.557 23.4153 111.903 24.022C112.257 24.6287 112.435 25.3287 112.435 26.122C112.435 26.9153 112.253 27.6153 111.889 28.222C111.534 28.8287 111.049 29.3 110.433 29.636C109.826 29.9627 109.145 30.126 108.389 30.126ZM108.389 28.418C108.743 28.418 109.075 28.334 109.383 28.166C109.7 27.9887 109.952 27.7273 110.139 27.382C110.325 27.0367 110.419 26.6167 110.419 26.122C110.419 25.3847 110.223 24.82 109.831 24.428C109.448 24.0267 108.977 23.826 108.417 23.826C107.857 23.826 107.385 24.0267 107.003 24.428C106.629 24.82 106.443 25.3847 106.443 26.122C106.443 26.8593 106.625 27.4287 106.989 27.83C107.362 28.222 107.829 28.418 108.389 28.418ZM124.334 23.252C124.334 23.7747 124.208 24.2647 123.956 24.722C123.714 25.1793 123.326 25.548 122.794 25.828C122.272 26.108 121.609 26.248 120.806 26.248H119.168V30H117.208V20.228H120.806C121.562 20.228 122.206 20.3587 122.738 20.62C123.27 20.8813 123.667 21.2407 123.928 21.698C124.199 22.1553 124.334 22.6733 124.334 23.252ZM120.722 24.666C121.264 24.666 121.665 24.5447 121.926 24.302C122.188 24.05 122.318 23.7 122.318 23.252C122.318 22.3 121.786 21.824 120.722 21.824H119.168V24.666H120.722ZM127.686 23.448C127.938 23.0373 128.264 22.7153 128.666 22.482C129.076 22.2487 129.543 22.132 130.066 22.132V24.19H129.548C128.932 24.19 128.465 24.3347 128.148 24.624C127.84 24.9133 127.686 25.4173 127.686 26.136V30H125.726V22.244H127.686V23.448ZM138.596 25.954C138.596 26.234 138.577 26.486 138.54 26.71H132.87C132.917 27.27 133.113 27.7087 133.458 28.026C133.803 28.3433 134.228 28.502 134.732 28.502C135.46 28.502 135.978 28.1893 136.286 27.564H138.4C138.176 28.3107 137.747 28.9267 137.112 29.412C136.477 29.888 135.698 30.126 134.774 30.126C134.027 30.126 133.355 29.9627 132.758 29.636C132.17 29.3 131.708 28.8287 131.372 28.222C131.045 27.6153 130.882 26.9153 130.882 26.122C130.882 25.3193 131.045 24.6147 131.372 24.008C131.699 23.4013 132.156 22.9347 132.744 22.608C133.332 22.2813 134.009 22.118 134.774 22.118C135.511 22.118 136.169 22.2767 136.748 22.594C137.336 22.9113 137.789 23.364 138.106 23.952C138.433 24.5307 138.596 25.198 138.596 25.954ZM136.566 25.394C136.557 24.89 136.375 24.4887 136.02 24.19C135.665 23.882 135.231 23.728 134.718 23.728C134.233 23.728 133.822 23.8773 133.486 24.176C133.159 24.4653 132.959 24.8713 132.884 25.394H136.566ZM142.995 30.126C142.36 30.126 141.791 30.014 141.287 29.79C140.783 29.5567 140.381 29.244 140.083 28.852C139.793 28.46 139.635 28.026 139.607 27.55H141.581C141.618 27.8487 141.763 28.096 142.015 28.292C142.276 28.488 142.598 28.586 142.981 28.586C143.354 28.586 143.643 28.5113 143.849 28.362C144.063 28.2127 144.171 28.0213 144.171 27.788C144.171 27.536 144.04 27.3493 143.779 27.228C143.527 27.0973 143.121 26.9573 142.561 26.808C141.982 26.668 141.506 26.5233 141.133 26.374C140.769 26.2247 140.451 25.996 140.181 25.688C139.919 25.38 139.789 24.9647 139.789 24.442C139.789 24.0127 139.91 23.6207 140.153 23.266C140.405 22.9113 140.759 22.6313 141.217 22.426C141.683 22.2207 142.229 22.118 142.855 22.118C143.779 22.118 144.516 22.3513 145.067 22.818C145.617 23.2753 145.921 23.896 145.977 24.68H144.101C144.073 24.372 143.942 24.1293 143.709 23.952C143.485 23.7653 143.181 23.672 142.799 23.672C142.444 23.672 142.169 23.7373 141.973 23.868C141.786 23.9987 141.693 24.1807 141.693 24.414C141.693 24.6753 141.823 24.876 142.085 25.016C142.346 25.1467 142.752 25.282 143.303 25.422C143.863 25.562 144.325 25.7067 144.689 25.856C145.053 26.0053 145.365 26.2387 145.627 26.556C145.897 26.864 146.037 27.2747 146.047 27.788C146.047 28.236 145.921 28.6373 145.669 28.992C145.426 29.3467 145.071 29.6267 144.605 29.832C144.147 30.028 143.611 30.126 142.995 30.126ZM154.865 25.954C154.865 26.234 154.847 26.486 154.809 26.71H149.139C149.186 27.27 149.382 27.7087 149.727 28.026C150.073 28.3433 150.497 28.502 151.001 28.502C151.729 28.502 152.247 28.1893 152.555 27.564H154.669C154.445 28.3107 154.016 28.9267 153.381 29.412C152.747 29.888 151.967 30.126 151.043 30.126C150.297 30.126 149.625 29.9627 149.027 29.636C148.439 29.3 147.977 28.8287 147.641 28.222C147.315 27.6153 147.151 26.9153 147.151 26.122C147.151 25.3193 147.315 24.6147 147.641 24.008C147.968 23.4013 148.425 22.9347 149.013 22.608C149.601 22.2813 150.278 22.118 151.043 22.118C151.781 22.118 152.439 22.2767 153.017 22.594C153.605 22.9113 154.058 23.364 154.375 23.952C154.702 24.5307 154.865 25.198 154.865 25.954ZM152.835 25.394C152.826 24.89 152.644 24.4887 152.289 24.19C151.935 23.882 151.501 23.728 150.987 23.728C150.502 23.728 150.091 23.8773 149.755 24.176C149.429 24.4653 149.228 24.8713 149.153 25.394H152.835ZM160.594 22.132C161.518 22.132 162.265 22.426 162.834 23.014C163.403 23.5927 163.688 24.4047 163.688 25.45V30H161.728V25.716C161.728 25.1 161.574 24.6287 161.266 24.302C160.958 23.966 160.538 23.798 160.006 23.798C159.465 23.798 159.035 23.966 158.718 24.302C158.41 24.6287 158.256 25.1 158.256 25.716V30H156.296V22.244H158.256V23.21C158.517 22.874 158.849 22.6127 159.25 22.426C159.661 22.23 160.109 22.132 160.594 22.132ZM167.834 23.854V27.606C167.834 27.8673 167.895 28.0587 168.016 28.18C168.147 28.292 168.361 28.348 168.66 28.348H169.57V30H168.338C166.686 30 165.86 29.1973 165.86 27.592V23.854H164.936V22.244H165.86V20.326H167.834V22.244H169.57V23.854H167.834ZM170.476 26.094C170.476 25.31 170.63 24.6147 170.938 24.008C171.255 23.4013 171.68 22.9347 172.212 22.608C172.753 22.2813 173.355 22.118 174.018 22.118C174.596 22.118 175.1 22.2347 175.53 22.468C175.968 22.7013 176.318 22.9953 176.58 23.35V22.244H178.554V30H176.58V28.866C176.328 29.23 175.978 29.5333 175.53 29.776C175.091 30.0093 174.582 30.126 174.004 30.126C173.35 30.126 172.753 29.958 172.212 29.622C171.68 29.286 171.255 28.8147 170.938 28.208C170.63 27.592 170.476 26.8873 170.476 26.094ZM176.58 26.122C176.58 25.646 176.486 25.24 176.3 24.904C176.113 24.5587 175.861 24.2973 175.544 24.12C175.226 23.9333 174.886 23.84 174.522 23.84C174.158 23.84 173.822 23.9287 173.514 24.106C173.206 24.2833 172.954 24.5447 172.758 24.89C172.571 25.226 172.478 25.6273 172.478 26.094C172.478 26.5607 172.571 26.9713 172.758 27.326C172.954 27.6713 173.206 27.9373 173.514 28.124C173.831 28.3107 174.167 28.404 174.522 28.404C174.886 28.404 175.226 28.3153 175.544 28.138C175.861 27.9513 176.113 27.69 176.3 27.354C176.486 27.0087 176.58 26.598 176.58 26.122ZM182.75 23.854V27.606C182.75 27.8673 182.811 28.0587 182.932 28.18C183.063 28.292 183.277 28.348 183.576 28.348H184.486V30H183.254C181.602 30 180.776 29.1973 180.776 27.592V23.854H179.852V22.244H180.776V20.326H182.75V22.244H184.486V23.854H182.75ZM186.89 21.32C186.544 21.32 186.255 21.2127 186.022 20.998C185.798 20.774 185.686 20.4987 185.686 20.172C185.686 19.8453 185.798 19.5747 186.022 19.36C186.255 19.136 186.544 19.024 186.89 19.024C187.235 19.024 187.52 19.136 187.744 19.36C187.977 19.5747 188.094 19.8453 188.094 20.172C188.094 20.4987 187.977 20.774 187.744 20.998C187.52 21.2127 187.235 21.32 186.89 21.32ZM187.856 22.244V30H185.896V22.244H187.856ZM193.236 30.126C192.49 30.126 191.818 29.9627 191.22 29.636C190.623 29.3 190.152 28.8287 189.806 28.222C189.47 27.6153 189.302 26.9153 189.302 26.122C189.302 25.3287 189.475 24.6287 189.82 24.022C190.175 23.4153 190.656 22.9487 191.262 22.622C191.869 22.286 192.546 22.118 193.292 22.118C194.039 22.118 194.716 22.286 195.322 22.622C195.929 22.9487 196.405 23.4153 196.75 24.022C197.105 24.6287 197.282 25.3287 197.282 26.122C197.282 26.9153 197.1 27.6153 196.736 28.222C196.382 28.8287 195.896 29.3 195.28 29.636C194.674 29.9627 193.992 30.126 193.236 30.126ZM193.236 28.418C193.591 28.418 193.922 28.334 194.23 28.166C194.548 27.9887 194.8 27.7273 194.986 27.382C195.173 27.0367 195.266 26.6167 195.266 26.122C195.266 25.3847 195.07 24.82 194.678 24.428C194.296 24.0267 193.824 23.826 193.264 23.826C192.704 23.826 192.233 24.0267 191.85 24.428C191.477 24.82 191.29 25.3847 191.29 26.122C191.29 26.8593 191.472 27.4287 191.836 27.83C192.21 28.222 192.676 28.418 193.236 28.418ZM203.018 22.132C203.942 22.132 204.689 22.426 205.258 23.014C205.827 23.5927 206.112 24.4047 206.112 25.45V30H204.152V25.716C204.152 25.1 203.998 24.6287 203.69 24.302C203.382 23.966 202.962 23.798 202.43 23.798C201.889 23.798 201.459 23.966 201.142 24.302C200.834 24.6287 200.68 25.1 200.68 25.716V30H198.72V22.244H200.68V23.21C200.941 22.874 201.273 22.6127 201.674 22.426C202.085 22.23 202.533 22.132 203.018 22.132Z" fill="white"/>
<path opacity="0.6" d="M72.532 45.04V43.878H75.164V54H73.876V45.04H72.532ZM77.9684 54.084C77.7257 54.084 77.5204 54 77.3524 53.832C77.1844 53.664 77.1004 53.4587 77.1004 53.216C77.1004 52.9733 77.1844 52.768 77.3524 52.6C77.5204 52.432 77.7257 52.348 77.9684 52.348C78.2017 52.348 78.3977 52.432 78.5564 52.6C78.7244 52.768 78.8084 52.9733 78.8084 53.216C78.8084 53.4587 78.7244 53.664 78.5564 53.832C78.3977 54 78.2017 54.084 77.9684 54.084ZM77.9684 48.092C77.7257 48.092 77.5204 48.008 77.3524 47.84C77.1844 47.672 77.1004 47.4667 77.1004 47.224C77.1004 46.9813 77.1844 46.776 77.3524 46.608C77.5204 46.44 77.7257 46.356 77.9684 46.356C78.2017 46.356 78.3977 46.44 78.5564 46.608C78.7244 46.776 78.8084 46.9813 78.8084 47.224C78.8084 47.4667 78.7244 47.672 78.5564 47.84C78.3977 48.008 78.2017 48.092 77.9684 48.092ZM80.3328 48.834C80.3328 47.2287 80.5942 45.978 81.1168 45.082C81.6395 44.1767 82.5542 43.724 83.8608 43.724C85.1582 43.724 86.0682 44.1767 86.5908 45.082C87.1135 45.978 87.3748 47.2287 87.3748 48.834C87.3748 50.4673 87.1135 51.7367 86.5908 52.642C86.0682 53.5473 85.1582 54 83.8608 54C82.5542 54 81.6395 53.5473 81.1168 52.642C80.5942 51.7367 80.3328 50.4673 80.3328 48.834ZM86.1148 48.834C86.1148 48.022 86.0588 47.336 85.9468 46.776C85.8442 46.2067 85.6248 45.7493 85.2888 45.404C84.9622 45.0587 84.4862 44.886 83.8608 44.886C83.2262 44.886 82.7408 45.0587 82.4048 45.404C82.0782 45.7493 81.8588 46.2067 81.7468 46.776C81.6442 47.336 81.5928 48.022 81.5928 48.834C81.5928 49.674 81.6442 50.3787 81.7468 50.948C81.8588 51.5173 82.0782 51.9747 82.4048 52.32C82.7408 52.6653 83.2262 52.838 83.8608 52.838C84.4862 52.838 84.9622 52.6653 85.2888 52.32C85.6248 51.9747 85.8442 51.5173 85.9468 50.948C86.0588 50.3787 86.1148 49.674 86.1148 48.834ZM89.1239 48.834C89.1239 47.2287 89.3852 45.978 89.9079 45.082C90.4305 44.1767 91.3452 43.724 92.6519 43.724C93.9492 43.724 94.8592 44.1767 95.3819 45.082C95.9045 45.978 96.1659 47.2287 96.1659 48.834C96.1659 50.4673 95.9045 51.7367 95.3819 52.642C94.8592 53.5473 93.9492 54 92.6519 54C91.3452 54 90.4305 53.5473 89.9079 52.642C89.3852 51.7367 89.1239 50.4673 89.1239 48.834ZM94.9059 48.834C94.9059 48.022 94.8499 47.336 94.7379 46.776C94.6352 46.2067 94.4159 45.7493 94.0799 45.404C93.7532 45.0587 93.2772 44.886 92.6519 44.886C92.0172 44.886 91.5319 45.0587 91.1959 45.404C90.8692 45.7493 90.6499 46.2067 90.5379 46.776C90.4352 47.336 90.3839 48.022 90.3839 48.834C90.3839 49.674 90.4352 50.3787 90.5379 50.948C90.6499 51.5173 90.8692 51.9747 91.1959 52.32C91.5319 52.6653 92.0172 52.838 92.6519 52.838C93.2772 52.838 93.7532 52.6653 94.0799 52.32C94.4159 51.9747 94.6352 51.5173 94.7379 50.948C94.8499 50.3787 94.9059 49.674 94.9059 48.834Z" fill="white"/>
<path fill-rule="evenodd" clip-rule="evenodd" d="M36 57C47.0457 57 56 48.0457 56 37C56 25.9543 47.0457 17 36 17C24.9543 17 16 25.9543 16 37C16 48.0457 24.9543 57 36 57Z" fill="white"/>
</svg>
