<svg width="139" height="52" viewBox="0 0 139 52" fill="none" xmlns="http://www.w3.org/2000/svg">
<path d="M0 26C0 11.6406 11.6406 0 26 0H113C127.359 0 139 11.6406 139 26C139 40.3594 127.359 52 113 52H26C11.6406 52 0 40.3594 0 26Z" fill="#6053B1"/>
<path d="M27.6667 30C27.6667 30.3667 27.9667 30.6667 28.3333 30.6667H29V33C29 33.5533 29.4467 34 30 34C30.5533 34 31 33.5533 31 33V30.6667H32.3333V33C32.3333 33.5533 32.78 34 33.3333 34C33.8867 34 34.3333 33.5533 34.3333 33V30.6667H35C35.3667 30.6667 35.6667 30.3667 35.6667 30V23.3333H27.6667V30ZM26 23.3333C25.4467 23.3333 25 23.78 25 24.3333V29C25 29.5533 25.4467 30 26 30C26.5533 30 27 29.5533 27 29V24.3333C27 23.78 26.5533 23.3333 26 23.3333ZM37.3333 23.3333C36.78 23.3333 36.3333 23.78 36.3333 24.3333V29C36.3333 29.5533 36.78 30 37.3333 30C37.8867 30 38.3333 29.5533 38.3333 29V24.3333C38.3333 23.78 37.8867 23.3333 37.3333 23.3333ZM34.02 19.44L34.8867 18.5733C35.02 18.44 35.02 18.2333 34.8867 18.1C34.7533 17.9667 34.5467 17.9667 34.4133 18.1L33.4267 19.0867C32.8811 18.8104 32.2782 18.6665 31.6667 18.6667C31.0267 18.6667 30.4267 18.82 29.8933 19.0867L28.9 18.1C28.7667 17.9667 28.56 17.9667 28.4267 18.1C28.2933 18.2333 28.2933 18.44 28.4267 18.5733L29.3 19.4467C28.7937 19.8171 28.3819 20.3018 28.0981 20.8613C27.8143 21.4208 27.6665 22.0393 27.6667 22.6667H35.6667C35.6667 21.34 35.02 20.1667 34.02 19.44ZM30.3333 21.3333H29.6667V20.6667H30.3333V21.3333ZM33.6667 21.3333H33V20.6667H33.6667V21.3333Z" fill="white"/>
<path d="M58.0603 29.728H53.5323L52.7323 32H50.3483L54.5083 20.832H57.0843L61.2283 32H58.8443L58.0603 29.728ZM57.4523 28.016L55.7883 23.248L54.1243 28.016H57.4523ZM67.7259 23.008C68.7499 23.008 69.5659 23.344 70.1739 24.016C70.7819 24.688 71.0859 25.632 71.0859 26.848V32H68.8459V27.104C68.8459 26.4 68.6645 25.856 68.3019 25.472C67.9392 25.0773 67.4432 24.88 66.8139 24.88C66.1739 24.88 65.6619 25.088 65.2779 25.504C64.8939 25.92 64.7019 26.5173 64.7019 27.296V32H62.4459V23.136H64.7019V24.912C64.9365 24.3147 65.3205 23.8507 65.8539 23.52C66.3979 23.1787 67.0219 23.008 67.7259 23.008ZM76.5429 23.024C77.2895 23.024 77.9242 23.2 78.4469 23.552C78.9802 23.904 79.3642 24.3787 79.5989 24.976V20.16H81.8389V32H79.5989V30.144C79.3642 30.7413 78.9802 31.2213 78.4469 31.584C77.9242 31.936 77.2895 32.112 76.5429 32.112C75.7962 32.112 75.1242 31.9307 74.5269 31.568C73.9295 31.2053 73.4602 30.6827 73.1189 30C72.7882 29.3067 72.6229 28.496 72.6229 27.568C72.6229 26.64 72.7882 25.8347 73.1189 25.152C73.4602 24.4587 73.9295 23.9307 74.5269 23.568C75.1242 23.2053 75.7962 23.024 76.5429 23.024ZM77.2469 24.992C76.5429 24.992 75.9775 25.2213 75.5509 25.68C75.1242 26.1387 74.9109 26.768 74.9109 27.568C74.9109 28.368 75.1242 28.9973 75.5509 29.456C75.9775 29.904 76.5429 30.128 77.2469 30.128C77.9295 30.128 78.4895 29.8987 78.9269 29.44C79.3749 28.9707 79.5989 28.3467 79.5989 27.568C79.5989 26.7787 79.3749 26.1547 78.9269 25.696C78.4895 25.2267 77.9295 24.992 77.2469 24.992ZM86.1394 24.832C86.47 24.2667 86.9074 23.824 87.4514 23.504C87.9954 23.1733 88.6034 23.008 89.2754 23.008V25.424H88.6194C86.966 25.424 86.1394 26.192 86.1394 27.728V32H83.8834V23.136H86.1394V24.832ZM94.62 23.024C95.484 23.024 96.2573 23.2053 96.94 23.568C97.6333 23.9307 98.1773 24.4587 98.572 25.152C98.9667 25.8347 99.164 26.64 99.164 27.568C99.164 28.496 98.9667 29.3013 98.572 29.984C98.1773 30.6667 97.6333 31.1947 96.94 31.568C96.2573 31.9307 95.484 32.112 94.62 32.112C93.756 32.112 92.9773 31.9307 92.284 31.568C91.6013 31.1947 91.0627 30.6667 90.668 29.984C90.2733 29.3013 90.076 28.496 90.076 27.568C90.076 26.64 90.2733 25.8347 90.668 25.152C91.0627 24.4587 91.6013 23.9307 92.284 23.568C92.9773 23.2053 93.756 23.024 94.62 23.024ZM94.62 24.976C93.9907 24.976 93.4573 25.2 93.02 25.648C92.5827 26.0853 92.364 26.7253 92.364 27.568C92.364 28.4107 92.5827 29.056 93.02 29.504C93.4573 29.9413 93.9907 30.16 94.62 30.16C95.2493 30.16 95.7827 29.9413 96.22 29.504C96.6573 29.056 96.876 28.4107 96.876 27.568C96.876 26.7253 96.6573 26.0853 96.22 25.648C95.7827 25.2 95.2493 24.976 94.62 24.976ZM100.502 20.592C100.502 20.2293 100.63 19.936 100.886 19.712C101.142 19.4773 101.478 19.36 101.894 19.36C102.31 19.36 102.646 19.4773 102.902 19.712C103.158 19.936 103.286 20.2293 103.286 20.592C103.286 20.944 103.158 21.2373 102.902 21.472C102.646 21.696 102.31 21.808 101.894 21.808C101.478 21.808 101.142 21.696 100.886 21.472C100.63 21.2373 100.502 20.944 100.502 20.592ZM103.014 23.136V32H100.758V23.136H103.014ZM108.527 23.024C109.274 23.024 109.909 23.2 110.431 23.552C110.965 23.904 111.349 24.3787 111.583 24.976V20.16H113.823V32H111.583V30.144C111.349 30.7413 110.965 31.2213 110.431 31.584C109.909 31.936 109.274 32.112 108.527 32.112C107.781 32.112 107.109 31.9307 106.511 31.568C105.914 31.2053 105.445 30.6827 105.103 30C104.773 29.3067 104.607 28.496 104.607 27.568C104.607 26.64 104.773 25.8347 105.103 25.152C105.445 24.4587 105.914 23.9307 106.511 23.568C107.109 23.2053 107.781 23.024 108.527 23.024ZM109.231 24.992C108.527 24.992 107.962 25.2213 107.535 25.68C107.109 26.1387 106.895 26.768 106.895 27.568C106.895 28.368 107.109 28.9973 107.535 29.456C107.962 29.904 108.527 30.128 109.231 30.128C109.914 30.128 110.474 29.8987 110.911 29.44C111.359 28.9707 111.583 28.3467 111.583 27.568C111.583 26.7787 111.359 26.1547 110.911 25.696C110.474 25.2267 109.914 24.992 109.231 24.992Z" fill="white"/>
</svg>
