<svg width="44" height="44" viewBox="0 0 44 44" fill="none" xmlns="http://www.w3.org/2000/svg">
<path d="M21.9658 20.881C21.8851 20.881 21.8066 20.8543 21.7426 20.8052C21.6785 20.7561 21.6325 20.6872 21.6116 20.6092C21.5907 20.5313 21.5961 20.4486 21.627 20.374C21.6579 20.2994 21.7125 20.2371 21.7824 20.1968L37.8168 10.9392C37.8989 10.8915 37.9964 10.8776 38.0886 10.9003C38.1808 10.9231 38.2606 10.9807 38.3112 11.0611C38.3618 11.1415 38.3792 11.2384 38.3597 11.3314C38.3403 11.4244 38.2855 11.5062 38.2069 11.5596L32.8154 15.2263L38.358 12.0267C38.4395 11.9795 38.536 11.9654 38.6276 11.9874C38.7192 12.0094 38.7988 12.0658 38.8499 12.145C38.901 12.2241 38.9197 12.3198 38.9021 12.4124C38.8845 12.5049 38.832 12.5871 38.7554 12.642L33.3823 16.5001L38.8882 13.3218C38.9702 13.2749 39.0672 13.2615 39.1589 13.2843C39.2505 13.3072 39.3299 13.3646 39.3803 13.4445C39.4307 13.5244 39.4483 13.6207 39.4294 13.7133C39.4106 13.8059 39.3567 13.8876 39.279 13.9415L36.8803 15.5944L39.2079 14.2509C39.2896 14.2057 39.3854 14.1933 39.4759 14.2163C39.5664 14.2394 39.6447 14.296 39.6948 14.3748C39.745 14.4536 39.7632 14.5485 39.7457 14.6402C39.7283 14.7319 39.6765 14.8135 39.601 14.8684L38.0881 15.9244L39.4631 15.1309C39.5443 15.084 39.6404 15.07 39.7316 15.0918C39.8228 15.1135 39.9022 15.1694 39.9535 15.2479C40.0048 15.3264 40.024 15.4216 40.0073 15.5139C39.9906 15.6061 39.9391 15.6885 39.8635 15.744L38.3536 16.8528L39.6897 16.0821C39.7683 16.038 39.8603 16.0244 39.9482 16.0438C40.0361 16.0633 40.1139 16.1144 40.1665 16.1874C40.2192 16.2605 40.2431 16.3504 40.2338 16.44C40.2244 16.5295 40.1824 16.6125 40.1158 16.6731L38.193 18.3767L39.9207 17.3801C39.9933 17.338 40.078 17.3221 40.1609 17.335C40.2438 17.3479 40.3197 17.3888 40.3761 17.4509C40.4324 17.513 40.4658 17.5925 40.4706 17.6763C40.4754 17.76 40.4514 17.8428 40.4025 17.911L39.3758 19.3468L40.0556 18.9552C40.0974 18.9287 40.144 18.9109 40.1928 18.9029C40.2416 18.8949 40.2915 18.8968 40.3396 18.9085C40.3876 18.9203 40.4328 18.9417 40.4723 18.9713C40.5119 19.001 40.545 19.0384 40.5698 19.0812C40.5945 19.124 40.6104 19.1714 40.6163 19.2205C40.6223 19.2696 40.6183 19.3194 40.6045 19.3668C40.5907 19.4143 40.5675 19.4586 40.5362 19.4968C40.5049 19.5351 40.4661 19.5667 40.4223 19.5896L38.2714 20.8267C38.199 20.8681 38.1145 20.8835 38.0321 20.8704C37.9497 20.8572 37.8743 20.8164 37.8182 20.7546C37.7621 20.6928 37.7288 20.6138 37.7237 20.5305C37.7187 20.4472 37.7422 20.3646 37.7904 20.2965L38.817 18.8607L35.4114 20.8267C35.3329 20.8708 35.2409 20.8844 35.1529 20.8649C35.065 20.8455 34.9873 20.7944 34.9346 20.7213C34.882 20.6483 34.858 20.5584 34.8674 20.4688C34.8767 20.3792 34.9187 20.2962 34.9854 20.2356L36.9074 18.5328L32.9342 20.8267C32.853 20.8736 32.7569 20.8876 32.6657 20.8659C32.5745 20.8441 32.4951 20.7882 32.4438 20.7097C32.3925 20.6312 32.3733 20.536 32.39 20.4438C32.4068 20.3515 32.4582 20.2691 32.5338 20.2136L34.0489 19.1034L31.0598 20.8267C30.9782 20.8719 30.8823 20.8843 30.7918 20.8613C30.7013 20.8383 30.623 20.7816 30.5729 20.7028C30.5228 20.6241 30.5046 20.5292 30.522 20.4374C30.5395 20.3457 30.5912 20.2641 30.6668 20.2092L32.1745 19.1569L29.2815 20.8267C29.1996 20.8718 29.1037 20.8839 29.0132 20.8606C28.9227 20.8373 28.8445 20.7803 28.7946 20.7013C28.7447 20.6223 28.7268 20.5272 28.7447 20.4355C28.7625 20.3438 28.8147 20.2623 28.8906 20.2078L31.2908 18.5534L27.3536 20.8267C27.2721 20.874 27.1755 20.888 27.084 20.866C26.9924 20.844 26.9128 20.7876 26.8617 20.7085C26.8106 20.6294 26.7919 20.5336 26.8094 20.4411C26.827 20.3485 26.8795 20.2663 26.9561 20.2114L32.327 16.3534L24.5801 20.8267C24.4981 20.8723 24.4018 20.8847 24.3109 20.8615C24.2201 20.8382 24.1416 20.781 24.0916 20.7016C24.0416 20.6222 24.024 20.5267 24.0423 20.4347C24.0606 20.3427 24.1134 20.2613 24.19 20.207L29.58 16.5404L22.1469 20.8311C22.0919 20.8632 22.0295 20.8804 21.9658 20.881V20.881Z" fill="#3B2186"/>
<path d="M18.6265 40.582C18.5584 40.582 18.4916 40.563 18.4337 40.5272C18.3758 40.4914 18.329 40.4402 18.2985 40.3793C18.2681 40.3184 18.2552 40.2502 18.2613 40.1824C18.2674 40.1145 18.2923 40.0498 18.3332 39.9953L19.0892 39.0134L16.9266 40.26C16.8467 40.3052 16.7528 40.3188 16.6633 40.2981C16.5739 40.2773 16.4955 40.2238 16.4436 40.1481C16.3917 40.0723 16.3701 39.9799 16.3831 39.889C16.3961 39.7981 16.4427 39.7154 16.5138 39.6572L16.5578 39.6213L15.8633 40.0224C15.7847 40.0666 15.6925 40.0802 15.6044 40.0607C15.5164 40.0412 15.4386 39.99 15.386 39.9167C15.3333 39.8435 15.3095 39.7534 15.3191 39.6637C15.3287 39.5741 15.371 39.4911 15.438 39.4306L17.5074 37.6068L14.1898 39.5267C14.109 39.5749 14.0128 39.5902 13.9211 39.5694C13.8294 39.5486 13.7491 39.4934 13.6969 39.4152C13.6448 39.3369 13.6246 39.2416 13.6408 39.1489C13.6569 39.0563 13.708 38.9733 13.7836 38.9173L15.7511 37.4169L12.9395 39.0354C12.8592 39.0816 12.7644 39.0957 12.6741 39.0749C12.5838 39.0541 12.5048 38.9998 12.4528 38.9231C12.4009 38.8464 12.38 38.7528 12.3942 38.6613C12.4084 38.5697 12.4568 38.487 12.5296 38.4296L16.1764 35.577L11.434 38.3145C11.3528 38.3614 11.2567 38.3754 11.1655 38.3537C11.0742 38.3319 10.9948 38.276 10.9435 38.1975C10.8923 38.119 10.873 38.0238 10.8898 37.9315C10.9065 37.8393 10.958 37.7569 11.0336 37.7014L14.9202 34.8488L10.1763 37.587C10.0947 37.6335 9.99845 37.647 9.90726 37.6246C9.81608 37.6023 9.73695 37.5458 9.68618 37.4668C9.63541 37.3878 9.61687 37.2924 9.63437 37.2001C9.65188 37.1079 9.70411 37.0259 9.78029 36.971L14.052 33.9277L9.04695 36.8134C8.96522 36.8597 8.86881 36.8729 8.77762 36.8503C8.68642 36.8276 8.6074 36.7708 8.55687 36.6916C8.50635 36.6124 8.48816 36.5168 8.50608 36.4245C8.524 36.3323 8.57664 36.2504 8.65315 36.1959L13.4272 32.8534L7.99315 35.9913C7.9106 36.0391 7.81264 36.0529 7.72008 36.0297C7.62753 36.0065 7.54766 35.9482 7.49744 35.867C7.44723 35.7859 7.43063 35.6884 7.45116 35.5952C7.4717 35.502 7.52775 35.4205 7.60742 35.368L10.4865 33.4569L7.24516 35.3298C7.16312 35.3767 7.06615 35.3901 6.97447 35.3673C6.88279 35.3444 6.80347 35.287 6.75306 35.2071C6.70265 35.1272 6.68504 35.0309 6.7039 34.9383C6.72276 34.8457 6.77663 34.764 6.85429 34.7102L12.6315 30.7377L6.30649 34.3934C6.22402 34.4395 6.12692 34.452 6.03545 34.4283C5.94398 34.4045 5.8652 34.3464 5.81554 34.266C5.76588 34.1856 5.74918 34.0892 5.76892 33.9967C5.78866 33.9043 5.84332 33.8231 5.92149 33.77L9.84922 31.185L5.61936 33.6226C5.53714 33.6659 5.44154 33.6764 5.35189 33.652C5.26224 33.6275 5.18522 33.5699 5.13642 33.4908C5.08761 33.4117 5.07065 33.3171 5.08896 33.226C5.10728 33.1348 5.15951 33.0541 5.23509 33L9.63069 30.1144L4.96522 32.8057C4.88287 32.8534 4.78518 32.8672 4.69282 32.8443C4.60045 32.8213 4.52064 32.7633 4.47026 32.6825C4.41988 32.6018 4.40288 32.5046 4.42286 32.4115C4.44283 32.3184 4.49821 32.2368 4.57729 32.1838L11.0446 27.8572L4.23849 31.7893C4.19703 31.8138 4.15115 31.8299 4.10347 31.8367C4.05579 31.8435 4.00724 31.8408 3.96059 31.8288C3.91395 31.8168 3.87012 31.7957 3.83161 31.7668C3.7931 31.7379 3.76066 31.7017 3.73616 31.6602C3.71165 31.6188 3.69554 31.5729 3.68877 31.5252C3.68199 31.4775 3.68467 31.429 3.69665 31.3823C3.70864 31.3357 3.72969 31.2918 3.75862 31.2533C3.78754 31.2148 3.82376 31.1824 3.86522 31.1579L8.45442 28.3756L3.78456 31.0714C3.7013 31.1194 3.60254 31.1328 3.5095 31.1087C3.41647 31.0846 3.33661 31.0249 3.28711 30.9426C3.23761 30.8602 3.22243 30.7617 3.24483 30.6682C3.26723 30.5748 3.32543 30.4939 3.40689 30.4429L18.3838 21.1149L3.13556 29.92C3.05202 29.9698 2.95213 29.9844 2.85785 29.9605C2.76358 29.9367 2.68265 29.8763 2.63286 29.7928C2.58307 29.7092 2.5685 29.6094 2.59236 29.5151C2.61622 29.4208 2.67655 29.3399 2.76009 29.2901L15.1688 21.6275L2.63396 28.864C2.55061 28.9101 2.4526 28.9219 2.36067 28.897C2.26874 28.8721 2.19011 28.8124 2.14142 28.7306C2.09273 28.6487 2.0778 28.5512 2.09978 28.4585C2.12177 28.3658 2.17895 28.2853 2.25922 28.2341L9.67029 23.7146L2.27316 27.987C2.18986 28.0339 2.09153 28.0464 1.99912 28.0219C1.90671 27.9974 1.82754 27.9377 1.77848 27.8557C1.72942 27.7736 1.71434 27.6756 1.73648 27.5826C1.75861 27.4896 1.81619 27.4089 1.89696 27.3578L13.414 20.2547L1.88889 26.9082C1.80584 26.9526 1.70892 26.9633 1.61819 26.9381C1.52747 26.913 1.44989 26.8539 1.40154 26.7731C1.35318 26.6923 1.33775 26.5961 1.35844 26.5042C1.37914 26.4124 1.43436 26.332 1.51269 26.2798L13.5958 18.8064L1.55596 25.7569C1.47261 25.803 1.3746 25.8148 1.28267 25.7899C1.19074 25.765 1.11211 25.7053 1.06342 25.6235C1.01473 25.5416 0.999795 25.444 1.02178 25.3513C1.04377 25.2587 1.10095 25.1782 1.18122 25.127L8.06135 20.925L1.33816 24.8065C1.25511 24.8508 1.15819 24.8616 1.06746 24.8364C0.976734 24.8112 0.899158 24.7522 0.850802 24.6714C0.802447 24.5906 0.787017 24.4943 0.80771 24.4025C0.828402 24.3106 0.883631 24.2303 0.961956 24.178L12.6359 16.94L1.12256 23.5848C1.03957 23.6297 0.942446 23.6409 0.851394 23.6161C0.760343 23.5912 0.682378 23.5322 0.633723 23.4514C0.585068 23.3705 0.56947 23.274 0.590176 23.1819C0.610883 23.0898 0.666297 23.0093 0.744889 22.957L14.2368 14.501L0.986889 22.1511C0.903698 22.1962 0.806287 22.2074 0.715029 22.1823C0.623771 22.1573 0.545735 22.0979 0.497241 22.0166C0.448747 21.9354 0.433551 21.8385 0.454832 21.7463C0.476112 21.6541 0.532221 21.5737 0.611423 21.5219L7.61109 17.2202L0.945823 21.068C0.862572 21.116 0.763802 21.1294 0.67077 21.1053C0.577737 21.0812 0.497879 21.0215 0.448379 20.9392C0.39888 20.8568 0.383697 20.7583 0.406098 20.6648C0.428499 20.5714 0.486692 20.4905 0.568156 20.4395L10.7314 14.1079L0.972223 19.7421C0.888973 19.7866 0.791771 19.7973 0.70085 19.7719C0.609929 19.7465 0.532294 19.6871 0.484104 19.6059C0.435915 19.5247 0.420884 19.4281 0.442141 19.3361C0.463397 19.2442 0.519304 19.1639 0.598223 19.1122L0.998623 18.868C0.913796 18.9035 0.818725 18.9058 0.732259 18.8745C0.645793 18.8432 0.574244 18.7805 0.531796 18.699C0.489348 18.6174 0.479101 18.5228 0.503086 18.4341C0.527071 18.3453 0.583537 18.2688 0.661289 18.2197L11.6613 11.2603L1.26922 17.2598C1.18638 17.304 1.0897 17.3148 0.999125 17.2899C0.908555 17.265 0.831002 17.2063 0.782465 17.1258C0.733928 17.0454 0.718109 16.9494 0.738271 16.8577C0.758433 16.7659 0.813038 16.6854 0.890823 16.6328L9.42975 11.2523L1.60509 15.7667C1.52236 15.8122 1.42527 15.824 1.33404 15.7997C1.2428 15.7754 1.16446 15.7169 1.11531 15.6363C1.06617 15.5556 1.05002 15.4592 1.07022 15.367C1.09042 15.2747 1.14541 15.1938 1.22376 15.1412L10.9324 8.88802L2.19982 13.9334C2.11685 13.982 2.01808 13.9961 1.92483 13.9726C1.83157 13.949 1.75127 13.8898 1.70126 13.8077C1.65124 13.7256 1.6355 13.627 1.65743 13.5334C1.67935 13.4398 1.7372 13.3585 1.81849 13.3071L8.65315 8.91882L2.94342 12.2152C2.86029 12.2609 2.76264 12.2727 2.67101 12.248C2.57938 12.2233 2.5009 12.164 2.45208 12.0826C2.40327 12.0012 2.38791 11.904 2.40925 11.8115C2.43058 11.7191 2.48695 11.6385 2.56649 11.5867L4.42916 10.4134L3.67822 10.8468C3.59613 10.8954 3.4983 10.9101 3.40552 10.8878C3.31273 10.8655 3.23231 10.8079 3.18133 10.7272C3.13035 10.6465 3.11283 10.5492 3.13249 10.4558C3.15215 10.3624 3.20744 10.2804 3.28662 10.2271L9.51995 5.93562L5.51962 8.23975C5.43845 8.28675 5.34235 8.30086 5.2511 8.27917C5.15984 8.25749 5.08037 8.20165 5.02902 8.12315C4.97764 8.04458 4.95836 7.9493 4.97514 7.85693C4.99192 7.76457 5.04349 7.68216 5.11922 7.62668L8.39649 5.22135C8.30896 5.19447 8.23499 5.13519 8.18969 5.05562C8.14107 4.9714 8.12789 4.87132 8.15306 4.77739C8.17823 4.68346 8.23967 4.60337 8.32389 4.55475L12.9439 1.88615C13.0251 1.83924 13.1212 1.82522 13.2124 1.84699C13.3036 1.86875 13.383 1.92463 13.4343 2.00314C13.4856 2.08166 13.5048 2.17684 13.4881 2.26911C13.4713 2.36138 13.4199 2.44372 13.3443 2.49922L10.9412 4.25922L17.1012 0.701817C17.1832 0.653166 17.2811 0.638439 17.3739 0.660764C17.4666 0.683088 17.5471 0.740705 17.598 0.821376C17.649 0.902046 17.6665 0.999414 17.6469 1.0928C17.6272 1.18618 17.5719 1.26822 17.4928 1.32148L11.2653 5.61148L20.2318 0.440017C20.3146 0.395739 20.4113 0.384947 20.5018 0.409866C20.5924 0.434784 20.67 0.493513 20.7185 0.573938C20.767 0.654363 20.7829 0.750349 20.7627 0.842096C20.7425 0.933842 20.6879 1.01435 20.6102 1.06702L18.7512 2.24035L21.7798 0.494283C21.8626 0.447144 21.9605 0.434095 22.0528 0.457901C22.1451 0.481706 22.2245 0.540496 22.2741 0.621817C22.3238 0.703137 22.3399 0.800599 22.3189 0.893557C22.298 0.986514 22.2416 1.06766 22.1619 1.11982L15.3199 5.51248L23.6278 0.715017C23.7103 0.671302 23.8064 0.660722 23.8965 0.685436C23.9866 0.71015 24.0638 0.768296 24.1124 0.84801C24.1611 0.927723 24.1775 1.023 24.1583 1.11439C24.1391 1.20578 24.0858 1.28641 24.0092 1.33982L14.3035 7.59222L25.5081 1.12275C25.5913 1.07247 25.6911 1.05732 25.7855 1.08064C25.88 1.10395 25.9612 1.16381 26.0115 1.24705C26.0618 1.33029 26.0769 1.4301 26.0536 1.52451C26.0303 1.61892 25.9705 1.70021 25.8872 1.75048L17.3498 7.12948L26.9704 1.57448C27.0533 1.52372 27.153 1.50799 27.2476 1.53075C27.3421 1.55351 27.4238 1.6129 27.4745 1.69585C27.5253 1.7788 27.541 1.87852 27.5183 1.97307C27.4955 2.06762 27.4361 2.14925 27.3532 2.20002L16.3458 9.16668L28.4532 2.17362C28.5363 2.13034 28.6329 2.12057 28.723 2.1463C28.8132 2.17203 28.8901 2.23132 28.9378 2.31197C28.9856 2.39262 29.0007 2.48851 28.98 2.57994C28.9593 2.67137 28.9043 2.75139 28.8264 2.80355L28.5529 2.97075L29.2628 2.56082C29.3462 2.51074 29.4461 2.49585 29.5405 2.51944C29.6349 2.54302 29.7161 2.60315 29.7662 2.68658C29.8163 2.77002 29.8312 2.86994 29.8076 2.96435C29.784 3.05876 29.7239 3.13994 29.6404 3.19002L19.4691 9.52675L30.4332 3.19882C30.5167 3.14903 30.6166 3.13446 30.7109 3.15832C30.8051 3.18218 30.8861 3.24252 30.9359 3.32605C30.9856 3.40958 31.0002 3.50948 30.9763 3.60375C30.9525 3.69803 30.8922 3.77896 30.8086 3.82875L23.8126 8.12755L31.3454 3.77742C31.4288 3.72724 31.5286 3.71222 31.623 3.73567C31.7174 3.75912 31.7987 3.81911 31.8489 3.90245C31.899 3.98579 31.914 4.08565 31.8906 4.18006C31.8672 4.27447 31.8072 4.3557 31.7238 4.40588L18.2305 12.862L32.51 4.62002C32.5931 4.57423 32.6907 4.56246 32.7824 4.58719C32.874 4.61191 32.9525 4.67121 33.0013 4.7526C33.0501 4.83399 33.0655 4.93114 33.0441 5.02362C33.0228 5.1161 32.9664 5.1967 32.8869 5.24848L21.2152 12.4843L33.4618 5.41275C33.5452 5.36667 33.6432 5.35483 33.7351 5.37973C33.827 5.40463 33.9057 5.46433 33.9544 5.54618C34.003 5.62803 34.018 5.72562 33.996 5.81829C33.974 5.91095 33.9168 5.99143 33.8365 6.04268L26.9865 10.2271L34.1731 6.07642C34.2564 6.02949 34.3548 6.01695 34.4472 6.04148C34.5396 6.06601 34.6188 6.12566 34.6678 6.20771C34.7169 6.28977 34.732 6.38775 34.7098 6.48076C34.6877 6.57376 34.6301 6.65445 34.5493 6.70562L22.4596 14.1856L34.9996 6.94322C35.0829 6.89629 35.1812 6.88375 35.2737 6.90828C35.3661 6.93281 35.4452 6.99246 35.4943 7.07451C35.5434 7.15657 35.5584 7.25455 35.5363 7.34756C35.5142 7.44056 35.4566 7.52125 35.3758 7.57242L23.8603 14.6755L35.7498 7.81075C35.8334 7.76106 35.9334 7.74662 36.0277 7.77062C36.1219 7.79462 36.2028 7.85509 36.2525 7.93872C36.3022 8.02235 36.3166 8.1223 36.2926 8.21657C36.2686 8.31084 36.2082 8.39172 36.1246 8.44142L28.7091 12.9632L36.3284 8.56315C36.4117 8.51622 36.51 8.50369 36.6025 8.52821C36.6949 8.55274 36.774 8.61239 36.8231 8.69445C36.8722 8.7765 36.8872 8.87448 36.8651 8.96749C36.843 9.0605 36.7854 9.14118 36.7046 9.19235L24.2849 16.8608L36.9914 9.52748C37.0748 9.4774 37.1747 9.46252 37.2691 9.4861C37.3635 9.50969 37.4447 9.56981 37.4948 9.65325C37.5449 9.73669 37.5598 9.8366 37.5362 9.93101C37.5126 10.0254 37.4525 10.1066 37.369 10.1567L22.3922 19.4818L37.6675 10.6634C37.7509 10.6181 37.8486 10.6068 37.9402 10.6321C38.0317 10.6573 38.1098 10.7171 38.1582 10.7988C38.2066 10.8805 38.2213 10.9778 38.1994 11.0701C38.1775 11.1625 38.1206 11.2428 38.0408 11.2941L20.8038 21.7456C20.8115 21.7553 20.8186 21.7656 20.825 21.7764C20.8754 21.8571 20.8924 21.9543 20.8724 22.0473C20.8524 22.1404 20.797 22.222 20.718 22.275L14.2544 26.5966L20.3278 23.0898C20.4104 23.0428 20.508 23.0297 20.6001 23.0533C20.6921 23.0769 20.7714 23.1353 20.8213 23.2163C20.8711 23.2972 20.8875 23.3943 20.8672 23.4871C20.8468 23.5799 20.7912 23.6612 20.7121 23.7138L16.3121 26.6009L20.3249 24.2844C20.4075 24.2374 20.5051 24.2243 20.5972 24.2479C20.6892 24.2715 20.7685 24.3299 20.8183 24.4109C20.8681 24.4918 20.8846 24.5889 20.8642 24.6817C20.8439 24.7745 20.7883 24.8558 20.7092 24.9084L16.7932 27.489L20.3278 25.4467C20.4099 25.3998 20.5068 25.3864 20.5985 25.4092C20.6902 25.4321 20.7695 25.4895 20.8199 25.5694C20.8703 25.6493 20.8879 25.7456 20.8691 25.8382C20.8502 25.9308 20.7963 26.0125 20.7187 26.0663L14.94 30.0396L20.3278 26.9295C20.4102 26.884 20.5068 26.8719 20.5978 26.8958C20.6888 26.9196 20.7672 26.9774 20.8167 27.0574C20.8663 27.1373 20.8832 27.2333 20.864 27.3253C20.8448 27.4174 20.7909 27.4986 20.7136 27.5521L17.8316 29.4646L20.3249 28.0236C20.4066 27.9772 20.503 27.964 20.5942 27.9867C20.6854 28.0093 20.7644 28.0661 20.815 28.1454C20.8655 28.2246 20.8837 28.3202 20.8658 28.4124C20.8478 28.5047 20.7952 28.5865 20.7187 28.6411L15.944 31.9844L20.3249 29.4558C20.4064 29.4093 20.5027 29.3958 20.5939 29.4182C20.6851 29.4406 20.7642 29.4971 20.815 29.576C20.8658 29.655 20.8843 29.7505 20.8668 29.8427C20.8493 29.9349 20.7971 30.0169 20.7209 30.0718L16.447 33.1174L20.3249 30.8785C20.4061 30.8316 20.5022 30.8176 20.5934 30.8393C20.6846 30.8611 20.764 30.917 20.8153 30.9955C20.8666 31.074 20.8858 31.1692 20.8691 31.2614C20.8523 31.3537 20.8009 31.4361 20.7253 31.4916L16.8423 34.3428L20.3249 32.3327C20.4051 32.2873 20.4995 32.2739 20.5893 32.295C20.679 32.3161 20.7575 32.3703 20.8091 32.4467C20.8607 32.5231 20.8816 32.6161 20.8677 32.7072C20.8538 32.7983 20.8061 32.8809 20.7341 32.9384L17.0872 35.7926L20.3278 33.924C20.4084 33.8784 20.5033 33.865 20.5934 33.8865C20.6835 33.908 20.7622 33.9627 20.8135 34.0398C20.8649 34.1169 20.8852 34.2106 20.8703 34.302C20.8554 34.3934 20.8065 34.4759 20.7334 34.5327L18.7666 36.0338L20.3278 35.1326C20.4066 35.0876 20.4992 35.0734 20.5877 35.0927C20.6763 35.112 20.7546 35.1635 20.8075 35.2372C20.8604 35.3108 20.8841 35.4014 20.874 35.4916C20.864 35.5817 20.8209 35.6649 20.7532 35.7251L18.6844 37.5467L20.3278 36.5978C20.4077 36.5526 20.5017 36.539 20.5911 36.5597C20.6806 36.5804 20.759 36.634 20.8108 36.7097C20.8627 36.7855 20.8843 36.8779 20.8713 36.9688C20.8583 37.0597 20.8117 37.1424 20.7407 37.2006L20.4914 37.4015C20.5467 37.3963 20.6025 37.405 20.6537 37.4268C20.7049 37.4486 20.7499 37.4827 20.7847 37.5262C20.8405 37.59 20.8725 37.6712 20.8752 37.756C20.8779 37.8408 20.8511 37.9239 20.7994 37.9911L20.0455 38.9694L20.278 38.8352C20.3197 38.8086 20.3664 38.7908 20.4152 38.7828C20.4639 38.7748 20.5139 38.7767 20.5619 38.7884C20.6099 38.8002 20.6551 38.8216 20.6946 38.8512C20.7342 38.8809 20.7674 38.9183 20.7921 38.9611C20.8169 39.0039 20.8327 39.0513 20.8387 39.1004C20.8446 39.1495 20.8406 39.1993 20.8268 39.2467C20.813 39.2942 20.7898 39.3385 20.7585 39.3767C20.7272 39.415 20.6884 39.4466 20.6446 39.4695L18.8069 40.5306C18.7524 40.5634 18.6901 40.5811 18.6265 40.582V40.582Z" fill="#3B2186"/>
<path d="M26.2404 43.4728C26.1621 43.4727 26.0859 43.4475 26.0229 43.4009C25.96 43.3543 25.9136 43.2888 25.8905 43.214C25.8675 43.1392 25.869 43.0589 25.8949 42.985C25.9208 42.9111 25.9696 42.8474 26.0343 42.8033L32.341 38.5081L24.1892 43.2154C24.1063 43.264 24.0075 43.2781 23.9142 43.2546C23.821 43.2311 23.7407 43.1719 23.6907 43.0898C23.6407 43.0076 23.6249 42.9091 23.6468 42.8155C23.6688 42.7218 23.7266 42.6405 23.8079 42.5891L28.554 39.5363L23.6928 42.342C23.61 42.3875 23.513 42.3993 23.4217 42.375C23.3305 42.3507 23.2521 42.2922 23.203 42.2116C23.1539 42.131 23.1377 42.0345 23.1579 41.9423C23.1781 41.85 23.2331 41.7692 23.3114 41.7165L28.2248 38.5778L23.6781 41.2046C23.5955 41.2494 23.4989 41.2608 23.4081 41.2365C23.3173 41.2121 23.2394 41.1538 23.1904 41.0736C23.1413 40.9935 23.125 40.8975 23.1446 40.8056C23.1643 40.7137 23.2185 40.6329 23.296 40.5798L30.4746 35.9283L23.6722 39.8523C23.589 39.9003 23.4902 39.9137 23.3972 39.8897C23.3042 39.8656 23.2243 39.8059 23.1748 39.7236C23.1253 39.6412 23.1101 39.5427 23.1325 39.4492C23.1549 39.3558 23.2131 39.2748 23.2946 39.2239L25.7996 37.6523L23.673 38.8807C23.5905 38.9268 23.4934 38.9393 23.4019 38.9156C23.3105 38.8919 23.2317 38.8337 23.182 38.7533C23.1324 38.6729 23.1157 38.5765 23.1354 38.4841C23.1551 38.3917 23.2098 38.3104 23.288 38.2573L32.6372 32.0973L23.6722 37.2695C23.5895 37.3144 23.4926 37.3257 23.4017 37.3011C23.3108 37.2765 23.2329 37.2178 23.184 37.1373C23.1352 37.0568 23.1192 36.9606 23.1394 36.8686C23.1595 36.7766 23.2143 36.696 23.2924 36.6433L29.0527 32.9663L23.6722 36.072C23.5893 36.1157 23.4928 36.126 23.4026 36.1008C23.3123 36.0756 23.2351 36.0168 23.1868 35.9364C23.1386 35.8561 23.1229 35.7603 23.1431 35.6688C23.1633 35.5772 23.2177 35.4969 23.2953 35.4443L24.2354 34.8576L23.6722 35.1832C23.5892 35.2298 23.4912 35.2422 23.3992 35.2178C23.3071 35.1934 23.2281 35.1342 23.179 35.0526C23.1298 34.9711 23.1143 34.8736 23.1358 34.7808C23.1572 34.688 23.2139 34.6072 23.2938 34.5555L25.3032 33.2897L23.6722 34.2299C23.5895 34.2794 23.4906 34.2944 23.397 34.2715C23.3033 34.2487 23.2224 34.1899 23.1718 34.1078C23.1212 34.0258 23.1049 33.9271 23.1265 33.8331C23.1481 33.7392 23.2059 33.6575 23.2872 33.6058L28.7198 30.0271L23.6722 32.9414C23.5897 32.9893 23.4917 33.0031 23.3992 32.9799C23.3066 32.9567 23.2267 32.8983 23.1765 32.8171C23.1263 32.736 23.1097 32.6385 23.1302 32.5453C23.1508 32.4521 23.2068 32.3706 23.2865 32.3181L27.1336 29.7734L23.6722 31.7681C23.5907 31.8135 23.495 31.8261 23.4045 31.8034C23.314 31.7806 23.2356 31.7243 23.1852 31.6458C23.1348 31.5672 23.1163 31.4725 23.1333 31.3807C23.1504 31.289 23.2017 31.2072 23.277 31.1521L28.117 27.7149L23.6708 30.2816C23.5896 30.3285 23.4935 30.3425 23.4023 30.3208C23.3111 30.299 23.2316 30.2431 23.1804 30.1646C23.1291 30.0861 23.1098 29.9909 23.1266 29.8986C23.1433 29.8064 23.1948 29.724 23.2704 29.6685L26.6972 27.1547L23.6722 28.9015C23.593 28.9466 23.4998 28.9606 23.4108 28.9407C23.3218 28.9209 23.2434 28.8685 23.1909 28.794C23.1384 28.7194 23.1156 28.6279 23.1269 28.5374C23.1382 28.4469 23.1828 28.3639 23.252 28.3045L26.145 25.8589L23.6722 27.2859C23.5926 27.3313 23.4988 27.3451 23.4095 27.3248C23.3201 27.3044 23.2416 27.2513 23.1894 27.176C23.1372 27.1006 23.1152 27.0084 23.1276 26.9176C23.14 26.8268 23.186 26.7439 23.2564 26.6853L24.0382 26.0444L23.6715 26.2549C23.6015 26.295 23.5202 26.3109 23.4402 26.3002C23.3602 26.2894 23.286 26.2525 23.2291 26.1953C23.1722 26.1381 23.1358 26.0636 23.1255 25.9836C23.1151 25.9035 23.1315 25.8223 23.1721 25.7525L23.9054 24.4985L23.8842 24.5103C23.8004 24.5541 23.7029 24.5639 23.6121 24.5375C23.5212 24.5112 23.4441 24.4507 23.3968 24.3689C23.3494 24.287 23.3356 24.19 23.3581 24.0981C23.3806 24.0063 23.4377 23.9267 23.5175 23.8759L24.7341 23.1734C24.8041 23.1335 24.8852 23.1177 24.965 23.1285C25.0448 23.1393 25.1189 23.1761 25.1757 23.2332C25.2325 23.2902 25.269 23.3644 25.2794 23.4443C25.2899 23.5241 25.2737 23.6052 25.2335 23.675L24.5002 24.9297L27.545 23.1697C27.6247 23.1236 27.7188 23.1091 27.8087 23.1292C27.8985 23.1493 27.9776 23.2024 28.03 23.2781C28.0825 23.3537 28.1046 23.4464 28.0919 23.5376C28.0792 23.6288 28.0327 23.7119 27.9615 23.7703L27.1783 24.4127L29.3336 23.1734C29.4128 23.1282 29.506 23.1142 29.595 23.1341C29.684 23.154 29.7624 23.2063 29.8149 23.2809C29.8674 23.3555 29.8903 23.447 29.8789 23.5374C29.8676 23.6279 29.823 23.711 29.7538 23.7703L26.86 26.2167L32.132 23.1734C32.2132 23.1265 32.3093 23.1125 32.4005 23.1342C32.4917 23.156 32.5711 23.2119 32.6224 23.2904C32.6737 23.3689 32.6929 23.4641 32.6762 23.5564C32.6594 23.6486 32.608 23.731 32.5324 23.7865L29.1062 26.2974L34.5212 23.1734C34.6027 23.128 34.6984 23.1154 34.7889 23.1381C34.8794 23.1608 34.9578 23.2172 35.0082 23.2957C35.0586 23.3742 35.0771 23.469 35.0601 23.5607C35.043 23.6525 34.9917 23.7342 34.9164 23.7894L30.0764 27.2265L37.0966 23.1734C37.179 23.1279 37.2756 23.1159 37.3666 23.1397C37.4576 23.1635 37.536 23.2213 37.5855 23.3013C37.6351 23.3812 37.652 23.4772 37.6328 23.5693C37.6136 23.6613 37.5597 23.7425 37.4824 23.796L33.6346 26.3451L39.1287 23.1734C39.2112 23.1255 39.3092 23.1117 39.4018 23.1349C39.4943 23.1581 39.5742 23.2165 39.6244 23.2977C39.6746 23.3788 39.6912 23.4763 39.6707 23.5695C39.6502 23.6627 39.5941 23.7442 39.5144 23.7967L34.0878 27.3725L41.3602 23.1734C41.4432 23.1278 41.5405 23.116 41.6319 23.1405C41.7233 23.1651 41.8017 23.224 41.8507 23.305C41.8996 23.3859 41.9154 23.4827 41.8947 23.5751C41.8739 23.6674 41.8183 23.7481 41.7394 23.8004L39.7293 25.0676L42.4903 23.4733C42.5733 23.4284 42.6704 23.4172 42.7615 23.442C42.8525 23.4668 42.9305 23.5258 42.9791 23.6067C43.0278 23.6876 43.0434 23.7841 43.0227 23.8762C43.002 23.9683 42.9466 24.0488 42.868 24.1011L41.9359 24.6826L42.9574 24.0959C43.0403 24.0496 43.1379 24.0372 43.2297 24.0614C43.3215 24.0856 43.4004 24.1444 43.4497 24.2256C43.499 24.3067 43.5149 24.4038 43.4941 24.4964C43.4732 24.589 43.4173 24.67 43.338 24.7222L37.5784 28.3947L43.0014 25.2634C43.0839 25.2173 43.181 25.2048 43.2725 25.2285C43.3639 25.2522 43.4427 25.3103 43.4924 25.3907C43.542 25.4711 43.5587 25.5676 43.539 25.66C43.5193 25.7524 43.4646 25.8336 43.3864 25.8867L34.0328 32.0519L42.7352 27.0278C42.8186 26.9776 42.9184 26.9626 43.0128 26.9861C43.0596 26.9977 43.1036 27.0184 43.1423 27.047C43.1811 27.0756 43.2138 27.1116 43.2387 27.1528C43.2635 27.1941 43.28 27.2399 43.2871 27.2875C43.2943 27.3351 43.292 27.3837 43.2804 27.4304C43.2688 27.4772 43.2481 27.5212 43.2195 27.5599C43.1909 27.5987 43.1549 27.6314 43.1136 27.6563L40.6203 29.2212L42.4786 28.1483C42.5612 28.1035 42.6578 28.0921 42.7486 28.1165C42.8393 28.1408 42.9173 28.1991 42.9663 28.2793C43.0153 28.3595 43.0317 28.4554 43.012 28.5473C42.9924 28.6392 42.9382 28.72 42.8606 28.7731L35.674 33.4298L41.9806 29.7895C42.0636 29.7409 42.1624 29.7268 42.2556 29.7503C42.3489 29.7738 42.4292 29.833 42.4792 29.9152C42.5292 29.9973 42.545 30.0958 42.523 30.1895C42.5011 30.2831 42.4432 30.3644 42.362 30.4158L37.4486 33.5559L41.3764 31.2885C41.4593 31.2398 41.5581 31.2258 41.6514 31.2493C41.7446 31.2728 41.8249 31.332 41.8749 31.4141C41.9249 31.4963 41.9407 31.5948 41.9188 31.6884C41.8968 31.7821 41.839 31.8633 41.7577 31.9147L37.0196 34.9632L40.5396 32.9297C40.6218 32.882 40.7192 32.8681 40.8115 32.8908C40.9037 32.9135 40.9835 32.9712 41.0341 33.0516C41.0846 33.132 41.102 33.2289 41.0826 33.3219C41.0631 33.4149 41.0083 33.4967 40.9298 33.5501L34.6231 37.8437L38.8999 35.3746C38.981 35.3281 39.0768 35.3144 39.1676 35.3362C39.2585 35.358 39.3376 35.4137 39.3889 35.4918C39.4401 35.57 39.4595 35.6648 39.4432 35.7568C39.4268 35.8488 39.376 35.9311 39.301 35.9869L35.9189 38.4803C36.0047 38.4582 36.0956 38.4679 36.1748 38.5077C36.254 38.5475 36.3161 38.6146 36.3496 38.6966C36.3832 38.7786 36.3859 38.87 36.3573 38.9538C36.3286 39.0377 36.2706 39.1084 36.1939 39.1527L30.6939 42.3259C30.6128 42.3713 30.5176 42.3842 30.4273 42.3621C30.3371 42.34 30.2586 42.2844 30.2078 42.2067C30.1569 42.1289 30.1375 42.0347 30.1534 41.9432C30.1693 41.8517 30.2194 41.7696 30.2935 41.7135L33.5774 39.2935L26.4222 43.4244C26.3669 43.4563 26.3042 43.473 26.2404 43.4728V43.4728Z" fill="#F2CF7E"/>
<path d="M12.8487 39.2736C15.6897 40.3736 21.9487 42.4474 21.0716 37.199C21.6509 33.8432 19.7927 22.3783 21.9692 20.9248C27.3269 20.9197 32.6949 20.9292 38.0549 20.9248C44.3681 20.7738 38.2998 9.99815 36.1665 7.54295C13.1267 -16.5617 -17.5443 24.6942 12.8487 39.2736V39.2736ZM2.96558 12.5399C10.0232 -4.14418 35.3672 -1.59291 39.2458 15.9968C39.4783 16.9553 40.4191 20.0089 38.8498 20.1416C15.9969 20.4218 20.2385 15.9785 19.9951 38.8416C19.8565 40.0685 18.81 39.8742 17.8809 39.7407C5.47945 38.2682 -2.42882 23.7856 2.96558 12.5399Z" fill="#2A2A38"/>
<path d="M22.9358 41.8388C23.5526 45.0654 28.1139 42.85 30.1907 42.4064C33.9013 41.1077 37.1583 38.766 39.5711 35.6623C41.9839 32.5585 43.4499 28.8245 43.7933 24.9083C43.6217 21.6603 35.404 23.7672 32.94 23.2003C30.1672 23.7987 23.7623 21.5657 22.9358 25.1026C22.9241 30.6767 22.908 36.2662 22.9358 41.8388V41.8388ZM24.2397 24.0591C28.7013 23.1585 33.7804 24.0209 38.4436 23.7313C39.8949 23.9322 42.5804 22.9803 42.7292 25.1723C42.453 28.4512 41.3627 31.6094 39.557 34.3603C37.7514 37.1113 35.2877 39.3679 32.3892 40.9258C30.487 41.6906 24.6856 44.7472 23.997 41.6056C24.1722 35.802 23.5966 29.7615 24.2397 24.0591Z" fill="#2A2A38"/>
<path d="M29.5769 36.2001C29.2215 36.0329 28.9216 35.7674 28.7126 35.4349C28.5036 35.1024 28.3943 34.7169 28.3977 34.3242C26.1376 33.511 27.9988 37.2062 29.5358 36.9584C29.6392 37.3808 29.2938 38.2094 29.7324 38.3884C30.729 38.5277 30.6314 37.6052 30.5977 36.9012C33.52 36.4238 33.4335 32.0678 30.3872 31.9446C30.038 31.9483 29.694 31.8592 29.3903 31.6866C29.0867 31.514 28.8342 31.2639 28.6588 30.9619C27.8521 29.6969 29.0298 27.6494 30.5566 28.3329C30.912 28.5001 31.212 28.7656 31.421 29.0981C31.63 29.4306 31.7392 29.8161 31.7358 30.2088C33.9938 31.0228 32.1377 27.3304 30.6028 27.5746C30.979 25.3849 29.1838 25.6159 29.5307 27.6333C26.6128 28.1129 26.703 32.4667 29.7463 32.5877C32.3988 32.4132 32.2888 37.1124 29.5769 36.2001V36.2001Z" fill="#2A2A38"/>
</svg>
