<svg width="56" height="88" viewBox="0 0 56 88" fill="none" xmlns="http://www.w3.org/2000/svg">
<path d="M6.804 9.33421H2.464L1.638 11.6162H0.266L3.92 1.92821H5.362L9.002 11.6162H7.63L6.804 9.33421ZM6.44 8.34021L4.634 3.35621L2.828 8.34021H6.44ZM17.1235 3.93021V11.6162H15.8495V9.81021C15.6535 10.4355 15.3035 10.9162 14.7995 11.2522C14.3049 11.5789 13.7262 11.7422 13.0635 11.7422C12.1769 11.7422 11.4582 11.4575 10.9075 10.8882C10.3569 10.3095 10.0815 9.48354 10.0815 8.41021V3.93021H11.3555V8.28421C11.3555 9.04954 11.5515 9.64221 11.9435 10.0622C12.3355 10.4729 12.8675 10.6782 13.5395 10.6782C14.2395 10.6782 14.7995 10.4542 15.2195 10.0062C15.6395 9.54888 15.8495 8.88621 15.8495 8.01821V3.93021H17.1235ZM22.8326 10.4962V11.6162H21.8806C21.0966 11.6162 20.5086 11.4295 20.1166 11.0562C19.7339 10.6829 19.5426 10.0575 19.5426 9.18021V5.03621H18.3946V3.93021H19.5426V2.01221H20.8306V3.93021H22.8186V5.03621H20.8306V9.20821C20.8306 9.70288 20.9192 10.0435 21.0966 10.2302C21.2832 10.4075 21.6006 10.4962 22.0486 10.4962H22.8326ZM27.8732 3.83221C28.6106 3.83221 29.2686 3.99088 29.8472 4.30821C30.4352 4.62554 30.8926 5.08288 31.2192 5.68021C31.5552 6.27754 31.7232 6.97754 31.7232 7.78021C31.7232 8.58288 31.5552 9.28288 31.2192 9.88021C30.8926 10.4682 30.4352 10.9209 29.8472 11.2382C29.2686 11.5555 28.6106 11.7142 27.8732 11.7142C27.1359 11.7142 26.4732 11.5555 25.8852 11.2382C25.3066 10.9209 24.8492 10.4682 24.5132 9.88021C24.1772 9.28288 24.0092 8.58288 24.0092 7.78021C24.0092 6.97754 24.1772 6.27754 24.5132 5.68021C24.8492 5.08288 25.3066 4.62554 25.8852 4.30821C26.4732 3.99088 27.1359 3.83221 27.8732 3.83221ZM27.8732 4.95221C27.4159 4.95221 26.9912 5.05488 26.5992 5.26021C26.2166 5.46554 25.9039 5.78288 25.6612 6.21221C25.4279 6.63221 25.3112 7.15488 25.3112 7.78021C25.3112 8.39621 25.4279 8.91888 25.6612 9.34821C25.9039 9.76821 26.2166 10.0809 26.5992 10.2862C26.9912 10.4915 27.4159 10.5942 27.8732 10.5942C28.3306 10.5942 28.7506 10.4915 29.1332 10.2862C29.5252 10.0809 29.8379 9.76821 30.0712 9.34821C30.3139 8.91888 30.4352 8.39621 30.4352 7.78021C30.4352 7.15488 30.3139 6.63221 30.0712 6.21221C29.8379 5.78288 29.5252 5.46554 29.1332 5.26021C28.7506 5.05488 28.3306 4.95221 27.8732 4.95221ZM42.8333 3.80421C43.7293 3.80421 44.448 4.09354 44.9893 4.67221C45.54 5.24154 45.8153 6.06754 45.8153 7.15021V11.6162H44.5413V7.26221C44.5413 6.50621 44.3547 5.92754 43.9813 5.52621C43.6173 5.12488 43.1133 4.92421 42.4693 4.92421C41.7973 4.92421 41.256 5.14821 40.8453 5.59621C40.444 6.03488 40.2433 6.68354 40.2433 7.54221V11.6162H38.9693V7.26221C38.9693 6.50621 38.7827 5.92754 38.4093 5.52621C38.036 5.12488 37.532 4.92421 36.8973 4.92421C36.216 4.92421 35.67 5.14821 35.2593 5.59621C34.858 6.03488 34.6573 6.68354 34.6573 7.54221V11.6162H33.3833V3.93021H34.6573V5.68021C34.844 5.07354 35.1753 4.61154 35.6513 4.29421C36.1367 3.96754 36.692 3.80421 37.3173 3.80421C37.9707 3.80421 38.5353 3.97221 39.0113 4.30821C39.4967 4.63488 39.842 5.12021 40.0473 5.76421C40.262 5.13888 40.6213 4.65821 41.1253 4.32221C41.6293 3.97688 42.1987 3.80421 42.8333 3.80421ZM50.9435 3.83221C51.6902 3.83221 52.3202 4.01888 52.8335 4.39221C53.3562 4.76554 53.7202 5.26488 53.9255 5.89021V3.93021H55.1995V11.6162H53.9255V9.65621C53.7202 10.2815 53.3562 10.7809 52.8335 11.1542C52.3202 11.5275 51.6902 11.7142 50.9435 11.7142C50.2622 11.7142 49.6555 11.5555 49.1235 11.2382C48.5915 10.9209 48.1715 10.4682 47.8635 9.88021C47.5648 9.28288 47.4155 8.58288 47.4155 7.78021C47.4155 6.97754 47.5648 6.27754 47.8635 5.68021C48.1715 5.08288 48.5915 4.62554 49.1235 4.30821C49.6555 3.99088 50.2622 3.83221 50.9435 3.83221ZM51.3075 4.96621C50.5235 4.96621 49.8935 5.21821 49.4175 5.72221C48.9508 6.21688 48.7175 6.90288 48.7175 7.78021C48.7175 8.65754 48.9508 9.34821 49.4175 9.85221C49.8935 10.3469 50.5235 10.5942 51.3075 10.5942C51.8115 10.5942 52.2595 10.4775 52.6515 10.2442C53.0528 10.0109 53.3655 9.68421 53.5895 9.26421C53.8135 8.83488 53.9255 8.34021 53.9255 7.78021C53.9255 7.22021 53.8135 6.72554 53.5895 6.29621C53.3655 5.86688 53.0528 5.54021 52.6515 5.31621C52.2595 5.08288 51.8115 4.96621 51.3075 4.96621ZM60.8951 10.4962V11.6162H59.9431C59.1591 11.6162 58.5711 11.4295 58.1791 11.0562C57.7964 10.6829 57.6051 10.0575 57.6051 9.18021V5.03621H56.4571V3.93021H57.6051V2.01221H58.8931V3.93021H60.8811V5.03621H58.8931V9.20821C58.8931 9.70288 58.9817 10.0435 59.1591 10.2302C59.3457 10.4075 59.6631 10.4962 60.1111 10.4962H60.8951ZM62.2257 1.67621C62.2257 1.44288 62.3051 1.25621 62.4637 1.11621C62.6224 0.966877 62.8324 0.89221 63.0937 0.89221C63.3551 0.89221 63.5651 0.966877 63.7237 1.11621C63.8824 1.25621 63.9617 1.44288 63.9617 1.67621C63.9617 1.90954 63.8824 2.10088 63.7237 2.25021C63.5651 2.39021 63.3551 2.46021 63.0937 2.46021C62.8324 2.46021 62.6224 2.39021 62.4637 2.25021C62.3051 2.10088 62.2257 1.90954 62.2257 1.67621ZM63.7237 3.93021V11.6162H62.4497V3.93021H63.7237ZM69.174 3.83221C70.154 3.83221 70.966 4.09354 71.61 4.61621C72.254 5.13888 72.6507 5.83888 72.8 6.71621H71.456C71.3627 6.16554 71.106 5.73621 70.686 5.42821C70.2753 5.11088 69.762 4.95221 69.146 4.95221C68.698 4.95221 68.2873 5.05488 67.914 5.26021C67.55 5.46554 67.256 5.78288 67.032 6.21221C66.808 6.63221 66.696 7.15488 66.696 7.78021C66.696 8.40554 66.808 8.93288 67.032 9.36221C67.256 9.78221 67.55 10.0949 67.914 10.3002C68.2873 10.5055 68.698 10.6082 69.146 10.6082C69.762 10.6082 70.2753 10.4495 70.686 10.1322C71.106 9.81488 71.3627 9.38088 71.456 8.83021H72.8C72.6507 9.71688 72.254 10.4215 71.61 10.9442C70.966 11.4575 70.154 11.7142 69.174 11.7142C68.4367 11.7142 67.7833 11.5555 67.214 11.2382C66.6447 10.9209 66.1967 10.4682 65.87 9.88021C65.5527 9.28288 65.394 8.58288 65.394 7.78021C65.394 6.97754 65.5527 6.27754 65.87 5.68021C66.1967 5.08288 66.6447 4.62554 67.214 4.30821C67.7833 3.99088 68.4367 3.83221 69.174 3.83221ZM77.6173 3.83221C78.364 3.83221 78.994 4.01888 79.5073 4.39221C80.03 4.76554 80.394 5.26488 80.5993 5.89021V3.93021H81.8733V11.6162H80.5993V9.65621C80.394 10.2815 80.03 10.7809 79.5073 11.1542C78.994 11.5275 78.364 11.7142 77.6173 11.7142C76.936 11.7142 76.3293 11.5555 75.7973 11.2382C75.2653 10.9209 74.8453 10.4682 74.5373 9.88021C74.2386 9.28288 74.0893 8.58288 74.0893 7.78021C74.0893 6.97754 74.2386 6.27754 74.5373 5.68021C74.8453 5.08288 75.2653 4.62554 75.7973 4.30821C76.3293 3.99088 76.936 3.83221 77.6173 3.83221ZM77.9813 4.96621C77.1973 4.96621 76.5673 5.21821 76.0913 5.72221C75.6246 6.21688 75.3913 6.90288 75.3913 7.78021C75.3913 8.65754 75.6246 9.34821 76.0913 9.85221C76.5673 10.3469 77.1973 10.5942 77.9813 10.5942C78.4853 10.5942 78.9333 10.4775 79.3253 10.2442C79.7266 10.0109 80.0393 9.68421 80.2633 9.26421C80.4873 8.83488 80.5993 8.34021 80.5993 7.78021C80.5993 7.22021 80.4873 6.72554 80.2633 6.29621C80.0393 5.86688 79.7266 5.54021 79.3253 5.31621C78.9333 5.08288 78.4853 4.96621 77.9813 4.96621ZM85.1749 1.25621V11.6162H83.9009V1.25621H85.1749ZM88.4972 1.25621V11.6162H87.2232V1.25621H88.4972ZM91.0774 3.93021L93.5694 9.97821L95.8794 3.93021H97.2934L92.7294 15.2562H91.2874L92.8834 11.4902L89.6494 3.93021H91.0774ZM105.07 3.83221C105.817 3.83221 106.447 4.01888 106.96 4.39221C107.483 4.76554 107.847 5.26488 108.052 5.89021V3.93021H109.326V11.7422C109.326 12.4515 109.177 13.0815 108.878 13.6322C108.58 14.1829 108.16 14.6122 107.618 14.9202C107.077 15.2282 106.447 15.3822 105.728 15.3822C104.692 15.3822 103.848 15.1302 103.194 14.6262C102.541 14.1315 102.126 13.4595 101.948 12.6102H103.208C103.358 13.1235 103.638 13.5249 104.048 13.8142C104.468 14.1129 105.005 14.2622 105.658 14.2622C106.349 14.2622 106.918 14.0382 107.366 13.5902C107.824 13.1515 108.052 12.5355 108.052 11.7422V9.65621C107.847 10.2815 107.483 10.7809 106.96 11.1542C106.447 11.5275 105.817 11.7142 105.07 11.7142C104.389 11.7142 103.782 11.5555 103.25 11.2382C102.718 10.9209 102.298 10.4682 101.99 9.88021C101.692 9.28288 101.542 8.58288 101.542 7.78021C101.542 6.97754 101.692 6.27754 101.99 5.68021C102.298 5.08288 102.718 4.62554 103.25 4.30821C103.782 3.99088 104.389 3.83221 105.07 3.83221ZM105.434 4.96621C104.65 4.96621 104.02 5.21821 103.544 5.72221C103.078 6.21688 102.844 6.90288 102.844 7.78021C102.844 8.65754 103.078 9.34821 103.544 9.85221C104.02 10.3469 104.65 10.5942 105.434 10.5942C105.938 10.5942 106.386 10.4775 106.778 10.2442C107.18 10.0109 107.492 9.68421 107.716 9.26421C107.94 8.83488 108.052 8.34021 108.052 7.78021C108.052 7.22021 107.94 6.72554 107.716 6.29621C107.492 5.86688 107.18 5.54021 106.778 5.31621C106.386 5.08288 105.938 4.96621 105.434 4.96621ZM118.424 7.34621C118.424 7.61688 118.405 7.85021 118.368 8.04621H112.222C112.25 8.92354 112.497 9.58154 112.964 10.0202C113.44 10.4589 114.019 10.6782 114.7 10.6782C115.316 10.6782 115.829 10.5242 116.24 10.2162C116.66 9.89888 116.917 9.47888 117.01 8.95621H118.368C118.275 9.48821 118.065 9.96421 117.738 10.3842C117.421 10.8042 117.005 11.1309 116.492 11.3642C115.979 11.5975 115.4 11.7142 114.756 11.7142C114.019 11.7142 113.365 11.5555 112.796 11.2382C112.227 10.9209 111.779 10.4682 111.452 9.88021C111.135 9.28288 110.976 8.58288 110.976 7.78021C110.976 6.97754 111.135 6.27754 111.452 5.68021C111.779 5.08288 112.227 4.62554 112.796 4.30821C113.365 3.99088 114.019 3.83221 114.756 3.83221C115.503 3.83221 116.151 3.99088 116.702 4.30821C117.262 4.62554 117.687 5.05021 117.976 5.58221C118.275 6.11421 118.424 6.70221 118.424 7.34621ZM117.136 7.43021C117.164 6.86088 117.071 6.38488 116.856 6.00221C116.641 5.61954 116.347 5.33488 115.974 5.14821C115.601 4.96154 115.195 4.86821 114.756 4.86821C114.056 4.86821 113.468 5.08754 112.992 5.52621C112.516 5.95554 112.259 6.59021 112.222 7.43021H117.136ZM123.758 10.4962V11.6162H122.806C122.022 11.6162 121.434 11.4295 121.042 11.0562C120.66 10.6829 120.468 10.0575 120.468 9.18021V5.03621H119.32V3.93021H120.468V2.01221H121.756V3.93021H123.744V5.03621H121.756V9.20821C121.756 9.70288 121.845 10.0435 122.022 10.2302C122.209 10.4075 122.526 10.4962 122.974 10.4962H123.758ZM132.44 10.4962V11.6162H131.488C130.704 11.6162 130.116 11.4295 129.724 11.0562C129.341 10.6829 129.15 10.0575 129.15 9.18021V5.03621H128.002V3.93021H129.15V2.01221H130.438V3.93021H132.426V5.03621H130.438V9.20821C130.438 9.70288 130.527 10.0435 130.704 10.2302C130.891 10.4075 131.208 10.4962 131.656 10.4962H132.44ZM137.481 3.83221C138.218 3.83221 138.876 3.99088 139.455 4.30821C140.043 4.62554 140.5 5.08288 140.827 5.68021C141.163 6.27754 141.331 6.97754 141.331 7.78021C141.331 8.58288 141.163 9.28288 140.827 9.88021C140.5 10.4682 140.043 10.9209 139.455 11.2382C138.876 11.5555 138.218 11.7142 137.481 11.7142C136.743 11.7142 136.081 11.5555 135.493 11.2382C134.914 10.9209 134.457 10.4682 134.121 9.88021C133.785 9.28288 133.617 8.58288 133.617 7.78021C133.617 6.97754 133.785 6.27754 134.121 5.68021C134.457 5.08288 134.914 4.62554 135.493 4.30821C136.081 3.99088 136.743 3.83221 137.481 3.83221ZM137.481 4.95221C137.023 4.95221 136.599 5.05488 136.207 5.26021C135.824 5.46554 135.511 5.78288 135.269 6.21221C135.035 6.63221 134.919 7.15488 134.919 7.78021C134.919 8.39621 135.035 8.91888 135.269 9.34821C135.511 9.76821 135.824 10.0809 136.207 10.2862C136.599 10.4915 137.023 10.5942 137.481 10.5942C137.938 10.5942 138.358 10.4915 138.741 10.2862C139.133 10.0809 139.445 9.76821 139.679 9.34821C139.921 8.91888 140.043 8.39621 140.043 7.78021C140.043 7.15488 139.921 6.63221 139.679 6.21221C139.445 5.78288 139.133 5.46554 138.741 5.26021C138.358 5.05488 137.938 4.95221 137.481 4.95221ZM150.118 10.4962V11.6162H149.166C148.382 11.6162 147.794 11.4295 147.402 11.0562C147.019 10.6829 146.828 10.0575 146.828 9.18021V5.03621H145.68V3.93021H146.828V2.01221H148.116V3.93021H150.104V5.03621H148.116V9.20821C148.116 9.70288 148.204 10.0435 148.382 10.2302C148.568 10.4075 148.886 10.4962 149.334 10.4962H150.118ZM155.718 3.80421C156.614 3.80421 157.338 4.09354 157.888 4.67221C158.439 5.24154 158.714 6.06754 158.714 7.15021V11.6162H157.44V7.26221C157.44 6.49688 157.244 5.90888 156.852 5.49821C156.46 5.08754 155.928 4.88221 155.256 4.88221C154.556 4.88221 153.996 5.11088 153.576 5.56821C153.156 6.01621 152.946 6.67421 152.946 7.54221V11.6162H151.672V1.25621H152.946V5.75021C153.142 5.12488 153.488 4.64421 153.982 4.30821C154.486 3.97221 155.065 3.80421 155.718 3.80421ZM167.738 7.34621C167.738 7.61688 167.72 7.85021 167.682 8.04621H161.536C161.564 8.92354 161.812 9.58154 162.278 10.0202C162.754 10.4589 163.333 10.6782 164.014 10.6782C164.63 10.6782 165.144 10.5242 165.554 10.2162C165.974 9.89888 166.231 9.47888 166.324 8.95621H167.682C167.589 9.48821 167.379 9.96421 167.052 10.3842C166.735 10.8042 166.32 11.1309 165.806 11.3642C165.293 11.5975 164.714 11.7142 164.07 11.7142C163.333 11.7142 162.68 11.5555 162.11 11.2382C161.541 10.9209 161.093 10.4682 160.766 9.88021C160.449 9.28288 160.29 8.58288 160.29 7.78021C160.29 6.97754 160.449 6.27754 160.766 5.68021C161.093 5.08288 161.541 4.62554 162.11 4.30821C162.68 3.99088 163.333 3.83221 164.07 3.83221C164.817 3.83221 165.466 3.99088 166.016 4.30821C166.576 4.62554 167.001 5.05021 167.29 5.58221C167.589 6.11421 167.738 6.70221 167.738 7.34621ZM166.45 7.43021C166.478 6.86088 166.385 6.38488 166.17 6.00221C165.956 5.61954 165.662 5.33488 165.288 5.14821C164.915 4.96154 164.509 4.86821 164.07 4.86821C163.37 4.86821 162.782 5.08754 162.306 5.52621C161.83 5.95554 161.574 6.59021 161.536 7.43021H166.45ZM4.508 27.8322C5.24533 27.8322 5.90333 27.9909 6.482 28.3082C7.07 28.6255 7.52733 29.0829 7.854 29.6802C8.19 30.2775 8.358 30.9775 8.358 31.7802C8.358 32.5829 8.19 33.2829 7.854 33.8802C7.52733 34.4682 7.07 34.9209 6.482 35.2382C5.90333 35.5555 5.24533 35.7142 4.508 35.7142C3.77067 35.7142 3.108 35.5555 2.52 35.2382C1.94133 34.9209 1.484 34.4682 1.148 33.8802C0.812 33.2829 0.644 32.5829 0.644 31.7802C0.644 30.9775 0.812 30.2775 1.148 29.6802C1.484 29.0829 1.94133 28.6255 2.52 28.3082C3.108 27.9909 3.77067 27.8322 4.508 27.8322ZM4.508 28.9522C4.05067 28.9522 3.626 29.0549 3.234 29.2602C2.85133 29.4655 2.53867 29.7829 2.296 30.2122C2.06267 30.6322 1.946 31.1549 1.946 31.7802C1.946 32.3962 2.06267 32.9189 2.296 33.3482C2.53867 33.7682 2.85133 34.0809 3.234 34.2862C3.626 34.4915 4.05067 34.5942 4.508 34.5942C4.96533 34.5942 5.38533 34.4915 5.768 34.2862C6.16 34.0809 6.47267 33.7682 6.706 33.3482C6.94867 32.9189 7.07 32.3962 7.07 31.7802C7.07 31.1549 6.94867 30.6322 6.706 30.2122C6.47267 29.7829 6.16 29.4655 5.768 29.2602C5.38533 29.0549 4.96533 28.9522 4.508 28.9522ZM14.0641 27.8042C14.9601 27.8042 15.6834 28.0935 16.2341 28.6722C16.7848 29.2415 17.0601 30.0675 17.0601 31.1502V35.6162H15.7861V31.2622C15.7861 30.4969 15.5901 29.9089 15.1981 29.4982C14.8061 29.0875 14.2741 28.8822 13.6021 28.8822C12.9021 28.8822 12.3421 29.1109 11.9221 29.5682C11.5021 30.0162 11.2921 30.6742 11.2921 31.5422V35.6162H10.0181V27.9302H11.2921V29.7502C11.4881 29.1249 11.8334 28.6442 12.3281 28.3082C12.8321 27.9722 13.4108 27.8042 14.0641 27.8042ZM20.2882 25.2562V35.6162H19.0142V25.2562H20.2882ZM22.1125 25.6762C22.1125 25.4429 22.1918 25.2562 22.3505 25.1162C22.5091 24.9669 22.7191 24.8922 22.9805 24.8922C23.2418 24.8922 23.4518 24.9669 23.6105 25.1162C23.7691 25.2562 23.8485 25.4429 23.8485 25.6762C23.8485 25.9095 23.7691 26.1009 23.6105 26.2502C23.4518 26.3902 23.2418 26.4602 22.9805 26.4602C22.7191 26.4602 22.5091 26.3902 22.3505 26.2502C22.1918 26.1009 22.1125 25.9095 22.1125 25.6762ZM23.6105 27.9302V35.6162H22.3365V27.9302H23.6105ZM29.7047 27.8042C30.6007 27.8042 31.3241 28.0935 31.8747 28.6722C32.4254 29.2415 32.7007 30.0675 32.7007 31.1502V35.6162H31.4267V31.2622C31.4267 30.4969 31.2307 29.9089 30.8387 29.4982C30.4467 29.0875 29.9147 28.8822 29.2427 28.8822C28.5427 28.8822 27.9827 29.1109 27.5627 29.5682C27.1427 30.0162 26.9327 30.6742 26.9327 31.5422V35.6162H25.6587V27.9302H26.9327V29.7502C27.1287 29.1249 27.4741 28.6442 27.9687 28.3082C28.4727 27.9722 29.0514 27.8042 29.7047 27.8042ZM41.7248 31.3462C41.7248 31.6169 41.7061 31.8502 41.6688 32.0462H35.5228C35.5508 32.9235 35.7981 33.5815 36.2648 34.0202C36.7408 34.4589 37.3195 34.6782 38.0008 34.6782C38.6168 34.6782 39.1301 34.5242 39.5408 34.2162C39.9608 33.8989 40.2175 33.4789 40.3108 32.9562H41.6688C41.5755 33.4882 41.3655 33.9642 41.0388 34.3842C40.7215 34.8042 40.3061 35.1309 39.7928 35.3642C39.2795 35.5975 38.7008 35.7142 38.0568 35.7142C37.3195 35.7142 36.6661 35.5555 36.0968 35.2382C35.5275 34.9209 35.0795 34.4682 34.7528 33.8802C34.4355 33.2829 34.2768 32.5829 34.2768 31.7802C34.2768 30.9775 34.4355 30.2775 34.7528 29.6802C35.0795 29.0829 35.5275 28.6255 36.0968 28.3082C36.6661 27.9909 37.3195 27.8322 38.0568 27.8322C38.8035 27.8322 39.4521 27.9909 40.0028 28.3082C40.5628 28.6255 40.9875 29.0502 41.2768 29.5822C41.5755 30.1142 41.7248 30.7022 41.7248 31.3462ZM40.4368 31.4302C40.4648 30.8609 40.3715 30.3849 40.1568 30.0022C39.9421 29.6195 39.6481 29.3349 39.2748 29.1482C38.9015 28.9615 38.4955 28.8682 38.0568 28.8682C37.3568 28.8682 36.7688 29.0875 36.2928 29.5262C35.8168 29.9555 35.5601 30.5902 35.5228 31.4302H40.4368ZM49.8321 34.2582L52.2121 27.9302H53.5841L50.5741 35.6162H49.0621L46.0521 27.9302H47.4241L49.8321 34.2582ZM61.9045 31.3462C61.9045 31.6169 61.8858 31.8502 61.8485 32.0462H55.7025C55.7305 32.9235 55.9778 33.5815 56.4445 34.0202C56.9205 34.4589 57.4992 34.6782 58.1805 34.6782C58.7965 34.6782 59.3098 34.5242 59.7205 34.2162C60.1405 33.8989 60.3972 33.4789 60.4905 32.9562H61.8485C61.7552 33.4882 61.5452 33.9642 61.2185 34.3842C60.9012 34.8042 60.4858 35.1309 59.9725 35.3642C59.4592 35.5975 58.8805 35.7142 58.2365 35.7142C57.4992 35.7142 56.8458 35.5555 56.2765 35.2382C55.7072 34.9209 55.2592 34.4682 54.9325 33.8802C54.6152 33.2829 54.4565 32.5829 54.4565 31.7802C54.4565 30.9775 54.6152 30.2775 54.9325 29.6802C55.2592 29.0829 55.7072 28.6255 56.2765 28.3082C56.8458 27.9909 57.4992 27.8322 58.2365 27.8322C58.9832 27.8322 59.6318 27.9909 60.1825 28.3082C60.7425 28.6255 61.1672 29.0502 61.4565 29.5822C61.7552 30.1142 61.9045 30.7022 61.9045 31.3462ZM60.6165 31.4302C60.6445 30.8609 60.5512 30.3849 60.3365 30.0022C60.1218 29.6195 59.8278 29.3349 59.4545 29.1482C59.0812 28.9615 58.6752 28.8682 58.2365 28.8682C57.5365 28.8682 56.9485 29.0875 56.4725 29.5262C55.9965 29.9555 55.7398 30.5902 55.7025 31.4302H60.6165ZM64.8448 29.4842C65.0968 28.9522 65.4655 28.5415 65.9508 28.2522C66.4362 27.9535 67.0148 27.8042 67.6868 27.8042V29.1902H67.2948C66.5762 29.1902 65.9882 29.3769 65.5308 29.7502C65.0735 30.1142 64.8448 30.7209 64.8448 31.5702V35.6162H63.5708V27.9302H64.8448V29.4842ZM71.3519 27.8322C72.2199 27.8322 72.9152 28.0609 73.4379 28.5182C73.9699 28.9662 74.2919 29.5729 74.4039 30.3382H73.1859C73.1299 29.8809 72.9385 29.5075 72.6119 29.2182C72.2945 28.9195 71.8652 28.7702 71.3239 28.7702C70.8665 28.7702 70.5072 28.8822 70.2459 29.1062C69.9939 29.3209 69.8679 29.6149 69.8679 29.9882C69.8679 30.2682 69.9519 30.4969 70.1199 30.6742C70.2972 30.8422 70.5119 30.9729 70.7639 31.0662C71.0252 31.1502 71.3799 31.2435 71.8279 31.3462C72.3972 31.4769 72.8545 31.6122 73.1999 31.7522C73.5545 31.8829 73.8532 32.0975 74.0959 32.3962C74.3479 32.6949 74.4739 33.0962 74.4739 33.6002C74.4739 34.2255 74.2359 34.7342 73.7599 35.1262C73.2932 35.5182 72.6679 35.7142 71.8839 35.7142C70.9692 35.7142 70.2225 35.4949 69.6439 35.0562C69.0652 34.6175 68.7245 34.0062 68.6219 33.2222H69.8539C69.9005 33.6889 70.1012 34.0669 70.4559 34.3562C70.8199 34.6455 71.2959 34.7902 71.8839 34.7902C72.3225 34.7902 72.6632 34.6782 72.9059 34.4542C73.1579 34.2302 73.2839 33.9362 73.2839 33.5722C73.2839 33.2735 73.1952 33.0355 73.0179 32.8582C72.8405 32.6809 72.6212 32.5455 72.3599 32.4522C72.0985 32.3589 71.7392 32.2609 71.2819 32.1582C70.7125 32.0275 70.2552 31.8969 69.9099 31.7662C69.5739 31.6355 69.2845 31.4302 69.0419 31.1502C68.8085 30.8609 68.6919 30.4735 68.6919 29.9882C68.6919 29.3442 68.9299 28.8262 69.4059 28.4342C69.8819 28.0329 70.5305 27.8322 71.3519 27.8322ZM75.9523 25.6762C75.9523 25.4429 76.0316 25.2562 76.1903 25.1162C76.349 24.9669 76.559 24.8922 76.8203 24.8922C77.0816 24.8922 77.2916 24.9669 77.4503 25.1162C77.609 25.2562 77.6883 25.4429 77.6883 25.6762C77.6883 25.9095 77.609 26.1009 77.4503 26.2502C77.2916 26.3902 77.0816 26.4602 76.8203 26.4602C76.559 26.4602 76.349 26.3902 76.1903 26.2502C76.0316 26.1009 75.9523 25.9095 75.9523 25.6762ZM77.4503 27.9302V35.6162H76.1763V27.9302H77.4503ZM82.9846 27.8322C83.7219 27.8322 84.3799 27.9909 84.9586 28.3082C85.5466 28.6255 86.0039 29.0829 86.3306 29.6802C86.6666 30.2775 86.8346 30.9775 86.8346 31.7802C86.8346 32.5829 86.6666 33.2829 86.3306 33.8802C86.0039 34.4682 85.5466 34.9209 84.9586 35.2382C84.3799 35.5555 83.7219 35.7142 82.9846 35.7142C82.2472 35.7142 81.5846 35.5555 80.9966 35.2382C80.4179 34.9209 79.9606 34.4682 79.6246 33.8802C79.2886 33.2829 79.1206 32.5829 79.1206 31.7802C79.1206 30.9775 79.2886 30.2775 79.6246 29.6802C79.9606 29.0829 80.4179 28.6255 80.9966 28.3082C81.5846 27.9909 82.2472 27.8322 82.9846 27.8322ZM82.9846 28.9522C82.5272 28.9522 82.1026 29.0549 81.7106 29.2602C81.3279 29.4655 81.0152 29.7829 80.7726 30.2122C80.5392 30.6322 80.4226 31.1549 80.4226 31.7802C80.4226 32.3962 80.5392 32.9189 80.7726 33.3482C81.0152 33.7682 81.3279 34.0809 81.7106 34.2862C82.1026 34.4915 82.5272 34.5942 82.9846 34.5942C83.4419 34.5942 83.8619 34.4915 84.2446 34.2862C84.6366 34.0809 84.9492 33.7682 85.1826 33.3482C85.4252 32.9189 85.5466 32.3962 85.5466 31.7802C85.5466 31.1549 85.4252 30.6322 85.1826 30.2122C84.9492 29.7829 84.6366 29.4655 84.2446 29.2602C83.8619 29.0549 83.4419 28.9522 82.9846 28.9522ZM92.5407 27.8042C93.4367 27.8042 94.16 28.0935 94.7107 28.6722C95.2613 29.2415 95.5367 30.0675 95.5367 31.1502V35.6162H94.2627V31.2622C94.2627 30.4969 94.0667 29.9089 93.6747 29.4982C93.2827 29.0875 92.7507 28.8822 92.0787 28.8822C91.3787 28.8822 90.8187 29.1109 90.3987 29.5682C89.9787 30.0162 89.7687 30.6742 89.7687 31.5422V35.6162H88.4947V27.9302H89.7687V29.7502C89.9647 29.1249 90.31 28.6442 90.8047 28.3082C91.3087 27.9722 91.8873 27.8042 92.5407 27.8042ZM104.436 27.8322C105.173 27.8322 105.831 27.9909 106.41 28.3082C106.998 28.6255 107.455 29.0829 107.782 29.6802C108.118 30.2775 108.286 30.9775 108.286 31.7802C108.286 32.5829 108.118 33.2829 107.782 33.8802C107.455 34.4682 106.998 34.9209 106.41 35.2382C105.831 35.5555 105.173 35.7142 104.436 35.7142C103.698 35.7142 103.036 35.5555 102.448 35.2382C101.869 34.9209 101.412 34.4682 101.076 33.8802C100.74 33.2829 100.572 32.5829 100.572 31.7802C100.572 30.9775 100.74 30.2775 101.076 29.6802C101.412 29.0829 101.869 28.6255 102.448 28.3082C103.036 27.9909 103.698 27.8322 104.436 27.8322ZM104.436 28.9522C103.978 28.9522 103.554 29.0549 103.162 29.2602C102.779 29.4655 102.466 29.7829 102.224 30.2122C101.99 30.6322 101.874 31.1549 101.874 31.7802C101.874 32.3962 101.99 32.9189 102.224 33.3482C102.466 33.7682 102.779 34.0809 103.162 34.2862C103.554 34.4915 103.978 34.5942 104.436 34.5942C104.893 34.5942 105.313 34.4915 105.696 34.2862C106.088 34.0809 106.4 33.7682 106.634 33.3482C106.876 32.9189 106.998 32.3962 106.998 31.7802C106.998 31.1549 106.876 30.6322 106.634 30.2122C106.4 29.7829 106.088 29.4655 105.696 29.2602C105.313 29.0549 104.893 28.9522 104.436 28.9522ZM113.348 26.1102C112.666 26.1009 112.19 26.2175 111.92 26.4602C111.658 26.7029 111.528 27.1229 111.528 27.7202V27.9302H113.348V29.0502H111.528V35.6162H110.254V29.0502H109.148V27.9302H110.254V27.6222C110.254 25.7835 111.285 24.9062 113.348 24.9902V26.1102ZM127.64 27.8042C128.536 27.8042 129.255 28.0935 129.796 28.6722C130.347 29.2415 130.622 30.0675 130.622 31.1502V35.6162H129.348V31.2622C129.348 30.5062 129.161 29.9275 128.788 29.5262C128.424 29.1249 127.92 28.9242 127.276 28.9242C126.604 28.9242 126.063 29.1482 125.652 29.5962C125.251 30.0349 125.05 30.6835 125.05 31.5422V35.6162H123.776V31.2622C123.776 30.5062 123.589 29.9275 123.216 29.5262C122.843 29.1249 122.339 28.9242 121.704 28.9242C121.023 28.9242 120.477 29.1482 120.066 29.5962C119.665 30.0349 119.464 30.6835 119.464 31.5422V35.6162H118.19V27.9302H119.464V29.6802C119.651 29.0735 119.982 28.6115 120.458 28.2942C120.943 27.9675 121.499 27.8042 122.124 27.8042C122.777 27.8042 123.342 27.9722 123.818 28.3082C124.303 28.6349 124.649 29.1202 124.854 29.7642C125.069 29.1389 125.428 28.6582 125.932 28.3222C126.436 27.9769 127.005 27.8042 127.64 27.8042ZM139.67 31.3462C139.67 31.6169 139.651 31.8502 139.614 32.0462H133.468C133.496 32.9235 133.743 33.5815 134.21 34.0202C134.686 34.4589 135.265 34.6782 135.946 34.6782C136.562 34.6782 137.075 34.5242 137.486 34.2162C137.906 33.8989 138.163 33.4789 138.256 32.9562H139.614C139.521 33.4882 139.311 33.9642 138.984 34.3842C138.667 34.8042 138.251 35.1309 137.738 35.3642C137.225 35.5975 136.646 35.7142 136.002 35.7142C135.265 35.7142 134.611 35.5555 134.042 35.2382C133.473 34.9209 133.025 34.4682 132.698 33.8802C132.381 33.2829 132.222 32.5829 132.222 31.7802C132.222 30.9775 132.381 30.2775 132.698 29.6802C133.025 29.0829 133.473 28.6255 134.042 28.3082C134.611 27.9909 135.265 27.8322 136.002 27.8322C136.749 27.8322 137.397 27.9909 137.948 28.3082C138.508 28.6255 138.933 29.0502 139.222 29.5822C139.521 30.1142 139.67 30.7022 139.67 31.3462ZM138.382 31.4302C138.41 30.8609 138.317 30.3849 138.102 30.0022C137.887 29.6195 137.593 29.3349 137.22 29.1482C136.847 28.9615 136.441 28.8682 136.002 28.8682C135.302 28.8682 134.714 29.0875 134.238 29.5262C133.762 29.9555 133.505 30.5902 133.468 31.4302H138.382ZM145.382 27.8042C146.278 27.8042 147.002 28.0935 147.552 28.6722C148.103 29.2415 148.378 30.0675 148.378 31.1502V35.6162H147.104V31.2622C147.104 30.4969 146.908 29.9089 146.516 29.4982C146.124 29.0875 145.592 28.8822 144.92 28.8822C144.22 28.8822 143.66 29.1109 143.24 29.5682C142.82 30.0162 142.61 30.6742 142.61 31.5422V35.6162H141.336V27.9302H142.61V29.7502C142.806 29.1249 143.152 28.6442 143.646 28.3082C144.15 27.9722 144.729 27.8042 145.382 27.8042ZM157.165 27.9302V35.6162H155.891V33.8102C155.695 34.4355 155.345 34.9162 154.841 35.2522C154.346 35.5789 153.767 35.7422 153.105 35.7422C152.218 35.7422 151.499 35.4575 150.949 34.8882C150.398 34.3095 150.123 33.4835 150.123 32.4102V27.9302H151.397V32.2842C151.397 33.0495 151.593 33.6422 151.985 34.0622C152.377 34.4729 152.909 34.6782 153.581 34.6782C154.281 34.6782 154.841 34.4542 155.261 34.0062C155.681 33.5489 155.891 32.8862 155.891 32.0182V27.9302H157.165ZM172.563 29.9462V31.0242H162.273V29.9462H172.563ZM0.798 49.6762C0.798 49.4429 0.877333 49.2562 1.036 49.1162C1.19467 48.9669 1.40467 48.8922 1.666 48.8922C1.92733 48.8922 2.13733 48.9669 2.296 49.1162C2.45467 49.2562 2.534 49.4429 2.534 49.6762C2.534 49.9095 2.45467 50.1009 2.296 50.2502C2.13733 50.3902 1.92733 50.4602 1.666 50.4602C1.40467 50.4602 1.19467 50.3902 1.036 50.2502C0.877333 50.1009 0.798 49.9095 0.798 49.6762ZM2.296 51.9302V59.6162H1.022V51.9302H2.296ZM8.01227 58.4962V59.6162H7.06027C6.27627 59.6162 5.68827 59.4295 5.29627 59.0562C4.9136 58.6829 4.72227 58.0575 4.72227 57.1802V53.0362H3.57427V51.9302H4.72227V50.0122H6.01027V51.9302H7.99827V53.0362H6.01027V57.2082C6.01027 57.7029 6.09893 58.0435 6.27627 58.2302C6.46293 58.4075 6.78027 58.4962 7.22827 58.4962H8.01227ZM23.5819 51.9302L21.3699 59.6162H19.9979L17.8839 53.3582L15.7559 59.6162H14.3699L12.1859 51.9302H13.4739L15.1119 58.3982L17.2399 51.9302H18.5699L20.7119 58.3842L22.3639 51.9302H23.5819ZM24.546 49.6762C24.546 49.4429 24.6254 49.2562 24.784 49.1162C24.9427 48.9669 25.1527 48.8922 25.414 48.8922C25.6754 48.8922 25.8854 48.9669 26.044 49.1162C26.2027 49.2562 26.282 49.4429 26.282 49.6762C26.282 49.9095 26.2027 50.1009 26.044 50.2502C25.8854 50.3902 25.6754 50.4602 25.414 50.4602C25.1527 50.4602 24.9427 50.3902 24.784 50.2502C24.6254 50.1009 24.546 49.9095 24.546 49.6762ZM26.044 51.9302V59.6162H24.77V51.9302H26.044ZM29.3663 49.2562V59.6162H28.0923V49.2562H29.3663ZM32.6886 49.2562V59.6162H31.4146V49.2562H32.6886ZM42.4378 51.8322C43.1192 51.8322 43.7258 51.9909 44.2578 52.3082C44.7898 52.6255 45.2052 53.0829 45.5038 53.6802C45.8118 54.2775 45.9658 54.9775 45.9658 55.7802C45.9658 56.5829 45.8118 57.2829 45.5038 57.8802C45.2052 58.4682 44.7898 58.9209 44.2578 59.2382C43.7258 59.5555 43.1192 59.7142 42.4378 59.7142C41.6912 59.7142 41.0565 59.5275 40.5338 59.1542C40.0205 58.7715 39.6658 58.2722 39.4698 57.6562V59.6162H38.1958V49.2562H39.4698V53.8902C39.6658 53.2742 40.0205 52.7795 40.5338 52.4062C41.0565 52.0235 41.6912 51.8322 42.4378 51.8322ZM42.0738 52.9662C41.5792 52.9662 41.1312 53.0829 40.7298 53.3162C40.3285 53.5402 40.0158 53.8669 39.7918 54.2962C39.5678 54.7255 39.4558 55.2202 39.4558 55.7802C39.4558 56.3402 39.5678 56.8349 39.7918 57.2642C40.0158 57.6842 40.3285 58.0109 40.7298 58.2442C41.1312 58.4775 41.5792 58.5942 42.0738 58.5942C42.8672 58.5942 43.4972 58.3469 43.9638 57.8522C44.4398 57.3482 44.6778 56.6575 44.6778 55.7802C44.6778 54.9029 44.4398 54.2169 43.9638 53.7222C43.4972 53.2182 42.8672 52.9662 42.0738 52.9662ZM54.6994 55.3462C54.6994 55.6169 54.6808 55.8502 54.6434 56.0462H48.4974C48.5254 56.9235 48.7728 57.5815 49.2394 58.0202C49.7154 58.4589 50.2941 58.6782 50.9754 58.6782C51.5914 58.6782 52.1048 58.5242 52.5154 58.2162C52.9354 57.8989 53.1921 57.4789 53.2854 56.9562H54.6434C54.5501 57.4882 54.3401 57.9642 54.0134 58.3842C53.6961 58.8042 53.2808 59.1309 52.7674 59.3642C52.2541 59.5975 51.6754 59.7142 51.0314 59.7142C50.2941 59.7142 49.6408 59.5555 49.0714 59.2382C48.5021 58.9209 48.0541 58.4682 47.7274 57.8802C47.4101 57.2829 47.2514 56.5829 47.2514 55.7802C47.2514 54.9775 47.4101 54.2775 47.7274 53.6802C48.0541 53.0829 48.5021 52.6255 49.0714 52.3082C49.6408 51.9909 50.2941 51.8322 51.0314 51.8322C51.7781 51.8322 52.4268 51.9909 52.9774 52.3082C53.5374 52.6255 53.9621 53.0502 54.2514 53.5822C54.5501 54.1142 54.6994 54.7022 54.6994 55.3462ZM53.4114 55.4302C53.4394 54.8609 53.3461 54.3849 53.1314 54.0022C52.9168 53.6195 52.6228 53.3349 52.2494 53.1482C51.8761 52.9615 51.4701 52.8682 51.0314 52.8682C50.3314 52.8682 49.7434 53.0875 49.2674 53.5262C48.7914 53.9555 48.5348 54.5902 48.4974 55.4302H53.4114ZM63.4927 58.4962V59.6162H62.5407C61.7567 59.6162 61.1687 59.4295 60.7767 59.0562C60.3941 58.6829 60.2027 58.0575 60.2027 57.1802V53.0362H59.0547V51.9302H60.2027V50.0122H61.4907V51.9302H63.4787V53.0362H61.4907V57.2082C61.4907 57.7029 61.5794 58.0435 61.7567 58.2302C61.9434 58.4075 62.2607 58.4962 62.7087 58.4962H63.4927ZM66.3214 53.4842C66.5734 52.9522 66.9421 52.5415 67.4274 52.2522C67.9127 51.9535 68.4914 51.8042 69.1634 51.8042V53.1902H68.7714C68.0527 53.1902 67.4647 53.3769 67.0074 53.7502C66.5501 54.1142 66.3214 54.7209 66.3214 55.5702V59.6162H65.0474V51.9302H66.3214V53.4842ZM73.5704 51.8322C74.3171 51.8322 74.9471 52.0189 75.4604 52.3922C75.9831 52.7655 76.3471 53.2649 76.5524 53.8902V51.9302H77.8264V59.6162H76.5524V57.6562C76.3471 58.2815 75.9831 58.7809 75.4604 59.1542C74.9471 59.5275 74.3171 59.7142 73.5704 59.7142C72.8891 59.7142 72.2824 59.5555 71.7504 59.2382C71.2184 58.9209 70.7984 58.4682 70.4904 57.8802C70.1918 57.2829 70.0424 56.5829 70.0424 55.7802C70.0424 54.9775 70.1918 54.2775 70.4904 53.6802C70.7984 53.0829 71.2184 52.6255 71.7504 52.3082C72.2824 51.9909 72.8891 51.8322 73.5704 51.8322ZM73.9344 52.9662C73.1504 52.9662 72.5204 53.2182 72.0444 53.7222C71.5778 54.2169 71.3444 54.9029 71.3444 55.7802C71.3444 56.6575 71.5778 57.3482 72.0444 57.8522C72.5204 58.3469 73.1504 58.5942 73.9344 58.5942C74.4384 58.5942 74.8864 58.4775 75.2784 58.2442C75.6798 58.0109 75.9924 57.6842 76.2164 57.2642C76.4404 56.8349 76.5524 56.3402 76.5524 55.7802C76.5524 55.2202 76.4404 54.7255 76.2164 54.2962C75.9924 53.8669 75.6798 53.5402 75.2784 53.3162C74.8864 53.0829 74.4384 52.9662 73.9344 52.9662ZM83.9 51.8042C84.796 51.8042 85.5194 52.0935 86.07 52.6722C86.6207 53.2415 86.896 54.0675 86.896 55.1502V59.6162H85.622V55.2622C85.622 54.4969 85.426 53.9089 85.034 53.4982C84.642 53.0875 84.11 52.8822 83.438 52.8822C82.738 52.8822 82.178 53.1109 81.758 53.5682C81.338 54.0162 81.128 54.6742 81.128 55.5422V59.6162H79.854V51.9302H81.128V53.7502C81.324 53.1249 81.6694 52.6442 82.164 52.3082C82.668 51.9722 83.2467 51.8042 83.9 51.8042ZM91.2581 51.8322C92.1261 51.8322 92.8215 52.0609 93.3441 52.5182C93.8761 52.9662 94.1981 53.5729 94.3101 54.3382H93.0921C93.0361 53.8809 92.8448 53.5075 92.5181 53.2182C92.2008 52.9195 91.7715 52.7702 91.2301 52.7702C90.7728 52.7702 90.4135 52.8822 90.1521 53.1062C89.9001 53.3209 89.7741 53.6149 89.7741 53.9882C89.7741 54.2682 89.8581 54.4969 90.0261 54.6742C90.2035 54.8422 90.4181 54.9729 90.6701 55.0662C90.9315 55.1502 91.2861 55.2435 91.7341 55.3462C92.3035 55.4769 92.7608 55.6122 93.1061 55.7522C93.4608 55.8829 93.7595 56.0975 94.0021 56.3962C94.2541 56.6949 94.3801 57.0962 94.3801 57.6002C94.3801 58.2255 94.1421 58.7342 93.6661 59.1262C93.1995 59.5182 92.5741 59.7142 91.7901 59.7142C90.8755 59.7142 90.1288 59.4949 89.5501 59.0562C88.9715 58.6175 88.6308 58.0062 88.5281 57.2222H89.7601C89.8068 57.6889 90.0075 58.0669 90.3621 58.3562C90.7261 58.6455 91.2021 58.7902 91.7901 58.7902C92.2288 58.7902 92.5695 58.6782 92.8121 58.4542C93.0641 58.2302 93.1901 57.9362 93.1901 57.5722C93.1901 57.2735 93.1015 57.0355 92.9241 56.8582C92.7468 56.6809 92.5275 56.5455 92.2661 56.4522C92.0048 56.3589 91.6455 56.2609 91.1881 56.1582C90.6188 56.0275 90.1615 55.8969 89.8161 55.7662C89.4801 55.6355 89.1908 55.4302 88.9481 55.1502C88.7148 54.8609 88.5981 54.4735 88.5981 53.9882C88.5981 53.3442 88.8361 52.8262 89.3121 52.4342C89.7881 52.0329 90.4368 51.8322 91.2581 51.8322ZM97.3565 49.2562V59.6162H96.0825V49.2562H97.3565ZM102.555 51.8322C103.301 51.8322 103.931 52.0189 104.445 52.3922C104.967 52.7655 105.331 53.2649 105.537 53.8902V51.9302H106.811V59.6162H105.537V57.6562C105.331 58.2815 104.967 58.7809 104.445 59.1542C103.931 59.5275 103.301 59.7142 102.555 59.7142C101.873 59.7142 101.267 59.5555 100.735 59.2382C100.203 58.9209 99.7828 58.4682 99.4748 57.8802C99.1761 57.2829 99.0268 56.5829 99.0268 55.7802C99.0268 54.9775 99.1761 54.2775 99.4748 53.6802C99.7828 53.0829 100.203 52.6255 100.735 52.3082C101.267 51.9909 101.873 51.8322 102.555 51.8322ZM102.919 52.9662C102.135 52.9662 101.505 53.2182 101.029 53.7222C100.562 54.2169 100.329 54.9029 100.329 55.7802C100.329 56.6575 100.562 57.3482 101.029 57.8522C101.505 58.3469 102.135 58.5942 102.919 58.5942C103.423 58.5942 103.871 58.4775 104.263 58.2442C104.664 58.0109 104.977 57.6842 105.201 57.2642C105.425 56.8349 105.537 56.3402 105.537 55.7802C105.537 55.2202 105.425 54.7255 105.201 54.2962C104.977 53.8669 104.664 53.5402 104.263 53.3162C103.871 53.0829 103.423 52.9662 102.919 52.9662ZM112.506 58.4962V59.6162H111.554C110.77 59.6162 110.182 59.4295 109.79 59.0562C109.408 58.6829 109.216 58.0575 109.216 57.1802V53.0362H108.068V51.9302H109.216V50.0122H110.504V51.9302H112.492V53.0362H110.504V57.2082C110.504 57.7029 110.593 58.0435 110.77 58.2302C110.957 58.4075 111.274 58.4962 111.722 58.4962H112.506ZM121.131 55.3462C121.131 55.6169 121.112 55.8502 121.075 56.0462H114.929C114.957 56.9235 115.204 57.5815 115.671 58.0202C116.147 58.4589 116.726 58.6782 117.407 58.6782C118.023 58.6782 118.536 58.5242 118.947 58.2162C119.367 57.8989 119.624 57.4789 119.717 56.9562H121.075C120.982 57.4882 120.772 57.9642 120.445 58.3842C120.128 58.8042 119.712 59.1309 119.199 59.3642C118.686 59.5975 118.107 59.7142 117.463 59.7142C116.726 59.7142 116.072 59.5555 115.503 59.2382C114.934 58.9209 114.486 58.4682 114.159 57.8802C113.842 57.2829 113.683 56.5829 113.683 55.7802C113.683 54.9775 113.842 54.2775 114.159 53.6802C114.486 53.0829 114.934 52.6255 115.503 52.3082C116.072 51.9909 116.726 51.8322 117.463 51.8322C118.21 51.8322 118.858 51.9909 119.409 52.3082C119.969 52.6255 120.394 53.0502 120.683 53.5822C120.982 54.1142 121.131 54.7022 121.131 55.3462ZM119.843 55.4302C119.871 54.8609 119.778 54.3849 119.563 54.0022C119.348 53.6195 119.054 53.3349 118.681 53.1482C118.308 52.9615 117.902 52.8682 117.463 52.8682C116.763 52.8682 116.175 53.0875 115.699 53.5262C115.223 53.9555 114.966 54.5902 114.929 55.4302H119.843ZM125.947 51.8322C126.694 51.8322 127.324 52.0189 127.837 52.3922C128.36 52.7655 128.724 53.2649 128.929 53.8902V49.2562H130.203V59.6162H128.929V57.6562C128.724 58.2815 128.36 58.7809 127.837 59.1542C127.324 59.5275 126.694 59.7142 125.947 59.7142C125.266 59.7142 124.659 59.5555 124.127 59.2382C123.595 58.9209 123.175 58.4682 122.867 57.8802C122.569 57.2829 122.419 56.5829 122.419 55.7802C122.419 54.9775 122.569 54.2775 122.867 53.6802C123.175 53.0829 123.595 52.6255 124.127 52.3082C124.659 51.9909 125.266 51.8322 125.947 51.8322ZM126.311 52.9662C125.527 52.9662 124.897 53.2182 124.421 53.7222C123.955 54.2169 123.721 54.9029 123.721 55.7802C123.721 56.6575 123.955 57.3482 124.421 57.8522C124.897 58.3469 125.527 58.5942 126.311 58.5942C126.815 58.5942 127.263 58.4775 127.655 58.2442C128.057 58.0109 128.369 57.6842 128.593 57.2642C128.817 56.8349 128.929 56.3402 128.929 55.7802C128.929 55.2202 128.817 54.7255 128.593 54.2962C128.369 53.8669 128.057 53.5402 127.655 53.3162C127.263 53.0829 126.815 52.9662 126.311 52.9662ZM135.466 49.6762C135.466 49.4429 135.545 49.2562 135.704 49.1162C135.863 48.9669 136.073 48.8922 136.334 48.8922C136.595 48.8922 136.805 48.9669 136.964 49.1162C137.123 49.2562 137.202 49.4429 137.202 49.6762C137.202 49.9095 137.123 50.1009 136.964 50.2502C136.805 50.3902 136.595 50.4602 136.334 50.4602C136.073 50.4602 135.863 50.3902 135.704 50.2502C135.545 50.1009 135.466 49.9095 135.466 49.6762ZM136.964 51.9302V59.6162H135.69V51.9302H136.964ZM143.058 51.8042C143.954 51.8042 144.678 52.0935 145.228 52.6722C145.779 53.2415 146.054 54.0675 146.054 55.1502V59.6162H144.78V55.2622C144.78 54.4969 144.584 53.9089 144.192 53.4982C143.8 53.0875 143.268 52.8822 142.596 52.8822C141.896 52.8822 141.336 53.1109 140.916 53.5682C140.496 54.0162 140.286 54.6742 140.286 55.5422V59.6162H139.012V51.9302H140.286V53.7502C140.482 53.1249 140.828 52.6442 141.322 52.3082C141.826 51.9722 142.405 51.8042 143.058 51.8042ZM151.676 58.4962V59.6162H150.724C149.94 59.6162 149.352 59.4295 148.96 59.0562C148.578 58.6829 148.386 58.0575 148.386 57.1802V53.0362H147.238V51.9302H148.386V50.0122H149.674V51.9302H151.662V53.0362H149.674V57.2082C149.674 57.7029 149.763 58.0435 149.94 58.2302C150.127 58.4075 150.444 58.4962 150.892 58.4962H151.676ZM156.717 51.8322C157.454 51.8322 158.112 51.9909 158.691 52.3082C159.279 52.6255 159.736 53.0829 160.063 53.6802C160.399 54.2775 160.567 54.9775 160.567 55.7802C160.567 56.5829 160.399 57.2829 160.063 57.8802C159.736 58.4682 159.279 58.9209 158.691 59.2382C158.112 59.5555 157.454 59.7142 156.717 59.7142C155.98 59.7142 155.317 59.5555 154.729 59.2382C154.15 58.9209 153.693 58.4682 153.357 57.8802C153.021 57.2829 152.853 56.5829 152.853 55.7802C152.853 54.9775 153.021 54.2775 153.357 53.6802C153.693 53.0829 154.15 52.6255 154.729 52.3082C155.317 51.9909 155.98 51.8322 156.717 51.8322ZM156.717 52.9522C156.26 52.9522 155.835 53.0549 155.443 53.2602C155.06 53.4655 154.748 53.7829 154.505 54.2122C154.272 54.6322 154.155 55.1549 154.155 55.7802C154.155 56.3962 154.272 56.9189 154.505 57.3482C154.748 57.7682 155.06 58.0809 155.443 58.2862C155.835 58.4915 156.26 58.5942 156.717 58.5942C157.174 58.5942 157.594 58.4915 157.977 58.2862C158.369 58.0809 158.682 57.7682 158.915 57.3482C159.158 56.9189 159.279 56.3962 159.279 55.7802C159.279 55.1549 159.158 54.6322 158.915 54.2122C158.682 53.7829 158.369 53.4655 157.977 53.2602C157.594 53.0549 157.174 52.9522 156.717 52.9522ZM1.554 75.9302L4.046 81.9782L6.356 75.9302H7.77L3.206 87.2562H1.764L3.36 83.4902L0.126 75.9302H1.554ZM12.424 75.8322C13.1613 75.8322 13.8193 75.9909 14.398 76.3082C14.986 76.6255 15.4433 77.0829 15.77 77.6802C16.106 78.2775 16.274 78.9775 16.274 79.7802C16.274 80.5829 16.106 81.2829 15.77 81.8802C15.4433 82.4682 14.986 82.9209 14.398 83.2382C13.8193 83.5555 13.1613 83.7142 12.424 83.7142C11.6867 83.7142 11.024 83.5555 10.436 83.2382C9.85735 82.9209 9.40002 82.4682 9.06402 81.8802C8.72802 81.2829 8.56002 80.5829 8.56002 79.7802C8.56002 78.9775 8.72802 78.2775 9.06402 77.6802C9.40002 77.0829 9.85735 76.6255 10.436 76.3082C11.024 75.9909 11.6867 75.8322 12.424 75.8322ZM12.424 76.9522C11.9667 76.9522 11.542 77.0549 11.15 77.2602C10.7673 77.4655 10.4547 77.7829 10.212 78.2122C9.97868 78.6322 9.86202 79.1549 9.86202 79.7802C9.86202 80.3962 9.97868 80.9189 10.212 81.3482C10.4547 81.7682 10.7673 82.0809 11.15 82.2862C11.542 82.4915 11.9667 82.5942 12.424 82.5942C12.8813 82.5942 13.3013 82.4915 13.684 82.2862C14.076 82.0809 14.3887 81.7682 14.622 81.3482C14.8647 80.9189 14.986 80.3962 14.986 79.7802C14.986 79.1549 14.8647 78.6322 14.622 78.2122C14.3887 77.7829 14.076 77.4655 13.684 77.2602C13.3013 77.0549 12.8813 76.9522 12.424 76.9522ZM24.7661 75.9302V83.6162H23.4921V81.8102C23.2961 82.4355 22.9461 82.9162 22.4421 83.2522C21.9474 83.5789 21.3688 83.7422 20.7061 83.7422C19.8194 83.7422 19.1008 83.4575 18.5501 82.8882C17.9994 82.3095 17.7241 81.4835 17.7241 80.4102V75.9302H18.9981V80.2842C18.9981 81.0495 19.1941 81.6422 19.5861 82.0622C19.9781 82.4729 20.5101 82.6782 21.1821 82.6782C21.8821 82.6782 22.4421 82.4542 22.8621 82.0062C23.2821 81.5489 23.4921 80.8862 23.4921 80.0182V75.9302H24.7661ZM28.0812 77.4842C28.3332 76.9522 28.7018 76.5415 29.1872 76.2522C29.6725 75.9535 30.2512 75.8042 30.9232 75.8042V77.1902H30.5312C29.8125 77.1902 29.2245 77.3769 28.7672 77.7502C28.3098 78.1142 28.0812 78.7209 28.0812 79.5702V83.6162H26.8072V75.9302H28.0812V77.4842ZM39.6852 75.8042C40.5812 75.8042 41.3045 76.0935 41.8552 76.6722C42.4059 77.2415 42.6812 78.0675 42.6812 79.1502V83.6162H41.4072V79.2622C41.4072 78.4969 41.2112 77.9089 40.8192 77.4982C40.4272 77.0875 39.8952 76.8822 39.2232 76.8822C38.5232 76.8822 37.9632 77.1109 37.5432 77.5682C37.1232 78.0162 36.9132 78.6742 36.9132 79.5422V83.6162H35.6392V75.9302H36.9132V77.7502C37.1092 77.1249 37.4545 76.6442 37.9492 76.3082C38.4532 75.9722 39.0319 75.8042 39.6852 75.8042ZM47.7853 75.8322C48.5319 75.8322 49.1619 76.0189 49.6753 76.3922C50.1979 76.7655 50.5619 77.2649 50.7673 77.8902V75.9302H52.0413V83.6162H50.7673V81.6562C50.5619 82.2815 50.1979 82.7809 49.6753 83.1542C49.1619 83.5275 48.5319 83.7142 47.7853 83.7142C47.1039 83.7142 46.4973 83.5555 45.9653 83.2382C45.4333 82.9209 45.0133 82.4682 44.7053 81.8802C44.4066 81.2829 44.2573 80.5829 44.2573 79.7802C44.2573 78.9775 44.4066 78.2775 44.7053 77.6802C45.0133 77.0829 45.4333 76.6255 45.9653 76.3082C46.4973 75.9909 47.1039 75.8322 47.7853 75.8322ZM48.1493 76.9662C47.3653 76.9662 46.7353 77.2182 46.2593 77.7222C45.7926 78.2169 45.5593 78.9029 45.5593 79.7802C45.5593 80.6575 45.7926 81.3482 46.2593 81.8522C46.7353 82.3469 47.3653 82.5942 48.1493 82.5942C48.6533 82.5942 49.1013 82.4775 49.4933 82.2442C49.8946 82.0109 50.2073 81.6842 50.4313 81.2642C50.6553 80.8349 50.7673 80.3402 50.7673 79.7802C50.7673 79.2202 50.6553 78.7255 50.4313 78.2962C50.2073 77.8669 49.8946 77.5402 49.4933 77.3162C49.1013 77.0829 48.6533 76.9662 48.1493 76.9662ZM57.7369 82.4962V83.6162H56.7849C56.0009 83.6162 55.4129 83.4295 55.0209 83.0562C54.6382 82.6829 54.4469 82.0575 54.4469 81.1802V77.0362H53.2989V75.9302H54.4469V74.0122H55.7349V75.9302H57.7229V77.0362H55.7349V81.2082C55.7349 81.7029 55.8235 82.0435 56.0009 82.2302C56.1875 82.4075 56.5049 82.4962 56.9529 82.4962H57.7369ZM59.0675 73.6762C59.0675 73.4429 59.1469 73.2562 59.3055 73.1162C59.4642 72.9669 59.6742 72.8922 59.9355 72.8922C60.1969 72.8922 60.4069 72.9669 60.5655 73.1162C60.7242 73.2562 60.8035 73.4429 60.8035 73.6762C60.8035 73.9095 60.7242 74.1009 60.5655 74.2502C60.4069 74.3902 60.1969 74.4602 59.9355 74.4602C59.6742 74.4602 59.4642 74.3902 59.3055 74.2502C59.1469 74.1009 59.0675 73.9095 59.0675 73.6762ZM60.5655 75.9302V83.6162H59.2915V75.9302H60.5655ZM65.5958 82.2582L67.9758 75.9302H69.3478L66.3378 83.6162H64.8258L61.8158 75.9302H63.1878L65.5958 82.2582ZM77.6682 79.3462C77.6682 79.6169 77.6495 79.8502 77.6122 80.0462H71.4662C71.4942 80.9235 71.7415 81.5815 72.2082 82.0202C72.6842 82.4589 73.2628 82.6782 73.9442 82.6782C74.5602 82.6782 75.0735 82.5242 75.4842 82.2162C75.9042 81.8989 76.1608 81.4789 76.2542 80.9562H77.6122C77.5188 81.4882 77.3088 81.9642 76.9822 82.3842C76.6648 82.8042 76.2495 83.1309 75.7362 83.3642C75.2228 83.5975 74.6442 83.7142 74.0002 83.7142C73.2628 83.7142 72.6095 83.5555 72.0402 83.2382C71.4708 82.9209 71.0228 82.4682 70.6962 81.8802C70.3788 81.2829 70.2202 80.5829 70.2202 79.7802C70.2202 78.9775 70.3788 78.2775 70.6962 77.6802C71.0228 77.0829 71.4708 76.6255 72.0402 76.3082C72.6095 75.9909 73.2628 75.8322 74.0002 75.8322C74.7468 75.8322 75.3955 75.9909 75.9462 76.3082C76.5062 76.6255 76.9308 77.0502 77.2202 77.5822C77.5188 78.1142 77.6682 78.7022 77.6682 79.3462ZM76.3802 79.4302C76.4082 78.8609 76.3148 78.3849 76.1002 78.0022C75.8855 77.6195 75.5915 77.3349 75.2182 77.1482C74.8448 76.9615 74.4388 76.8682 74.0002 76.8682C73.3002 76.8682 72.7122 77.0875 72.2362 77.5262C71.7602 77.9555 71.5035 78.5902 71.4662 79.4302H76.3802ZM84.0675 73.2562V83.6162H82.7935V73.2562H84.0675ZM89.2658 75.8322C90.0124 75.8322 90.6424 76.0189 91.1558 76.3922C91.6784 76.7655 92.0424 77.2649 92.2478 77.8902V75.9302H93.5218V83.6162H92.2478V81.6562C92.0424 82.2815 91.6784 82.7809 91.1558 83.1542C90.6424 83.5275 90.0124 83.7142 89.2658 83.7142C88.5844 83.7142 87.9778 83.5555 87.4458 83.2382C86.9138 82.9209 86.4938 82.4682 86.1858 81.8802C85.8871 81.2829 85.7378 80.5829 85.7378 79.7802C85.7378 78.9775 85.8871 78.2775 86.1858 77.6802C86.4938 77.0829 86.9138 76.6255 87.4458 76.3082C87.9778 75.9909 88.5844 75.8322 89.2658 75.8322ZM89.6298 76.9662C88.8458 76.9662 88.2158 77.2182 87.7398 77.7222C87.2731 78.2169 87.0398 78.9029 87.0398 79.7802C87.0398 80.6575 87.2731 81.3482 87.7398 81.8522C88.2158 82.3469 88.8458 82.5942 89.6298 82.5942C90.1338 82.5942 90.5818 82.4775 90.9738 82.2442C91.3751 82.0109 91.6878 81.6842 91.9118 81.2642C92.1358 80.8349 92.2478 80.3402 92.2478 79.7802C92.2478 79.2202 92.1358 78.7255 91.9118 78.2962C91.6878 77.8669 91.3751 77.5402 90.9738 77.3162C90.5818 77.0829 90.1338 76.9662 89.6298 76.9662ZM99.5953 75.8042C100.491 75.8042 101.215 76.0935 101.765 76.6722C102.316 77.2415 102.591 78.0675 102.591 79.1502V83.6162H101.317V79.2622C101.317 78.4969 101.121 77.9089 100.729 77.4982C100.337 77.0875 99.8053 76.8822 99.1333 76.8822C98.4333 76.8822 97.8733 77.1109 97.4533 77.5682C97.0333 78.0162 96.8233 78.6742 96.8233 79.5422V83.6162H95.5493V75.9302H96.8233V77.7502C97.0193 77.1249 97.3647 76.6442 97.8593 76.3082C98.3633 75.9722 98.942 75.8042 99.5953 75.8042ZM107.695 75.8322C108.442 75.8322 109.072 76.0189 109.585 76.3922C110.108 76.7655 110.472 77.2649 110.677 77.8902V75.9302H111.951V83.7422C111.951 84.4515 111.802 85.0815 111.503 85.6322C111.205 86.1829 110.785 86.6122 110.243 86.9202C109.702 87.2282 109.072 87.3822 108.353 87.3822C107.317 87.3822 106.473 87.1302 105.819 86.6262C105.166 86.1315 104.751 85.4595 104.573 84.6102H105.833C105.983 85.1235 106.263 85.5249 106.673 85.8142C107.093 86.1129 107.63 86.2622 108.283 86.2622C108.974 86.2622 109.543 86.0382 109.991 85.5902C110.449 85.1515 110.677 84.5355 110.677 83.7422V81.6562C110.472 82.2815 110.108 82.7809 109.585 83.1542C109.072 83.5275 108.442 83.7142 107.695 83.7142C107.014 83.7142 106.407 83.5555 105.875 83.2382C105.343 82.9209 104.923 82.4682 104.615 81.8802C104.317 81.2829 104.167 80.5829 104.167 79.7802C104.167 78.9775 104.317 78.2775 104.615 77.6802C104.923 77.0829 105.343 76.6255 105.875 76.3082C106.407 75.9909 107.014 75.8322 107.695 75.8322ZM108.059 76.9662C107.275 76.9662 106.645 77.2182 106.169 77.7222C105.703 78.2169 105.469 78.9029 105.469 79.7802C105.469 80.6575 105.703 81.3482 106.169 81.8522C106.645 82.3469 107.275 82.5942 108.059 82.5942C108.563 82.5942 109.011 82.4775 109.403 82.2442C109.805 82.0109 110.117 81.6842 110.341 81.2642C110.565 80.8349 110.677 80.3402 110.677 79.7802C110.677 79.2202 110.565 78.7255 110.341 78.2962C110.117 77.8669 109.805 77.5402 109.403 77.3162C109.011 77.0829 108.563 76.9662 108.059 76.9662ZM120.811 75.9302V83.6162H119.537V81.8102C119.341 82.4355 118.991 82.9162 118.487 83.2522C117.992 83.5789 117.414 83.7422 116.751 83.7422C115.864 83.7422 115.146 83.4575 114.595 82.8882C114.044 82.3095 113.769 81.4835 113.769 80.4102V75.9302H115.043V80.2842C115.043 81.0495 115.239 81.6422 115.631 82.0622C116.023 82.4729 116.555 82.6782 117.227 82.6782C117.927 82.6782 118.487 82.4542 118.907 82.0062C119.327 81.5489 119.537 80.8862 119.537 80.0182V75.9302H120.811ZM126.002 75.8322C126.749 75.8322 127.379 76.0189 127.892 76.3922C128.415 76.7655 128.779 77.2649 128.984 77.8902V75.9302H130.258V83.6162H128.984V81.6562C128.779 82.2815 128.415 82.7809 127.892 83.1542C127.379 83.5275 126.749 83.7142 126.002 83.7142C125.321 83.7142 124.714 83.5555 124.182 83.2382C123.65 82.9209 123.23 82.4682 122.922 81.8802C122.623 81.2829 122.474 80.5829 122.474 79.7802C122.474 78.9775 122.623 78.2775 122.922 77.6802C123.23 77.0829 123.65 76.6255 124.182 76.3082C124.714 75.9909 125.321 75.8322 126.002 75.8322ZM126.366 76.9662C125.582 76.9662 124.952 77.2182 124.476 77.7222C124.009 78.2169 123.776 78.9029 123.776 79.7802C123.776 80.6575 124.009 81.3482 124.476 81.8522C124.952 82.3469 125.582 82.5942 126.366 82.5942C126.87 82.5942 127.318 82.4775 127.71 82.2442C128.111 82.0109 128.424 81.6842 128.648 81.2642C128.872 80.8349 128.984 80.3402 128.984 79.7802C128.984 79.2202 128.872 78.7255 128.648 78.2962C128.424 77.8669 128.111 77.5402 127.71 77.3162C127.318 77.0829 126.87 76.9662 126.366 76.9662ZM135.436 75.8322C136.182 75.8322 136.812 76.0189 137.326 76.3922C137.848 76.7655 138.212 77.2649 138.418 77.8902V75.9302H139.692V83.7422C139.692 84.4515 139.542 85.0815 139.244 85.6322C138.945 86.1829 138.525 86.6122 137.984 86.9202C137.442 87.2282 136.812 87.3822 136.094 87.3822C135.058 87.3822 134.213 87.1302 133.56 86.6262C132.906 86.1315 132.491 85.4595 132.314 84.6102H133.574C133.723 85.1235 134.003 85.5249 134.414 85.8142C134.834 86.1129 135.37 86.2622 136.024 86.2622C136.714 86.2622 137.284 86.0382 137.732 85.5902C138.189 85.1515 138.418 84.5355 138.418 83.7422V81.6562C138.212 82.2815 137.848 82.7809 137.326 83.1542C136.812 83.5275 136.182 83.7142 135.436 83.7142C134.754 83.7142 134.148 83.5555 133.616 83.2382C133.084 82.9209 132.664 82.4682 132.356 81.8802C132.057 81.2829 131.908 80.5829 131.908 79.7802C131.908 78.9775 132.057 78.2775 132.356 77.6802C132.664 77.0829 133.084 76.6255 133.616 76.3082C134.148 75.9909 134.754 75.8322 135.436 75.8322ZM135.8 76.9662C135.016 76.9662 134.386 77.2182 133.91 77.7222C133.443 78.2169 133.21 78.9029 133.21 79.7802C133.21 80.6575 133.443 81.3482 133.91 81.8522C134.386 82.3469 135.016 82.5942 135.8 82.5942C136.304 82.5942 136.752 82.4775 137.144 82.2442C137.545 82.0109 137.858 81.6842 138.082 81.2642C138.306 80.8349 138.418 80.3402 138.418 79.7802C138.418 79.2202 138.306 78.7255 138.082 78.2962C137.858 77.8669 137.545 77.5402 137.144 77.3162C136.752 77.0829 136.304 76.9662 135.8 76.9662ZM148.789 79.3462C148.789 79.6169 148.771 79.8502 148.733 80.0462H142.587C142.615 80.9235 142.863 81.5815 143.329 82.0202C143.805 82.4589 144.384 82.6782 145.065 82.6782C145.681 82.6782 146.195 82.5242 146.605 82.2162C147.025 81.8989 147.282 81.4789 147.375 80.9562H148.733C148.64 81.4882 148.43 81.9642 148.103 82.3842C147.786 82.8042 147.371 83.1309 146.857 83.3642C146.344 83.5975 145.765 83.7142 145.121 83.7142C144.384 83.7142 143.731 83.5555 143.161 83.2382C142.592 82.9209 142.144 82.4682 141.817 81.8802C141.5 81.2829 141.341 80.5829 141.341 79.7802C141.341 78.9775 141.5 78.2775 141.817 77.6802C142.144 77.0829 142.592 76.6255 143.161 76.3082C143.731 75.9909 144.384 75.8322 145.121 75.8322C145.868 75.8322 146.517 75.9909 147.067 76.3082C147.627 76.6255 148.052 77.0502 148.341 77.5822C148.64 78.1142 148.789 78.7022 148.789 79.3462ZM147.501 79.4302C147.529 78.8609 147.436 78.3849 147.221 78.0022C147.007 77.6195 146.713 77.3349 146.339 77.1482C145.966 76.9615 145.56 76.8682 145.121 76.8682C144.421 76.8682 143.833 77.0875 143.357 77.5262C142.881 77.9555 142.625 78.5902 142.587 79.4302H147.501ZM151.394 82.1182V83.6162H149.854V82.1182H151.394Z" fill="#2A2A38"/>
</svg>
