<svg width="24" height="21" viewBox="0 0 24 21" fill="none" xmlns="http://www.w3.org/2000/svg">
<path d="M2 21H0V19H2C2.552 19 3 18.552 3 18V17.606L1.312 16.727C0.635 16.374 0.223 15.682 0.236 14.919C0.25 14.156 0.684 13.479 1.373 13.148L3 12.37V11C3 10.541 3.312 10.141 3.758 10.03L6.044 9.459L3.293 6.707C3.105 6.52 3 6.266 3 6V0H5V5.586L7.458 8.044C7.975 8.561 8.166 9.289 7.972 9.993C7.777 10.696 7.238 11.222 6.529 11.399L5 11.781V13C5 13.385 4.779 13.735 4.432 13.901L2.237 14.953L4.463 16.113C4.793 16.285 5 16.627 5 17V18C5 19.654 3.654 21 2 21Z" fill="#C7C0A6"/>
<path d="M21 2H13C11.346 2 10 3.346 10 5V10.667L6 16H21C22.654 16 24 14.654 24 13V5C24 3.346 22.654 2 21 2ZM20 12H14V10H20V12ZM20 8H14V6H20V8Z" fill="#C7C0A6"/>
</svg>
