<svg width="22" height="22" viewBox="0 0 22 22" fill="none" xmlns="http://www.w3.org/2000/svg">
<path d="M17.5 9C19.9853 9 22 6.98528 22 4.5C22 2.01472 19.9853 0 17.5 0C15.0147 0 13 2.01472 13 4.5C13 6.98528 15.0147 9 17.5 9Z" fill="#C7C0A6"/>
<path d="M4.5 9C6.98528 9 9 6.98528 9 4.5C9 2.01472 6.98528 0 4.5 0C2.01472 0 0 2.01472 0 4.5C0 6.98528 2.01472 9 4.5 9Z" fill="#C7C0A6"/>
<path d="M17.5 22C19.9853 22 22 19.9853 22 17.5C22 15.0147 19.9853 13 17.5 13C15.0147 13 13 15.0147 13 17.5C13 19.9853 15.0147 22 17.5 22Z" fill="#C7C0A6"/>
<path d="M4.5 22C6.98528 22 9 19.9853 9 17.5C9 15.0147 6.98528 13 4.5 13C2.01472 13 0 15.0147 0 17.5C0 19.9853 2.01472 22 4.5 22Z" fill="#C7C0A6"/>
</svg>
