<svg width="147" height="52" viewBox="0 0 147 52" fill="none" xmlns="http://www.w3.org/2000/svg">
<path d="M0 26C0 11.6406 11.6406 0 26 0H121C135.359 0 147 11.6406 147 26C147 40.3594 135.359 52 121 52H26C11.6406 52 0 40.3594 0 26Z" fill="#F2CF7E"/>
<path d="M61.0323 28.9416C60.1314 28.6009 59.5288 27.7828 59.4608 26.8073C59.3942 25.8566 59.8601 25.0123 60.7071 24.5484L61.4113 24.1626L60.9084 23.5364C60.0634 22.4841 58.8542 21.8552 57.6739 21.8552C56.8559 21.8552 56.2883 22.0693 55.8325 22.2417C55.5106 22.3636 55.2568 22.4592 54.9781 22.4592C54.6603 22.4592 54.3465 22.3474 53.9829 22.2181C53.5063 22.0485 52.9663 21.8559 52.2728 21.8559C50.933 21.8559 49.5817 22.6558 48.7468 23.9417C47.5005 25.8599 47.8426 29.1489 49.5601 31.7626C50.2408 32.7982 51.1949 33.9879 52.5462 34C52.5549 34 52.5637 34 52.5724 34C53.6786 34 53.921 33.4102 54.9949 33.4034C56.1678 33.4587 56.3159 34.0047 57.4113 33.9973C58.7316 33.9852 59.6837 32.8049 60.4404 31.6516C60.8875 30.9736 61.0605 30.6187 61.4086 29.8485L61.7035 29.1954L61.0323 28.9416Z" fill="#3B2186"/>
<path d="M56.8215 20.1639C57.2592 19.6024 57.5911 18.81 57.4706 18C56.7555 18.0491 55.9207 18.5036 55.4325 19.0961C54.9895 19.6341 54.6239 20.4312 54.766 21.2069C55.5456 21.2311 56.3529 20.7652 56.8215 20.1639Z" fill="#3B2186"/>
<path d="M74.0883 20.592C74.0883 20.2293 74.2163 19.936 74.4723 19.712C74.7283 19.4773 75.0643 19.36 75.4803 19.36C75.8963 19.36 76.2323 19.4773 76.4883 19.712C76.7443 19.936 76.8723 20.2293 76.8723 20.592C76.8723 20.944 76.7443 21.2373 76.4883 21.472C76.2323 21.696 75.8963 21.808 75.4803 21.808C75.0643 21.808 74.7283 21.696 74.4723 21.472C74.2163 21.2373 74.0883 20.944 74.0883 20.592ZM76.6003 23.136V32H74.3443V23.136H76.6003ZM83.9372 20.544C84.9932 20.544 85.9479 20.7893 86.8012 21.28C87.6652 21.7707 88.3425 22.4587 88.8332 23.344C89.3345 24.2187 89.5852 25.2107 89.5852 26.32C89.5852 27.4293 89.3345 28.4267 88.8332 29.312C88.3425 30.1973 87.6652 30.8853 86.8012 31.376C85.9479 31.8667 84.9932 32.112 83.9372 32.112C82.8812 32.112 81.9212 31.8667 81.0572 31.376C80.2039 30.8853 79.5265 30.1973 79.0252 29.312C78.5345 28.4267 78.2892 27.4293 78.2892 26.32C78.2892 25.2107 78.5345 24.2187 79.0252 23.344C79.5265 22.4587 80.2039 21.7707 81.0572 21.28C81.9212 20.7893 82.8812 20.544 83.9372 20.544ZM83.9372 22.624C83.2759 22.624 82.6945 22.7733 82.1932 23.072C81.6919 23.3707 81.2972 23.8027 81.0092 24.368C80.7319 24.9227 80.5932 25.5733 80.5932 26.32C80.5932 27.0667 80.7319 27.7227 81.0092 28.288C81.2972 28.8427 81.6919 29.2693 82.1932 29.568C82.6945 29.8667 83.2759 30.016 83.9372 30.016C84.5985 30.016 85.1799 29.8667 85.6812 29.568C86.1825 29.2693 86.5719 28.8427 86.8492 28.288C87.1372 27.7227 87.2812 27.0667 87.2812 26.32C87.2812 25.5733 87.1372 24.9227 86.8492 24.368C86.5719 23.8027 86.1825 23.3707 85.6812 23.072C85.1799 22.7733 84.5985 22.624 83.9372 22.624ZM99.0418 28.912C99.0418 29.488 98.8978 30.0213 98.6098 30.512C98.3218 30.992 97.8951 31.3813 97.3298 31.68C96.7645 31.968 96.0765 32.112 95.2658 32.112C94.4658 32.112 93.7511 31.9787 93.1218 31.712C92.4925 31.4347 91.9858 31.04 91.6018 30.528C91.2285 30.016 91.0151 29.4187 90.9618 28.736H93.3618C93.4151 29.1947 93.5965 29.5787 93.9058 29.888C94.2258 30.1867 94.6471 30.336 95.1698 30.336C95.6391 30.336 95.9965 30.2133 96.2418 29.968C96.4978 29.712 96.6258 29.3867 96.6258 28.992C96.6258 28.64 96.5245 28.352 96.3218 28.128C96.1191 27.8933 95.8631 27.7067 95.5538 27.568C95.2445 27.4293 94.8178 27.2693 94.2738 27.088C93.5698 26.8533 92.9938 26.624 92.5458 26.4C92.0978 26.1653 91.7138 25.8293 91.3938 25.392C91.0845 24.9547 90.9298 24.384 90.9298 23.68C90.9298 22.7093 91.2765 21.9467 91.9698 21.392C92.6738 20.8267 93.6018 20.544 94.7538 20.544C95.9485 20.544 96.8978 20.832 97.6018 21.408C98.3165 21.984 98.7218 22.752 98.8178 23.712H96.3858C96.3218 23.3067 96.1511 22.976 95.8738 22.72C95.5965 22.4533 95.2178 22.32 94.7378 22.32C94.3218 22.32 93.9858 22.432 93.7298 22.656C93.4738 22.8693 93.3458 23.184 93.3458 23.6C93.3458 23.9307 93.4418 24.208 93.6338 24.432C93.8365 24.6453 94.0871 24.8213 94.3858 24.96C94.6951 25.0987 95.1111 25.2533 95.6338 25.424C96.3591 25.68 96.9458 25.92 97.3938 26.144C97.8525 26.368 98.2418 26.704 98.5618 27.152C98.8818 27.6 99.0418 28.1867 99.0418 28.912Z" fill="#3B2186"/>
</svg>
