<svg width="53" height="24" viewBox="0 0 53 24" fill="none" xmlns="http://www.w3.org/2000/svg">
<path d="M14.0323 14.9416C13.1314 14.6009 12.5288 13.7828 12.4608 12.8073C12.3942 11.8566 12.8601 11.0123 13.7071 10.5484L14.4113 10.1626L13.9084 9.53642C13.0634 8.48407 11.8542 7.85522 10.6739 7.85522C9.85586 7.85522 9.28828 8.06933 8.83247 8.24169C8.51064 8.36356 8.25681 8.45916 7.97807 8.45916C7.66028 8.45916 7.34652 8.3474 6.98295 8.21813C6.50626 8.04846 5.96628 7.8559 5.2728 7.8559C3.93296 7.8559 2.58167 8.65576 1.74679 9.94174C0.500538 11.8599 0.842567 15.1489 2.56012 17.7626C3.24082 18.7982 4.19487 19.9879 5.54615 20C5.55491 20 5.56366 20 5.57241 20C6.67862 20 6.92101 19.4102 7.9949 19.4034C9.16777 19.4587 9.31589 20.0047 10.4113 19.9973C11.7316 19.9852 12.6837 18.8049 13.4404 17.6516C13.8875 16.9736 14.0605 16.6187 14.4086 15.8485L14.7035 15.1954L14.0323 14.9416Z" fill="#3B2186"/>
<path d="M9.82152 6.16395C10.2592 5.60242 10.5911 4.80996 10.4706 4C9.75554 4.04915 8.92067 4.50362 8.43253 5.09611C7.98951 5.63407 7.62391 6.43124 7.76598 7.20687C8.54564 7.23111 9.35292 6.76519 9.82152 6.16395Z" fill="#3B2186"/>
<path d="M27.0883 6.592C27.0883 6.22933 27.2163 5.936 27.4723 5.712C27.7283 5.47733 28.0643 5.36 28.4803 5.36C28.8963 5.36 29.2323 5.47733 29.4883 5.712C29.7443 5.936 29.8723 6.22933 29.8723 6.592C29.8723 6.944 29.7443 7.23733 29.4883 7.472C29.2323 7.696 28.8963 7.808 28.4803 7.808C28.0643 7.808 27.7283 7.696 27.4723 7.472C27.2163 7.23733 27.0883 6.944 27.0883 6.592ZM29.6003 9.136V18H27.3443V9.136H29.6003ZM36.9372 6.544C37.9932 6.544 38.9479 6.78933 39.8012 7.28C40.6652 7.77067 41.3425 8.45867 41.8332 9.344C42.3345 10.2187 42.5852 11.2107 42.5852 12.32C42.5852 13.4293 42.3345 14.4267 41.8332 15.312C41.3425 16.1973 40.6652 16.8853 39.8012 17.376C38.9479 17.8667 37.9932 18.112 36.9372 18.112C35.8812 18.112 34.9212 17.8667 34.0572 17.376C33.2039 16.8853 32.5265 16.1973 32.0252 15.312C31.5345 14.4267 31.2892 13.4293 31.2892 12.32C31.2892 11.2107 31.5345 10.2187 32.0252 9.344C32.5265 8.45867 33.2039 7.77067 34.0572 7.28C34.9212 6.78933 35.8812 6.544 36.9372 6.544ZM36.9372 8.624C36.2759 8.624 35.6945 8.77333 35.1932 9.072C34.6919 9.37067 34.2972 9.80267 34.0092 10.368C33.7319 10.9227 33.5932 11.5733 33.5932 12.32C33.5932 13.0667 33.7319 13.7227 34.0092 14.288C34.2972 14.8427 34.6919 15.2693 35.1932 15.568C35.6945 15.8667 36.2759 16.016 36.9372 16.016C37.5985 16.016 38.1799 15.8667 38.6812 15.568C39.1825 15.2693 39.5719 14.8427 39.8492 14.288C40.1372 13.7227 40.2812 13.0667 40.2812 12.32C40.2812 11.5733 40.1372 10.9227 39.8492 10.368C39.5719 9.80267 39.1825 9.37067 38.6812 9.072C38.1799 8.77333 37.5985 8.624 36.9372 8.624ZM52.0418 14.912C52.0418 15.488 51.8978 16.0213 51.6098 16.512C51.3218 16.992 50.8951 17.3813 50.3298 17.68C49.7645 17.968 49.0765 18.112 48.2658 18.112C47.4658 18.112 46.7511 17.9787 46.1218 17.712C45.4925 17.4347 44.9858 17.04 44.6018 16.528C44.2285 16.016 44.0151 15.4187 43.9618 14.736H46.3618C46.4151 15.1947 46.5965 15.5787 46.9058 15.888C47.2258 16.1867 47.6471 16.336 48.1698 16.336C48.6391 16.336 48.9965 16.2133 49.2418 15.968C49.4978 15.712 49.6258 15.3867 49.6258 14.992C49.6258 14.64 49.5245 14.352 49.3218 14.128C49.1191 13.8933 48.8631 13.7067 48.5538 13.568C48.2445 13.4293 47.8178 13.2693 47.2738 13.088C46.5698 12.8533 45.9938 12.624 45.5458 12.4C45.0978 12.1653 44.7138 11.8293 44.3938 11.392C44.0845 10.9547 43.9298 10.384 43.9298 9.68C43.9298 8.70933 44.2765 7.94667 44.9698 7.392C45.6738 6.82667 46.6018 6.544 47.7538 6.544C48.9485 6.544 49.8978 6.832 50.6018 7.408C51.3165 7.984 51.7218 8.752 51.8178 9.712H49.3858C49.3218 9.30667 49.1511 8.976 48.8738 8.72C48.5965 8.45333 48.2178 8.32 47.7378 8.32C47.3218 8.32 46.9858 8.432 46.7298 8.656C46.4738 8.86933 46.3458 9.184 46.3458 9.6C46.3458 9.93067 46.4418 10.208 46.6338 10.432C46.8365 10.6453 47.0871 10.8213 47.3858 10.96C47.6951 11.0987 48.1111 11.2533 48.6338 11.424C49.3591 11.68 49.9458 11.92 50.3938 12.144C50.8525 12.368 51.2418 12.704 51.5618 13.152C51.8818 13.6 52.0418 14.1867 52.0418 14.912Z" fill="#3B2186"/>
</svg>
