<svg width="1171" height="598" viewBox="0 0 1171 598" fill="none" xmlns="http://www.w3.org/2000/svg">
<path d="M518.038 196.088L512.993 202.807L509.631 206.166L502.906 209.86L501.896 212.884C501.896 212.884 499.205 215.573 499.543 217.253C499.881 218.934 499.881 221.956 499.881 221.956C499.881 221.956 495.173 226.324 493.154 227.667C491.136 229.01 488.445 232.034 488.445 232.034C488.445 232.034 486.764 234.051 485.755 234.722C484.747 235.393 483.066 237.409 481.72 239.425C480.374 241.442 479.029 242.784 478.357 243.791C477.684 244.799 475.666 247.151 474.657 250.847C473.649 254.544 470.958 258.91 470.958 258.91L470.284 260.589C470.622 266.301 470.62 267.308 471.294 269.325C471.966 271.34 472.64 270.667 471.966 275.035C471.294 279.401 471.294 281.082 470.622 283.098C469.949 285.112 467.931 288.807 467.26 290.49C466.586 292.169 468.605 295.191 468.605 295.191C468.605 295.191 469.615 299.56 468.941 300.567C468.269 301.576 469.277 303.591 469.277 303.591C469.277 303.591 473.313 305.942 474.659 307.287C476.004 308.63 478.358 310.647 478.694 311.654C479.032 312.663 481.721 317.366 482.058 318.374C482.394 319.381 485.085 323.076 485.757 324.085C486.429 325.093 489.792 328.789 489.792 328.789C489.792 328.789 494.164 332.146 495.174 333.491C496.183 334.834 499.21 335.506 500.217 336.513C501.227 337.521 503.58 337.183 504.925 338.194C506.271 339.201 508.96 337.521 510.306 338.194C511.651 338.866 515.352 337.522 516.36 336.851C517.369 336.179 519.722 333.828 521.404 334.834C523.085 335.84 524.094 334.834 525.44 335.17C526.783 335.506 528.802 333.828 530.146 333.828C531.492 333.828 534.854 332.483 535.863 332.483C536.873 332.483 540.236 330.465 541.582 330.465C542.925 330.465 544.608 329.125 546.288 329.795C547.969 330.465 547.297 328.453 550.324 329.459C553.351 330.465 554.359 329.459 555.368 330.465C556.378 331.474 557.724 330.468 558.733 331.812C559.741 333.153 561.422 334.161 561.758 335.506C562.093 336.851 564.111 338.195 564.111 338.195L566.13 338.53C566.13 338.53 568.822 336.515 569.493 337.859C570.165 339.203 573.193 338.868 573.193 338.868L576.218 342.227L577.228 343.57C577.228 343.57 579.247 348.946 578.909 350.961C578.573 352.976 578.573 357.344 577.564 358.351C576.556 359.36 575.883 363.727 575.883 363.727C575.883 363.727 574.537 365.071 577.564 367.759C580.591 370.448 582.61 372.798 583.618 374.14C584.628 375.484 587.319 379.182 587.652 381.532C587.99 383.883 588.662 385.226 590.008 388.25C591.353 391.274 593.034 391.61 593.37 394.972C593.708 398.33 594.379 398.331 594.042 400.681C593.706 403.033 592.698 403.369 593.706 405.048C594.715 406.729 596.058 409.753 595.725 410.76C595.389 411.768 594.715 416.135 594.715 416.135L594.042 418.151L591.017 423.865L588.998 426.886C588.326 429.237 586.981 431.589 587.318 434.949C587.652 438.309 585.637 438.307 588.326 441.665C591.017 445.027 592.36 448.722 594.042 451.746C595.725 454.769 596.733 457.793 597.068 459.808C597.406 461.824 598.75 462.497 599.423 465.184C600.094 467.872 600.431 469.214 600.431 470.895C600.431 472.574 600.094 476.942 600.769 477.95C601.44 478.957 601.777 481.983 602.114 483.326C602.45 484.671 601.104 485.007 603.122 487.359C605.141 489.71 606.485 491.053 607.83 492.734C609.175 494.415 608.838 493.741 609.848 496.094C610.857 498.445 612.202 499.791 612.539 501.804C612.875 503.819 613.21 508.858 614.22 511.211C615.229 513.563 616.573 515.915 616.573 515.915C616.573 515.915 620.274 518.266 621.619 517.93C622.962 517.594 625.654 514.573 627.673 515.579C629.691 516.587 631.372 515.579 633.053 515.579C634.734 515.579 636.416 513.563 638.099 513.563C639.78 513.563 642.133 510.875 643.48 511.548C644.825 512.218 646.504 510.873 648.187 509.194C649.869 507.516 650.878 506.173 653.903 503.485C656.93 500.797 656.594 500.795 658.611 499.116C660.63 497.436 662.648 493.74 665.001 493.068C667.354 492.397 668.027 490.047 668.699 488.367C669.373 486.686 669.708 485.678 670.718 484.334C671.728 482.992 671.054 484.674 672.736 480.304C674.418 475.935 676.438 474.257 678.119 473.248C679.8 472.241 680.809 470.226 681.817 469.888C682.826 469.551 684.508 470.896 683.836 467.872C683.165 464.85 683.836 460.482 683.165 459.475C682.491 458.464 681.481 461.824 681.819 456.784C682.158 451.746 685.854 446.706 685.854 446.706C685.854 446.706 690.898 440.324 692.581 439.316C694.263 438.309 694.598 437.301 696.954 435.956C699.306 434.614 704.351 431.255 704.351 429.574C704.351 427.893 706.37 423.526 706.37 422.517C706.37 421.51 706.37 420.502 705.699 414.79C705.025 409.081 706.37 410.423 704.353 405.048C702.336 399.673 701.996 392.954 700.653 391.274C699.307 389.594 699.979 385.225 699.979 383.883C699.979 382.54 702.336 379.18 703.344 377.837C704.353 376.492 708.724 371.116 708.724 371.116C708.724 371.116 715.449 363.39 717.804 359.696C720.158 355.999 722.512 352.641 724.193 351.297C725.875 349.954 729.91 346.927 732.264 343.569C734.618 340.21 739.326 333.828 739.664 332.818C739.999 331.812 742.688 328.452 742.688 328.452C742.688 328.452 746.387 324.083 747.061 321.732C747.732 319.38 751.094 306.278 750.421 306.95C749.752 307.623 745.715 308.293 744.369 308.629C743.026 308.966 746.389 310.308 736.634 309.638C726.883 308.965 721.839 310.645 721.839 310.645C718.811 309.972 716.458 313.332 715.448 308.629C714.439 303.927 713.765 301.239 711.75 297.879C709.731 294.52 708.385 293.176 705.361 288.807C702.336 284.442 702.669 286.455 699.978 283.098C697.288 279.739 696.615 280.745 694.934 276.379C693.253 272.011 691.908 273.692 689.89 267.644C687.871 261.595 686.527 260.923 685.518 257.565C684.508 254.206 683.165 253.196 682.491 250.174C681.819 247.15 674.085 231.697 673.075 230.688C672.065 229.682 670.384 224.304 670.721 225.313C671.058 226.321 675.766 229.68 675.766 229.68C675.766 229.68 678.456 228.671 679.466 228.671C680.474 228.671 684.51 232.369 684.51 233.71C684.51 235.055 691.575 241.439 693.254 246.142C694.935 250.845 696.957 254.205 697.29 255.548C697.623 256.892 700.989 262.268 702.335 264.284C703.679 266.301 708.05 270.331 708.723 272.347C709.395 274.364 715.787 281.082 715.787 285.449C715.787 289.816 718.811 295.527 719.149 296.87C719.486 298.214 725.537 299.896 725.537 299.896L733.61 297.879C733.61 297.879 745.715 290.151 747.061 290.151C748.404 290.151 759.169 285.112 759.169 285.112C759.169 285.112 763.539 281.082 766.565 278.731C769.592 276.379 772.955 272.013 773.629 269.995C774.3 267.978 775.646 267.644 778.335 264.619C781.026 261.595 784.726 258.572 782.372 256.556C780.018 254.541 778.672 255.212 775.31 251.853C771.947 248.494 772.283 249.166 769.928 244.797C767.573 240.431 770.264 235.391 765.219 240.431C760.176 245.47 762.193 246.814 757.148 247.824C752.105 248.83 750.085 252.19 747.732 248.83C745.379 245.47 743.026 247.487 741.678 242.446C740.333 237.407 739.323 237.07 738.988 235.057C738.654 233.04 738.989 233.04 736.298 228C733.608 222.961 735.625 215.234 737.306 219.601C738.988 223.968 741.678 224.64 746.051 227.664C750.421 230.686 752.441 233.04 756.475 233.376C760.511 233.71 763.874 233.376 764.546 234.046C765.219 234.719 765.891 233.712 767.573 234.382C769.256 235.055 769.925 233.376 770.599 236.061C771.271 238.749 774.971 239.085 776.651 240.764C778.334 242.443 778.334 241.773 782.707 242.443C787.08 243.117 793.134 243.117 793.134 243.117L799.521 242.779L806.92 243.449C806.92 243.449 812.303 246.473 813.647 246.473C814.991 246.473 815.327 250.171 818.691 252.186C822.054 254.202 822.726 254.536 824.743 256.889C826.765 259.241 826.426 260.248 829.115 262.599C831.807 264.953 836.18 262.265 836.853 261.259C837.522 260.25 840.885 258.571 840.216 261.259C839.542 263.946 843.576 262.937 842.568 269.322C841.559 275.703 840.885 274.023 842.568 278.392C844.249 282.759 851.647 296.197 851.985 300.229C852.323 304.26 854.338 302.917 854.674 306.614C855.012 310.308 857.027 311.651 857.027 314.339C857.027 317.028 859.384 317.698 859.718 319.716C860.058 321.732 863.755 320.05 864.764 319.716C865.774 319.378 870.48 315.011 870.48 315.011C870.48 315.011 872.502 314.341 872.163 310.98C871.825 307.623 872.163 308.293 872.163 303.254C872.163 298.215 870.146 298.215 871.154 293.178C872.163 288.139 874.852 285.113 875.526 282.762C876.198 280.412 878.889 276.38 880.232 276.043C881.577 275.707 888.977 272.013 890.659 269.659C892.34 267.308 895.031 264.62 897.722 261.934C900.411 259.247 905.119 255.887 906.129 256.895C907.138 257.902 906.802 257.566 908.484 257.566C910.165 257.566 913.192 258.911 915.545 259.247C917.9 259.583 922.609 265.293 923.618 268.317C924.626 271.341 923.954 270.668 927.653 275.037C931.352 279.403 934.716 276.715 934.716 282.091C934.716 287.467 934.716 287.13 936.398 289.146C938.079 291.163 940.096 285.451 942.113 286.124C944.13 286.797 944.466 285.452 946.147 290.827C947.828 296.203 948.836 296.203 949.175 301.578C949.51 306.953 948.838 301.914 948.838 306.28C948.838 310.648 948.5 310.984 949.175 315.014C949.846 319.049 952.198 320.392 951.865 321.064C951.865 321.064 953.882 315.353 953.208 311.32C952.539 307.29 953.208 301.579 954.89 299.9C956.571 298.218 958.255 296.54 959.598 300.908C960.944 305.274 961.617 301.915 964.642 306.954C967.671 311.995 970.36 310.984 970.696 313.336C971.032 315.689 972.718 316.026 975.068 318.04C977.423 320.056 979.44 317.705 982.131 315.689C984.823 313.672 992.219 306.281 992.558 303.257C992.892 300.235 995.919 300.905 990.538 293.181C985.156 285.454 985.156 282.765 979.44 278.062C973.726 273.359 970.362 273.023 974.735 266.975C979.106 260.928 981.125 256.898 983.814 258.578C986.505 260.257 991.21 259.92 991.21 266.641C991.21 273.359 989.865 280.75 994.573 272.688C999.281 264.625 1001.64 259.922 1000.29 261.268C998.946 262.611 1003.32 258.58 1003.32 258.58C1003.32 258.58 1003.65 255.556 1009.37 254.212C1015.09 252.866 1016.77 252.196 1018.79 251.188C1020.81 250.179 1026.52 243.46 1027.53 240.437C1028.54 237.413 1031.23 232.039 1030.56 229.688C1029.89 227.334 1026.52 215.914 1025.85 216.249C1025.18 216.586 1025.51 216.586 1021.14 211.883C1016.77 207.18 1013.74 203.82 1013.07 201.804C1012.4 199.787 1010.72 199.451 1012.73 196.765C1014.75 194.078 1015.76 194.414 1016.1 192.061C1016.43 189.711 1019.12 187.694 1014.08 189.375C1009.04 191.054 1012.73 190.048 1008.36 189.712C1003.99 189.375 992.558 192.063 998.276 185.009C1003.99 177.954 1005.67 173.588 1006.68 173.588C1007.69 173.588 1012.74 167.876 1013.07 173.25C1013.41 178.625 1015.42 177.28 1015.76 180.64C1016.1 184 1022.82 176.946 1022.82 176.946C1022.82 176.946 1025.18 177.618 1026.86 179.297C1028.54 180.976 1028.54 186.352 1028.54 186.352C1028.54 186.352 1027.2 184.672 1030.89 187.36C1034.6 190.049 1038.63 188.703 1038.63 194.415C1038.63 200.126 1038.63 200.463 1040.98 201.807C1043.34 203.15 1045.69 202.48 1047.71 200.799C1049.73 199.12 1053.09 193.072 1053.09 193.072C1053.09 193.072 1053.43 190.72 1048.05 187.36C1042.67 184.002 1039.3 181.651 1037.29 179.97C1035.27 178.291 1035.94 173.252 1037.96 171.234C1039.98 169.218 1040.98 168.21 1040.31 165.523C1039.64 162.834 1041.32 160.819 1046.36 161.155C1051.41 161.492 1052.42 160.82 1052.42 160.82C1052.42 160.82 1053.43 161.49 1053.43 159.475C1053.43 157.461 1059.82 148.053 1058.13 148.053C1056.45 148.053 1058.47 145.702 1057.46 142.006C1056.45 138.309 1060.82 132.6 1057.13 129.912C1053.43 127.224 1052.42 125.879 1050.06 121.849C1047.71 117.816 1048.04 117.146 1039.3 116.137C1030.56 115.129 1026.52 118.153 1024.5 115.467C1022.49 112.779 1021.48 119.497 1020.13 111.434C1018.79 103.371 1022.15 97.9947 1022.15 97.9947C1022.15 97.9947 1027.53 94.6364 1028.88 92.2841C1030.22 89.9318 1035.6 88.9243 1039.98 90.6049C1044.35 92.2841 1050.74 91.9483 1056.12 92.9587C1061.5 93.9647 1061.16 97.3245 1063.85 92.9587C1066.54 88.5885 1063.85 86.575 1065.87 84.2227C1067.89 81.8704 1070.24 78.1747 1071.92 80.5256C1073.6 82.8794 1076.97 85.2287 1079.66 82.2047C1082.35 79.1822 1083.36 78.8464 1083.36 78.8464L1084.7 80.1912C1084.7 80.1912 1087.73 78.5091 1087.73 81.5316C1087.73 84.557 1090.76 87.9168 1089.08 90.2676C1087.39 92.6214 1085.04 92.2841 1085.04 97.9947C1085.04 103.708 1085.04 102.699 1088.74 107.404C1092.44 112.106 1094.79 108.074 1095.46 113.115C1096.14 118.153 1096.81 117.147 1100.51 120.506C1104.21 123.864 1103.53 123.864 1106.23 125.881C1108.92 127.897 1110.26 129.913 1110.26 126.554C1110.26 123.194 1110.6 121.515 1110.26 118.491C1109.92 115.468 1112.95 113.115 1110.93 108.076C1108.92 103.037 1110.6 103.372 1106.56 99.6768C1102.53 95.9827 1099.83 100.35 1098.49 94.9737C1097.15 89.5989 1104.88 87.2466 1106.9 86.575C1108.92 85.9048 1111.94 81.8719 1112.61 84.56C1113.29 87.2466 1107.57 96.9902 1117.32 86.575C1127.08 76.1613 1122.7 80.5285 1122.7 80.5285C1122.7 80.5285 1127.75 79.8569 1128.76 80.5285C1129.76 81.2017 1132.46 77.5046 1131.45 77.8419C1130.44 78.1792 1120.69 72.4656 1120.69 72.4656L1113.62 68.4357C1113.62 68.4357 1115.98 66.755 1117.66 67.0924C1119.34 67.4282 1119.68 63.7326 1121.36 63.3952C1123.04 63.0594 1134.48 65.749 1136.83 67.0924C1139.19 68.4357 1147.59 68.7715 1146.58 68.0998C1145.57 67.4267 1140.19 63.3967 1139.86 62.0519C1139.52 60.7086 1127.75 58.0205 1124.05 58.3563C1120.35 58.6906 1116.99 59.6981 1113.96 58.6906C1110.94 57.6831 1106.57 54.995 1104.21 54.995C1101.86 54.995 1072.26 49.2844 1070.92 49.6202C1069.58 49.9561 1067.56 56.3383 1066.55 55.3308C1065.54 54.3233 1063.86 54.3218 1059.15 52.9785C1054.44 51.6352 1048.05 50.6262 1039.64 49.9561C1031.24 49.2844 1025.52 50.6277 1023.17 47.9396C1020.81 45.2529 1015.77 46.2604 1010.05 45.9231C1004.33 45.5888 997.608 45.9231 994.581 45.9231C991.554 45.9231 984.494 45.5888 982.812 45.2515C981.129 44.9141 979.112 42.5633 977.095 42.229C975.075 41.8917 975.412 41.2215 971.378 40.5498C967.342 39.8767 967.678 35.5109 966.334 39.205C964.989 42.9021 965.66 41.8932 963.643 43.2365C961.624 44.5813 959.607 47.2679 958.261 47.2679C956.918 47.2679 951.538 47.6038 950.526 46.9321C949.516 46.2604 947.835 45.5888 944.472 45.5888C941.109 45.5888 941.109 45.9231 936.737 45.2515C932.365 44.5798 929.002 44.9141 924.967 42.9006C920.931 40.8842 920.931 39.5408 917.568 39.8767C914.208 40.214 914.208 39.205 909.497 39.205C904.79 39.205 899.074 41.8932 896.046 42.229C893.022 42.5648 886.295 41.8917 883.941 40.8842C881.584 39.8767 880.913 37.5259 872.169 38.5319C863.425 39.5408 858.381 39.5408 860.062 36.8527C861.744 34.1661 863.761 31.4779 864.77 31.1421C865.78 30.8063 868.132 29.1271 866.449 28.4555C864.77 27.7823 863.088 26.7763 859.054 26.439C855.016 26.1032 855.351 27.7823 849.3 27.1107C843.247 26.439 852.663 24.7598 840.222 25.0957C827.779 25.433 824.752 26.439 823.407 26.439C822.061 26.439 820.379 23.7524 817.017 27.7823C813.654 31.8138 808.943 34.1646 802.22 34.5004C795.495 34.8377 795.157 33.8288 788.77 36.1796C782.38 38.5304 778.343 35.5079 779.689 40.8827C781.032 46.2575 782.716 48.2739 782.716 49.2814C782.716 50.2889 779.689 57.0085 775.991 52.977C772.289 48.9456 765.564 33.1556 768.591 43.9066C771.616 54.6562 778.341 58.3533 771.954 60.0325C765.565 61.7116 766.235 59.3608 765.226 58.6876C764.219 58.016 765.226 53.3129 764.89 50.6247C764.552 47.9381 763.882 46.2575 762.537 44.9141C761.194 43.5693 761.527 41.5543 758.837 40.8827C756.147 40.211 758.501 38.8662 754.13 38.8662C749.758 38.8662 746.06 36.1781 747.069 42.226C748.076 48.2724 749.084 44.2425 751.773 49.9531C754.463 55.6637 759.508 51.6322 755.81 55.6637C752.111 59.6951 742.359 58.3518 740.004 56.6727C737.65 54.992 738.324 57.3443 733.949 54.3204C729.577 51.2964 730.925 48.9441 725.881 51.2964C720.837 53.6487 719.154 58.016 717.136 56.3353C715.117 54.6547 710.411 58.6862 708.729 56.6727C707.046 54.6562 700.32 54.6562 698.977 56.6727C697.631 58.6876 693.595 58.3518 687.879 61.0399C682.162 63.7266 683.842 61.3743 676.781 67.0864C669.717 72.797 665.681 77.5001 663.329 73.8045C660.975 70.1103 648.194 63.7266 653.24 62.7176C658.285 61.7101 660.638 59.6951 663.329 62.0459C666.02 64.3968 670.393 63.7266 671.063 62.0459C671.735 60.3653 674.764 58.6862 670.727 56.6712C666.691 54.6547 666.355 55.998 659.966 53.6472C653.576 51.2949 659.966 51.9681 651.221 50.6232C642.478 49.2799 638.777 48.6083 636.424 47.9366C634.072 47.2649 630.707 47.9366 627.346 47.6008C623.981 47.2649 621.629 46.5933 618.601 46.9291C615.575 47.2649 613.894 46.5933 609.857 49.6172C605.82 52.6412 602.793 53.9845 600.104 56.3353C597.415 58.6861 590.354 63.3908 588.335 65.0714C586.317 66.7506 579.254 72.1253 578.582 74.1418C577.909 76.1583 579.254 77.8374 576.563 79.1807C573.872 80.5241 571.183 80.5241 569.164 80.8599C567.146 81.1957 569.164 77.8359 567.146 81.1957C565.129 84.5555 565.801 96.6499 567.482 94.9692C569.163 93.2886 568.154 87.9153 575.553 92.9557C582.952 97.9932 587.661 97.3215 587.324 102.025C586.987 106.728 592.368 106.392 593.04 107.401C593.712 108.407 597.075 106.056 597.075 106.056C597.075 106.056 604.474 101.353 604.474 99.0022C604.474 96.6499 609.182 91.2751 609.182 91.2751C609.182 91.2751 605.817 89.596 605.817 86.2362C605.817 82.8779 606.829 81.8674 607.5 78.5076C608.172 75.1493 603.8 78.5091 613.89 72.1238C623.977 65.7416 624.65 70.1103 624.65 70.1103C624.65 70.1103 625.994 71.4537 624.313 73.4686C622.632 75.4851 619.605 80.8614 618.933 81.5316C618.259 82.2047 621.96 87.5795 623.639 87.5795C625.321 87.5795 628.684 86.2347 630.703 86.5705C632.721 86.9078 636.083 85.5645 637.092 86.2362C638.102 86.9078 640.455 88.9228 638.773 90.6034C637.092 92.2826 633.391 94.2976 630.703 93.6274C628.011 92.9572 623.975 88.2511 626.33 94.9707C628.684 101.69 625.994 103.369 623.975 103.034C621.96 102.698 617.586 99.3395 618.259 104.378C618.933 109.416 613.888 112.776 612.878 112.776C611.868 112.776 609.853 112.44 609.853 112.44C609.853 112.44 606.824 112.103 605.145 112.103C603.463 112.103 600.1 113.782 599.091 115.127C598.081 116.47 596.736 115.464 595.055 115.464C593.375 115.464 595.055 113.447 591.692 112.776C588.331 112.104 586.312 111.432 584.295 112.776C582.277 114.119 579.251 114.791 577.905 113.783C576.56 112.776 578.579 110.422 575.886 111.768C573.197 113.112 571.178 116.807 570.17 117.144C569.161 117.479 573.197 117.144 569.161 117.479C565.126 117.816 563.445 118.825 561.427 119.495C559.408 120.168 562.099 124.198 558.4 125.542C554.7 126.885 557.393 123.863 553.692 126.885C549.992 129.91 549.318 132.597 547.975 132.933C546.629 133.27 546.967 133.94 543.94 134.276C540.913 134.612 541.25 134.948 539.567 135.284C537.886 135.62 539.904 136.293 536.205 135.62C532.504 134.948 529.815 136.293 530.487 137.636C531.159 138.979 543.602 142.675 534.186 142.339C524.771 142.003 527.798 143.683 529.815 145.026C531.833 146.369 532.84 147.712 533.85 148.05C534.86 148.386 536.539 152.419 536.539 152.419C536.539 152.419 539.23 152.081 537.549 154.434C535.869 156.786 538.222 157.458 536.539 160.481C534.859 163.505 534.859 161.489 533.514 162.161C532.169 162.831 530.151 165.185 526.45 163.168C522.751 161.152 520.063 160.144 515.69 159.81C511.318 159.473 514.343 158.802 511.318 161.152C508.291 163.505 507.618 166.192 507.956 169.215C508.292 172.237 508.628 176.27 507.618 178.286C506.61 180.301 506.61 182.318 507.281 185.342C507.955 188.364 509.973 189.711 509.973 189.711C509.973 189.711 514.681 190.381 515.69 190.718C516.698 191.054 518.717 190.046 521.406 191.724C524.097 193.405 526.788 194.078 528.468 192.061C530.149 190.046 536.876 187.694 538.896 185.679C540.913 183.663 542.257 182.993 541.249 180.976C540.24 178.96 543.267 173.921 544.948 172.913C546.629 171.906 550.328 170.897 550.328 170.897L554.364 164.85C554.364 164.85 557.727 161.153 559.408 161.49C561.089 161.826 570.505 165.188 569.834 160.82C569.161 156.452 570.506 155.108 571.515 156.787C572.523 158.467 575.214 157.795 575.214 157.795C575.214 157.795 576.559 157.125 577.567 158.132C578.576 159.138 579.92 163.508 581.939 164.514C583.957 165.523 585.638 166.531 586.984 167.201C588.329 167.874 589.675 167.201 592.366 169.553C595.055 171.906 597.746 173.251 598.081 174.257C598.42 175.264 600.773 177.616 600.773 177.616C600.773 177.616 603.127 178.288 602.454 179.633C601.782 180.976 598.42 185.009 596.738 185.679C595.055 186.351 590.685 185.006 592.366 186.351C594.045 187.694 596.402 189.375 597.41 188.366C598.42 187.358 604.807 180.639 604.807 180.639C604.807 180.639 604.471 180.975 604.807 178.958C605.145 176.945 604.807 174.592 606.49 175.6C608.171 176.609 609.181 177.952 609.853 176.609C610.525 175.264 611.198 175.937 609.515 174.93C607.833 173.921 603.799 168.21 601.78 167.874C599.762 167.537 594.716 164.177 594.716 164.177C594.716 164.177 593.709 163.17 591.355 160.483C589 157.795 588.329 158.467 587.654 156.114C586.983 153.763 584.963 150.739 588.664 151.411C592.365 152.083 594.716 154.434 598.08 156.45C601.443 158.467 600.772 159.137 603.797 161.153C606.823 163.17 607.162 165.186 609.514 164.85C611.867 164.514 614.559 166.194 614.559 169.218C614.559 172.242 615.23 175.6 615.903 176.273C616.576 176.946 618.592 178.289 619.266 179.633C619.938 180.976 621.284 184.336 622.291 185.679C623.301 187.023 624.31 188.031 625.318 189.712C626.327 191.391 626.663 189.375 627.671 190.048C628.681 190.72 630.026 190.382 630.026 189.039C630.026 187.696 630.361 185.343 630.361 185.343C630.361 185.343 635.072 184 633.727 183.327C632.381 182.655 628.344 178.624 628.681 177.28C629.018 175.937 628.681 173.251 630.361 173.586C632.043 173.921 633.726 176.945 637.425 174.257C641.124 171.568 645.496 170.225 644.15 174.257C642.807 178.288 644.489 178.958 644.15 183.327C643.815 187.696 645.497 186.351 647.852 188.703C650.205 191.055 651.886 191.393 653.567 192.063C655.249 192.736 657.939 192.4 660.631 192.736C663.322 193.072 665.003 191.727 667.357 192.4C669.709 193.072 675.091 192.063 676.101 192.736C677.111 193.408 681.146 191.393 681.481 193.744C681.817 196.096 683.163 193.408 682.155 198.783C681.146 204.157 679.8 207.853 679.8 207.853C676.101 214.908 674.756 216.589 673.074 216.925C671.394 217.261 670.384 218.268 667.359 217.932C664.332 217.595 660.633 217.932 656.261 216.925C651.889 215.916 643.817 217.932 640.455 215.916C637.092 213.901 632.384 215.58 630.364 213.229C628.347 210.877 624.985 211.213 623.639 209.869C622.294 208.526 621.622 204.832 621.622 210.207C621.622 215.583 618.595 215.917 617.923 218.605C617.249 221.292 618.93 219.949 615.23 219.613C611.531 219.276 610.522 221.292 605.142 217.262C599.76 213.231 597.071 213.231 594.382 211.55C591.689 209.869 589 214.573 586.311 209.199C583.62 203.823 579.92 208.19 579.584 203.823C579.248 199.454 579.584 199.793 579.92 197.105C580.26 194.417 583.956 192.066 582.275 191.058C580.593 190.051 581.937 188.37 579.584 189.379C577.23 190.387 573.868 190.723 571.177 191.73C568.486 192.739 577.23 191.73 564.114 192.739C550.999 193.747 547.298 195.09 547.298 195.09C547.298 195.09 546.29 194.418 544.608 195.762C542.927 197.105 540.572 199.121 538.219 198.114C535.866 197.105 534.519 197.441 532.502 197.778C530.484 198.114 529.141 196.099 526.786 197.778C524.431 199.456 521.742 200.129 520.732 199.456C519.721 198.775 518.038 196.088 518.038 196.088Z" fill="#ECECEC"/>
<path d="M743.018 417.144C742.01 420.841 738.31 426.214 738.31 426.214L731.582 429.574C731.582 429.574 729.232 431.591 727.884 431.927C726.54 432.261 723.177 433.943 723.177 433.943C723.177 433.943 720.151 433.27 721.158 436.292C722.167 439.316 722.504 443.013 722.167 444.019C721.832 445.028 721.832 447.045 721.832 449.733C721.832 452.42 720.823 455.778 719.141 456.45C717.46 457.123 715.778 457.794 716.114 460.147C716.452 462.499 716.452 469.553 716.452 469.553L720.825 476.273C720.825 476.273 722.17 475.265 724.86 475.265C727.548 475.265 730.241 472.916 730.241 472.916C730.241 472.916 733.269 473.584 732.93 469.892C732.594 466.195 734.278 461.829 733.938 460.82C733.604 459.812 736.967 455.444 736.967 454.438C736.967 453.429 740.33 448.728 740.33 447.046C740.33 445.367 742.683 442.679 743.02 440.666C743.356 438.648 743.692 433.946 744.364 432.603C745.038 431.259 745.374 429.915 745.374 428.571C745.374 427.228 745.374 424.54 745.374 424.54L743.018 417.144Z" fill="#ECECEC"/>
<path d="M1006.33 462.499C1005.33 463.841 1004.65 478.289 1003.98 479.968C1003.31 481.647 1001.96 490.383 1002.64 492.397C1003.31 494.415 1004.32 501.805 1003.65 504.157C1002.97 506.508 1003.98 513.899 1002.3 513.563C1000.62 513.226 999.949 513.9 999.949 514.906C999.949 515.915 1002.3 517.929 1002.3 517.929C1002.3 517.929 1006.34 517.93 1008.02 517.593C1009.7 517.257 1013.06 515.577 1015.75 515.577C1018.44 515.577 1020.13 513.56 1022.48 513.56C1024.83 513.56 1029.88 511.882 1031.22 512.553C1032.57 513.223 1034.59 508.521 1036.94 509.53C1039.29 510.538 1044.34 507.178 1046.69 507.178C1049.04 507.178 1050.06 503.481 1052.75 504.155C1055.44 504.827 1060.48 502.812 1062.84 503.817C1065.19 504.827 1068.89 500.458 1070.57 503.817C1072.25 507.178 1077.3 508.521 1077.3 510.2C1077.3 511.879 1076.96 515.577 1076.96 515.577L1080.99 515.239C1080.99 515.239 1087.38 511.208 1088.39 511.208C1089.4 511.208 1091.76 507.849 1091.76 509.53C1091.76 511.208 1089.74 514.906 1089.07 516.584C1088.39 518.265 1089.74 520.281 1089.74 520.281C1089.74 520.281 1093.1 521.96 1091.76 524.983C1090.41 528.007 1092.09 527.337 1091.76 529.686C1091.42 532.038 1091.76 531.029 1093.1 532.373C1094.45 533.717 1096.8 536.073 1098.82 535.734C1100.84 535.397 1101.51 533.383 1103.19 534.391C1104.87 535.398 1108.23 534.726 1109.24 536.071C1110.25 537.413 1102.85 540.773 1115.63 535.064C1128.41 529.35 1129.75 528.007 1131.43 525.99C1133.12 523.975 1135.14 521.96 1136.48 520.616C1137.83 519.272 1136.82 519.608 1140.85 516.584C1144.89 513.562 1144.89 514.905 1148.59 509.193C1152.29 503.484 1154.98 501.467 1155.65 500.458C1156.32 499.449 1157.67 499.115 1158.01 495.08C1158.34 491.051 1161.03 487.355 1161.03 486.012C1161.03 484.67 1162.04 482.655 1161.7 480.301C1161.37 477.949 1163.05 474.592 1161.03 471.232C1159.01 467.871 1162.04 466.53 1159.01 465.183C1155.99 463.839 1153.97 464.512 1153.3 462.16C1152.62 459.808 1149.93 460.144 1148.92 453.761C1147.91 447.379 1143.88 446.704 1143.88 446.704C1143.88 446.704 1139.84 445.025 1140.85 444.355C1141.86 443.682 1142.2 438.977 1141.86 437.634C1141.53 436.291 1141.53 433.267 1140.52 431.253C1139.51 429.235 1138.84 426.55 1137.83 424.196C1136.82 421.846 1135.14 421.172 1134.46 418.486C1133.79 415.799 1132.78 414.789 1132.45 414.119C1132.11 413.447 1131.43 410.089 1130.77 413.781C1130.09 417.477 1128.75 424.531 1128.75 424.531C1128.75 424.531 1126.05 430.244 1125.05 431.924C1124.04 433.601 1123.03 437.97 1121.35 437.633C1119.67 437.297 1118.65 439.315 1117.31 438.976C1115.97 438.639 1113.95 439.313 1112.94 438.306C1111.93 437.297 1109.24 434.61 1107.9 434.273C1106.55 433.938 1105.54 431.252 1104.53 431.252C1103.52 431.252 1101.84 428.898 1102.18 427.555C1102.51 426.211 1102.85 423.189 1103.19 421.844C1103.52 420.501 1105.54 417.475 1105.54 417.475C1105.54 417.475 1105.54 415.46 1103.86 415.46C1102.18 415.46 1101.84 415.46 1098.14 415.123C1094.44 414.786 1093.44 414.451 1092.09 414.451C1090.75 414.451 1093.44 413.78 1089.73 414.787C1086.04 415.798 1084.35 418.484 1082 420.837C1079.65 423.187 1081.67 422.514 1079.65 423.187C1077.63 423.861 1077.97 421.507 1076.62 425.204C1075.27 428.9 1077.3 429.906 1076.28 430.579C1075.27 431.252 1068.21 428.228 1068.21 428.228C1068.21 428.228 1069.89 427.891 1068.55 426.211C1067.21 424.531 1065.86 422.181 1063.84 423.189C1061.82 424.196 1060.14 424.87 1058.8 426.549C1057.45 428.228 1057.45 429.571 1056.44 430.914C1055.43 432.258 1052.75 432.258 1052.41 433.603C1052.07 434.947 1052.07 438.306 1051.06 438.642C1050.06 438.979 1049.72 437.301 1048.71 436.964C1047.7 436.628 1048.04 433.94 1047.37 435.621C1046.69 437.3 1046.02 436.962 1045.01 439.651C1044 442.339 1043.67 444.691 1042.66 445.027C1041.65 445.364 1042.66 445.698 1039.63 447.379C1036.61 449.058 1035.93 449.058 1031.56 451.075C1027.19 453.091 1028.2 453.091 1025.17 453.426C1022.15 453.763 1021.47 454.77 1019.46 455.106C1017.44 455.442 1016.09 455.776 1014.07 457.793C1012.06 459.809 1010.38 460.48 1009.03 460.817C1007.69 461.154 1006.33 462.499 1006.33 462.499Z" fill="#ECECEC"/>
<path d="M1026.17 329.797C1024.83 331.815 1020.46 337.86 1018.78 338.197C1017.1 338.531 1015.41 340.214 1014.07 339.876C1012.72 339.539 1009.7 339.876 1008.69 344.244C1007.68 348.611 1006 350.963 1004.99 350.626C1003.98 350.29 1006.67 357.008 1000.95 354.323C995.238 351.635 997.255 356.675 996.581 358.02C995.909 359.362 997.59 363.059 997.926 364.402C998.265 365.746 999.271 368.098 1000.62 370.111C1001.96 372.128 1002.97 374.479 1005.32 373.81C1007.68 373.135 1015.08 373.81 1015.08 373.81C1015.08 373.81 1017.77 374.818 1019.45 374.818C1021.13 374.818 1021.47 374.146 1022.47 374.146C1023.48 374.146 1025.5 370.785 1025.16 370.45C1024.83 370.111 1023.82 369.105 1025.84 367.089C1027.86 365.072 1030.21 364.402 1030.55 362.05C1030.88 359.699 1029.87 359.699 1030.88 358.353C1031.89 357.01 1034.24 357.348 1033.57 356.002C1032.9 354.659 1034.24 354.995 1032.9 352.305C1031.56 349.618 1029.87 348.609 1031.22 345.25C1032.56 341.891 1033.91 341.218 1033.57 339.203C1033.24 337.185 1035.25 336.515 1032.9 334.163C1030.55 331.813 1029.54 331.14 1027.86 330.466C1026.17 329.797 1026.17 329.797 1026.17 329.797Z" fill="#ECECEC"/>
<path d="M1092.09 363.393C1093.44 363.057 1098.14 359.697 1098.48 365.745C1098.82 371.792 1099.15 370.111 1101.17 373.471C1103.19 376.831 1104.53 377.841 1106.88 376.161C1109.24 374.478 1111.93 374.478 1112.6 371.458C1113.27 368.434 1113.27 368.434 1115.29 368.434C1117.31 368.434 1117.98 368.098 1119 369.444C1120 370.784 1120.67 369.441 1125.05 371.793C1129.42 374.146 1133.12 373.471 1135.81 375.825C1138.5 378.176 1139.85 377.843 1143.54 379.185C1147.24 380.528 1145.56 378.513 1148.92 382.209C1152.29 385.903 1150.94 386.91 1152.62 388.591C1154.3 390.27 1155.65 387.246 1154.98 391.277C1154.3 395.309 1149.6 391.277 1156.66 396.987C1163.72 402.7 1164.73 403.709 1167.08 405.387C1169.44 407.067 1171.12 409.084 1169.1 409.084C1167.08 409.084 1160.7 409.084 1160.02 408.075C1159.35 407.067 1156.32 406.394 1154.3 404.043C1152.29 401.694 1147.92 400.012 1146.91 397.997C1145.9 395.979 1144.55 395.309 1142.87 395.309C1141.19 395.309 1139.51 397.324 1137.16 399.676C1134.8 402.027 1135.81 398.334 1132.78 399.34C1129.76 400.349 1126.4 399.003 1124.71 397.66C1123.03 396.316 1123.37 394.301 1120.68 395.309C1117.99 396.316 1116.31 395.645 1117.32 393.63C1118.33 391.612 1117.65 388.925 1117.65 388.925C1117.65 388.925 1118.66 385.565 1116.31 384.895C1113.96 384.225 1113.96 381.873 1111.6 381.198C1109.24 380.528 1105.55 378.847 1105.55 378.847C1105.55 378.847 1105.21 378.847 1104.2 378.511C1103.19 378.174 1103.19 378.174 1100.5 377.504C1097.81 376.831 1095.79 377.501 1094.45 375.823C1093.1 374.144 1093.78 371.792 1093.78 371.792C1093.78 371.792 1099.16 372.464 1093.78 368.432C1088.4 364.402 1088.4 364.402 1088.4 364.402C1088.4 364.402 1089.07 364.065 1088.73 363.393C1088.39 362.718 1092.09 363.393 1092.09 363.393Z" fill="#ECECEC"/>
<path d="M940.758 335.507C940.758 335.507 942.439 337.19 945.129 336.852C947.819 336.515 949.834 342.227 951.52 344.242C953.199 346.258 954.211 347.266 957.908 349.618C961.606 351.969 961.27 347.602 966.316 354.657C971.36 361.711 969.005 357.345 971.36 361.711C973.713 366.083 975.059 368.432 976.404 369.443C977.747 370.45 978.758 373.135 979.096 374.144C979.431 375.152 981.784 378.174 981.784 379.183C981.784 380.191 982.458 382.879 980.441 385.23C978.422 387.582 976.74 387.918 976.74 387.918C976.74 387.918 972.704 385.901 971.36 383.886C970.013 381.871 968.334 380.191 965.978 376.161C963.625 372.128 960.934 367.761 959.589 365.746C958.245 363.728 956.226 361.711 955.217 359.698C954.209 357.68 951.518 351.635 950.173 350.962C948.829 350.288 948.491 348.275 946.136 345.923C943.785 343.57 944.119 341.555 943.111 340.212C942.102 338.869 939.749 335.842 939.749 335.842L940.758 335.507Z" fill="#ECECEC"/>
<path d="M286.668 597.553C284.313 596.21 279.269 593.858 277.589 592.514C275.908 591.171 270.864 583.777 270.864 583.777L267.163 576.721C267.163 576.721 262.793 571.347 263.801 569.332C264.81 567.315 266.828 565.972 266.828 564.964C266.828 563.957 268.845 561.267 267.163 560.261C265.482 559.252 265.482 558.918 264.472 555.894C263.463 552.872 263.463 550.18 262.119 549.51C260.773 548.84 259.764 544.471 258.419 544.135C257.075 543.798 255.729 541.447 255.729 541.447L253.71 514.235C253.71 514.235 253.036 501.806 252.365 499.116C251.691 496.43 253.374 490.719 251.691 485.679C250.011 480.64 252.029 474.593 251.019 472.577C250.011 470.56 251.691 464.851 250.683 459.476C249.674 454.102 254.719 447.382 250.683 445.367C246.647 443.349 249.674 440.327 246.311 440.327C242.95 440.327 240.595 438.646 237.568 436.297C234.541 433.944 228.823 429.576 227.142 427.895C225.461 426.217 220.08 421.849 218.399 420.505C216.718 419.162 215.036 413.45 213.691 411.769C212.346 410.091 211.674 405.053 209.655 402.029C207.637 399.006 204.947 393.967 204.274 392.958C203.601 391.951 196.203 383.216 196.203 383.216L196.875 377.841C196.875 377.841 201.919 374.817 201.247 373.81C200.574 372.801 201.584 371.792 199.228 369.778C196.873 367.76 197.21 364.065 199.228 362.387C201.247 360.705 204.272 355.33 204.272 355.33L209.316 346.933C209.316 346.933 213.353 342.563 213.353 339.54C213.353 336.518 219.07 334.503 215.706 331.815C212.343 329.125 214.026 326.774 213.016 324.758C212.006 322.743 212.679 321.399 215.706 319.383C218.733 317.367 224.114 309.977 224.114 309.977C224.114 309.977 228.149 308.968 229.158 308.968C230.166 308.968 231.848 298.215 234.876 305.271C237.903 312.326 238.911 308.63 237.903 313.669C236.893 318.708 239.247 317.702 240.592 316.359C241.937 315.013 239.918 317.367 242.609 311.317C245.298 305.271 244.291 303.256 245.972 304.936C247.653 306.617 248.325 306.953 251.352 307.96C254.378 308.968 255.388 308.63 256.395 310.647C257.403 312.663 257.069 309.975 262.785 310.984C268.501 311.993 276.573 308.968 275.564 312.326C274.556 315.686 272.537 311.99 277.245 315.686C281.953 319.383 282.627 320.053 285.316 320.726C288.005 321.398 290.36 321.062 294.397 325.094C298.433 329.124 299.441 329.461 300.45 331.474C301.458 333.492 303.139 332.148 304.821 334.163C306.502 336.18 308.857 336.181 311.21 336.181C313.563 336.181 311.21 334.163 314.909 336.852C318.61 339.539 321.3 339.873 322.98 345.249C324.661 350.629 328.024 350.29 325.334 355.666C322.644 361.042 317.264 363.393 319.617 363.057C321.97 362.72 326.344 360.704 327.688 361.041C329.033 361.375 329.705 360.033 331.724 361.041C333.742 362.048 334.079 359.698 333.742 362.048C333.405 364.401 333.405 362.048 333.405 364.401C333.405 366.751 332.732 362.048 336.768 363.057C340.803 364.065 338.449 361.039 343.157 365.408C347.866 369.777 347.866 368.434 349.545 370.784C351.228 373.134 352.909 369.443 353.919 370.449C354.929 371.455 357.954 370.783 360.981 371.456C364.008 372.126 361.99 369.441 366.699 372.464C371.405 375.486 376.115 374.479 377.123 377.167C378.132 379.853 380.824 378.846 382.167 380.526C383.51 382.207 384.184 379.853 385.53 382.207C386.875 384.556 390.912 383.885 390.238 386.236C389.564 388.589 391.245 387.245 390.573 390.603C389.902 393.966 387.546 399.34 385.53 400.682C383.512 402.027 383.513 403.706 382.167 405.385C380.823 407.068 381.159 403.706 379.476 408.409C377.796 413.114 378.132 413.786 376.787 418.151C375.442 422.517 376.451 418.151 375.442 422.519C374.434 426.886 375.106 429.574 374.098 434.615C373.089 439.652 373.425 439.654 372.753 443.349C372.081 447.045 374.434 441.671 371.407 449.396C368.381 457.124 368.045 456.785 367.037 460.147C366.027 463.508 367.373 460.818 363.673 462.835C359.974 464.853 361.993 464.178 357.619 465.523C353.249 466.866 347.867 468.213 346.187 468.547C344.506 468.881 337.779 470.898 339.798 474.928C341.816 478.961 341.816 479.632 339.798 484.673C337.779 489.71 334.754 491.392 334.754 493.742C334.754 496.092 333.408 498.443 333.073 500.124C332.735 501.804 336.099 498.443 332.064 503.484C328.029 508.523 327.693 507.179 326.347 510.203C325.002 513.226 326.347 510.873 325.002 513.226C323.657 515.576 320.294 516.584 320.294 516.584C320.294 516.584 320.629 518.265 319.284 517.593C317.938 516.923 318.276 517.929 313.23 516.584C308.186 515.241 307.514 511.884 306.841 514.233C306.169 516.584 307.177 517.93 310.204 520.281C313.23 522.633 318.276 523.304 316.929 525.657C315.585 528.01 315.585 528.01 314.576 529.353C313.566 530.698 315.921 529.689 313.566 530.698C311.213 531.705 309.867 536.074 308.858 536.074C307.85 536.074 307.176 537.753 305.831 537.082C304.487 536.408 301.125 534.058 300.451 535.401C299.779 536.743 298.433 533.72 298.769 538.423C299.106 543.127 299.779 545.815 298.096 546.824C296.416 547.831 292.379 546.824 292.379 546.824L291.706 545.143L289.353 545.815C289.353 545.815 288.344 549.846 290.025 550.518C291.706 551.189 291.37 551.86 293.051 553.876C294.733 555.893 293.725 559.588 293.725 559.588C293.725 559.588 293.725 560.597 292.044 562.276C290.363 563.955 289.689 565.3 289.353 566.308C289.015 567.315 286.998 571.684 290.025 571.347C293.051 571.009 295.407 569.33 295.407 574.706C295.407 580.081 296.752 578.739 295.071 582.434C293.389 586.129 292.044 586.465 291.708 589.823C291.373 593.183 292.045 593.519 292.718 595.535C293.39 597.552 295.072 596.543 293.39 597.552C291.712 598.559 286.668 597.553 286.668 597.553Z" fill="#ECECEC"/>
<path d="M199.903 324.086L197.55 320.728C197.55 320.728 196.542 318.71 194.859 318.376C193.177 318.041 189.478 313.673 189.478 313.673C189.478 313.673 187.797 312.329 187.797 309.978C187.797 307.626 186.451 303.932 187.459 299.9C188.469 295.871 188.805 290.83 188.469 289.485C188.131 288.142 190.15 287.806 187.797 286.461C185.442 285.118 180.734 284.782 177.707 284.782C174.682 284.782 170.981 285.791 170.308 286.125C169.636 286.461 174.008 276.048 174.68 274.368C175.353 272.689 178.38 265.297 178.38 264.291C178.38 263.282 179.388 262.946 177.371 261.604C175.354 260.259 171.991 259.587 169.972 260.595C167.955 261.604 168.291 259.252 166.611 263.282C164.93 267.315 163.247 271.682 161.229 272.353C159.212 273.027 155.176 275.042 155.176 275.042C155.176 275.042 150.132 274.706 148.45 274.37C146.769 274.034 139.707 270.338 138.362 267.988C137.017 265.635 136.345 260.595 136.345 258.246C136.345 255.893 140.043 248.839 139.707 247.159C139.37 245.48 143.407 238.76 143.07 237.751C142.732 236.744 143.742 233.384 144.751 232.04C145.759 230.697 150.805 229.016 152.149 227.673C153.494 226.328 155.849 224.651 158.202 223.978C160.555 223.304 162.575 222.634 164.256 222.634C165.937 222.634 170.308 218.939 170.981 222.634C171.655 226.328 174.682 224.985 176.363 225.321C178.043 225.658 178.381 227.337 181.07 222.97C183.761 218.601 186.451 217.258 186.451 218.265C186.451 219.274 190.822 217.931 191.495 218.939C192.167 219.946 193.513 218.265 195.866 220.282C198.221 222.298 201.583 222.634 201.247 223.64C200.91 224.648 202.591 224.648 202.591 225.657C202.591 226.664 203.937 223.304 203.937 229.351C203.937 235.399 205.618 239.094 205.618 239.094C205.618 239.094 207.971 244.135 208.98 243.126C209.988 242.118 212.005 239.432 212.005 239.432C212.005 239.432 215.369 237.415 213.016 230.36C210.661 223.306 212.343 221.289 211.671 218.937C210.997 216.585 210.997 215.24 215.033 212.217C219.068 209.195 228.82 202.475 231.175 201.132C233.528 199.789 238.908 196.093 238.908 196.093C238.908 196.093 240.925 195.086 241.263 192.398C241.599 189.711 247.988 185.006 248.325 183.663C248.663 182.32 253.035 178.961 253.035 178.961C253.035 178.961 257.741 176.272 257.405 174.594C257.069 172.915 263.459 169.892 264.467 169.892C265.476 169.892 270.858 171.57 270.858 168.546C270.858 165.524 270.858 164.851 274.221 162.164C277.583 159.477 281.954 155.444 283.637 155.444C285.317 155.444 291.035 152.423 293.389 151.75C295.743 151.077 303.142 147.717 296.416 151.75C289.689 155.78 294.061 153.429 292.716 156.789C291.373 160.147 290.361 164.516 296.752 159.476C303.142 154.437 302.804 153.428 305.159 153.093C307.514 152.758 305.831 154.101 310.875 152.42C315.921 150.741 316.257 150.07 316.257 150.07C316.257 150.07 318.612 148.053 317.266 147.047C315.921 146.038 318.612 144.695 313.566 146.71C308.522 148.726 308.858 149.062 305.495 148.053C302.133 147.046 297.088 147.38 300.787 144.02C304.487 140.662 309.194 139.653 306.167 138.309C303.142 136.966 295.407 138.647 294.399 138.981C293.389 139.317 291.035 138.645 289.017 138.981C287 139.317 287.672 136.296 289.017 135.623C290.363 134.95 294.735 132.933 300.115 131.59C305.495 130.247 318.612 129.911 321.637 129.911C324.663 129.911 328.698 130.584 331.053 128.903C333.406 127.224 338.116 124.537 338.788 123.191C339.462 121.848 342.151 119.833 342.151 119.833C342.151 119.833 345.177 116.809 343.496 115.466C341.815 114.122 340.133 111.098 338.788 111.77C337.443 112.442 338.453 116.475 335.762 112.106C333.072 107.74 333.408 107.067 332.063 106.059C330.718 105.052 329.372 105.722 330.382 101.02C331.391 96.3173 331.055 94.3008 331.055 94.3008C331.055 94.3008 332.063 90.2709 331.055 89.935C330.044 89.5977 329.374 88.5917 327.693 89.5977C326.01 90.6052 316.595 95.3098 314.578 96.3173C312.559 97.3248 309.868 92.2859 310.877 89.935C311.887 87.5812 311.213 88.9261 309.868 85.5678C308.524 82.208 303.143 81.5348 301.125 81.5348C299.106 81.5348 294.4 78.5108 293.054 80.5273C291.709 82.5423 284.648 88.9246 283.3 89.5977C281.956 90.2709 279.939 83.8871 278.93 94.3008C277.92 104.718 282.63 107.74 277.249 108.412C271.869 109.083 267.16 112.106 267.16 112.106C267.16 112.106 262.79 112.443 262.79 115.13C262.79 117.819 261.109 124.2 259.089 124.872C257.072 125.545 252.026 124.537 250.345 122.521C248.664 120.505 250.681 113.115 250.681 113.115L253.708 110.091C253.708 110.091 232.186 106.733 232.521 105.388C232.858 104.044 226.132 101.694 225.46 99.6771C224.787 97.6606 224.45 93.2933 225.124 91.6142C225.796 89.935 234.876 81.8721 239.583 80.193C244.291 78.5123 252.362 74.8182 254.717 74.1451C257.072 73.4734 261.106 73.8092 262.452 72.1301C263.797 70.4494 264.133 67.427 264.133 67.427C264.133 67.427 263.46 62.7224 264.805 63.394C266.15 64.0672 268.504 65.0747 268.841 66.0821C269.178 67.0896 269.178 69.4419 271.531 66.7523C273.886 64.0657 276.913 63.0567 279.603 61.7149C282.293 60.3701 286.327 60.7074 288.684 59.3641C291.037 58.0207 295.072 56.6759 295.409 53.3161C295.745 49.9578 294.4 50.9653 292.718 50.628C291.037 50.2937 293.39 50.9653 287.674 53.652C281.956 56.3386 283.638 54.3236 279.603 56.3386C275.567 58.3551 275.229 58.6909 274.895 57.0117C274.557 55.3311 275.567 52.6445 275.567 52.6445C275.567 52.6445 275.905 52.3071 273.55 51.637C271.195 50.9653 271.195 51.9728 270.859 48.9503C270.523 45.9264 272.54 41.5591 269.178 42.9024C265.815 44.2457 262.79 41.8949 260.435 48.613C258.08 55.3311 250.009 62.388 247.991 60.7074C245.974 59.0282 245.637 58.6909 243.955 58.6909C242.273 58.6909 239.92 56.6759 236.893 56.3401C233.865 56.0043 224.784 56.0043 222.433 56.3401C220.078 56.6774 217.389 54.9968 215.369 57.0132C213.352 59.0282 210.326 61.7164 210.326 62.7253C210.326 63.7328 207.299 59.0282 206.291 59.3655C205.282 59.7014 202.59 58.0222 199.566 58.0222C196.539 58.0222 194.52 56.3416 193.513 56.3416C192.505 56.3416 194.52 53.6534 193.513 53.3176C192.505 52.9833 170.643 52.3101 170.643 52.3101C170.643 52.3101 163.582 49.6235 160.893 49.9593C158.202 50.2951 150.805 50.6295 145.085 51.6385C139.367 52.646 130.96 56.0058 128.271 56.3416C125.58 56.6789 119.527 56.6789 118.519 54.9983C117.509 53.3191 118.855 53.6549 117.509 53.3191C116.164 52.9848 117.174 52.3116 114.147 49.9608C111.12 47.6085 115.493 45.5935 109.439 45.5935C103.387 45.5935 99.6874 45.2562 94.3072 45.5935C88.9254 45.9294 77.8289 48.616 76.4842 48.2802C75.1395 47.9443 64.3776 49.9608 62.6952 48.9533C61.0144 47.9443 52.6056 52.6475 50.9263 52.3116C49.2454 51.9758 42.8552 52.6489 41.1744 53.6564C39.492 54.6654 31.421 56.6789 34.1118 58.3595C36.8012 60.0387 36.465 61.7178 36.8012 62.7268C37.1388 63.7343 34.1118 66.0851 34.1118 66.0851C34.1118 66.0851 33.438 66.0851 29.7401 64.7418C26.0408 63.397 22.0052 62.7268 20.3229 63.7343C18.642 64.7418 15.615 66.7598 16.2873 68.1031C16.9612 69.4464 21.6676 72.4704 22.3414 71.4614C23.0137 70.4539 24.6961 68.4389 26.7131 68.7748C28.7316 69.1121 31.7586 67.4314 29.0678 70.7912C26.3769 74.1495 24.0222 75.8302 22.3414 76.1675C20.6605 76.5018 16.625 76.8377 12.9256 77.175C9.22478 77.5123 9.56095 75.8317 6.19925 79.1915C2.83755 82.5498 1.49138 80.5348 0.819037 84.2304C0.146697 87.9245 -0.525643 87.9245 0.819037 88.9335C2.16372 89.941 -1.87182 90.2768 1.15521 91.2843C4.18074 92.2933 7.8801 93.3008 7.54393 94.3068C7.20627 95.3158 10.9071 92.965 8.88861 95.6501C6.8701 98.3397 5.52691 100.689 9.56095 98.0024C13.5965 95.3158 15.9497 97.3293 19.3129 95.6501C22.6761 93.971 26.0393 93.6351 28.0563 92.2918C30.0748 90.947 31.0833 88.9335 34.1103 87.923C37.1373 86.9156 35.1188 88.2604 35.455 89.9395C35.7912 91.6187 35.455 91.9545 37.4735 90.6097C39.4905 89.2664 39.4905 90.2753 42.1814 88.5947C44.8708 86.9156 47.8978 85.2349 49.9163 86.2424C51.9333 87.2514 52.6056 87.2514 53.9518 87.2514C55.2965 87.2514 52.271 86.9141 55.2965 87.2514C58.3235 87.5857 53.9518 86.2424 64.0399 88.5947C74.1295 90.9455 76.8203 89.2664 77.4912 92.962C78.165 96.6576 79.5097 92.6247 81.1906 94.977C82.8714 97.3278 83.8814 95.3143 84.8899 99.3442C85.8984 103.377 84.8899 114.463 84.2176 115.806C83.5452 117.149 83.2091 117.149 83.5452 120.173C83.8814 123.196 87.9169 137.644 86.5723 138.65C85.2276 139.656 82.2006 139.993 82.2006 139.993L80.5197 146.04C80.5197 146.04 77.8303 151.079 75.4757 153.767C73.121 156.453 70.0955 159.815 68.4131 162.164C66.7323 164.516 65.3861 168.549 63.0329 170.9C60.6797 173.251 58.6612 172.243 59.3335 177.282C60.0059 182.321 59.3335 187.696 60.0059 191.393C60.6797 195.089 62.3605 200.128 63.7052 202.144C65.0499 204.159 66.0599 204.159 68.4131 205.838C70.7678 207.517 73.7948 209.535 73.4571 211.214C73.121 212.894 73.7933 223.31 73.7933 223.31C73.7933 223.31 75.8118 226.669 76.1465 230.364C76.4842 234.061 78.8374 237.756 78.8374 237.756L80.8559 242.124C80.8559 242.124 81.8644 242.462 83.2106 245.147C84.5552 247.835 84.5552 247.835 84.8914 249.177C85.2291 250.523 85.2291 250.186 85.2291 250.523C85.2291 250.857 84.8914 244.811 84.2191 243.13C83.5467 241.451 83.5467 239.436 82.8744 237.42C82.202 235.403 83.2106 233.051 81.1935 230.028C79.1765 227.006 79.1765 226.669 78.168 223.645C77.1595 220.622 75.8133 217.262 77.1595 216.589C78.5042 215.919 79.5127 211.552 82.2035 216.589C84.8929 221.628 85.2306 220.286 85.5667 224.318C85.9014 228.349 86.9114 229.694 87.9199 231.372C88.9284 233.051 91.2816 238.764 92.6278 241.114C93.9725 243.466 92.6278 239.77 95.6533 244.474C98.6804 249.177 99.018 250.184 100.699 253.88C102.38 257.575 103.39 257.575 104.398 260.262C105.407 262.952 104.734 262.279 104.061 265.301C103.388 268.324 104.733 271.685 104.733 271.685C104.733 271.685 109.441 273.364 109.777 274.371C110.113 275.379 114.821 277.058 115.495 278.403C116.167 279.748 120.539 281.425 120.539 281.425C120.539 281.425 124.238 283.778 125.581 284.449C126.928 285.121 130.965 285.794 130.965 285.794C130.965 285.794 133.654 286.467 134.662 286.802C135.671 287.137 138.698 287.137 138.698 287.137C138.698 287.137 141.389 285.122 142.397 285.794C143.406 286.464 145.761 284.449 146.769 286.128C147.778 287.809 149.796 287.809 150.805 289.154C151.813 290.497 152.822 290.497 154.504 292.176C156.186 293.856 157.867 293.52 159.548 294.863C161.229 296.206 162.574 296.206 164.592 296.206C166.609 296.206 166.609 296.206 167.955 296.544C169.298 296.88 169.972 295.535 171.317 297.217C172.662 298.896 173.67 299.903 174.679 301.583C175.687 303.262 178.042 303.262 178.378 305.95C178.714 308.637 179.387 308.304 179.387 310.653C179.387 313.005 180.731 314.013 181.741 314.686C182.748 315.356 186.448 318.714 186.448 318.714L191.492 319.723L195.527 322.747L199.903 324.086Z" fill="#ECECEC"/>
<path d="M307.685 11.9851L327.863 9.46561C327.863 9.46561 334.924 9.46561 338.456 6.94614C341.987 4.42667 338.456 4.42667 349.049 2.41169C359.642 0.395215 356.617 -0.612276 362.166 0.395215C367.713 1.4042 369.227 1.4042 375.281 2.41169C381.334 3.41918 382.847 1.90869 388.395 3.41918C393.944 4.93116 396.466 4.42667 401.006 4.42667C405.545 4.42667 408.069 4.42667 415.13 4.42667C422.192 4.42667 428.75 0.395215 431.272 2.91469C433.794 5.43416 435.308 4.42667 443.884 5.43416C452.458 6.44165 455.99 4.42518 459.521 5.43416C463.053 6.44165 469.107 4.93116 476.168 5.43416C483.229 5.93716 486.761 4.93116 489.283 4.93116C491.805 4.93116 494.326 1.40271 497.858 4.42667C501.39 7.45063 505.929 3.41918 506.432 7.45063C506.937 11.4821 513.495 8.45812 506.937 11.4821C500.38 14.506 501.388 14.0016 496.848 18.033C492.309 22.0645 499.875 25.5914 490.29 29.1199C480.705 32.6468 479.192 27.1034 476.67 33.1513C474.148 39.1978 476.67 40.7098 476.166 43.7337C475.661 46.7562 474.653 47.2607 471.626 49.7802C468.6 52.2996 468.6 49.7802 461.538 51.2921C454.475 52.8041 449.431 54.3161 446.406 54.3161C443.379 54.3161 436.821 56.8356 434.803 57.8431C432.784 58.852 438.335 60.3625 427.74 63.3865C417.147 66.4105 414.623 65.9075 411.598 69.9374C408.571 73.9704 409.579 74.4749 407.562 76.9943C405.544 79.5138 399.491 89.5932 396.464 87.0737C393.439 84.5542 391.924 85.0572 389.402 82.5378C386.88 80.0183 385.366 76.4913 383.853 74.4749C382.339 72.4584 381.834 67.4194 381.331 64.3955C380.827 61.3715 376.285 54.3176 381.331 55.3251C386.375 56.3326 389.402 55.8296 390.915 54.8221C392.429 53.8131 393.942 50.2861 393.942 50.2861C393.942 50.2861 393.439 44.7427 391.924 41.7187C390.41 38.6948 391.42 36.1753 388.898 33.1528C386.376 30.1289 386.376 30.6334 382.844 27.6094C379.314 24.5854 380.322 23.0734 374.773 22.5704C369.224 22.0674 367.71 20.554 365.692 21.0585C363.675 21.5615 357.117 17.53 364.178 17.027C371.241 16.5225 377.799 17.53 377.799 17.53C377.799 17.53 386.878 13.4986 383.853 12.9956C380.827 12.4911 388.392 7.95512 381.331 9.4671C374.268 10.9791 366.198 12.9956 364.18 13.4986C362.163 14.0016 357.117 14.5061 352.073 16.018C347.031 17.53 340.975 17.027 337.95 20.554C334.923 24.0809 337.95 24.5854 334.923 24.0809C331.897 23.5779 337.445 20.554 330.384 24.0809C323.321 27.6094 325.34 27.1049 321.809 26.0974C318.277 25.0899 315.755 23.5779 315.755 23.5779C315.755 23.5779 320.297 23.0734 313.738 22.5704C307.18 22.0674 307.18 22.0675 304.658 19.042C302.136 16.018 303.65 16.018 305.162 15.0105C306.677 14.0016 307.685 11.9851 307.685 11.9851Z" fill="#ECECEC"/>
<path d="M296.587 34.6619C294.065 37.1813 288.011 40.7098 289.526 42.2218C291.04 43.7338 292.048 49.2772 295.075 47.7652C298.101 46.2532 294.57 41.2143 306.172 45.2457C317.775 49.2772 316.765 44.7427 319.287 50.7892C321.809 56.8356 323.826 61.3701 322.313 62.8835C320.801 64.3955 320.296 65.9075 315.25 67.4195C310.206 68.9315 308.188 70.9479 311.72 73.4659C315.25 75.9854 321.809 78.5049 324.835 80.0183C327.862 81.5288 336.941 82.0348 332.401 76.9959C327.86 71.9569 333.409 70.4434 333.409 70.4434C333.409 70.4434 341.985 76.9959 338.96 69.436C335.933 61.8775 333.914 61.8775 335.933 61.8775C337.951 61.8775 341.985 64.397 341.985 64.397L344.004 60.3656L341.985 53.8146L335.428 47.2637C335.428 47.2637 340.975 42.2248 333.409 41.2173C325.843 40.2098 326.347 40.2098 322.311 37.6888C318.276 35.1693 317.772 34.1619 310.205 35.6738C302.638 37.1858 300.116 38.1933 300.116 38.1933L296.587 34.6619Z" fill="#ECECEC"/>
<path d="M184.099 40.7098C187.126 37.6858 195.197 30.6319 198.224 32.6469C201.25 34.6618 205.789 31.1349 209.321 34.1588C212.851 37.1828 216.887 40.7098 219.914 41.7173C222.941 42.7247 226.471 39.1978 229.498 40.7098C232.524 42.2217 243.117 33.1513 241.1 40.2068C239.081 47.2622 243.622 49.2772 238.073 49.7817C232.524 50.2861 226.471 54.3176 223.948 52.8056C221.426 51.2936 219.407 49.7816 215.372 51.7981C211.336 53.8131 213.355 53.8131 208.814 52.8056C204.275 51.7981 203.267 53.8131 202.258 52.3011C201.248 50.7906 198.222 51.2936 198.726 46.7577C199.23 42.2232 200.743 42.7262 197.716 42.7262C194.69 42.7262 192.168 43.2307 190.15 41.7187C188.133 40.2068 184.099 40.7098 184.099 40.7098Z" fill="#ECECEC"/>
<circle cx="826" cy="118" r="20" fill="#6A53AA"/>
<path d="M825.377 123.243C825.377 123.243 826.301 119.25 822.018 118.731C822.018 118.723 820.995 123.19 825.377 123.243Z" fill="white"/>
<path d="M827.141 123.243C827.141 123.243 826.217 119.25 830.5 118.731C830.493 118.723 831.523 123.19 827.141 123.243Z" fill="white"/>
<path d="M825.957 106.003C819.292 106.164 813.925 111.737 814.001 118.403C814.062 123.877 817.719 128.488 822.713 129.992C823.14 128.557 822.56 127.022 821.308 126.205C820.445 125.648 819.712 125.045 819.124 124.465L819.216 125.205C819.254 125.518 819.032 125.793 818.719 125.831C818.406 125.87 818.132 125.648 818.093 125.335L817.78 122.808C817.612 122.518 817.49 122.251 817.429 122.021C817.315 121.617 817.414 121.35 817.582 121.174L817.437 120.006L816.994 114.562C816.979 114.379 817.192 114.257 817.338 114.371C817.841 114.753 818.246 115.249 818.483 115.837C819.124 117.433 819.185 119.258 819.185 119.258L818.551 119.868L818.75 121.479C818.887 121.457 819.01 121.502 819.086 121.701C819.132 121.815 819.116 121.968 819.078 122.105C820.231 123.884 822.285 124.961 823.682 125.526C823.858 125.595 824.049 125.503 824.102 125.327C824.148 125.182 824.079 125.03 823.949 124.961C821.812 123.854 820.3 121.243 820.3 118.204C820.3 114.158 822.957 110.882 826.232 110.882C829.508 110.882 832.165 114.158 832.165 118.204C832.165 121.25 830.66 123.854 828.515 124.961C828.385 125.03 828.317 125.182 828.362 125.327C828.416 125.503 828.607 125.602 828.782 125.534C830.149 124.984 832.165 123.938 833.333 122.212C833.279 122.037 833.241 121.846 833.295 121.701C833.363 121.51 833.478 121.457 833.608 121.472L833.821 119.876L833.768 119.823C833.256 119.273 833.02 118.517 833.119 117.776L833.676 115.249C833.707 115.104 833.837 114.99 833.989 115.005C834.165 115.02 834.287 115.173 834.257 115.349L833.852 117.776C833.837 117.906 833.921 118.021 834.05 118.036C834.18 118.051 834.295 117.967 834.31 117.838L834.669 115.394C834.692 115.234 834.837 115.127 834.997 115.15H835.02H835.043C835.203 115.173 835.31 115.318 835.295 115.471L835.005 117.922C834.989 118.051 835.073 118.166 835.203 118.181C835.333 118.196 835.448 118.112 835.463 117.983L835.707 115.547C835.722 115.402 835.829 115.28 835.974 115.272C836.158 115.257 836.303 115.402 836.295 115.578L836.173 118.181C836.074 118.929 835.646 119.586 835.012 119.991L834.951 120.029L834.806 121.09C835.028 121.258 835.196 121.54 835.066 122.021C834.982 122.327 834.806 122.686 834.539 123.083L834.234 125.35C834.188 125.671 833.89 125.892 833.569 125.831C833.272 125.778 833.081 125.472 833.119 125.167L833.188 124.64C832.623 125.175 831.936 125.724 831.141 126.236C829.897 127.045 829.347 128.58 829.767 130C834.814 128.481 838.494 123.8 838.494 118.265C838.517 111.394 832.867 105.843 825.957 106.003Z" fill="white"/>
<circle cx="1034" cy="142" r="20" fill="#6A53AA"/>
<path d="M1033.38 147.243C1033.38 147.243 1034.3 143.25 1030.02 142.731C1030.02 142.723 1028.99 147.19 1033.38 147.243Z" fill="white"/>
<path d="M1035.14 147.243C1035.14 147.243 1034.22 143.25 1038.5 142.731C1038.49 142.723 1039.52 147.19 1035.14 147.243Z" fill="white"/>
<path d="M1033.96 130.004C1027.29 130.164 1021.92 135.737 1022 142.403C1022.06 147.877 1025.72 152.489 1030.71 153.993C1031.14 152.557 1030.56 151.023 1029.31 150.206C1028.44 149.648 1027.71 149.045 1027.12 148.465L1027.22 149.206C1027.25 149.519 1027.03 149.793 1026.72 149.832C1026.41 149.87 1026.13 149.648 1026.09 149.335L1025.78 146.808C1025.61 146.518 1025.49 146.251 1025.43 146.022C1025.31 145.617 1025.41 145.35 1025.58 145.174L1025.44 144.006L1024.99 138.562C1024.98 138.379 1025.19 138.257 1025.34 138.372C1025.84 138.753 1026.25 139.25 1026.48 139.837C1027.12 141.433 1027.19 143.258 1027.19 143.258L1026.55 143.869L1026.75 145.48C1026.89 145.457 1027.01 145.503 1027.09 145.701C1027.13 145.816 1027.12 145.968 1027.08 146.106C1028.23 147.885 1030.28 148.961 1031.68 149.526C1031.86 149.595 1032.05 149.503 1032.1 149.328C1032.15 149.183 1032.08 149.03 1031.95 148.961C1029.81 147.854 1028.3 145.243 1028.3 142.204C1028.3 138.158 1030.96 134.882 1034.23 134.882C1037.51 134.882 1040.16 138.158 1040.16 142.204C1040.16 145.251 1038.66 147.854 1036.52 148.961C1036.39 149.03 1036.32 149.183 1036.36 149.328C1036.42 149.503 1036.61 149.603 1036.78 149.534C1038.15 148.984 1040.16 147.938 1041.33 146.213C1041.28 146.037 1041.24 145.846 1041.29 145.701C1041.36 145.51 1041.48 145.457 1041.61 145.472L1041.82 143.876L1041.77 143.823C1041.26 143.273 1041.02 142.517 1041.12 141.777L1041.68 139.25C1041.71 139.104 1041.84 138.99 1041.99 139.005C1042.16 139.02 1042.29 139.173 1042.26 139.349L1041.85 141.777C1041.84 141.907 1041.92 142.021 1042.05 142.036C1042.18 142.052 1042.29 141.968 1042.31 141.838L1042.67 139.395C1042.69 139.234 1042.84 139.127 1043 139.15H1043.02H1043.04C1043.2 139.173 1043.31 139.318 1043.29 139.471L1043 141.922C1042.99 142.052 1043.07 142.166 1043.2 142.181C1043.33 142.197 1043.45 142.113 1043.46 141.983L1043.71 139.547C1043.72 139.402 1043.83 139.28 1043.97 139.272C1044.16 139.257 1044.3 139.402 1044.3 139.578L1044.17 142.181C1044.07 142.93 1043.65 143.586 1043.01 143.991L1042.95 144.029L1042.81 145.09C1043.03 145.258 1043.2 145.541 1043.07 146.022C1042.98 146.327 1042.81 146.686 1042.54 147.083L1042.23 149.351C1042.19 149.671 1041.89 149.893 1041.57 149.832C1041.27 149.778 1041.08 149.473 1041.12 149.167L1041.19 148.641C1040.62 149.175 1039.94 149.725 1039.14 150.236C1037.9 151.046 1037.35 152.58 1037.77 154C1042.81 152.481 1046.49 147.801 1046.49 142.265C1046.52 135.394 1040.87 129.843 1033.96 130.004Z" fill="white"/>
<circle cx="891" cy="268" r="20" fill="#6A53AA"/>
<path d="M890.377 273.243C890.377 273.243 891.301 269.25 887.018 268.731C887.018 268.723 885.995 273.19 890.377 273.243Z" fill="white"/>
<path d="M892.141 273.243C892.141 273.243 891.217 269.25 895.5 268.731C895.493 268.723 896.523 273.19 892.141 273.243Z" fill="white"/>
<path d="M890.957 256.004C884.292 256.164 878.925 261.737 879.001 268.403C879.062 273.877 882.719 278.489 887.713 279.993C888.14 278.557 887.56 277.023 886.308 276.206C885.445 275.648 884.712 275.045 884.124 274.465L884.216 275.206C884.254 275.519 884.032 275.793 883.719 275.832C883.406 275.87 883.132 275.648 883.093 275.335L882.78 272.808C882.612 272.518 882.49 272.251 882.429 272.022C882.315 271.617 882.414 271.35 882.582 271.174L882.437 270.006L881.994 264.562C881.979 264.379 882.192 264.257 882.338 264.372C882.841 264.753 883.246 265.25 883.483 265.837C884.124 267.433 884.185 269.258 884.185 269.258L883.551 269.869L883.75 271.48C883.887 271.457 884.01 271.503 884.086 271.701C884.132 271.816 884.116 271.968 884.078 272.106C885.231 273.885 887.285 274.961 888.682 275.526C888.858 275.595 889.049 275.503 889.102 275.328C889.148 275.183 889.079 275.03 888.949 274.961C886.812 273.854 885.3 271.243 885.3 268.204C885.3 264.158 887.957 260.882 891.232 260.882C894.508 260.882 897.165 264.158 897.165 268.204C897.165 271.251 895.66 273.854 893.515 274.961C893.385 275.03 893.317 275.183 893.362 275.328C893.416 275.503 893.607 275.603 893.782 275.534C895.149 274.984 897.165 273.938 898.333 272.213C898.279 272.037 898.241 271.846 898.295 271.701C898.363 271.51 898.478 271.457 898.608 271.472L898.821 269.876L898.768 269.823C898.256 269.273 898.02 268.517 898.119 267.777L898.676 265.25C898.707 265.104 898.837 264.99 898.989 265.005C899.165 265.02 899.287 265.173 899.257 265.349L898.852 267.777C898.837 267.907 898.921 268.021 899.05 268.036C899.18 268.052 899.295 267.968 899.31 267.838L899.669 265.395C899.692 265.234 899.837 265.127 899.997 265.15H900.02H900.043C900.203 265.173 900.31 265.318 900.295 265.471L900.005 267.922C899.989 268.052 900.073 268.166 900.203 268.181C900.333 268.197 900.448 268.113 900.463 267.983L900.707 265.547C900.722 265.402 900.829 265.28 900.974 265.272C901.158 265.257 901.303 265.402 901.295 265.578L901.173 268.181C901.074 268.93 900.646 269.586 900.012 269.991L899.951 270.029L899.806 271.09C900.028 271.258 900.196 271.541 900.066 272.022C899.982 272.327 899.806 272.686 899.539 273.083L899.234 275.351C899.188 275.671 898.89 275.893 898.569 275.832C898.272 275.778 898.081 275.473 898.119 275.167L898.188 274.641C897.623 275.175 896.936 275.725 896.141 276.236C894.897 277.046 894.347 278.58 894.767 280C899.814 278.481 903.494 273.801 903.494 268.265C903.517 261.394 897.867 255.843 890.957 256.004Z" fill="white"/>
<circle cx="651" cy="284" r="20" fill="#6A53AA"/>
<path d="M650.377 289.243C650.377 289.243 651.301 285.25 647.018 284.731C647.018 284.723 645.995 289.19 650.377 289.243Z" fill="white"/>
<path d="M652.141 289.243C652.141 289.243 651.217 285.25 655.5 284.731C655.493 284.723 656.523 289.19 652.141 289.243Z" fill="white"/>
<path d="M650.957 272.004C644.292 272.164 638.925 277.737 639.001 284.403C639.062 289.877 642.719 294.489 647.713 295.993C648.14 294.557 647.56 293.023 646.308 292.206C645.445 291.648 644.712 291.045 644.124 290.465L644.216 291.206C644.254 291.519 644.032 291.793 643.719 291.832C643.406 291.87 643.132 291.648 643.093 291.335L642.78 288.808C642.612 288.518 642.49 288.251 642.429 288.022C642.315 287.617 642.414 287.35 642.582 287.174L642.437 286.006L641.994 280.562C641.979 280.379 642.192 280.257 642.338 280.372C642.841 280.753 643.246 281.25 643.483 281.837C644.124 283.433 644.185 285.258 644.185 285.258L643.551 285.869L643.75 287.48C643.887 287.457 644.01 287.503 644.086 287.701C644.132 287.816 644.116 287.968 644.078 288.106C645.231 289.885 647.285 290.961 648.682 291.526C648.858 291.595 649.049 291.503 649.102 291.328C649.148 291.183 649.079 291.03 648.949 290.961C646.812 289.854 645.3 287.243 645.3 284.204C645.3 280.158 647.957 276.882 651.232 276.882C654.508 276.882 657.165 280.158 657.165 284.204C657.165 287.251 655.66 289.854 653.515 290.961C653.385 291.03 653.317 291.183 653.362 291.328C653.416 291.503 653.607 291.603 653.782 291.534C655.149 290.984 657.165 289.938 658.333 288.213C658.279 288.037 658.241 287.846 658.295 287.701C658.363 287.51 658.478 287.457 658.608 287.472L658.821 285.876L658.768 285.823C658.256 285.273 658.02 284.517 658.119 283.777L658.676 281.25C658.707 281.104 658.837 280.99 658.989 281.005C659.165 281.02 659.287 281.173 659.257 281.349L658.852 283.777C658.837 283.907 658.921 284.021 659.05 284.036C659.18 284.052 659.295 283.968 659.31 283.838L659.669 281.395C659.692 281.234 659.837 281.127 659.997 281.15H660.02H660.043C660.203 281.173 660.31 281.318 660.295 281.471L660.005 283.922C659.989 284.052 660.073 284.166 660.203 284.181C660.333 284.197 660.448 284.113 660.463 283.983L660.707 281.547C660.722 281.402 660.829 281.28 660.974 281.272C661.158 281.257 661.303 281.402 661.295 281.578L661.173 284.181C661.074 284.93 660.646 285.586 660.012 285.991L659.951 286.029L659.806 287.09C660.028 287.258 660.196 287.541 660.066 288.022C659.982 288.327 659.806 288.686 659.539 289.083L659.234 291.351C659.188 291.671 658.89 291.893 658.569 291.832C658.272 291.778 658.081 291.473 658.119 291.167L658.188 290.641C657.623 291.175 656.936 291.725 656.141 292.236C654.897 293.046 654.347 294.58 654.767 296C659.814 294.481 663.494 289.801 663.494 284.265C663.517 277.394 657.867 271.843 650.957 272.004Z" fill="white"/>
<circle cx="655" cy="138" r="20" fill="#6A53AA"/>
<path d="M654.377 143.243C654.377 143.243 655.301 139.25 651.018 138.731C651.018 138.723 649.995 143.19 654.377 143.243Z" fill="white"/>
<path d="M656.141 143.243C656.141 143.243 655.217 139.25 659.5 138.731C659.493 138.723 660.523 143.19 656.141 143.243Z" fill="white"/>
<path d="M654.957 126.004C648.292 126.164 642.925 131.737 643.001 138.403C643.062 143.877 646.719 148.489 651.713 149.993C652.14 148.557 651.56 147.023 650.308 146.206C649.445 145.648 648.712 145.045 648.124 144.465L648.216 145.206C648.254 145.519 648.032 145.793 647.719 145.832C647.406 145.87 647.132 145.648 647.093 145.335L646.78 142.808C646.612 142.518 646.49 142.251 646.429 142.022C646.315 141.617 646.414 141.35 646.582 141.174L646.437 140.006L645.994 134.562C645.979 134.379 646.192 134.257 646.338 134.372C646.841 134.753 647.246 135.25 647.483 135.837C648.124 137.433 648.185 139.258 648.185 139.258L647.551 139.869L647.75 141.48C647.887 141.457 648.01 141.503 648.086 141.701C648.132 141.816 648.116 141.968 648.078 142.106C649.231 143.885 651.285 144.961 652.682 145.526C652.858 145.595 653.049 145.503 653.102 145.328C653.148 145.183 653.079 145.03 652.949 144.961C650.812 143.854 649.3 141.243 649.3 138.204C649.3 134.158 651.957 130.882 655.232 130.882C658.508 130.882 661.165 134.158 661.165 138.204C661.165 141.251 659.66 143.854 657.515 144.961C657.385 145.03 657.317 145.183 657.362 145.328C657.416 145.503 657.607 145.603 657.782 145.534C659.149 144.984 661.165 143.938 662.333 142.213C662.279 142.037 662.241 141.846 662.295 141.701C662.363 141.51 662.478 141.457 662.608 141.472L662.821 139.876L662.768 139.823C662.256 139.273 662.02 138.517 662.119 137.777L662.676 135.25C662.707 135.104 662.837 134.99 662.989 135.005C663.165 135.02 663.287 135.173 663.257 135.349L662.852 137.777C662.837 137.907 662.921 138.021 663.05 138.036C663.18 138.052 663.295 137.968 663.31 137.838L663.669 135.395C663.692 135.234 663.837 135.127 663.997 135.15H664.02H664.043C664.203 135.173 664.31 135.318 664.295 135.471L664.005 137.922C663.989 138.052 664.073 138.166 664.203 138.181C664.333 138.197 664.448 138.113 664.463 137.983L664.707 135.547C664.722 135.402 664.829 135.28 664.974 135.272C665.158 135.257 665.303 135.402 665.295 135.578L665.173 138.181C665.074 138.93 664.646 139.586 664.012 139.991L663.951 140.029L663.806 141.09C664.028 141.258 664.196 141.541 664.066 142.022C663.982 142.327 663.806 142.686 663.539 143.083L663.234 145.351C663.188 145.671 662.89 145.893 662.569 145.832C662.272 145.778 662.081 145.473 662.119 145.167L662.188 144.641C661.623 145.175 660.936 145.725 660.141 146.236C658.897 147.046 658.347 148.58 658.767 150C663.814 148.481 667.494 143.801 667.494 138.265C667.517 131.394 661.867 125.843 654.957 126.004Z" fill="white"/>
<circle cx="522" cy="276" r="20" fill="#6A53AA"/>
<path d="M521.377 281.243C521.377 281.243 522.301 277.25 518.018 276.731C518.018 276.723 516.995 281.19 521.377 281.243Z" fill="white"/>
<path d="M523.141 281.243C523.141 281.243 522.217 277.25 526.5 276.731C526.493 276.723 527.523 281.19 523.141 281.243Z" fill="white"/>
<path d="M521.957 264.004C515.292 264.164 509.925 269.737 510.001 276.403C510.062 281.877 513.719 286.489 518.713 287.993C519.14 286.557 518.56 285.023 517.308 284.206C516.445 283.648 515.712 283.045 515.124 282.465L515.216 283.206C515.254 283.519 515.032 283.793 514.719 283.832C514.406 283.87 514.132 283.648 514.093 283.335L513.78 280.808C513.612 280.518 513.49 280.251 513.429 280.022C513.315 279.617 513.414 279.35 513.582 279.174L513.437 278.006L512.994 272.562C512.979 272.379 513.192 272.257 513.338 272.372C513.841 272.753 514.246 273.25 514.483 273.837C515.124 275.433 515.185 277.258 515.185 277.258L514.551 277.869L514.75 279.48C514.887 279.457 515.01 279.503 515.086 279.701C515.132 279.816 515.116 279.968 515.078 280.106C516.231 281.885 518.285 282.961 519.682 283.526C519.858 283.595 520.049 283.503 520.102 283.328C520.148 283.183 520.079 283.03 519.949 282.961C517.812 281.854 516.3 279.243 516.3 276.204C516.3 272.158 518.957 268.882 522.232 268.882C525.508 268.882 528.165 272.158 528.165 276.204C528.165 279.251 526.66 281.854 524.515 282.961C524.385 283.03 524.317 283.183 524.362 283.328C524.416 283.503 524.607 283.603 524.782 283.534C526.149 282.984 528.165 281.938 529.333 280.213C529.279 280.037 529.241 279.846 529.295 279.701C529.363 279.51 529.478 279.457 529.608 279.472L529.821 277.876L529.768 277.823C529.256 277.273 529.02 276.517 529.119 275.777L529.676 273.25C529.707 273.104 529.837 272.99 529.989 273.005C530.165 273.02 530.287 273.173 530.257 273.349L529.852 275.777C529.837 275.907 529.921 276.021 530.05 276.036C530.18 276.052 530.295 275.968 530.31 275.838L530.669 273.395C530.692 273.234 530.837 273.127 530.997 273.15H531.02H531.043C531.203 273.173 531.31 273.318 531.295 273.471L531.005 275.922C530.989 276.052 531.073 276.166 531.203 276.181C531.333 276.197 531.448 276.113 531.463 275.983L531.707 273.547C531.722 273.402 531.829 273.28 531.974 273.272C532.158 273.257 532.303 273.402 532.295 273.578L532.173 276.181C532.074 276.93 531.646 277.586 531.012 277.991L530.951 278.029L530.806 279.09C531.028 279.258 531.196 279.541 531.066 280.022C530.982 280.327 530.806 280.686 530.539 281.083L530.234 283.351C530.188 283.671 529.89 283.893 529.569 283.832C529.272 283.778 529.081 283.473 529.119 283.167L529.188 282.641C528.623 283.175 527.936 283.725 527.141 284.236C525.897 285.046 525.347 286.58 525.767 288C530.814 286.481 534.494 281.801 534.494 276.265C534.517 269.394 528.867 263.843 521.957 264.004Z" fill="white"/>
<circle cx="143" cy="195" r="20" fill="#6952A9"/>
<path d="M142.377 200.243C142.377 200.243 143.301 196.25 139.018 195.731C139.018 195.723 137.995 200.19 142.377 200.243Z" fill="white"/>
<path d="M144.141 200.243C144.141 200.243 143.217 196.25 147.5 195.731C147.493 195.723 148.523 200.19 144.141 200.243Z" fill="white"/>
<path d="M142.957 183.004C136.292 183.164 130.925 188.737 131.001 195.403C131.062 200.877 134.719 205.489 139.713 206.993C140.14 205.557 139.56 204.023 138.308 203.206C137.445 202.648 136.712 202.045 136.124 201.465L136.216 202.206C136.254 202.519 136.032 202.793 135.719 202.832C135.406 202.87 135.132 202.648 135.093 202.335L134.78 199.808C134.612 199.518 134.49 199.251 134.429 199.022C134.315 198.617 134.414 198.35 134.582 198.174L134.437 197.006L133.994 191.562C133.979 191.379 134.192 191.257 134.338 191.372C134.841 191.753 135.246 192.25 135.483 192.837C136.124 194.433 136.185 196.258 136.185 196.258L135.551 196.869L135.75 198.48C135.887 198.457 136.01 198.503 136.086 198.701C136.132 198.816 136.116 198.968 136.078 199.106C137.231 200.885 139.285 201.961 140.682 202.526C140.858 202.595 141.049 202.503 141.102 202.328C141.148 202.183 141.079 202.03 140.949 201.961C138.812 200.854 137.3 198.243 137.3 195.204C137.3 191.158 139.957 187.882 143.232 187.882C146.508 187.882 149.165 191.158 149.165 195.204C149.165 198.251 147.66 200.854 145.515 201.961C145.385 202.03 145.317 202.183 145.362 202.328C145.416 202.503 145.607 202.603 145.782 202.534C147.149 201.984 149.165 200.938 150.333 199.213C150.279 199.037 150.241 198.846 150.295 198.701C150.363 198.51 150.478 198.457 150.608 198.472L150.821 196.876L150.768 196.823C150.256 196.273 150.02 195.517 150.119 194.777L150.676 192.25C150.707 192.104 150.837 191.99 150.989 192.005C151.165 192.02 151.287 192.173 151.257 192.349L150.852 194.777C150.837 194.907 150.921 195.021 151.05 195.036C151.18 195.052 151.295 194.968 151.31 194.838L151.669 192.395C151.692 192.234 151.837 192.127 151.997 192.15H152.02H152.043C152.203 192.173 152.31 192.318 152.295 192.471L152.005 194.922C151.989 195.052 152.073 195.166 152.203 195.181C152.333 195.197 152.448 195.113 152.463 194.983L152.707 192.547C152.722 192.402 152.829 192.28 152.974 192.272C153.158 192.257 153.303 192.402 153.295 192.578L153.173 195.181C153.074 195.93 152.646 196.586 152.012 196.991L151.951 197.029L151.806 198.09C152.028 198.258 152.196 198.541 152.066 199.022C151.982 199.327 151.806 199.686 151.539 200.083L151.234 202.351C151.188 202.671 150.89 202.893 150.569 202.832C150.272 202.778 150.081 202.473 150.119 202.167L150.188 201.641C149.623 202.175 148.936 202.725 148.141 203.236C146.897 204.046 146.347 205.58 146.767 207C151.814 205.481 155.494 200.801 155.494 195.265C155.517 188.394 149.867 182.843 142.957 183.004Z" fill="white"/>
<circle cx="112" cy="81.0002" r="20" fill="#6952A9"/>
<path d="M111.377 86.2433C111.377 86.2433 112.301 82.2503 108.018 81.7311C108.018 81.7235 106.995 86.1899 111.377 86.2433Z" fill="white"/>
<path d="M113.141 86.2432C113.141 86.2432 112.217 82.2501 116.5 81.731C116.493 81.7233 117.523 86.1898 113.141 86.2432Z" fill="white"/>
<path d="M111.957 69.0036C105.292 69.164 99.9247 74.7375 100.001 81.4028C100.062 86.877 103.719 91.4885 108.713 92.9926C109.14 91.5572 108.56 90.0226 107.308 89.2057C106.445 88.6483 105.712 88.0452 105.124 87.4649L105.216 88.2055C105.254 88.5185 105.032 88.7934 104.719 88.8316C104.406 88.8697 104.132 88.6483 104.093 88.3353L103.78 85.8081C103.612 85.518 103.49 85.2508 103.429 85.0217C103.315 84.6171 103.414 84.3499 103.582 84.1743L103.437 83.0061L102.994 77.5624C102.979 77.3792 103.192 77.257 103.338 77.3715C103.841 77.7533 104.246 78.2495 104.483 78.8374C105.124 80.4331 105.185 82.2579 105.185 82.2579L104.551 82.8687L104.75 84.4797C104.887 84.4567 105.01 84.5026 105.086 84.7011C105.132 84.8156 105.116 84.9683 105.078 85.1057C106.231 86.8847 108.285 87.9612 109.682 88.5262C109.858 88.5949 110.049 88.5033 110.102 88.3277C110.148 88.1826 110.079 88.0299 109.949 87.9612C107.812 86.8541 106.3 84.243 106.3 81.2043C106.3 77.1577 108.957 73.8824 112.232 73.8824C115.508 73.8824 118.165 77.1577 118.165 81.2043C118.165 84.2506 116.66 86.8541 114.515 87.9612C114.385 88.0299 114.317 88.1826 114.362 88.3277C114.416 88.5033 114.607 88.6025 114.782 88.5338C116.149 87.9841 118.165 86.9381 119.333 85.2126C119.279 85.037 119.241 84.8461 119.295 84.7011C119.363 84.5102 119.478 84.4567 119.608 84.472L119.821 82.8763L119.768 82.8229C119.256 82.2732 119.02 81.5173 119.119 80.7767L119.676 78.2495C119.707 78.1045 119.837 77.99 119.989 78.0052C120.165 78.0205 120.287 78.1732 120.257 78.3488L119.852 80.7767C119.837 80.9065 119.921 81.021 120.05 81.0363C120.18 81.0516 120.295 80.9676 120.31 80.8378L120.669 78.3946C120.692 78.2343 120.837 78.1274 120.997 78.1503H121.02H121.043C121.203 78.1732 121.31 78.3183 121.295 78.471L121.005 80.9218C120.989 81.0516 121.073 81.1661 121.203 81.1814C121.333 81.1966 121.448 81.1126 121.463 80.9829L121.707 78.5473C121.722 78.4022 121.829 78.2801 121.974 78.2724C122.158 78.2572 122.303 78.4022 122.295 78.5778L122.173 81.1814C122.074 81.9296 121.646 82.5862 121.012 82.9908L120.951 83.029L120.806 84.0903C121.028 84.2582 121.196 84.5407 121.066 85.0217C120.982 85.3271 120.806 85.686 120.539 86.083L120.234 88.3506C120.188 88.6712 119.89 88.8926 119.569 88.8316C119.272 88.7781 119.081 88.4727 119.119 88.1673L119.188 87.6405C118.623 88.175 117.936 88.7247 117.141 89.2362C115.897 90.0455 115.347 91.5801 115.767 93.0002C120.814 91.4809 124.494 86.8007 124.494 81.2653C124.517 74.3939 118.867 68.8433 111.957 69.0036Z" fill="white"/>
<circle cx="301" cy="146" r="20" fill="url(#paint0_radial_143_846)"/>
<path d="M300.377 151.243C300.377 151.243 301.301 147.25 297.018 146.731C297.018 146.723 295.995 151.19 300.377 151.243Z" fill="white"/>
<path d="M302.141 151.243C302.141 151.243 301.217 147.25 305.5 146.731C305.493 146.723 306.523 151.19 302.141 151.243Z" fill="white"/>
<path d="M300.957 134.004C294.292 134.164 288.925 139.737 289.001 146.403C289.062 151.877 292.719 156.489 297.713 157.993C298.14 156.557 297.56 155.023 296.308 154.206C295.445 153.648 294.712 153.045 294.124 152.465L294.216 153.206C294.254 153.519 294.032 153.793 293.719 153.832C293.406 153.87 293.132 153.648 293.093 153.335L292.78 150.808C292.612 150.518 292.49 150.251 292.429 150.022C292.315 149.617 292.414 149.35 292.582 149.174L292.437 148.006L291.994 142.562C291.979 142.379 292.192 142.257 292.338 142.372C292.841 142.753 293.246 143.25 293.483 143.837C294.124 145.433 294.185 147.258 294.185 147.258L293.551 147.869L293.75 149.48C293.887 149.457 294.01 149.503 294.086 149.701C294.132 149.816 294.116 149.968 294.078 150.106C295.231 151.885 297.285 152.961 298.682 153.526C298.858 153.595 299.049 153.503 299.102 153.328C299.148 153.183 299.079 153.03 298.949 152.961C296.812 151.854 295.3 149.243 295.3 146.204C295.3 142.158 297.957 138.882 301.232 138.882C304.508 138.882 307.165 142.158 307.165 146.204C307.165 149.251 305.66 151.854 303.515 152.961C303.385 153.03 303.317 153.183 303.362 153.328C303.416 153.503 303.607 153.603 303.782 153.534C305.149 152.984 307.165 151.938 308.333 150.213C308.279 150.037 308.241 149.846 308.295 149.701C308.363 149.51 308.478 149.457 308.608 149.472L308.821 147.876L308.768 147.823C308.256 147.273 308.02 146.517 308.119 145.777L308.676 143.25C308.707 143.104 308.837 142.99 308.989 143.005C309.165 143.02 309.287 143.173 309.257 143.349L308.852 145.777C308.837 145.907 308.921 146.021 309.05 146.036C309.18 146.052 309.295 145.968 309.31 145.838L309.669 143.395C309.692 143.234 309.837 143.127 309.997 143.15H310.02H310.043C310.203 143.173 310.31 143.318 310.295 143.471L310.005 145.922C309.989 146.052 310.073 146.166 310.203 146.181C310.333 146.197 310.448 146.113 310.463 145.983L310.707 143.547C310.722 143.402 310.829 143.28 310.974 143.272C311.158 143.257 311.303 143.402 311.295 143.578L311.173 146.181C311.074 146.93 310.646 147.586 310.012 147.991L309.951 148.029L309.806 149.09C310.028 149.258 310.196 149.541 310.066 150.022C309.982 150.327 309.806 150.686 309.539 151.083L309.234 153.351C309.188 153.671 308.89 153.893 308.569 153.832C308.272 153.778 308.081 153.473 308.119 153.167L308.188 152.641C307.623 153.175 306.936 153.725 306.141 154.236C304.897 155.046 304.347 156.58 304.767 158C309.814 156.481 313.494 151.801 313.494 146.265C313.517 139.394 307.867 133.843 300.957 134.004Z" fill="white"/>
<circle cx="277" cy="352" r="20" fill="#6A53AA"/>
<path d="M276.377 357.243C276.377 357.243 277.301 353.25 273.018 352.731C273.018 352.723 271.995 357.19 276.377 357.243Z" fill="white"/>
<path d="M278.141 357.243C278.141 357.243 277.217 353.25 281.5 352.731C281.493 352.723 282.523 357.19 278.141 357.243Z" fill="white"/>
<path d="M276.957 340.004C270.292 340.164 264.925 345.737 265.001 352.403C265.062 357.877 268.719 362.489 273.713 363.993C274.14 362.557 273.56 361.023 272.308 360.206C271.445 359.648 270.712 359.045 270.124 358.465L270.216 359.206C270.254 359.519 270.032 359.793 269.719 359.832C269.406 359.87 269.132 359.648 269.093 359.335L268.78 356.808C268.612 356.518 268.49 356.251 268.429 356.022C268.315 355.617 268.414 355.35 268.582 355.174L268.437 354.006L267.994 348.562C267.979 348.379 268.192 348.257 268.338 348.372C268.841 348.753 269.246 349.25 269.483 349.837C270.124 351.433 270.185 353.258 270.185 353.258L269.551 353.869L269.75 355.48C269.887 355.457 270.01 355.503 270.086 355.701C270.132 355.816 270.116 355.968 270.078 356.106C271.231 357.885 273.285 358.961 274.682 359.526C274.858 359.595 275.049 359.503 275.102 359.328C275.148 359.183 275.079 359.03 274.949 358.961C272.812 357.854 271.3 355.243 271.3 352.204C271.3 348.158 273.957 344.882 277.232 344.882C280.508 344.882 283.165 348.158 283.165 352.204C283.165 355.251 281.66 357.854 279.515 358.961C279.385 359.03 279.317 359.183 279.362 359.328C279.416 359.503 279.607 359.603 279.782 359.534C281.149 358.984 283.165 357.938 284.333 356.213C284.279 356.037 284.241 355.846 284.295 355.701C284.363 355.51 284.478 355.457 284.608 355.472L284.821 353.876L284.768 353.823C284.256 353.273 284.02 352.517 284.119 351.777L284.676 349.25C284.707 349.104 284.837 348.99 284.989 349.005C285.165 349.02 285.287 349.173 285.257 349.349L284.852 351.777C284.837 351.907 284.921 352.021 285.05 352.036C285.18 352.052 285.295 351.968 285.31 351.838L285.669 349.395C285.692 349.234 285.837 349.127 285.997 349.15H286.02H286.043C286.203 349.173 286.31 349.318 286.295 349.471L286.005 351.922C285.989 352.052 286.073 352.166 286.203 352.181C286.333 352.197 286.448 352.113 286.463 351.983L286.707 349.547C286.722 349.402 286.829 349.28 286.974 349.272C287.158 349.257 287.303 349.402 287.295 349.578L287.173 352.181C287.074 352.93 286.646 353.586 286.012 353.991L285.951 354.029L285.806 355.09C286.028 355.258 286.196 355.541 286.066 356.022C285.982 356.327 285.806 356.686 285.539 357.083L285.234 359.351C285.188 359.671 284.89 359.893 284.569 359.832C284.272 359.778 284.081 359.473 284.119 359.167L284.188 358.641C283.623 359.175 282.936 359.725 282.141 360.236C280.897 361.046 280.347 362.58 280.767 364C285.814 362.481 289.494 357.801 289.494 352.265C289.517 345.394 283.867 339.843 276.957 340.004Z" fill="white"/>
<circle cx="332" cy="417" r="20" fill="#6A53AA"/>
<path d="M331.377 422.243C331.377 422.243 332.301 418.25 328.018 417.731C328.018 417.723 326.995 422.19 331.377 422.243Z" fill="white"/>
<path d="M333.141 422.243C333.141 422.243 332.217 418.25 336.5 417.731C336.493 417.723 337.523 422.19 333.141 422.243Z" fill="white"/>
<path d="M331.957 405.004C325.292 405.164 319.925 410.737 320.001 417.403C320.062 422.877 323.719 427.489 328.713 428.993C329.14 427.557 328.56 426.023 327.308 425.206C326.445 424.648 325.712 424.045 325.124 423.465L325.216 424.206C325.254 424.519 325.032 424.793 324.719 424.832C324.406 424.87 324.132 424.648 324.093 424.335L323.78 421.808C323.612 421.518 323.49 421.251 323.429 421.022C323.315 420.617 323.414 420.35 323.582 420.174L323.437 419.006L322.994 413.562C322.979 413.379 323.192 413.257 323.338 413.372C323.841 413.753 324.246 414.25 324.483 414.837C325.124 416.433 325.185 418.258 325.185 418.258L324.551 418.869L324.75 420.48C324.887 420.457 325.01 420.503 325.086 420.701C325.132 420.816 325.116 420.968 325.078 421.106C326.231 422.885 328.285 423.961 329.682 424.526C329.858 424.595 330.049 424.503 330.102 424.328C330.148 424.183 330.079 424.03 329.949 423.961C327.812 422.854 326.3 420.243 326.3 417.204C326.3 413.158 328.957 409.882 332.232 409.882C335.508 409.882 338.165 413.158 338.165 417.204C338.165 420.251 336.66 422.854 334.515 423.961C334.385 424.03 334.317 424.183 334.362 424.328C334.416 424.503 334.607 424.603 334.782 424.534C336.149 423.984 338.165 422.938 339.333 421.213C339.279 421.037 339.241 420.846 339.295 420.701C339.363 420.51 339.478 420.457 339.608 420.472L339.821 418.876L339.768 418.823C339.256 418.273 339.02 417.517 339.119 416.777L339.676 414.25C339.707 414.104 339.837 413.99 339.989 414.005C340.165 414.02 340.287 414.173 340.257 414.349L339.852 416.777C339.837 416.907 339.921 417.021 340.05 417.036C340.18 417.052 340.295 416.968 340.31 416.838L340.669 414.395C340.692 414.234 340.837 414.127 340.997 414.15H341.02H341.043C341.203 414.173 341.31 414.318 341.295 414.471L341.005 416.922C340.989 417.052 341.073 417.166 341.203 417.181C341.333 417.197 341.448 417.113 341.463 416.983L341.707 414.547C341.722 414.402 341.829 414.28 341.974 414.272C342.158 414.257 342.303 414.402 342.295 414.578L342.173 417.181C342.074 417.93 341.646 418.586 341.012 418.991L340.951 419.029L340.806 420.09C341.028 420.258 341.196 420.541 341.066 421.022C340.982 421.327 340.806 421.686 340.539 422.083L340.234 424.351C340.188 424.671 339.89 424.893 339.569 424.832C339.272 424.778 339.081 424.473 339.119 424.167L339.188 423.641C338.623 424.175 337.936 424.725 337.141 425.236C335.897 426.046 335.347 427.58 335.767 429C340.814 427.481 344.494 422.801 344.494 417.265C344.517 410.394 338.867 404.843 331.957 405.004Z" fill="white"/>
<circle cx="257" cy="535" r="20" fill="#6A53AA"/>
<path d="M256.377 540.243C256.377 540.243 257.301 536.25 253.018 535.731C253.018 535.723 251.995 540.19 256.377 540.243Z" fill="white"/>
<path d="M258.141 540.243C258.141 540.243 257.217 536.25 261.5 535.731C261.493 535.723 262.523 540.19 258.141 540.243Z" fill="white"/>
<path d="M256.957 523.004C250.292 523.164 244.925 528.737 245.001 535.403C245.062 540.877 248.719 545.489 253.713 546.993C254.14 545.557 253.56 544.023 252.308 543.206C251.445 542.648 250.712 542.045 250.124 541.465L250.216 542.206C250.254 542.519 250.032 542.793 249.719 542.832C249.406 542.87 249.132 542.648 249.093 542.335L248.78 539.808C248.612 539.518 248.49 539.251 248.429 539.022C248.315 538.617 248.414 538.35 248.582 538.174L248.437 537.006L247.994 531.562C247.979 531.379 248.192 531.257 248.338 531.372C248.841 531.753 249.246 532.25 249.483 532.837C250.124 534.433 250.185 536.258 250.185 536.258L249.551 536.869L249.75 538.48C249.887 538.457 250.01 538.503 250.086 538.701C250.132 538.816 250.116 538.968 250.078 539.106C251.231 540.885 253.285 541.961 254.682 542.526C254.858 542.595 255.049 542.503 255.102 542.328C255.148 542.183 255.079 542.03 254.949 541.961C252.812 540.854 251.3 538.243 251.3 535.204C251.3 531.158 253.957 527.882 257.232 527.882C260.508 527.882 263.165 531.158 263.165 535.204C263.165 538.251 261.66 540.854 259.515 541.961C259.385 542.03 259.317 542.183 259.362 542.328C259.416 542.503 259.607 542.603 259.782 542.534C261.149 541.984 263.165 540.938 264.333 539.213C264.279 539.037 264.241 538.846 264.295 538.701C264.363 538.51 264.478 538.457 264.608 538.472L264.821 536.876L264.768 536.823C264.256 536.273 264.02 535.517 264.119 534.777L264.676 532.25C264.707 532.104 264.837 531.99 264.989 532.005C265.165 532.02 265.287 532.173 265.257 532.349L264.852 534.777C264.837 534.907 264.921 535.021 265.05 535.036C265.18 535.052 265.295 534.968 265.31 534.838L265.669 532.395C265.692 532.234 265.837 532.127 265.997 532.15H266.02H266.043C266.203 532.173 266.31 532.318 266.295 532.471L266.005 534.922C265.989 535.052 266.073 535.166 266.203 535.181C266.333 535.197 266.448 535.113 266.463 534.983L266.707 532.547C266.722 532.402 266.829 532.28 266.974 532.272C267.158 532.257 267.303 532.402 267.295 532.578L267.173 535.181C267.074 535.93 266.646 536.586 266.012 536.991L265.951 537.029L265.806 538.09C266.028 538.258 266.196 538.541 266.066 539.022C265.982 539.327 265.806 539.686 265.539 540.083L265.234 542.351C265.188 542.671 264.89 542.893 264.569 542.832C264.272 542.778 264.081 542.473 264.119 542.167L264.188 541.641C263.623 542.175 262.936 542.725 262.141 543.236C260.897 544.046 260.347 545.58 260.767 547C265.814 545.481 269.494 540.801 269.494 535.265C269.517 528.394 263.867 522.843 256.957 523.004Z" fill="white"/>
<defs>
<radialGradient id="paint0_radial_143_846" cx="0" cy="0" r="1" gradientUnits="userSpaceOnUse" gradientTransform="translate(304.75 142.25) rotate(116.565) scale(22.3607)">
<stop stop-color="#6B52A9"/>
<stop offset="1" stop-color="#6952A9"/>
</radialGradient>
</defs>
</svg>
