<svg width="56" height="65" viewBox="0 0 56 65" fill="none" xmlns="http://www.w3.org/2000/svg">
<path d="M53.887 63.605C53.7859 63.6053 53.6868 63.5768 53.6012 63.5229C53.5157 63.469 53.4472 63.3918 53.4039 63.3005C53.3605 63.2091 53.344 63.1073 53.3562 63.007C53.3685 62.9066 53.4091 62.8118 53.4732 62.7336L54.2529 61.7736L52.895 62.5565C52.7853 62.6192 52.6568 62.6409 52.5325 62.6176C52.4082 62.5944 52.2962 62.5277 52.2165 62.4296C52.1368 62.3314 52.0946 62.2081 52.0973 62.0817C52.1001 61.9553 52.1477 61.834 52.2316 61.7394L53.8636 59.9261L51.3569 61.3725C51.239 61.4386 51.1004 61.4574 50.9692 61.4252C50.8379 61.393 50.7238 61.3122 50.6498 61.1991C50.5758 61.086 50.5476 60.949 50.5707 60.8159C50.5939 60.6827 50.6667 60.5633 50.7745 60.4818L54.8812 57.4557L49.9628 60.2952C49.8439 60.3626 49.7037 60.3818 49.571 60.3489C49.4384 60.3159 49.3234 60.2333 49.2499 60.1181C49.1764 60.0028 49.15 59.8638 49.176 59.7296C49.2021 59.5954 49.2787 59.4764 49.39 59.397L52.574 57.1688L48.7628 59.3682C48.6443 59.4352 48.5047 59.4543 48.3726 59.4217C48.2405 59.3891 48.1259 59.3073 48.0521 59.1929C47.9784 59.0786 47.9512 58.9404 47.976 58.8066C48.0008 58.6728 48.0758 58.5536 48.1857 58.4733L53.7825 54.4605L47.2737 58.2162C47.1547 58.2845 47.0138 58.3043 46.8806 58.2715C46.7473 58.2386 46.6318 58.1556 46.5582 58.0398C46.4845 57.924 46.4584 57.7842 46.4852 57.6496C46.5119 57.515 46.5896 57.3958 46.702 57.317L52.494 53.2637L45.8422 57.1037C45.7222 57.1733 45.5797 57.1934 45.445 57.1596C45.3104 57.1259 45.1942 57.041 45.1212 56.923C45.0482 56.8049 45.024 56.6631 45.0539 56.5275C45.0838 56.392 45.1653 56.2734 45.2812 56.197L47.6481 54.6429L44.4108 56.5096C44.2921 56.5747 44.1531 56.5923 44.022 56.5588C43.8909 56.5253 43.7774 56.4432 43.7045 56.3291C43.6317 56.215 43.6049 56.0775 43.6297 55.9444C43.6545 55.8114 43.7289 55.6927 43.838 55.6125L52.6049 49.4696L40.4129 56.5096C40.2935 56.5767 40.1528 56.5953 40.02 56.5616C39.8873 56.5278 39.7726 56.4443 39.6998 56.3282C39.6269 56.2122 39.6015 56.0726 39.6289 55.9383C39.6562 55.8041 39.7341 55.6855 39.8465 55.6072L50.2337 48.5768L36.4929 56.5096C36.3731 56.5757 36.2325 56.5932 36.1002 56.5586C35.9678 56.524 35.8538 56.4398 35.7818 56.3235C35.7097 56.2072 35.6851 56.0677 35.713 55.9338C35.741 55.7998 35.8193 55.6818 35.9318 55.604L48.3969 47.3266L32.4918 56.5096C32.3717 56.5748 32.2311 56.5914 32.0991 56.5559C31.9671 56.5205 31.8537 56.4357 31.7824 56.3191C31.7111 56.2024 31.6873 56.0629 31.7159 55.9292C31.7445 55.7956 31.8233 55.678 31.9361 55.6008L44.286 47.6402L28.9228 56.5096C28.8026 56.5748 28.662 56.5914 28.53 56.5559C28.398 56.5205 28.2847 56.4357 28.2133 56.3191C28.142 56.2024 28.1182 56.0629 28.1468 55.9292C28.1754 55.7956 28.2542 55.678 28.367 55.6008L44.9174 44.8957L25.0038 56.3922C24.8832 56.4586 24.7416 56.4757 24.6087 56.44C24.4757 56.4043 24.3617 56.3187 24.2905 56.2009C24.2192 56.0831 24.1963 55.9423 24.2265 55.808C24.2567 55.6737 24.3376 55.5562 24.4524 55.4802L40.3916 45.3938L23.3324 55.2434C23.2113 55.3132 23.0676 55.3327 22.9323 55.2977C22.797 55.2627 22.6808 55.1759 22.6088 55.0561C22.5368 54.9363 22.5147 54.793 22.5473 54.6571C22.5799 54.5211 22.6645 54.4034 22.783 54.3293L36.5622 45.7224L22.7201 53.7117C22.5993 53.7794 22.4568 53.7974 22.3229 53.762C22.189 53.7265 22.0741 53.6404 22.0026 53.5218C21.9311 53.4031 21.9086 53.2613 21.9398 53.1264C21.9709 52.9914 22.0534 52.8739 22.1697 52.7986L37.8817 42.9448L22.6988 51.7096C22.5779 51.7733 22.4372 51.7881 22.3056 51.7511C22.1741 51.7141 22.0618 51.628 21.9919 51.5106C21.922 51.3932 21.8998 51.2535 21.9299 51.1202C21.96 50.9869 22.0401 50.8703 22.1537 50.7944L29.0134 46.581L22.6988 50.2258C22.5778 50.2924 22.4358 50.3095 22.3025 50.2736C22.1692 50.2376 22.0551 50.1514 21.9841 50.033C21.9131 49.9146 21.8908 49.7733 21.9218 49.6388C21.9528 49.5042 22.0348 49.387 22.1505 49.3117L34.3926 41.6754L22.6988 48.4264C22.578 48.4909 22.437 48.5065 22.305 48.4699C22.1731 48.4333 22.0602 48.3473 21.9899 48.2298C21.9196 48.1123 21.8971 47.9723 21.9272 47.8387C21.9573 47.7051 22.0376 47.5882 22.1516 47.5122L31.2182 41.8728L22.6988 46.7901C22.578 46.8546 22.437 46.8702 22.305 46.8336C22.1731 46.797 22.0602 46.7111 21.9899 46.5936C21.9196 46.4761 21.8971 46.336 21.9272 46.2024C21.9573 46.0688 22.0376 45.9519 22.1516 45.876L26.8353 42.9757L22.6988 45.3629C22.5786 45.4281 22.438 45.4447 22.306 45.4092C22.174 45.3738 22.0606 45.289 21.9893 45.1724C21.918 45.0558 21.8942 44.9162 21.9228 44.7826C21.9514 44.6489 22.0302 44.5313 22.143 44.4541L34.9804 36.1458L22.6988 43.236C22.5786 43.3012 22.438 43.3178 22.306 43.2823C22.174 43.2469 22.0606 43.1621 21.9893 43.0455C21.918 42.9288 21.8942 42.7893 21.9228 42.6556C21.9514 42.522 22.0302 42.4044 22.143 42.3272L31.7686 36.0946L22.702 41.3298C22.5812 41.3988 22.4383 41.4179 22.3036 41.3831C22.169 41.3482 22.0533 41.2621 21.9812 41.1431C21.9091 41.0242 21.8864 40.8818 21.9178 40.7463C21.9492 40.6108 22.0323 40.4929 22.1494 40.4178L25.6182 38.2152L22.6988 39.8973C22.579 39.9634 22.4384 39.981 22.306 39.9464C22.1737 39.9117 22.0597 39.8276 21.9876 39.7113C21.9156 39.595 21.891 39.4554 21.9189 39.3215C21.9468 39.1876 22.0252 39.0695 22.1377 38.9917L29.4284 34.1501L22.6988 38.0338C22.5789 38.099 22.4386 38.1158 22.3067 38.0808C22.1749 38.0457 22.0615 37.9614 21.9898 37.8452C21.9182 37.7291 21.8939 37.5899 21.9218 37.4563C21.9497 37.3227 22.0277 37.2049 22.1398 37.1272L24.9068 35.3138L22.6988 36.5938C22.581 36.6608 22.4421 36.6804 22.3103 36.6487C22.1786 36.617 22.0639 36.5363 21.9895 36.423C21.915 36.3098 21.8865 36.1725 21.9097 36.039C21.9329 35.9055 22.006 35.7858 22.1142 35.7042L24.5676 33.8834L22.6988 34.9522C22.5954 35.0135 22.4742 35.0375 22.3553 35.0205C22.2364 35.0034 22.1269 34.9462 22.0449 34.8584C21.9621 34.7711 21.9112 34.6583 21.9005 34.5384C21.8899 34.4186 21.9201 34.2986 21.9862 34.1981L22.4588 33.4792C22.3608 33.4849 22.2632 33.463 22.177 33.4161C22.0909 33.3691 22.0196 33.299 21.9713 33.2136C21.9005 33.0912 21.8812 32.9457 21.9176 32.8091C21.954 32.6725 22.0431 32.5559 22.1654 32.485L23.7996 31.54C23.9035 31.4801 24.0245 31.457 24.1432 31.4744C24.2618 31.4918 24.3711 31.5486 24.4535 31.6358C24.5358 31.723 24.5864 31.8353 24.597 31.9548C24.6077 32.0742 24.5778 32.1937 24.5121 32.2941L24.111 32.9064L32.0065 28.3496C32.1243 28.2826 32.2632 28.263 32.3949 28.2947C32.5267 28.3264 32.6414 28.4071 32.7158 28.5203C32.7902 28.6336 32.8187 28.7709 32.7956 28.9044C32.7724 29.0379 32.6993 29.1576 32.591 29.2392L30.1441 31.0568L40.6838 24.9768C40.804 24.9084 40.946 24.8894 41.0799 24.9238C41.2138 24.9581 41.3291 25.0431 41.4016 25.1608C41.474 25.2785 41.498 25.4197 41.4684 25.5547C41.4387 25.6897 41.3579 25.8079 41.2428 25.8845L38.4694 27.7064L43.6268 24.7229C43.7466 24.6547 43.8883 24.6356 44.0219 24.6696C44.1556 24.7036 44.2709 24.788 44.3436 24.9052C44.4163 25.0224 44.4408 25.1632 44.412 25.298C44.3832 25.4329 44.3032 25.5513 44.1889 25.6285L36.9068 30.4658L46.8556 24.7229C46.976 24.6576 47.1169 24.6412 47.2491 24.677C47.3813 24.7128 47.4947 24.7981 47.5657 24.9152C47.6367 25.0323 47.66 25.1722 47.6306 25.306C47.6013 25.4398 47.5216 25.5572 47.4081 25.6338L43.9468 27.8322L49.3356 24.7229C49.4557 24.6577 49.5963 24.6411 49.7283 24.6765C49.8603 24.712 49.9737 24.7968 50.045 24.9134C50.1163 25.03 50.1401 25.1695 50.1115 25.3032C50.0829 25.4369 50.0041 25.5545 49.8913 25.6317L40.2689 31.8621L52.6422 24.7229C52.7624 24.6577 52.903 24.6411 53.035 24.6765C53.167 24.712 53.2804 24.7968 53.3517 24.9134C53.423 25.03 53.4468 25.1695 53.4182 25.3032C53.3896 25.4369 53.3108 25.5545 53.198 25.6317L40.3489 33.941L56.3201 24.7229C56.4409 24.6584 56.5819 24.6428 56.7139 24.6794C56.8458 24.716 56.9587 24.8019 57.029 24.9194C57.0993 25.0369 57.1218 25.1769 57.0917 25.3105C57.0616 25.4441 56.9812 25.561 56.8673 25.637L52.1953 28.5309L58.7905 24.7229C58.9114 24.6563 59.0535 24.6392 59.1868 24.6751C59.32 24.7111 59.4342 24.7973 59.5052 24.9157C59.5762 25.0341 59.5985 25.1754 59.5675 25.3099C59.5365 25.4445 59.4545 25.5617 59.3388 25.637L50.2721 31.2765L60.9633 25.1037C61.0844 25.0339 61.2281 25.0144 61.3634 25.0494C61.4987 25.0844 61.6149 25.1712 61.6869 25.291C61.7589 25.4108 61.7809 25.5541 61.7484 25.69C61.7158 25.826 61.6311 25.9437 61.5126 26.0178L49.2694 33.6541L62.1548 26.2162C62.2757 26.1525 62.4164 26.1376 62.5479 26.1746C62.6794 26.2117 62.7917 26.2977 62.8617 26.4151C62.9316 26.5325 62.9538 26.6723 62.9237 26.8056C62.8936 26.9388 62.8134 27.0555 62.6998 27.1314L55.8444 31.3458L62.6028 27.4429C62.6628 27.4067 62.7294 27.3828 62.7986 27.3724C62.8679 27.3619 62.9386 27.3653 63.0066 27.3822C63.0746 27.3991 63.1386 27.4292 63.1949 27.4708C63.2513 27.5124 63.2989 27.5647 63.335 27.6248C63.3712 27.6848 63.3952 27.7513 63.4056 27.8206C63.416 27.8899 63.4127 27.9606 63.3958 28.0286C63.3789 28.0966 63.3488 28.1606 63.3071 28.2169C63.2655 28.2733 63.2132 28.3209 63.1532 28.357L47.4358 38.213L62.6348 29.4386C62.7557 29.372 62.8977 29.3549 63.031 29.3909C63.1643 29.4268 63.2785 29.5131 63.3495 29.6315C63.4205 29.7499 63.4428 29.8912 63.4118 30.0257C63.3807 30.1602 63.2987 30.2774 63.183 30.3528L49.423 38.949L62.6348 31.3202C62.7559 31.2471 62.901 31.2251 63.0384 31.259C63.1757 31.2929 63.2939 31.3799 63.3671 31.501C63.4402 31.6221 63.4622 31.7673 63.4283 31.9046C63.3944 32.0419 63.3073 32.1602 63.1862 32.2333L47.2428 42.3229L62.6348 33.4365C62.7549 33.3713 62.8955 33.3547 63.0275 33.3901C63.1595 33.4256 63.2729 33.5104 63.3442 33.627C63.4155 33.7436 63.4393 33.8831 63.4107 34.0168C63.3821 34.1505 63.3033 34.2681 63.1905 34.3453L46.6401 45.0514L62.6348 35.8162C62.7551 35.75 62.8963 35.7328 63.029 35.7682C63.1617 35.8035 63.2757 35.8887 63.3472 36.0059C63.4187 36.1232 63.4422 36.2635 63.4128 36.3976C63.3834 36.5318 63.3034 36.6494 63.1894 36.7261L50.8406 44.6856L62.6348 37.8781C62.7546 37.812 62.8952 37.7944 63.0275 37.829C63.1599 37.8636 63.2739 37.9478 63.3459 38.0641C63.418 38.1804 63.4426 38.32 63.4146 38.4539C63.3867 38.5878 63.3084 38.7059 63.1958 38.7837L50.7286 47.0621L62.6348 40.1896C62.7541 40.1241 62.8939 40.1068 63.0256 40.1411C63.1573 40.1754 63.2709 40.2588 63.3431 40.3741C63.4154 40.4894 63.4408 40.628 63.4142 40.7614C63.3876 40.8949 63.311 41.0131 63.2001 41.092L52.8172 48.1192L62.6305 42.452C62.7494 42.3845 62.8896 42.3653 63.0223 42.3982C63.1549 42.4312 63.2699 42.5138 63.3434 42.6291C63.4169 42.7443 63.4433 42.8833 63.4172 43.0175C63.3912 43.1517 63.3146 43.2707 63.2033 43.3501L54.4353 49.4909L62.6305 44.7602C62.7502 44.6958 62.89 44.6794 63.0213 44.7146C63.1526 44.7497 63.2655 44.8337 63.337 44.9493C63.4085 45.0649 63.4331 45.2034 63.4059 45.3366C63.3787 45.4698 63.3016 45.5875 63.1905 45.6658L60.8204 47.2296L62.6337 46.1832C62.7525 46.1174 62.8919 46.0994 63.0236 46.1329C63.1552 46.1663 63.2691 46.2488 63.342 46.3633C63.4149 46.4779 63.4414 46.616 63.416 46.7494C63.3906 46.8828 63.3153 47.0015 63.2054 47.0813L57.4188 51.1261L62.6337 48.116C62.7522 48.049 62.8917 48.0299 63.0238 48.0625C63.156 48.095 63.2706 48.1769 63.3443 48.2912C63.4181 48.4056 63.4453 48.5438 63.4205 48.6776C63.3957 48.8114 63.3206 48.9306 63.2108 49.0109L57.6108 53.029L62.6348 50.1288C62.7537 50.0613 62.8939 50.0421 63.0265 50.075C63.1592 50.108 63.2741 50.1906 63.3476 50.3059C63.4211 50.4211 63.4476 50.5601 63.4215 50.6943C63.3954 50.8285 63.3189 50.9475 63.2076 51.0269L60.0236 53.2562L62.6348 51.749C62.7525 51.6835 62.8907 51.6649 63.0216 51.6971C63.1525 51.7293 63.2663 51.8098 63.3402 51.9225C63.4141 52.0352 63.4426 52.1717 63.42 52.3045C63.3974 52.4374 63.3253 52.5567 63.2182 52.6386L56.8182 57.3554C56.8551 57.3832 56.8884 57.4155 56.9174 57.4514C56.9974 57.55 57.0397 57.6738 57.0365 57.8007C57.0334 57.9276 56.9851 58.0492 56.9004 58.1437L55.2673 59.957L56.2369 59.397C56.3449 59.335 56.4713 59.3127 56.594 59.334C56.7168 59.3554 56.8281 59.419 56.9089 59.514C56.9896 59.6089 57.0345 59.729 57.0359 59.8536C57.0373 59.9782 56.995 60.0993 56.9164 60.196L56.1366 61.156L56.2369 61.0984C56.3588 61.0346 56.5006 61.0204 56.6327 61.0587C56.7648 61.097 56.877 61.1849 56.9459 61.304C57.0147 61.4231 57.0349 61.5642 57.0021 61.6978C56.9694 61.8314 56.8863 61.9472 56.7702 62.021L54.1558 63.5304C54.0745 63.5787 53.9817 63.6044 53.887 63.605Z" fill="#BFDBF0"/>
<path d="M19.7142 33.1239C19.5968 33.1239 19.4827 33.0852 19.3896 33.0137C19.2964 32.9423 19.2295 32.842 19.1991 32.7286C19.1687 32.6152 19.1766 32.495 19.2215 32.3865C19.2664 32.2781 19.3459 32.1874 19.4476 32.1287L41.3014 19.5111C41.421 19.443 41.5623 19.4237 41.6958 19.4573C41.8293 19.491 41.9446 19.5749 42.0176 19.6916C42.0906 19.8083 42.1157 19.9487 42.0876 20.0834C42.0595 20.2182 41.9803 20.3368 41.8667 20.4146L35.7025 24.5799L41.3014 21.3479C41.4207 21.2825 41.5605 21.2652 41.6922 21.2995C41.8239 21.3338 41.9375 21.4171 42.0097 21.5325C42.082 21.6478 42.1074 21.7863 42.0808 21.9198C42.0543 22.0533 41.9777 22.1715 41.8667 22.2503L38.2934 24.6717L41.3057 22.9341C41.4238 22.8658 41.5635 22.8454 41.6962 22.8771C41.8289 22.9087 41.9444 22.99 42.019 23.1042C42.0936 23.2184 42.1216 23.3569 42.0972 23.4911C42.0729 23.6253 41.998 23.7451 41.8881 23.8258L37.1947 27.2679L41.3025 24.8978C41.4187 24.8332 41.5548 24.8143 41.6842 24.8448C41.8136 24.8754 41.9269 24.9531 42.002 25.0629C42.077 25.1726 42.1083 25.3065 42.0898 25.4381C42.0713 25.5698 42.0043 25.6898 41.9019 25.7746L38.3414 28.6322L41.3025 26.9255C41.4176 26.859 41.5535 26.8379 41.6834 26.8664C41.8133 26.8949 41.9279 26.9708 42.0047 27.0794C42.0814 27.188 42.1149 27.3213 42.0985 27.4533C42.082 27.5853 42.0169 27.7063 41.9158 27.7927L40.2347 29.2285L41.3014 28.613C41.4091 28.5514 41.535 28.5292 41.6572 28.5504C41.7795 28.5716 41.8906 28.6347 41.9713 28.729C42.052 28.8232 42.0974 28.9427 42.0995 29.0667C42.1016 29.1908 42.0604 29.3118 41.983 29.4087L40.8875 30.7719C40.9903 30.7608 41.0942 30.7797 41.1864 30.8265C41.2786 30.8733 41.3553 30.9459 41.407 31.0354C41.4775 31.1577 41.4966 31.3029 41.4602 31.4392C41.4238 31.5756 41.3349 31.692 41.2129 31.7629L39.0283 33.0215C38.9206 33.0838 38.7945 33.1064 38.6719 33.0855C38.5492 33.0646 38.4377 33.0014 38.3567 32.907C38.2757 32.8126 38.2303 32.6928 38.2283 32.5684C38.2262 32.444 38.2678 32.3228 38.3457 32.2258L39.3643 30.9597L35.7505 33.0429C35.6354 33.1091 35.4998 33.1301 35.3702 33.1017C35.2405 33.0733 35.1261 32.9976 35.0493 32.8893C34.9725 32.781 34.9388 32.648 34.9548 32.5162C34.9709 32.3845 35.0355 32.2634 35.1361 32.1767L36.8193 30.7389L32.8246 33.0429C32.7084 33.1075 32.5723 33.1264 32.4429 33.0958C32.3135 33.0653 32.2002 32.9875 32.1251 32.8778C32.0501 32.768 32.0188 32.6342 32.0373 32.5025C32.0558 32.3709 32.1228 32.2509 32.2251 32.1661L35.7867 29.3095L29.3153 33.0429C29.1972 33.1112 29.0574 33.1318 28.9247 33.1002C28.792 33.0687 28.6764 32.9875 28.6017 32.8733C28.5269 32.759 28.4989 32.6204 28.5233 32.486C28.5477 32.3517 28.6227 32.2318 28.7329 32.1511L33.4262 28.7069L25.9115 33.0439C25.7922 33.1094 25.6524 33.1267 25.5207 33.0924C25.389 33.0581 25.2755 32.9747 25.2032 32.8594C25.131 32.7441 25.1055 32.6055 25.1321 32.4721C25.1587 32.3386 25.2353 32.2204 25.3462 32.1415L28.9195 29.7223L23.1595 33.045C23.0402 33.1104 22.9004 33.1277 22.7687 33.0934C22.637 33.0591 22.5235 32.9758 22.4512 32.8605C22.379 32.7452 22.3535 32.6066 22.3801 32.4731C22.4067 32.3397 22.4833 32.2214 22.5942 32.1426L28.7542 27.9826L19.9777 33.0493C19.8979 33.0967 19.807 33.1224 19.7142 33.1239Z" fill="#F2CF7E"/>
<path d="M8.20598 40.3122C8.09018 40.3122 7.97751 40.2745 7.88502 40.2048C7.79253 40.1351 7.72524 40.0372 7.69332 39.9259C7.66139 39.8146 7.66656 39.6959 7.70806 39.5878C7.74955 39.4797 7.82511 39.388 7.92332 39.3266L16.0716 34.2237L7.77825 39.0162C7.65709 39.0845 7.51406 39.1027 7.37965 39.067C7.24524 39.0314 7.13008 38.9446 7.05872 38.8252C6.98736 38.7059 6.96543 38.5634 6.99763 38.4281C7.02982 38.2928 7.11358 38.1754 7.23105 38.101L9.85825 36.4807L7.75798 37.6893C7.63675 37.7563 7.49419 37.7735 7.36048 37.7373C7.22676 37.7011 7.11239 37.6143 7.04157 37.4952C6.97074 37.3761 6.94902 37.2342 6.981 37.0994C7.01298 36.9646 7.09616 36.8476 7.21292 36.773L8.22732 36.1501L7.75265 36.4231C7.63232 36.4893 7.4911 36.5065 7.35839 36.4712C7.22569 36.4359 7.11173 36.3507 7.04025 36.2334C6.96877 36.1162 6.94527 35.9759 6.97465 35.8417C7.00404 35.7076 7.08403 35.5899 7.19798 35.5133L21.4401 26.405L7.74092 34.3154C7.61941 34.3878 7.47411 34.409 7.33699 34.3743C7.19986 34.3396 7.08214 34.2518 7.00972 34.1303C6.93729 34.0088 6.91611 33.8635 6.95081 33.7264C6.98552 33.5893 7.07328 33.4716 7.19478 33.3991L8.73292 32.453L7.70678 33.045C7.58578 33.1106 7.44409 33.1269 7.31135 33.0905C7.17861 33.054 7.06511 32.9677 6.99457 32.8495C6.92403 32.7313 6.90193 32.5904 6.93288 32.4562C6.96384 32.3221 7.04545 32.2051 7.16065 32.1298L9.05612 30.9618L5.44758 33.0429C5.32679 33.1074 5.18581 33.123 5.05384 33.0864C4.92188 33.0498 4.80904 32.9639 4.73871 32.8464C4.66837 32.7289 4.64593 32.5888 4.67603 32.4552C4.70612 32.3216 4.78646 32.2047 4.90038 32.1287L13.5468 26.7495L3.17985 32.7335C3.05926 32.7971 2.91889 32.8122 2.78758 32.7755C2.65627 32.7388 2.54399 32.6532 2.47381 32.5364C2.40362 32.4195 2.38087 32.2802 2.41021 32.147C2.43955 32.0139 2.51877 31.897 2.63158 31.8205L14.8343 24.2066L1.92012 31.6647C1.79896 31.733 1.65593 31.7512 1.52152 31.7156C1.38711 31.6799 1.27195 31.5931 1.20059 31.4738C1.12922 31.3544 1.1073 31.2119 1.13949 31.0766C1.17168 30.9413 1.25544 30.824 1.37292 30.7495L9.79958 25.5559L1.41238 30.3997C1.29122 30.4679 1.1482 30.4862 1.01379 30.4505C0.879377 30.4148 0.764217 30.3281 0.692854 30.2087C0.62149 30.0893 0.599568 29.9468 0.63176 29.8115C0.663951 29.6763 0.747711 29.5589 0.865184 29.4845L13.1319 21.8685L1.36545 28.6589C1.24486 28.7225 1.10449 28.7375 0.973182 28.7008C0.841872 28.6641 0.729592 28.5786 0.659408 28.4617C0.589224 28.3448 0.566466 28.2055 0.59581 28.0723C0.625153 27.9392 0.704369 27.8224 0.817184 27.7458L14.4332 19.2487L1.36545 26.7922C1.24503 26.8575 1.10413 26.8739 0.971924 26.8381C0.839723 26.8023 0.726363 26.717 0.655332 26.5999C0.584301 26.4828 0.561045 26.3428 0.590382 26.2091C0.619719 26.0753 0.699402 25.9579 0.812918 25.8813L18.2401 14.8029L1.36545 24.5383C1.30529 24.5742 1.23865 24.5979 1.16934 24.608C1.10004 24.6181 1.02942 24.6144 0.961522 24.5972C0.893624 24.5801 0.829776 24.5497 0.773622 24.5078C0.717469 24.4659 0.67011 24.4134 0.634251 24.3533C0.598391 24.2931 0.574733 24.2265 0.564626 24.1572C0.554519 24.0879 0.558163 24.0172 0.575348 23.9493C0.592533 23.8814 0.622923 23.8176 0.664783 23.7614C0.706644 23.7053 0.759155 23.6579 0.819317 23.6221L6.01505 20.4167L1.36545 23.1005C1.24514 23.164 1.10509 23.1792 0.973953 23.1429C0.84282 23.1066 0.730527 23.0215 0.660059 22.9051C0.589592 22.7887 0.56628 22.6498 0.594894 22.5168C0.623509 22.3837 0.701887 22.2667 0.813984 22.1895L11.9809 15.1111L1.36545 21.2402C1.24486 21.3038 1.10449 21.3188 0.973182 21.2821C0.841872 21.2455 0.729592 21.1599 0.659408 21.043C0.589224 20.9261 0.566466 20.7868 0.59581 20.6537C0.625153 20.5205 0.704369 20.4037 0.817184 20.3271L5.40385 17.4631L1.36545 19.7917C1.24512 19.8578 1.1039 19.8751 0.971195 19.8397C0.838491 19.8044 0.724532 19.7192 0.65305 19.602C0.581568 19.4847 0.558072 19.3444 0.587454 19.2102C0.616836 19.0761 0.696832 18.9584 0.810784 18.8818L9.87745 13.0343L1.36545 17.9485C1.24536 18.0237 1.1003 18.0482 0.962169 18.0165C0.824043 17.9848 0.704168 17.8995 0.628918 17.7794C0.553667 17.6593 0.529204 17.5142 0.56091 17.3761C0.592616 17.238 0.677894 17.1181 0.797984 17.0429L12.1878 9.27753L1.36545 15.525C1.24631 15.5923 1.10586 15.6112 0.97317 15.5778C0.840476 15.5445 0.725679 15.4614 0.652523 15.3457C0.579367 15.2301 0.553447 15.0908 0.580124 14.9566C0.606801 14.8224 0.684034 14.7036 0.795851 14.6247L9.38678 8.67807L1.36545 13.3095C1.24746 13.3747 1.10915 13.3929 0.978352 13.3602C0.847549 13.3276 0.733958 13.2466 0.66043 13.1336C0.586902 13.0206 0.558894 12.884 0.582039 12.7512C0.605185 12.6184 0.677767 12.4993 0.785184 12.4178L7.87745 7.26047L1.36545 11.0194C1.24899 11.0846 1.11229 11.1038 0.982361 11.0732C0.852432 11.0426 0.73872 10.9643 0.663684 10.8539C0.588648 10.7435 0.557746 10.6089 0.577082 10.4769C0.596417 10.3448 0.664584 10.2247 0.768118 10.1405L6.23798 5.80233L1.36545 8.6162C1.24885 8.68179 1.11186 8.70116 0.98164 8.67047C0.851424 8.63978 0.737497 8.56128 0.662453 8.45053C0.587409 8.33977 0.55673 8.20486 0.576499 8.07255C0.596269 7.94023 0.665044 7.82018 0.769184 7.7362L3.11585 5.88446L1.36545 6.89567C1.25004 6.96273 1.11367 6.98407 0.983289 6.95549C0.852903 6.92691 0.737976 6.85047 0.661205 6.74127C0.584433 6.63208 0.551399 6.49806 0.568626 6.3657C0.585852 6.23333 0.652088 6.11224 0.754251 6.02633L1.78785 5.15166L1.36118 5.39486C1.25181 5.45766 1.12372 5.47967 0.999656 5.45697C0.875594 5.43427 0.76359 5.36835 0.68353 5.27089C0.603471 5.17344 0.560538 5.05077 0.562354 4.92466C0.56417 4.79855 0.610618 4.67717 0.693451 4.58206L1.62145 3.52606C1.51324 3.50687 1.41361 3.45472 1.33617 3.37675C1.25873 3.29877 1.20727 3.19878 1.18882 3.09044C1.17038 2.98211 1.18585 2.87072 1.23312 2.77151C1.28039 2.6723 1.35716 2.59011 1.45292 2.5362L3.63852 1.27753C3.74801 1.21407 3.8765 1.19161 4.00103 1.21417C4.12556 1.23673 4.238 1.30284 4.31828 1.40068C4.39855 1.49852 4.44141 1.62171 4.43921 1.74825C4.43701 1.87478 4.38988 1.99641 4.30625 2.0914L3.63745 2.8562L6.40652 1.2562C6.52177 1.19052 6.65736 1.17015 6.78683 1.19907C6.91629 1.22798 7.03033 1.30411 7.10669 1.41258C7.18305 1.52105 7.21624 1.65409 7.19979 1.78572C7.18334 1.91735 7.11842 2.03812 7.01772 2.12446L5.98198 3.0002L9.00492 1.2562C9.1211 1.19433 9.25606 1.17762 9.38383 1.20927C9.5116 1.24093 9.62315 1.31871 9.69701 1.42766C9.77088 1.53661 9.80185 1.66902 9.78396 1.79943C9.76608 1.92984 9.70059 2.04903 9.60012 2.13406L7.25345 3.98686L11.9852 1.2562C12.1017 1.18976 12.239 1.16965 12.3696 1.19989C12.5003 1.23012 12.6148 1.30848 12.6902 1.41934C12.7657 1.53021 12.7967 1.66544 12.7769 1.7981C12.7571 1.93075 12.6881 2.05109 12.5836 2.13513L7.11585 6.46793L16.1484 1.2562C16.2666 1.18896 16.406 1.16941 16.5382 1.20156C16.6703 1.23371 16.7852 1.31511 16.8593 1.42914C16.9334 1.54316 16.9611 1.68119 16.9368 1.81499C16.9126 1.9488 16.8381 2.06828 16.7286 2.149L9.63532 7.301L20.111 1.2562C20.2299 1.19127 20.3691 1.17402 20.5002 1.20795C20.6314 1.24188 20.7447 1.32444 20.8172 1.43888C20.8897 1.55332 20.9159 1.69106 20.8906 1.82413C20.8652 1.95721 20.7902 2.07564 20.6807 2.1554L12.0908 8.10207L23.9521 1.2562C24.0714 1.18989 24.2115 1.17179 24.3436 1.20564C24.4758 1.23948 24.59 1.32269 24.6627 1.43815C24.7354 1.5536 24.761 1.69253 24.7344 1.82634C24.7078 1.96015 24.6309 2.07868 24.5196 2.15753L13.1329 9.92393L28.1505 1.2562C28.2706 1.19261 28.4103 1.17722 28.5413 1.21317C28.6723 1.24912 28.7847 1.33369 28.8554 1.44964C28.9262 1.56559 28.95 1.70417 28.9221 1.8371C28.8942 1.97004 28.8166 2.08731 28.7052 2.165L19.6385 8.01353L31.342 1.2562C31.4626 1.19259 31.6029 1.17759 31.7343 1.21426C31.8656 1.25093 31.9778 1.3365 32.048 1.45338C32.1182 1.57026 32.141 1.70959 32.1116 1.84273C32.0823 1.97587 32.0031 2.09271 31.8902 2.16926L27.3068 5.029L33.8508 1.2562C33.9712 1.19094 34.1121 1.17451 34.2443 1.21031C34.3765 1.24611 34.4899 1.3314 34.5609 1.44851C34.6319 1.56561 34.6552 1.70555 34.6259 1.83934C34.5965 1.97312 34.5168 2.09049 34.4033 2.16713L23.2374 9.24127L37.0732 1.2562C37.1943 1.18794 37.3374 1.1697 37.4718 1.20538C37.6062 1.24105 37.7214 1.32782 37.7927 1.44717C37.8641 1.56653 37.886 1.70904 37.8538 1.84433C37.8216 1.97961 37.7379 2.09697 37.6204 2.1714L32.4342 5.3714L39.2215 1.45033C39.3422 1.38131 39.4852 1.36221 39.6198 1.39709C39.7545 1.43196 39.8702 1.51806 39.9422 1.63702C40.0143 1.75599 40.037 1.8984 40.0056 2.03389C39.9742 2.16939 39.8911 2.28724 39.774 2.36233L22.3404 13.4557L40.8374 2.77193C40.9585 2.70211 41.1022 2.68261 41.2375 2.71764C41.3728 2.75268 41.489 2.83943 41.561 2.95925C41.633 3.07906 41.6551 3.22235 41.6225 3.35828C41.5899 3.49421 41.5053 3.61191 41.3868 3.68606L27.7825 12.1757L41.2982 4.37193C41.4194 4.30367 41.5624 4.28544 41.6968 4.32111C41.8313 4.35679 41.9464 4.44355 42.0178 4.56291C42.0891 4.68226 42.1111 4.82477 42.0789 4.96006C42.0467 5.09535 41.9629 5.21271 41.8454 5.28713L29.5702 12.9106L41.3036 6.1394C41.4246 6.07378 41.5663 6.05749 41.699 6.09394C41.8318 6.13038 41.9453 6.21674 42.0158 6.33494C42.0863 6.45315 42.1084 6.59405 42.0775 6.72817C42.0465 6.8623 41.9649 6.97926 41.8497 7.0546L33.4134 12.2546L41.3068 7.701C41.4274 7.6374 41.5677 7.62239 41.6991 7.65906C41.8304 7.69574 41.9426 7.7813 42.0128 7.89818C42.083 8.01507 42.1058 8.15439 42.0764 8.28753C42.0471 8.42067 41.9679 8.53752 41.855 8.61407L29.6534 16.2237L41.3004 9.50367C41.4215 9.43541 41.5646 9.41717 41.699 9.45285C41.8334 9.48852 41.9485 9.57529 42.0199 9.69464C42.0913 9.814 42.1132 9.95651 42.081 10.0918C42.0488 10.2271 41.9651 10.3444 41.8476 10.4189L33.214 15.7842L41.3014 11.1143C41.4223 11.0506 41.563 11.0357 41.6946 11.0728C41.8261 11.1098 41.9384 11.1959 42.0083 11.3132C42.0782 11.4306 42.1004 11.5704 42.0703 11.7037C42.0402 11.837 41.9601 11.9536 41.8465 12.0295L39.9436 13.2029L41.3014 12.4189C41.4227 12.3518 41.5652 12.3346 41.699 12.3708C41.8327 12.4071 41.947 12.4939 42.0179 12.6129C42.0887 12.732 42.1104 12.8739 42.0784 13.0087C42.0464 13.1435 41.9633 13.2606 41.8465 13.3351L40.3105 14.2813L41.3014 13.7085C41.422 13.6411 41.564 13.6231 41.6975 13.6583C41.831 13.6934 41.9457 13.779 42.0174 13.897C42.0892 14.015 42.1123 14.1563 42.082 14.291C42.0517 14.4257 41.9704 14.5434 41.855 14.6194L27.615 23.7255L41.3014 15.8226C41.4223 15.7589 41.563 15.744 41.6946 15.781C41.8261 15.818 41.9384 15.9041 42.0083 16.0215C42.0782 16.1389 42.1004 16.2787 42.0703 16.4119C42.0402 16.5452 41.9601 16.6619 41.8465 16.7378L40.8182 17.3703L41.3014 17.0919C41.423 17.0195 41.5682 16.9983 41.7054 17.033C41.8425 17.0677 41.9602 17.1555 42.0326 17.277C42.1051 17.3985 42.1263 17.5438 42.0915 17.6809C42.0568 17.8181 41.9691 17.9358 41.8476 18.0082L39.2204 19.6274L41.3014 18.4295C41.4225 18.3597 41.5662 18.3402 41.7015 18.3752C41.8368 18.4103 41.953 18.497 42.025 18.6169C42.097 18.7367 42.1191 18.88 42.0865 19.0159C42.0539 19.1518 41.9693 19.2695 41.8508 19.3437L15.3697 35.9229C15.3749 36.021 15.3528 36.1187 15.3059 36.2051C15.259 36.2915 15.1892 36.3633 15.1041 36.4125L8.47265 40.2397C8.39168 40.2869 8.2997 40.3119 8.20598 40.3122Z" fill="#F2CF7E"/>
<path d="M54.6135 24.5704H42.3724C41.0924 18.9298 46.1697 0.0956826 37.5724 1.24875H10.5143C7.16812 1.24875 0.376654 0.146883 0.29452 5.20288C0.213454 13.2626 0.30412 21.3266 0.293454 29.3853C0.232654 32.853 3.92652 33.4386 6.69345 33.0578C5.25665 49.6296 15.1927 32.9042 21.6183 33.0578C21.8316 59.5464 17.0028 57.0034 44.3809 56.6728C49.9873 60.5202 58.6647 71.0056 57.3196 56.6728C67.6108 57.9325 62.6231 44.2994 63.7196 38.1714C63.5468 29.8098 66.2401 22.948 54.6135 24.5704ZM19.7036 32.1821C15.8444 33.5869 12.8769 37.4194 9.39959 39.5954C6.70305 39.4557 9.43585 32.9448 7.76865 32.1821C5.25559 32.4317 1.71319 32.3528 1.84012 28.9704C1.81345 -9.02218 -2.92468 4.48822 35.7164 2.11595C37.9799 2.11595 40.6593 1.94848 40.8279 5.08982C40.4577 13.6712 41.55 22.5832 40.446 31.0184C36.2113 33.9464 25.2855 31.3021 19.7036 32.1821V32.1821ZM31.0273 36.837C30.8599 37.1965 30.4417 37.6221 30.1292 37.5581C27.9884 37.2296 28.5804 34.6674 28.5057 33.109H31.2279C31.1351 34.3368 31.4668 35.669 31.0273 36.837V36.837ZM30.3116 37.557C30.3031 37.5561 30.2945 37.5561 30.286 37.557H30.3148H30.3116ZM62.1495 52.8904C62.0119 56.0413 58.8428 55.5037 56.6028 55.5037C56.2935 55.5037 55.7495 55.7704 55.7495 56.1373C56.9409 67.7821 52.9484 60.773 47.4295 57.204C46.7711 56.4651 45.9256 55.9175 44.9821 55.619C44.0385 55.3205 43.0319 55.2822 42.0684 55.508C16.1079 56.4872 24.5175 55.4493 23.1884 33.0728L26.9655 33.1005C25.4017 40.1704 34.1004 39.9176 32.7767 33.1186C34.3959 33.1144 36.0143 33.0944 37.6321 33.0589C36.9868 40.5928 39.7783 39.8546 39.1767 32.8914C42.6444 32.2696 42.5292 28.5437 42.3767 25.732C70.7201 25.0952 60.2519 24.3197 62.1495 52.8904V52.8904Z" fill="black"/>
<path d="M17.1659 12.965C15.1733 13.9496 16.7851 17.8717 16.2912 19.9069C16.3723 20.5842 17.7376 20.2536 17.8411 19.7256C17.4016 17.9101 18.7947 13.7128 17.1659 12.965V12.965Z" fill="black"/>
<path d="M12.028 12.5565C12.5016 14.1362 10.6808 23.3885 13.5725 20.6759C13.0989 19.0962 14.9197 9.84394 12.028 12.5565Z" fill="black"/>
<path d="M34.2155 17.9879C35.4208 17.7671 34.7403 16.2162 34.9067 15.3426C34.5867 14.9821 33.8827 15.2573 33.5297 15.4802C33.2801 16.1373 32.9035 18.5362 34.2155 17.9879Z" fill="black"/>
<path d="M8.45668 15.2626C7.24601 15.4759 7.92334 17.0173 7.76014 17.8898C8.02155 18.0329 8.32803 18.0697 8.61588 17.9926C8.90372 17.9155 9.1508 17.7305 9.30574 17.4759C9.15214 16.6759 9.84761 14.7655 8.45668 15.2626V15.2626Z" fill="black"/>
<path d="M25.5192 20.3378C27.4893 19.2946 25.8893 15.3959 26.381 13.3458C26.3234 12.5821 24.9026 12.8647 24.8205 13.4877C25.2802 15.4567 23.8221 19.3298 25.5192 20.3378Z" fill="black"/>
<path d="M30.639 20.676C30.1867 19.1549 31.952 9.64875 29.0944 12.5565C29.5467 14.0776 27.7814 23.5837 30.639 20.676Z" fill="black"/>
<path d="M22.1056 23.876C21.4656 21.7426 23.7312 6.43062 20.5611 9.35648C21.2022 11.4866 18.9355 26.8018 22.1056 23.876Z" fill="black"/>
<path d="M7.3772 11.7714C9.22786 11.4962 7.5148 8.88502 8.66573 7.86955C8.80836 7.69695 9.0029 7.575 9.2204 7.52182C9.262 7.52182 9.50733 7.50155 9.31533 7.50582C17.3367 7.43862 7.91586 4.75488 6.8908 8.30688C6.77453 9.22422 6.06626 11.7181 7.3772 11.7714V11.7714Z" fill="black"/>
<path d="M30.8599 7.56234C31.5415 7.57087 32.7255 7.5378 33.1383 7.58687C33.3712 7.64891 33.5886 7.75871 33.7769 7.90928C33.9651 8.05986 34.1199 8.24792 34.2316 8.46154C34.9078 9.40234 33.6204 11.7138 35.1255 11.829C36.9388 11.2135 36.1153 7.0226 34.2017 6.6226C33.4583 6.16287 28.2092 6.5138 30.8599 7.56234V7.56234Z" fill="black"/>
<path d="M12.0309 25.7661C8.83094 26.1991 7.87627 24.9693 8.24107 21.8557C5.9264 20.0072 6.1632 26.3111 8.30187 26.4839C8.94187 26.8285 13.8667 26.8839 12.0309 25.7661V25.7661Z" fill="black"/>
<path d="M35.2621 21.3575C33.2866 21.717 35.4882 24.9639 33.5085 25.5826L33.6024 25.5474C24.9624 25.7821 34.732 28.7474 35.8114 24.9234C35.8882 23.9474 36.6189 21.5101 35.2621 21.3575V21.3575Z" fill="black"/>
<path d="M55.901 28.8306C51.2983 28.0989 51.0092 38.7506 55.4071 38.5501C59.5117 38.8776 59.7335 28.997 55.901 28.8306ZM55.5255 37.349C53.4594 37.4557 53.4818 30.3624 55.1607 30.0317C57.4935 29.2232 57.5394 37.7362 55.5255 37.349Z" fill="black"/>
<path d="M49.8358 31.2296C49.6748 28.5064 45.7889 28.6642 44.4833 30.389C43.5681 32.1085 44.1943 34.2578 44.03 36.149C44.2615 38.9672 48.479 38.7645 49.5905 36.6674C50.11 34.9437 49.7878 33.0152 49.8358 31.2296V31.2296ZM46.4438 29.7256H46.4364C46.4364 29.7256 46.4342 29.7202 46.4438 29.7213V29.7256ZM46.4086 29.7256C46.3788 29.7256 46.3713 29.717 46.4086 29.7256V29.7256ZM48.2945 32.3656C48.0545 34.0722 48.9868 36.4498 47.423 37.6424C44.7745 37.7405 44.878 30.4274 46.6433 29.749C47.2044 29.8838 47.6909 30.2321 47.9992 30.72C48.3076 31.2078 48.4135 31.7966 48.2945 32.3613V32.3656Z" fill="black"/>
<path d="M41.294 43.9101C40.9985 41.1901 37.0934 41.2093 35.8625 43.1912C35.2705 45.7106 34.3788 51.4386 38.3916 51.1912C42.2401 50.9768 41.2236 46.5768 41.294 43.9101V43.9101ZM39.758 45.1677C39.4721 46.7272 40.5846 49.5933 38.6913 50.2802C38.266 50.2516 37.8655 50.0698 37.5639 49.7686C37.2623 49.4674 37.08 49.0671 37.0508 48.6418C37.342 46.8072 36.1846 43.8994 37.9446 42.7154C39.2737 42.4669 39.9297 44.0765 39.758 45.1677V45.1677Z" fill="black"/>
<path d="M32.7468 43.796C32.286 41.1666 28.3948 41.044 27.2652 43.2477C26.8012 45.8589 25.8337 51.2359 29.7921 51.2861C33.7345 51.1367 32.7201 46.4968 32.7468 43.796ZM29.9895 50.2045C27.8412 50.2866 27.8721 43.1826 29.5447 42.7645C31.8839 42.0722 31.9489 50.4018 29.9873 50.2045H29.9895Z" fill="black"/>
<path d="M46.1613 42.4232C46.6199 43.9602 44.8375 53.3938 47.7058 50.5426C47.2471 49.0056 49.0295 39.572 46.1613 42.4232Z" fill="black"/>
<path d="M54.6902 42.2994C55.1382 43.7832 53.3846 53.525 56.2422 50.6664C55.7952 49.1826 57.5488 39.4429 54.6902 42.2994Z" fill="black"/>
</svg>
