<svg width="99" height="141" viewBox="0 0 99 141" fill="none" xmlns="http://www.w3.org/2000/svg">
<path opacity="0.2" d="M0 115.321C41.5105 85.6892 62.2657 62.1274 62.2657 44.6355C62.2657 33.9316 57.6317 28.5796 48.3636 28.5796C43.1422 28.5796 39.2914 30.4071 36.8112 34.0621C34.4615 37.7171 33.1562 43.3955 32.8951 51.0971H0.195804C0.979021 34.2579 6.06993 21.5959 15.4685 13.1111C24.8671 4.62621 36.7459 0.383789 51.1049 0.383789C66.1165 0.383789 77.4079 4.16934 84.979 11.7404C92.6806 19.3115 96.5315 29.167 96.5315 41.3069C96.5315 54.7521 91.3753 67.9362 81.0629 80.8593C70.7506 93.6519 58.4149 104.486 44.0559 113.363H98.6853V140.384H0V115.321Z" fill="url(#paint0_linear_131_676)"/>
<defs>
<linearGradient id="paint0_linear_131_676" x1="49.3427" y1="0.383789" x2="49.3427" y2="140.384" gradientUnits="userSpaceOnUse">
<stop stop-color="#B3A985"/>
<stop offset="1" stop-color="#B2A985" stop-opacity="0"/>
</linearGradient>
</defs>
</svg>
