<svg width="96" height="141" viewBox="0 0 96 141" fill="none" xmlns="http://www.w3.org/2000/svg">
<path opacity="0.2" d="M49.047 0.383789C58.3177 0.383789 66.2729 2.01243 72.9128 5.2697C79.5526 8.40169 84.5638 12.7865 87.9463 18.4241C91.4541 23.9364 93.2081 30.2003 93.2081 37.216C93.2081 45.8603 90.953 52.8133 86.443 58.0751C82.0582 63.3368 76.5459 66.6567 69.9061 68.0348V68.9744C87.0694 74.4867 95.651 85.1981 95.651 101.109C95.651 108.751 93.8971 115.578 90.3893 121.592C86.8814 127.48 81.745 132.115 74.9799 135.498C68.3401 138.755 60.3222 140.384 50.9262 140.384C35.6421 140.384 23.4899 136.625 14.4698 129.109C5.57495 121.592 0.751678 110.129 0 94.7194H31.3826C31.6331 100.608 33.2617 105.243 36.2685 108.625C39.2752 112.008 43.66 113.699 49.4228 113.699C54.0582 113.699 57.6913 112.321 60.3222 109.565C63.0783 106.809 64.4564 103.238 64.4564 98.8536C64.4564 87.9543 56.5638 82.5046 40.7785 82.5046H34.7651V56.3838H40.5906C54.7472 56.6343 61.8255 51.5605 61.8255 41.1623C61.8255 36.6522 60.5727 33.2071 58.0671 30.8267C55.6868 28.3212 52.4295 27.0684 48.2953 27.0684C43.7852 27.0684 40.2148 28.6343 37.5839 31.7663C34.953 34.773 33.4497 38.8446 33.0738 43.9811H1.69128C2.31767 29.9498 6.70246 19.1757 14.8456 11.659C22.9888 4.14218 34.3893 0.383789 49.047 0.383789Z" fill="url(#paint0_linear_131_688)"/>
<defs>
<linearGradient id="paint0_linear_131_688" x1="47.8255" y1="0.383789" x2="47.8255" y2="140.384" gradientUnits="userSpaceOnUse">
<stop stop-color="#B3A985"/>
<stop offset="1" stop-color="#B2A985" stop-opacity="0"/>
</linearGradient>
</defs>
</svg>
